<?xml version="1.0" encoding="UTF-8" standalone="no"?>
<!DOCTYPE svg PUBLIC "-//W3C//DTD SVG 1.1//EN"
 "http://www.w3.org/Graphics/SVG/1.1/DTD/svg11.dtd">
<!-- Generated by graphviz version 2.26.3 (20100126.1600)
 -->
<!-- Title: src/analysis/utils/A2GeoAcceptance.h Pages: 1 -->
<svg width="2482pt" height="272pt"
 viewBox="0.00 0.00 2482.00 272.00" xmlns="http://www.w3.org/2000/svg" xmlns:xlink="http://www.w3.org/1999/xlink">
<g id="graph1" class="graph" transform="scale(1 1) rotate(0) translate(4 268)">
<title>src/analysis/utils/A2GeoAcceptance.h</title>
<polygon fill="white" stroke="white" points="-4,5 -4,-268 2479,-268 2479,5 -4,5"/>
<!-- Node20 -->
<g id="node1" class="node"><title>Node20</title>
<polygon fill="#bfbfbf" stroke="black" points="1534,-229 1534,-263 1644,-263 1644,-229 1534,-229"/>
<text text-anchor="start" x="1542" y="-250" font-family="Helvetica,sans-Serif" font-size="10.00">src/analysis/utils</text>
<text text-anchor="middle" x="1589" y="-237" font-family="Helvetica,sans-Serif" font-size="10.00">/A2GeoAcceptance.h</text>
</g>
<!-- Node21 -->
<g id="node3" class="node"><title>Node21</title>
<a xlink:href="_pluto_reader_8h.html" target="_top" xlink:title="src/analysis/input\l/pluto/PlutoReader.h">
<polygon fill="white" stroke="black" points="309,-157 309,-191 415,-191 415,-157 309,-157"/>
<text text-anchor="start" x="317" y="-178" font-family="Helvetica,sans-Serif" font-size="10.00">src/analysis/input</text>
<text text-anchor="middle" x="362" y="-165" font-family="Helvetica,sans-Serif" font-size="10.00">/pluto/PlutoReader.h</text>
</a>
</g>
<!-- Node20&#45;&gt;Node21 -->
<g id="edge2" class="edge"><title>Node20&#45;&gt;Node21</title>
<path fill="none" stroke="midnightblue" d="M1523.76,-242.899C1365.51,-235.276 948.64,-214.589 601,-192 537.055,-187.845 463.555,-182.175 415.136,-178.317"/>
<polygon fill="midnightblue" stroke="midnightblue" points="1523.65,-246.398 1533.81,-243.383 1523.99,-239.406 1523.65,-246.398"/>
</g>
<!-- Node27 -->
<g id="node15" class="node"><title>Node27</title>
<a xlink:href="_m_c_photon_pair_check_8h.html" target="_top" xlink:title="src/analysis/physics\l/check/MCPhotonPairCheck.h">
<polygon fill="white" stroke="black" points="906.5,-157 906.5,-191 1055.5,-191 1055.5,-157 906.5,-157"/>
<text text-anchor="start" x="914.5" y="-178" font-family="Helvetica,sans-Serif" font-size="10.00">src/analysis/physics</text>
<text text-anchor="middle" x="981" y="-165" font-family="Helvetica,sans-Serif" font-size="10.00">/check/MCPhotonPairCheck.h</text>
</a>
</g>
<!-- Node20&#45;&gt;Node27 -->
<g id="edge14" class="edge"><title>Node20&#45;&gt;Node27</title>
<path fill="none" stroke="midnightblue" d="M1524.01,-238.303C1410.24,-224.831 1175.7,-197.057 1055.54,-182.827"/>
<polygon fill="midnightblue" stroke="midnightblue" points="1523.63,-241.783 1533.97,-239.483 1524.45,-234.832 1523.63,-241.783"/>
</g>
<!-- Node29 -->
<g id="node19" class="node"><title>Node29</title>
<a xlink:href="_etap_omega_g_8h.html" target="_top" xlink:title="src/analysis/physics\l/etaprime/EtapOmegaG.h">
<polygon fill="white" stroke="black" points="1144,-157 1144,-191 1272,-191 1272,-157 1144,-157"/>
<text text-anchor="start" x="1152" y="-178" font-family="Helvetica,sans-Serif" font-size="10.00">src/analysis/physics</text>
<text text-anchor="middle" x="1208" y="-165" font-family="Helvetica,sans-Serif" font-size="10.00">/etaprime/EtapOmegaG.h</text>
</a>
</g>
<!-- Node20&#45;&gt;Node29 -->
<g id="edge18" class="edge"><title>Node20&#45;&gt;Node29</title>
<path fill="none" stroke="midnightblue" d="M1523.58,-234.91C1462.91,-224.454 1370.19,-208.037 1290,-192 1284.28,-190.857 1278.35,-189.631 1272.41,-188.377"/>
<polygon fill="midnightblue" stroke="midnightblue" points="1523.33,-238.418 1533.77,-236.663 1524.51,-231.519 1523.33,-238.418"/>
</g>
<!-- Node32 -->
<g id="node25" class="node"><title>Node32</title>
<a xlink:href="etaprime-3pi0_8h.html" target="_top" xlink:title="src/analysis/physics\l/etaprime/etaprime&#45;3pi0.h">
<polygon fill="white" stroke="black" points="1298.5,-157 1298.5,-191 1425.5,-191 1425.5,-157 1298.5,-157"/>
<text text-anchor="start" x="1306.5" y="-178" font-family="Helvetica,sans-Serif" font-size="10.00">src/analysis/physics</text>
<text text-anchor="middle" x="1362" y="-165" font-family="Helvetica,sans-Serif" font-size="10.00">/etaprime/etaprime&#45;3pi0.h</text>
</a>
</g>
<!-- Node20&#45;&gt;Node32 -->
<g id="edge24" class="edge"><title>Node20&#45;&gt;Node32</title>
<path fill="none" stroke="midnightblue" d="M1525.23,-225.774C1490.74,-214.835 1448.62,-201.474 1415.8,-191.065"/>
<polygon fill="midnightblue" stroke="midnightblue" points="1524.61,-229.25 1535.2,-228.937 1526.73,-222.577 1524.61,-229.25"/>
</g>
<!-- Node34 -->
<g id="node29" class="node"><title>Node34</title>
<a xlink:href="_geo_acceptance_8h.html" target="_top" xlink:title="src/analysis/physics\l/omega/GeoAcceptance.h">
<polygon fill="white" stroke="black" points="1445,-157 1445,-191 1575,-191 1575,-157 1445,-157"/>
<text text-anchor="start" x="1453" y="-178" font-family="Helvetica,sans-Serif" font-size="10.00">src/analysis/physics</text>
<text text-anchor="middle" x="1510" y="-165" font-family="Helvetica,sans-Serif" font-size="10.00">/omega/GeoAcceptance.h</text>
</a>
</g>
<!-- Node20&#45;&gt;Node34 -->
<g id="edge28" class="edge"><title>Node20&#45;&gt;Node34</title>
<path fill="none" stroke="midnightblue" d="M1562.57,-221.908C1551.52,-211.844 1538.94,-200.38 1528.86,-191.19"/>
<polygon fill="midnightblue" stroke="midnightblue" points="1560.53,-224.788 1570.28,-228.937 1565.24,-219.614 1560.53,-224.788"/>
</g>
<!-- Node36 -->
<g id="node33" class="node"><title>Node36</title>
<a xlink:href="mctrue__acceptance_8h.html" target="_top" xlink:title="src/analysis/physics\l/omega/mctrue_acceptance.h">
<polygon fill="white" stroke="black" points="1595,-157 1595,-191 1741,-191 1741,-157 1595,-157"/>
<text text-anchor="start" x="1603" y="-178" font-family="Helvetica,sans-Serif" font-size="10.00">src/analysis/physics</text>
<text text-anchor="middle" x="1668" y="-165" font-family="Helvetica,sans-Serif" font-size="10.00">/omega/mctrue_acceptance.h</text>
</a>
</g>
<!-- Node20&#45;&gt;Node36 -->
<g id="edge32" class="edge"><title>Node20&#45;&gt;Node36</title>
<path fill="none" stroke="midnightblue" d="M1615.43,-221.908C1626.48,-211.844 1639.06,-200.38 1649.14,-191.19"/>
<polygon fill="midnightblue" stroke="midnightblue" points="1612.76,-219.614 1607.72,-228.937 1617.47,-224.788 1612.76,-219.614"/>
</g>
<!-- Node38 -->
<g id="node37" class="node"><title>Node38</title>
<a xlink:href="_omega___ep_em__mc_8h.html" target="_top" xlink:title="src/analysis/physics\l/omega/Omega_EpEm_mc.h">
<polygon fill="white" stroke="black" points="1762.5,-157 1762.5,-191 1905.5,-191 1905.5,-157 1762.5,-157"/>
<text text-anchor="start" x="1770.5" y="-178" font-family="Helvetica,sans-Serif" font-size="10.00">src/analysis/physics</text>
<text text-anchor="middle" x="1834" y="-165" font-family="Helvetica,sans-Serif" font-size="10.00">/omega/Omega_EpEm_mc.h</text>
</a>
</g>
<!-- Node20&#45;&gt;Node38 -->
<g id="edge36" class="edge"><title>Node20&#45;&gt;Node38</title>
<path fill="none" stroke="midnightblue" d="M1654.2,-226.84C1692.06,-215.713 1739.35,-201.815 1775.93,-191.066"/>
<polygon fill="midnightblue" stroke="midnightblue" points="1652.9,-223.574 1644.29,-229.752 1654.87,-230.29 1652.9,-223.574"/>
</g>
<!-- Node40 -->
<g id="node41" class="node"><title>Node40</title>
<a xlink:href="_omega___eta_g_8h.html" target="_top" xlink:title="src/analysis/physics\l/omega/Omega_EtaG.h">
<polygon fill="white" stroke="black" points="1930.5,-157 1930.5,-191 2049.5,-191 2049.5,-157 1930.5,-157"/>
<text text-anchor="start" x="1938.5" y="-178" font-family="Helvetica,sans-Serif" font-size="10.00">src/analysis/physics</text>
<text text-anchor="middle" x="1990" y="-165" font-family="Helvetica,sans-Serif" font-size="10.00">/omega/Omega_EtaG.h</text>
</a>
</g>
<!-- Node20&#45;&gt;Node40 -->
<g id="edge40" class="edge"><title>Node20&#45;&gt;Node40</title>
<path fill="none" stroke="midnightblue" d="M1654.35,-236.477C1720.14,-226.575 1824.45,-210.023 1914,-192 1919.32,-190.93 1924.83,-189.755 1930.34,-188.533"/>
<polygon fill="midnightblue" stroke="midnightblue" points="1653.5,-233.065 1644.12,-238.008 1654.53,-239.988 1653.5,-233.065"/>
</g>
<!-- Node42 -->
<g id="node45" class="node"><title>Node42</title>
<a xlink:href="pi0eta_8h.html" target="_top" xlink:title="src/analysis/physics\l/omega/pi0eta.h">
<polygon fill="white" stroke="black" points="2070,-79 2070,-113 2176,-113 2176,-79 2070,-79"/>
<text text-anchor="start" x="2078" y="-100" font-family="Helvetica,sans-Serif" font-size="10.00">src/analysis/physics</text>
<text text-anchor="middle" x="2123" y="-87" font-family="Helvetica,sans-Serif" font-size="10.00">/omega/pi0eta.h</text>
</a>
</g>
<!-- Node20&#45;&gt;Node42 -->
<g id="edge48" class="edge"><title>Node20&#45;&gt;Node42</title>
<path fill="none" stroke="midnightblue" d="M1654.32,-241.508C1775.1,-232.759 2024.21,-212.493 2058,-192 2088.12,-173.736 2107.43,-135.581 2116.64,-113.265"/>
<polygon fill="midnightblue" stroke="midnightblue" points="1653.81,-238.035 1644.09,-242.243 1654.32,-245.017 1653.81,-238.035"/>
</g>
<!-- Node44 -->
<g id="node50" class="node"><title>Node44</title>
<a xlink:href="single_pi0_8h.html" target="_top" xlink:title="src/analysis/physics\l/production/singlePi0.h">
<polygon fill="white" stroke="black" points="2179,-157 2179,-191 2295,-191 2295,-157 2179,-157"/>
<text text-anchor="start" x="2187" y="-178" font-family="Helvetica,sans-Serif" font-size="10.00">src/analysis/physics</text>
<text text-anchor="middle" x="2237" y="-165" font-family="Helvetica,sans-Serif" font-size="10.00">/production/singlePi0.h</text>
</a>
</g>
<!-- Node20&#45;&gt;Node44 -->
<g id="edge50" class="edge"><title>Node20&#45;&gt;Node44</title>
<path fill="none" stroke="midnightblue" d="M1654.46,-240.175C1753.89,-231.121 1948.9,-212.561 2114,-192 2135.2,-189.359 2158.4,-186.069 2178.88,-183.027"/>
<polygon fill="midnightblue" stroke="midnightblue" points="1653.91,-236.71 1644.27,-241.1 1654.54,-243.682 1653.91,-236.71"/>
</g>
<!-- Node47 -->
<g id="node56" class="node"><title>Node47</title>
<a xlink:href="_a2_geo_acceptance_8cc.html" target="_top" xlink:title="src/analysis/utils\l/A2GeoAcceptance.cc">
<polygon fill="white" stroke="black" points="2312.5,-157 2312.5,-191 2427.5,-191 2427.5,-157 2312.5,-157"/>
<text text-anchor="start" x="2320.5" y="-178" font-family="Helvetica,sans-Serif" font-size="10.00">src/analysis/utils</text>
<text text-anchor="middle" x="2370" y="-165" font-family="Helvetica,sans-Serif" font-size="10.00">/A2GeoAcceptance.cc</text>
</a>
</g>
<!-- Node20&#45;&gt;Node47 -->
<g id="edge56" class="edge"><title>Node20&#45;&gt;Node47</title>
<path fill="none" stroke="midnightblue" d="M1654.24,-242.671C1806.16,-234.66 2180.03,-213.384 2304,-192 2306.69,-191.536 2309.43,-191.009 2312.19,-190.436"/>
<polygon fill="midnightblue" stroke="midnightblue" points="1653.93,-239.183 1644.13,-243.202 1654.3,-246.173 1653.93,-239.183"/>
</g>
<!-- Node48 -->
<g id="node58" class="node"><title>Node48</title>
<a xlink:href="_m_c_fake_reconstructed_8h.html" target="_top" xlink:title="src/analysis/utils\l/MCFakeReconstructed.h">
<polygon fill="white" stroke="black" points="609.5,-157 609.5,-191 738.5,-191 738.5,-157 609.5,-157"/>
<text text-anchor="start" x="617.5" y="-178" font-family="Helvetica,sans-Serif" font-size="10.00">src/analysis/utils</text>
<text text-anchor="middle" x="674" y="-165" font-family="Helvetica,sans-Serif" font-size="10.00">/MCFakeReconstructed.h</text>
</a>
</g>
<!-- Node20&#45;&gt;Node48 -->
<g id="edge58" class="edge"><title>Node20&#45;&gt;Node48</title>
<path fill="none" stroke="midnightblue" d="M1523.57,-240.935C1400.89,-231.427 1127.91,-210.221 898,-192 844.329,-187.746 783.43,-182.848 738.692,-179.236"/>
<polygon fill="midnightblue" stroke="midnightblue" points="1523.67,-244.453 1533.91,-241.736 1524.21,-237.474 1523.67,-244.453"/>
</g>
<!-- Node22 -->
<g id="node5" class="node"><title>Node22</title>
<a xlink:href="_ant_8cc.html" target="_top" xlink:title="Main Ant executable. ">
<polygon fill="white" stroke="black" points="0,-85.5 0,-106.5 72,-106.5 72,-85.5 0,-85.5"/>
<text text-anchor="middle" x="36" y="-93.5" font-family="Helvetica,sans-Serif" font-size="10.00">progs/Ant.cc</text>
</a>
</g>
<!-- Node21&#45;&gt;Node22 -->
<g id="edge4" class="edge"><title>Node21&#45;&gt;Node22</title>
<path fill="none" stroke="midnightblue" d="M298.871,-167.363C240.967,-159.999 153.459,-145.624 81,-120 71.3168,-116.576 61.1695,-111.327 52.9669,-106.61"/>
<polygon fill="midnightblue" stroke="midnightblue" points="298.616,-170.858 308.971,-168.614 299.477,-163.911 298.616,-170.858"/>
</g>
<!-- Node23 -->
<g id="node7" class="node"><title>Node23</title>
<a xlink:href="_pluto_reader_8cc.html" target="_top" xlink:title="src/analysis/input\l/pluto/PlutoReader.cc">
<polygon fill="white" stroke="black" points="89.5,-79 89.5,-113 200.5,-113 200.5,-79 89.5,-79"/>
<text text-anchor="start" x="97.5" y="-100" font-family="Helvetica,sans-Serif" font-size="10.00">src/analysis/input</text>
<text text-anchor="middle" x="145" y="-87" font-family="Helvetica,sans-Serif" font-size="10.00">/pluto/PlutoReader.cc</text>
</a>
</g>
<!-- Node21&#45;&gt;Node23 -->
<g id="edge6" class="edge"><title>Node21&#45;&gt;Node23</title>
<path fill="none" stroke="midnightblue" d="M303.188,-153.544C274.698,-143.557 240.018,-131.289 209,-120 202.867,-117.768 196.415,-115.387 190.064,-113.025"/>
<polygon fill="midnightblue" stroke="midnightblue" points="302.396,-156.975 312.991,-156.975 304.709,-150.368 302.396,-156.975"/>
</g>
<!-- Node24 -->
<g id="node9" class="node"><title>Node24</title>
<a xlink:href="_test_fitter_8cc.html" target="_top" xlink:title="test/analysis/TestFitter.cc">
<polygon fill="white" stroke="black" points="533.5,-85.5 533.5,-106.5 664.5,-106.5 664.5,-85.5 533.5,-85.5"/>
<text text-anchor="middle" x="599" y="-93.5" font-family="Helvetica,sans-Serif" font-size="10.00">test/analysis/TestFitter.cc</text>
</a>
</g>
<!-- Node21&#45;&gt;Node24 -->
<g id="edge8" class="edge"><title>Node21&#45;&gt;Node24</title>
<path fill="none" stroke="midnightblue" d="M423.282,-153.831C469.247,-138.704 530.323,-118.602 567.036,-106.52"/>
<polygon fill="midnightblue" stroke="midnightblue" points="422.122,-150.528 413.718,-156.979 424.311,-157.177 422.122,-150.528"/>
</g>
<!-- Node25 -->
<g id="node11" class="node"><title>Node25</title>
<a xlink:href="_test_physics_manager_8cc.html" target="_top" xlink:title="test/analysis/TestPhysics\lManager.cc">
<polygon fill="white" stroke="black" points="218,-79 218,-113 348,-113 348,-79 218,-79"/>
<text text-anchor="start" x="226" y="-100" font-family="Helvetica,sans-Serif" font-size="10.00">test/analysis/TestPhysics</text>
<text text-anchor="middle" x="283" y="-87" font-family="Helvetica,sans-Serif" font-size="10.00">Manager.cc</text>
</a>
</g>
<!-- Node21&#45;&gt;Node25 -->
<g id="edge10" class="edge"><title>Node21&#45;&gt;Node25</title>
<path fill="none" stroke="midnightblue" d="M337.347,-149.659C325.393,-137.856 311.315,-123.957 300.484,-113.262"/>
<polygon fill="midnightblue" stroke="midnightblue" points="334.892,-152.154 344.467,-156.689 339.81,-147.173 334.892,-152.154"/>
</g>
<!-- Node26 -->
<g id="node13" class="node"><title>Node26</title>
<a xlink:href="_test_tree_fitter_8cc.html" target="_top" xlink:title="test/analysis/TestTreeFitter.cc">
<polygon fill="white" stroke="black" points="366,-85.5 366,-106.5 516,-106.5 516,-85.5 366,-85.5"/>
<text text-anchor="middle" x="441" y="-93.5" font-family="Helvetica,sans-Serif" font-size="10.00">test/analysis/TestTreeFitter.cc</text>
</a>
</g>
<!-- Node21&#45;&gt;Node26 -->
<g id="edge12" class="edge"><title>Node21&#45;&gt;Node26</title>
<path fill="none" stroke="midnightblue" d="M386.799,-149.515C401.332,-135.166 418.961,-117.76 430.083,-106.779"/>
<polygon fill="midnightblue" stroke="midnightblue" points="384.19,-147.173 379.533,-156.689 389.108,-152.154 384.19,-147.173"/>
</g>
<!-- Node28 -->
<g id="node17" class="node"><title>Node28</title>
<a xlink:href="_m_c_photon_pair_check_8cc.html" target="_top" xlink:title="src/analysis/physics\l/check/MCPhotonPairCheck.cc">
<polygon fill="white" stroke="black" points="833.5,-79 833.5,-113 988.5,-113 988.5,-79 833.5,-79"/>
<text text-anchor="start" x="841.5" y="-100" font-family="Helvetica,sans-Serif" font-size="10.00">src/analysis/physics</text>
<text text-anchor="middle" x="911" y="-87" font-family="Helvetica,sans-Serif" font-size="10.00">/check/MCPhotonPairCheck.cc</text>
</a>
</g>
<!-- Node27&#45;&gt;Node28 -->
<g id="edge16" class="edge"><title>Node27&#45;&gt;Node28</title>
<path fill="none" stroke="midnightblue" d="M958.554,-148.988C948.093,-137.333 935.909,-123.755 926.492,-113.262"/>
<polygon fill="midnightblue" stroke="midnightblue" points="956.181,-151.585 965.465,-156.689 961.39,-146.909 956.181,-151.585"/>
</g>
<!-- Node30 -->
<g id="node21" class="node"><title>Node30</title>
<a xlink:href="_etap_omega_g_8cc.html" target="_top" xlink:title="src/analysis/physics\l/etaprime/EtapOmegaG.cc">
<polygon fill="white" stroke="black" points="1141.5,-79 1141.5,-113 1274.5,-113 1274.5,-79 1141.5,-79"/>
<text text-anchor="start" x="1149.5" y="-100" font-family="Helvetica,sans-Serif" font-size="10.00">src/analysis/physics</text>
<text text-anchor="middle" x="1208" y="-87" font-family="Helvetica,sans-Serif" font-size="10.00">/etaprime/EtapOmegaG.cc</text>
</a>
</g>
<!-- Node29&#45;&gt;Node30 -->
<g id="edge20" class="edge"><title>Node29&#45;&gt;Node30</title>
<path fill="none" stroke="midnightblue" d="M1208,-146.61C1208,-135.519 1208,-123.049 1208,-113.262"/>
<polygon fill="midnightblue" stroke="midnightblue" points="1204.5,-146.689 1208,-156.689 1211.5,-146.689 1204.5,-146.689"/>
</g>
<!-- Node31 -->
<g id="node23" class="node"><title>Node31</title>
<a xlink:href="_etap_omega_g__plot_8cc.html" target="_top" xlink:title="src/analysis/physics\l/etaprime/EtapOmegaG\l_plot.cc">
<polygon fill="white" stroke="black" points="1005.5,-72.5 1005.5,-119.5 1124.5,-119.5 1124.5,-72.5 1005.5,-72.5"/>
<text text-anchor="start" x="1013.5" y="-106.5" font-family="Helvetica,sans-Serif" font-size="10.00">src/analysis/physics</text>
<text text-anchor="start" x="1013.5" y="-93.5" font-family="Helvetica,sans-Serif" font-size="10.00">/etaprime/EtapOmegaG</text>
<text text-anchor="middle" x="1065" y="-80.5" font-family="Helvetica,sans-Serif" font-size="10.00">_plot.cc</text>
</a>
</g>
<!-- Node29&#45;&gt;Node31 -->
<g id="edge22" class="edge"><title>Node29&#45;&gt;Node31</title>
<path fill="none" stroke="midnightblue" d="M1167.81,-152.081C1149.25,-141.953 1127.17,-129.911 1108.24,-119.586"/>
<polygon fill="midnightblue" stroke="midnightblue" points="1166.16,-155.167 1176.62,-156.883 1169.52,-149.021 1166.16,-155.167"/>
</g>
<!-- Node33 -->
<g id="node27" class="node"><title>Node33</title>
<a xlink:href="etaprime-3pi0_8cc.html" target="_top" xlink:title="src/analysis/physics\l/etaprime/etaprime&#45;3pi0.cc">
<polygon fill="white" stroke="black" points="1292,-79 1292,-113 1424,-113 1424,-79 1292,-79"/>
<text text-anchor="start" x="1300" y="-100" font-family="Helvetica,sans-Serif" font-size="10.00">src/analysis/physics</text>
<text text-anchor="middle" x="1358" y="-87" font-family="Helvetica,sans-Serif" font-size="10.00">/etaprime/etaprime&#45;3pi0.cc</text>
</a>
</g>
<!-- Node32&#45;&gt;Node33 -->
<g id="edge26" class="edge"><title>Node32&#45;&gt;Node33</title>
<path fill="none" stroke="midnightblue" d="M1360.6,-146.61C1360.03,-135.519 1359.39,-123.049 1358.89,-113.262"/>
<polygon fill="midnightblue" stroke="midnightblue" points="1357.1,-146.882 1361.11,-156.689 1364.1,-146.523 1357.1,-146.882"/>
</g>
<!-- Node35 -->
<g id="node31" class="node"><title>Node35</title>
<a xlink:href="_geo_acceptance_8cc.html" target="_top" xlink:title="src/analysis/physics\l/omega/GeoAcceptance.cc">
<polygon fill="white" stroke="black" points="1441.5,-79 1441.5,-113 1576.5,-113 1576.5,-79 1441.5,-79"/>
<text text-anchor="start" x="1449.5" y="-100" font-family="Helvetica,sans-Serif" font-size="10.00">src/analysis/physics</text>
<text text-anchor="middle" x="1509" y="-87" font-family="Helvetica,sans-Serif" font-size="10.00">/omega/GeoAcceptance.cc</text>
</a>
</g>
<!-- Node34&#45;&gt;Node35 -->
<g id="edge30" class="edge"><title>Node34&#45;&gt;Node35</title>
<path fill="none" stroke="midnightblue" d="M1509.65,-146.61C1509.51,-135.519 1509.35,-123.049 1509.22,-113.262"/>
<polygon fill="midnightblue" stroke="midnightblue" points="1506.15,-146.735 1509.78,-156.689 1513.15,-146.645 1506.15,-146.735"/>
</g>
<!-- Node37 -->
<g id="node35" class="node"><title>Node37</title>
<a xlink:href="mctrue__acceptance_8cc.html" target="_top" xlink:title="src/analysis/physics\l/omega/mctrue_acceptance.cc">
<polygon fill="white" stroke="black" points="1593.5,-79 1593.5,-113 1744.5,-113 1744.5,-79 1593.5,-79"/>
<text text-anchor="start" x="1601.5" y="-100" font-family="Helvetica,sans-Serif" font-size="10.00">src/analysis/physics</text>
<text text-anchor="middle" x="1669" y="-87" font-family="Helvetica,sans-Serif" font-size="10.00">/omega/mctrue_acceptance.cc</text>
</a>
</g>
<!-- Node36&#45;&gt;Node37 -->
<g id="edge34" class="edge"><title>Node36&#45;&gt;Node37</title>
<path fill="none" stroke="midnightblue" d="M1668.35,-146.61C1668.49,-135.519 1668.65,-123.049 1668.78,-113.262"/>
<polygon fill="midnightblue" stroke="midnightblue" points="1664.85,-146.645 1668.22,-156.689 1671.85,-146.735 1664.85,-146.645"/>
</g>
<!-- Node39 -->
<g id="node39" class="node"><title>Node39</title>
<a xlink:href="_omega___ep_em__mc_8cc.html" target="_top" xlink:title="src/analysis/physics\l/omega/Omega_EpEm_mc.cc">
<polygon fill="white" stroke="black" points="1762,-79 1762,-113 1910,-113 1910,-79 1762,-79"/>
<text text-anchor="start" x="1770" y="-100" font-family="Helvetica,sans-Serif" font-size="10.00">src/analysis/physics</text>
<text text-anchor="middle" x="1836" y="-87" font-family="Helvetica,sans-Serif" font-size="10.00">/omega/Omega_EpEm_mc.cc</text>
</a>
</g>
<!-- Node38&#45;&gt;Node39 -->
<g id="edge38" class="edge"><title>Node38&#45;&gt;Node39</title>
<path fill="none" stroke="midnightblue" d="M1834.7,-146.61C1834.99,-135.519 1835.31,-123.049 1835.56,-113.262"/>
<polygon fill="midnightblue" stroke="midnightblue" points="1831.2,-146.603 1834.44,-156.689 1838.2,-146.782 1831.2,-146.603"/>
</g>
<!-- Node41 -->
<g id="node43" class="node"><title>Node41</title>
<a xlink:href="_omega___eta_g_8cc.html" target="_top" xlink:title="src/analysis/physics\l/omega/Omega_EtaG.cc">
<polygon fill="white" stroke="black" points="1927.5,-79 1927.5,-113 2052.5,-113 2052.5,-79 1927.5,-79"/>
<text text-anchor="start" x="1935.5" y="-100" font-family="Helvetica,sans-Serif" font-size="10.00">src/analysis/physics</text>
<text text-anchor="middle" x="1990" y="-87" font-family="Helvetica,sans-Serif" font-size="10.00">/omega/Omega_EtaG.cc</text>
</a>
</g>
<!-- Node40&#45;&gt;Node41 -->
<g id="edge42" class="edge"><title>Node40&#45;&gt;Node41</title>
<path fill="none" stroke="midnightblue" d="M1990,-146.61C1990,-135.519 1990,-123.049 1990,-113.262"/>
<polygon fill="midnightblue" stroke="midnightblue" points="1986.5,-146.689 1990,-156.689 1993.5,-146.689 1986.5,-146.689"/>
</g>
<!-- Node40&#45;&gt;Node42 -->
<g id="edge44" class="edge"><title>Node40&#45;&gt;Node42</title>
<path fill="none" stroke="midnightblue" d="M2027.85,-151.799C2048.82,-139.501 2074.49,-124.448 2093.88,-113.078"/>
<polygon fill="midnightblue" stroke="midnightblue" points="2026.04,-148.805 2019.19,-156.883 2029.58,-154.843 2026.04,-148.805"/>
</g>
<!-- Node43 -->
<g id="node47" class="node"><title>Node43</title>
<a xlink:href="pi0eta_8cc.html" target="_top" xlink:title="src/analysis/physics\l/omega/pi0eta.cc">
<polygon fill="white" stroke="black" points="2070,-1 2070,-35 2176,-35 2176,-1 2070,-1"/>
<text text-anchor="start" x="2078" y="-22" font-family="Helvetica,sans-Serif" font-size="10.00">src/analysis/physics</text>
<text text-anchor="middle" x="2123" y="-9" font-family="Helvetica,sans-Serif" font-size="10.00">/omega/pi0eta.cc</text>
</a>
</g>
<!-- Node42&#45;&gt;Node43 -->
<g id="edge46" class="edge"><title>Node42&#45;&gt;Node43</title>
<path fill="none" stroke="midnightblue" d="M2123,-68.6102C2123,-57.5188 2123,-45.0489 2123,-35.2623"/>
<polygon fill="midnightblue" stroke="midnightblue" points="2119.5,-68.6892 2123,-78.6893 2126.5,-68.6893 2119.5,-68.6892"/>
</g>
<!-- Node45 -->
<g id="node52" class="node"><title>Node45</title>
<a xlink:href="single_pi0_8cc.html" target="_top" xlink:title="src/analysis/physics\l/production/singlePi0.cc">
<polygon fill="white" stroke="black" points="2353.5,-79 2353.5,-113 2474.5,-113 2474.5,-79 2353.5,-79"/>
<text text-anchor="start" x="2361.5" y="-100" font-family="Helvetica,sans-Serif" font-size="10.00">src/analysis/physics</text>
<text text-anchor="middle" x="2414" y="-87" font-family="Helvetica,sans-Serif" font-size="10.00">/production/singlePi0.cc</text>
</a>
</g>
<!-- Node44&#45;&gt;Node45 -->
<g id="edge52" class="edge"><title>Node44&#45;&gt;Node45</title>
<path fill="none" stroke="midnightblue" d="M2285.15,-152.782C2313.45,-140.311 2348.75,-124.753 2375.25,-113.078"/>
<polygon fill="midnightblue" stroke="midnightblue" points="2283.58,-149.647 2275.84,-156.883 2286.41,-156.053 2283.58,-149.647"/>
</g>
<!-- Node46 -->
<g id="node54" class="node"><title>Node46</title>
<a xlink:href="single_pi0_plots_8cc.html" target="_top" xlink:title="src/analysis/physics\l/production/singlePi0Plots.cc">
<polygon fill="white" stroke="black" points="2193.5,-79 2193.5,-113 2336.5,-113 2336.5,-79 2193.5,-79"/>
<text text-anchor="start" x="2201.5" y="-100" font-family="Helvetica,sans-Serif" font-size="10.00">src/analysis/physics</text>
<text text-anchor="middle" x="2265" y="-87" font-family="Helvetica,sans-Serif" font-size="10.00">/production/singlePi0Plots.cc</text>
</a>
</g>
<!-- Node44&#45;&gt;Node46 -->
<g id="edge54" class="edge"><title>Node44&#45;&gt;Node46</title>
<path fill="none" stroke="midnightblue" d="M2246.71,-146.953C2250.72,-135.776 2255.25,-123.15 2258.8,-113.262"/>
<polygon fill="midnightblue" stroke="midnightblue" points="2243.3,-146.095 2243.21,-156.689 2249.89,-148.46 2243.3,-146.095"/>
</g>
<!-- Node48&#45;&gt;Node24 -->
<g id="edge62" class="edge"><title>Node48&#45;&gt;Node24</title>
<path fill="none" stroke="midnightblue" d="M650.076,-149.119C636.353,-134.847 619.826,-117.659 609.364,-106.779"/>
<polygon fill="midnightblue" stroke="midnightblue" points="647.901,-151.907 657.355,-156.689 652.947,-147.055 647.901,-151.907"/>
</g>
<!-- Node48&#45;&gt;Node26 -->
<g id="edge64" class="edge"><title>Node48&#45;&gt;Node26</title>
<path fill="none" stroke="midnightblue" d="M613.468,-153.736C568.312,-138.62 508.442,-118.577 472.425,-106.52"/>
<polygon fill="midnightblue" stroke="midnightblue" points="612.561,-157.123 623.155,-156.979 614.783,-150.485 612.561,-157.123"/>
</g>
<!-- Node49 -->
<g id="node60" class="node"><title>Node49</title>
<a xlink:href="_m_c_fake_reconstructed_8cc.html" target="_top" xlink:title="src/analysis/utils\l/MCFakeReconstructed.cc">
<polygon fill="white" stroke="black" points="682,-79 682,-113 816,-113 816,-79 682,-79"/>
<text text-anchor="start" x="690" y="-100" font-family="Helvetica,sans-Serif" font-size="10.00">src/analysis/utils</text>
<text text-anchor="middle" x="749" y="-87" font-family="Helvetica,sans-Serif" font-size="10.00">/MCFakeReconstructed.cc</text>
</a>
</g>
<!-- Node48&#45;&gt;Node49 -->
<g id="edge60" class="edge"><title>Node48&#45;&gt;Node49</title>
<path fill="none" stroke="midnightblue" d="M697.727,-149.324C709.006,-137.594 722.215,-123.856 732.402,-113.262"/>
<polygon fill="midnightblue" stroke="midnightblue" points="695.053,-147.055 690.645,-156.689 700.099,-151.907 695.053,-147.055"/>
</g>
</g>
</svg>
