<?xml version="1.0" encoding="UTF-8" standalone="no"?>
<!DOCTYPE svg PUBLIC "-//W3C//DTD SVG 1.1//EN"
 "http://www.w3.org/Graphics/SVG/1.1/DTD/svg11.dtd">
<!-- Generated by graphviz version 2.26.3 (20100126.1600)
 -->
<!-- Title: progs/Ant&#45;hadd.cc Pages: 1 -->
<svg width="1793pt" height="334pt"
 viewBox="0.00 0.00 1793.00 334.00" xmlns="http://www.w3.org/2000/svg" xmlns:xlink="http://www.w3.org/1999/xlink">
<g id="graph1" class="graph" transform="scale(1 1) rotate(0) translate(4 330)">
<title>progs/Ant&#45;hadd.cc</title>
<polygon fill="white" stroke="white" points="-4,5 -4,-330 1790,-330 1790,5 -4,5"/>
<!-- Node0 -->
<g id="node1" class="node"><title>Node0</title>
<polygon fill="#bfbfbf" stroke="black" points="898,-304.5 898,-325.5 994,-325.5 994,-304.5 898,-304.5"/>
<text text-anchor="middle" x="946" y="-312.5" font-family="Helvetica,sans-Serif" font-size="10.00">progs/Ant&#45;hadd.cc</text>
</g>
<!-- Node1 -->
<g id="node3" class="node"><title>Node1</title>
<polygon fill="white" stroke="#bfbfbf" points="65,-239.5 65,-260.5 153,-260.5 153,-239.5 65,-239.5"/>
<text text-anchor="middle" x="109" y="-247.5" font-family="Helvetica,sans-Serif" font-size="10.00">tclap/CmdLine.h</text>
</g>
<!-- Node0&#45;&gt;Node1 -->
<g id="edge2" class="edge"><title>Node0&#45;&gt;Node1</title>
<path fill="none" stroke="midnightblue" d="M897.837,-313.798C749.99,-309.842 304.086,-295.863 162,-268 156.517,-266.925 150.823,-265.424 145.29,-263.744"/>
<polygon fill="midnightblue" stroke="midnightblue" points="146.176,-260.352 135.583,-260.579 144.005,-267.007 146.176,-260.352"/>
</g>
<!-- Node2 -->
<g id="node5" class="node"><title>Node2</title>
<a xlink:href="_logger_8h.html" target="_top" xlink:title="base/Logger.h">
<polygon fill="white" stroke="black" points="171,-239.5 171,-260.5 249,-260.5 249,-239.5 171,-239.5"/>
<text text-anchor="middle" x="210" y="-247.5" font-family="Helvetica,sans-Serif" font-size="10.00">base/Logger.h</text>
</a>
</g>
<!-- Node0&#45;&gt;Node2 -->
<g id="edge4" class="edge"><title>Node0&#45;&gt;Node2</title>
<path fill="none" stroke="midnightblue" d="M897.795,-313.525C762.374,-309.094 380.416,-294.539 258,-268 253.249,-266.97 248.34,-265.56 243.556,-263.979"/>
<polygon fill="midnightblue" stroke="midnightblue" points="244.6,-260.635 234.006,-260.561 242.242,-267.226 244.6,-260.635"/>
</g>
<!-- Node4 -->
<g id="node9" class="node"><title>Node4</title>
<a xlink:href="string_8h.html" target="_top" xlink:title="base/std_ext/string.h">
<polygon fill="white" stroke="black" points="839,-58.5 839,-79.5 947,-79.5 947,-58.5 839,-58.5"/>
<text text-anchor="middle" x="893" y="-66.5" font-family="Helvetica,sans-Serif" font-size="10.00">base/std_ext/string.h</text>
</a>
</g>
<!-- Node0&#45;&gt;Node4 -->
<g id="edge8" class="edge"><title>Node0&#45;&gt;Node4</title>
<path fill="none" stroke="midnightblue" d="M897.768,-309.363C849.002,-302.554 778.533,-289.287 762,-268 735.478,-233.852 747.735,-169.18 792,-116 804.58,-100.887 823.098,-90.3647 840.854,-83.1708"/>
<polygon fill="midnightblue" stroke="midnightblue" points="842.468,-86.3033 850.597,-79.5086 840.005,-79.7508 842.468,-86.3033"/>
</g>
<!-- Node5 -->
<g id="node11" class="node"><title>Node5</title>
<polygon fill="white" stroke="#bfbfbf" points="714.5,-0.5 714.5,-21.5 755.5,-21.5 755.5,-0.5 714.5,-0.5"/>
<text text-anchor="middle" x="735" y="-8.5" font-family="Helvetica,sans-Serif" font-size="10.00">string</text>
</g>
<!-- Node0&#45;&gt;Node5 -->
<g id="edge164" class="edge"><title>Node0&#45;&gt;Node5</title>
<path fill="none" stroke="midnightblue" d="M897.616,-310.436C844.208,-304.297 763.219,-291.353 744,-268 686.754,-198.441 714.16,-78.868 728.337,-31.3397"/>
<polygon fill="midnightblue" stroke="midnightblue" points="731.738,-32.1905 731.363,-21.6023 725.053,-30.1133 731.738,-32.1905"/>
</g>
<!-- Node9 -->
<g id="node19" class="node"><title>Node9</title>
<a xlink:href="memory_8h.html" target="_top" xlink:title="base/std_ext/memory.h">
<polygon fill="white" stroke="black" points="456.5,-174.5 456.5,-195.5 575.5,-195.5 575.5,-174.5 456.5,-174.5"/>
<text text-anchor="middle" x="516" y="-182.5" font-family="Helvetica,sans-Serif" font-size="10.00">base/std_ext/memory.h</text>
</a>
</g>
<!-- Node0&#45;&gt;Node9 -->
<g id="edge18" class="edge"><title>Node0&#45;&gt;Node9</title>
<path fill="none" stroke="midnightblue" d="M897.883,-312.167C797.571,-305.86 573.119,-289.506 546,-268 527.133,-253.038 520.125,-225.167 517.525,-205.874"/>
<polygon fill="midnightblue" stroke="midnightblue" points="520.979,-205.246 516.448,-195.669 514.017,-205.981 520.979,-205.246"/>
</g>
<!-- Node11 -->
<g id="node23" class="node"><title>Node11</title>
<polygon fill="white" stroke="#bfbfbf" points="501.5,-116.5 501.5,-137.5 530.5,-137.5 530.5,-116.5 501.5,-116.5"/>
<text text-anchor="middle" x="516" y="-124.5" font-family="Helvetica,sans-Serif" font-size="10.00">list</text>
</g>
<!-- Node0&#45;&gt;Node11 -->
<g id="edge162" class="edge"><title>Node0&#45;&gt;Node11</title>
<path fill="none" stroke="midnightblue" d="M897.99,-313.404C801.113,-309.588 585.785,-297.922 519,-268 468.936,-245.569 412.152,-221.841 439,-174 444.955,-163.388 472.051,-148.342 492.429,-138.155"/>
<polygon fill="midnightblue" stroke="midnightblue" points="494.051,-141.258 501.494,-133.717 490.974,-134.97 494.051,-141.258"/>
</g>
<!-- Node12 -->
<g id="node25" class="node"><title>Node12</title>
<a xlink:href="_progress_counter_8h.html" target="_top" xlink:title="base/ProgressCounter.h">
<polygon fill="white" stroke="black" points="555,-239.5 555,-260.5 677,-260.5 677,-239.5 555,-239.5"/>
<text text-anchor="middle" x="616" y="-247.5" font-family="Helvetica,sans-Serif" font-size="10.00">base/ProgressCounter.h</text>
</a>
</g>
<!-- Node0&#45;&gt;Node12 -->
<g id="edge24" class="edge"><title>Node0&#45;&gt;Node12</title>
<path fill="none" stroke="midnightblue" d="M897.911,-306.923C846.534,-298.111 762.782,-283.218 691,-268 683.622,-266.436 675.861,-264.689 668.241,-262.915"/>
<polygon fill="midnightblue" stroke="midnightblue" points="668.888,-259.471 658.351,-260.581 667.28,-266.284 668.888,-259.471"/>
</g>
<!-- Node15 -->
<g id="node34" class="node"><title>Node15</title>
<a xlink:href="_t_ant_header_8h.html" target="_top" xlink:title="tree/TAntHeader.h">
<polygon fill="white" stroke="black" points="266.5,-239.5 266.5,-260.5 363.5,-260.5 363.5,-239.5 266.5,-239.5"/>
<text text-anchor="middle" x="315" y="-247.5" font-family="Helvetica,sans-Serif" font-size="10.00">tree/TAntHeader.h</text>
</a>
</g>
<!-- Node0&#45;&gt;Node15 -->
<g id="edge36" class="edge"><title>Node0&#45;&gt;Node15</title>
<path fill="none" stroke="midnightblue" d="M897.991,-314.266C799.501,-312.054 567.808,-303.211 377,-268 370.335,-266.77 363.359,-265.117 356.592,-263.309"/>
<polygon fill="midnightblue" stroke="midnightblue" points="357.46,-259.917 346.886,-260.581 355.566,-266.656 357.46,-259.917"/>
</g>
<!-- Node27 -->
<g id="node62" class="node"><title>Node27</title>
<polygon fill="white" stroke="#bfbfbf" points="770.5,-239.5 770.5,-260.5 841.5,-260.5 841.5,-239.5 770.5,-239.5"/>
<text text-anchor="middle" x="806" y="-247.5" font-family="Helvetica,sans-Serif" font-size="10.00">TDirectory.h</text>
</g>
<!-- Node0&#45;&gt;Node27 -->
<g id="edge68" class="edge"><title>Node0&#45;&gt;Node27</title>
<path fill="none" stroke="midnightblue" d="M923.195,-304.412C900.009,-293.647 863.891,-276.878 837.879,-264.801"/>
<polygon fill="midnightblue" stroke="midnightblue" points="839.339,-261.62 828.795,-260.584 836.391,-267.969 839.339,-261.62"/>
</g>
<!-- Node28 -->
<g id="node64" class="node"><title>Node28</title>
<polygon fill="white" stroke="#bfbfbf" points="858.5,-239.5 858.5,-260.5 905.5,-260.5 905.5,-239.5 858.5,-239.5"/>
<text text-anchor="middle" x="882" y="-247.5" font-family="Helvetica,sans-Serif" font-size="10.00">TFile.h</text>
</g>
<!-- Node0&#45;&gt;Node28 -->
<g id="edge70" class="edge"><title>Node0&#45;&gt;Node28</title>
<path fill="none" stroke="midnightblue" d="M935.432,-304.267C925.646,-294.328 910.912,-279.363 899.393,-267.664"/>
<polygon fill="midnightblue" stroke="midnightblue" points="901.882,-265.204 892.372,-260.534 896.894,-270.115 901.882,-265.204"/>
</g>
<!-- Node29 -->
<g id="node66" class="node"><title>Node29</title>
<polygon fill="white" stroke="#bfbfbf" points="922.5,-239.5 922.5,-260.5 969.5,-260.5 969.5,-239.5 922.5,-239.5"/>
<text text-anchor="middle" x="946" y="-247.5" font-family="Helvetica,sans-Serif" font-size="10.00">TList.h</text>
</g>
<!-- Node0&#45;&gt;Node29 -->
<g id="edge72" class="edge"><title>Node0&#45;&gt;Node29</title>
<path fill="none" stroke="midnightblue" d="M946,-304.267C946,-295.18 946,-281.892 946,-270.74"/>
<polygon fill="midnightblue" stroke="midnightblue" points="949.5,-270.534 946,-260.534 942.5,-270.534 949.5,-270.534"/>
</g>
<!-- Node30 -->
<g id="node68" class="node"><title>Node30</title>
<polygon fill="white" stroke="#bfbfbf" points="987,-239.5 987,-260.5 1035,-260.5 1035,-239.5 987,-239.5"/>
<text text-anchor="middle" x="1011" y="-247.5" font-family="Helvetica,sans-Serif" font-size="10.00">TKey.h</text>
</g>
<!-- Node0&#45;&gt;Node30 -->
<g id="edge74" class="edge"><title>Node0&#45;&gt;Node30</title>
<path fill="none" stroke="midnightblue" d="M956.733,-304.267C966.672,-294.328 981.637,-279.363 993.336,-267.664"/>
<polygon fill="midnightblue" stroke="midnightblue" points="995.87,-270.08 1000.47,-260.534 990.92,-265.13 995.87,-270.08"/>
</g>
<!-- Node31 -->
<g id="node70" class="node"><title>Node31</title>
<polygon fill="white" stroke="#bfbfbf" points="1053,-239.5 1053,-260.5 1109,-260.5 1109,-239.5 1053,-239.5"/>
<text text-anchor="middle" x="1081" y="-247.5" font-family="Helvetica,sans-Serif" font-size="10.00">TClass.h</text>
</g>
<!-- Node0&#45;&gt;Node31 -->
<g id="edge76" class="edge"><title>Node0&#45;&gt;Node31</title>
<path fill="none" stroke="midnightblue" d="M968.202,-304.395C988.076,-294.893 1018,-280.557 1044,-268 1045.99,-267.041 1048.03,-266.051 1050.09,-265.052"/>
<polygon fill="midnightblue" stroke="midnightblue" points="1051.63,-268.196 1059.1,-260.68 1048.57,-261.899 1051.63,-268.196"/>
</g>
<!-- Node32 -->
<g id="node72" class="node"><title>Node32</title>
<polygon fill="white" stroke="#bfbfbf" points="1127,-239.5 1127,-260.5 1171,-260.5 1171,-239.5 1127,-239.5"/>
<text text-anchor="middle" x="1149" y="-247.5" font-family="Helvetica,sans-Serif" font-size="10.00">TH1.h</text>
</g>
<!-- Node0&#45;&gt;Node32 -->
<g id="edge78" class="edge"><title>Node0&#45;&gt;Node32</title>
<path fill="none" stroke="midnightblue" d="M994.196,-305.354C1029.31,-297.488 1077.59,-284.912 1118,-268 1119.85,-267.225 1121.73,-266.36 1123.59,-265.439"/>
<polygon fill="midnightblue" stroke="midnightblue" points="1125.54,-268.367 1132.68,-260.537 1122.21,-262.207 1125.54,-268.367"/>
</g>
<!-- Node33 -->
<g id="node74" class="node"><title>Node33</title>
<polygon fill="white" stroke="#bfbfbf" points="1189,-239.5 1189,-260.5 1279,-260.5 1279,-239.5 1189,-239.5"/>
<text text-anchor="middle" x="1234" y="-247.5" font-family="Helvetica,sans-Serif" font-size="10.00">TFileMergeInfo.h</text>
</g>
<!-- Node0&#45;&gt;Node33 -->
<g id="edge80" class="edge"><title>Node0&#45;&gt;Node33</title>
<path fill="none" stroke="midnightblue" d="M994.354,-307.087C1041.95,-298.877 1116.53,-284.883 1180,-268 1184.76,-266.733 1189.72,-265.276 1194.61,-263.752"/>
<polygon fill="midnightblue" stroke="midnightblue" points="1196.05,-266.968 1204.49,-260.568 1193.9,-260.306 1196.05,-266.968"/>
</g>
<!-- Node34 -->
<g id="node76" class="node"><title>Node34</title>
<a xlink:href="hstack_8h.html" target="_top" xlink:title="root&#45;addons/analysis\l_codes/hstack.h">
<polygon fill="white" stroke="black" points="1296.5,-233 1296.5,-267 1403.5,-267 1403.5,-233 1296.5,-233"/>
<text text-anchor="start" x="1304.5" y="-254" font-family="Helvetica,sans-Serif" font-size="10.00">root&#45;addons/analysis</text>
<text text-anchor="middle" x="1350" y="-241" font-family="Helvetica,sans-Serif" font-size="10.00">_codes/hstack.h</text>
</a>
</g>
<!-- Node0&#45;&gt;Node34 -->
<g id="edge82" class="edge"><title>Node0&#45;&gt;Node34</title>
<path fill="none" stroke="midnightblue" d="M994.244,-310.612C1058.87,-304.241 1177.19,-290.852 1286.48,-268.173"/>
<polygon fill="midnightblue" stroke="midnightblue" points="1287.29,-271.581 1296.35,-266.095 1285.85,-264.731 1287.29,-271.581"/>
</g>
<!-- Node46 -->
<g id="node123" class="node"><title>Node46</title>
<polygon fill="white" stroke="#bfbfbf" points="1480.5,-174.5 1480.5,-195.5 1515.5,-195.5 1515.5,-174.5 1480.5,-174.5"/>
<text text-anchor="middle" x="1498" y="-182.5" font-family="Helvetica,sans-Serif" font-size="10.00">map</text>
</g>
<!-- Node0&#45;&gt;Node46 -->
<g id="edge166" class="edge"><title>Node0&#45;&gt;Node46</title>
<path fill="none" stroke="midnightblue" d="M994.102,-314.108C1097.73,-311.553 1338.6,-302.028 1412,-268 1414.1,-267.025 1455.16,-226.984 1479.77,-202.881"/>
<polygon fill="midnightblue" stroke="midnightblue" points="1482.42,-205.183 1487.12,-195.684 1477.52,-200.184 1482.42,-205.183"/>
</g>
<!-- Node47 -->
<g id="node125" class="node"><title>Node47</title>
<polygon fill="white" stroke="#bfbfbf" points="1458.5,-239.5 1458.5,-260.5 1523.5,-260.5 1523.5,-239.5 1458.5,-239.5"/>
<text text-anchor="middle" x="1491" y="-247.5" font-family="Helvetica,sans-Serif" font-size="10.00">TSystem.h</text>
</g>
<!-- Node0&#45;&gt;Node47 -->
<g id="edge154" class="edge"><title>Node0&#45;&gt;Node47</title>
<path fill="none" stroke="midnightblue" d="M994.225,-312.176C1102.11,-305.58 1360.13,-288.18 1445,-268 1449.22,-266.996 1453.58,-265.685 1457.84,-264.227"/>
<polygon fill="midnightblue" stroke="midnightblue" points="1459.37,-267.394 1467.53,-260.638 1456.94,-260.83 1459.37,-267.394"/>
</g>
<!-- Node48 -->
<g id="node127" class="node"><title>Node48</title>
<polygon fill="white" stroke="#bfbfbf" points="1540.5,-239.5 1540.5,-260.5 1599.5,-260.5 1599.5,-239.5 1540.5,-239.5"/>
<text text-anchor="middle" x="1570" y="-247.5" font-family="Helvetica,sans-Serif" font-size="10.00">TROOT.h</text>
</g>
<!-- Node0&#45;&gt;Node48 -->
<g id="edge156" class="edge"><title>Node0&#45;&gt;Node48</title>
<path fill="none" stroke="midnightblue" d="M994.028,-313.38C1115.19,-308.937 1430.81,-295.049 1532,-268 1535.24,-267.133 1538.55,-265.996 1541.79,-264.715"/>
<polygon fill="midnightblue" stroke="midnightblue" points="1543.45,-267.806 1551.18,-260.561 1540.62,-261.404 1543.45,-267.806"/>
</g>
<!-- Node49 -->
<g id="node129" class="node"><title>Node49</title>
<polygon fill="white" stroke="#bfbfbf" points="1616.5,-239.5 1616.5,-260.5 1691.5,-260.5 1691.5,-239.5 1616.5,-239.5"/>
<text text-anchor="middle" x="1654" y="-247.5" font-family="Helvetica,sans-Serif" font-size="10.00">TInterpreter.h</text>
</g>
<!-- Node0&#45;&gt;Node49 -->
<g id="edge158" class="edge"><title>Node0&#45;&gt;Node49</title>
<path fill="none" stroke="midnightblue" d="M994.288,-313.461C1126.27,-308.953 1490.97,-294.408 1608,-268 1612.45,-266.996 1617.04,-265.632 1621.51,-264.101"/>
<polygon fill="midnightblue" stroke="midnightblue" points="1622.88,-267.327 1631.03,-260.559 1620.44,-260.767 1622.88,-267.327"/>
</g>
<!-- Node50 -->
<g id="node131" class="node"><title>Node50</title>
<polygon fill="white" stroke="#bfbfbf" points="1708.5,-239.5 1708.5,-260.5 1785.5,-260.5 1785.5,-239.5 1708.5,-239.5"/>
<text text-anchor="middle" x="1747" y="-247.5" font-family="Helvetica,sans-Serif" font-size="10.00">TFileMerger.h</text>
</g>
<!-- Node0&#45;&gt;Node50 -->
<g id="edge160" class="edge"><title>Node0&#45;&gt;Node50</title>
<path fill="none" stroke="midnightblue" d="M994.142,-313.903C1138.23,-310.321 1564.47,-297.455 1700,-268 1704.54,-267.013 1709.22,-265.659 1713.79,-264.134"/>
<polygon fill="midnightblue" stroke="midnightblue" points="1715.32,-267.304 1723.52,-260.595 1712.92,-260.725 1715.32,-267.304"/>
</g>
<!-- Node3 -->
<g id="node7" class="node"><title>Node3</title>
<polygon fill="white" stroke="#bfbfbf" points="98.5,-174.5 98.5,-195.5 187.5,-195.5 187.5,-174.5 98.5,-174.5"/>
<text text-anchor="middle" x="143" y="-182.5" font-family="Helvetica,sans-Serif" font-size="10.00">easylogging++.h</text>
</g>
<!-- Node2&#45;&gt;Node3 -->
<g id="edge6" class="edge"><title>Node2&#45;&gt;Node3</title>
<path fill="none" stroke="midnightblue" d="M198.936,-239.267C188.692,-229.328 173.267,-214.363 161.208,-202.664"/>
<polygon fill="midnightblue" stroke="midnightblue" points="163.472,-199.985 153.858,-195.534 158.598,-205.009 163.472,-199.985"/>
</g>
<!-- Node4&#45;&gt;Node5 -->
<g id="edge10" class="edge"><title>Node4&#45;&gt;Node5</title>
<path fill="none" stroke="midnightblue" d="M864.387,-58.4966C836.386,-48.2177 793.89,-32.6178 765.318,-22.1293"/>
<polygon fill="midnightblue" stroke="midnightblue" points="766.432,-18.8101 755.839,-18.6496 764.02,-25.3813 766.432,-18.8101"/>
</g>
<!-- Node6 -->
<g id="node13" class="node"><title>Node6</title>
<polygon fill="white" stroke="#bfbfbf" points="867,-0.5 867,-21.5 919,-21.5 919,-0.5 867,-0.5"/>
<text text-anchor="middle" x="893" y="-8.5" font-family="Helvetica,sans-Serif" font-size="10.00">sstream</text>
</g>
<!-- Node4&#45;&gt;Node6 -->
<g id="edge12" class="edge"><title>Node4&#45;&gt;Node6</title>
<path fill="none" stroke="midnightblue" d="M893,-58.3619C893,-50.9219 893,-40.7427 893,-31.7276"/>
<polygon fill="midnightblue" stroke="midnightblue" points="896.5,-31.5706 893,-21.5707 889.5,-31.5707 896.5,-31.5706"/>
</g>
<!-- Node7 -->
<g id="node15" class="node"><title>Node7</title>
<polygon fill="white" stroke="#bfbfbf" points="937,-0.5 937,-21.5 993,-21.5 993,-0.5 937,-0.5"/>
<text text-anchor="middle" x="965" y="-8.5" font-family="Helvetica,sans-Serif" font-size="10.00">algorithm</text>
</g>
<!-- Node4&#45;&gt;Node7 -->
<g id="edge14" class="edge"><title>Node4&#45;&gt;Node7</title>
<path fill="none" stroke="midnightblue" d="M906.206,-58.3619C916.761,-49.859 931.758,-37.7785 943.963,-27.9466"/>
<polygon fill="midnightblue" stroke="midnightblue" points="946.286,-30.5696 951.878,-21.5707 941.895,-25.1183 946.286,-30.5696"/>
</g>
<!-- Node8 -->
<g id="node17" class="node"><title>Node8</title>
<polygon fill="white" stroke="#bfbfbf" points="1270,-0.5 1270,-21.5 1314,-21.5 1314,-0.5 1270,-0.5"/>
<text text-anchor="middle" x="1292" y="-8.5" font-family="Helvetica,sans-Serif" font-size="10.00">vector</text>
</g>
<!-- Node4&#45;&gt;Node8 -->
<g id="edge16" class="edge"><title>Node4&#45;&gt;Node8</title>
<path fill="none" stroke="midnightblue" d="M947.176,-61.4969C1012.41,-52.4076 1125.28,-36.5067 1222,-22 1234.42,-20.137 1248.07,-18.0105 1259.99,-16.1269"/>
<polygon fill="midnightblue" stroke="midnightblue" points="1260.62,-19.5711 1269.94,-14.5469 1259.52,-12.6576 1260.62,-19.5711"/>
</g>
<!-- Node10 -->
<g id="node21" class="node"><title>Node10</title>
<polygon fill="white" stroke="#bfbfbf" points="801,-116.5 801,-137.5 853,-137.5 853,-116.5 801,-116.5"/>
<text text-anchor="middle" x="827" y="-124.5" font-family="Helvetica,sans-Serif" font-size="10.00">memory</text>
</g>
<!-- Node9&#45;&gt;Node10 -->
<g id="edge20" class="edge"><title>Node9&#45;&gt;Node10</title>
<path fill="none" stroke="midnightblue" d="M572.32,-174.497C635.827,-162.653 737.215,-143.745 790.908,-133.731"/>
<polygon fill="midnightblue" stroke="midnightblue" points="791.796,-137.126 800.985,-131.852 790.513,-130.244 791.796,-137.126"/>
</g>
<!-- Node9&#45;&gt;Node11 -->
<g id="edge22" class="edge"><title>Node9&#45;&gt;Node11</title>
<path fill="none" stroke="midnightblue" d="M516,-174.362C516,-166.922 516,-156.743 516,-147.728"/>
<polygon fill="midnightblue" stroke="midnightblue" points="519.5,-147.571 516,-137.571 512.5,-147.571 519.5,-147.571"/>
</g>
<!-- Node12&#45;&gt;Node5 -->
<g id="edge32" class="edge"><title>Node12&#45;&gt;Node5</title>
<path fill="none" stroke="midnightblue" d="M623.588,-239.315C630.778,-228.754 641.427,-211.914 648,-196 672.154,-137.516 650.353,-112.203 683,-58 689.965,-46.4358 700.659,-36.0681 710.542,-28.0315"/>
<polygon fill="midnightblue" stroke="midnightblue" points="712.771,-30.7322 718.553,-21.854 708.496,-25.1889 712.771,-30.7322"/>
</g>
<!-- Node12&#45;&gt;Node9 -->
<g id="edge26" class="edge"><title>Node12&#45;&gt;Node9</title>
<path fill="none" stroke="midnightblue" d="M599.487,-239.267C583.469,-228.855 558.964,-212.927 540.64,-201.016"/>
<polygon fill="midnightblue" stroke="midnightblue" points="542.498,-198.049 532.206,-195.534 538.683,-203.918 542.498,-198.049"/>
</g>
<!-- Node12&#45;&gt;Node11 -->
<g id="edge34" class="edge"><title>Node12&#45;&gt;Node11</title>
<path fill="none" stroke="midnightblue" d="M560.405,-239.443C516.887,-229.916 461.535,-214.568 448,-196 431.221,-172.982 466.405,-150.22 492.142,-137.45"/>
<polygon fill="midnightblue" stroke="midnightblue" points="493.871,-140.504 501.415,-133.065 490.878,-134.176 493.871,-140.504"/>
</g>
<!-- Node13 -->
<g id="node28" class="node"><title>Node13</title>
<polygon fill="white" stroke="#bfbfbf" points="593,-174.5 593,-195.5 639,-195.5 639,-174.5 593,-174.5"/>
<text text-anchor="middle" x="616" y="-182.5" font-family="Helvetica,sans-Serif" font-size="10.00">chrono</text>
</g>
<!-- Node12&#45;&gt;Node13 -->
<g id="edge28" class="edge"><title>Node12&#45;&gt;Node13</title>
<path fill="none" stroke="midnightblue" d="M616,-239.267C616,-230.18 616,-216.892 616,-205.74"/>
<polygon fill="midnightblue" stroke="midnightblue" points="619.5,-205.534 616,-195.534 612.5,-205.534 619.5,-205.534"/>
</g>
<!-- Node14 -->
<g id="node30" class="node"><title>Node14</title>
<polygon fill="white" stroke="#bfbfbf" points="982.5,-116.5 982.5,-137.5 1041.5,-137.5 1041.5,-116.5 982.5,-116.5"/>
<text text-anchor="middle" x="1012" y="-124.5" font-family="Helvetica,sans-Serif" font-size="10.00">functional</text>
</g>
<!-- Node12&#45;&gt;Node14 -->
<g id="edge30" class="edge"><title>Node12&#45;&gt;Node14</title>
<path fill="none" stroke="midnightblue" d="M677.16,-242.443C790.534,-228.366 1022.15,-199.253 1025,-196 1036.73,-182.616 1030.85,-162.052 1023.63,-146.853"/>
<polygon fill="midnightblue" stroke="midnightblue" points="1026.61,-144.999 1018.87,-137.769 1020.41,-148.251 1026.61,-144.999"/>
</g>
<!-- Node15&#45;&gt;Node5 -->
<g id="edge66" class="edge"><title>Node15&#45;&gt;Node5</title>
<path fill="none" stroke="midnightblue" d="M306.371,-239.386C294.706,-223.673 276.995,-193.936 292,-174 326.766,-127.808 362.309,-156.744 417,-138 524.695,-101.089 649.215,-48.3336 705.123,-24.0935"/>
<polygon fill="midnightblue" stroke="midnightblue" points="706.658,-27.2427 714.433,-20.0453 703.867,-20.8233 706.658,-27.2427"/>
</g>
<!-- Node16 -->
<g id="node36" class="node"><title>Node16</title>
<a xlink:href="_t_i_d_8h.html" target="_top" xlink:title="TID.h">
<polygon fill="white" stroke="black" points="204.5,-174.5 204.5,-195.5 245.5,-195.5 245.5,-174.5 204.5,-174.5"/>
<text text-anchor="middle" x="225" y="-182.5" font-family="Helvetica,sans-Serif" font-size="10.00">TID.h</text>
</a>
</g>
<!-- Node15&#45;&gt;Node16 -->
<g id="edge38" class="edge"><title>Node15&#45;&gt;Node16</title>
<path fill="none" stroke="midnightblue" d="M300.138,-239.267C285.984,-229.044 264.467,-213.504 248.081,-201.67"/>
<polygon fill="midnightblue" stroke="midnightblue" points="249.741,-198.551 239.585,-195.534 245.643,-204.226 249.741,-198.551"/>
</g>
<!-- Node26 -->
<g id="node59" class="node"><title>Node26</title>
<polygon fill="white" stroke="#bfbfbf" points="301,-174.5 301,-195.5 363,-195.5 363,-174.5 301,-174.5"/>
<text text-anchor="middle" x="332" y="-182.5" font-family="Helvetica,sans-Serif" font-size="10.00">TNamed.h</text>
</g>
<!-- Node15&#45;&gt;Node26 -->
<g id="edge64" class="edge"><title>Node15&#45;&gt;Node26</title>
<path fill="none" stroke="midnightblue" d="M317.807,-239.267C320.208,-230.085 323.732,-216.615 326.667,-205.392"/>
<polygon fill="midnightblue" stroke="midnightblue" points="330.101,-206.094 329.245,-195.534 323.329,-204.323 330.101,-206.094"/>
</g>
<!-- Node16&#45;&gt;Node11 -->
<g id="edge58" class="edge"><title>Node16&#45;&gt;Node11</title>
<path fill="none" stroke="midnightblue" d="M245.928,-180.829C298.341,-170.382 435.058,-143.133 491.292,-131.925"/>
<polygon fill="midnightblue" stroke="midnightblue" points="492.294,-135.294 501.417,-129.907 490.925,-128.429 492.294,-135.294"/>
</g>
<!-- Node17 -->
<g id="node38" class="node"><title>Node17</title>
<polygon fill="white" stroke="#bfbfbf" points="871,-116.5 871,-137.5 927,-137.5 927,-116.5 871,-116.5"/>
<text text-anchor="middle" x="899" y="-124.5" font-family="Helvetica,sans-Serif" font-size="10.00">Rtypes.h</text>
</g>
<!-- Node16&#45;&gt;Node17 -->
<g id="edge40" class="edge"><title>Node16&#45;&gt;Node17</title>
<path fill="none" stroke="midnightblue" d="M245.75,-181.045C258.947,-178.666 276.422,-175.766 292,-174 540.897,-145.779 610.263,-181.486 860.739,-137.866"/>
<polygon fill="midnightblue" stroke="midnightblue" points="861.638,-141.261 870.876,-136.075 860.42,-134.368 861.638,-141.261"/>
</g>
<!-- Node18 -->
<g id="node40" class="node"><title>Node18</title>
<a xlink:href="base_2std__ext_2_time_8h.html" target="_top" xlink:title="base/std_ext/time.h">
<polygon fill="white" stroke="black" points="305.5,-116.5 305.5,-137.5 408.5,-137.5 408.5,-116.5 305.5,-116.5"/>
<text text-anchor="middle" x="357" y="-124.5" font-family="Helvetica,sans-Serif" font-size="10.00">base/std_ext/time.h</text>
</a>
</g>
<!-- Node16&#45;&gt;Node18 -->
<g id="edge42" class="edge"><title>Node16&#45;&gt;Node18</title>
<path fill="none" stroke="midnightblue" d="M245.625,-175.938C266.493,-166.768 299.091,-152.445 323.639,-141.659"/>
<polygon fill="midnightblue" stroke="midnightblue" points="325.195,-144.798 332.943,-137.571 322.379,-138.389 325.195,-144.798"/>
</g>
<!-- Node20 -->
<g id="node45" class="node"><title>Node20</title>
<polygon fill="white" stroke="#bfbfbf" points="266.5,-58.5 266.5,-79.5 307.5,-79.5 307.5,-58.5 266.5,-58.5"/>
<text text-anchor="middle" x="287" y="-66.5" font-family="Helvetica,sans-Serif" font-size="10.00">ctime</text>
</g>
<!-- Node16&#45;&gt;Node20 -->
<g id="edge62" class="edge"><title>Node16&#45;&gt;Node20</title>
<path fill="none" stroke="midnightblue" d="M233.895,-174.296C241.265,-165.079 251.68,-151.214 259,-138 267.686,-122.32 275.177,-103.383 280.219,-89.3181"/>
<polygon fill="midnightblue" stroke="midnightblue" points="283.604,-90.2412 283.577,-79.6464 276.991,-87.9453 283.604,-90.2412"/>
</g>
<!-- Node21 -->
<g id="node47" class="node"><title>Node21</title>
<polygon fill="white" stroke="#bfbfbf" points="0,-116.5 0,-137.5 62,-137.5 62,-116.5 0,-116.5"/>
<text text-anchor="middle" x="31" y="-124.5" font-family="Helvetica,sans-Serif" font-size="10.00">type_traits</text>
</g>
<!-- Node16&#45;&gt;Node21 -->
<g id="edge50" class="edge"><title>Node16&#45;&gt;Node21</title>
<path fill="none" stroke="midnightblue" d="M204.482,-176.97C201.646,-175.933 198.76,-174.915 196,-174 184.139,-170.069 116.93,-151.096 72.031,-138.491"/>
<polygon fill="midnightblue" stroke="midnightblue" points="72.8341,-135.081 62.2603,-135.749 70.9429,-141.821 72.8341,-135.081"/>
</g>
<!-- Node22 -->
<g id="node49" class="node"><title>Node22</title>
<polygon fill="white" stroke="#bfbfbf" points="80,-116.5 80,-137.5 118,-137.5 118,-116.5 80,-116.5"/>
<text text-anchor="middle" x="99" y="-124.5" font-family="Helvetica,sans-Serif" font-size="10.00">tuple</text>
</g>
<!-- Node16&#45;&gt;Node22 -->
<g id="edge52" class="edge"><title>Node16&#45;&gt;Node22</title>
<path fill="none" stroke="midnightblue" d="M204.475,-175.552C183.515,-165.904 150.811,-150.85 127.378,-140.063"/>
<polygon fill="midnightblue" stroke="midnightblue" points="128.822,-136.875 118.275,-135.873 125.895,-143.233 128.822,-136.875"/>
</g>
<!-- Node23 -->
<g id="node51" class="node"><title>Node23</title>
<polygon fill="white" stroke="#bfbfbf" points="136,-116.5 136,-137.5 182,-137.5 182,-116.5 136,-116.5"/>
<text text-anchor="middle" x="159" y="-124.5" font-family="Helvetica,sans-Serif" font-size="10.00">cstdint</text>
</g>
<!-- Node16&#45;&gt;Node23 -->
<g id="edge54" class="edge"><title>Node16&#45;&gt;Node23</title>
<path fill="none" stroke="midnightblue" d="M212.895,-174.362C203.312,-165.941 189.736,-154.011 178.607,-144.231"/>
<polygon fill="midnightblue" stroke="midnightblue" points="180.851,-141.543 171.029,-137.571 176.23,-146.801 180.851,-141.543"/>
</g>
<!-- Node24 -->
<g id="node53" class="node"><title>Node24</title>
<polygon fill="white" stroke="#bfbfbf" points="1010.5,-0.5 1010.5,-21.5 1069.5,-21.5 1069.5,-0.5 1010.5,-0.5"/>
<text text-anchor="middle" x="1040" y="-8.5" font-family="Helvetica,sans-Serif" font-size="10.00">stdexcept</text>
</g>
<!-- Node16&#45;&gt;Node24 -->
<g id="edge56" class="edge"><title>Node16&#45;&gt;Node24</title>
<path fill="none" stroke="midnightblue" d="M245.531,-180.271C280.734,-172.096 354.833,-154.599 417,-138 450.974,-128.929 458.402,-122.285 493,-116 696.076,-79.1125 764.527,-157.062 956,-80 983.383,-68.979 1008.66,-45.6689 1024.19,-29.1999"/>
<polygon fill="midnightblue" stroke="midnightblue" points="1026.83,-31.4932 1030.99,-21.7485 1021.66,-26.7733 1026.83,-31.4932"/>
</g>
<!-- Node25 -->
<g id="node56" class="node"><title>Node25</title>
<polygon fill="white" stroke="#bfbfbf" points="200,-116.5 200,-137.5 250,-137.5 250,-116.5 200,-116.5"/>
<text text-anchor="middle" x="225" y="-124.5" font-family="Helvetica,sans-Serif" font-size="10.00">iomanip</text>
</g>
<!-- Node16&#45;&gt;Node25 -->
<g id="edge60" class="edge"><title>Node16&#45;&gt;Node25</title>
<path fill="none" stroke="midnightblue" d="M225,-174.362C225,-166.922 225,-156.743 225,-147.728"/>
<polygon fill="midnightblue" stroke="midnightblue" points="228.5,-147.571 225,-137.571 221.5,-147.571 228.5,-147.571"/>
</g>
<!-- Node18&#45;&gt;Node4 -->
<g id="edge44" class="edge"><title>Node18&#45;&gt;Node4</title>
<path fill="none" stroke="midnightblue" d="M408.751,-117.915C413.227,-117.229 417.69,-116.579 422,-116 566.886,-96.5345 737.848,-81.4266 828.683,-74.0196"/>
<polygon fill="midnightblue" stroke="midnightblue" points="829.137,-77.4943 838.822,-73.1977 828.572,-70.5172 829.137,-77.4943"/>
</g>
<!-- Node19 -->
<g id="node43" class="node"><title>Node19</title>
<polygon fill="white" stroke="#bfbfbf" points="334,-58.5 334,-79.5 380,-79.5 380,-58.5 334,-58.5"/>
<text text-anchor="middle" x="357" y="-66.5" font-family="Helvetica,sans-Serif" font-size="10.00">cstring</text>
</g>
<!-- Node18&#45;&gt;Node19 -->
<g id="edge46" class="edge"><title>Node18&#45;&gt;Node19</title>
<path fill="none" stroke="midnightblue" d="M357,-116.362C357,-108.922 357,-98.7427 357,-89.7276"/>
<polygon fill="midnightblue" stroke="midnightblue" points="360.5,-89.5706 357,-79.5707 353.5,-89.5707 360.5,-89.5706"/>
</g>
<!-- Node18&#45;&gt;Node20 -->
<g id="edge48" class="edge"><title>Node18&#45;&gt;Node20</title>
<path fill="none" stroke="midnightblue" d="M344.161,-116.362C333.998,-107.941 319.599,-96.0105 307.796,-86.2308"/>
<polygon fill="midnightblue" stroke="midnightblue" points="309.691,-83.2558 299.758,-79.5707 305.225,-88.6459 309.691,-83.2558"/>
</g>
<!-- Node34&#45;&gt;Node5 -->
<g id="edge88" class="edge"><title>Node34&#45;&gt;Node5</title>
<path fill="none" stroke="midnightblue" d="M1296.39,-233.72C1293.56,-233.087 1290.76,-232.507 1288,-232 1191.3,-214.203 935.678,-238.476 847,-196 780.622,-164.206 750.229,-72.6295 739.632,-31.4675"/>
<polygon fill="midnightblue" stroke="midnightblue" points="742.971,-30.3892 737.203,-21.502 736.17,-32.0463 742.971,-30.3892"/>
</g>
<!-- Node34&#45;&gt;Node8 -->
<g id="edge90" class="edge"><title>Node34&#45;&gt;Node8</title>
<path fill="none" stroke="midnightblue" d="M1345.83,-232.812C1335.39,-189.807 1308.19,-77.7009 1296.96,-31.4305"/>
<polygon fill="midnightblue" stroke="midnightblue" points="1300.34,-30.5336 1294.58,-21.6411 1293.54,-32.1844 1300.34,-30.5336"/>
</g>
<!-- Node34&#45;&gt;Node10 -->
<g id="edge150" class="edge"><title>Node34&#45;&gt;Node10</title>
<path fill="none" stroke="midnightblue" d="M1296.39,-233.738C1293.56,-233.1 1290.75,-232.514 1288,-232 1197.22,-215.045 953.688,-242.667 874,-196 855.327,-185.065 842.449,-163.416 834.957,-147.27"/>
<polygon fill="midnightblue" stroke="midnightblue" points="837.973,-145.424 830.805,-137.622 831.543,-148.191 837.973,-145.424"/>
</g>
<!-- Node34&#45;&gt;Node17 -->
<g id="edge84" class="edge"><title>Node34&#45;&gt;Node17</title>
<path fill="none" stroke="midnightblue" d="M1296.39,-233.746C1293.56,-233.106 1290.75,-232.518 1288,-232 1243.82,-223.694 915.342,-229.173 885,-196 872.887,-182.756 879.275,-162.005 886.926,-146.715"/>
<polygon fill="midnightblue" stroke="midnightblue" points="890.193,-148.038 891.954,-137.59 884.063,-144.659 890.193,-148.038"/>
</g>
<!-- Node35 -->
<g id="node79" class="node"><title>Node35</title>
<polygon fill="white" stroke="#bfbfbf" points="1361,-174.5 1361,-195.5 1425,-195.5 1425,-174.5 1361,-174.5"/>
<text text-anchor="middle" x="1393" y="-182.5" font-family="Helvetica,sans-Serif" font-size="10.00">THStack.h</text>
</g>
<!-- Node34&#45;&gt;Node35 -->
<g id="edge86" class="edge"><title>Node34&#45;&gt;Node35</title>
<path fill="none" stroke="midnightblue" d="M1361.3,-232.922C1367.12,-224.12 1374.24,-213.354 1380.26,-204.258"/>
<polygon fill="midnightblue" stroke="midnightblue" points="1383.22,-206.123 1385.82,-195.852 1377.38,-202.261 1383.22,-206.123"/>
</g>
<!-- Node36 -->
<g id="node83" class="node"><title>Node36</title>
<a xlink:href="_root_draw_8h.html" target="_top" xlink:title="analysis/plot/RootDraw.h">
<polygon fill="white" stroke="black" points="1071.5,-174.5 1071.5,-195.5 1198.5,-195.5 1198.5,-174.5 1071.5,-174.5"/>
<text text-anchor="middle" x="1135" y="-182.5" font-family="Helvetica,sans-Serif" font-size="10.00">analysis/plot/RootDraw.h</text>
</a>
</g>
<!-- Node34&#45;&gt;Node36 -->
<g id="edge92" class="edge"><title>Node34&#45;&gt;Node36</title>
<path fill="none" stroke="midnightblue" d="M1296.3,-233.765C1260.3,-222.882 1213.46,-208.72 1179.53,-198.464"/>
<polygon fill="midnightblue" stroke="midnightblue" points="1180.47,-195.092 1169.89,-195.548 1178.45,-201.792 1180.47,-195.092"/>
</g>
<!-- Node38 -->
<g id="node92" class="node"><title>Node38</title>
<a xlink:href="interval_8h.html" target="_top" xlink:title="base/interval.h">
<polygon fill="white" stroke="black" points="1149,-58.5 1149,-79.5 1229,-79.5 1229,-58.5 1149,-58.5"/>
<text text-anchor="middle" x="1189" y="-66.5" font-family="Helvetica,sans-Serif" font-size="10.00">base/interval.h</text>
</a>
</g>
<!-- Node34&#45;&gt;Node38 -->
<g id="edge140" class="edge"><title>Node34&#45;&gt;Node38</title>
<path fill="none" stroke="midnightblue" d="M1334.85,-232.972C1304.56,-198.917 1236.74,-122.671 1205.42,-87.4648"/>
<polygon fill="midnightblue" stroke="midnightblue" points="1207.9,-84.9774 1198.63,-79.8317 1202.67,-89.6297 1207.9,-84.9774"/>
</g>
<!-- Node44 -->
<g id="node111" class="node"><title>Node44</title>
<a xlink:href="_hist_style_8h.html" target="_top" xlink:title="analysis/plot/HistStyle.h">
<polygon fill="white" stroke="black" points="893.5,-174.5 893.5,-195.5 1016.5,-195.5 1016.5,-174.5 893.5,-174.5"/>
<text text-anchor="middle" x="955" y="-182.5" font-family="Helvetica,sans-Serif" font-size="10.00">analysis/plot/HistStyle.h</text>
</a>
</g>
<!-- Node34&#45;&gt;Node44 -->
<g id="edge132" class="edge"><title>Node34&#45;&gt;Node44</title>
<path fill="none" stroke="midnightblue" d="M1296.35,-233.918C1293.54,-233.233 1290.74,-232.588 1288,-232 1239.64,-221.622 1109.42,-204.393 1026.89,-193.928"/>
<polygon fill="midnightblue" stroke="midnightblue" points="1027.18,-190.437 1016.82,-192.655 1026.3,-197.382 1027.18,-190.437"/>
</g>
<!-- Node45 -->
<g id="node117" class="node"><title>Node45</title>
<a xlink:href="base_2std__ext_2math_8h.html" target="_top" xlink:title="base/std_ext/math.h">
<polygon fill="white" stroke="black" points="1361,-58.5 1361,-79.5 1467,-79.5 1467,-58.5 1361,-58.5"/>
<text text-anchor="middle" x="1414" y="-66.5" font-family="Helvetica,sans-Serif" font-size="10.00">base/std_ext/math.h</text>
</a>
</g>
<!-- Node34&#45;&gt;Node45 -->
<g id="edge142" class="edge"><title>Node34&#45;&gt;Node45</title>
<path fill="none" stroke="midnightblue" d="M1393.21,-232.962C1408.98,-224.387 1425.11,-212.282 1434,-196 1452.7,-161.756 1436.54,-115.066 1424.4,-88.8916"/>
<polygon fill="midnightblue" stroke="midnightblue" points="1427.41,-87.0765 1419.88,-79.6297 1421.12,-90.1509 1427.41,-87.0765"/>
</g>
<!-- Node34&#45;&gt;Node46 -->
<g id="edge152" class="edge"><title>Node34&#45;&gt;Node46</title>
<path fill="none" stroke="midnightblue" d="M1388.89,-232.922C1414.81,-221.534 1448.23,-206.858 1471.21,-196.764"/>
<polygon fill="midnightblue" stroke="midnightblue" points="1472.62,-199.968 1480.37,-192.742 1469.81,-193.558 1472.62,-199.968"/>
</g>
<!-- Node36&#45;&gt;Node5 -->
<g id="edge94" class="edge"><title>Node36&#45;&gt;Node5</title>
<path fill="none" stroke="midnightblue" d="M1125.47,-174.332C1110.88,-158.75 1081.38,-130.092 1050,-116 959.615,-75.4157 921.442,-118.143 830,-80 821.971,-76.651 782.41,-47.0885 756.938,-27.7604"/>
<polygon fill="midnightblue" stroke="midnightblue" points="758.984,-24.9191 748.905,-21.6507 754.746,-30.4905 758.984,-24.9191"/>
</g>
<!-- Node36&#45;&gt;Node8 -->
<g id="edge98" class="edge"><title>Node36&#45;&gt;Node8</title>
<path fill="none" stroke="midnightblue" d="M1153.81,-174.265C1181.44,-157.568 1232.86,-122.802 1262,-80 1272.19,-65.0288 1280.15,-46.0334 1285.29,-31.765"/>
<polygon fill="midnightblue" stroke="midnightblue" points="1288.74,-32.5149 1288.68,-21.9202 1282.12,-30.241 1288.74,-32.5149"/>
</g>
<!-- Node36&#45;&gt;Node10 -->
<g id="edge100" class="edge"><title>Node36&#45;&gt;Node10</title>
<path fill="none" stroke="midnightblue" d="M1071.34,-176.508C1017.98,-168.828 939.676,-156.255 863.083,-138.039"/>
<polygon fill="midnightblue" stroke="midnightblue" points="863.809,-134.614 853.267,-135.671 862.167,-141.418 863.809,-134.614"/>
</g>
<!-- Node36&#45;&gt;Node11 -->
<g id="edge96" class="edge"><title>Node36&#45;&gt;Node11</title>
<path fill="none" stroke="midnightblue" d="M1071.32,-178.549C1056.14,-177.034 1040,-175.442 1025,-174 838.889,-156.102 614.362,-135.83 540.706,-129.214"/>
<polygon fill="midnightblue" stroke="midnightblue" points="540.853,-125.714 530.581,-128.306 540.228,-132.686 540.853,-125.714"/>
</g>
<!-- Node36&#45;&gt;Node14 -->
<g id="edge102" class="edge"><title>Node36&#45;&gt;Node14</title>
<path fill="none" stroke="midnightblue" d="M1112.73,-174.497C1093.43,-165.397 1065.29,-152.127 1043.65,-141.925"/>
<polygon fill="midnightblue" stroke="midnightblue" points="1045.06,-138.721 1034.52,-137.621 1042.08,-145.052 1045.06,-138.721"/>
</g>
<!-- Node36&#45;&gt;Node17 -->
<g id="edge130" class="edge"><title>Node36&#45;&gt;Node17</title>
<path fill="none" stroke="midnightblue" d="M1092.26,-174.497C1047.96,-163.61 979.376,-146.754 936.938,-136.324"/>
<polygon fill="midnightblue" stroke="midnightblue" points="937.548,-132.87 927.002,-133.882 935.877,-139.667 937.548,-132.87"/>
</g>
<!-- Node37 -->
<g id="node90" class="node"><title>Node37</title>
<a xlink:href="_bin_settings_8h.html" target="_top" xlink:title="base/BinSettings.h">
<polygon fill="white" stroke="black" points="1096.5,-116.5 1096.5,-137.5 1195.5,-137.5 1195.5,-116.5 1096.5,-116.5"/>
<text text-anchor="middle" x="1146" y="-124.5" font-family="Helvetica,sans-Serif" font-size="10.00">base/BinSettings.h</text>
</a>
</g>
<!-- Node36&#45;&gt;Node37 -->
<g id="edge104" class="edge"><title>Node36&#45;&gt;Node37</title>
<path fill="none" stroke="midnightblue" d="M1137.02,-174.362C1138.44,-166.84 1140.4,-156.519 1142.13,-147.431"/>
<polygon fill="midnightblue" stroke="midnightblue" points="1145.57,-148.048 1144,-137.571 1138.69,-146.743 1145.57,-148.048"/>
</g>
<!-- Node37&#45;&gt;Node8 -->
<g id="edge122" class="edge"><title>Node37&#45;&gt;Node8</title>
<path fill="none" stroke="midnightblue" d="M1174.03,-116.46C1193.29,-108.354 1218.76,-95.8603 1238,-80 1255.3,-65.7352 1270.58,-45.0208 1280.43,-30.0138"/>
<polygon fill="midnightblue" stroke="midnightblue" points="1283.42,-31.833 1285.83,-21.516 1277.52,-28.0778 1283.42,-31.833"/>
</g>
<!-- Node37&#45;&gt;Node24 -->
<g id="edge124" class="edge"><title>Node37&#45;&gt;Node24</title>
<path fill="none" stroke="midnightblue" d="M1096.35,-119.533C1072.66,-113.203 1046.41,-101.526 1032,-80 1022.5,-65.807 1025.96,-46.2 1030.95,-31.5131"/>
<polygon fill="midnightblue" stroke="midnightblue" points="1034.35,-32.4255 1034.69,-21.8361 1027.82,-29.9029 1034.35,-32.4255"/>
</g>
<!-- Node37&#45;&gt;Node38 -->
<g id="edge106" class="edge"><title>Node37&#45;&gt;Node38</title>
<path fill="none" stroke="midnightblue" d="M1153.89,-116.362C1159.83,-108.35 1168.12,-97.1605 1175.16,-87.6696"/>
<polygon fill="midnightblue" stroke="midnightblue" points="1178.02,-89.6883 1181.16,-79.5707 1172.4,-85.5193 1178.02,-89.6883"/>
</g>
<!-- Node41 -->
<g id="node100" class="node"><title>Node41</title>
<polygon fill="white" stroke="#bfbfbf" points="1097.5,-0.5 1097.5,-21.5 1146.5,-21.5 1146.5,-0.5 1097.5,-0.5"/>
<text text-anchor="middle" x="1122" y="-8.5" font-family="Helvetica,sans-Serif" font-size="10.00">istream</text>
</g>
<!-- Node37&#45;&gt;Node41 -->
<g id="edge126" class="edge"><title>Node37&#45;&gt;Node41</title>
<path fill="none" stroke="midnightblue" d="M1143.79,-116.295C1139.8,-97.0451 1131.37,-56.2889 1126.24,-31.5091"/>
<polygon fill="midnightblue" stroke="midnightblue" points="1129.66,-30.7627 1124.21,-21.6792 1122.81,-32.181 1129.66,-30.7627"/>
</g>
<!-- Node43 -->
<g id="node108" class="node"><title>Node43</title>
<polygon fill="white" stroke="#bfbfbf" points="1041,-58.5 1041,-79.5 1093,-79.5 1093,-58.5 1041,-58.5"/>
<text text-anchor="middle" x="1067" y="-66.5" font-family="Helvetica,sans-Serif" font-size="10.00">ostream</text>
</g>
<!-- Node37&#45;&gt;Node43 -->
<g id="edge128" class="edge"><title>Node37&#45;&gt;Node43</title>
<path fill="none" stroke="midnightblue" d="M1131.51,-116.362C1119.82,-107.777 1103.16,-95.5459 1089.7,-85.6636"/>
<polygon fill="midnightblue" stroke="midnightblue" points="1091.53,-82.6675 1081.4,-79.5707 1087.39,-88.31 1091.53,-82.6675"/>
</g>
<!-- Node38&#45;&gt;Node6 -->
<g id="edge118" class="edge"><title>Node38&#45;&gt;Node6</title>
<path fill="none" stroke="midnightblue" d="M1148.87,-63.3854C1099.31,-56.0968 1012.29,-42.1517 929.13,-22.0635"/>
<polygon fill="midnightblue" stroke="midnightblue" points="929.818,-18.6286 919.273,-19.6485 928.152,-25.4276 929.818,-18.6286"/>
</g>
<!-- Node38&#45;&gt;Node7 -->
<g id="edge110" class="edge"><title>Node38&#45;&gt;Node7</title>
<path fill="none" stroke="midnightblue" d="M1148.74,-59.409C1112.86,-50.7421 1058.69,-37.3712 1002.94,-22.1859"/>
<polygon fill="midnightblue" stroke="midnightblue" points="1003.82,-18.7981 993.246,-19.5327 1001.97,-25.5495 1003.82,-18.7981"/>
</g>
<!-- Node38&#45;&gt;Node24 -->
<g id="edge112" class="edge"><title>Node38&#45;&gt;Node24</title>
<path fill="none" stroke="midnightblue" d="M1162.02,-58.4966C1138.15,-49.2048 1103.11,-35.5649 1076.69,-25.2832"/>
<polygon fill="midnightblue" stroke="midnightblue" points="1077.62,-21.889 1067.03,-21.5231 1075.08,-28.4122 1077.62,-21.889"/>
</g>
<!-- Node39 -->
<g id="node94" class="node"><title>Node39</title>
<a xlink:href="types_8h.html" target="_top" xlink:title="types.h">
<polygon fill="white" stroke="black" points="1164.5,-0.5 1164.5,-21.5 1213.5,-21.5 1213.5,-0.5 1164.5,-0.5"/>
<text text-anchor="middle" x="1189" y="-8.5" font-family="Helvetica,sans-Serif" font-size="10.00">types.h</text>
</a>
</g>
<!-- Node38&#45;&gt;Node39 -->
<g id="edge108" class="edge"><title>Node38&#45;&gt;Node39</title>
<path fill="none" stroke="midnightblue" d="M1189,-58.3619C1189,-50.9219 1189,-40.7427 1189,-31.7276"/>
<polygon fill="midnightblue" stroke="midnightblue" points="1192.5,-31.5706 1189,-21.5707 1185.5,-31.5707 1192.5,-31.5706"/>
</g>
<!-- Node40 -->
<g id="node98" class="node"><title>Node40</title>
<polygon fill="white" stroke="#bfbfbf" points="1394,-0.5 1394,-21.5 1434,-21.5 1434,-0.5 1394,-0.5"/>
<text text-anchor="middle" x="1414" y="-8.5" font-family="Helvetica,sans-Serif" font-size="10.00">limits</text>
</g>
<!-- Node38&#45;&gt;Node40 -->
<g id="edge114" class="edge"><title>Node38&#45;&gt;Node40</title>
<path fill="none" stroke="midnightblue" d="M1229.19,-60.9279C1266.99,-52.9902 1325.28,-39.8638 1384.02,-22.0446"/>
<polygon fill="midnightblue" stroke="midnightblue" points="1385.3,-25.3116 1393.83,-19.025 1383.25,-18.6213 1385.3,-25.3116"/>
</g>
<!-- Node38&#45;&gt;Node41 -->
<g id="edge116" class="edge"><title>Node38&#45;&gt;Node41</title>
<path fill="none" stroke="midnightblue" d="M1176.71,-58.3619C1166.98,-49.9408 1153.2,-38.0105 1141.9,-28.2308"/>
<polygon fill="midnightblue" stroke="midnightblue" points="1144.06,-25.4695 1134.21,-21.5707 1139.48,-30.7619 1144.06,-25.4695"/>
</g>
<!-- Node42 -->
<g id="node103" class="node"><title>Node42</title>
<polygon fill="white" stroke="#bfbfbf" points="1332,-0.5 1332,-21.5 1376,-21.5 1376,-0.5 1332,-0.5"/>
<text text-anchor="middle" x="1354" y="-8.5" font-family="Helvetica,sans-Serif" font-size="10.00">cmath</text>
</g>
<!-- Node38&#45;&gt;Node42 -->
<g id="edge120" class="edge"><title>Node38&#45;&gt;Node42</title>
<path fill="none" stroke="midnightblue" d="M1219.08,-58.4846C1244.28,-49.6668 1281.45,-36.6444 1322.36,-22.2174"/>
<polygon fill="midnightblue" stroke="midnightblue" points="1323.72,-25.4494 1331.99,-18.8218 1321.39,-18.8482 1323.72,-25.4494"/>
</g>
<!-- Node44&#45;&gt;Node5 -->
<g id="edge136" class="edge"><title>Node44&#45;&gt;Node5</title>
<path fill="none" stroke="midnightblue" d="M955.178,-174.264C954.822,-159.123 951.846,-131.606 936,-116 890.532,-71.2212 851.534,-113.144 797,-80 776.292,-67.4145 758.508,-45.7862 747.364,-30.0931"/>
<polygon fill="midnightblue" stroke="midnightblue" points="750.129,-27.9357 741.599,-21.6524 744.349,-31.884 750.129,-27.9357"/>
</g>
<!-- Node44&#45;&gt;Node14 -->
<g id="edge138" class="edge"><title>Node44&#45;&gt;Node14</title>
<path fill="none" stroke="midnightblue" d="M965.455,-174.362C973.57,-166.104 985.001,-154.472 994.504,-144.803"/>
<polygon fill="midnightblue" stroke="midnightblue" points="997.099,-147.156 1001.61,-137.571 992.106,-142.25 997.099,-147.156"/>
</g>
<!-- Node44&#45;&gt;Node17 -->
<g id="edge134" class="edge"><title>Node44&#45;&gt;Node17</title>
<path fill="none" stroke="midnightblue" d="M944.729,-174.362C936.756,-166.104 925.525,-154.472 916.189,-144.803"/>
<polygon fill="midnightblue" stroke="midnightblue" points="918.67,-142.334 909.206,-137.571 913.634,-147.196 918.67,-142.334"/>
</g>
<!-- Node45&#45;&gt;Node8 -->
<g id="edge148" class="edge"><title>Node45&#45;&gt;Node8</title>
<path fill="none" stroke="midnightblue" d="M1391.91,-58.4966C1372.77,-49.397 1344.85,-36.1273 1323.39,-25.9253"/>
<polygon fill="midnightblue" stroke="midnightblue" points="1324.88,-22.7539 1314.34,-21.6212 1321.87,-29.0758 1324.88,-22.7539"/>
</g>
<!-- Node45&#45;&gt;Node40 -->
<g id="edge146" class="edge"><title>Node45&#45;&gt;Node40</title>
<path fill="none" stroke="midnightblue" d="M1414,-58.3619C1414,-50.9219 1414,-40.7427 1414,-31.7276"/>
<polygon fill="midnightblue" stroke="midnightblue" points="1417.5,-31.5706 1414,-21.5707 1410.5,-31.5707 1417.5,-31.5706"/>
</g>
<!-- Node45&#45;&gt;Node42 -->
<g id="edge144" class="edge"><title>Node45&#45;&gt;Node42</title>
<path fill="none" stroke="midnightblue" d="M1403,-58.3619C1394.45,-50.1043 1382.42,-38.4725 1372.42,-28.8029"/>
<polygon fill="midnightblue" stroke="midnightblue" points="1374.56,-26.0044 1364.94,-21.5707 1369.69,-31.0374 1374.56,-26.0044"/>
</g>
</g>
</svg>
