<?xml version="1.0" encoding="UTF-8" standalone="no"?>
<!DOCTYPE svg PUBLIC "-//W3C//DTD SVG 1.1//EN"
 "http://www.w3.org/Graphics/SVG/1.1/DTD/svg11.dtd">
<!-- Generated by graphviz version 2.26.3 (20100126.1600)
 -->
<!-- Title: src/calibration/gui/AvgBuffer.h Pages: 1 -->
<svg width="972pt" height="334pt"
 viewBox="0.00 0.00 972.00 334.00" xmlns="http://www.w3.org/2000/svg" xmlns:xlink="http://www.w3.org/1999/xlink">
<g id="graph1" class="graph" transform="scale(1 1) rotate(0) translate(4 330)">
<title>src/calibration/gui/AvgBuffer.h</title>
<polygon fill="white" stroke="white" points="-4,5 -4,-330 969,-330 969,5 -4,5"/>
<!-- Node0 -->
<g id="node1" class="node"><title>Node0</title>
<polygon fill="#bfbfbf" stroke="black" points="511.5,-291 511.5,-325 604.5,-325 604.5,-291 511.5,-291"/>
<text text-anchor="start" x="519.5" y="-312" font-family="Helvetica,sans-Serif" font-size="10.00">src/calibration/gui</text>
<text text-anchor="middle" x="558" y="-299" font-family="Helvetica,sans-Serif" font-size="10.00">/AvgBuffer.h</text>
</g>
<!-- Node1 -->
<g id="node3" class="node"><title>Node1</title>
<polygon fill="white" stroke="#bfbfbf" points="195,-174.5 195,-195.5 247,-195.5 247,-174.5 195,-174.5"/>
<text text-anchor="middle" x="221" y="-182.5" font-family="Helvetica,sans-Serif" font-size="10.00">memory</text>
</g>
<!-- Node0&#45;&gt;Node1 -->
<g id="edge2" class="edge"><title>Node0&#45;&gt;Node1</title>
<path fill="none" stroke="midnightblue" d="M511.499,-306.1C433.057,-301.945 279.148,-289.399 240,-254 226.651,-241.93 222.325,-221.429 221.086,-205.902"/>
<polygon fill="midnightblue" stroke="midnightblue" points="224.572,-205.507 220.643,-195.667 217.578,-205.809 224.572,-205.507"/>
</g>
<!-- Node2 -->
<g id="node5" class="node"><title>Node2</title>
<polygon fill="white" stroke="#bfbfbf" points="935.5,-116.5 935.5,-137.5 964.5,-137.5 964.5,-116.5 935.5,-116.5"/>
<text text-anchor="middle" x="950" y="-124.5" font-family="Helvetica,sans-Serif" font-size="10.00">list</text>
</g>
<!-- Node0&#45;&gt;Node2 -->
<g id="edge4" class="edge"><title>Node0&#45;&gt;Node2</title>
<path fill="none" stroke="midnightblue" d="M562.165,-290.952C567.269,-273.632 577.598,-247.247 596,-232 711.228,-136.525 780.913,-189.668 925.436,-138.139"/>
<polygon fill="midnightblue" stroke="midnightblue" points="926.892,-141.333 935.065,-134.591 924.472,-134.765 926.892,-141.333"/>
</g>
<!-- Node3 -->
<g id="node7" class="node"><title>Node3</title>
<polygon fill="white" stroke="#bfbfbf" points="604.5,-232.5 604.5,-253.5 647.5,-253.5 647.5,-232.5 604.5,-232.5"/>
<text text-anchor="middle" x="626" y="-240.5" font-family="Helvetica,sans-Serif" font-size="10.00">queue</text>
</g>
<!-- Node0&#45;&gt;Node3 -->
<g id="edge6" class="edge"><title>Node0&#45;&gt;Node3</title>
<path fill="none" stroke="midnightblue" d="M575.866,-290.922C585.554,-281.662 597.516,-270.227 607.326,-260.85"/>
<polygon fill="midnightblue" stroke="midnightblue" points="609.837,-263.292 614.647,-253.852 605,-258.232 609.837,-263.292"/>
</g>
<!-- Node4 -->
<g id="node9" class="node"><title>Node4</title>
<polygon fill="white" stroke="#bfbfbf" points="664.5,-232.5 664.5,-253.5 713.5,-253.5 713.5,-232.5 664.5,-232.5"/>
<text text-anchor="middle" x="689" y="-240.5" font-family="Helvetica,sans-Serif" font-size="10.00">cassert</text>
</g>
<!-- Node0&#45;&gt;Node4 -->
<g id="edge8" class="edge"><title>Node0&#45;&gt;Node4</title>
<path fill="none" stroke="midnightblue" d="M592.419,-290.922C612.875,-280.772 638.596,-268.01 658.35,-258.208"/>
<polygon fill="midnightblue" stroke="midnightblue" points="660.117,-261.238 667.519,-253.658 657.006,-254.968 660.117,-261.238"/>
</g>
<!-- Node5 -->
<g id="node11" class="node"><title>Node5</title>
<a xlink:href="_avg_buffer__traits_8h.html" target="_top" xlink:title="AvgBuffer_traits.h">
<polygon fill="white" stroke="black" points="416.5,-232.5 416.5,-253.5 511.5,-253.5 511.5,-232.5 416.5,-232.5"/>
<text text-anchor="middle" x="464" y="-240.5" font-family="Helvetica,sans-Serif" font-size="10.00">AvgBuffer_traits.h</text>
</a>
</g>
<!-- Node0&#45;&gt;Node5 -->
<g id="edge10" class="edge"><title>Node0&#45;&gt;Node5</title>
<path fill="none" stroke="midnightblue" d="M533.303,-290.922C519.291,-281.233 501.838,-269.165 487.952,-259.562"/>
<polygon fill="midnightblue" stroke="midnightblue" points="489.629,-256.467 479.414,-253.658 485.648,-262.225 489.629,-256.467"/>
</g>
<!-- Node6 -->
<g id="node13" class="node"><title>Node6</title>
<a xlink:href="interval_8h.html" target="_top" xlink:title="base/interval.h">
<polygon fill="white" stroke="black" points="265,-174.5 265,-195.5 345,-195.5 345,-174.5 265,-174.5"/>
<text text-anchor="middle" x="305" y="-182.5" font-family="Helvetica,sans-Serif" font-size="10.00">base/interval.h</text>
</a>
</g>
<!-- Node0&#45;&gt;Node6 -->
<g id="edge64" class="edge"><title>Node0&#45;&gt;Node6</title>
<path fill="none" stroke="midnightblue" d="M511.497,-294.507C481.239,-284.947 441.349,-270.852 408,-254 378.214,-238.948 346.724,-216.817 326.521,-201.704"/>
<polygon fill="midnightblue" stroke="midnightblue" points="328.42,-198.751 318.336,-195.501 324.192,-204.33 328.42,-198.751"/>
</g>
<!-- Node14 -->
<g id="node29" class="node"><title>Node14</title>
<a xlink:href="_t_i_d_8h.html" target="_top" xlink:title="tree/TID.h">
<polygon fill="white" stroke="black" points="498.5,-174.5 498.5,-195.5 559.5,-195.5 559.5,-174.5 498.5,-174.5"/>
<text text-anchor="middle" x="529" y="-182.5" font-family="Helvetica,sans-Serif" font-size="10.00">tree/TID.h</text>
</a>
</g>
<!-- Node0&#45;&gt;Node14 -->
<g id="edge74" class="edge"><title>Node0&#45;&gt;Node14</title>
<path fill="none" stroke="midnightblue" d="M553.968,-290.897C548.704,-268.573 539.5,-229.535 533.858,-205.605"/>
<polygon fill="midnightblue" stroke="midnightblue" points="537.245,-204.717 531.543,-195.787 530.432,-206.324 537.245,-204.717"/>
</g>
<!-- Node26 -->
<g id="node60" class="node"><title>Node26</title>
<a xlink:href="_savitzky_golay_8h.html" target="_top" xlink:title="base/SavitzkyGolay.h">
<polygon fill="white" stroke="black" points="248.5,-232.5 248.5,-253.5 361.5,-253.5 361.5,-232.5 248.5,-232.5"/>
<text text-anchor="middle" x="305" y="-240.5" font-family="Helvetica,sans-Serif" font-size="10.00">base/SavitzkyGolay.h</text>
</a>
</g>
<!-- Node0&#45;&gt;Node26 -->
<g id="edge66" class="edge"><title>Node0&#45;&gt;Node26</title>
<path fill="none" stroke="midnightblue" d="M511.301,-296.002C467.231,-284.68 401.322,-267.747 355.92,-256.082"/>
<polygon fill="midnightblue" stroke="midnightblue" points="356.546,-252.629 345.989,-253.531 354.804,-259.409 356.546,-252.629"/>
</g>
<!-- Node27 -->
<g id="node66" class="node"><title>Node27</title>
<polygon fill="white" stroke="#bfbfbf" points="731,-232.5 731,-253.5 775,-253.5 775,-232.5 731,-232.5"/>
<text text-anchor="middle" x="753" y="-240.5" font-family="Helvetica,sans-Serif" font-size="10.00">TH1.h</text>
</g>
<!-- Node0&#45;&gt;Node27 -->
<g id="edge76" class="edge"><title>Node0&#45;&gt;Node27</title>
<path fill="none" stroke="midnightblue" d="M604.751,-292.921C635.431,-282.954 676.657,-269.426 721.133,-254.254"/>
<polygon fill="midnightblue" stroke="midnightblue" points="722.341,-257.54 730.67,-250.992 720.076,-250.917 722.341,-257.54"/>
</g>
<!-- Node28 -->
<g id="node68" class="node"><title>Node28</title>
<polygon fill="white" stroke="#bfbfbf" points="793,-232.5 793,-253.5 847,-253.5 847,-232.5 793,-232.5"/>
<text text-anchor="middle" x="820" y="-240.5" font-family="Helvetica,sans-Serif" font-size="10.00">TArray.h</text>
</g>
<!-- Node0&#45;&gt;Node28 -->
<g id="edge78" class="edge"><title>Node0&#45;&gt;Node28</title>
<path fill="none" stroke="midnightblue" d="M604.527,-297.77C648.22,-287.964 715.615,-272.332 782.988,-254.167"/>
<polygon fill="midnightblue" stroke="midnightblue" points="784.192,-257.467 792.925,-251.469 782.358,-250.712 784.192,-257.467"/>
</g>
<!-- Node5&#45;&gt;Node1 -->
<g id="edge62" class="edge"><title>Node5&#45;&gt;Node1</title>
<path fill="none" stroke="midnightblue" d="M416.225,-233.372C376.121,-225.028 317.137,-212.146 257.303,-196.212"/>
<polygon fill="midnightblue" stroke="midnightblue" points="257.871,-192.74 247.305,-193.522 256.053,-199.5 257.871,-192.74"/>
</g>
<!-- Node5&#45;&gt;Node6 -->
<g id="edge12" class="edge"><title>Node5&#45;&gt;Node6</title>
<path fill="none" stroke="midnightblue" d="M435.206,-232.497C409.509,-223.123 371.682,-209.324 343.413,-199.012"/>
<polygon fill="midnightblue" stroke="midnightblue" points="344.442,-195.662 333.848,-195.523 342.043,-202.238 344.442,-195.662"/>
</g>
<!-- Node5&#45;&gt;Node14 -->
<g id="edge28" class="edge"><title>Node5&#45;&gt;Node14</title>
<path fill="none" stroke="midnightblue" d="M475.922,-232.362C485.359,-223.941 498.73,-212.011 509.69,-202.231"/>
<polygon fill="midnightblue" stroke="midnightblue" points="512.022,-204.84 517.154,-195.571 507.362,-199.617 512.022,-204.84"/>
</g>
<!-- Node7 -->
<g id="node15" class="node"><title>Node7</title>
<a xlink:href="types_8h.html" target="_top" xlink:title="types.h">
<polygon fill="white" stroke="black" points="23.5,-116.5 23.5,-137.5 72.5,-137.5 72.5,-116.5 23.5,-116.5"/>
<text text-anchor="middle" x="48" y="-124.5" font-family="Helvetica,sans-Serif" font-size="10.00">types.h</text>
</a>
</g>
<!-- Node6&#45;&gt;Node7 -->
<g id="edge14" class="edge"><title>Node6&#45;&gt;Node7</title>
<path fill="none" stroke="midnightblue" d="M264.897,-175.956C261.888,-175.29 258.896,-174.632 256,-174 180.543,-157.541 160.921,-156.75 86,-138 84.934,-137.733 83.8528,-137.457 82.7625,-137.173"/>
<polygon fill="midnightblue" stroke="midnightblue" points="83.435,-133.729 72.8669,-134.48 81.5971,-140.483 83.435,-133.729"/>
</g>
<!-- Node8 -->
<g id="node17" class="node"><title>Node8</title>
<polygon fill="white" stroke="#bfbfbf" points="75,-0.5 75,-21.5 131,-21.5 131,-0.5 75,-0.5"/>
<text text-anchor="middle" x="103" y="-8.5" font-family="Helvetica,sans-Serif" font-size="10.00">algorithm</text>
</g>
<!-- Node6&#45;&gt;Node8 -->
<g id="edge16" class="edge"><title>Node6&#45;&gt;Node8</title>
<path fill="none" stroke="midnightblue" d="M264.734,-175.455C213.766,-163.215 131.945,-142.971 127,-138 99.0412,-109.899 98.2409,-60.1032 100.43,-31.9369"/>
<polygon fill="midnightblue" stroke="midnightblue" points="103.947,-31.9343 101.442,-21.6399 96.981,-31.2496 103.947,-31.9343"/>
</g>
<!-- Node9 -->
<g id="node19" class="node"><title>Node9</title>
<polygon fill="white" stroke="#bfbfbf" points="359.5,-116.5 359.5,-137.5 418.5,-137.5 418.5,-116.5 359.5,-116.5"/>
<text text-anchor="middle" x="389" y="-124.5" font-family="Helvetica,sans-Serif" font-size="10.00">stdexcept</text>
</g>
<!-- Node6&#45;&gt;Node9 -->
<g id="edge18" class="edge"><title>Node6&#45;&gt;Node9</title>
<path fill="none" stroke="midnightblue" d="M320.407,-174.362C332.958,-165.696 350.892,-153.313 365.275,-143.382"/>
<polygon fill="midnightblue" stroke="midnightblue" points="367.45,-146.133 373.691,-137.571 363.473,-140.372 367.45,-146.133"/>
</g>
<!-- Node10 -->
<g id="node21" class="node"><title>Node10</title>
<polygon fill="white" stroke="#bfbfbf" points="136,-116.5 136,-137.5 176,-137.5 176,-116.5 136,-116.5"/>
<text text-anchor="middle" x="156" y="-124.5" font-family="Helvetica,sans-Serif" font-size="10.00">limits</text>
</g>
<!-- Node6&#45;&gt;Node10 -->
<g id="edge20" class="edge"><title>Node6&#45;&gt;Node10</title>
<path fill="none" stroke="midnightblue" d="M278.017,-174.497C251.99,-164.365 212.684,-149.065 185.76,-138.584"/>
<polygon fill="midnightblue" stroke="midnightblue" points="186.689,-135.19 176.101,-134.824 184.15,-141.714 186.689,-135.19"/>
</g>
<!-- Node11 -->
<g id="node23" class="node"><title>Node11</title>
<polygon fill="white" stroke="#bfbfbf" points="231.5,-116.5 231.5,-137.5 280.5,-137.5 280.5,-116.5 231.5,-116.5"/>
<text text-anchor="middle" x="256" y="-124.5" font-family="Helvetica,sans-Serif" font-size="10.00">istream</text>
</g>
<!-- Node6&#45;&gt;Node11 -->
<g id="edge22" class="edge"><title>Node6&#45;&gt;Node11</title>
<path fill="none" stroke="midnightblue" d="M296.013,-174.362C289.175,-166.268 279.598,-154.932 271.528,-145.38"/>
<polygon fill="midnightblue" stroke="midnightblue" points="274.058,-142.951 264.93,-137.571 268.71,-147.468 274.058,-142.951"/>
</g>
<!-- Node12 -->
<g id="node25" class="node"><title>Node12</title>
<polygon fill="white" stroke="#bfbfbf" points="222,-0.5 222,-21.5 274,-21.5 274,-0.5 222,-0.5"/>
<text text-anchor="middle" x="248" y="-8.5" font-family="Helvetica,sans-Serif" font-size="10.00">sstream</text>
</g>
<!-- Node6&#45;&gt;Node12 -->
<g id="edge24" class="edge"><title>Node6&#45;&gt;Node12</title>
<path fill="none" stroke="midnightblue" d="M270.215,-174.441C252.759,-167.182 233.201,-155.605 223,-138 218.098,-129.54 221.082,-125.588 223,-116 226.399,-99.0033 233.387,-96.7083 238,-80 242.372,-64.1645 244.919,-45.7263 246.347,-31.8957"/>
<polygon fill="midnightblue" stroke="midnightblue" points="249.833,-32.2087 247.266,-21.9295 242.862,-31.5657 249.833,-32.2087"/>
</g>
<!-- Node13 -->
<g id="node27" class="node"><title>Node13</title>
<polygon fill="white" stroke="#bfbfbf" points="298,-116.5 298,-137.5 342,-137.5 342,-116.5 298,-116.5"/>
<text text-anchor="middle" x="320" y="-124.5" font-family="Helvetica,sans-Serif" font-size="10.00">cmath</text>
</g>
<!-- Node6&#45;&gt;Node13 -->
<g id="edge26" class="edge"><title>Node6&#45;&gt;Node13</title>
<path fill="none" stroke="midnightblue" d="M307.751,-174.362C309.697,-166.84 312.366,-156.519 314.716,-147.431"/>
<polygon fill="midnightblue" stroke="midnightblue" points="318.151,-148.128 317.266,-137.571 311.374,-146.376 318.151,-148.128"/>
</g>
<!-- Node14&#45;&gt;Node2 -->
<g id="edge56" class="edge"><title>Node14&#45;&gt;Node2</title>
<path fill="none" stroke="midnightblue" d="M559.652,-176.74C564.108,-175.713 568.657,-174.76 573,-174 725.585,-147.311 772.811,-179.381 925.467,-137.705"/>
<polygon fill="midnightblue" stroke="midnightblue" points="926.505,-141.049 935.196,-134.989 924.623,-134.307 926.505,-141.049"/>
</g>
<!-- Node14&#45;&gt;Node9 -->
<g id="edge54" class="edge"><title>Node14&#45;&gt;Node9</title>
<path fill="none" stroke="midnightblue" d="M503.647,-174.497C481.387,-165.275 448.788,-151.769 424.037,-141.515"/>
<polygon fill="midnightblue" stroke="midnightblue" points="425.216,-138.215 414.637,-137.621 422.536,-144.682 425.216,-138.215"/>
</g>
<!-- Node15 -->
<g id="node31" class="node"><title>Node15</title>
<polygon fill="white" stroke="#bfbfbf" points="782,-116.5 782,-137.5 838,-137.5 838,-116.5 782,-116.5"/>
<text text-anchor="middle" x="810" y="-124.5" font-family="Helvetica,sans-Serif" font-size="10.00">Rtypes.h</text>
</g>
<!-- Node14&#45;&gt;Node15 -->
<g id="edge30" class="edge"><title>Node14&#45;&gt;Node15</title>
<path fill="none" stroke="midnightblue" d="M559.715,-177.062C564.162,-175.988 568.691,-174.935 573,-174 659.125,-155.303 681.981,-157.177 768,-138 769.241,-137.723 770.502,-137.435 771.773,-137.138"/>
<polygon fill="midnightblue" stroke="midnightblue" points="772.717,-140.511 781.602,-134.74 771.058,-133.71 772.717,-140.511"/>
</g>
<!-- Node16 -->
<g id="node33" class="node"><title>Node16</title>
<a xlink:href="base_2std__ext_2_time_8h.html" target="_top" xlink:title="base/std_ext/time.h">
<polygon fill="white" stroke="black" points="623.5,-116.5 623.5,-137.5 726.5,-137.5 726.5,-116.5 623.5,-116.5"/>
<text text-anchor="middle" x="675" y="-124.5" font-family="Helvetica,sans-Serif" font-size="10.00">base/std_ext/time.h</text>
</a>
</g>
<!-- Node14&#45;&gt;Node16 -->
<g id="edge32" class="edge"><title>Node14&#45;&gt;Node16</title>
<path fill="none" stroke="midnightblue" d="M555.439,-174.497C578.756,-165.234 612.95,-151.65 638.804,-141.379"/>
<polygon fill="midnightblue" stroke="midnightblue" points="640.263,-144.566 648.264,-137.621 637.678,-138.06 640.263,-144.566"/>
</g>
<!-- Node21 -->
<g id="node45" class="node"><title>Node21</title>
<polygon fill="white" stroke="#bfbfbf" points="724.5,-58.5 724.5,-79.5 765.5,-79.5 765.5,-58.5 724.5,-58.5"/>
<text text-anchor="middle" x="745" y="-66.5" font-family="Helvetica,sans-Serif" font-size="10.00">ctime</text>
</g>
<!-- Node14&#45;&gt;Node21 -->
<g id="edge60" class="edge"><title>Node14&#45;&gt;Node21</title>
<path fill="none" stroke="midnightblue" d="M559.747,-177.204C564.189,-176.109 568.709,-175.013 573,-174 644.783,-157.054 684.831,-192.066 735,-138 746.859,-125.22 748.539,-104.977 747.74,-89.7158"/>
<polygon fill="midnightblue" stroke="midnightblue" points="751.217,-89.3052 746.83,-79.6614 744.246,-89.9361 751.217,-89.3052"/>
</g>
<!-- Node22 -->
<g id="node47" class="node"><title>Node22</title>
<polygon fill="white" stroke="#bfbfbf" points="856,-116.5 856,-137.5 918,-137.5 918,-116.5 856,-116.5"/>
<text text-anchor="middle" x="887" y="-124.5" font-family="Helvetica,sans-Serif" font-size="10.00">type_traits</text>
</g>
<!-- Node14&#45;&gt;Node22 -->
<g id="edge48" class="edge"><title>Node14&#45;&gt;Node22</title>
<path fill="none" stroke="midnightblue" d="M559.673,-176.856C564.126,-175.813 568.668,-174.823 573,-174 690.483,-151.673 724.813,-161.771 845.645,-138.061"/>
<polygon fill="midnightblue" stroke="midnightblue" points="846.536,-141.452 855.655,-136.059 845.163,-134.588 846.536,-141.452"/>
</g>
<!-- Node23 -->
<g id="node49" class="node"><title>Node23</title>
<polygon fill="white" stroke="#bfbfbf" points="436,-116.5 436,-137.5 474,-137.5 474,-116.5 436,-116.5"/>
<text text-anchor="middle" x="455" y="-124.5" font-family="Helvetica,sans-Serif" font-size="10.00">tuple</text>
</g>
<!-- Node14&#45;&gt;Node23 -->
<g id="edge50" class="edge"><title>Node14&#45;&gt;Node23</title>
<path fill="none" stroke="midnightblue" d="M515.427,-174.362C504.579,-165.859 489.166,-153.779 476.621,-143.947"/>
<polygon fill="midnightblue" stroke="midnightblue" points="478.516,-140.985 468.487,-137.571 474.198,-146.494 478.516,-140.985"/>
</g>
<!-- Node24 -->
<g id="node51" class="node"><title>Node24</title>
<polygon fill="white" stroke="#bfbfbf" points="492,-116.5 492,-137.5 538,-137.5 538,-116.5 492,-116.5"/>
<text text-anchor="middle" x="515" y="-124.5" font-family="Helvetica,sans-Serif" font-size="10.00">cstdint</text>
</g>
<!-- Node14&#45;&gt;Node24 -->
<g id="edge52" class="edge"><title>Node14&#45;&gt;Node24</title>
<path fill="none" stroke="midnightblue" d="M526.432,-174.362C524.617,-166.84 522.125,-156.519 519.932,-147.431"/>
<polygon fill="midnightblue" stroke="midnightblue" points="523.3,-146.47 517.552,-137.571 516.496,-148.113 523.3,-146.47"/>
</g>
<!-- Node25 -->
<g id="node55" class="node"><title>Node25</title>
<polygon fill="white" stroke="#bfbfbf" points="556,-116.5 556,-137.5 606,-137.5 606,-116.5 556,-116.5"/>
<text text-anchor="middle" x="581" y="-124.5" font-family="Helvetica,sans-Serif" font-size="10.00">iomanip</text>
</g>
<!-- Node14&#45;&gt;Node25 -->
<g id="edge58" class="edge"><title>Node14&#45;&gt;Node25</title>
<path fill="none" stroke="midnightblue" d="M538.538,-174.362C545.868,-166.186 556.163,-154.702 564.781,-145.091"/>
<polygon fill="midnightblue" stroke="midnightblue" points="567.453,-147.353 571.523,-137.571 562.241,-142.68 567.453,-147.353"/>
</g>
<!-- Node17 -->
<g id="node35" class="node"><title>Node17</title>
<a xlink:href="string_8h.html" target="_top" xlink:title="base/std_ext/string.h">
<polygon fill="white" stroke="black" points="121,-58.5 121,-79.5 229,-79.5 229,-58.5 121,-58.5"/>
<text text-anchor="middle" x="175" y="-66.5" font-family="Helvetica,sans-Serif" font-size="10.00">base/std_ext/string.h</text>
</a>
</g>
<!-- Node16&#45;&gt;Node17 -->
<g id="edge34" class="edge"><title>Node16&#45;&gt;Node17</title>
<path fill="none" stroke="midnightblue" d="M623.33,-117.273C620.515,-116.823 617.725,-116.395 615,-116 481.848,-96.7106 324.956,-81.8172 239.121,-74.3325"/>
<polygon fill="midnightblue" stroke="midnightblue" points="239.276,-70.833 229.011,-73.4567 238.672,-77.8069 239.276,-70.833"/>
</g>
<!-- Node20 -->
<g id="node43" class="node"><title>Node20</title>
<polygon fill="white" stroke="#bfbfbf" points="652,-58.5 652,-79.5 698,-79.5 698,-58.5 652,-58.5"/>
<text text-anchor="middle" x="675" y="-66.5" font-family="Helvetica,sans-Serif" font-size="10.00">cstring</text>
</g>
<!-- Node16&#45;&gt;Node20 -->
<g id="edge44" class="edge"><title>Node16&#45;&gt;Node20</title>
<path fill="none" stroke="midnightblue" d="M675,-116.362C675,-108.922 675,-98.7427 675,-89.7276"/>
<polygon fill="midnightblue" stroke="midnightblue" points="678.5,-89.5706 675,-79.5707 671.5,-89.5707 678.5,-89.5706"/>
</g>
<!-- Node16&#45;&gt;Node21 -->
<g id="edge46" class="edge"><title>Node16&#45;&gt;Node21</title>
<path fill="none" stroke="midnightblue" d="M687.839,-116.362C698.002,-107.941 712.401,-96.0105 724.204,-86.2308"/>
<polygon fill="midnightblue" stroke="midnightblue" points="726.775,-88.6459 732.242,-79.5707 722.309,-83.2558 726.775,-88.6459"/>
</g>
<!-- Node17&#45;&gt;Node8 -->
<g id="edge40" class="edge"><title>Node17&#45;&gt;Node8</title>
<path fill="none" stroke="midnightblue" d="M161.794,-58.3619C151.239,-49.859 136.242,-37.7785 124.037,-27.9466"/>
<polygon fill="midnightblue" stroke="midnightblue" points="126.105,-25.1183 116.122,-21.5707 121.714,-30.5696 126.105,-25.1183"/>
</g>
<!-- Node17&#45;&gt;Node12 -->
<g id="edge38" class="edge"><title>Node17&#45;&gt;Node12</title>
<path fill="none" stroke="midnightblue" d="M188.389,-58.3619C199.091,-49.859 214.296,-37.7785 226.671,-27.9466"/>
<polygon fill="midnightblue" stroke="midnightblue" points="229.043,-30.5318 234.696,-21.5707 224.689,-25.0511 229.043,-30.5318"/>
</g>
<!-- Node18 -->
<g id="node37" class="node"><title>Node18</title>
<polygon fill="white" stroke="#bfbfbf" points="154.5,-0.5 154.5,-21.5 195.5,-21.5 195.5,-0.5 154.5,-0.5"/>
<text text-anchor="middle" x="175" y="-8.5" font-family="Helvetica,sans-Serif" font-size="10.00">string</text>
</g>
<!-- Node17&#45;&gt;Node18 -->
<g id="edge36" class="edge"><title>Node17&#45;&gt;Node18</title>
<path fill="none" stroke="midnightblue" d="M175,-58.3619C175,-50.9219 175,-40.7427 175,-31.7276"/>
<polygon fill="midnightblue" stroke="midnightblue" points="178.5,-31.5706 175,-21.5707 171.5,-31.5707 178.5,-31.5706"/>
</g>
<!-- Node19 -->
<g id="node41" class="node"><title>Node19</title>
<polygon fill="white" stroke="#bfbfbf" points="0,-0.5 0,-21.5 44,-21.5 44,-0.5 0,-0.5"/>
<text text-anchor="middle" x="22" y="-8.5" font-family="Helvetica,sans-Serif" font-size="10.00">vector</text>
</g>
<!-- Node17&#45;&gt;Node19 -->
<g id="edge42" class="edge"><title>Node17&#45;&gt;Node19</title>
<path fill="none" stroke="midnightblue" d="M147.293,-58.4966C120.91,-48.4952 81.2378,-33.4562 53.6278,-22.9896"/>
<polygon fill="midnightblue" stroke="midnightblue" points="54.6398,-19.6303 44.0484,-19.3582 52.1584,-26.1757 54.6398,-19.6303"/>
</g>
<!-- Node26&#45;&gt;Node1 -->
<g id="edge70" class="edge"><title>Node26&#45;&gt;Node1</title>
<path fill="none" stroke="midnightblue" d="M289.593,-232.362C277.042,-223.696 259.108,-211.313 244.725,-201.382"/>
<polygon fill="midnightblue" stroke="midnightblue" points="246.527,-198.372 236.309,-195.571 242.55,-204.133 246.527,-198.372"/>
</g>
<!-- Node26&#45;&gt;Node6 -->
<g id="edge68" class="edge"><title>Node26&#45;&gt;Node6</title>
<path fill="none" stroke="midnightblue" d="M305,-232.362C305,-224.922 305,-214.743 305,-205.728"/>
<polygon fill="midnightblue" stroke="midnightblue" points="308.5,-205.571 305,-195.571 301.5,-205.571 308.5,-205.571"/>
</g>
<!-- Node26&#45;&gt;Node19 -->
<g id="edge72" class="edge"><title>Node26&#45;&gt;Node19</title>
<path fill="none" stroke="midnightblue" d="M256.409,-232.467C181.475,-215.127 43.3663,-178.439 15,-138 -7.27785,-106.241 4.31716,-58.2619 13.7861,-31.2815"/>
<polygon fill="midnightblue" stroke="midnightblue" points="17.132,-32.3265 17.3603,-21.7342 10.5764,-29.8723 17.132,-32.3265"/>
</g>
</g>
</svg>
