<?xml version="1.0" encoding="UTF-8" standalone="no"?>
<!DOCTYPE svg PUBLIC "-//W3C//DTD SVG 1.1//EN"
 "http://www.w3.org/Graphics/SVG/1.1/DTD/svg11.dtd">
<!-- Generated by graphviz version 2.26.3 (20100126.1600)
 -->
<!-- Title: src/base/ClippedInterpolatorWrapper.cc Pages: 1 -->
<svg width="562pt" height="276pt"
 viewBox="0.00 0.00 562.00 276.00" xmlns="http://www.w3.org/2000/svg" xmlns:xlink="http://www.w3.org/1999/xlink">
<g id="graph1" class="graph" transform="scale(1 1) rotate(0) translate(4 272)">
<title>src/base/ClippedInterpolatorWrapper.cc</title>
<polygon fill="white" stroke="white" points="-4,5 -4,-272 559,-272 559,5 -4,5"/>
<!-- Node0 -->
<g id="node1" class="node"><title>Node0</title>
<polygon fill="#bfbfbf" stroke="black" points="237.5,-233 237.5,-267 376.5,-267 376.5,-233 237.5,-233"/>
<text text-anchor="start" x="245.5" y="-254" font-family="Helvetica,sans-Serif" font-size="10.00">src/base/ClippedInterpolator</text>
<text text-anchor="middle" x="307" y="-241" font-family="Helvetica,sans-Serif" font-size="10.00">Wrapper.cc</text>
</g>
<!-- Node1 -->
<g id="node3" class="node"><title>Node1</title>
<a xlink:href="_clipped_interpolator_wrapper_8h.html" target="_top" xlink:title="ClippedInterpolatorWrapper.h">
<polygon fill="white" stroke="black" points="19.5,-174.5 19.5,-195.5 162.5,-195.5 162.5,-174.5 19.5,-174.5"/>
<text text-anchor="middle" x="91" y="-182.5" font-family="Helvetica,sans-Serif" font-size="10.00">ClippedInterpolatorWrapper.h</text>
</a>
</g>
<!-- Node0&#45;&gt;Node1 -->
<g id="edge2" class="edge"><title>Node0&#45;&gt;Node1</title>
<path fill="none" stroke="midnightblue" d="M250.249,-232.922C214.567,-222.184 169.169,-208.523 135.981,-198.536"/>
<polygon fill="midnightblue" stroke="midnightblue" points="136.683,-195.092 126.098,-195.562 134.666,-201.795 136.683,-195.092"/>
</g>
<!-- Node14 -->
<g id="node32" class="node"><title>Node14</title>
<polygon fill="white" stroke="#bfbfbf" points="179.5,-174.5 179.5,-195.5 230.5,-195.5 230.5,-174.5 179.5,-174.5"/>
<text text-anchor="middle" x="205" y="-182.5" font-family="Helvetica,sans-Serif" font-size="10.00">TH2D.h</text>
</g>
<!-- Node0&#45;&gt;Node14 -->
<g id="edge34" class="edge"><title>Node0&#45;&gt;Node14</title>
<path fill="none" stroke="midnightblue" d="M280.201,-232.922C264.852,-223.141 245.697,-210.934 230.561,-201.289"/>
<polygon fill="midnightblue" stroke="midnightblue" points="232.04,-198.081 221.725,-195.658 228.278,-203.984 232.04,-198.081"/>
</g>
<!-- Node15 -->
<g id="node34" class="node"><title>Node15</title>
<a xlink:href="_array2_d_8h.html" target="_top" xlink:title="base/Array2D.h">
<polygon fill="white" stroke="black" points="345.5,-116.5 345.5,-137.5 430.5,-137.5 430.5,-116.5 345.5,-116.5"/>
<text text-anchor="middle" x="388" y="-124.5" font-family="Helvetica,sans-Serif" font-size="10.00">base/Array2D.h</text>
</a>
</g>
<!-- Node0&#45;&gt;Node15 -->
<g id="edge36" class="edge"><title>Node0&#45;&gt;Node15</title>
<path fill="none" stroke="midnightblue" d="M337.312,-232.885C350.9,-223.679 365.887,-211.102 375,-196 383.746,-181.506 386.829,-162.431 387.819,-148.012"/>
<polygon fill="midnightblue" stroke="midnightblue" points="391.332,-147.753 388.232,-137.622 384.337,-147.475 391.332,-147.753"/>
</g>
<!-- Node16 -->
<g id="node38" class="node"><title>Node16</title>
<a xlink:href="base_2std__ext_2math_8h.html" target="_top" xlink:title="base/std_ext/math.h">
<polygon fill="white" stroke="black" points="448,-116.5 448,-137.5 554,-137.5 554,-116.5 448,-116.5"/>
<text text-anchor="middle" x="501" y="-124.5" font-family="Helvetica,sans-Serif" font-size="10.00">base/std_ext/math.h</text>
</a>
</g>
<!-- Node0&#45;&gt;Node16 -->
<g id="edge42" class="edge"><title>Node0&#45;&gt;Node16</title>
<path fill="none" stroke="midnightblue" d="M334.533,-232.788C351.427,-222.208 373.489,-208.358 393,-196 421.454,-177.978 454.019,-157.143 475.885,-143.124"/>
<polygon fill="midnightblue" stroke="midnightblue" points="478.031,-145.906 484.558,-137.561 474.251,-140.014 478.031,-145.906"/>
</g>
<!-- Node17 -->
<g id="node43" class="node"><title>Node17</title>
<a xlink:href="memory_8h.html" target="_top" xlink:title="base/std_ext/memory.h">
<polygon fill="white" stroke="black" points="247.5,-174.5 247.5,-195.5 366.5,-195.5 366.5,-174.5 247.5,-174.5"/>
<text text-anchor="middle" x="307" y="-182.5" font-family="Helvetica,sans-Serif" font-size="10.00">base/std_ext/memory.h</text>
</a>
</g>
<!-- Node0&#45;&gt;Node17 -->
<g id="edge50" class="edge"><title>Node0&#45;&gt;Node17</title>
<path fill="none" stroke="midnightblue" d="M307,-232.922C307,-224.67 307,-214.692 307,-205.982"/>
<polygon fill="midnightblue" stroke="midnightblue" points="310.5,-205.852 307,-195.852 303.5,-205.852 310.5,-205.852"/>
</g>
<!-- Node2 -->
<g id="node5" class="node"><title>Node2</title>
<polygon fill="white" stroke="#bfbfbf" points="366,-58.5 366,-79.5 410,-79.5 410,-58.5 366,-58.5"/>
<text text-anchor="middle" x="388" y="-66.5" font-family="Helvetica,sans-Serif" font-size="10.00">vector</text>
</g>
<!-- Node1&#45;&gt;Node2 -->
<g id="edge4" class="edge"><title>Node1&#45;&gt;Node2</title>
<path fill="none" stroke="midnightblue" d="M138.481,-174.452C171.342,-166.379 215.699,-153.928 253,-138 270.947,-130.336 273.763,-125.15 291,-116 312.634,-104.516 337.502,-92.4894 356.642,-83.4765"/>
<polygon fill="midnightblue" stroke="midnightblue" points="358.238,-86.5942 365.81,-79.1836 355.269,-80.2548 358.238,-86.5942"/>
</g>
<!-- Node3 -->
<g id="node7" class="node"><title>Node3</title>
<polygon fill="white" stroke="#bfbfbf" points="92,-58.5 92,-79.5 144,-79.5 144,-58.5 92,-58.5"/>
<text text-anchor="middle" x="118" y="-66.5" font-family="Helvetica,sans-Serif" font-size="10.00">memory</text>
</g>
<!-- Node1&#45;&gt;Node3 -->
<g id="edge6" class="edge"><title>Node1&#45;&gt;Node3</title>
<path fill="none" stroke="midnightblue" d="M92.6847,-174.17C94.8895,-160.52 99.0597,-136.376 104,-116 106.12,-107.255 108.876,-97.7201 111.381,-89.5379"/>
<polygon fill="midnightblue" stroke="midnightblue" points="114.801,-90.3302 114.455,-79.741 108.122,-88.2343 114.801,-90.3302"/>
</g>
<!-- Node4 -->
<g id="node9" class="node"><title>Node4</title>
<a xlink:href="_interpolator_8h.html" target="_top" xlink:title="base/Interpolator.h">
<polygon fill="white" stroke="black" points="146,-116.5 146,-137.5 244,-137.5 244,-116.5 146,-116.5"/>
<text text-anchor="middle" x="195" y="-124.5" font-family="Helvetica,sans-Serif" font-size="10.00">base/Interpolator.h</text>
</a>
</g>
<!-- Node1&#45;&gt;Node4 -->
<g id="edge8" class="edge"><title>Node1&#45;&gt;Node4</title>
<path fill="none" stroke="midnightblue" d="M110.075,-174.362C126.055,-165.45 149.081,-152.609 167.127,-142.545"/>
<polygon fill="midnightblue" stroke="midnightblue" points="169.017,-145.498 176.046,-137.571 165.607,-139.385 169.017,-145.498"/>
</g>
<!-- Node13 -->
<g id="node30" class="node"><title>Node13</title>
<polygon fill="white" stroke="#bfbfbf" points="0,-116.5 0,-137.5 52,-137.5 52,-116.5 0,-116.5"/>
<text text-anchor="middle" x="26" y="-124.5" font-family="Helvetica,sans-Serif" font-size="10.00">ostream</text>
</g>
<!-- Node1&#45;&gt;Node13 -->
<g id="edge32" class="edge"><title>Node1&#45;&gt;Node13</title>
<path fill="none" stroke="midnightblue" d="M79.078,-174.362C69.6405,-165.941 56.2704,-154.011 45.3104,-144.231"/>
<polygon fill="midnightblue" stroke="midnightblue" points="47.6381,-141.617 37.8464,-137.571 42.9776,-146.84 47.6381,-141.617"/>
</g>
<!-- Node4&#45;&gt;Node2 -->
<g id="edge10" class="edge"><title>Node4&#45;&gt;Node2</title>
<path fill="none" stroke="midnightblue" d="M233.818,-116.427C264.634,-107.88 309.01,-95.2326 355.965,-80.2232"/>
<polygon fill="midnightblue" stroke="midnightblue" points="357.256,-83.4844 365.702,-77.088 355.111,-76.8213 357.256,-83.4844"/>
</g>
<!-- Node4&#45;&gt;Node3 -->
<g id="edge14" class="edge"><title>Node4&#45;&gt;Node3</title>
<path fill="none" stroke="midnightblue" d="M180.877,-116.362C169.48,-107.777 153.242,-95.5459 140.122,-85.6636"/>
<polygon fill="midnightblue" stroke="midnightblue" points="142.127,-82.7916 132.033,-79.5707 137.915,-88.3829 142.127,-82.7916"/>
</g>
<!-- Node5 -->
<g id="node12" class="node"><title>Node5</title>
<polygon fill="white" stroke="#bfbfbf" points="99.5,-0.5 99.5,-21.5 158.5,-21.5 158.5,-0.5 99.5,-0.5"/>
<text text-anchor="middle" x="129" y="-8.5" font-family="Helvetica,sans-Serif" font-size="10.00">stdexcept</text>
</g>
<!-- Node4&#45;&gt;Node5 -->
<g id="edge12" class="edge"><title>Node4&#45;&gt;Node5</title>
<path fill="none" stroke="midnightblue" d="M188.909,-116.295C177.809,-96.7861 154.142,-55.1884 140.105,-30.5177"/>
<polygon fill="midnightblue" stroke="midnightblue" points="143.063,-28.64 135.076,-21.6792 136.979,-32.1017 143.063,-28.64"/>
</g>
<!-- Node6 -->
<g id="node15" class="node"><title>Node6</title>
<a xlink:href="interval_8h.html" target="_top" xlink:title="base/interval.h">
<polygon fill="white" stroke="black" points="268,-58.5 268,-79.5 348,-79.5 348,-58.5 268,-58.5"/>
<text text-anchor="middle" x="308" y="-66.5" font-family="Helvetica,sans-Serif" font-size="10.00">base/interval.h</text>
</a>
</g>
<!-- Node4&#45;&gt;Node6 -->
<g id="edge16" class="edge"><title>Node4&#45;&gt;Node6</title>
<path fill="none" stroke="midnightblue" d="M215.463,-116.497C233.033,-107.479 258.582,-94.3649 278.385,-84.2006"/>
<polygon fill="midnightblue" stroke="midnightblue" points="280.009,-87.3014 287.307,-79.6212 276.812,-81.0738 280.009,-87.3014"/>
</g>
<!-- Node6&#45;&gt;Node5 -->
<g id="edge22" class="edge"><title>Node6&#45;&gt;Node5</title>
<path fill="none" stroke="midnightblue" d="M275.584,-58.4966C245.363,-48.7043 200.239,-34.0829 168.047,-23.6521"/>
<polygon fill="midnightblue" stroke="midnightblue" points="169.095,-20.3124 158.503,-20.5595 166.937,-26.9716 169.095,-20.3124"/>
</g>
<!-- Node7 -->
<g id="node17" class="node"><title>Node7</title>
<a xlink:href="types_8h.html" target="_top" xlink:title="types.h">
<polygon fill="white" stroke="black" points="175.5,-0.5 175.5,-21.5 224.5,-21.5 224.5,-0.5 175.5,-0.5"/>
<text text-anchor="middle" x="200" y="-8.5" font-family="Helvetica,sans-Serif" font-size="10.00">types.h</text>
</a>
</g>
<!-- Node6&#45;&gt;Node7 -->
<g id="edge18" class="edge"><title>Node6&#45;&gt;Node7</title>
<path fill="none" stroke="midnightblue" d="M288.442,-58.4966C271.802,-49.5602 247.673,-36.602 228.82,-26.4772"/>
<polygon fill="midnightblue" stroke="midnightblue" points="230.243,-23.2691 219.777,-21.6212 226.931,-29.436 230.243,-23.2691"/>
</g>
<!-- Node8 -->
<g id="node19" class="node"><title>Node8</title>
<polygon fill="white" stroke="#bfbfbf" points="242,-0.5 242,-21.5 298,-21.5 298,-0.5 242,-0.5"/>
<text text-anchor="middle" x="270" y="-8.5" font-family="Helvetica,sans-Serif" font-size="10.00">algorithm</text>
</g>
<!-- Node6&#45;&gt;Node8 -->
<g id="edge20" class="edge"><title>Node6&#45;&gt;Node8</title>
<path fill="none" stroke="midnightblue" d="M301.03,-58.3619C295.834,-50.4313 288.599,-39.3885 282.422,-29.9606"/>
<polygon fill="midnightblue" stroke="midnightblue" points="285.334,-28.0172 276.926,-21.5707 279.478,-31.8534 285.334,-28.0172"/>
</g>
<!-- Node9 -->
<g id="node22" class="node"><title>Node9</title>
<polygon fill="white" stroke="#bfbfbf" points="452,-0.5 452,-21.5 492,-21.5 492,-0.5 452,-0.5"/>
<text text-anchor="middle" x="472" y="-8.5" font-family="Helvetica,sans-Serif" font-size="10.00">limits</text>
</g>
<!-- Node6&#45;&gt;Node9 -->
<g id="edge24" class="edge"><title>Node6&#45;&gt;Node9</title>
<path fill="none" stroke="midnightblue" d="M339.186,-58.4149C364.622,-49.7211 401.702,-36.9122 442.218,-22.2286"/>
<polygon fill="midnightblue" stroke="midnightblue" points="443.543,-25.4711 451.745,-18.7642 441.151,-18.8925 443.543,-25.4711"/>
</g>
<!-- Node10 -->
<g id="node24" class="node"><title>Node10</title>
<polygon fill="white" stroke="#bfbfbf" points="315.5,-0.5 315.5,-21.5 364.5,-21.5 364.5,-0.5 315.5,-0.5"/>
<text text-anchor="middle" x="340" y="-8.5" font-family="Helvetica,sans-Serif" font-size="10.00">istream</text>
</g>
<!-- Node6&#45;&gt;Node10 -->
<g id="edge26" class="edge"><title>Node6&#45;&gt;Node10</title>
<path fill="none" stroke="midnightblue" d="M313.869,-58.3619C318.155,-50.5949 324.087,-39.8426 329.216,-30.5458"/>
<polygon fill="midnightblue" stroke="midnightblue" points="332.402,-32.0172 334.168,-21.5707 326.273,-28.6357 332.402,-32.0172"/>
</g>
<!-- Node11 -->
<g id="node26" class="node"><title>Node11</title>
<polygon fill="white" stroke="#bfbfbf" points="382,-0.5 382,-21.5 434,-21.5 434,-0.5 382,-0.5"/>
<text text-anchor="middle" x="408" y="-8.5" font-family="Helvetica,sans-Serif" font-size="10.00">sstream</text>
</g>
<!-- Node6&#45;&gt;Node11 -->
<g id="edge28" class="edge"><title>Node6&#45;&gt;Node11</title>
<path fill="none" stroke="midnightblue" d="M326.342,-58.3619C341.566,-49.532 363.441,-36.844 380.72,-26.8224"/>
<polygon fill="midnightblue" stroke="midnightblue" points="382.88,-29.6155 389.775,-21.5707 379.368,-23.5603 382.88,-29.6155"/>
</g>
<!-- Node12 -->
<g id="node28" class="node"><title>Node12</title>
<polygon fill="white" stroke="#bfbfbf" points="510,-0.5 510,-21.5 554,-21.5 554,-0.5 510,-0.5"/>
<text text-anchor="middle" x="532" y="-8.5" font-family="Helvetica,sans-Serif" font-size="10.00">cmath</text>
</g>
<!-- Node6&#45;&gt;Node12 -->
<g id="edge30" class="edge"><title>Node6&#45;&gt;Node12</title>
<path fill="none" stroke="midnightblue" d="M348.357,-59.6842C392.299,-49.4584 460.659,-33.2894 500.124,-22.0278"/>
<polygon fill="midnightblue" stroke="midnightblue" points="501.129,-25.3805 509.739,-19.2055 499.158,-18.6639 501.129,-25.3805"/>
</g>
<!-- Node15&#45;&gt;Node2 -->
<g id="edge38" class="edge"><title>Node15&#45;&gt;Node2</title>
<path fill="none" stroke="midnightblue" d="M388,-116.362C388,-108.922 388,-98.7427 388,-89.7276"/>
<polygon fill="midnightblue" stroke="midnightblue" points="391.5,-89.5706 388,-79.5707 384.5,-89.5707 391.5,-89.5706"/>
</g>
<!-- Node15&#45;&gt;Node6 -->
<g id="edge40" class="edge"><title>Node15&#45;&gt;Node6</title>
<path fill="none" stroke="midnightblue" d="M373.327,-116.362C361.486,-107.777 344.615,-95.5459 330.984,-85.6636"/>
<polygon fill="midnightblue" stroke="midnightblue" points="332.731,-82.6067 322.58,-79.5707 328.622,-88.274 332.731,-82.6067"/>
</g>
<!-- Node16&#45;&gt;Node2 -->
<g id="edge48" class="edge"><title>Node16&#45;&gt;Node2</title>
<path fill="none" stroke="midnightblue" d="M480.537,-116.497C462.967,-107.479 437.418,-94.3649 417.615,-84.2006"/>
<polygon fill="midnightblue" stroke="midnightblue" points="419.188,-81.0738 408.693,-79.6212 415.991,-87.3014 419.188,-81.0738"/>
</g>
<!-- Node16&#45;&gt;Node9 -->
<g id="edge46" class="edge"><title>Node16&#45;&gt;Node9</title>
<path fill="none" stroke="midnightblue" d="M498.324,-116.295C493.511,-97.0451 483.322,-56.2889 477.127,-31.5091"/>
<polygon fill="midnightblue" stroke="midnightblue" points="480.491,-30.5317 474.67,-21.6792 473.7,-32.2295 480.491,-30.5317"/>
</g>
<!-- Node16&#45;&gt;Node12 -->
<g id="edge44" class="edge"><title>Node16&#45;&gt;Node12</title>
<path fill="none" stroke="midnightblue" d="M503.861,-116.295C509.005,-97.0451 519.897,-56.2889 526.519,-31.5091"/>
<polygon fill="midnightblue" stroke="midnightblue" points="529.946,-32.2438 529.146,-21.6792 523.183,-30.4365 529.946,-32.2438"/>
</g>
<!-- Node17&#45;&gt;Node3 -->
<g id="edge52" class="edge"><title>Node17&#45;&gt;Node3</title>
<path fill="none" stroke="midnightblue" d="M247.243,-174.926C204.783,-166.609 152.636,-153.652 137,-138 124.352,-125.338 119.921,-105.081 118.466,-89.784"/>
<polygon fill="midnightblue" stroke="midnightblue" points="121.953,-89.4721 117.857,-79.7014 114.966,-89.8944 121.953,-89.4721"/>
</g>
<!-- Node18 -->
<g id="node46" class="node"><title>Node18</title>
<polygon fill="white" stroke="#bfbfbf" points="299.5,-116.5 299.5,-137.5 328.5,-137.5 328.5,-116.5 299.5,-116.5"/>
<text text-anchor="middle" x="314" y="-124.5" font-family="Helvetica,sans-Serif" font-size="10.00">list</text>
</g>
<!-- Node17&#45;&gt;Node18 -->
<g id="edge54" class="edge"><title>Node17&#45;&gt;Node18</title>
<path fill="none" stroke="midnightblue" d="M308.284,-174.362C309.182,-166.922 310.41,-156.743 311.498,-147.728"/>
<polygon fill="midnightblue" stroke="midnightblue" points="315.001,-147.918 312.724,-137.571 308.051,-147.079 315.001,-147.918"/>
</g>
</g>
</svg>
