<?xml version="1.0" encoding="UTF-8" standalone="no"?>
<!DOCTYPE svg PUBLIC "-//W3C//DTD SVG 1.1//EN"
 "http://www.w3.org/Graphics/SVG/1.1/DTD/svg11.dtd">
<!-- Generated by graphviz version 2.26.3 (20100126.1600)
 -->
<!-- Title: src/base/ClippedInterpolatorWrapper.h Pages: 1 -->
<svg width="2258pt" height="272pt"
 viewBox="0.00 0.00 2258.00 272.00" xmlns="http://www.w3.org/2000/svg" xmlns:xlink="http://www.w3.org/1999/xlink">
<g id="graph1" class="graph" transform="scale(1 1) rotate(0) translate(4 268)">
<title>src/base/ClippedInterpolatorWrapper.h</title>
<polygon fill="white" stroke="white" points="-4,5 -4,-268 2255,-268 2255,5 -4,5"/>
<!-- Node13 -->
<g id="node1" class="node"><title>Node13</title>
<polygon fill="#bfbfbf" stroke="black" points="1738.5,-229 1738.5,-263 1877.5,-263 1877.5,-229 1738.5,-229"/>
<text text-anchor="start" x="1746.5" y="-250" font-family="Helvetica,sans-Serif" font-size="10.00">src/base/ClippedInterpolator</text>
<text text-anchor="middle" x="1808" y="-237" font-family="Helvetica,sans-Serif" font-size="10.00">Wrapper.h</text>
</g>
<!-- Node14 -->
<g id="node3" class="node"><title>Node14</title>
<a xlink:href="_interpolated_8h.html" target="_top" xlink:title="src/analysis/utils\l/uncertainties/Interpolated.h">
<polygon fill="white" stroke="black" points="1109.5,-157 1109.5,-191 1246.5,-191 1246.5,-157 1109.5,-157"/>
<text text-anchor="start" x="1117.5" y="-178" font-family="Helvetica,sans-Serif" font-size="10.00">src/analysis/utils</text>
<text text-anchor="middle" x="1178" y="-165" font-family="Helvetica,sans-Serif" font-size="10.00">/uncertainties/Interpolated.h</text>
</a>
</g>
<!-- Node13&#45;&gt;Node14 -->
<g id="edge2" class="edge"><title>Node13&#45;&gt;Node14</title>
<path fill="none" stroke="midnightblue" d="M1728.23,-236.884C1603.49,-222.628 1364.39,-195.302 1246.78,-181.861"/>
<polygon fill="midnightblue" stroke="midnightblue" points="1728.14,-240.396 1738.47,-238.054 1728.94,-233.441 1728.14,-240.396"/>
</g>
<!-- Node29 -->
<g id="node33" class="node"><title>Node29</title>
<a xlink:href="_interpolated_8cc.html" target="_top" xlink:title="src/analysis/utils\l/uncertainties/Interpolated.cc">
<polygon fill="white" stroke="black" points="2107.5,-79 2107.5,-113 2250.5,-113 2250.5,-79 2107.5,-79"/>
<text text-anchor="start" x="2115.5" y="-100" font-family="Helvetica,sans-Serif" font-size="10.00">src/analysis/utils</text>
<text text-anchor="middle" x="2179" y="-87" font-family="Helvetica,sans-Serif" font-size="10.00">/uncertainties/Interpolated.cc</text>
</a>
</g>
<!-- Node13&#45;&gt;Node29 -->
<g id="edge36" class="edge"><title>Node13&#45;&gt;Node29</title>
<path fill="none" stroke="midnightblue" d="M1787.78,-220.467C1774.76,-200.756 1762.99,-173.912 1779,-156 1826.69,-102.646 2028.89,-134.339 2099,-120 2108.09,-118.14 2117.64,-115.711 2126.84,-113.112"/>
<polygon fill="midnightblue" stroke="midnightblue" points="1784.95,-222.523 1793.56,-228.696 1790.68,-218.501 1784.95,-222.523"/>
</g>
<!-- Node31 -->
<g id="node38" class="node"><title>Node31</title>
<a xlink:href="_clipped_interpolator_wrapper_8cc.html" target="_top" xlink:title="src/base/ClippedInterpolator\lWrapper.cc">
<polygon fill="white" stroke="black" points="1787.5,-157 1787.5,-191 1926.5,-191 1926.5,-157 1787.5,-157"/>
<text text-anchor="start" x="1795.5" y="-178" font-family="Helvetica,sans-Serif" font-size="10.00">src/base/ClippedInterpolator</text>
<text text-anchor="middle" x="1857" y="-165" font-family="Helvetica,sans-Serif" font-size="10.00">Wrapper.cc</text>
</a>
</g>
<!-- Node13&#45;&gt;Node31 -->
<g id="edge38" class="edge"><title>Node13&#45;&gt;Node31</title>
<path fill="none" stroke="midnightblue" d="M1825.36,-220.498C1831.9,-210.877 1839.2,-200.159 1845.13,-191.441"/>
<polygon fill="midnightblue" stroke="midnightblue" points="1822.35,-218.701 1819.61,-228.937 1828.13,-222.639 1822.35,-218.701"/>
</g>
<!-- Node32 -->
<g id="node40" class="node"><title>Node32</title>
<a xlink:href="_cluster_correction_8cc.html" target="_top" xlink:title="src/calibration/modules\l/ClusterCorrection.cc">
<polygon fill="white" stroke="black" points="1943.5,-157 1943.5,-191 2060.5,-191 2060.5,-157 1943.5,-157"/>
<text text-anchor="start" x="1951.5" y="-178" font-family="Helvetica,sans-Serif" font-size="10.00">src/calibration/modules</text>
<text text-anchor="middle" x="2002" y="-165" font-family="Helvetica,sans-Serif" font-size="10.00">/ClusterCorrection.cc</text>
</a>
</g>
<!-- Node13&#45;&gt;Node32 -->
<g id="edge40" class="edge"><title>Node13&#45;&gt;Node32</title>
<path fill="none" stroke="midnightblue" d="M1863.64,-225.35C1892.9,-214.491 1928.33,-201.34 1956.02,-191.065"/>
<polygon fill="midnightblue" stroke="midnightblue" points="1862.13,-222.176 1853.98,-228.937 1864.57,-228.739 1862.13,-222.176"/>
</g>
<!-- Node15 -->
<g id="node5" class="node"><title>Node15</title>
<a xlink:href="_p_i_d___t_a_p_s_veto___kinfit_8cc.html" target="_top" xlink:title="src/analysis/physics\l/calibration/PID_TAPSVeto\l_Kinfit.cc">
<polygon fill="white" stroke="black" points="0,-72.5 0,-119.5 136,-119.5 136,-72.5 0,-72.5"/>
<text text-anchor="start" x="8" y="-106.5" font-family="Helvetica,sans-Serif" font-size="10.00">src/analysis/physics</text>
<text text-anchor="start" x="8" y="-93.5" font-family="Helvetica,sans-Serif" font-size="10.00">/calibration/PID_TAPSVeto</text>
<text text-anchor="middle" x="68" y="-80.5" font-family="Helvetica,sans-Serif" font-size="10.00">_Kinfit.cc</text>
</a>
</g>
<!-- Node14&#45;&gt;Node15 -->
<g id="edge4" class="edge"><title>Node14&#45;&gt;Node15</title>
<path fill="none" stroke="midnightblue" d="M1099.08,-172.423C890.469,-167.849 327.965,-152.763 145,-120 142.106,-119.482 139.168,-118.887 136.213,-118.232"/>
<polygon fill="midnightblue" stroke="midnightblue" points="1099.26,-175.928 1109.34,-172.646 1099.41,-168.93 1099.26,-175.928"/>
</g>
<!-- Node16 -->
<g id="node7" class="node"><title>Node16</title>
<a xlink:href="_kin_fit_i_m_check_8cc.html" target="_top" xlink:title="src/analysis/physics\l/check/KinFitIMCheck.cc">
<polygon fill="white" stroke="black" points="154,-79 154,-113 282,-113 282,-79 154,-79"/>
<text text-anchor="start" x="162" y="-100" font-family="Helvetica,sans-Serif" font-size="10.00">src/analysis/physics</text>
<text text-anchor="middle" x="218" y="-87" font-family="Helvetica,sans-Serif" font-size="10.00">/check/KinFitIMCheck.cc</text>
</a>
</g>
<!-- Node14&#45;&gt;Node16 -->
<g id="edge6" class="edge"><title>Node14&#45;&gt;Node16</title>
<path fill="none" stroke="midnightblue" d="M1099.16,-171.793C911.929,-166.133 444.716,-149.438 291,-120 282.09,-118.294 272.763,-115.8 263.869,-113.059"/>
<polygon fill="midnightblue" stroke="midnightblue" points="1099.11,-175.293 1109.21,-172.094 1099.32,-168.296 1099.11,-175.293"/>
</g>
<!-- Node17 -->
<g id="node9" class="node"><title>Node17</title>
<a xlink:href="_p_i_d_efficiency_check_8cc.html" target="_top" xlink:title="src/analysis/physics\l/check/PIDEfficiencyCheck.cc">
<polygon fill="white" stroke="black" points="300,-79 300,-113 452,-113 452,-79 300,-79"/>
<text text-anchor="start" x="308" y="-100" font-family="Helvetica,sans-Serif" font-size="10.00">src/analysis/physics</text>
<text text-anchor="middle" x="376" y="-87" font-family="Helvetica,sans-Serif" font-size="10.00">/check/PIDEfficiencyCheck.cc</text>
</a>
</g>
<!-- Node14&#45;&gt;Node17 -->
<g id="edge8" class="edge"><title>Node14&#45;&gt;Node17</title>
<path fill="none" stroke="midnightblue" d="M1099.23,-170.061C939.349,-161.739 581.731,-141.369 461,-120 450.884,-118.209 440.24,-115.712 430.039,-113.001"/>
<polygon fill="midnightblue" stroke="midnightblue" points="1099.3,-173.569 1109.47,-170.592 1099.66,-166.579 1099.3,-173.569"/>
</g>
<!-- Node18 -->
<g id="node11" class="node"><title>Node18</title>
<a xlink:href="_three_photon_check_8cc.html" target="_top" xlink:title="src/analysis/physics\l/check/ThreePhotonCheck.cc">
<polygon fill="white" stroke="black" points="470,-79 470,-113 616,-113 616,-79 470,-79"/>
<text text-anchor="start" x="478" y="-100" font-family="Helvetica,sans-Serif" font-size="10.00">src/analysis/physics</text>
<text text-anchor="middle" x="543" y="-87" font-family="Helvetica,sans-Serif" font-size="10.00">/check/ThreePhotonCheck.cc</text>
</a>
</g>
<!-- Node14&#45;&gt;Node18 -->
<g id="edge10" class="edge"><title>Node14&#45;&gt;Node18</title>
<path fill="none" stroke="midnightblue" d="M1099.15,-170.948C991.265,-165.719 791.983,-152.294 625,-120 615.534,-118.169 605.588,-115.721 596.017,-113.087"/>
<polygon fill="midnightblue" stroke="midnightblue" points="1099.15,-174.451 1109.3,-171.428 1099.48,-167.459 1099.15,-174.451"/>
</g>
<!-- Node19 -->
<g id="node13" class="node"><title>Node19</title>
<a xlink:href="_etap_omega_g_8cc.html" target="_top" xlink:title="src/analysis/physics\l/etaprime/EtapOmegaG.cc">
<polygon fill="white" stroke="black" points="633.5,-79 633.5,-113 766.5,-113 766.5,-79 633.5,-79"/>
<text text-anchor="start" x="641.5" y="-100" font-family="Helvetica,sans-Serif" font-size="10.00">src/analysis/physics</text>
<text text-anchor="middle" x="700" y="-87" font-family="Helvetica,sans-Serif" font-size="10.00">/etaprime/EtapOmegaG.cc</text>
</a>
</g>
<!-- Node14&#45;&gt;Node19 -->
<g id="edge12" class="edge"><title>Node14&#45;&gt;Node19</title>
<path fill="none" stroke="midnightblue" d="M1099.28,-167.596C1017.52,-159.981 886.229,-145.043 775,-120 766.464,-118.078 757.509,-115.617 748.877,-113.007"/>
<polygon fill="midnightblue" stroke="midnightblue" points="1098.97,-171.082 1109.25,-168.511 1099.61,-164.111 1098.97,-171.082"/>
</g>
<!-- Node20 -->
<g id="node15" class="node"><title>Node20</title>
<a xlink:href="_omega___eta_g_8cc.html" target="_top" xlink:title="src/analysis/physics\l/omega/Omega_EtaG.cc">
<polygon fill="white" stroke="black" points="783.5,-79 783.5,-113 908.5,-113 908.5,-79 783.5,-79"/>
<text text-anchor="start" x="791.5" y="-100" font-family="Helvetica,sans-Serif" font-size="10.00">src/analysis/physics</text>
<text text-anchor="middle" x="846" y="-87" font-family="Helvetica,sans-Serif" font-size="10.00">/omega/Omega_EtaG.cc</text>
</a>
</g>
<!-- Node14&#45;&gt;Node20 -->
<g id="edge14" class="edge"><title>Node14&#45;&gt;Node20</title>
<path fill="none" stroke="midnightblue" d="M1099.47,-160.339C1047.34,-150.64 977.622,-136.451 917,-120 909.466,-117.955 901.563,-115.551 893.878,-113.067"/>
<polygon fill="midnightblue" stroke="midnightblue" points="1098.85,-163.784 1109.32,-162.158 1100.12,-156.9 1098.85,-163.784"/>
</g>
<!-- Node21 -->
<g id="node17" class="node"><title>Node21</title>
<a xlink:href="_just_pi0_8cc.html" target="_top" xlink:title="src/analysis/physics\l/pi0/JustPi0.cc">
<polygon fill="white" stroke="black" points="926,-79 926,-113 1032,-113 1032,-79 926,-79"/>
<text text-anchor="start" x="934" y="-100" font-family="Helvetica,sans-Serif" font-size="10.00">src/analysis/physics</text>
<text text-anchor="middle" x="979" y="-87" font-family="Helvetica,sans-Serif" font-size="10.00">/pi0/JustPi0.cc</text>
</a>
</g>
<!-- Node14&#45;&gt;Node21 -->
<g id="edge16" class="edge"><title>Node14&#45;&gt;Node21</title>
<path fill="none" stroke="midnightblue" d="M1124.69,-153.106C1092.74,-140.581 1052.62,-124.854 1022.57,-113.078"/>
<polygon fill="midnightblue" stroke="midnightblue" points="1123.74,-156.492 1134.33,-156.883 1126.3,-149.975 1123.74,-156.492"/>
</g>
<!-- Node22 -->
<g id="node19" class="node"><title>Node22</title>
<a xlink:href="single_pi0_8cc.html" target="_top" xlink:title="src/analysis/physics\l/production/singlePi0.cc">
<polygon fill="white" stroke="black" points="1049.5,-79 1049.5,-113 1170.5,-113 1170.5,-79 1049.5,-79"/>
<text text-anchor="start" x="1057.5" y="-100" font-family="Helvetica,sans-Serif" font-size="10.00">src/analysis/physics</text>
<text text-anchor="middle" x="1110" y="-87" font-family="Helvetica,sans-Serif" font-size="10.00">/production/singlePi0.cc</text>
</a>
</g>
<!-- Node14&#45;&gt;Node22 -->
<g id="edge18" class="edge"><title>Node14&#45;&gt;Node22</title>
<path fill="none" stroke="midnightblue" d="M1156.2,-148.988C1146.03,-137.333 1134.2,-123.755 1125.05,-113.262"/>
<polygon fill="midnightblue" stroke="midnightblue" points="1153.7,-151.452 1162.91,-156.689 1158.98,-146.852 1153.7,-151.452"/>
</g>
<!-- Node23 -->
<g id="node21" class="node"><title>Node23</title>
<a xlink:href="triple_pi0_8cc.html" target="_top" xlink:title="src/analysis/physics\l/production/triplePi0.cc">
<polygon fill="white" stroke="black" points="1188,-79 1188,-113 1304,-113 1304,-79 1188,-79"/>
<text text-anchor="start" x="1196" y="-100" font-family="Helvetica,sans-Serif" font-size="10.00">src/analysis/physics</text>
<text text-anchor="middle" x="1246" y="-87" font-family="Helvetica,sans-Serif" font-size="10.00">/production/triplePi0.cc</text>
</a>
</g>
<!-- Node14&#45;&gt;Node23 -->
<g id="edge20" class="edge"><title>Node14&#45;&gt;Node23</title>
<path fill="none" stroke="midnightblue" d="M1199.8,-148.988C1209.97,-137.333 1221.8,-123.755 1230.95,-113.262"/>
<polygon fill="midnightblue" stroke="midnightblue" points="1197.02,-146.852 1193.09,-156.689 1202.3,-151.452 1197.02,-146.852"/>
</g>
<!-- Node24 -->
<g id="node23" class="node"><title>Node24</title>
<a xlink:href="_proton_vertex_test_8cc.html" target="_top" xlink:title="src/analysis/physics\l/scratch/wolfes/ProtonVertex\lTest.cc">
<polygon fill="white" stroke="black" points="1321.5,-72.5 1321.5,-119.5 1464.5,-119.5 1464.5,-72.5 1321.5,-72.5"/>
<text text-anchor="start" x="1329.5" y="-106.5" font-family="Helvetica,sans-Serif" font-size="10.00">src/analysis/physics</text>
<text text-anchor="start" x="1329.5" y="-93.5" font-family="Helvetica,sans-Serif" font-size="10.00">/scratch/wolfes/ProtonVertex</text>
<text text-anchor="middle" x="1393" y="-80.5" font-family="Helvetica,sans-Serif" font-size="10.00">Test.cc</text>
</a>
</g>
<!-- Node14&#45;&gt;Node24 -->
<g id="edge22" class="edge"><title>Node14&#45;&gt;Node24</title>
<path fill="none" stroke="midnightblue" d="M1234.38,-153.547C1263.04,-143.148 1298.02,-130.457 1327.83,-119.642"/>
<polygon fill="midnightblue" stroke="midnightblue" points="1233.12,-150.278 1224.92,-156.979 1235.51,-156.859 1233.12,-150.278"/>
</g>
<!-- Node25 -->
<g id="node25" class="node"><title>Node25</title>
<a xlink:href="_test_sigma_plus_fitter_8cc.html" target="_top" xlink:title="src/analysis/physics\l/test/TestSigmaPlusFitter.cc">
<polygon fill="white" stroke="black" points="1482,-79 1482,-113 1624,-113 1624,-79 1482,-79"/>
<text text-anchor="start" x="1490" y="-100" font-family="Helvetica,sans-Serif" font-size="10.00">src/analysis/physics</text>
<text text-anchor="middle" x="1553" y="-87" font-family="Helvetica,sans-Serif" font-size="10.00">/test/TestSigmaPlusFitter.cc</text>
</a>
</g>
<!-- Node14&#45;&gt;Node25 -->
<g id="edge24" class="edge"><title>Node14&#45;&gt;Node25</title>
<path fill="none" stroke="midnightblue" d="M1256.82,-162.002C1316.52,-152.328 1400.39,-137.482 1473,-120 1481.46,-117.964 1490.35,-115.563 1499,-113.082"/>
<polygon fill="midnightblue" stroke="midnightblue" points="1256.02,-158.585 1246.7,-163.629 1257.13,-165.496 1256.02,-158.585"/>
</g>
<!-- Node26 -->
<g id="node27" class="node"><title>Node26</title>
<a xlink:href="analysis_2physics_2tunings_2_interpolated_pulls_8h.html" target="_top" xlink:title="src/analysis/physics\l/tunings/InterpolatedPulls.h">
<polygon fill="white" stroke="black" points="1641.5,-79 1641.5,-113 1776.5,-113 1776.5,-79 1641.5,-79"/>
<text text-anchor="start" x="1649.5" y="-100" font-family="Helvetica,sans-Serif" font-size="10.00">src/analysis/physics</text>
<text text-anchor="middle" x="1709" y="-87" font-family="Helvetica,sans-Serif" font-size="10.00">/tunings/InterpolatedPulls.h</text>
</a>
</g>
<!-- Node14&#45;&gt;Node26 -->
<g id="edge26" class="edge"><title>Node14&#45;&gt;Node26</title>
<path fill="none" stroke="midnightblue" d="M1256.88,-169.15C1348.2,-162.498 1502.76,-148.032 1633,-120 1641.66,-118.137 1650.74,-115.705 1659.48,-113.106"/>
<polygon fill="midnightblue" stroke="midnightblue" points="1256.6,-165.661 1246.88,-169.866 1257.1,-172.643 1256.6,-165.661"/>
</g>
<!-- Node28 -->
<g id="node31" class="node"><title>Node28</title>
<a xlink:href="physics_2tunings_2_trigger_simulation_8cc.html" target="_top" xlink:title="src/analysis/physics\l/tunings/TriggerSimulation.cc">
<polygon fill="white" stroke="black" points="1793.5,-79 1793.5,-113 1936.5,-113 1936.5,-79 1793.5,-79"/>
<text text-anchor="start" x="1801.5" y="-100" font-family="Helvetica,sans-Serif" font-size="10.00">src/analysis/physics</text>
<text text-anchor="middle" x="1865" y="-87" font-family="Helvetica,sans-Serif" font-size="10.00">/tunings/TriggerSimulation.cc</text>
</a>
</g>
<!-- Node14&#45;&gt;Node28 -->
<g id="edge30" class="edge"><title>Node14&#45;&gt;Node28</title>
<path fill="none" stroke="midnightblue" d="M1257.16,-172.066C1373.71,-168.07 1597.93,-155.996 1785,-120 1794.4,-118.192 1804.27,-115.721 1813.74,-113.049"/>
<polygon fill="midnightblue" stroke="midnightblue" points="1256.78,-168.577 1246.9,-172.407 1257.01,-175.573 1256.78,-168.577"/>
</g>
<!-- Node14&#45;&gt;Node29 -->
<g id="edge32" class="edge"><title>Node14&#45;&gt;Node29</title>
<path fill="none" stroke="midnightblue" d="M1256.72,-171.74C1448.92,-165.843 1938.14,-148.443 2099,-120 2108.71,-118.283 2118.91,-115.785 2128.64,-113.042"/>
<polygon fill="midnightblue" stroke="midnightblue" points="1256.58,-168.243 1246.69,-172.046 1256.79,-175.239 1256.58,-168.243"/>
</g>
<!-- Node30 -->
<g id="node35" class="node"><title>Node30</title>
<a xlink:href="root-addons_2analysis__codes_2_interpolated_pulls_8cc.html" target="_top" xlink:title="src/root&#45;addons/analysis\l_codes/InterpolatedPulls.cc">
<polygon fill="white" stroke="black" points="1953.5,-79 1953.5,-113 2090.5,-113 2090.5,-79 1953.5,-79"/>
<text text-anchor="start" x="1961.5" y="-100" font-family="Helvetica,sans-Serif" font-size="10.00">src/root&#45;addons/analysis</text>
<text text-anchor="middle" x="2022" y="-87" font-family="Helvetica,sans-Serif" font-size="10.00">_codes/InterpolatedPulls.cc</text>
</a>
</g>
<!-- Node14&#45;&gt;Node30 -->
<g id="edge34" class="edge"><title>Node14&#45;&gt;Node30</title>
<path fill="none" stroke="midnightblue" d="M1256.82,-170.771C1425.1,-163.499 1814.76,-144.538 1945,-120 1954.22,-118.263 1963.89,-115.791 1973.14,-113.089"/>
<polygon fill="midnightblue" stroke="midnightblue" points="1256.63,-167.276 1246.79,-171.202 1256.93,-174.269 1256.63,-167.276"/>
</g>
<!-- Node27 -->
<g id="node29" class="node"><title>Node27</title>
<a xlink:href="analysis_2physics_2tunings_2_interpolated_pulls_8cc.html" target="_top" xlink:title="src/analysis/physics\l/tunings/InterpolatedPulls.cc">
<polygon fill="white" stroke="black" points="1639,-1 1639,-35 1779,-35 1779,-1 1639,-1"/>
<text text-anchor="start" x="1647" y="-22" font-family="Helvetica,sans-Serif" font-size="10.00">src/analysis/physics</text>
<text text-anchor="middle" x="1709" y="-9" font-family="Helvetica,sans-Serif" font-size="10.00">/tunings/InterpolatedPulls.cc</text>
</a>
</g>
<!-- Node26&#45;&gt;Node27 -->
<g id="edge28" class="edge"><title>Node26&#45;&gt;Node27</title>
<path fill="none" stroke="midnightblue" d="M1709,-68.6102C1709,-57.5188 1709,-45.0489 1709,-35.2623"/>
<polygon fill="midnightblue" stroke="midnightblue" points="1705.5,-68.6892 1709,-78.6893 1712.5,-68.6893 1705.5,-68.6892"/>
</g>
</g>
</svg>
