<?xml version="1.0" encoding="UTF-8" standalone="no"?>
<!DOCTYPE svg PUBLIC "-//W3C//DTD SVG 1.1//EN"
 "http://www.w3.org/Graphics/SVG/1.1/DTD/svg11.dtd">
<!-- Generated by graphviz version 2.26.3 (20100126.1600)
 -->
<!-- Title: src/base/ClippedInterpolatorWrapper.h Pages: 1 -->
<svg width="539pt" height="218pt"
 viewBox="0.00 0.00 539.00 218.00" xmlns="http://www.w3.org/2000/svg" xmlns:xlink="http://www.w3.org/1999/xlink">
<g id="graph1" class="graph" transform="scale(1 1) rotate(0) translate(4 214)">
<title>src/base/ClippedInterpolatorWrapper.h</title>
<polygon fill="white" stroke="white" points="-4,5 -4,-214 536,-214 536,5 -4,5"/>
<!-- Node0 -->
<g id="node1" class="node"><title>Node0</title>
<polygon fill="#bfbfbf" stroke="black" points="31.5,-175 31.5,-209 170.5,-209 170.5,-175 31.5,-175"/>
<text text-anchor="start" x="39.5" y="-196" font-family="Helvetica,sans-Serif" font-size="10.00">src/base/ClippedInterpolator</text>
<text text-anchor="middle" x="101" y="-183" font-family="Helvetica,sans-Serif" font-size="10.00">Wrapper.h</text>
</g>
<!-- Node1 -->
<g id="node3" class="node"><title>Node1</title>
<polygon fill="white" stroke="#bfbfbf" points="0,-58.5 0,-79.5 44,-79.5 44,-58.5 0,-58.5"/>
<text text-anchor="middle" x="22" y="-66.5" font-family="Helvetica,sans-Serif" font-size="10.00">vector</text>
</g>
<!-- Node0&#45;&gt;Node1 -->
<g id="edge2" class="edge"><title>Node0&#45;&gt;Node1</title>
<path fill="none" stroke="midnightblue" d="M90.0154,-174.897C75.4184,-152.17 49.6968,-112.123 34.4129,-88.3263"/>
<polygon fill="midnightblue" stroke="midnightblue" points="37.2776,-86.31 28.9285,-79.7875 31.3878,-90.0929 37.2776,-86.31"/>
</g>
<!-- Node2 -->
<g id="node5" class="node"><title>Node2</title>
<polygon fill="white" stroke="#bfbfbf" points="62,-58.5 62,-79.5 114,-79.5 114,-58.5 62,-58.5"/>
<text text-anchor="middle" x="88" y="-66.5" font-family="Helvetica,sans-Serif" font-size="10.00">memory</text>
</g>
<!-- Node0&#45;&gt;Node2 -->
<g id="edge4" class="edge"><title>Node0&#45;&gt;Node2</title>
<path fill="none" stroke="midnightblue" d="M93.3034,-174.888C89.0408,-164.462 84.1751,-150.735 82,-138 79.2525,-121.914 81.1046,-103.49 83.4515,-89.7295"/>
<polygon fill="midnightblue" stroke="midnightblue" points="86.9042,-90.3086 85.3613,-79.8267 80.0309,-88.983 86.9042,-90.3086"/>
</g>
<!-- Node3 -->
<g id="node7" class="node"><title>Node3</title>
<a xlink:href="_interpolator_8h.html" target="_top" xlink:title="base/Interpolator.h">
<polygon fill="white" stroke="black" points="91,-116.5 91,-137.5 189,-137.5 189,-116.5 91,-116.5"/>
<text text-anchor="middle" x="140" y="-124.5" font-family="Helvetica,sans-Serif" font-size="10.00">base/Interpolator.h</text>
</a>
</g>
<!-- Node0&#45;&gt;Node3 -->
<g id="edge6" class="edge"><title>Node0&#45;&gt;Node3</title>
<path fill="none" stroke="midnightblue" d="M111.247,-174.922C116.473,-166.212 122.853,-155.578 128.275,-146.542"/>
<polygon fill="midnightblue" stroke="midnightblue" points="131.345,-148.228 133.489,-137.852 125.343,-144.626 131.345,-148.228"/>
</g>
<!-- Node12 -->
<g id="node28" class="node"><title>Node12</title>
<polygon fill="white" stroke="#bfbfbf" points="207,-116.5 207,-137.5 259,-137.5 259,-116.5 207,-116.5"/>
<text text-anchor="middle" x="233" y="-124.5" font-family="Helvetica,sans-Serif" font-size="10.00">ostream</text>
</g>
<!-- Node0&#45;&gt;Node12 -->
<g id="edge30" class="edge"><title>Node0&#45;&gt;Node12</title>
<path fill="none" stroke="midnightblue" d="M135.681,-174.922C156.294,-164.772 182.211,-152.01 202.116,-142.208"/>
<polygon fill="midnightblue" stroke="midnightblue" points="203.93,-145.216 211.355,-137.658 200.838,-138.936 203.93,-145.216"/>
</g>
<!-- Node3&#45;&gt;Node1 -->
<g id="edge8" class="edge"><title>Node3&#45;&gt;Node1</title>
<path fill="none" stroke="midnightblue" d="M118.631,-116.497C100.201,-107.438 73.3629,-94.2462 52.6449,-84.0628"/>
<polygon fill="midnightblue" stroke="midnightblue" points="54.1271,-80.8914 43.6087,-79.6212 51.0392,-87.1735 54.1271,-80.8914"/>
</g>
<!-- Node3&#45;&gt;Node2 -->
<g id="edge12" class="edge"><title>Node3&#45;&gt;Node2</title>
<path fill="none" stroke="midnightblue" d="M130.462,-116.362C123.132,-108.186 112.837,-96.7025 104.219,-87.0907"/>
<polygon fill="midnightblue" stroke="midnightblue" points="106.759,-84.68 97.4771,-79.5707 101.547,-89.3528 106.759,-84.68"/>
</g>
<!-- Node4 -->
<g id="node10" class="node"><title>Node4</title>
<polygon fill="white" stroke="#bfbfbf" points="76.5,-0.5 76.5,-21.5 135.5,-21.5 135.5,-0.5 76.5,-0.5"/>
<text text-anchor="middle" x="106" y="-8.5" font-family="Helvetica,sans-Serif" font-size="10.00">stdexcept</text>
</g>
<!-- Node3&#45;&gt;Node4 -->
<g id="edge10" class="edge"><title>Node3&#45;&gt;Node4</title>
<path fill="none" stroke="midnightblue" d="M137.698,-116.148C134.714,-102.475 129.156,-78.3079 123,-58 120.31,-49.1251 116.903,-39.4688 113.847,-31.2303"/>
<polygon fill="midnightblue" stroke="midnightblue" points="117.059,-29.8301 110.243,-21.7187 110.513,-32.3101 117.059,-29.8301"/>
</g>
<!-- Node5 -->
<g id="node13" class="node"><title>Node5</title>
<a xlink:href="interval_8h.html" target="_top" xlink:title="base/interval.h">
<polygon fill="white" stroke="black" points="238,-58.5 238,-79.5 318,-79.5 318,-58.5 238,-58.5"/>
<text text-anchor="middle" x="278" y="-66.5" font-family="Helvetica,sans-Serif" font-size="10.00">base/interval.h</text>
</a>
</g>
<!-- Node3&#45;&gt;Node5 -->
<g id="edge14" class="edge"><title>Node3&#45;&gt;Node5</title>
<path fill="none" stroke="midnightblue" d="M164.991,-116.497C186.933,-107.275 219.066,-93.7695 243.464,-83.5153"/>
<polygon fill="midnightblue" stroke="midnightblue" points="244.866,-86.7225 252.729,-79.6212 242.154,-80.2693 244.866,-86.7225"/>
</g>
<!-- Node5&#45;&gt;Node4 -->
<g id="edge20" class="edge"><title>Node5&#45;&gt;Node4</title>
<path fill="none" stroke="midnightblue" d="M246.852,-58.4966C218.375,-48.8938 176.125,-34.6469 145.33,-24.2623"/>
<polygon fill="midnightblue" stroke="midnightblue" points="146.359,-20.916 135.765,-21.0371 144.123,-27.549 146.359,-20.916"/>
</g>
<!-- Node6 -->
<g id="node15" class="node"><title>Node6</title>
<a xlink:href="types_8h.html" target="_top" xlink:title="types.h">
<polygon fill="white" stroke="black" points="350.5,-0.5 350.5,-21.5 399.5,-21.5 399.5,-0.5 350.5,-0.5"/>
<text text-anchor="middle" x="375" y="-8.5" font-family="Helvetica,sans-Serif" font-size="10.00">types.h</text>
</a>
</g>
<!-- Node5&#45;&gt;Node6 -->
<g id="edge16" class="edge"><title>Node5&#45;&gt;Node6</title>
<path fill="none" stroke="midnightblue" d="M295.791,-58.3619C310.559,-49.532 331.778,-36.844 348.538,-26.8224"/>
<polygon fill="midnightblue" stroke="midnightblue" points="350.535,-29.7066 357.321,-21.5707 346.943,-23.6987 350.535,-29.7066"/>
</g>
<!-- Node7 -->
<g id="node17" class="node"><title>Node7</title>
<polygon fill="white" stroke="#bfbfbf" points="417,-0.5 417,-21.5 473,-21.5 473,-0.5 417,-0.5"/>
<text text-anchor="middle" x="445" y="-8.5" font-family="Helvetica,sans-Serif" font-size="10.00">algorithm</text>
</g>
<!-- Node5&#45;&gt;Node7 -->
<g id="edge18" class="edge"><title>Node5&#45;&gt;Node7</title>
<path fill="none" stroke="midnightblue" d="M308.242,-58.4966C336.026,-48.8474 377.31,-34.5091 407.247,-24.112"/>
<polygon fill="midnightblue" stroke="midnightblue" points="408.63,-27.3367 416.928,-20.7495 406.333,-20.7241 408.63,-27.3367"/>
</g>
<!-- Node8 -->
<g id="node20" class="node"><title>Node8</title>
<polygon fill="white" stroke="#bfbfbf" points="491,-0.5 491,-21.5 531,-21.5 531,-0.5 491,-0.5"/>
<text text-anchor="middle" x="511" y="-8.5" font-family="Helvetica,sans-Serif" font-size="10.00">limits</text>
</g>
<!-- Node5&#45;&gt;Node8 -->
<g id="edge22" class="edge"><title>Node5&#45;&gt;Node8</title>
<path fill="none" stroke="midnightblue" d="M318.295,-61.4032C357.649,-53.6118 419.34,-40.4119 480.955,-22.0413"/>
<polygon fill="midnightblue" stroke="midnightblue" points="482.283,-25.2962 490.84,-19.0486 480.255,-18.5965 482.283,-25.2962"/>
</g>
<!-- Node9 -->
<g id="node22" class="node"><title>Node9</title>
<polygon fill="white" stroke="#bfbfbf" points="152.5,-0.5 152.5,-21.5 201.5,-21.5 201.5,-0.5 152.5,-0.5"/>
<text text-anchor="middle" x="177" y="-8.5" font-family="Helvetica,sans-Serif" font-size="10.00">istream</text>
</g>
<!-- Node5&#45;&gt;Node9 -->
<g id="edge24" class="edge"><title>Node5&#45;&gt;Node9</title>
<path fill="none" stroke="midnightblue" d="M259.475,-58.3619C244.099,-49.532 222.004,-36.844 204.553,-26.8224"/>
<polygon fill="midnightblue" stroke="midnightblue" points="205.822,-23.5154 195.408,-21.5707 202.336,-29.5857 205.822,-23.5154"/>
</g>
<!-- Node10 -->
<g id="node24" class="node"><title>Node10</title>
<polygon fill="white" stroke="#bfbfbf" points="219,-0.5 219,-21.5 271,-21.5 271,-0.5 219,-0.5"/>
<text text-anchor="middle" x="245" y="-8.5" font-family="Helvetica,sans-Serif" font-size="10.00">sstream</text>
</g>
<!-- Node5&#45;&gt;Node10 -->
<g id="edge26" class="edge"><title>Node5&#45;&gt;Node10</title>
<path fill="none" stroke="midnightblue" d="M271.947,-58.3619C267.528,-50.5949 261.41,-39.8426 256.121,-30.5458"/>
<polygon fill="midnightblue" stroke="midnightblue" points="259.002,-28.5315 251.014,-21.5707 252.918,-31.9932 259.002,-28.5315"/>
</g>
<!-- Node11 -->
<g id="node26" class="node"><title>Node11</title>
<polygon fill="white" stroke="#bfbfbf" points="289,-0.5 289,-21.5 333,-21.5 333,-0.5 289,-0.5"/>
<text text-anchor="middle" x="311" y="-8.5" font-family="Helvetica,sans-Serif" font-size="10.00">cmath</text>
</g>
<!-- Node5&#45;&gt;Node11 -->
<g id="edge28" class="edge"><title>Node5&#45;&gt;Node11</title>
<path fill="none" stroke="midnightblue" d="M284.053,-58.3619C288.472,-50.5949 294.59,-39.8426 299.879,-30.5458"/>
<polygon fill="midnightblue" stroke="midnightblue" points="303.082,-31.9932 304.986,-21.5707 296.998,-28.5315 303.082,-31.9932"/>
</g>
</g>
</svg>
