<?xml version="1.0" encoding="UTF-8" standalone="no"?>
<!DOCTYPE svg PUBLIC "-//W3C//DTD SVG 1.1//EN"
 "http://www.w3.org/Graphics/SVG/1.1/DTD/svg11.dtd">
<!-- Generated by graphviz version 2.26.3 (20100126.1600)
 -->
<!-- Title: src/analysis/utils/Combinatorics.h Pages: 1 -->
<svg width="4308pt" height="200pt"
 viewBox="0.00 0.00 4308.00 200.00" xmlns="http://www.w3.org/2000/svg" xmlns:xlink="http://www.w3.org/1999/xlink">
<g id="graph1" class="graph" transform="scale(1 1) rotate(0) translate(4 196)">
<title>src/analysis/utils/Combinatorics.h</title>
<polygon fill="white" stroke="white" points="-4,5 -4,-196 4305,-196 4305,5 -4,5"/>
<!-- Node9 -->
<g id="node1" class="node"><title>Node9</title>
<polygon fill="#bfbfbf" stroke="black" points="2184.5,-157 2184.5,-191 2275.5,-191 2275.5,-157 2184.5,-157"/>
<text text-anchor="start" x="2192.5" y="-178" font-family="Helvetica,sans-Serif" font-size="10.00">src/analysis/utils</text>
<text text-anchor="middle" x="2230" y="-165" font-family="Helvetica,sans-Serif" font-size="10.00">/Combinatorics.h</text>
</g>
<!-- Node10 -->
<g id="node3" class="node"><title>Node10</title>
<a xlink:href="process_etap_tree_8cc.html" target="_top" xlink:title="progs/processEtapTree.cc">
<polygon fill="white" stroke="black" points="-0.5,-85.5 -0.5,-106.5 130.5,-106.5 130.5,-85.5 -0.5,-85.5"/>
<text text-anchor="middle" x="65" y="-93.5" font-family="Helvetica,sans-Serif" font-size="10.00">progs/processEtapTree.cc</text>
</a>
</g>
<!-- Node9&#45;&gt;Node10 -->
<g id="edge2" class="edge"><title>Node9&#45;&gt;Node10</title>
<path fill="none" stroke="midnightblue" d="M2174.1,-173.516C1862.26,-170.687 344.375,-155.195 139,-120 122.759,-117.217 105.192,-111.636 91.2505,-106.556"/>
<polygon fill="midnightblue" stroke="midnightblue" points="2174.22,-177.017 2184.25,-173.607 2174.28,-170.017 2174.22,-177.017"/>
</g>
<!-- Node11 -->
<g id="node5" class="node"><title>Node11</title>
<a xlink:href="analysis_2physics_2calibration_2_c_b___energy_8cc.html" target="_top" xlink:title="src/analysis/physics\l/calibration/CB_Energy.cc">
<polygon fill="white" stroke="black" points="147.5,-79 147.5,-113 278.5,-113 278.5,-79 147.5,-79"/>
<text text-anchor="start" x="155.5" y="-100" font-family="Helvetica,sans-Serif" font-size="10.00">src/analysis/physics</text>
<text text-anchor="middle" x="213" y="-87" font-family="Helvetica,sans-Serif" font-size="10.00">/calibration/CB_Energy.cc</text>
</a>
</g>
<!-- Node9&#45;&gt;Node11 -->
<g id="edge4" class="edge"><title>Node9&#45;&gt;Node11</title>
<path fill="none" stroke="midnightblue" d="M2174.29,-173.4C1876.28,-170.063 477.004,-152.753 287,-120 277.683,-118.394 267.929,-115.872 258.672,-113.055"/>
<polygon fill="midnightblue" stroke="midnightblue" points="2174.38,-176.901 2184.42,-173.513 2174.46,-169.901 2174.38,-176.901"/>
</g>
<!-- Node12 -->
<g id="node7" class="node"><title>Node12</title>
<a xlink:href="analysis_2physics_2calibration_2_c_b___source_calib_8cc.html" target="_top" xlink:title="src/analysis/physics\l/calibration/CB_SourceCalib.cc">
<polygon fill="white" stroke="black" points="295.5,-79 295.5,-113 448.5,-113 448.5,-79 295.5,-79"/>
<text text-anchor="start" x="303.5" y="-100" font-family="Helvetica,sans-Serif" font-size="10.00">src/analysis/physics</text>
<text text-anchor="middle" x="372" y="-87" font-family="Helvetica,sans-Serif" font-size="10.00">/calibration/CB_SourceCalib.cc</text>
</a>
</g>
<!-- Node9&#45;&gt;Node12 -->
<g id="edge6" class="edge"><title>Node9&#45;&gt;Node12</title>
<path fill="none" stroke="midnightblue" d="M2174.27,-173.114C1892.33,-168.523 629.874,-146.626 457,-120 446.391,-118.366 435.229,-115.831 424.609,-113.01"/>
<polygon fill="midnightblue" stroke="midnightblue" points="2174.21,-176.613 2184.27,-173.276 2174.32,-169.614 2174.21,-176.613"/>
</g>
<!-- Node13 -->
<g id="node9" class="node"><title>Node13</title>
<a xlink:href="analysis_2physics_2calibration_2_t_a_p_s___energy_8cc.html" target="_top" xlink:title="src/analysis/physics\l/calibration/TAPS_Energy.cc">
<polygon fill="white" stroke="black" points="465.5,-79 465.5,-113 608.5,-113 608.5,-79 465.5,-79"/>
<text text-anchor="start" x="473.5" y="-100" font-family="Helvetica,sans-Serif" font-size="10.00">src/analysis/physics</text>
<text text-anchor="middle" x="537" y="-87" font-family="Helvetica,sans-Serif" font-size="10.00">/calibration/TAPS_Energy.cc</text>
</a>
</g>
<!-- Node9&#45;&gt;Node13 -->
<g id="edge8" class="edge"><title>Node9&#45;&gt;Node13</title>
<path fill="none" stroke="midnightblue" d="M2174.24,-172.987C1908.05,-168.034 773.04,-145.576 617,-120 607.126,-118.382 596.764,-115.892 586.892,-113.119"/>
<polygon fill="midnightblue" stroke="midnightblue" points="2174.37,-176.49 2184.44,-173.176 2174.5,-169.491 2174.37,-176.49"/>
</g>
<!-- Node14 -->
<g id="node11" class="node"><title>Node14</title>
<a xlink:href="_m_c_gun_check_8cc.html" target="_top" xlink:title="src/analysis/physics\l/check/MCGunCheck.cc">
<polygon fill="white" stroke="black" points="625.5,-79 625.5,-113 750.5,-113 750.5,-79 625.5,-79"/>
<text text-anchor="start" x="633.5" y="-100" font-family="Helvetica,sans-Serif" font-size="10.00">src/analysis/physics</text>
<text text-anchor="middle" x="688" y="-87" font-family="Helvetica,sans-Serif" font-size="10.00">/check/MCGunCheck.cc</text>
</a>
</g>
<!-- Node9&#45;&gt;Node14 -->
<g id="edge10" class="edge"><title>Node9&#45;&gt;Node14</title>
<path fill="none" stroke="midnightblue" d="M2174.29,-172.908C1922.85,-167.848 899.931,-145.839 759,-120 750.169,-118.381 740.941,-115.891 732.171,-113.118"/>
<polygon fill="midnightblue" stroke="midnightblue" points="2174.23,-176.407 2184.3,-173.108 2174.37,-169.408 2174.23,-176.407"/>
</g>
<!-- Node15 -->
<g id="node13" class="node"><title>Node15</title>
<a xlink:href="_m_c_photon_pair_check_8cc.html" target="_top" xlink:title="src/analysis/physics\l/check/MCPhotonPairCheck.cc">
<polygon fill="white" stroke="black" points="767.5,-79 767.5,-113 922.5,-113 922.5,-79 767.5,-79"/>
<text text-anchor="start" x="775.5" y="-100" font-family="Helvetica,sans-Serif" font-size="10.00">src/analysis/physics</text>
<text text-anchor="middle" x="845" y="-87" font-family="Helvetica,sans-Serif" font-size="10.00">/check/MCPhotonPairCheck.cc</text>
</a>
</g>
<!-- Node9&#45;&gt;Node15 -->
<g id="edge12" class="edge"><title>Node9&#45;&gt;Node15</title>
<path fill="none" stroke="midnightblue" d="M2174.05,-173.39C1957.72,-170.764 1175.99,-158.744 931,-120 920.436,-118.329 909.318,-115.816 898.714,-113.035"/>
<polygon fill="midnightblue" stroke="midnightblue" points="2174.18,-176.891 2184.22,-173.511 2174.26,-169.892 2174.18,-176.891"/>
</g>
<!-- Node16 -->
<g id="node15" class="node"><title>Node16</title>
<a xlink:href="_data_overview_8cc.html" target="_top" xlink:title="src/analysis/physics\l/common/DataOverview.cc">
<polygon fill="white" stroke="black" points="940,-79 940,-113 1076,-113 1076,-79 940,-79"/>
<text text-anchor="start" x="948" y="-100" font-family="Helvetica,sans-Serif" font-size="10.00">src/analysis/physics</text>
<text text-anchor="middle" x="1008" y="-87" font-family="Helvetica,sans-Serif" font-size="10.00">/common/DataOverview.cc</text>
</a>
</g>
<!-- Node9&#45;&gt;Node16 -->
<g id="edge14" class="edge"><title>Node9&#45;&gt;Node16</title>
<path fill="none" stroke="midnightblue" d="M2174.18,-173.249C1974.74,-170.273 1297.99,-157.579 1085,-120 1075.49,-118.321 1065.51,-115.804 1056,-113.022"/>
<polygon fill="midnightblue" stroke="midnightblue" points="2174.37,-176.752 2184.42,-173.4 2174.47,-169.753 2174.37,-176.752"/>
</g>
<!-- Node17 -->
<g id="node17" class="node"><title>Node17</title>
<a xlink:href="_i_m_comb_fit_plots_8h.html" target="_top" xlink:title="src/analysis/physics\l/common/IMCombFitPlots.h">
<polygon fill="white" stroke="black" points="1094,-79 1094,-113 1234,-113 1234,-79 1094,-79"/>
<text text-anchor="start" x="1102" y="-100" font-family="Helvetica,sans-Serif" font-size="10.00">src/analysis/physics</text>
<text text-anchor="middle" x="1164" y="-87" font-family="Helvetica,sans-Serif" font-size="10.00">/common/IMCombFitPlots.h</text>
</a>
</g>
<!-- Node9&#45;&gt;Node17 -->
<g id="edge16" class="edge"><title>Node9&#45;&gt;Node17</title>
<path fill="none" stroke="midnightblue" d="M2174.17,-172.709C1993.19,-168.246 1424.01,-151.966 1243,-120 1233.4,-118.305 1223.33,-115.817 1213.71,-113.077"/>
<polygon fill="midnightblue" stroke="midnightblue" points="2174.18,-176.21 2184.26,-172.955 2174.35,-169.212 2174.18,-176.21"/>
</g>
<!-- Node19 -->
<g id="node21" class="node"><title>Node19</title>
<a xlink:href="_i_m_plots_8cc.html" target="_top" xlink:title="src/analysis/physics\l/common/IMPlots.cc">
<polygon fill="white" stroke="black" points="1251.5,-79 1251.5,-113 1358.5,-113 1358.5,-79 1251.5,-79"/>
<text text-anchor="start" x="1259.5" y="-100" font-family="Helvetica,sans-Serif" font-size="10.00">src/analysis/physics</text>
<text text-anchor="middle" x="1305" y="-87" font-family="Helvetica,sans-Serif" font-size="10.00">/common/IMPlots.cc</text>
</a>
</g>
<!-- Node9&#45;&gt;Node19 -->
<g id="edge20" class="edge"><title>Node9&#45;&gt;Node19</title>
<path fill="none" stroke="midnightblue" d="M2173.99,-172.733C2008.18,-168.629 1521.78,-153.949 1367,-120 1359.33,-118.319 1351.37,-115.837 1343.8,-113.099"/>
<polygon fill="midnightblue" stroke="midnightblue" points="2174.36,-176.243 2184.44,-172.988 2174.53,-169.245 2174.36,-176.243"/>
</g>
<!-- Node20 -->
<g id="node23" class="node"><title>Node20</title>
<a xlink:href="_meson_dalitz_decays_8cc.html" target="_top" xlink:title="Physics class to investigate Dalitz decays for different mesons. ">
<polygon fill="white" stroke="black" points="1376,-79 1376,-113 1538,-113 1538,-79 1376,-79"/>
<text text-anchor="start" x="1384" y="-100" font-family="Helvetica,sans-Serif" font-size="10.00">src/analysis/physics</text>
<text text-anchor="middle" x="1457" y="-87" font-family="Helvetica,sans-Serif" font-size="10.00">/common/MesonDalitzDecays.cc</text>
</a>
</g>
<!-- Node9&#45;&gt;Node20 -->
<g id="edge22" class="edge"><title>Node9&#45;&gt;Node20</title>
<path fill="none" stroke="midnightblue" d="M2174.35,-173.017C2057.37,-170.204 1777.73,-159.548 1547,-120 1536.48,-118.197 1525.4,-115.728 1514.75,-113.057"/>
<polygon fill="midnightblue" stroke="midnightblue" points="2174.41,-176.519 2184.49,-173.251 2174.58,-169.521 2174.41,-176.519"/>
</g>
<!-- Node21 -->
<g id="node25" class="node"><title>Node21</title>
<a xlink:href="_etap_omega_g_8cc.html" target="_top" xlink:title="src/analysis/physics\l/etaprime/EtapOmegaG.cc">
<polygon fill="white" stroke="black" points="1555.5,-79 1555.5,-113 1688.5,-113 1688.5,-79 1555.5,-79"/>
<text text-anchor="start" x="1563.5" y="-100" font-family="Helvetica,sans-Serif" font-size="10.00">src/analysis/physics</text>
<text text-anchor="middle" x="1622" y="-87" font-family="Helvetica,sans-Serif" font-size="10.00">/etaprime/EtapOmegaG.cc</text>
</a>
</g>
<!-- Node9&#45;&gt;Node21 -->
<g id="edge24" class="edge"><title>Node9&#45;&gt;Node21</title>
<path fill="none" stroke="midnightblue" d="M2173.99,-172.165C2076.24,-168.114 1868.53,-155.726 1697,-120 1688.3,-118.188 1679.18,-115.749 1670.42,-113.118"/>
<polygon fill="midnightblue" stroke="midnightblue" points="2174.1,-175.673 2184.24,-172.576 2174.38,-168.678 2174.1,-175.673"/>
</g>
<!-- Node22 -->
<g id="node27" class="node"><title>Node22</title>
<a xlink:href="etaprime-3pi0_8cc.html" target="_top" xlink:title="src/analysis/physics\l/etaprime/etaprime&#45;3pi0.cc">
<polygon fill="white" stroke="black" points="1706,-79 1706,-113 1838,-113 1838,-79 1706,-79"/>
<text text-anchor="start" x="1714" y="-100" font-family="Helvetica,sans-Serif" font-size="10.00">src/analysis/physics</text>
<text text-anchor="middle" x="1772" y="-87" font-family="Helvetica,sans-Serif" font-size="10.00">/etaprime/etaprime&#45;3pi0.cc</text>
</a>
</g>
<!-- Node9&#45;&gt;Node22 -->
<g id="edge26" class="edge"><title>Node9&#45;&gt;Node22</title>
<path fill="none" stroke="midnightblue" d="M2174.28,-169.135C2099.24,-161.905 1961.88,-146.279 1847,-120 1838.6,-118.079 1829.8,-115.651 1821.29,-113.08"/>
<polygon fill="midnightblue" stroke="midnightblue" points="2174.16,-172.639 2184.44,-170.099 2174.82,-165.67 2174.16,-172.639"/>
</g>
<!-- Node23 -->
<g id="node29" class="node"><title>Node23</title>
<a xlink:href="etaprime__dalitz_8cc.html" target="_top" xlink:title="src/analysis/physics\l/etaprime/etaprime_dalitz.cc">
<polygon fill="white" stroke="black" points="1856,-79 1856,-113 1996,-113 1996,-79 1856,-79"/>
<text text-anchor="start" x="1864" y="-100" font-family="Helvetica,sans-Serif" font-size="10.00">src/analysis/physics</text>
<text text-anchor="middle" x="1926" y="-87" font-family="Helvetica,sans-Serif" font-size="10.00">/etaprime/etaprime_dalitz.cc</text>
</a>
</g>
<!-- Node9&#45;&gt;Node23 -->
<g id="edge28" class="edge"><title>Node9&#45;&gt;Node23</title>
<path fill="none" stroke="midnightblue" d="M2174.12,-161.56C2128.45,-151.161 2062.31,-135.567 2005,-120 1997.12,-117.858 1988.83,-115.48 1980.7,-113.078"/>
<polygon fill="midnightblue" stroke="midnightblue" points="2173.59,-165.029 2184.12,-163.829 2175.14,-158.203 2173.59,-165.029"/>
</g>
<!-- Node24 -->
<g id="node31" class="node"><title>Node24</title>
<a xlink:href="_geo_acceptance_8cc.html" target="_top" xlink:title="src/analysis/physics\l/omega/GeoAcceptance.cc">
<polygon fill="white" stroke="black" points="2013.5,-79 2013.5,-113 2148.5,-113 2148.5,-79 2013.5,-79"/>
<text text-anchor="start" x="2021.5" y="-100" font-family="Helvetica,sans-Serif" font-size="10.00">src/analysis/physics</text>
<text text-anchor="middle" x="2081" y="-87" font-family="Helvetica,sans-Serif" font-size="10.00">/omega/GeoAcceptance.cc</text>
</a>
</g>
<!-- Node9&#45;&gt;Node24 -->
<g id="edge30" class="edge"><title>Node9&#45;&gt;Node24</title>
<path fill="none" stroke="midnightblue" d="M2188.22,-152.128C2164.61,-139.771 2135.54,-124.55 2113.62,-113.078"/>
<polygon fill="midnightblue" stroke="midnightblue" points="2186.82,-155.345 2197.3,-156.883 2190.07,-149.144 2186.82,-155.345"/>
</g>
<!-- Node25 -->
<g id="node33" class="node"><title>Node25</title>
<a xlink:href="_omega___ep_em_8cc.html" target="_top" xlink:title="src/analysis/physics\l/omega/Omega_EpEm.cc">
<polygon fill="white" stroke="black" points="2165.5,-79 2165.5,-113 2294.5,-113 2294.5,-79 2165.5,-79"/>
<text text-anchor="start" x="2173.5" y="-100" font-family="Helvetica,sans-Serif" font-size="10.00">src/analysis/physics</text>
<text text-anchor="middle" x="2230" y="-87" font-family="Helvetica,sans-Serif" font-size="10.00">/omega/Omega_EpEm.cc</text>
</a>
</g>
<!-- Node9&#45;&gt;Node25 -->
<g id="edge32" class="edge"><title>Node9&#45;&gt;Node25</title>
<path fill="none" stroke="midnightblue" d="M2230,-146.61C2230,-135.519 2230,-123.049 2230,-113.262"/>
<polygon fill="midnightblue" stroke="midnightblue" points="2226.5,-146.689 2230,-156.689 2233.5,-146.689 2226.5,-146.689"/>
</g>
<!-- Node26 -->
<g id="node35" class="node"><title>Node26</title>
<a xlink:href="_omega___ep_em__mc_8cc.html" target="_top" xlink:title="src/analysis/physics\l/omega/Omega_EpEm_mc.cc">
<polygon fill="white" stroke="black" points="2312,-79 2312,-113 2460,-113 2460,-79 2312,-79"/>
<text text-anchor="start" x="2320" y="-100" font-family="Helvetica,sans-Serif" font-size="10.00">src/analysis/physics</text>
<text text-anchor="middle" x="2386" y="-87" font-family="Helvetica,sans-Serif" font-size="10.00">/omega/Omega_EpEm_mc.cc</text>
</a>
</g>
<!-- Node9&#45;&gt;Node26 -->
<g id="edge34" class="edge"><title>Node9&#45;&gt;Node26</title>
<path fill="none" stroke="midnightblue" d="M2273.42,-152.292C2298.19,-139.905 2328.8,-124.601 2351.84,-113.078"/>
<polygon fill="midnightblue" stroke="midnightblue" points="2271.61,-149.28 2264.23,-156.883 2274.74,-155.541 2271.61,-149.28"/>
</g>
<!-- Node27 -->
<g id="node37" class="node"><title>Node27</title>
<a xlink:href="_omega___eta_g_8cc.html" target="_top" xlink:title="src/analysis/physics\l/omega/Omega_EtaG.cc">
<polygon fill="white" stroke="black" points="2477.5,-79 2477.5,-113 2602.5,-113 2602.5,-79 2477.5,-79"/>
<text text-anchor="start" x="2485.5" y="-100" font-family="Helvetica,sans-Serif" font-size="10.00">src/analysis/physics</text>
<text text-anchor="middle" x="2540" y="-87" font-family="Helvetica,sans-Serif" font-size="10.00">/omega/Omega_EtaG.cc</text>
</a>
</g>
<!-- Node9&#45;&gt;Node27 -->
<g id="edge36" class="edge"><title>Node9&#45;&gt;Node27</title>
<path fill="none" stroke="midnightblue" d="M2285.75,-163.113C2334.45,-153.197 2406.87,-137.468 2469,-120 2476.39,-117.922 2484.15,-115.527 2491.7,-113.072"/>
<polygon fill="midnightblue" stroke="midnightblue" points="2284.83,-159.727 2275.73,-165.139 2286.22,-166.588 2284.83,-159.727"/>
</g>
<!-- Node28 -->
<g id="node39" class="node"><title>Node28</title>
<a xlink:href="pi0eta_8cc.html" target="_top" xlink:title="src/analysis/physics\l/omega/pi0eta.cc">
<polygon fill="white" stroke="black" points="2620,-79 2620,-113 2726,-113 2726,-79 2620,-79"/>
<text text-anchor="start" x="2628" y="-100" font-family="Helvetica,sans-Serif" font-size="10.00">src/analysis/physics</text>
<text text-anchor="middle" x="2673" y="-87" font-family="Helvetica,sans-Serif" font-size="10.00">/omega/pi0eta.cc</text>
</a>
</g>
<!-- Node9&#45;&gt;Node28 -->
<g id="edge38" class="edge"><title>Node9&#45;&gt;Node28</title>
<path fill="none" stroke="midnightblue" d="M2285.68,-170.114C2360.6,-163.982 2497.55,-149.581 2611,-120 2618.15,-118.136 2625.6,-115.704 2632.75,-113.105"/>
<polygon fill="midnightblue" stroke="midnightblue" points="2285.22,-166.64 2275.53,-170.925 2285.77,-173.618 2285.22,-166.64"/>
</g>
<!-- Node29 -->
<g id="node41" class="node"><title>Node29</title>
<a xlink:href="_rare_pion_8cc.html" target="_top" xlink:title="src/analysis/physics\l/pi0/RarePion.cc">
<polygon fill="white" stroke="black" points="2744,-79 2744,-113 2850,-113 2850,-79 2744,-79"/>
<text text-anchor="start" x="2752" y="-100" font-family="Helvetica,sans-Serif" font-size="10.00">src/analysis/physics</text>
<text text-anchor="middle" x="2797" y="-87" font-family="Helvetica,sans-Serif" font-size="10.00">/pi0/RarePion.cc</text>
</a>
</g>
<!-- Node9&#45;&gt;Node29 -->
<g id="edge40" class="edge"><title>Node9&#45;&gt;Node29</title>
<path fill="none" stroke="midnightblue" d="M2285.74,-172.803C2379.69,-169.733 2574.98,-158.81 2735,-120 2742.4,-118.205 2750.11,-115.74 2757.47,-113.07"/>
<polygon fill="midnightblue" stroke="midnightblue" points="2285.5,-169.309 2275.61,-173.116 2285.71,-176.306 2285.5,-169.309"/>
</g>
<!-- Node30 -->
<g id="node43" class="node"><title>Node30</title>
<a xlink:href="single_pi0_8cc.html" target="_top" xlink:title="src/analysis/physics\l/production/singlePi0.cc">
<polygon fill="white" stroke="black" points="2867.5,-79 2867.5,-113 2988.5,-113 2988.5,-79 2867.5,-79"/>
<text text-anchor="start" x="2875.5" y="-100" font-family="Helvetica,sans-Serif" font-size="10.00">src/analysis/physics</text>
<text text-anchor="middle" x="2928" y="-87" font-family="Helvetica,sans-Serif" font-size="10.00">/production/singlePi0.cc</text>
</a>
</g>
<!-- Node9&#45;&gt;Node30 -->
<g id="edge42" class="edge"><title>Node9&#45;&gt;Node30</title>
<path fill="none" stroke="midnightblue" d="M2286.2,-170.973C2419.22,-163.518 2750.33,-143.184 2859,-120 2867.31,-118.227 2876,-115.738 2884.29,-113.03"/>
<polygon fill="midnightblue" stroke="midnightblue" points="2285.63,-167.499 2275.84,-171.55 2286.02,-174.488 2285.63,-167.499"/>
</g>
<!-- Node31 -->
<g id="node45" class="node"><title>Node31</title>
<a xlink:href="triple_pi0_8cc.html" target="_top" xlink:title="src/analysis/physics\l/production/triplePi0.cc">
<polygon fill="white" stroke="black" points="3006,-79 3006,-113 3122,-113 3122,-79 3006,-79"/>
<text text-anchor="start" x="3014" y="-100" font-family="Helvetica,sans-Serif" font-size="10.00">src/analysis/physics</text>
<text text-anchor="middle" x="3064" y="-87" font-family="Helvetica,sans-Serif" font-size="10.00">/production/triplePi0.cc</text>
</a>
</g>
<!-- Node9&#45;&gt;Node31 -->
<g id="edge44" class="edge"><title>Node9&#45;&gt;Node31</title>
<path fill="none" stroke="midnightblue" d="M2285.71,-172.055C2438.34,-166.413 2860.92,-148.597 2997,-120 3005.22,-118.272 3013.8,-115.769 3021.97,-113.024"/>
<polygon fill="midnightblue" stroke="midnightblue" points="2285.49,-168.561 2275.62,-172.425 2285.74,-175.556 2285.49,-168.561"/>
</g>
<!-- Node32 -->
<g id="node47" class="node"><title>Node32</title>
<a xlink:href="cross__section_8cc.html" target="_top" xlink:title="src/analysis/physics\l/scratch/collicott/cross\l_section.cc">
<polygon fill="white" stroke="black" points="3140,-72.5 3140,-119.5 3256,-119.5 3256,-72.5 3140,-72.5"/>
<text text-anchor="start" x="3148" y="-106.5" font-family="Helvetica,sans-Serif" font-size="10.00">src/analysis/physics</text>
<text text-anchor="start" x="3148" y="-93.5" font-family="Helvetica,sans-Serif" font-size="10.00">/scratch/collicott/cross</text>
<text text-anchor="middle" x="3198" y="-80.5" font-family="Helvetica,sans-Serif" font-size="10.00">_section.cc</text>
</a>
</g>
<!-- Node9&#45;&gt;Node32 -->
<g id="edge46" class="edge"><title>Node9&#45;&gt;Node32</title>
<path fill="none" stroke="midnightblue" d="M2285.84,-172.726C2456.28,-168.51 2968.13,-153.341 3131,-120 3133.91,-119.405 3136.85,-118.711 3139.81,-117.941"/>
<polygon fill="midnightblue" stroke="midnightblue" points="2285.5,-169.233 2275.59,-172.976 2285.67,-176.231 2285.5,-169.233"/>
</g>
<!-- Node33 -->
<g id="node49" class="node"><title>Node33</title>
<a xlink:href="det__eff_8cc.html" target="_top" xlink:title="src/analysis/physics\l/scratch/collicott/det\l_eff.cc">
<polygon fill="white" stroke="black" points="3274,-72.5 3274,-119.5 3380,-119.5 3380,-72.5 3274,-72.5"/>
<text text-anchor="start" x="3282" y="-106.5" font-family="Helvetica,sans-Serif" font-size="10.00">src/analysis/physics</text>
<text text-anchor="start" x="3282" y="-93.5" font-family="Helvetica,sans-Serif" font-size="10.00">/scratch/collicott/det</text>
<text text-anchor="middle" x="3327" y="-80.5" font-family="Helvetica,sans-Serif" font-size="10.00">_eff.cc</text>
</a>
</g>
<!-- Node9&#45;&gt;Node33 -->
<g id="edge48" class="edge"><title>Node9&#45;&gt;Node33</title>
<path fill="none" stroke="midnightblue" d="M2285.79,-173.412C2472.68,-171.078 3075.58,-160.517 3265,-120 3267.93,-119.372 3270.91,-118.624 3273.89,-117.788"/>
<polygon fill="midnightblue" stroke="midnightblue" points="2285.6,-169.914 2275.64,-173.535 2285.68,-176.913 2285.6,-169.914"/>
</g>
<!-- Node34 -->
<g id="node51" class="node"><title>Node34</title>
<a xlink:href="gp__pi0[2g]p_8cc.html" target="_top" xlink:title="src/analysis/physics\l/scratch/collicott/gp\l_pi0[2g]p.cc">
<polygon fill="white" stroke="black" points="3398,-72.5 3398,-119.5 3504,-119.5 3504,-72.5 3398,-72.5"/>
<text text-anchor="start" x="3406" y="-106.5" font-family="Helvetica,sans-Serif" font-size="10.00">src/analysis/physics</text>
<text text-anchor="start" x="3406" y="-93.5" font-family="Helvetica,sans-Serif" font-size="10.00">/scratch/collicott/gp</text>
<text text-anchor="middle" x="3451" y="-80.5" font-family="Helvetica,sans-Serif" font-size="10.00">_pi0[2g]p.cc</text>
</a>
</g>
<!-- Node9&#45;&gt;Node34 -->
<g id="edge50" class="edge"><title>Node9&#45;&gt;Node34</title>
<path fill="none" stroke="midnightblue" d="M2285.62,-173.775C2486.57,-172.596 3174.45,-165.269 3389,-120 3391.94,-119.38 3394.92,-118.639 3397.9,-117.807"/>
<polygon fill="midnightblue" stroke="midnightblue" points="2285.56,-170.276 2275.58,-173.832 2285.6,-177.275 2285.56,-170.276"/>
</g>
<!-- Node35 -->
<g id="node53" class="node"><title>Node35</title>
<a xlink:href="_pi0_calib_8cc.html" target="_top" xlink:title="src/analysis/physics\l/scratch/sobotzik/Pi0Calib.cc">
<polygon fill="white" stroke="black" points="3521.5,-79 3521.5,-113 3666.5,-113 3666.5,-79 3521.5,-79"/>
<text text-anchor="start" x="3529.5" y="-100" font-family="Helvetica,sans-Serif" font-size="10.00">src/analysis/physics</text>
<text text-anchor="middle" x="3594" y="-87" font-family="Helvetica,sans-Serif" font-size="10.00">/scratch/sobotzik/Pi0Calib.cc</text>
</a>
</g>
<!-- Node9&#45;&gt;Node35 -->
<g id="edge52" class="edge"><title>Node9&#45;&gt;Node35</title>
<path fill="none" stroke="midnightblue" d="M2285.64,-173.476C2499.88,-171.179 3271.48,-160.231 3513,-120 3522.98,-118.337 3533.47,-115.827 3543.46,-113.047"/>
<polygon fill="midnightblue" stroke="midnightblue" points="2285.53,-169.977 2275.57,-173.582 2285.6,-176.977 2285.53,-169.977"/>
</g>
<!-- Node36 -->
<g id="node55" class="node"><title>Node36</title>
<a xlink:href="_test_particle_combinatorics_8cc.html" target="_top" xlink:title="src/analysis/physics\l/test/TestParticleCombinatorics.cc">
<polygon fill="white" stroke="black" points="3684,-79 3684,-113 3852,-113 3852,-79 3684,-79"/>
<text text-anchor="start" x="3692" y="-100" font-family="Helvetica,sans-Serif" font-size="10.00">src/analysis/physics</text>
<text text-anchor="middle" x="3768" y="-87" font-family="Helvetica,sans-Serif" font-size="10.00">/test/TestParticleCombinatorics.cc</text>
</a>
</g>
<!-- Node9&#45;&gt;Node36 -->
<g id="edge54" class="edge"><title>Node9&#45;&gt;Node36</title>
<path fill="none" stroke="midnightblue" d="M2285.99,-173.517C2517.35,-171.272 3399.62,-160.2 3675,-120 3686.38,-118.338 3698.39,-115.828 3709.85,-113.049"/>
<polygon fill="midnightblue" stroke="midnightblue" points="2285.75,-170.019 2275.78,-173.614 2285.82,-177.019 2285.75,-170.019"/>
</g>
<!-- Node37 -->
<g id="node57" class="node"><title>Node37</title>
<a xlink:href="physics_2tunings_2_trigger_simulation_8cc.html" target="_top" xlink:title="src/analysis/physics\l/tunings/TriggerSimulation.cc">
<polygon fill="white" stroke="black" points="3869.5,-79 3869.5,-113 4012.5,-113 4012.5,-79 3869.5,-79"/>
<text text-anchor="start" x="3877.5" y="-100" font-family="Helvetica,sans-Serif" font-size="10.00">src/analysis/physics</text>
<text text-anchor="middle" x="3941" y="-87" font-family="Helvetica,sans-Serif" font-size="10.00">/tunings/TriggerSimulation.cc</text>
</a>
</g>
<!-- Node9&#45;&gt;Node37 -->
<g id="edge56" class="edge"><title>Node9&#45;&gt;Node37</title>
<path fill="none" stroke="midnightblue" d="M2285.94,-173.005C2554.29,-168.119 3703.13,-145.846 3861,-120 3871.02,-118.36 3881.54,-115.823 3891.54,-113.001"/>
<polygon fill="midnightblue" stroke="midnightblue" points="2285.6,-169.511 2275.66,-173.192 2285.73,-176.51 2285.6,-169.511"/>
</g>
<!-- Node38 -->
<g id="node59" class="node"><title>Node38</title>
<a xlink:href="_two_pi0___m_c_smearing_8cc.html" target="_top" xlink:title="src/analysis/physics\l/tunings/TwoPi0_MCSmearing.cc">
<polygon fill="white" stroke="black" points="4029.5,-79 4029.5,-113 4192.5,-113 4192.5,-79 4029.5,-79"/>
<text text-anchor="start" x="4037.5" y="-100" font-family="Helvetica,sans-Serif" font-size="10.00">src/analysis/physics</text>
<text text-anchor="middle" x="4111" y="-87" font-family="Helvetica,sans-Serif" font-size="10.00">/tunings/TwoPi0_MCSmearing.cc</text>
</a>
</g>
<!-- Node9&#45;&gt;Node38 -->
<g id="edge58" class="edge"><title>Node9&#45;&gt;Node38</title>
<path fill="none" stroke="midnightblue" d="M2285.83,-173.083C2569.67,-168.316 3846.08,-145.609 4021,-120 4032.2,-118.36 4044,-115.823 4055.25,-113.001"/>
<polygon fill="midnightblue" stroke="midnightblue" points="2285.7,-169.584 2275.76,-173.251 2285.82,-176.583 2285.7,-169.584"/>
</g>
<!-- Node39 -->
<g id="node61" class="node"><title>Node39</title>
<a xlink:href="_particle_tools_8cc.html" target="_top" xlink:title="src/analysis/utils\l/ParticleTools.cc">
<polygon fill="white" stroke="black" points="4210,-79 4210,-113 4300,-113 4300,-79 4210,-79"/>
<text text-anchor="start" x="4218" y="-100" font-family="Helvetica,sans-Serif" font-size="10.00">src/analysis/utils</text>
<text text-anchor="middle" x="4255" y="-87" font-family="Helvetica,sans-Serif" font-size="10.00">/ParticleTools.cc</text>
</a>
</g>
<!-- Node9&#45;&gt;Node39 -->
<g id="edge60" class="edge"><title>Node9&#45;&gt;Node39</title>
<path fill="none" stroke="midnightblue" d="M2286.1,-173.763C2587.7,-172.318 4010.15,-163.241 4201,-120 4208,-118.413 4215.22,-115.9 4222,-113.085"/>
<polygon fill="midnightblue" stroke="midnightblue" points="2285.83,-170.265 2275.84,-173.812 2285.86,-177.265 2285.83,-170.265"/>
</g>
<!-- Node18 -->
<g id="node19" class="node"><title>Node18</title>
<a xlink:href="_i_m_comb_fit_plots_8cc.html" target="_top" xlink:title="src/analysis/physics\l/common/IMCombFitPlots.cc">
<polygon fill="white" stroke="black" points="1091.5,-1 1091.5,-35 1236.5,-35 1236.5,-1 1091.5,-1"/>
<text text-anchor="start" x="1099.5" y="-22" font-family="Helvetica,sans-Serif" font-size="10.00">src/analysis/physics</text>
<text text-anchor="middle" x="1164" y="-9" font-family="Helvetica,sans-Serif" font-size="10.00">/common/IMCombFitPlots.cc</text>
</a>
</g>
<!-- Node17&#45;&gt;Node18 -->
<g id="edge18" class="edge"><title>Node17&#45;&gt;Node18</title>
<path fill="none" stroke="midnightblue" d="M1164,-68.6102C1164,-57.5188 1164,-45.0489 1164,-35.2623"/>
<polygon fill="midnightblue" stroke="midnightblue" points="1160.5,-68.6892 1164,-78.6893 1167.5,-68.6893 1160.5,-68.6892"/>
</g>
</g>
</svg>
