<?xml version="1.0" encoding="UTF-8" standalone="no"?>
<!DOCTYPE svg PUBLIC "-//W3C//DTD SVG 1.1//EN"
 "http://www.w3.org/Graphics/SVG/1.1/DTD/svg11.dtd">
<!-- Generated by graphviz version 2.26.3 (20100126.1600)
 -->
<!-- Title: src/analysis/plot/CutTree.h Pages: 1 -->
<svg width="1182pt" height="114pt"
 viewBox="0.00 0.00 1182.00 114.00" xmlns="http://www.w3.org/2000/svg" xmlns:xlink="http://www.w3.org/1999/xlink">
<g id="graph1" class="graph" transform="scale(1 1) rotate(0) translate(4 110)">
<title>src/analysis/plot/CutTree.h</title>
<polygon fill="white" stroke="white" points="-4,5 -4,-110 1179,-110 1179,5 -4,5"/>
<!-- Node32 -->
<g id="node1" class="node"><title>Node32</title>
<polygon fill="#bfbfbf" stroke="black" points="521,-84.5 521,-105.5 655,-105.5 655,-84.5 521,-84.5"/>
<text text-anchor="middle" x="588" y="-92.5" font-family="Helvetica,sans-Serif" font-size="10.00">src/analysis/plot/CutTree.h</text>
</g>
<!-- Node33 -->
<g id="node3" class="node"><title>Node33</title>
<a xlink:href="_p_i_d_efficiency_check_8cc.html" target="_top" xlink:title="src/analysis/physics\l/check/PIDEfficiencyCheck.cc">
<polygon fill="white" stroke="black" points="0,-7 0,-41 152,-41 152,-7 0,-7"/>
<text text-anchor="start" x="8" y="-28" font-family="Helvetica,sans-Serif" font-size="10.00">src/analysis/physics</text>
<text text-anchor="middle" x="76" y="-15" font-family="Helvetica,sans-Serif" font-size="10.00">/check/PIDEfficiencyCheck.cc</text>
</a>
</g>
<!-- Node32&#45;&gt;Node33 -->
<g id="edge2" class="edge"><title>Node32&#45;&gt;Node33</title>
<path fill="none" stroke="midnightblue" d="M510.72,-90.3568C424.741,-84.2974 281.991,-71.5715 161,-48 151.367,-46.1234 141.239,-43.6851 131.464,-41.0832"/>
<polygon fill="midnightblue" stroke="midnightblue" points="510.701,-93.8637 520.919,-91.0629 511.184,-86.8804 510.701,-93.8637"/>
</g>
<!-- Node34 -->
<g id="node5" class="node"><title>Node34</title>
<a xlink:href="_meson_dalitz_decays__plot_8cc.html" target="_top" xlink:title="src/analysis/physics\l/common/MesonDalitzDecays\l_plot.cc">
<polygon fill="white" stroke="black" points="169.5,-0.5 169.5,-47.5 318.5,-47.5 318.5,-0.5 169.5,-0.5"/>
<text text-anchor="start" x="177.5" y="-34.5" font-family="Helvetica,sans-Serif" font-size="10.00">src/analysis/physics</text>
<text text-anchor="start" x="177.5" y="-21.5" font-family="Helvetica,sans-Serif" font-size="10.00">/common/MesonDalitzDecays</text>
<text text-anchor="middle" x="244" y="-8.5" font-family="Helvetica,sans-Serif" font-size="10.00">_plot.cc</text>
</a>
</g>
<!-- Node32&#45;&gt;Node34 -->
<g id="edge4" class="edge"><title>Node32&#45;&gt;Node34</title>
<path fill="none" stroke="midnightblue" d="M510.643,-83.2224C458.479,-74.754 388.257,-62.3315 327,-48 324.225,-47.3508 321.405,-46.6657 318.561,-45.9537"/>
<polygon fill="midnightblue" stroke="midnightblue" points="510.398,-86.7279 520.828,-84.8627 511.511,-79.817 510.398,-86.7279"/>
</g>
<!-- Node35 -->
<g id="node7" class="node"><title>Node35</title>
<a xlink:href="_etap_dalitz__plot_8cc.html" target="_top" xlink:title="src/analysis/physics\l/etaprime/EtapDalitz\l_plot.cc">
<polygon fill="white" stroke="black" points="336,-0.5 336,-47.5 442,-47.5 442,-0.5 336,-0.5"/>
<text text-anchor="start" x="344" y="-34.5" font-family="Helvetica,sans-Serif" font-size="10.00">src/analysis/physics</text>
<text text-anchor="start" x="344" y="-21.5" font-family="Helvetica,sans-Serif" font-size="10.00">/etaprime/EtapDalitz</text>
<text text-anchor="middle" x="389" y="-8.5" font-family="Helvetica,sans-Serif" font-size="10.00">_plot.cc</text>
</a>
</g>
<!-- Node32&#45;&gt;Node35 -->
<g id="edge6" class="edge"><title>Node32&#45;&gt;Node35</title>
<path fill="none" stroke="midnightblue" d="M546.444,-81.2109C519.206,-72.0582 482.873,-59.6312 451,-48 448.072,-46.9317 445.073,-45.8217 442.049,-44.6908"/>
<polygon fill="midnightblue" stroke="midnightblue" points="545.448,-84.5685 556.042,-84.4273 547.672,-77.9312 545.448,-84.5685"/>
</g>
<!-- Node36 -->
<g id="node9" class="node"><title>Node36</title>
<a xlink:href="_etap_omega_g__plot_8cc.html" target="_top" xlink:title="src/analysis/physics\l/etaprime/EtapOmegaG\l_plot.cc">
<polygon fill="white" stroke="black" points="459.5,-0.5 459.5,-47.5 578.5,-47.5 578.5,-0.5 459.5,-0.5"/>
<text text-anchor="start" x="467.5" y="-34.5" font-family="Helvetica,sans-Serif" font-size="10.00">src/analysis/physics</text>
<text text-anchor="start" x="467.5" y="-21.5" font-family="Helvetica,sans-Serif" font-size="10.00">/etaprime/EtapOmegaG</text>
<text text-anchor="middle" x="519" y="-8.5" font-family="Helvetica,sans-Serif" font-size="10.00">_plot.cc</text>
</a>
</g>
<!-- Node32&#45;&gt;Node36 -->
<g id="edge8" class="edge"><title>Node32&#45;&gt;Node36</title>
<path fill="none" stroke="midnightblue" d="M570.463,-76.9548C561.783,-68.0228 551.195,-57.128 541.885,-47.548"/>
<polygon fill="midnightblue" stroke="midnightblue" points="568.041,-79.4845 577.52,-84.2166 573.061,-74.606 568.041,-79.4845"/>
</g>
<!-- Node37 -->
<g id="node11" class="node"><title>Node37</title>
<a xlink:href="_omega___eta_g_8cc.html" target="_top" xlink:title="src/analysis/physics\l/omega/Omega_EtaG.cc">
<polygon fill="white" stroke="black" points="595.5,-7 595.5,-41 720.5,-41 720.5,-7 595.5,-7"/>
<text text-anchor="start" x="603.5" y="-28" font-family="Helvetica,sans-Serif" font-size="10.00">src/analysis/physics</text>
<text text-anchor="middle" x="658" y="-15" font-family="Helvetica,sans-Serif" font-size="10.00">/omega/Omega_EtaG.cc</text>
</a>
</g>
<!-- Node32&#45;&gt;Node37 -->
<g id="edge10" class="edge"><title>Node32&#45;&gt;Node37</title>
<path fill="none" stroke="midnightblue" d="M605.898,-76.8465C616.691,-65.8986 630.362,-52.0325 640.992,-41.2508"/>
<polygon fill="midnightblue" stroke="midnightblue" points="603.16,-74.6383 598.631,-84.2166 608.145,-79.5528 603.16,-74.6383"/>
</g>
<!-- Node38 -->
<g id="node13" class="node"><title>Node38</title>
<a xlink:href="single_pi0_plots_8cc.html" target="_top" xlink:title="src/analysis/physics\l/production/singlePi0Plots.cc">
<polygon fill="white" stroke="black" points="737.5,-7 737.5,-41 880.5,-41 880.5,-7 737.5,-7"/>
<text text-anchor="start" x="745.5" y="-28" font-family="Helvetica,sans-Serif" font-size="10.00">src/analysis/physics</text>
<text text-anchor="middle" x="809" y="-15" font-family="Helvetica,sans-Serif" font-size="10.00">/production/singlePi0Plots.cc</text>
</a>
</g>
<!-- Node32&#45;&gt;Node38 -->
<g id="edge12" class="edge"><title>Node32&#45;&gt;Node38</title>
<path fill="none" stroke="midnightblue" d="M630.73,-81.2723C666.453,-69.7956 717.57,-53.3733 755.916,-41.0543"/>
<polygon fill="midnightblue" stroke="midnightblue" points="629.536,-77.9796 621.086,-84.3706 631.677,-84.6441 629.536,-77.9796"/>
</g>
<!-- Node39 -->
<g id="node15" class="node"><title>Node39</title>
<a xlink:href="triple_pi0_8cc.html" target="_top" xlink:title="src/analysis/physics\l/production/triplePi0.cc">
<polygon fill="white" stroke="black" points="898,-7 898,-41 1014,-41 1014,-7 898,-7"/>
<text text-anchor="start" x="906" y="-28" font-family="Helvetica,sans-Serif" font-size="10.00">src/analysis/physics</text>
<text text-anchor="middle" x="956" y="-15" font-family="Helvetica,sans-Serif" font-size="10.00">/production/triplePi0.cc</text>
</a>
</g>
<!-- Node32&#45;&gt;Node39 -->
<g id="edge14" class="edge"><title>Node32&#45;&gt;Node39</title>
<path fill="none" stroke="midnightblue" d="M665.072,-87.0356C726.369,-79.7293 813.989,-67.108 889,-48 896.543,-46.0785 904.431,-43.6492 912.038,-41.0785"/>
<polygon fill="midnightblue" stroke="midnightblue" points="664.61,-83.5656 655.086,-88.2066 665.426,-90.518 664.61,-83.5656"/>
</g>
<!-- Node40 -->
<g id="node17" class="node"><title>Node40</title>
<a xlink:href="physics_2tunings_2_trigger_simulation_8cc.html" target="_top" xlink:title="src/analysis/physics\l/tunings/TriggerSimulation.cc">
<polygon fill="white" stroke="black" points="1031.5,-7 1031.5,-41 1174.5,-41 1174.5,-7 1031.5,-7"/>
<text text-anchor="start" x="1039.5" y="-28" font-family="Helvetica,sans-Serif" font-size="10.00">src/analysis/physics</text>
<text text-anchor="middle" x="1103" y="-15" font-family="Helvetica,sans-Serif" font-size="10.00">/tunings/TriggerSimulation.cc</text>
</a>
</g>
<!-- Node32&#45;&gt;Node40 -->
<g id="edge16" class="edge"><title>Node32&#45;&gt;Node40</title>
<path fill="none" stroke="midnightblue" d="M665.394,-90.9423C752.894,-85.3618 899.281,-73.0202 1023,-48 1032.24,-46.1317 1041.94,-43.6649 1051.28,-41.024"/>
<polygon fill="midnightblue" stroke="midnightblue" points="665.045,-87.4572 655.282,-91.5737 665.481,-94.4436 665.045,-87.4572"/>
</g>
</g>
</svg>
