<?xml version="1.0" encoding="UTF-8" standalone="no"?>
<!DOCTYPE svg PUBLIC "-//W3C//DTD SVG 1.1//EN"
 "http://www.w3.org/Graphics/SVG/1.1/DTD/svg11.dtd">
<!-- Generated by graphviz version 2.26.3 (20100126.1600)
 -->
<!-- Title: src/calibration/DataManager.h Pages: 1 -->
<svg width="3932pt" height="258pt"
 viewBox="0.00 0.00 3932.00 258.00" xmlns="http://www.w3.org/2000/svg" xmlns:xlink="http://www.w3.org/1999/xlink">
<g id="graph1" class="graph" transform="scale(1 1) rotate(0) translate(4 254)">
<title>src/calibration/DataManager.h</title>
<polygon fill="white" stroke="white" points="-4,5 -4,-254 3929,-254 3929,5 -4,5"/>
<!-- Node49 -->
<g id="node1" class="node"><title>Node49</title>
<polygon fill="#bfbfbf" stroke="black" points="1467.5,-228.5 1467.5,-249.5 1614.5,-249.5 1614.5,-228.5 1467.5,-228.5"/>
<text text-anchor="middle" x="1541" y="-236.5" font-family="Helvetica,sans-Serif" font-size="10.00">src/calibration/DataManager.h</text>
</g>
<!-- Node50 -->
<g id="node3" class="node"><title>Node50</title>
<a xlink:href="_ant-calib-dump_8cc.html" target="_top" xlink:title="progs/Ant&#45;calib&#45;dump.cc">
<polygon fill="white" stroke="black" points="0,-163.5 0,-184.5 122,-184.5 122,-163.5 0,-163.5"/>
<text text-anchor="middle" x="61" y="-171.5" font-family="Helvetica,sans-Serif" font-size="10.00">progs/Ant&#45;calib&#45;dump.cc</text>
</a>
</g>
<!-- Node49&#45;&gt;Node50 -->
<g id="edge2" class="edge"><title>Node49&#45;&gt;Node50</title>
<path fill="none" stroke="midnightblue" d="M1456.98,-238.604C1194.07,-236.984 389.239,-229.052 131,-192 119.449,-190.343 107.052,-187.514 95.9484,-184.584"/>
<polygon fill="midnightblue" stroke="midnightblue" points="1457.21,-242.105 1467.23,-238.665 1457.25,-235.105 1457.21,-242.105"/>
</g>
<!-- Node51 -->
<g id="node5" class="node"><title>Node51</title>
<a xlink:href="_ant-calib-readin_8cc.html" target="_top" xlink:title="progs/Ant&#45;calib&#45;readin.cc">
<polygon fill="white" stroke="black" points="139.5,-163.5 139.5,-184.5 264.5,-184.5 264.5,-163.5 139.5,-163.5"/>
<text text-anchor="middle" x="202" y="-171.5" font-family="Helvetica,sans-Serif" font-size="10.00">progs/Ant&#45;calib&#45;readin.cc</text>
</a>
</g>
<!-- Node49&#45;&gt;Node51 -->
<g id="edge4" class="edge"><title>Node49&#45;&gt;Node51</title>
<path fill="none" stroke="midnightblue" d="M1457.17,-238.202C1212.58,-235.506 502.609,-224.982 273,-192 261.294,-190.318 248.723,-187.483 237.46,-184.554"/>
<polygon fill="midnightblue" stroke="midnightblue" points="1457.38,-241.704 1467.42,-238.313 1457.46,-234.705 1457.38,-241.704"/>
</g>
<!-- Node52 -->
<g id="node7" class="node"><title>Node52</title>
<a xlink:href="_ant-calib-smooth_8cc.html" target="_top" xlink:title="progs/Ant&#45;calib&#45;smooth.cc">
<polygon fill="white" stroke="black" points="281.5,-163.5 281.5,-184.5 412.5,-184.5 412.5,-163.5 281.5,-163.5"/>
<text text-anchor="middle" x="347" y="-171.5" font-family="Helvetica,sans-Serif" font-size="10.00">progs/Ant&#45;calib&#45;smooth.cc</text>
</a>
</g>
<!-- Node49&#45;&gt;Node52 -->
<g id="edge6" class="edge"><title>Node49&#45;&gt;Node52</title>
<path fill="none" stroke="midnightblue" d="M1457.36,-237.622C1232.93,-233.583 620.988,-220.239 421,-192 408.824,-190.281 395.729,-187.435 383.989,-184.508"/>
<polygon fill="midnightblue" stroke="midnightblue" points="1457.36,-241.122 1467.43,-237.801 1457.49,-234.123 1457.36,-241.122"/>
</g>
<!-- Node53 -->
<g id="node9" class="node"><title>Node53</title>
<a xlink:href="_ant-calib-viewer_8cc.html" target="_top" xlink:title="progs/Ant&#45;calib&#45;viewer.cc">
<polygon fill="white" stroke="black" points="429.5,-163.5 429.5,-184.5 556.5,-184.5 556.5,-163.5 429.5,-163.5"/>
<text text-anchor="middle" x="493" y="-171.5" font-family="Helvetica,sans-Serif" font-size="10.00">progs/Ant&#45;calib&#45;viewer.cc</text>
</a>
</g>
<!-- Node49&#45;&gt;Node53 -->
<g id="edge8" class="edge"><title>Node49&#45;&gt;Node53</title>
<path fill="none" stroke="midnightblue" d="M1457.17,-237.084C1253.34,-232.082 736.019,-217.244 565,-192 553.273,-190.269 540.676,-187.457 529.349,-184.566"/>
<polygon fill="midnightblue" stroke="midnightblue" points="1457.14,-240.584 1467.22,-237.329 1457.31,-233.586 1457.14,-240.584"/>
</g>
<!-- Node54 -->
<g id="node11" class="node"><title>Node54</title>
<a xlink:href="_ant-calib_8cc.html" target="_top" xlink:title="progs/Ant&#45;calib.cc">
<polygon fill="white" stroke="black" points="573.5,-163.5 573.5,-184.5 668.5,-184.5 668.5,-163.5 573.5,-163.5"/>
<text text-anchor="middle" x="621" y="-171.5" font-family="Helvetica,sans-Serif" font-size="10.00">progs/Ant&#45;calib.cc</text>
</a>
</g>
<!-- Node49&#45;&gt;Node54 -->
<g id="edge10" class="edge"><title>Node49&#45;&gt;Node54</title>
<path fill="none" stroke="midnightblue" d="M1457.14,-237.176C1270.37,-232.667 824.955,-219.332 677,-192 667.661,-190.275 657.717,-187.427 648.839,-184.501"/>
<polygon fill="midnightblue" stroke="midnightblue" points="1457.11,-240.676 1467.19,-237.416 1457.27,-233.678 1457.11,-240.676"/>
</g>
<!-- Node55 -->
<g id="node13" class="node"><title>Node55</title>
<a xlink:href="_ant-_e_corr_8cc.html" target="_top" xlink:title="progs/Ant&#45;ECorr.cc">
<polygon fill="white" stroke="black" points="685.5,-163.5 685.5,-184.5 786.5,-184.5 786.5,-163.5 685.5,-163.5"/>
<text text-anchor="middle" x="736" y="-171.5" font-family="Helvetica,sans-Serif" font-size="10.00">progs/Ant&#45;ECorr.cc</text>
</a>
</g>
<!-- Node49&#45;&gt;Node55 -->
<g id="edge12" class="edge"><title>Node49&#45;&gt;Node55</title>
<path fill="none" stroke="midnightblue" d="M1457.3,-235.915C1290.97,-229.418 924.234,-213.166 800,-192 789.532,-190.217 778.322,-187.39 768.256,-184.501"/>
<polygon fill="midnightblue" stroke="midnightblue" points="1457.35,-239.419 1467.48,-236.31 1457.62,-232.425 1457.35,-239.419"/>
</g>
<!-- Node56 -->
<g id="node15" class="node"><title>Node56</title>
<a xlink:href="_ant-make_tagg_eff_8cc.html" target="_top" xlink:title="progs/Ant&#45;makeTaggEff.cc">
<polygon fill="white" stroke="black" points="1254,-85.5 1254,-106.5 1388,-106.5 1388,-85.5 1254,-85.5"/>
<text text-anchor="middle" x="1321" y="-93.5" font-family="Helvetica,sans-Serif" font-size="10.00">progs/Ant&#45;makeTaggEff.cc</text>
</a>
</g>
<!-- Node49&#45;&gt;Node56 -->
<g id="edge14" class="edge"><title>Node49&#45;&gt;Node56</title>
<path fill="none" stroke="midnightblue" d="M1457.12,-236.462C1274.21,-230.519 854.04,-214.483 833,-192 822.067,-180.318 822.399,-167.984 833,-156 860.43,-124.991 1126.53,-106.523 1253.82,-99.3968"/>
<polygon fill="midnightblue" stroke="midnightblue" points="1457.13,-239.964 1467.24,-236.788 1457.36,-232.968 1457.13,-239.964"/>
</g>
<!-- Node57 -->
<g id="node17" class="node"><title>Node57</title>
<a xlink:href="_ant-mc-prefilter_8cc.html" target="_top" xlink:title="progs/Ant&#45;mc&#45;prefilter.cc">
<polygon fill="white" stroke="black" points="842,-163.5 842,-184.5 966,-184.5 966,-163.5 842,-163.5"/>
<text text-anchor="middle" x="904" y="-171.5" font-family="Helvetica,sans-Serif" font-size="10.00">progs/Ant&#45;mc&#45;prefilter.cc</text>
</a>
</g>
<!-- Node49&#45;&gt;Node57 -->
<g id="edge16" class="edge"><title>Node49&#45;&gt;Node57</title>
<path fill="none" stroke="midnightblue" d="M1457.13,-236.369C1346.16,-231.901 1144.76,-220.366 975,-192 963.712,-190.114 951.585,-187.329 940.605,-184.511"/>
<polygon fill="midnightblue" stroke="midnightblue" points="1457.12,-239.871 1467.25,-236.767 1457.4,-232.877 1457.12,-239.871"/>
</g>
<!-- Node58 -->
<g id="node19" class="node"><title>Node58</title>
<a xlink:href="_ant-mcsmearing_8cc.html" target="_top" xlink:title="progs/Ant&#45;mcsmearing.cc">
<polygon fill="white" stroke="black" points="984,-163.5 984,-184.5 1112,-184.5 1112,-163.5 984,-163.5"/>
<text text-anchor="middle" x="1048" y="-171.5" font-family="Helvetica,sans-Serif" font-size="10.00">progs/Ant&#45;mcsmearing.cc</text>
</a>
</g>
<!-- Node49&#45;&gt;Node58 -->
<g id="edge18" class="edge"><title>Node49&#45;&gt;Node58</title>
<path fill="none" stroke="midnightblue" d="M1457.24,-232.861C1372.14,-225.866 1236.74,-212.654 1121,-192 1109.82,-190.005 1097.81,-187.287 1086.82,-184.568"/>
<polygon fill="midnightblue" stroke="midnightblue" points="1457.12,-236.362 1467.37,-233.683 1457.68,-229.385 1457.12,-236.362"/>
</g>
<!-- Node59 -->
<g id="node21" class="node"><title>Node59</title>
<a xlink:href="_ant-smooth_tagg_eff_8cc.html" target="_top" xlink:title="progs/Ant&#45;smoothTaggEff.cc">
<polygon fill="white" stroke="black" points="1130,-163.5 1130,-184.5 1272,-184.5 1272,-163.5 1130,-163.5"/>
<text text-anchor="middle" x="1201" y="-171.5" font-family="Helvetica,sans-Serif" font-size="10.00">progs/Ant&#45;smoothTaggEff.cc</text>
</a>
</g>
<!-- Node49&#45;&gt;Node59 -->
<g id="edge20" class="edge"><title>Node49&#45;&gt;Node59</title>
<path fill="none" stroke="midnightblue" d="M1468.43,-226.732C1416.2,-217.695 1344.11,-204.799 1281,-192 1269.7,-189.708 1257.54,-187.065 1246.2,-184.521"/>
<polygon fill="midnightblue" stroke="midnightblue" points="1468.16,-230.236 1478.61,-228.487 1469.35,-223.338 1468.16,-230.236"/>
</g>
<!-- Node60 -->
<g id="node23" class="node"><title>Node60</title>
<a xlink:href="_ant-tuning-viewer_8cc.html" target="_top" xlink:title="progs/Ant&#45;tuning&#45;viewer.cc">
<polygon fill="white" stroke="black" points="1289.5,-163.5 1289.5,-184.5 1422.5,-184.5 1422.5,-163.5 1289.5,-163.5"/>
<text text-anchor="middle" x="1356" y="-171.5" font-family="Helvetica,sans-Serif" font-size="10.00">progs/Ant&#45;tuning&#45;viewer.cc</text>
</a>
</g>
<!-- Node49&#45;&gt;Node60 -->
<g id="edge22" class="edge"><title>Node49&#45;&gt;Node60</title>
<path fill="none" stroke="midnightblue" d="M1501.1,-224.982C1466.58,-212.854 1417.43,-195.583 1386.12,-184.584"/>
<polygon fill="midnightblue" stroke="midnightblue" points="1500.27,-228.399 1510.86,-228.412 1502.59,-221.795 1500.27,-228.399"/>
</g>
<!-- Node61 -->
<g id="node25" class="node"><title>Node61</title>
<a xlink:href="_ant_8cc.html" target="_top" xlink:title="Main Ant executable. ">
<polygon fill="white" stroke="black" points="1440,-163.5 1440,-184.5 1512,-184.5 1512,-163.5 1440,-163.5"/>
<text text-anchor="middle" x="1476" y="-171.5" font-family="Helvetica,sans-Serif" font-size="10.00">progs/Ant.cc</text>
</a>
</g>
<!-- Node49&#45;&gt;Node61 -->
<g id="edge24" class="edge"><title>Node49&#45;&gt;Node61</title>
<path fill="none" stroke="midnightblue" d="M1523.1,-221.099C1511.36,-209.357 1496.4,-194.404 1486.53,-184.534"/>
<polygon fill="midnightblue" stroke="midnightblue" points="1520.72,-223.67 1530.27,-228.267 1525.67,-218.721 1520.72,-223.67"/>
</g>
<!-- Node62 -->
<g id="node27" class="node"><title>Node62</title>
<a xlink:href="_data_manager_8cc.html" target="_top" xlink:title="src/calibration/DataManager.cc">
<polygon fill="white" stroke="black" points="1530,-163.5 1530,-184.5 1682,-184.5 1682,-163.5 1530,-163.5"/>
<text text-anchor="middle" x="1606" y="-171.5" font-family="Helvetica,sans-Serif" font-size="10.00">src/calibration/DataManager.cc</text>
</a>
</g>
<!-- Node49&#45;&gt;Node62 -->
<g id="edge26" class="edge"><title>Node49&#45;&gt;Node62</title>
<path fill="none" stroke="midnightblue" d="M1558.9,-221.099C1570.64,-209.357 1585.6,-194.404 1595.47,-184.534"/>
<polygon fill="midnightblue" stroke="midnightblue" points="1556.33,-218.721 1551.73,-228.267 1561.28,-223.67 1556.33,-218.721"/>
</g>
<!-- Node63 -->
<g id="node29" class="node"><title>Node63</title>
<a xlink:href="_calib_type_8cc.html" target="_top" xlink:title="src/calibration/modules\l/CalibType.cc">
<polygon fill="white" stroke="black" points="1699.5,-157 1699.5,-191 1816.5,-191 1816.5,-157 1699.5,-157"/>
<text text-anchor="start" x="1707.5" y="-178" font-family="Helvetica,sans-Serif" font-size="10.00">src/calibration/modules</text>
<text text-anchor="middle" x="1758" y="-165" font-family="Helvetica,sans-Serif" font-size="10.00">/CalibType.cc</text>
</a>
</g>
<!-- Node49&#45;&gt;Node63 -->
<g id="edge28" class="edge"><title>Node49&#45;&gt;Node63</title>
<path fill="none" stroke="midnightblue" d="M1586.28,-225.437C1619.63,-215.447 1665.22,-201.791 1701.04,-191.06"/>
<polygon fill="midnightblue" stroke="midnightblue" points="1584.92,-222.19 1576.35,-228.412 1586.93,-228.895 1584.92,-222.19"/>
</g>
<!-- Node64 -->
<g id="node31" class="node"><title>Node64</title>
<a xlink:href="calibration_2modules_2_c_b___time_walk_8cc.html" target="_top" xlink:title="src/calibration/modules\l/CB_TimeWalk.cc">
<polygon fill="white" stroke="black" points="1833.5,-157 1833.5,-191 1950.5,-191 1950.5,-157 1833.5,-157"/>
<text text-anchor="start" x="1841.5" y="-178" font-family="Helvetica,sans-Serif" font-size="10.00">src/calibration/modules</text>
<text text-anchor="middle" x="1892" y="-165" font-family="Helvetica,sans-Serif" font-size="10.00">/CB_TimeWalk.cc</text>
</a>
</g>
<!-- Node49&#45;&gt;Node64 -->
<g id="edge30" class="edge"><title>Node49&#45;&gt;Node64</title>
<path fill="none" stroke="midnightblue" d="M1624.64,-227.371C1681.43,-218.935 1758.07,-206.492 1825,-192 1827.71,-191.414 1830.47,-190.788 1833.25,-190.133"/>
<polygon fill="midnightblue" stroke="midnightblue" points="1624.02,-223.925 1614.63,-228.847 1625.04,-230.85 1624.02,-223.925"/>
</g>
<!-- Node65 -->
<g id="node33" class="node"><title>Node65</title>
<a xlink:href="_cluster_correction_8cc.html" target="_top" xlink:title="src/calibration/modules\l/ClusterCorrection.cc">
<polygon fill="white" stroke="black" points="1967.5,-157 1967.5,-191 2084.5,-191 2084.5,-157 1967.5,-157"/>
<text text-anchor="start" x="1975.5" y="-178" font-family="Helvetica,sans-Serif" font-size="10.00">src/calibration/modules</text>
<text text-anchor="middle" x="2026" y="-165" font-family="Helvetica,sans-Serif" font-size="10.00">/ClusterCorrection.cc</text>
</a>
</g>
<!-- Node49&#45;&gt;Node65 -->
<g id="edge32" class="edge"><title>Node49&#45;&gt;Node65</title>
<path fill="none" stroke="midnightblue" d="M1624.83,-233.303C1709.62,-226.669 1844.2,-213.747 1959,-192 1961.72,-191.484 1964.5,-190.916 1967.29,-190.309"/>
<polygon fill="midnightblue" stroke="midnightblue" points="1624.44,-229.822 1614.74,-234.081 1624.98,-236.802 1624.44,-229.822"/>
</g>
<!-- Node66 -->
<g id="node35" class="node"><title>Node66</title>
<a xlink:href="_energy_8cc.html" target="_top" xlink:title="src/calibration/modules\l/Energy.cc">
<polygon fill="white" stroke="black" points="2101.5,-157 2101.5,-191 2218.5,-191 2218.5,-157 2101.5,-157"/>
<text text-anchor="start" x="2109.5" y="-178" font-family="Helvetica,sans-Serif" font-size="10.00">src/calibration/modules</text>
<text text-anchor="middle" x="2160" y="-165" font-family="Helvetica,sans-Serif" font-size="10.00">/Energy.cc</text>
</a>
</g>
<!-- Node49&#45;&gt;Node66 -->
<g id="edge34" class="edge"><title>Node49&#45;&gt;Node66</title>
<path fill="none" stroke="midnightblue" d="M1625,-236.481C1733.73,-232.164 1928.73,-220.825 2093,-192 2095.73,-191.521 2098.51,-190.983 2101.31,-190.4"/>
<polygon fill="midnightblue" stroke="midnightblue" points="1624.61,-232.994 1614.75,-236.877 1624.88,-239.988 1624.61,-232.994"/>
</g>
<!-- Node67 -->
<g id="node37" class="node"><title>Node67</title>
<a xlink:href="_energy___g_u_i_8cc.html" target="_top" xlink:title="src/calibration/modules\l/Energy_GUI.cc">
<polygon fill="white" stroke="black" points="2235.5,-157 2235.5,-191 2352.5,-191 2352.5,-157 2235.5,-157"/>
<text text-anchor="start" x="2243.5" y="-178" font-family="Helvetica,sans-Serif" font-size="10.00">src/calibration/modules</text>
<text text-anchor="middle" x="2294" y="-165" font-family="Helvetica,sans-Serif" font-size="10.00">/Energy_GUI.cc</text>
</a>
</g>
<!-- Node49&#45;&gt;Node67 -->
<g id="edge36" class="edge"><title>Node49&#45;&gt;Node67</title>
<path fill="none" stroke="midnightblue" d="M1624.81,-235.296C1781.55,-228.031 2113.44,-210.96 2227,-192 2229.73,-191.544 2232.51,-191.024 2235.32,-190.457"/>
<polygon fill="midnightblue" stroke="midnightblue" points="1624.57,-231.803 1614.75,-235.76 1624.9,-238.796 1624.57,-231.803"/>
</g>
<!-- Node68 -->
<g id="node39" class="node"><title>Node68</title>
<a xlink:href="calibration_2modules_2_p_i_d___phi_angle_8cc.html" target="_top" xlink:title="src/calibration/modules\l/PID_PhiAngle.cc">
<polygon fill="white" stroke="black" points="2369.5,-157 2369.5,-191 2486.5,-191 2486.5,-157 2369.5,-157"/>
<text text-anchor="start" x="2377.5" y="-178" font-family="Helvetica,sans-Serif" font-size="10.00">src/calibration/modules</text>
<text text-anchor="middle" x="2428" y="-165" font-family="Helvetica,sans-Serif" font-size="10.00">/PID_PhiAngle.cc</text>
</a>
</g>
<!-- Node49&#45;&gt;Node68 -->
<g id="edge38" class="edge"><title>Node49&#45;&gt;Node68</title>
<path fill="none" stroke="midnightblue" d="M1624.98,-236.374C1804.62,-230.401 2221.18,-214.544 2361,-192 2363.73,-191.559 2366.52,-191.052 2369.32,-190.494"/>
<polygon fill="midnightblue" stroke="midnightblue" points="1624.67,-232.883 1614.79,-236.711 1624.91,-239.879 1624.67,-232.883"/>
</g>
<!-- Node69 -->
<g id="node41" class="node"><title>Node69</title>
<a xlink:href="_tagg_eff_8cc.html" target="_top" xlink:title="src/calibration/modules\l/TaggEff.cc">
<polygon fill="white" stroke="black" points="2503.5,-157 2503.5,-191 2620.5,-191 2620.5,-157 2503.5,-157"/>
<text text-anchor="start" x="2511.5" y="-178" font-family="Helvetica,sans-Serif" font-size="10.00">src/calibration/modules</text>
<text text-anchor="middle" x="2562" y="-165" font-family="Helvetica,sans-Serif" font-size="10.00">/TaggEff.cc</text>
</a>
</g>
<!-- Node49&#45;&gt;Node69 -->
<g id="edge40" class="edge"><title>Node49&#45;&gt;Node69</title>
<path fill="none" stroke="midnightblue" d="M1624.72,-237.165C1825.2,-232.401 2328.55,-218.152 2495,-192 2497.74,-191.57 2500.52,-191.072 2503.33,-190.522"/>
<polygon fill="midnightblue" stroke="midnightblue" points="1624.45,-233.67 1614.54,-237.405 1624.62,-240.668 1624.45,-233.67"/>
</g>
<!-- Node70 -->
<g id="node43" class="node"><title>Node70</title>
<a xlink:href="_t_a_p_s___to_f_8cc.html" target="_top" xlink:title="src/calibration/modules\l/TAPS_ToF.cc">
<polygon fill="white" stroke="black" points="2637.5,-157 2637.5,-191 2754.5,-191 2754.5,-157 2637.5,-157"/>
<text text-anchor="start" x="2645.5" y="-178" font-family="Helvetica,sans-Serif" font-size="10.00">src/calibration/modules</text>
<text text-anchor="middle" x="2696" y="-165" font-family="Helvetica,sans-Serif" font-size="10.00">/TAPS_ToF.cc</text>
</a>
</g>
<!-- Node49&#45;&gt;Node70 -->
<g id="edge42" class="edge"><title>Node49&#45;&gt;Node70</title>
<path fill="none" stroke="midnightblue" d="M1624.96,-237.752C1845.21,-234.099 2435.86,-221.747 2629,-192 2631.74,-191.578 2634.52,-191.087 2637.33,-190.542"/>
<polygon fill="midnightblue" stroke="midnightblue" points="1624.7,-234.256 1614.76,-237.92 1624.81,-241.255 1624.7,-234.256"/>
</g>
<!-- Node71 -->
<g id="node45" class="node"><title>Node71</title>
<a xlink:href="calibration_2modules_2_time_8cc.html" target="_top" xlink:title="src/calibration/modules\l/Time.cc">
<polygon fill="white" stroke="black" points="2771.5,-157 2771.5,-191 2888.5,-191 2888.5,-157 2771.5,-157"/>
<text text-anchor="start" x="2779.5" y="-178" font-family="Helvetica,sans-Serif" font-size="10.00">src/calibration/modules</text>
<text text-anchor="middle" x="2830" y="-165" font-family="Helvetica,sans-Serif" font-size="10.00">/Time.cc</text>
</a>
</g>
<!-- Node49&#45;&gt;Node71 -->
<g id="edge44" class="edge"><title>Node49&#45;&gt;Node71</title>
<path fill="none" stroke="midnightblue" d="M1624.73,-238.22C1863.19,-235.609 2542.87,-225.371 2763,-192 2765.74,-191.585 2768.53,-191.099 2771.33,-190.558"/>
<polygon fill="midnightblue" stroke="midnightblue" points="1624.69,-234.72 1614.73,-238.327 1624.77,-241.719 1624.69,-234.72"/>
</g>
<!-- Node72 -->
<g id="node47" class="node"><title>Node72</title>
<a xlink:href="_setup_8h.html" target="_top" xlink:title="src/expconfig/setups\l/Setup.h">
<polygon fill="white" stroke="black" points="2905.5,-157 2905.5,-191 3012.5,-191 3012.5,-157 2905.5,-157"/>
<text text-anchor="start" x="2913.5" y="-178" font-family="Helvetica,sans-Serif" font-size="10.00">src/expconfig/setups</text>
<text text-anchor="middle" x="2959" y="-165" font-family="Helvetica,sans-Serif" font-size="10.00">/Setup.h</text>
</a>
</g>
<!-- Node49&#45;&gt;Node72 -->
<g id="edge46" class="edge"><title>Node49&#45;&gt;Node72</title>
<path fill="none" stroke="midnightblue" d="M1625.11,-237.297C1901.63,-231.531 2772.06,-211.984 2897,-192 2899.77,-191.557 2902.58,-191.03 2905.42,-190.438"/>
<polygon fill="midnightblue" stroke="midnightblue" points="1624.67,-233.806 1614.74,-237.513 1624.82,-240.804 1624.67,-233.806"/>
</g>
<!-- Node96 -->
<g id="node98" class="node"><title>Node96</title>
<a xlink:href="_test_data_manager_8cc.html" target="_top" xlink:title="test/calibration/TestData\lManager.cc">
<polygon fill="white" stroke="black" points="3030,-157 3030,-191 3154,-191 3154,-157 3030,-157"/>
<text text-anchor="start" x="3038" y="-178" font-family="Helvetica,sans-Serif" font-size="10.00">test/calibration/TestData</text>
<text text-anchor="middle" x="3092" y="-165" font-family="Helvetica,sans-Serif" font-size="10.00">Manager.cc</text>
</a>
</g>
<!-- Node49&#45;&gt;Node96 -->
<g id="edge100" class="edge"><title>Node49&#45;&gt;Node96</title>
<path fill="none" stroke="midnightblue" d="M1624.98,-238.722C1896.45,-237.448 2748.47,-230.411 3021,-192 3023.9,-191.592 3026.84,-191.112 3029.81,-190.576"/>
<polygon fill="midnightblue" stroke="midnightblue" points="1624.78,-235.223 1614.8,-238.768 1624.81,-242.223 1624.78,-235.223"/>
</g>
<!-- Node72&#45;&gt;Node56 -->
<g id="edge52" class="edge"><title>Node72&#45;&gt;Node56</title>
<path fill="none" stroke="midnightblue" d="M2895.17,-156.966C2776.73,-151.15 1673.48,-109.349 1388.1,-98.5411"/>
<polygon fill="midnightblue" stroke="midnightblue" points="2895.23,-160.475 2905.42,-157.574 2895.64,-153.488 2895.23,-160.475"/>
</g>
<!-- Node73 -->
<g id="node49" class="node"><title>Node73</title>
<a xlink:href="_ant-fake_raw_8cc.html" target="_top" xlink:title="progs/Ant&#45;fakeRaw.cc">
<polygon fill="white" stroke="black" points="1964,-85.5 1964,-106.5 2078,-106.5 2078,-85.5 1964,-85.5"/>
<text text-anchor="middle" x="2021" y="-93.5" font-family="Helvetica,sans-Serif" font-size="10.00">progs/Ant&#45;fakeRaw.cc</text>
</a>
</g>
<!-- Node72&#45;&gt;Node73 -->
<g id="edge48" class="edge"><title>Node72&#45;&gt;Node73</title>
<path fill="none" stroke="midnightblue" d="M2895.35,-155.958C2539.55,-99.0616 2437.14,-189.735 2087,-120 2072.53,-117.118 2057,-111.599 2044.63,-106.579"/>
<polygon fill="midnightblue" stroke="midnightblue" points="2894.98,-159.444 2905.41,-157.595 2896.1,-152.535 2894.98,-159.444"/>
</g>
<!-- Node74 -->
<g id="node51" class="node"><title>Node74</title>
<a xlink:href="_ant-info_8cc.html" target="_top" xlink:title="progs/Ant&#45;info.cc">
<polygon fill="white" stroke="black" points="2095.5,-85.5 2095.5,-106.5 2186.5,-106.5 2186.5,-85.5 2095.5,-85.5"/>
<text text-anchor="middle" x="2141" y="-93.5" font-family="Helvetica,sans-Serif" font-size="10.00">progs/Ant&#45;info.cc</text>
</a>
</g>
<!-- Node72&#45;&gt;Node74 -->
<g id="edge50" class="edge"><title>Node72&#45;&gt;Node74</title>
<path fill="none" stroke="midnightblue" d="M2895.29,-155.943C2586.97,-105.986 2495.58,-191.88 2195,-120 2183.03,-117.137 2170.41,-111.684 2160.39,-106.699"/>
<polygon fill="midnightblue" stroke="midnightblue" points="2894.97,-159.438 2905.41,-157.618 2896.11,-152.532 2894.97,-159.438"/>
</g>
<!-- Node75 -->
<g id="node54" class="node"><title>Node75</title>
<a xlink:href="_ant-rawdump_8cc.html" target="_top" xlink:title="progs/Ant&#45;rawdump.cc">
<polygon fill="white" stroke="black" points="2203.5,-85.5 2203.5,-106.5 2318.5,-106.5 2318.5,-85.5 2203.5,-85.5"/>
<text text-anchor="middle" x="2261" y="-93.5" font-family="Helvetica,sans-Serif" font-size="10.00">progs/Ant&#45;rawdump.cc</text>
</a>
</g>
<!-- Node72&#45;&gt;Node75 -->
<g id="edge54" class="edge"><title>Node72&#45;&gt;Node75</title>
<path fill="none" stroke="midnightblue" d="M2895.28,-155.921C2645.03,-113.902 2572.2,-171.218 2327,-120 2312.68,-117.008 2297.28,-111.548 2284.96,-106.591"/>
<polygon fill="midnightblue" stroke="midnightblue" points="2894.95,-159.416 2905.4,-157.658 2896.14,-152.517 2894.95,-159.416"/>
</g>
<!-- Node76 -->
<g id="node56" class="node"><title>Node76</title>
<a xlink:href="_proton_vertex_test_8cc.html" target="_top" xlink:title="src/analysis/physics\l/scratch/wolfes/ProtonVertex\lTest.cc">
<polygon fill="white" stroke="black" points="2335.5,-72.5 2335.5,-119.5 2478.5,-119.5 2478.5,-72.5 2335.5,-72.5"/>
<text text-anchor="start" x="2343.5" y="-106.5" font-family="Helvetica,sans-Serif" font-size="10.00">src/analysis/physics</text>
<text text-anchor="start" x="2343.5" y="-93.5" font-family="Helvetica,sans-Serif" font-size="10.00">/scratch/wolfes/ProtonVertex</text>
<text text-anchor="middle" x="2407" y="-80.5" font-family="Helvetica,sans-Serif" font-size="10.00">Test.cc</text>
</a>
</g>
<!-- Node72&#45;&gt;Node76 -->
<g id="edge56" class="edge"><title>Node72&#45;&gt;Node76</title>
<path fill="none" stroke="midnightblue" d="M2895.32,-155.888C2715.33,-123.479 2663.4,-153.838 2487,-120 2484.29,-119.481 2481.55,-118.907 2478.79,-118.289"/>
<polygon fill="midnightblue" stroke="midnightblue" points="2894.92,-159.372 2905.39,-157.741 2896.19,-152.488 2894.92,-159.372"/>
</g>
<!-- Node77 -->
<g id="node58" class="node"><title>Node77</title>
<a xlink:href="_exp_config_8cc.html" target="_top" xlink:title="src/expconfig/ExpConfig.cc">
<polygon fill="white" stroke="black" points="2495.5,-85.5 2495.5,-106.5 2632.5,-106.5 2632.5,-85.5 2495.5,-85.5"/>
<text text-anchor="middle" x="2564" y="-93.5" font-family="Helvetica,sans-Serif" font-size="10.00">src/expconfig/ExpConfig.cc</text>
</a>
</g>
<!-- Node72&#45;&gt;Node77 -->
<g id="edge58" class="edge"><title>Node72&#45;&gt;Node77</title>
<path fill="none" stroke="midnightblue" d="M2895.31,-155.8C2782.8,-132.641 2749.93,-144.465 2641,-120 2625.29,-116.471 2608.15,-111.27 2594.05,-106.61"/>
<polygon fill="midnightblue" stroke="midnightblue" points="2894.84,-159.279 2905.35,-157.916 2896.29,-152.43 2894.84,-159.279"/>
</g>
<!-- Node78 -->
<g id="node60" class="node"><title>Node78</title>
<a xlink:href="_setup_8cc.html" target="_top" xlink:title="src/expconfig/setups\l/Setup.cc">
<polygon fill="white" stroke="black" points="2649.5,-79 2649.5,-113 2756.5,-113 2756.5,-79 2649.5,-79"/>
<text text-anchor="start" x="2657.5" y="-100" font-family="Helvetica,sans-Serif" font-size="10.00">src/expconfig/setups</text>
<text text-anchor="middle" x="2703" y="-87" font-family="Helvetica,sans-Serif" font-size="10.00">/Setup.cc</text>
</a>
</g>
<!-- Node72&#45;&gt;Node78 -->
<g id="edge60" class="edge"><title>Node72&#45;&gt;Node78</title>
<path fill="none" stroke="midnightblue" d="M2895.46,-155.607C2836.76,-139.422 2819.83,-138.036 2765,-120 2758.64,-117.908 2751.98,-115.532 2745.48,-113.108"/>
<polygon fill="midnightblue" stroke="midnightblue" points="2894.67,-159.022 2905.25,-158.336 2896.55,-152.279 2894.67,-159.022"/>
</g>
<!-- Node79 -->
<g id="node62" class="node"><title>Node79</title>
<a xlink:href="_setup__2007___base_8h.html" target="_top" xlink:title="src/expconfig/setups\l/Setup_2007_Base.h">
<polygon fill="white" stroke="black" points="2773.5,-79 2773.5,-113 2880.5,-113 2880.5,-79 2773.5,-79"/>
<text text-anchor="start" x="2781.5" y="-100" font-family="Helvetica,sans-Serif" font-size="10.00">src/expconfig/setups</text>
<text text-anchor="middle" x="2827" y="-87" font-family="Helvetica,sans-Serif" font-size="10.00">/Setup_2007_Base.h</text>
</a>
</g>
<!-- Node72&#45;&gt;Node79 -->
<g id="edge62" class="edge"><title>Node72&#45;&gt;Node79</title>
<path fill="none" stroke="midnightblue" d="M2921.15,-151.635C2900.39,-139.367 2875.06,-124.398 2855.9,-113.078"/>
<polygon fill="midnightblue" stroke="midnightblue" points="2919.64,-154.808 2930.03,-156.883 2923.2,-148.782 2919.64,-154.808"/>
</g>
<!-- Node82 -->
<g id="node68" class="node"><title>Node82</title>
<a xlink:href="_setup__2007___base_8cc.html" target="_top" xlink:title="src/expconfig/setups\l/Setup_2007_Base.cc">
<polygon fill="white" stroke="black" points="2770.5,-1 2770.5,-35 2883.5,-35 2883.5,-1 2770.5,-1"/>
<text text-anchor="start" x="2778.5" y="-22" font-family="Helvetica,sans-Serif" font-size="10.00">src/expconfig/setups</text>
<text text-anchor="middle" x="2827" y="-9" font-family="Helvetica,sans-Serif" font-size="10.00">/Setup_2007_Base.cc</text>
</a>
</g>
<!-- Node72&#45;&gt;Node82 -->
<g id="edge70" class="edge"><title>Node72&#45;&gt;Node82</title>
<path fill="none" stroke="midnightblue" d="M2943.86,-148.229C2930.68,-126.783 2910.38,-95.9924 2889,-72 2876.94,-58.4654 2861.59,-45.0698 2849.18,-35.0062"/>
<polygon fill="midnightblue" stroke="midnightblue" points="2940.88,-150.063 2949.05,-156.801 2946.86,-146.435 2940.88,-150.063"/>
</g>
<!-- Node83 -->
<g id="node71" class="node"><title>Node83</title>
<a xlink:href="_setup__2012__12___compton_8cc.html" target="_top" xlink:title="src/expconfig/setups\l/Setup_2012_12_Compton.cc">
<polygon fill="white" stroke="black" points="2936,-79 2936,-113 3082,-113 3082,-79 2936,-79"/>
<text text-anchor="start" x="2944" y="-100" font-family="Helvetica,sans-Serif" font-size="10.00">src/expconfig/setups</text>
<text text-anchor="middle" x="3009" y="-87" font-family="Helvetica,sans-Serif" font-size="10.00">/Setup_2012_12_Compton.cc</text>
</a>
</g>
<!-- Node72&#45;&gt;Node83 -->
<g id="edge72" class="edge"><title>Node72&#45;&gt;Node83</title>
<path fill="none" stroke="midnightblue" d="M2975.68,-147.975C2983.01,-136.552 2991.4,-123.453 2997.93,-113.262"/>
<polygon fill="midnightblue" stroke="midnightblue" points="2972.55,-146.382 2970.1,-156.689 2978.44,-150.159 2972.55,-146.382"/>
</g>
<!-- Node84 -->
<g id="node73" class="node"><title>Node84</title>
<a xlink:href="_setup__2014___e_p_t_8h.html" target="_top" xlink:title="src/expconfig/setups\l/Setup_2014_EPT.h">
<polygon fill="white" stroke="black" points="3099.5,-79 3099.5,-113 3206.5,-113 3206.5,-79 3099.5,-79"/>
<text text-anchor="start" x="3107.5" y="-100" font-family="Helvetica,sans-Serif" font-size="10.00">src/expconfig/setups</text>
<text text-anchor="middle" x="3153" y="-87" font-family="Helvetica,sans-Serif" font-size="10.00">/Setup_2014_EPT.h</text>
</a>
</g>
<!-- Node72&#45;&gt;Node84 -->
<g id="edge74" class="edge"><title>Node72&#45;&gt;Node84</title>
<path fill="none" stroke="midnightblue" d="M3010.97,-153.106C3042.12,-140.581 3081.23,-124.854 3110.53,-113.078"/>
<polygon fill="midnightblue" stroke="midnightblue" points="3009.55,-149.905 3001.57,-156.883 3012.16,-156.399 3009.55,-149.905"/>
</g>
<!-- Node89 -->
<g id="node83" class="node"><title>Node89</title>
<a xlink:href="_setup__2015__01___pion_8cc.html" target="_top" xlink:title="src/expconfig/setups\l/Setup_2015_01_Pion.cc">
<polygon fill="white" stroke="black" points="3532.5,-1 3532.5,-35 3657.5,-35 3657.5,-1 3532.5,-1"/>
<text text-anchor="start" x="3540.5" y="-22" font-family="Helvetica,sans-Serif" font-size="10.00">src/expconfig/setups</text>
<text text-anchor="middle" x="3595" y="-9" font-family="Helvetica,sans-Serif" font-size="10.00">/Setup_2015_01_Pion.cc</text>
</a>
</g>
<!-- Node72&#45;&gt;Node89 -->
<g id="edge84" class="edge"><title>Node72&#45;&gt;Node89</title>
<path fill="none" stroke="midnightblue" d="M3022.6,-155.84C3108.8,-137.785 3142.6,-163.626 3215,-120 3238.31,-105.957 3229.34,-85.4397 3253,-72 3358.65,-11.9853 3404.69,-58.9682 3524,-36 3526.75,-35.4712 3529.55,-34.9003 3532.37,-34.2985"/>
<polygon fill="midnightblue" stroke="midnightblue" points="3021.68,-152.461 3012.68,-158.062 3023.21,-159.292 3021.68,-152.461"/>
</g>
<!-- Node90 -->
<g id="node85" class="node"><title>Node90</title>
<a xlink:href="_setup__2015__01___pion_8h.html" target="_top" xlink:title="src/expconfig/setups\l/Setup_2015_01_Pion.h">
<polygon fill="white" stroke="black" points="3262,-79 3262,-113 3382,-113 3382,-79 3262,-79"/>
<text text-anchor="start" x="3270" y="-100" font-family="Helvetica,sans-Serif" font-size="10.00">src/expconfig/setups</text>
<text text-anchor="middle" x="3322" y="-87" font-family="Helvetica,sans-Serif" font-size="10.00">/Setup_2015_01_Pion.h</text>
</a>
</g>
<!-- Node72&#45;&gt;Node90 -->
<g id="edge86" class="edge"><title>Node72&#45;&gt;Node90</title>
<path fill="none" stroke="midnightblue" d="M3022.56,-155.799C3122.51,-134.315 3151.77,-143.085 3248,-120 3256.14,-118.047 3264.68,-115.632 3272.95,-113.093"/>
<polygon fill="midnightblue" stroke="midnightblue" points="3021.68,-152.409 3012.66,-157.975 3023.18,-159.246 3021.68,-152.409"/>
</g>
<!-- Node91 -->
<g id="node88" class="node"><title>Node91</title>
<a xlink:href="_setup__2017__03_8h.html" target="_top" xlink:title="src/expconfig/setups\l/Setup_2017_03.h">
<polygon fill="white" stroke="black" points="3399.5,-79 3399.5,-113 3506.5,-113 3506.5,-79 3399.5,-79"/>
<text text-anchor="start" x="3407.5" y="-100" font-family="Helvetica,sans-Serif" font-size="10.00">src/expconfig/setups</text>
<text text-anchor="middle" x="3453" y="-87" font-family="Helvetica,sans-Serif" font-size="10.00">/Setup_2017_03.h</text>
</a>
</g>
<!-- Node72&#45;&gt;Node91 -->
<g id="edge90" class="edge"><title>Node72&#45;&gt;Node91</title>
<path fill="none" stroke="midnightblue" d="M3022.48,-155.917C3185.13,-126.108 3233.39,-157.43 3391,-120 3398.52,-118.213 3406.36,-115.718 3413.82,-113.007"/>
<polygon fill="midnightblue" stroke="midnightblue" points="3021.8,-152.483 3012.62,-157.773 3023.09,-159.363 3021.8,-152.483"/>
</g>
<!-- Node93 -->
<g id="node92" class="node"><title>Node93</title>
<a xlink:href="_setup___c_b_source_calib_8cc.html" target="_top" xlink:title="src/expconfig/setups\l/Setup_CBSourceCalib.cc">
<polygon fill="white" stroke="black" points="3523.5,-79 3523.5,-113 3654.5,-113 3654.5,-79 3523.5,-79"/>
<text text-anchor="start" x="3531.5" y="-100" font-family="Helvetica,sans-Serif" font-size="10.00">src/expconfig/setups</text>
<text text-anchor="middle" x="3589" y="-87" font-family="Helvetica,sans-Serif" font-size="10.00">/Setup_CBSourceCalib.cc</text>
</a>
</g>
<!-- Node72&#45;&gt;Node93 -->
<g id="edge94" class="edge"><title>Node72&#45;&gt;Node93</title>
<path fill="none" stroke="midnightblue" d="M3022.71,-155.906C3239.56,-118.445 3302.23,-161.623 3515,-120 3523.88,-118.263 3533.18,-115.791 3542.07,-113.088"/>
<polygon fill="midnightblue" stroke="midnightblue" points="3021.84,-152.505 3012.6,-157.691 3023.06,-159.399 3021.84,-152.505"/>
</g>
<!-- Node94 -->
<g id="node94" class="node"><title>Node94</title>
<a xlink:href="_setup_registry_8cc.html" target="_top" xlink:title="src/expconfig/setups\l/SetupRegistry.cc">
<polygon fill="white" stroke="black" points="3671.5,-79 3671.5,-113 3778.5,-113 3778.5,-79 3671.5,-79"/>
<text text-anchor="start" x="3679.5" y="-100" font-family="Helvetica,sans-Serif" font-size="10.00">src/expconfig/setups</text>
<text text-anchor="middle" x="3725" y="-87" font-family="Helvetica,sans-Serif" font-size="10.00">/SetupRegistry.cc</text>
</a>
</g>
<!-- Node72&#45;&gt;Node94 -->
<g id="edge96" class="edge"><title>Node72&#45;&gt;Node94</title>
<path fill="none" stroke="midnightblue" d="M3022.71,-155.934C3304.62,-109.532 3386.93,-179.615 3663,-120 3670.78,-118.319 3678.88,-115.801 3686.55,-113.018"/>
<polygon fill="midnightblue" stroke="midnightblue" points="3021.88,-152.525 3012.59,-157.635 3023.04,-159.428 3021.88,-152.525"/>
</g>
<!-- Node95 -->
<g id="node96" class="node"><title>Node95</title>
<a xlink:href="expconfig__helpers_8cc.html" target="_top" xlink:title="test/expconfig_helpers.cc">
<polygon fill="white" stroke="black" points="3796,-85.5 3796,-106.5 3924,-106.5 3924,-85.5 3796,-85.5"/>
<text text-anchor="middle" x="3860" y="-93.5" font-family="Helvetica,sans-Serif" font-size="10.00">test/expconfig_helpers.cc</text>
</a>
</g>
<!-- Node72&#45;&gt;Node95 -->
<g id="edge98" class="edge"><title>Node72&#45;&gt;Node95</title>
<path fill="none" stroke="midnightblue" d="M3022.61,-155.959C3359.08,-101.682 3455.1,-181.184 3787,-120 3802.88,-117.073 3820.05,-111.552 3833.75,-106.542"/>
<polygon fill="midnightblue" stroke="midnightblue" points="3021.89,-152.531 3012.59,-157.604 3023.02,-159.438 3021.89,-152.531"/>
</g>
<!-- Node80 -->
<g id="node64" class="node"><title>Node80</title>
<a xlink:href="_setup__2007__06_8cc.html" target="_top" xlink:title="src/expconfig/setups\l/Setup_2007_06.cc">
<polygon fill="white" stroke="black" points="2522.5,-1 2522.5,-35 2629.5,-35 2629.5,-1 2522.5,-1"/>
<text text-anchor="start" x="2530.5" y="-22" font-family="Helvetica,sans-Serif" font-size="10.00">src/expconfig/setups</text>
<text text-anchor="middle" x="2576" y="-9" font-family="Helvetica,sans-Serif" font-size="10.00">/Setup_2007_06.cc</text>
</a>
</g>
<!-- Node79&#45;&gt;Node80 -->
<g id="edge64" class="edge"><title>Node79&#45;&gt;Node80</title>
<path fill="none" stroke="midnightblue" d="M2775,-75.4682C2771.63,-74.2616 2768.27,-73.0949 2765,-72 2709.36,-53.3904 2694.39,-52.1787 2638,-36 2635.31,-35.2273 2632.55,-34.4338 2629.76,-33.631"/>
<polygon fill="midnightblue" stroke="midnightblue" points="2773.91,-78.7943 2784.5,-78.9484 2776.31,-72.2216 2773.91,-78.7943"/>
</g>
<!-- Node81 -->
<g id="node66" class="node"><title>Node81</title>
<a xlink:href="_setup__2007__07_8cc.html" target="_top" xlink:title="src/expconfig/setups\l/Setup_2007_07.cc">
<polygon fill="white" stroke="black" points="2646.5,-1 2646.5,-35 2753.5,-35 2753.5,-1 2646.5,-1"/>
<text text-anchor="start" x="2654.5" y="-22" font-family="Helvetica,sans-Serif" font-size="10.00">src/expconfig/setups</text>
<text text-anchor="middle" x="2700" y="-9" font-family="Helvetica,sans-Serif" font-size="10.00">/Setup_2007_07.cc</text>
</a>
</g>
<!-- Node79&#45;&gt;Node81 -->
<g id="edge66" class="edge"><title>Node79&#45;&gt;Node81</title>
<path fill="none" stroke="midnightblue" d="M2790.58,-73.6346C2770.61,-61.3672 2746.24,-46.3975 2727.81,-35.0775"/>
<polygon fill="midnightblue" stroke="midnightblue" points="2788.78,-76.6315 2799.13,-78.8826 2792.44,-70.6666 2788.78,-76.6315"/>
</g>
<!-- Node79&#45;&gt;Node82 -->
<g id="edge68" class="edge"><title>Node79&#45;&gt;Node82</title>
<path fill="none" stroke="midnightblue" d="M2827,-68.6102C2827,-57.5188 2827,-45.0489 2827,-35.2623"/>
<polygon fill="midnightblue" stroke="midnightblue" points="2823.5,-68.6892 2827,-78.6893 2830.5,-68.6893 2823.5,-68.6892"/>
</g>
<!-- Node85 -->
<g id="node75" class="node"><title>Node85</title>
<a xlink:href="_setup__2014__07___e_p_t___prod_8cc.html" target="_top" xlink:title="src/expconfig/setups\l/Setup_2014_07_EPT_Prod.cc">
<polygon fill="white" stroke="black" points="2900.5,-1 2900.5,-35 3051.5,-35 3051.5,-1 2900.5,-1"/>
<text text-anchor="start" x="2908.5" y="-22" font-family="Helvetica,sans-Serif" font-size="10.00">src/expconfig/setups</text>
<text text-anchor="middle" x="2976" y="-9" font-family="Helvetica,sans-Serif" font-size="10.00">/Setup_2014_07_EPT_Prod.cc</text>
</a>
</g>
<!-- Node84&#45;&gt;Node85 -->
<g id="edge76" class="edge"><title>Node84&#45;&gt;Node85</title>
<path fill="none" stroke="midnightblue" d="M3104.85,-74.7816C3076.55,-62.3105 3041.25,-46.7529 3014.75,-35.0775"/>
<polygon fill="midnightblue" stroke="midnightblue" points="3103.59,-78.0527 3114.16,-78.8826 3106.42,-71.6471 3103.59,-78.0527"/>
</g>
<!-- Node86 -->
<g id="node77" class="node"><title>Node86</title>
<a xlink:href="_setup__2014__10___e_p_t___prod_8cc.html" target="_top" xlink:title="src/expconfig/setups\l/Setup_2014_10_EPT_Prod.cc">
<polygon fill="white" stroke="black" points="3068.5,-1 3068.5,-35 3219.5,-35 3219.5,-1 3068.5,-1"/>
<text text-anchor="start" x="3076.5" y="-22" font-family="Helvetica,sans-Serif" font-size="10.00">src/expconfig/setups</text>
<text text-anchor="middle" x="3144" y="-9" font-family="Helvetica,sans-Serif" font-size="10.00">/Setup_2014_10_EPT_Prod.cc</text>
</a>
</g>
<!-- Node84&#45;&gt;Node86 -->
<g id="edge78" class="edge"><title>Node84&#45;&gt;Node86</title>
<path fill="none" stroke="midnightblue" d="M3149.84,-68.6102C3148.56,-57.5188 3147.12,-45.0489 3145.99,-35.2623"/>
<polygon fill="midnightblue" stroke="midnightblue" points="3146.38,-69.1564 3151,-78.6893 3153.33,-68.354 3146.38,-69.1564"/>
</g>
<!-- Node87 -->
<g id="node79" class="node"><title>Node87</title>
<a xlink:href="_setup__2014__12___e_p_t___prod_8cc.html" target="_top" xlink:title="src/expconfig/setups\l/Setup_2014_12_EPT_Prod.cc">
<polygon fill="white" stroke="black" points="3236.5,-1 3236.5,-35 3387.5,-35 3387.5,-1 3236.5,-1"/>
<text text-anchor="start" x="3244.5" y="-22" font-family="Helvetica,sans-Serif" font-size="10.00">src/expconfig/setups</text>
<text text-anchor="middle" x="3312" y="-9" font-family="Helvetica,sans-Serif" font-size="10.00">/Setup_2014_12_EPT_Prod.cc</text>
</a>
</g>
<!-- Node84&#45;&gt;Node87 -->
<g id="edge80" class="edge"><title>Node84&#45;&gt;Node87</title>
<path fill="none" stroke="midnightblue" d="M3196.92,-74.4556C3222.23,-62.0403 3253.6,-46.6513 3277.19,-35.0775"/>
<polygon fill="midnightblue" stroke="midnightblue" points="3195.33,-71.336 3187.89,-78.8826 3198.41,-77.6205 3195.33,-71.336"/>
</g>
<!-- Node88 -->
<g id="node81" class="node"><title>Node88</title>
<a xlink:href="_setup__2014___e_p_t_8cc.html" target="_top" xlink:title="src/expconfig/setups\l/Setup_2014_EPT.cc">
<polygon fill="white" stroke="black" points="3405,-1 3405,-35 3515,-35 3515,-1 3405,-1"/>
<text text-anchor="start" x="3413" y="-22" font-family="Helvetica,sans-Serif" font-size="10.00">src/expconfig/setups</text>
<text text-anchor="middle" x="3460" y="-9" font-family="Helvetica,sans-Serif" font-size="10.00">/Setup_2014_EPT.cc</text>
</a>
</g>
<!-- Node84&#45;&gt;Node88 -->
<g id="edge82" class="edge"><title>Node84&#45;&gt;Node88</title>
<path fill="none" stroke="midnightblue" d="M3207.53,-75.7482C3211.73,-74.4099 3215.92,-73.1425 3220,-72 3296.89,-50.4832 3318.41,-54.8207 3396,-36 3398.92,-35.2926 3401.9,-34.5432 3404.91,-33.7677"/>
<polygon fill="midnightblue" stroke="midnightblue" points="3206.16,-72.5127 3197.77,-78.9741 3208.36,-79.1591 3206.16,-72.5127"/>
</g>
<!-- Node90&#45;&gt;Node89 -->
<g id="edge88" class="edge"><title>Node90&#45;&gt;Node89</title>
<path fill="none" stroke="midnightblue" d="M3378.89,-75.8337C3382.97,-74.5014 3387.04,-73.21 3391,-72 3417.19,-63.9919 3482.36,-46.921 3532.05,-34.1034"/>
<polygon fill="midnightblue" stroke="midnightblue" points="3377.74,-72.5252 3369.35,-78.998 3379.95,-79.1687 3377.74,-72.5252"/>
</g>
<!-- Node92 -->
<g id="node90" class="node"><title>Node92</title>
<a xlink:href="_setup__2017__03_8cc.html" target="_top" xlink:title="src/expconfig/setups\l/Setup_2017_03.cc">
<polygon fill="white" stroke="black" points="3674.5,-1 3674.5,-35 3781.5,-35 3781.5,-1 3674.5,-1"/>
<text text-anchor="start" x="3682.5" y="-22" font-family="Helvetica,sans-Serif" font-size="10.00">src/expconfig/setups</text>
<text text-anchor="middle" x="3728" y="-9" font-family="Helvetica,sans-Serif" font-size="10.00">/Setup_2017_03.cc</text>
</a>
</g>
<!-- Node91&#45;&gt;Node92 -->
<g id="edge92" class="edge"><title>Node91&#45;&gt;Node92</title>
<path fill="none" stroke="midnightblue" d="M3504.28,-75.5373C3507.89,-74.2862 3511.49,-73.0932 3515,-72 3580.88,-51.5003 3599.3,-53.623 3666,-36 3668.71,-35.2842 3671.48,-34.5366 3674.28,-33.7702"/>
<polygon fill="midnightblue" stroke="midnightblue" points="3502.98,-72.284 3494.75,-78.9557 3505.35,-78.8728 3502.98,-72.284"/>
</g>
</g>
</svg>
