<?xml version="1.0" encoding="UTF-8" standalone="no"?>
<!DOCTYPE svg PUBLIC "-//W3C//DTD SVG 1.1//EN"
 "http://www.w3.org/Graphics/SVG/1.1/DTD/svg11.dtd">
<!-- Generated by graphviz version 2.26.3 (20100126.1600)
 -->
<!-- Title: src/expconfig/detectors/EPT.h Pages: 1 -->
<svg width="1779pt" height="368pt"
 viewBox="0.00 0.00 1779.00 368.00" xmlns="http://www.w3.org/2000/svg" xmlns:xlink="http://www.w3.org/1999/xlink">
<g id="graph1" class="graph" transform="scale(1 1) rotate(0) translate(4 364)">
<title>src/expconfig/detectors/EPT.h</title>
<polygon fill="white" stroke="white" points="-4,5 -4,-364 1776,-364 1776,5 -4,5"/>
<!-- Node56 -->
<g id="node1" class="node"><title>Node56</title>
<polygon fill="#bfbfbf" stroke="black" points="739.5,-325 739.5,-359 858.5,-359 858.5,-325 739.5,-325"/>
<text text-anchor="start" x="747.5" y="-346" font-family="Helvetica,sans-Serif" font-size="10.00">src/expconfig/detectors</text>
<text text-anchor="middle" x="799" y="-333" font-family="Helvetica,sans-Serif" font-size="10.00">/EPT.h</text>
</g>
<!-- Node57 -->
<g id="node3" class="node"><title>Node57</title>
<a xlink:href="tagg_eff_classes_8cc.html" target="_top" xlink:title="progs/detail/taggEffClasses.cc">
<polygon fill="white" stroke="black" points="-0.5,-253.5 -0.5,-274.5 150.5,-274.5 150.5,-253.5 -0.5,-253.5"/>
<text text-anchor="middle" x="75" y="-261.5" font-family="Helvetica,sans-Serif" font-size="10.00">progs/detail/taggEffClasses.cc</text>
</a>
</g>
<!-- Node56&#45;&gt;Node57 -->
<g id="edge2" class="edge"><title>Node56&#45;&gt;Node57</title>
<path fill="none" stroke="midnightblue" d="M729.372,-340.54C611.184,-337.08 364.154,-325.594 159,-288 141.396,-284.774 122.174,-279.423 106.565,-274.591"/>
<polygon fill="midnightblue" stroke="midnightblue" points="729.279,-344.038 739.374,-340.822 729.477,-337.041 729.279,-344.038"/>
</g>
<!-- Node58 -->
<g id="node5" class="node"><title>Node58</title>
<a xlink:href="_etap_omega_g__plot_8cc.html" target="_top" xlink:title="src/analysis/physics\l/etaprime/EtapOmegaG\l_plot.cc">
<polygon fill="white" stroke="black" points="167.5,-240.5 167.5,-287.5 286.5,-287.5 286.5,-240.5 167.5,-240.5"/>
<text text-anchor="start" x="175.5" y="-274.5" font-family="Helvetica,sans-Serif" font-size="10.00">src/analysis/physics</text>
<text text-anchor="start" x="175.5" y="-261.5" font-family="Helvetica,sans-Serif" font-size="10.00">/etaprime/EtapOmegaG</text>
<text text-anchor="middle" x="227" y="-248.5" font-family="Helvetica,sans-Serif" font-size="10.00">_plot.cc</text>
</a>
</g>
<!-- Node56&#45;&gt;Node58 -->
<g id="edge4" class="edge"><title>Node56&#45;&gt;Node58</title>
<path fill="none" stroke="midnightblue" d="M729.215,-339.069C632.055,-333.945 450.952,-320.603 300,-288 295.697,-287.071 291.29,-285.982 286.878,-284.791"/>
<polygon fill="midnightblue" stroke="midnightblue" points="729.043,-342.564 739.209,-339.582 729.402,-335.574 729.043,-342.564"/>
</g>
<!-- Node59 -->
<g id="node7" class="node"><title>Node59</title>
<a xlink:href="single_pi0_plots_8cc.html" target="_top" xlink:title="src/analysis/physics\l/production/singlePi0Plots.cc">
<polygon fill="white" stroke="black" points="148.5,-79 148.5,-113 291.5,-113 291.5,-79 148.5,-79"/>
<text text-anchor="start" x="156.5" y="-100" font-family="Helvetica,sans-Serif" font-size="10.00">src/analysis/physics</text>
<text text-anchor="middle" x="220" y="-87" font-family="Helvetica,sans-Serif" font-size="10.00">/production/singlePi0Plots.cc</text>
</a>
</g>
<!-- Node56&#45;&gt;Node59 -->
<g id="edge6" class="edge"><title>Node56&#45;&gt;Node59</title>
<path fill="none" stroke="midnightblue" d="M729.328,-333.794C632.81,-319.838 455.879,-284.71 328,-204 288.31,-178.95 251.875,-136.911 233.168,-113.35"/>
<polygon fill="midnightblue" stroke="midnightblue" points="728.876,-337.265 739.267,-335.197 729.854,-330.334 728.876,-337.265"/>
</g>
<!-- Node60 -->
<g id="node9" class="node"><title>Node60</title>
<a xlink:href="src_2analysis_2physics_2scratch_2wolfes_2tools_2tools_8h.html" target="_top" xlink:title="src/analysis/physics\l/scratch/wolfes/tools\l/tools.h">
<polygon fill="white" stroke="black" points="573.5,-240.5 573.5,-287.5 680.5,-287.5 680.5,-240.5 573.5,-240.5"/>
<text text-anchor="start" x="581.5" y="-274.5" font-family="Helvetica,sans-Serif" font-size="10.00">src/analysis/physics</text>
<text text-anchor="start" x="581.5" y="-261.5" font-family="Helvetica,sans-Serif" font-size="10.00">/scratch/wolfes/tools</text>
<text text-anchor="middle" x="627" y="-248.5" font-family="Helvetica,sans-Serif" font-size="10.00">/tools.h</text>
</a>
</g>
<!-- Node56&#45;&gt;Node60 -->
<g id="edge8" class="edge"><title>Node56&#45;&gt;Node60</title>
<path fill="none" stroke="midnightblue" d="M751.879,-320.631C729.3,-310.392 702.192,-298.099 679.01,-287.586"/>
<polygon fill="midnightblue" stroke="midnightblue" points="750.701,-323.94 761.254,-324.883 753.592,-317.565 750.701,-323.94"/>
</g>
<!-- Node67 -->
<g id="node26" class="node"><title>Node67</title>
<a xlink:href="_e_p_t___scalers_8h.html" target="_top" xlink:title="src/analysis/slowcontrol\l/processors/EPT_Scalers.h">
<polygon fill="white" stroke="black" points="730.5,-247 730.5,-281 867.5,-281 867.5,-247 730.5,-247"/>
<text text-anchor="start" x="738.5" y="-268" font-family="Helvetica,sans-Serif" font-size="10.00">src/analysis/slowcontrol</text>
<text text-anchor="middle" x="799" y="-255" font-family="Helvetica,sans-Serif" font-size="10.00">/processors/EPT_Scalers.h</text>
</a>
</g>
<!-- Node56&#45;&gt;Node67 -->
<g id="edge28" class="edge"><title>Node56&#45;&gt;Node67</title>
<path fill="none" stroke="midnightblue" d="M799,-314.61C799,-303.519 799,-291.049 799,-281.262"/>
<polygon fill="midnightblue" stroke="midnightblue" points="795.5,-314.689 799,-324.689 802.5,-314.689 795.5,-314.689"/>
</g>
<!-- Node79 -->
<g id="node51" class="node"><title>Node79</title>
<a xlink:href="_e_p_t__2014__elements_8h.html" target="_top" xlink:title="src/expconfig/detectors\l/detail/EPT_2014_elements.h">
<polygon fill="white" stroke="black" points="884.5,-247 884.5,-281 1029.5,-281 1029.5,-247 884.5,-247"/>
<text text-anchor="start" x="892.5" y="-268" font-family="Helvetica,sans-Serif" font-size="10.00">src/expconfig/detectors</text>
<text text-anchor="middle" x="957" y="-255" font-family="Helvetica,sans-Serif" font-size="10.00">/detail/EPT_2014_elements.h</text>
</a>
</g>
<!-- Node56&#45;&gt;Node79 -->
<g id="edge54" class="edge"><title>Node56&#45;&gt;Node79</title>
<path fill="none" stroke="midnightblue" d="M842.641,-320.456C867.79,-308.04 898.963,-292.651 922.407,-281.078"/>
<polygon fill="midnightblue" stroke="midnightblue" points="841.091,-317.317 833.674,-324.883 844.19,-323.594 841.091,-317.317"/>
</g>
<!-- Node80 -->
<g id="node53" class="node"><title>Node80</title>
<a xlink:href="_e_p_t_8cc.html" target="_top" xlink:title="src/expconfig/detectors\l/EPT.cc">
<polygon fill="white" stroke="black" points="997.5,-163 997.5,-197 1116.5,-197 1116.5,-163 997.5,-163"/>
<text text-anchor="start" x="1005.5" y="-184" font-family="Helvetica,sans-Serif" font-size="10.00">src/expconfig/detectors</text>
<text text-anchor="middle" x="1057" y="-171" font-family="Helvetica,sans-Serif" font-size="10.00">/EPT.cc</text>
</a>
</g>
<!-- Node56&#45;&gt;Node80 -->
<g id="edge58" class="edge"><title>Node56&#45;&gt;Node80</title>
<path fill="none" stroke="midnightblue" d="M868.798,-334.794C930.79,-326.919 1015.03,-312.102 1038,-288 1061.38,-263.469 1061.43,-220.838 1059.29,-197.137"/>
<polygon fill="midnightblue" stroke="midnightblue" points="868.162,-331.346 858.666,-336.045 869.02,-338.293 868.162,-331.346"/>
</g>
<!-- Node81 -->
<g id="node56" class="node"><title>Node81</title>
<a xlink:href="_setup__2014___e_p_t_8h.html" target="_top" xlink:title="src/expconfig/setups\l/Setup_2014_EPT.h">
<polygon fill="white" stroke="black" points="1239.5,-247 1239.5,-281 1346.5,-281 1346.5,-247 1239.5,-247"/>
<text text-anchor="start" x="1247.5" y="-268" font-family="Helvetica,sans-Serif" font-size="10.00">src/expconfig/setups</text>
<text text-anchor="middle" x="1293" y="-255" font-family="Helvetica,sans-Serif" font-size="10.00">/Setup_2014_EPT.h</text>
</a>
</g>
<!-- Node56&#45;&gt;Node81 -->
<g id="edge60" class="edge"><title>Node56&#45;&gt;Node81</title>
<path fill="none" stroke="midnightblue" d="M868.553,-331.018C968.136,-315.294 1149.23,-286.7 1239.24,-272.488"/>
<polygon fill="midnightblue" stroke="midnightblue" points="867.92,-327.574 858.588,-332.591 869.011,-334.489 867.92,-327.574"/>
</g>
<!-- Node86 -->
<g id="node66" class="node"><title>Node86</title>
<a xlink:href="expconfig__helpers_8cc.html" target="_top" xlink:title="test/expconfig_helpers.cc">
<polygon fill="white" stroke="black" points="1364,-253.5 1364,-274.5 1492,-274.5 1492,-253.5 1364,-253.5"/>
<text text-anchor="middle" x="1428" y="-261.5" font-family="Helvetica,sans-Serif" font-size="10.00">test/expconfig_helpers.cc</text>
</a>
</g>
<!-- Node56&#45;&gt;Node86 -->
<g id="edge70" class="edge"><title>Node56&#45;&gt;Node86</title>
<path fill="none" stroke="midnightblue" d="M869.166,-340.141C975.36,-336.217 1182.78,-324.208 1355,-288 1370.41,-284.761 1387.12,-279.409 1400.66,-274.58"/>
<polygon fill="midnightblue" stroke="midnightblue" points="868.768,-336.653 858.899,-340.506 869.017,-343.648 868.768,-336.653"/>
</g>
<!-- Node60&#45;&gt;Node59 -->
<g id="edge16" class="edge"><title>Node60&#45;&gt;Node59</title>
<path fill="none" stroke="midnightblue" d="M563.069,-259.745C508.72,-253.719 430.296,-239.162 371,-204 346.364,-189.391 350.384,-173.869 328,-156 306.459,-138.805 279.332,-123.754 257.654,-113.028"/>
<polygon fill="midnightblue" stroke="midnightblue" points="562.957,-263.252 573.266,-260.807 563.683,-256.29 562.957,-263.252"/>
</g>
<!-- Node61 -->
<g id="node11" class="node"><title>Node61</title>
<a xlink:href="single_pi0_8h.html" target="_top" xlink:title="src/analysis/physics\l/production/singlePi0.h">
<polygon fill="white" stroke="black" points="380,-163 380,-197 496,-197 496,-163 380,-163"/>
<text text-anchor="start" x="388" y="-184" font-family="Helvetica,sans-Serif" font-size="10.00">src/analysis/physics</text>
<text text-anchor="middle" x="438" y="-171" font-family="Helvetica,sans-Serif" font-size="10.00">/production/singlePi0.h</text>
</a>
</g>
<!-- Node60&#45;&gt;Node61 -->
<g id="edge10" class="edge"><title>Node60&#45;&gt;Node61</title>
<path fill="none" stroke="midnightblue" d="M564.818,-236.364C535.67,-223.409 501.858,-208.381 476.48,-197.102"/>
<polygon fill="midnightblue" stroke="midnightblue" points="563.542,-239.627 574.102,-240.49 566.385,-233.23 563.542,-239.627"/>
</g>
<!-- Node63 -->
<g id="node17" class="node"><title>Node63</title>
<a xlink:href="triple_pi0_8h.html" target="_top" xlink:title="src/analysis/physics\l/production/triplePi0.h">
<polygon fill="white" stroke="black" points="513.5,-163 513.5,-197 624.5,-197 624.5,-163 513.5,-163"/>
<text text-anchor="start" x="521.5" y="-184" font-family="Helvetica,sans-Serif" font-size="10.00">src/analysis/physics</text>
<text text-anchor="middle" x="569" y="-171" font-family="Helvetica,sans-Serif" font-size="10.00">/production/triplePi0.h</text>
</a>
</g>
<!-- Node60&#45;&gt;Node63 -->
<g id="edge18" class="edge"><title>Node60&#45;&gt;Node63</title>
<path fill="none" stroke="midnightblue" d="M604.789,-231.832C596.661,-220.061 587.779,-207.197 580.897,-197.23"/>
<polygon fill="midnightblue" stroke="midnightblue" points="601.973,-233.913 610.535,-240.154 607.733,-229.936 601.973,-233.913"/>
</g>
<!-- Node65 -->
<g id="node21" class="node"><title>Node65</title>
<a xlink:href="_proton_vertex_test_8cc.html" target="_top" xlink:title="src/analysis/physics\l/scratch/wolfes/ProtonVertex\lTest.cc">
<polygon fill="white" stroke="black" points="580.5,-72.5 580.5,-119.5 723.5,-119.5 723.5,-72.5 580.5,-72.5"/>
<text text-anchor="start" x="588.5" y="-106.5" font-family="Helvetica,sans-Serif" font-size="10.00">src/analysis/physics</text>
<text text-anchor="start" x="588.5" y="-93.5" font-family="Helvetica,sans-Serif" font-size="10.00">/scratch/wolfes/ProtonVertex</text>
<text text-anchor="middle" x="652" y="-80.5" font-family="Helvetica,sans-Serif" font-size="10.00">Test.cc</text>
</a>
</g>
<!-- Node60&#45;&gt;Node65 -->
<g id="edge24" class="edge"><title>Node60&#45;&gt;Node65</title>
<path fill="none" stroke="midnightblue" d="M632.023,-230.245C636.907,-197.426 644.198,-148.429 648.489,-119.593"/>
<polygon fill="midnightblue" stroke="midnightblue" points="628.539,-229.88 630.529,-240.286 635.463,-230.91 628.539,-229.88"/>
</g>
<!-- Node66 -->
<g id="node24" class="node"><title>Node66</title>
<a xlink:href="tools_8cc.html" target="_top" xlink:title="src/analysis/physics\l/scratch/wolfes/tools\l/tools.cc">
<polygon fill="white" stroke="black" points="679.5,-156.5 679.5,-203.5 786.5,-203.5 786.5,-156.5 679.5,-156.5"/>
<text text-anchor="start" x="687.5" y="-190.5" font-family="Helvetica,sans-Serif" font-size="10.00">src/analysis/physics</text>
<text text-anchor="start" x="687.5" y="-177.5" font-family="Helvetica,sans-Serif" font-size="10.00">/scratch/wolfes/tools</text>
<text text-anchor="middle" x="733" y="-164.5" font-family="Helvetica,sans-Serif" font-size="10.00">/tools.cc</text>
</a>
</g>
<!-- Node60&#45;&gt;Node66 -->
<g id="edge26" class="edge"><title>Node60&#45;&gt;Node66</title>
<path fill="none" stroke="midnightblue" d="M664.844,-234.011C677.392,-224.067 691.177,-213.142 703.047,-203.736"/>
<polygon fill="midnightblue" stroke="midnightblue" points="662.473,-231.424 656.809,-240.378 666.82,-236.91 662.473,-231.424"/>
</g>
<!-- Node61&#45;&gt;Node59 -->
<g id="edge14" class="edge"><title>Node61&#45;&gt;Node59</title>
<path fill="none" stroke="midnightblue" d="M384.03,-159.204C347.17,-145.001 298.927,-126.412 264.316,-113.076"/>
<polygon fill="midnightblue" stroke="midnightblue" points="383.032,-162.57 393.622,-162.9 385.549,-156.039 383.032,-162.57"/>
</g>
<!-- Node62 -->
<g id="node13" class="node"><title>Node62</title>
<a xlink:href="single_pi0_8cc.html" target="_top" xlink:title="src/analysis/physics\l/production/singlePi0.cc">
<polygon fill="white" stroke="black" points="308.5,-79 308.5,-113 429.5,-113 429.5,-79 308.5,-79"/>
<text text-anchor="start" x="316.5" y="-100" font-family="Helvetica,sans-Serif" font-size="10.00">src/analysis/physics</text>
<text text-anchor="middle" x="369" y="-87" font-family="Helvetica,sans-Serif" font-size="10.00">/production/singlePi0.cc</text>
</a>
</g>
<!-- Node61&#45;&gt;Node62 -->
<g id="edge12" class="edge"><title>Node61&#45;&gt;Node62</title>
<path fill="none" stroke="midnightblue" d="M417.167,-154.638C406.125,-141.196 392.855,-125.041 383.042,-113.095"/>
<polygon fill="midnightblue" stroke="midnightblue" points="414.651,-157.089 423.703,-162.595 420.06,-152.646 414.651,-157.089"/>
</g>
<!-- Node64 -->
<g id="node19" class="node"><title>Node64</title>
<a xlink:href="triple_pi0_8cc.html" target="_top" xlink:title="src/analysis/physics\l/production/triplePi0.cc">
<polygon fill="white" stroke="black" points="447,-79 447,-113 563,-113 563,-79 447,-79"/>
<text text-anchor="start" x="455" y="-100" font-family="Helvetica,sans-Serif" font-size="10.00">src/analysis/physics</text>
<text text-anchor="middle" x="505" y="-87" font-family="Helvetica,sans-Serif" font-size="10.00">/production/triplePi0.cc</text>
</a>
</g>
<!-- Node63&#45;&gt;Node64 -->
<g id="edge20" class="edge"><title>Node63&#45;&gt;Node64</title>
<path fill="none" stroke="midnightblue" d="M549.676,-154.638C539.435,-141.196 527.127,-125.041 518.025,-113.095"/>
<polygon fill="midnightblue" stroke="midnightblue" points="546.895,-156.762 555.739,-162.595 552.463,-152.52 546.895,-156.762"/>
</g>
<!-- Node63&#45;&gt;Node65 -->
<g id="edge22" class="edge"><title>Node63&#45;&gt;Node65</title>
<path fill="none" stroke="midnightblue" d="M593.499,-155.206C604.568,-144.004 617.586,-130.828 628.529,-119.753"/>
<polygon fill="midnightblue" stroke="midnightblue" points="590.737,-153.022 586.198,-162.595 595.716,-157.942 590.737,-153.022"/>
</g>
<!-- Node68 -->
<g id="node28" class="node"><title>Node68</title>
<a xlink:href="_slow_control_processors_8h.html" target="_top" xlink:title="src/analysis/slowcontrol\l/SlowControlProcessors.h">
<polygon fill="white" stroke="black" points="849.5,-163 849.5,-197 980.5,-197 980.5,-163 849.5,-163"/>
<text text-anchor="start" x="857.5" y="-184" font-family="Helvetica,sans-Serif" font-size="10.00">src/analysis/slowcontrol</text>
<text text-anchor="middle" x="915" y="-171" font-family="Helvetica,sans-Serif" font-size="10.00">/SlowControlProcessors.h</text>
</a>
</g>
<!-- Node67&#45;&gt;Node68 -->
<g id="edge30" class="edge"><title>Node67&#45;&gt;Node68</title>
<path fill="none" stroke="midnightblue" d="M830.882,-240.913C849.978,-227.085 873.848,-209.8 891.278,-197.178"/>
<polygon fill="midnightblue" stroke="midnightblue" points="828.801,-238.099 822.754,-246.799 832.906,-243.768 828.801,-238.099"/>
</g>
<!-- Node69 -->
<g id="node30" class="node"><title>Node69</title>
<a xlink:href="_slow_control_manager_8h.html" target="_top" xlink:title="src/analysis/slowcontrol\l/SlowControlManager.h">
<polygon fill="white" stroke="black" points="741,-79 741,-113 863,-113 863,-79 741,-79"/>
<text text-anchor="start" x="749" y="-100" font-family="Helvetica,sans-Serif" font-size="10.00">src/analysis/slowcontrol</text>
<text text-anchor="middle" x="802" y="-87" font-family="Helvetica,sans-Serif" font-size="10.00">/SlowControlManager.h</text>
</a>
</g>
<!-- Node68&#45;&gt;Node69 -->
<g id="edge32" class="edge"><title>Node68&#45;&gt;Node69</title>
<path fill="none" stroke="midnightblue" d="M883.692,-156.727C865.132,-142.93 842.012,-125.743 825.109,-113.178"/>
<polygon fill="midnightblue" stroke="midnightblue" points="881.747,-159.642 891.86,-162.799 885.923,-154.024 881.747,-159.642"/>
</g>
<!-- Node72 -->
<g id="node36" class="node"><title>Node72</title>
<a xlink:href="_test_slow_control_manager_8cc.html" target="_top" xlink:title="test/analysis/TestSlowControl\lManager.cc">
<polygon fill="white" stroke="black" points="849,-1 849,-35 997,-35 997,-1 849,-1"/>
<text text-anchor="start" x="857" y="-22" font-family="Helvetica,sans-Serif" font-size="10.00">test/analysis/TestSlowControl</text>
<text text-anchor="middle" x="923" y="-9" font-family="Helvetica,sans-Serif" font-size="10.00">Manager.cc</text>
</a>
</g>
<!-- Node68&#45;&gt;Node72 -->
<g id="edge52" class="edge"><title>Node68&#45;&gt;Node72</title>
<path fill="none" stroke="midnightblue" d="M911.249,-152.517C908.859,-130.636 906.764,-99.2665 910,-72 911.477,-59.5517 914.807,-45.821 917.726,-35.3205"/>
<polygon fill="midnightblue" stroke="midnightblue" points="907.807,-153.211 912.461,-162.729 914.758,-152.386 907.807,-153.211"/>
</g>
<!-- Node73 -->
<g id="node38" class="node"><title>Node73</title>
<a xlink:href="_slow_control_processors_8cc.html" target="_top" xlink:title="src/analysis/slowcontrol\l/SlowControlProcessors.cc">
<polygon fill="white" stroke="black" points="919,-79 919,-113 1055,-113 1055,-79 919,-79"/>
<text text-anchor="start" x="927" y="-100" font-family="Helvetica,sans-Serif" font-size="10.00">src/analysis/slowcontrol</text>
<text text-anchor="middle" x="987" y="-87" font-family="Helvetica,sans-Serif" font-size="10.00">/SlowControlProcessors.cc</text>
</a>
</g>
<!-- Node68&#45;&gt;Node73 -->
<g id="edge40" class="edge"><title>Node68&#45;&gt;Node73</title>
<path fill="none" stroke="midnightblue" d="M936.739,-154.638C948.261,-141.196 962.107,-125.041 972.347,-113.095"/>
<polygon fill="midnightblue" stroke="midnightblue" points="933.769,-152.725 929.918,-162.595 939.084,-157.28 933.769,-152.725"/>
</g>
<!-- Node74 -->
<g id="node40" class="node"><title>Node74</title>
<a xlink:href="_beam_8cc.html" target="_top" xlink:title="src/analysis/slowcontrol\l/variables/Beam.cc">
<polygon fill="white" stroke="black" points="1073,-79 1073,-113 1195,-113 1195,-79 1073,-79"/>
<text text-anchor="start" x="1081" y="-100" font-family="Helvetica,sans-Serif" font-size="10.00">src/analysis/slowcontrol</text>
<text text-anchor="middle" x="1134" y="-87" font-family="Helvetica,sans-Serif" font-size="10.00">/variables/Beam.cc</text>
</a>
</g>
<!-- Node68&#45;&gt;Node74 -->
<g id="edge42" class="edge"><title>Node68&#45;&gt;Node74</title>
<path fill="none" stroke="midnightblue" d="M969.217,-159.204C1006.25,-145.001 1054.71,-126.412 1089.48,-113.076"/>
<polygon fill="midnightblue" stroke="midnightblue" points="967.665,-156.051 959.582,-162.9 970.172,-162.587 967.665,-156.051"/>
</g>
<!-- Node75 -->
<g id="node42" class="node"><title>Node75</title>
<a xlink:href="_clocks_8cc.html" target="_top" xlink:title="src/analysis/slowcontrol\l/variables/Clocks.cc">
<polygon fill="white" stroke="black" points="1213,-79 1213,-113 1335,-113 1335,-79 1213,-79"/>
<text text-anchor="start" x="1221" y="-100" font-family="Helvetica,sans-Serif" font-size="10.00">src/analysis/slowcontrol</text>
<text text-anchor="middle" x="1274" y="-87" font-family="Helvetica,sans-Serif" font-size="10.00">/variables/Clocks.cc</text>
</a>
</g>
<!-- Node68&#45;&gt;Node75 -->
<g id="edge44" class="edge"><title>Node68&#45;&gt;Node75</title>
<path fill="none" stroke="midnightblue" d="M973.835,-160.055C978.938,-158.589 984.043,-157.212 989,-156 1083.11,-132.992 1110.08,-143.792 1204,-120 1211.72,-118.044 1219.81,-115.628 1227.63,-113.089"/>
<polygon fill="midnightblue" stroke="midnightblue" points="972.651,-156.756 964.067,-162.967 974.65,-163.465 972.651,-156.756"/>
</g>
<!-- Node76 -->
<g id="node44" class="node"><title>Node76</title>
<a xlink:href="variables_2_pair_spec_8cc.html" target="_top" xlink:title="src/analysis/slowcontrol\l/variables/Pairspec.cc">
<polygon fill="white" stroke="black" points="1353,-79 1353,-113 1475,-113 1475,-79 1353,-79"/>
<text text-anchor="start" x="1361" y="-100" font-family="Helvetica,sans-Serif" font-size="10.00">src/analysis/slowcontrol</text>
<text text-anchor="middle" x="1414" y="-87" font-family="Helvetica,sans-Serif" font-size="10.00">/variables/Pairspec.cc</text>
</a>
</g>
<!-- Node68&#45;&gt;Node76 -->
<g id="edge46" class="edge"><title>Node68&#45;&gt;Node76</title>
<path fill="none" stroke="midnightblue" d="M972.346,-160.09C977.932,-158.547 983.548,-157.147 989,-156 1144.19,-123.353 1189.09,-153.939 1344,-120 1352.28,-118.185 1360.95,-115.711 1369.25,-113.038"/>
<polygon fill="midnightblue" stroke="midnightblue" points="970.988,-156.84 962.365,-162.996 972.945,-163.561 970.988,-156.84"/>
</g>
<!-- Node77 -->
<g id="node46" class="node"><title>Node77</title>
<a xlink:href="_tagger_scalers_8cc.html" target="_top" xlink:title="src/analysis/slowcontrol\l/variables/TaggerScalers.cc">
<polygon fill="white" stroke="black" points="1493,-79 1493,-113 1631,-113 1631,-79 1493,-79"/>
<text text-anchor="start" x="1501" y="-100" font-family="Helvetica,sans-Serif" font-size="10.00">src/analysis/slowcontrol</text>
<text text-anchor="middle" x="1562" y="-87" font-family="Helvetica,sans-Serif" font-size="10.00">/variables/TaggerScalers.cc</text>
</a>
</g>
<!-- Node68&#45;&gt;Node77 -->
<g id="edge48" class="edge"><title>Node68&#45;&gt;Node77</title>
<path fill="none" stroke="midnightblue" d="M971.633,-160.11C977.449,-158.527 983.311,-157.113 989,-156 1205.48,-113.668 1267.21,-160.694 1484,-120 1493.33,-118.249 1503.12,-115.77 1512.49,-113.065"/>
<polygon fill="midnightblue" stroke="midnightblue" points="970.563,-156.776 961.925,-162.911 972.504,-163.501 970.563,-156.776"/>
</g>
<!-- Node78 -->
<g id="node48" class="node"><title>Node78</title>
<a xlink:href="analysis_2slowcontrol_2variables_2_trigger_8cc.html" target="_top" xlink:title="src/analysis/slowcontrol\l/variables/Trigger.cc">
<polygon fill="white" stroke="black" points="1649,-79 1649,-113 1771,-113 1771,-79 1649,-79"/>
<text text-anchor="start" x="1657" y="-100" font-family="Helvetica,sans-Serif" font-size="10.00">src/analysis/slowcontrol</text>
<text text-anchor="middle" x="1710" y="-87" font-family="Helvetica,sans-Serif" font-size="10.00">/variables/Trigger.cc</text>
</a>
</g>
<!-- Node68&#45;&gt;Node78 -->
<g id="edge50" class="edge"><title>Node68&#45;&gt;Node78</title>
<path fill="none" stroke="midnightblue" d="M971.352,-160.077C977.258,-158.486 983.216,-157.079 989,-156 1273.86,-102.859 1355.59,-175.515 1640,-120 1648.57,-118.326 1657.53,-115.848 1666.07,-113.112"/>
<polygon fill="midnightblue" stroke="midnightblue" points="970.149,-156.781 961.503,-162.905 972.081,-163.51 970.149,-156.781"/>
</g>
<!-- Node70 -->
<g id="node32" class="node"><title>Node70</title>
<a xlink:href="_physics_manager_8cc.html" target="_top" xlink:title="src/analysis/physics\l/PhysicsManager.cc">
<polygon fill="white" stroke="black" points="583,-1 583,-35 689,-35 689,-1 583,-1"/>
<text text-anchor="start" x="591" y="-22" font-family="Helvetica,sans-Serif" font-size="10.00">src/analysis/physics</text>
<text text-anchor="middle" x="636" y="-9" font-family="Helvetica,sans-Serif" font-size="10.00">/PhysicsManager.cc</text>
</a>
</g>
<!-- Node69&#45;&gt;Node70 -->
<g id="edge34" class="edge"><title>Node69&#45;&gt;Node70</title>
<path fill="none" stroke="midnightblue" d="M756.496,-74.6188C730.014,-62.1753 697.084,-46.7021 672.344,-35.0775"/>
<polygon fill="midnightblue" stroke="midnightblue" points="755.031,-77.7975 765.571,-78.8826 758.008,-71.4621 755.031,-77.7975"/>
</g>
<!-- Node71 -->
<g id="node34" class="node"><title>Node71</title>
<a xlink:href="_slow_control_manager_8cc.html" target="_top" xlink:title="src/analysis/slowcontrol\l/SlowControlManager.cc">
<polygon fill="white" stroke="black" points="707,-1 707,-35 831,-35 831,-1 707,-1"/>
<text text-anchor="start" x="715" y="-22" font-family="Helvetica,sans-Serif" font-size="10.00">src/analysis/slowcontrol</text>
<text text-anchor="middle" x="769" y="-9" font-family="Helvetica,sans-Serif" font-size="10.00">/SlowControlManager.cc</text>
</a>
</g>
<!-- Node69&#45;&gt;Node71 -->
<g id="edge36" class="edge"><title>Node69&#45;&gt;Node71</title>
<path fill="none" stroke="midnightblue" d="M790.702,-69.2945C785.938,-58.0342 780.529,-45.2507 776.303,-35.2623"/>
<polygon fill="midnightblue" stroke="midnightblue" points="787.556,-70.8434 794.676,-78.6893 794.003,-68.1158 787.556,-70.8434"/>
</g>
<!-- Node69&#45;&gt;Node72 -->
<g id="edge38" class="edge"><title>Node69&#45;&gt;Node72</title>
<path fill="none" stroke="midnightblue" d="M837.208,-73.3039C856.141,-61.0989 879.105,-46.296 896.508,-35.0775"/>
<polygon fill="midnightblue" stroke="midnightblue" points="835.063,-70.5227 828.554,-78.8826 838.855,-76.4062 835.063,-70.5227"/>
</g>
<!-- Node79&#45;&gt;Node80 -->
<g id="edge56" class="edge"><title>Node79&#45;&gt;Node80</title>
<path fill="none" stroke="midnightblue" d="M985.396,-240.148C1001.74,-226.421 1021.89,-209.492 1036.65,-197.095"/>
<polygon fill="midnightblue" stroke="midnightblue" points="983.126,-237.483 977.72,-246.595 987.628,-242.843 983.126,-237.483"/>
</g>
<!-- Node82 -->
<g id="node58" class="node"><title>Node82</title>
<a xlink:href="_setup__2014__07___e_p_t___prod_8cc.html" target="_top" xlink:title="src/expconfig/setups\l/Setup_2014_07_EPT_Prod.cc">
<polygon fill="white" stroke="black" points="1133.5,-163 1133.5,-197 1284.5,-197 1284.5,-163 1133.5,-163"/>
<text text-anchor="start" x="1141.5" y="-184" font-family="Helvetica,sans-Serif" font-size="10.00">src/expconfig/setups</text>
<text text-anchor="middle" x="1209" y="-171" font-family="Helvetica,sans-Serif" font-size="10.00">/Setup_2014_07_EPT_Prod.cc</text>
</a>
</g>
<!-- Node81&#45;&gt;Node82 -->
<g id="edge62" class="edge"><title>Node81&#45;&gt;Node82</title>
<path fill="none" stroke="midnightblue" d="M1268.4,-239.396C1254.81,-225.807 1238.27,-209.267 1226.1,-197.095"/>
<polygon fill="midnightblue" stroke="midnightblue" points="1266.05,-241.999 1275.6,-246.595 1271,-237.049 1266.05,-241.999"/>
</g>
<!-- Node83 -->
<g id="node60" class="node"><title>Node83</title>
<a xlink:href="_setup__2014__10___e_p_t___prod_8cc.html" target="_top" xlink:title="src/expconfig/setups\l/Setup_2014_10_EPT_Prod.cc">
<polygon fill="white" stroke="black" points="1301.5,-163 1301.5,-197 1452.5,-197 1452.5,-163 1301.5,-163"/>
<text text-anchor="start" x="1309.5" y="-184" font-family="Helvetica,sans-Serif" font-size="10.00">src/expconfig/setups</text>
<text text-anchor="middle" x="1377" y="-171" font-family="Helvetica,sans-Serif" font-size="10.00">/Setup_2014_10_EPT_Prod.cc</text>
</a>
</g>
<!-- Node81&#45;&gt;Node83 -->
<g id="edge64" class="edge"><title>Node81&#45;&gt;Node83</title>
<path fill="none" stroke="midnightblue" d="M1317.6,-239.396C1331.19,-225.807 1347.73,-209.267 1359.9,-197.095"/>
<polygon fill="midnightblue" stroke="midnightblue" points="1315,-237.049 1310.4,-246.595 1319.95,-241.999 1315,-237.049"/>
</g>
<!-- Node84 -->
<g id="node62" class="node"><title>Node84</title>
<a xlink:href="_setup__2014__12___e_p_t___prod_8cc.html" target="_top" xlink:title="src/expconfig/setups\l/Setup_2014_12_EPT_Prod.cc">
<polygon fill="white" stroke="black" points="1469.5,-163 1469.5,-197 1620.5,-197 1620.5,-163 1469.5,-163"/>
<text text-anchor="start" x="1477.5" y="-184" font-family="Helvetica,sans-Serif" font-size="10.00">src/expconfig/setups</text>
<text text-anchor="middle" x="1545" y="-171" font-family="Helvetica,sans-Serif" font-size="10.00">/Setup_2014_12_EPT_Prod.cc</text>
</a>
</g>
<!-- Node81&#45;&gt;Node84 -->
<g id="edge66" class="edge"><title>Node81&#45;&gt;Node84</title>
<path fill="none" stroke="midnightblue" d="M1345.51,-243.408C1348.71,-242.234 1351.9,-241.09 1355,-240 1399.23,-224.475 1449.86,-208.575 1487.74,-197.047"/>
<polygon fill="midnightblue" stroke="midnightblue" points="1344.04,-240.22 1335.89,-246.99 1346.49,-246.779 1344.04,-240.22"/>
</g>
<!-- Node85 -->
<g id="node64" class="node"><title>Node85</title>
<a xlink:href="_setup__2014___e_p_t_8cc.html" target="_top" xlink:title="src/expconfig/setups\l/Setup_2014_EPT.cc">
<polygon fill="white" stroke="black" points="1638,-163 1638,-197 1748,-197 1748,-163 1638,-163"/>
<text text-anchor="start" x="1646" y="-184" font-family="Helvetica,sans-Serif" font-size="10.00">src/expconfig/setups</text>
<text text-anchor="middle" x="1693" y="-171" font-family="Helvetica,sans-Serif" font-size="10.00">/Setup_2014_EPT.cc</text>
</a>
</g>
<!-- Node81&#45;&gt;Node85 -->
<g id="edge68" class="edge"><title>Node81&#45;&gt;Node85</title>
<path fill="none" stroke="midnightblue" d="M1342.55,-243.63C1346.73,-242.279 1350.91,-241.044 1355,-240 1474.01,-209.614 1509.83,-233.757 1629,-204 1636.48,-202.131 1644.29,-199.664 1651.78,-197.023"/>
<polygon fill="midnightblue" stroke="midnightblue" points="1341.21,-240.39 1332.9,-246.956 1343.49,-247.008 1341.21,-240.39"/>
</g>
</g>
</svg>
