<?xml version="1.0" encoding="UTF-8" standalone="no"?>
<!DOCTYPE svg PUBLIC "-//W3C//DTD SVG 1.1//EN"
 "http://www.w3.org/Graphics/SVG/1.1/DTD/svg11.dtd">
<!-- Generated by graphviz version 2.26.3 (20100126.1600)
 -->
<!-- Title: progs/EtapOmegaG_fit.cc Pages: 1 -->
<svg width="1637pt" height="334pt"
 viewBox="0.00 0.00 1637.00 334.00" xmlns="http://www.w3.org/2000/svg" xmlns:xlink="http://www.w3.org/1999/xlink">
<g id="graph1" class="graph" transform="scale(1 1) rotate(0) translate(4 330)">
<title>progs/EtapOmegaG_fit.cc</title>
<polygon fill="white" stroke="white" points="-4,5 -4,-330 1634,-330 1634,5 -4,5"/>
<!-- Node0 -->
<g id="node1" class="node"><title>Node0</title>
<polygon fill="#bfbfbf" stroke="black" points="1047,-304.5 1047,-325.5 1177,-325.5 1177,-304.5 1047,-304.5"/>
<text text-anchor="middle" x="1112" y="-312.5" font-family="Helvetica,sans-Serif" font-size="10.00">progs/EtapOmegaG_fit.cc</text>
</g>
<!-- Node1 -->
<g id="node3" class="node"><title>Node1</title>
<a xlink:href="_logger_8h.html" target="_top" xlink:title="base/Logger.h">
<polygon fill="white" stroke="black" points="629,-239.5 629,-260.5 707,-260.5 707,-239.5 629,-239.5"/>
<text text-anchor="middle" x="668" y="-247.5" font-family="Helvetica,sans-Serif" font-size="10.00">base/Logger.h</text>
</a>
</g>
<!-- Node0&#45;&gt;Node1 -->
<g id="edge2" class="edge"><title>Node0&#45;&gt;Node1</title>
<path fill="none" stroke="midnightblue" d="M1046.68,-312.063C967.467,-307.404 830.365,-295.8 716,-268 711.5,-266.906 706.847,-265.513 702.288,-263.988"/>
<polygon fill="midnightblue" stroke="midnightblue" points="703.15,-260.58 692.555,-260.504 700.79,-267.17 703.15,-260.58"/>
</g>
<!-- Node3 -->
<g id="node7" class="node"><title>Node3</title>
<polygon fill="white" stroke="#bfbfbf" points="725,-239.5 725,-260.5 813,-260.5 813,-239.5 725,-239.5"/>
<text text-anchor="middle" x="769" y="-247.5" font-family="Helvetica,sans-Serif" font-size="10.00">tclap/CmdLine.h</text>
</g>
<!-- Node0&#45;&gt;Node3 -->
<g id="edge6" class="edge"><title>Node0&#45;&gt;Node3</title>
<path fill="none" stroke="midnightblue" d="M1046.98,-306.871C988.883,-298.994 901.667,-285.655 827,-268 821.485,-266.696 815.729,-265.146 810.077,-263.511"/>
<polygon fill="midnightblue" stroke="midnightblue" points="810.672,-260.035 800.088,-260.511 808.658,-266.74 810.672,-260.035"/>
</g>
<!-- Node4 -->
<g id="node9" class="node"><title>Node4</title>
<a xlink:href="interval_8h.html" target="_top" xlink:title="base/interval.h">
<polygon fill="white" stroke="black" points="1061,-58.5 1061,-79.5 1141,-79.5 1141,-58.5 1061,-58.5"/>
<text text-anchor="middle" x="1101" y="-66.5" font-family="Helvetica,sans-Serif" font-size="10.00">base/interval.h</text>
</a>
</g>
<!-- Node0&#45;&gt;Node4 -->
<g id="edge8" class="edge"><title>Node0&#45;&gt;Node4</title>
<path fill="none" stroke="midnightblue" d="M1088.98,-304.371C1074.91,-296.508 1058.11,-284.33 1050,-268 1019.56,-206.72 1063.39,-125.522 1087.26,-88.6783"/>
<polygon fill="midnightblue" stroke="midnightblue" points="1090.48,-90.1695 1093.12,-79.9095 1084.66,-86.282 1090.48,-90.1695"/>
</g>
<!-- Node12 -->
<g id="node25" class="node"><title>Node12</title>
<a xlink:href="_wrap_t_file_8h.html" target="_top" xlink:title="base/WrapTFile.h">
<polygon fill="white" stroke="black" points="489,-116.5 489,-137.5 583,-137.5 583,-116.5 489,-116.5"/>
<text text-anchor="middle" x="536" y="-124.5" font-family="Helvetica,sans-Serif" font-size="10.00">base/WrapTFile.h</text>
</a>
</g>
<!-- Node0&#45;&gt;Node12 -->
<g id="edge24" class="edge"><title>Node0&#45;&gt;Node12</title>
<path fill="none" stroke="midnightblue" d="M1046.87,-307.096C1000.64,-300.154 937.686,-287.97 885,-268 882.545,-267.069 723.434,-174.985 721,-174 679.586,-157.236 630.481,-145.094 593.273,-137.354"/>
<polygon fill="midnightblue" stroke="midnightblue" points="593.607,-133.851 583.11,-135.288 592.212,-140.71 593.607,-133.851"/>
</g>
<!-- Node13 -->
<g id="node27" class="node"><title>Node13</title>
<a xlink:href="string_8h.html" target="_top" xlink:title="base/std_ext/string.h">
<polygon fill="white" stroke="black" points="935,-58.5 935,-79.5 1043,-79.5 1043,-58.5 935,-58.5"/>
<text text-anchor="middle" x="989" y="-66.5" font-family="Helvetica,sans-Serif" font-size="10.00">base/std_ext/string.h</text>
</a>
</g>
<!-- Node0&#45;&gt;Node13 -->
<g id="edge70" class="edge"><title>Node0&#45;&gt;Node13</title>
<path fill="none" stroke="midnightblue" d="M1084.58,-304.469C1068.11,-296.772 1048.06,-284.74 1036,-268 996.143,-212.691 989.636,-128.377 988.872,-89.6997"/>
<polygon fill="midnightblue" stroke="midnightblue" points="992.371,-89.622 988.787,-79.6519 985.372,-89.6812 992.371,-89.622"/>
</g>
<!-- Node28 -->
<g id="node65" class="node"><title>Node28</title>
<a xlink:href="system_8h.html" target="_top" xlink:title="base/std_ext/system.h">
<polygon fill="white" stroke="black" points="811,-116.5 811,-137.5 927,-137.5 927,-116.5 811,-116.5"/>
<text text-anchor="middle" x="869" y="-124.5" font-family="Helvetica,sans-Serif" font-size="10.00">base/std_ext/system.h</text>
</a>
</g>
<!-- Node0&#45;&gt;Node28 -->
<g id="edge72" class="edge"><title>Node0&#45;&gt;Node28</title>
<path fill="none" stroke="midnightblue" d="M1054.94,-304.466C1012.33,-295.666 958.547,-282.29 941,-268 941,-268 898.998,-185.747 879.155,-146.886"/>
<polygon fill="midnightblue" stroke="midnightblue" points="882.077,-144.912 874.412,-137.598 875.842,-148.096 882.077,-144.912"/>
</g>
<!-- Node29 -->
<g id="node69" class="node"><title>Node29</title>
<a xlink:href="memory_8h.html" target="_top" xlink:title="base/std_ext/memory.h">
<polygon fill="white" stroke="black" points="674.5,-116.5 674.5,-137.5 793.5,-137.5 793.5,-116.5 674.5,-116.5"/>
<text text-anchor="middle" x="734" y="-124.5" font-family="Helvetica,sans-Serif" font-size="10.00">base/std_ext/memory.h</text>
</a>
</g>
<!-- Node0&#45;&gt;Node29 -->
<g id="edge78" class="edge"><title>Node0&#45;&gt;Node29</title>
<path fill="none" stroke="midnightblue" d="M1046.82,-304.44C998.932,-295.724 938.75,-282.472 918,-268 876.749,-239.229 894.251,-205.444 855,-174 835.925,-158.719 811.297,-147.95 789.243,-140.613"/>
<polygon fill="midnightblue" stroke="midnightblue" points="790.237,-137.257 779.647,-137.578 788.126,-143.931 790.237,-137.257"/>
</g>
<!-- Node30 -->
<g id="node73" class="node"><title>Node30</title>
<a xlink:href="_particle_type_8h.html" target="_top" xlink:title="base/ParticleType.h">
<polygon fill="white" stroke="black" points="1211,-116.5 1211,-137.5 1315,-137.5 1315,-116.5 1211,-116.5"/>
<text text-anchor="middle" x="1263" y="-124.5" font-family="Helvetica,sans-Serif" font-size="10.00">base/ParticleType.h</text>
</a>
</g>
<!-- Node0&#45;&gt;Node30 -->
<g id="edge84" class="edge"><title>Node0&#45;&gt;Node30</title>
<path fill="none" stroke="midnightblue" d="M1137.82,-304.496C1157.71,-295.904 1185.52,-282.79 1208,-268 1228.54,-254.486 1231.15,-247.785 1250,-232 1269.37,-215.777 1283.18,-218.833 1294,-196 1302.01,-179.096 1291.51,-159.642 1280.62,-145.708"/>
<polygon fill="midnightblue" stroke="midnightblue" points="1283.08,-143.195 1273.95,-137.819 1277.73,-147.715 1283.08,-143.195"/>
</g>
<!-- Node34 -->
<g id="node85" class="node"><title>Node34</title>
<a xlink:href="root-addons_2analysis__codes_2math_8h.html" target="_top" xlink:title="root&#45;addons/analysis\l_codes/Math.h">
<polygon fill="white" stroke="black" points="1058.5,-233 1058.5,-267 1165.5,-267 1165.5,-233 1058.5,-233"/>
<text text-anchor="start" x="1066.5" y="-254" font-family="Helvetica,sans-Serif" font-size="10.00">root&#45;addons/analysis</text>
<text text-anchor="middle" x="1112" y="-241" font-family="Helvetica,sans-Serif" font-size="10.00">_codes/Math.h</text>
</a>
</g>
<!-- Node0&#45;&gt;Node34 -->
<g id="edge100" class="edge"><title>Node0&#45;&gt;Node34</title>
<path fill="none" stroke="midnightblue" d="M1112,-304.267C1112,-296.931 1112,-286.857 1112,-277.38"/>
<polygon fill="midnightblue" stroke="midnightblue" points="1115.5,-277.11 1112,-267.11 1108.5,-277.11 1115.5,-277.11"/>
</g>
<!-- Node40 -->
<g id="node105" class="node"><title>Node40</title>
<polygon fill="white" stroke="#bfbfbf" points="1243,-174.5 1243,-195.5 1285,-195.5 1285,-174.5 1243,-174.5"/>
<text text-anchor="middle" x="1264" y="-182.5" font-family="Helvetica,sans-Serif" font-size="10.00">TF1.h</text>
</g>
<!-- Node0&#45;&gt;Node40 -->
<g id="edge132" class="edge"><title>Node0&#45;&gt;Node40</title>
<path fill="none" stroke="midnightblue" d="M1126.84,-304.372C1139.6,-295.089 1158.36,-281.089 1174,-268 1199.73,-246.471 1227.94,-219.94 1245.8,-202.758"/>
<polygon fill="midnightblue" stroke="midnightblue" points="1248.47,-205.041 1253.22,-195.573 1243.6,-200.009 1248.47,-205.041"/>
</g>
<!-- Node41 -->
<g id="node107" class="node"><title>Node41</title>
<polygon fill="white" stroke="#bfbfbf" points="1258.5,-239.5 1258.5,-260.5 1309.5,-260.5 1309.5,-239.5 1258.5,-239.5"/>
<text text-anchor="middle" x="1284" y="-247.5" font-family="Helvetica,sans-Serif" font-size="10.00">TH1D.h</text>
</g>
<!-- Node0&#45;&gt;Node41 -->
<g id="edge130" class="edge"><title>Node0&#45;&gt;Node41</title>
<path fill="none" stroke="midnightblue" d="M1144.57,-304.432C1171.69,-295.407 1211.2,-281.739 1245,-268 1247.5,-266.982 1250.08,-265.892 1252.66,-264.769"/>
<polygon fill="midnightblue" stroke="midnightblue" points="1254.19,-267.921 1261.88,-260.64 1251.32,-261.533 1254.19,-267.921"/>
</g>
<!-- Node42 -->
<g id="node110" class="node"><title>Node42</title>
<polygon fill="white" stroke="#bfbfbf" points="1326.5,-239.5 1326.5,-260.5 1391.5,-260.5 1391.5,-239.5 1326.5,-239.5"/>
<text text-anchor="middle" x="1359" y="-247.5" font-family="Helvetica,sans-Serif" font-size="10.00">TCanvas.h</text>
</g>
<!-- Node0&#45;&gt;Node42 -->
<g id="edge134" class="edge"><title>Node0&#45;&gt;Node42</title>
<path fill="none" stroke="midnightblue" d="M1171.87,-304.455C1213.42,-296.383 1269.76,-283.934 1318,-268 1321.1,-266.976 1324.29,-265.804 1327.45,-264.559"/>
<polygon fill="midnightblue" stroke="midnightblue" points="1328.86,-267.762 1336.74,-260.684 1326.17,-261.301 1328.86,-267.762"/>
</g>
<!-- Node43 -->
<g id="node112" class="node"><title>Node43</title>
<polygon fill="white" stroke="#bfbfbf" points="1408.5,-239.5 1408.5,-260.5 1481.5,-260.5 1481.5,-239.5 1408.5,-239.5"/>
<text text-anchor="middle" x="1445" y="-247.5" font-family="Helvetica,sans-Serif" font-size="10.00">TPaveText.h</text>
</g>
<!-- Node0&#45;&gt;Node43 -->
<g id="edge136" class="edge"><title>Node0&#45;&gt;Node43</title>
<path fill="none" stroke="midnightblue" d="M1177.22,-308.48C1236.17,-301.618 1324.95,-288.862 1400,-268 1403.9,-266.915 1407.93,-265.603 1411.89,-264.186"/>
<polygon fill="midnightblue" stroke="midnightblue" points="1413.41,-267.35 1421.51,-260.519 1410.92,-260.809 1413.41,-267.35"/>
</g>
<!-- Node44 -->
<g id="node114" class="node"><title>Node44</title>
<polygon fill="white" stroke="#bfbfbf" points="1498.5,-239.5 1498.5,-260.5 1563.5,-260.5 1563.5,-239.5 1498.5,-239.5"/>
<text text-anchor="middle" x="1531" y="-247.5" font-family="Helvetica,sans-Serif" font-size="10.00">TSystem.h</text>
</g>
<!-- Node0&#45;&gt;Node44 -->
<g id="edge138" class="edge"><title>Node0&#45;&gt;Node44</title>
<path fill="none" stroke="midnightblue" d="M1177.32,-312.612C1253.57,-308.518 1382.89,-297.494 1490,-268 1493.58,-267.013 1497.26,-265.767 1500.87,-264.393"/>
<polygon fill="midnightblue" stroke="midnightblue" points="1502.25,-267.609 1510.15,-260.547 1499.57,-261.142 1502.25,-267.609"/>
</g>
<!-- Node45 -->
<g id="node116" class="node"><title>Node45</title>
<polygon fill="white" stroke="#bfbfbf" points="1580.5,-239.5 1580.5,-260.5 1629.5,-260.5 1629.5,-239.5 1580.5,-239.5"/>
<text text-anchor="middle" x="1605" y="-247.5" font-family="Helvetica,sans-Serif" font-size="10.00">TRint.h</text>
</g>
<!-- Node0&#45;&gt;Node45 -->
<g id="edge140" class="edge"><title>Node0&#45;&gt;Node45</title>
<path fill="none" stroke="midnightblue" d="M1177.3,-311.517C1286.2,-305.177 1500.02,-290.312 1572,-268 1574.6,-267.195 1577.23,-266.174 1579.8,-265.03"/>
<polygon fill="midnightblue" stroke="midnightblue" points="1581.43,-268.132 1588.78,-260.508 1578.28,-261.88 1581.43,-268.132"/>
</g>
<!-- Node2 -->
<g id="node5" class="node"><title>Node2</title>
<polygon fill="white" stroke="#bfbfbf" points="623.5,-174.5 623.5,-195.5 712.5,-195.5 712.5,-174.5 623.5,-174.5"/>
<text text-anchor="middle" x="668" y="-182.5" font-family="Helvetica,sans-Serif" font-size="10.00">easylogging++.h</text>
</g>
<!-- Node1&#45;&gt;Node2 -->
<g id="edge4" class="edge"><title>Node1&#45;&gt;Node2</title>
<path fill="none" stroke="midnightblue" d="M668,-239.267C668,-230.18 668,-216.892 668,-205.74"/>
<polygon fill="midnightblue" stroke="midnightblue" points="671.5,-205.534 668,-195.534 664.5,-205.534 671.5,-205.534"/>
</g>
<!-- Node5 -->
<g id="node11" class="node"><title>Node5</title>
<a xlink:href="types_8h.html" target="_top" xlink:title="types.h">
<polygon fill="white" stroke="black" points="1243.5,-0.5 1243.5,-21.5 1292.5,-21.5 1292.5,-0.5 1243.5,-0.5"/>
<text text-anchor="middle" x="1268" y="-8.5" font-family="Helvetica,sans-Serif" font-size="10.00">types.h</text>
</a>
</g>
<!-- Node4&#45;&gt;Node5 -->
<g id="edge10" class="edge"><title>Node4&#45;&gt;Node5</title>
<path fill="none" stroke="midnightblue" d="M1131.24,-58.4966C1160.12,-48.4661 1203.59,-33.3687 1233.74,-22.8985"/>
<polygon fill="midnightblue" stroke="midnightblue" points="1235.12,-26.1263 1243.41,-19.5391 1232.82,-19.5137 1235.12,-26.1263"/>
</g>
<!-- Node6 -->
<g id="node13" class="node"><title>Node6</title>
<polygon fill="white" stroke="#bfbfbf" points="953,-0.5 953,-21.5 1009,-21.5 1009,-0.5 953,-0.5"/>
<text text-anchor="middle" x="981" y="-8.5" font-family="Helvetica,sans-Serif" font-size="10.00">algorithm</text>
</g>
<!-- Node4&#45;&gt;Node6 -->
<g id="edge12" class="edge"><title>Node4&#45;&gt;Node6</title>
<path fill="none" stroke="midnightblue" d="M1079.27,-58.4966C1060.53,-49.4378 1033.23,-36.2462 1012.16,-26.0628"/>
<polygon fill="midnightblue" stroke="midnightblue" points="1013.5,-22.8217 1002.97,-21.6212 1010.46,-29.1242 1013.5,-22.8217"/>
</g>
<!-- Node7 -->
<g id="node15" class="node"><title>Node7</title>
<polygon fill="white" stroke="#bfbfbf" points="660.5,-0.5 660.5,-21.5 719.5,-21.5 719.5,-0.5 660.5,-0.5"/>
<text text-anchor="middle" x="690" y="-8.5" font-family="Helvetica,sans-Serif" font-size="10.00">stdexcept</text>
</g>
<!-- Node4&#45;&gt;Node7 -->
<g id="edge14" class="edge"><title>Node4&#45;&gt;Node7</title>
<path fill="none" stroke="midnightblue" d="M1060.95,-59.6947C1057.93,-59.089 1054.92,-58.516 1052,-58 935.597,-37.4226 796.646,-21.8803 729.797,-14.9596"/>
<polygon fill="midnightblue" stroke="midnightblue" points="730.007,-11.4628 719.702,-13.9234 729.292,-18.4262 730.007,-11.4628"/>
</g>
<!-- Node8 -->
<g id="node17" class="node"><title>Node8</title>
<polygon fill="white" stroke="#bfbfbf" points="1097,-0.5 1097,-21.5 1137,-21.5 1137,-0.5 1097,-0.5"/>
<text text-anchor="middle" x="1117" y="-8.5" font-family="Helvetica,sans-Serif" font-size="10.00">limits</text>
</g>
<!-- Node4&#45;&gt;Node8 -->
<g id="edge16" class="edge"><title>Node4&#45;&gt;Node8</title>
<path fill="none" stroke="midnightblue" d="M1103.93,-58.3619C1106.01,-50.8401 1108.86,-40.5187 1111.36,-31.4308"/>
<polygon fill="midnightblue" stroke="midnightblue" points="1114.8,-32.1414 1114.08,-21.5707 1108.05,-30.2798 1114.8,-32.1414"/>
</g>
<!-- Node9 -->
<g id="node19" class="node"><title>Node9</title>
<polygon fill="white" stroke="#bfbfbf" points="1154.5,-0.5 1154.5,-21.5 1203.5,-21.5 1203.5,-0.5 1154.5,-0.5"/>
<text text-anchor="middle" x="1179" y="-8.5" font-family="Helvetica,sans-Serif" font-size="10.00">istream</text>
</g>
<!-- Node4&#45;&gt;Node9 -->
<g id="edge18" class="edge"><title>Node4&#45;&gt;Node9</title>
<path fill="none" stroke="midnightblue" d="M1115.31,-58.3619C1126.85,-49.7773 1143.3,-37.5459 1156.59,-27.6636"/>
<polygon fill="midnightblue" stroke="midnightblue" points="1158.85,-30.3463 1164.78,-21.5707 1154.67,-24.7291 1158.85,-30.3463"/>
</g>
<!-- Node10 -->
<g id="node21" class="node"><title>Node10</title>
<polygon fill="white" stroke="#bfbfbf" points="1027,-0.5 1027,-21.5 1079,-21.5 1079,-0.5 1027,-0.5"/>
<text text-anchor="middle" x="1053" y="-8.5" font-family="Helvetica,sans-Serif" font-size="10.00">sstream</text>
</g>
<!-- Node4&#45;&gt;Node10 -->
<g id="edge20" class="edge"><title>Node4&#45;&gt;Node10</title>
<path fill="none" stroke="midnightblue" d="M1092.2,-58.3619C1085.5,-50.2678 1076.12,-38.9318 1068.21,-29.3796"/>
<polygon fill="midnightblue" stroke="midnightblue" points="1070.82,-27.0431 1061.75,-21.5707 1065.43,-31.5061 1070.82,-27.0431"/>
</g>
<!-- Node11 -->
<g id="node23" class="node"><title>Node11</title>
<polygon fill="white" stroke="#bfbfbf" points="299,-0.5 299,-21.5 343,-21.5 343,-0.5 299,-0.5"/>
<text text-anchor="middle" x="321" y="-8.5" font-family="Helvetica,sans-Serif" font-size="10.00">cmath</text>
</g>
<!-- Node4&#45;&gt;Node11 -->
<g id="edge22" class="edge"><title>Node4&#45;&gt;Node11</title>
<path fill="none" stroke="midnightblue" d="M1060.98,-59.4804C1057.95,-58.9243 1054.93,-58.421 1052,-58 914.073,-38.2087 476.646,-17.8615 353.528,-12.4119"/>
<polygon fill="midnightblue" stroke="midnightblue" points="353.401,-8.90299 343.256,-11.9596 353.093,-15.8962 353.401,-8.90299"/>
</g>
<!-- Node12&#45;&gt;Node7 -->
<g id="edge66" class="edge"><title>Node12&#45;&gt;Node7</title>
<path fill="none" stroke="midnightblue" d="M488.922,-123.715C401.765,-117.152 222.417,-101.208 204,-80 197.589,-72.6174 197.427,-65.2391 204,-58 233.809,-25.1691 539.591,-14.6077 650.279,-11.8451"/>
<polygon fill="midnightblue" stroke="midnightblue" points="650.453,-15.342 660.366,-11.6016 650.284,-8.34406 650.453,-15.342"/>
</g>
<!-- Node12&#45;&gt;Node13 -->
<g id="edge26" class="edge"><title>Node12&#45;&gt;Node13</title>
<path fill="none" stroke="midnightblue" d="M583.197,-120.957C664.887,-110.498 832.71,-89.0106 924.883,-77.2092"/>
<polygon fill="midnightblue" stroke="midnightblue" points="925.447,-80.6657 934.922,-75.9239 924.558,-73.7224 925.447,-80.6657"/>
</g>
<!-- Node14 -->
<g id="node29" class="node"><title>Node14</title>
<polygon fill="white" stroke="#bfbfbf" points="886.5,-0.5 886.5,-21.5 927.5,-21.5 927.5,-0.5 886.5,-0.5"/>
<text text-anchor="middle" x="907" y="-8.5" font-family="Helvetica,sans-Serif" font-size="10.00">string</text>
</g>
<!-- Node12&#45;&gt;Node14 -->
<g id="edge60" class="edge"><title>Node12&#45;&gt;Node14</title>
<path fill="none" stroke="midnightblue" d="M582.538,-116.464C615.025,-108.359 659.017,-95.8657 696,-80 713.934,-72.3061 715.988,-65.5102 734,-58 782.031,-37.9732 841.12,-24.0572 876.333,-16.8129"/>
<polygon fill="midnightblue" stroke="midnightblue" points="877.341,-20.1804 886.456,-14.7795 875.962,-13.3175 877.341,-20.1804"/>
</g>
<!-- Node16 -->
<g id="node35" class="node"><title>Node16</title>
<a xlink:href="misc_8h.html" target="_top" xlink:title="base/std_ext/misc.h">
<polygon fill="white" stroke="black" points="52.5,-58.5 52.5,-79.5 157.5,-79.5 157.5,-58.5 52.5,-58.5"/>
<text text-anchor="middle" x="105" y="-66.5" font-family="Helvetica,sans-Serif" font-size="10.00">base/std_ext/misc.h</text>
</a>
</g>
<!-- Node12&#45;&gt;Node16 -->
<g id="edge36" class="edge"><title>Node12&#45;&gt;Node16</title>
<path fill="none" stroke="midnightblue" d="M488.964,-121.509C419.375,-113.257 284.929,-96.8233 171,-80 169.908,-79.8388 168.807,-79.6744 167.697,-79.5073"/>
<polygon fill="midnightblue" stroke="midnightblue" points="167.986,-76.0104 157.569,-77.942 166.917,-82.9283 167.986,-76.0104"/>
</g>
<!-- Node17 -->
<g id="node38" class="node"><title>Node17</title>
<polygon fill="white" stroke="#bfbfbf" points="-0.5,-0.5 -0.5,-21.5 58.5,-21.5 58.5,-0.5 -0.5,-0.5"/>
<text text-anchor="middle" x="29" y="-8.5" font-family="Helvetica,sans-Serif" font-size="10.00">functional</text>
</g>
<!-- Node12&#45;&gt;Node17 -->
<g id="edge68" class="edge"><title>Node12&#45;&gt;Node17</title>
<path fill="none" stroke="midnightblue" d="M488.689,-125.609C371.878,-121.74 76.8466,-109.158 44,-80 30.6473,-68.1465 27.6329,-47.4461 27.5153,-31.8024"/>
<polygon fill="midnightblue" stroke="midnightblue" points="31.023,-31.6077 27.8353,-21.5039 24.0264,-31.3903 31.023,-31.6077"/>
</g>
<!-- Node19 -->
<g id="node43" class="node"><title>Node19</title>
<polygon fill="white" stroke="#bfbfbf" points="212.5,-58.5 212.5,-79.5 259.5,-79.5 259.5,-58.5 212.5,-58.5"/>
<text text-anchor="middle" x="236" y="-66.5" font-family="Helvetica,sans-Serif" font-size="10.00">TFile.h</text>
</g>
<!-- Node12&#45;&gt;Node19 -->
<g id="edge46" class="edge"><title>Node12&#45;&gt;Node19</title>
<path fill="none" stroke="midnightblue" d="M488.56,-120.984C436.726,-113.9 351.171,-100.719 269.569,-80.1373"/>
<polygon fill="midnightblue" stroke="midnightblue" points="270.195,-76.6848 259.639,-77.5905 268.456,-83.4653 270.195,-76.6848"/>
</g>
<!-- Node20 -->
<g id="node45" class="node"><title>Node20</title>
<polygon fill="white" stroke="#bfbfbf" points="276.5,-58.5 276.5,-79.5 347.5,-79.5 347.5,-58.5 276.5,-58.5"/>
<text text-anchor="middle" x="312" y="-66.5" font-family="Helvetica,sans-Serif" font-size="10.00">TDirectory.h</text>
</g>
<!-- Node12&#45;&gt;Node20 -->
<g id="edge48" class="edge"><title>Node12&#45;&gt;Node20</title>
<path fill="none" stroke="midnightblue" d="M495.435,-116.497C456.616,-106.445 398.146,-91.3057 357.7,-80.833"/>
<polygon fill="midnightblue" stroke="midnightblue" points="358.386,-77.3954 347.828,-78.277 356.632,-84.1719 358.386,-77.3954"/>
</g>
<!-- Node21 -->
<g id="node47" class="node"><title>Node21</title>
<polygon fill="white" stroke="#bfbfbf" points="365,-58.5 365,-79.5 417,-79.5 417,-58.5 365,-58.5"/>
<text text-anchor="middle" x="391" y="-66.5" font-family="Helvetica,sans-Serif" font-size="10.00">TError.h</text>
</g>
<!-- Node12&#45;&gt;Node21 -->
<g id="edge50" class="edge"><title>Node12&#45;&gt;Node21</title>
<path fill="none" stroke="midnightblue" d="M509.742,-116.497C486.44,-107.176 452.2,-93.4799 426.468,-83.1872"/>
<polygon fill="midnightblue" stroke="midnightblue" points="427.648,-79.8895 417.063,-79.4252 425.048,-86.3889 427.648,-79.8895"/>
</g>
<!-- Node22 -->
<g id="node49" class="node"><title>Node22</title>
<polygon fill="white" stroke="#bfbfbf" points="434.5,-58.5 434.5,-79.5 481.5,-79.5 481.5,-58.5 434.5,-58.5"/>
<text text-anchor="middle" x="458" y="-66.5" font-family="Helvetica,sans-Serif" font-size="10.00">TList.h</text>
</g>
<!-- Node12&#45;&gt;Node22 -->
<g id="edge52" class="edge"><title>Node12&#45;&gt;Node22</title>
<path fill="none" stroke="midnightblue" d="M521.694,-116.362C510.149,-107.777 493.7,-95.5459 480.41,-85.6636"/>
<polygon fill="midnightblue" stroke="midnightblue" points="482.329,-82.7291 472.216,-79.5707 478.152,-88.3463 482.329,-82.7291"/>
</g>
<!-- Node23 -->
<g id="node51" class="node"><title>Node23</title>
<polygon fill="white" stroke="#bfbfbf" points="499,-58.5 499,-79.5 573,-79.5 573,-58.5 499,-58.5"/>
<text text-anchor="middle" x="536" y="-66.5" font-family="Helvetica,sans-Serif" font-size="10.00">TCollection.h</text>
</g>
<!-- Node12&#45;&gt;Node23 -->
<g id="edge54" class="edge"><title>Node12&#45;&gt;Node23</title>
<path fill="none" stroke="midnightblue" d="M536,-116.362C536,-108.922 536,-98.7427 536,-89.7276"/>
<polygon fill="midnightblue" stroke="midnightblue" points="539.5,-89.5706 536,-79.5707 532.5,-89.5707 539.5,-89.5706"/>
</g>
<!-- Node24 -->
<g id="node53" class="node"><title>Node24</title>
<polygon fill="white" stroke="#bfbfbf" points="591,-58.5 591,-79.5 639,-79.5 639,-58.5 591,-58.5"/>
<text text-anchor="middle" x="615" y="-66.5" font-family="Helvetica,sans-Serif" font-size="10.00">TKey.h</text>
</g>
<!-- Node12&#45;&gt;Node24 -->
<g id="edge56" class="edge"><title>Node12&#45;&gt;Node24</title>
<path fill="none" stroke="midnightblue" d="M550.49,-116.362C562.183,-107.777 578.843,-95.5459 592.303,-85.6636"/>
<polygon fill="midnightblue" stroke="midnightblue" points="594.613,-88.31 600.602,-79.5707 590.47,-82.6675 594.613,-88.31"/>
</g>
<!-- Node25 -->
<g id="node55" class="node"><title>Node25</title>
<polygon fill="white" stroke="#bfbfbf" points="743,-58.5 743,-79.5 795,-79.5 795,-58.5 743,-58.5"/>
<text text-anchor="middle" x="769" y="-66.5" font-family="Helvetica,sans-Serif" font-size="10.00">memory</text>
</g>
<!-- Node12&#45;&gt;Node25 -->
<g id="edge58" class="edge"><title>Node12&#45;&gt;Node25</title>
<path fill="none" stroke="midnightblue" d="M580.941,-116.452C620.117,-107.163 678.425,-93.1092 729,-80 730.255,-79.6747 731.531,-79.3408 732.819,-79.0011"/>
<polygon fill="midnightblue" stroke="midnightblue" points="734.028,-82.3008 742.78,-76.3296 732.214,-75.5397 734.028,-82.3008"/>
</g>
<!-- Node26 -->
<g id="node58" class="node"><title>Node26</title>
<polygon fill="white" stroke="#bfbfbf" points="812.5,-58.5 812.5,-79.5 841.5,-79.5 841.5,-58.5 812.5,-58.5"/>
<text text-anchor="middle" x="827" y="-66.5" font-family="Helvetica,sans-Serif" font-size="10.00">list</text>
</g>
<!-- Node12&#45;&gt;Node26 -->
<g id="edge62" class="edge"><title>Node12&#45;&gt;Node26</title>
<path fill="none" stroke="midnightblue" d="M583.411,-122.63C635.592,-116.957 721.804,-105.034 802.354,-79.9486"/>
<polygon fill="midnightblue" stroke="midnightblue" points="803.684,-83.1982 812.146,-76.8236 801.556,-76.5295 803.684,-83.1982"/>
</g>
<!-- Node27 -->
<g id="node60" class="node"><title>Node27</title>
<polygon fill="white" stroke="#bfbfbf" points="657,-58.5 657,-79.5 687,-79.5 687,-58.5 657,-58.5"/>
<text text-anchor="middle" x="672" y="-66.5" font-family="Helvetica,sans-Serif" font-size="10.00">set</text>
</g>
<!-- Node12&#45;&gt;Node27 -->
<g id="edge64" class="edge"><title>Node12&#45;&gt;Node27</title>
<path fill="none" stroke="midnightblue" d="M561.903,-116.409C582.801,-107.804 613.15,-95.1705 647.498,-80.1425"/>
<polygon fill="midnightblue" stroke="midnightblue" points="649.05,-83.2836 656.798,-76.0575 646.235,-76.8746 649.05,-83.2836"/>
</g>
<!-- Node13&#45;&gt;Node6 -->
<g id="edge32" class="edge"><title>Node13&#45;&gt;Node6</title>
<path fill="none" stroke="midnightblue" d="M987.533,-58.3619C986.506,-50.9219 985.102,-40.7427 983.859,-31.7276"/>
<polygon fill="midnightblue" stroke="midnightblue" points="987.292,-30.9986 982.458,-21.5707 980.357,-31.9551 987.292,-30.9986"/>
</g>
<!-- Node13&#45;&gt;Node10 -->
<g id="edge30" class="edge"><title>Node13&#45;&gt;Node10</title>
<path fill="none" stroke="midnightblue" d="M1000.74,-58.3619C1009.94,-50.0226 1022.94,-38.2418 1033.67,-28.5162"/>
<polygon fill="midnightblue" stroke="midnightblue" points="1036.28,-30.8793 1041.34,-21.5707 1031.58,-25.6924 1036.28,-30.8793"/>
</g>
<!-- Node13&#45;&gt;Node14 -->
<g id="edge28" class="edge"><title>Node13&#45;&gt;Node14</title>
<path fill="none" stroke="midnightblue" d="M973.96,-58.3619C961.707,-49.6955 944.201,-37.3126 930.161,-27.3819"/>
<polygon fill="midnightblue" stroke="midnightblue" points="932.13,-24.4879 921.945,-21.5707 928.088,-30.2028 932.13,-24.4879"/>
</g>
<!-- Node15 -->
<g id="node33" class="node"><title>Node15</title>
<polygon fill="white" stroke="#bfbfbf" points="1317,-0.5 1317,-21.5 1361,-21.5 1361,-0.5 1317,-0.5"/>
<text text-anchor="middle" x="1339" y="-8.5" font-family="Helvetica,sans-Serif" font-size="10.00">vector</text>
</g>
<!-- Node13&#45;&gt;Node15 -->
<g id="edge34" class="edge"><title>Node13&#45;&gt;Node15</title>
<path fill="none" stroke="midnightblue" d="M1043.28,-59.4188C1046.23,-58.9308 1049.15,-58.4548 1052,-58 1162.42,-40.3818 1191.7,-45.6022 1301,-22 1302.91,-21.5868 1304.87,-21.1293 1306.84,-20.6425"/>
<polygon fill="midnightblue" stroke="midnightblue" points="1307.87,-23.9917 1316.63,-18.0331 1306.06,-17.228 1307.87,-23.9917"/>
</g>
<!-- Node16&#45;&gt;Node6 -->
<g id="edge38" class="edge"><title>Node16&#45;&gt;Node6</title>
<path fill="none" stroke="midnightblue" d="M157.605,-62.5464C172.579,-60.8749 188.917,-59.2077 204,-58 528.687,-32.0025 613.665,-68.8851 936,-22 938.199,-21.6802 940.447,-21.3013 942.708,-20.8799"/>
<polygon fill="midnightblue" stroke="midnightblue" points="943.524,-24.285 952.595,-18.8103 942.09,-17.4335 943.524,-24.285"/>
</g>
<!-- Node16&#45;&gt;Node11 -->
<g id="edge42" class="edge"><title>Node16&#45;&gt;Node11</title>
<path fill="none" stroke="midnightblue" d="M144.116,-58.4966C185.743,-47.3191 250.802,-29.8496 289.335,-19.5026"/>
<polygon fill="midnightblue" stroke="midnightblue" points="290.244,-22.8826 298.994,-16.9089 288.429,-16.1221 290.244,-22.8826"/>
</g>
<!-- Node16&#45;&gt;Node17 -->
<g id="edge40" class="edge"><title>Node16&#45;&gt;Node17</title>
<path fill="none" stroke="midnightblue" d="M91.0604,-58.3619C79.8116,-49.7773 63.7842,-37.5459 50.835,-27.6636"/>
<polygon fill="midnightblue" stroke="midnightblue" points="52.9241,-24.8551 42.8512,-21.5707 48.6774,-30.4198 52.9241,-24.8551"/>
</g>
<!-- Node18 -->
<g id="node41" class="node"><title>Node18</title>
<polygon fill="white" stroke="#bfbfbf" points="78.5,-0.5 78.5,-21.5 131.5,-21.5 131.5,-0.5 78.5,-0.5"/>
<text text-anchor="middle" x="105" y="-8.5" font-family="Helvetica,sans-Serif" font-size="10.00">cxxabi.h</text>
</g>
<!-- Node16&#45;&gt;Node18 -->
<g id="edge44" class="edge"><title>Node16&#45;&gt;Node18</title>
<path fill="none" stroke="midnightblue" d="M105,-58.3619C105,-50.9219 105,-40.7427 105,-31.7276"/>
<polygon fill="midnightblue" stroke="midnightblue" points="108.5,-31.5706 105,-21.5707 101.5,-31.5707 108.5,-31.5706"/>
</g>
<!-- Node28&#45;&gt;Node14 -->
<g id="edge76" class="edge"><title>Node28&#45;&gt;Node14</title>
<path fill="none" stroke="midnightblue" d="M872.507,-116.295C878.813,-97.0451 892.164,-56.2889 900.282,-31.5091"/>
<polygon fill="midnightblue" stroke="midnightblue" points="903.715,-32.2719 903.502,-21.6792 897.062,-30.0927 903.715,-32.2719"/>
</g>
<!-- Node28&#45;&gt;Node26 -->
<g id="edge74" class="edge"><title>Node28&#45;&gt;Node26</title>
<path fill="none" stroke="midnightblue" d="M861.297,-116.362C855.554,-108.431 847.557,-97.3885 840.73,-87.9606"/>
<polygon fill="midnightblue" stroke="midnightblue" points="843.355,-85.6173 834.655,-79.5707 837.685,-89.7229 843.355,-85.6173"/>
</g>
<!-- Node29&#45;&gt;Node25 -->
<g id="edge80" class="edge"><title>Node29&#45;&gt;Node25</title>
<path fill="none" stroke="midnightblue" d="M740.42,-116.362C745.156,-108.513 751.732,-97.6159 757.382,-88.2527"/>
<polygon fill="midnightblue" stroke="midnightblue" points="760.451,-89.9409 762.621,-79.5707 754.458,-86.3242 760.451,-89.9409"/>
</g>
<!-- Node29&#45;&gt;Node26 -->
<g id="edge82" class="edge"><title>Node29&#45;&gt;Node26</title>
<path fill="none" stroke="midnightblue" d="M751.058,-116.362C765.924,-107.091 787.61,-93.5655 804.007,-83.34"/>
<polygon fill="midnightblue" stroke="midnightblue" points="805.861,-86.3082 812.494,-78.0466 802.157,-80.3686 805.861,-86.3082"/>
</g>
<!-- Node30&#45;&gt;Node4 -->
<g id="edge88" class="edge"><title>Node30&#45;&gt;Node4</title>
<path fill="none" stroke="midnightblue" d="M1233.66,-116.497C1207.48,-107.123 1168.94,-93.3242 1140.14,-83.0122"/>
<polygon fill="midnightblue" stroke="midnightblue" points="1140.99,-79.5987 1130.39,-79.5231 1138.63,-86.189 1140.99,-79.5987"/>
</g>
<!-- Node30&#45;&gt;Node5 -->
<g id="edge86" class="edge"><title>Node30&#45;&gt;Node5</title>
<path fill="none" stroke="midnightblue" d="M1263.8,-116.179C1264.47,-106.656 1265.42,-92.4147 1266,-80 1266.75,-63.9135 1267.26,-45.7037 1267.58,-32.0317"/>
<polygon fill="midnightblue" stroke="midnightblue" points="1271.09,-31.8348 1267.8,-21.7609 1264.09,-31.6822 1271.09,-31.8348"/>
</g>
<!-- Node30&#45;&gt;Node14 -->
<g id="edge90" class="edge"><title>Node30&#45;&gt;Node14</title>
<path fill="none" stroke="midnightblue" d="M1210.85,-122.87C1121.59,-115.344 947.034,-98.4605 926,-80 912.474,-68.1286 908.171,-47.6022 906.985,-32.015"/>
<polygon fill="midnightblue" stroke="midnightblue" points="910.471,-31.5887 906.585,-21.7324 903.477,-31.861 910.471,-31.5887"/>
</g>
<!-- Node30&#45;&gt;Node15 -->
<g id="edge98" class="edge"><title>Node30&#45;&gt;Node15</title>
<path fill="none" stroke="midnightblue" d="M1270.01,-116.295C1282.85,-96.6998 1310.29,-54.8198 1326.43,-30.1913"/>
<polygon fill="midnightblue" stroke="midnightblue" points="1329.45,-31.9619 1332,-21.6792 1323.6,-28.1257 1329.45,-31.9619"/>
</g>
<!-- Node31 -->
<g id="node78" class="node"><title>Node31</title>
<polygon fill="white" stroke="#bfbfbf" points="1351,-58.5 1351,-79.5 1403,-79.5 1403,-58.5 1351,-58.5"/>
<text text-anchor="middle" x="1377" y="-66.5" font-family="Helvetica,sans-Serif" font-size="10.00">ostream</text>
</g>
<!-- Node30&#45;&gt;Node31 -->
<g id="edge92" class="edge"><title>Node30&#45;&gt;Node31</title>
<path fill="none" stroke="midnightblue" d="M1283.64,-116.497C1301.37,-107.479 1327.14,-94.3649 1347.12,-84.2006"/>
<polygon fill="midnightblue" stroke="midnightblue" points="1348.8,-87.2753 1356.12,-79.6212 1345.62,-81.0364 1348.8,-87.2753"/>
</g>
<!-- Node32 -->
<g id="node80" class="node"><title>Node32</title>
<polygon fill="white" stroke="#bfbfbf" points="1222.5,-58.5 1222.5,-79.5 1257.5,-79.5 1257.5,-58.5 1222.5,-58.5"/>
<text text-anchor="middle" x="1240" y="-66.5" font-family="Helvetica,sans-Serif" font-size="10.00">map</text>
</g>
<!-- Node30&#45;&gt;Node32 -->
<g id="edge94" class="edge"><title>Node30&#45;&gt;Node32</title>
<path fill="none" stroke="midnightblue" d="M1258.78,-116.362C1255.77,-108.758 1251.62,-98.294 1247.98,-89.1349"/>
<polygon fill="midnightblue" stroke="midnightblue" points="1251.13,-87.5762 1244.19,-79.5707 1244.62,-90.1567 1251.13,-87.5762"/>
</g>
<!-- Node33 -->
<g id="node82" class="node"><title>Node33</title>
<polygon fill="white" stroke="#bfbfbf" points="1158.5,-58.5 1158.5,-79.5 1205.5,-79.5 1205.5,-58.5 1158.5,-58.5"/>
<text text-anchor="middle" x="1182" y="-66.5" font-family="Helvetica,sans-Serif" font-size="10.00">iterator</text>
</g>
<!-- Node30&#45;&gt;Node33 -->
<g id="edge96" class="edge"><title>Node30&#45;&gt;Node33</title>
<path fill="none" stroke="midnightblue" d="M1248.14,-116.362C1236.15,-107.777 1219.07,-95.5459 1205.27,-85.6636"/>
<polygon fill="midnightblue" stroke="midnightblue" points="1206.93,-82.5469 1196.76,-79.5707 1202.86,-88.2383 1206.93,-82.5469"/>
</g>
<!-- Node34&#45;&gt;Node4 -->
<g id="edge104" class="edge"><title>Node34&#45;&gt;Node4</title>
<path fill="none" stroke="midnightblue" d="M1102.04,-232.634C1096.73,-222.346 1090.73,-208.846 1088,-196 1080.14,-158.983 1088.55,-114.852 1095.02,-89.5617"/>
<polygon fill="midnightblue" stroke="midnightblue" points="1098.47,-90.2234 1097.71,-79.6559 1091.71,-88.3912 1098.47,-90.2234"/>
</g>
<!-- Node34&#45;&gt;Node26 -->
<g id="edge102" class="edge"><title>Node34&#45;&gt;Node26</title>
<path fill="none" stroke="midnightblue" d="M1092.8,-232.847C1061.59,-205.573 997.173,-151.753 936,-116 908.228,-99.7682 873.799,-85.8569 851.156,-77.4711"/>
<polygon fill="midnightblue" stroke="midnightblue" points="852.243,-74.142 841.648,-74.0184 849.853,-80.7216 852.243,-74.142"/>
</g>
<!-- Node35 -->
<g id="node89" class="node"><title>Node35</title>
<a xlink:href="piecewise__interval_8h.html" target="_top" xlink:title="base/piecewise_interval.h">
<polygon fill="white" stroke="black" points="1096.5,-174.5 1096.5,-195.5 1225.5,-195.5 1225.5,-174.5 1096.5,-174.5"/>
<text text-anchor="middle" x="1161" y="-182.5" font-family="Helvetica,sans-Serif" font-size="10.00">base/piecewise_interval.h</text>
</a>
</g>
<!-- Node34&#45;&gt;Node35 -->
<g id="edge106" class="edge"><title>Node34&#45;&gt;Node35</title>
<path fill="none" stroke="midnightblue" d="M1124.87,-232.922C1131.58,-224.029 1139.79,-213.13 1146.7,-203.974"/>
<polygon fill="midnightblue" stroke="midnightblue" points="1149.59,-205.944 1152.82,-195.852 1144,-201.73 1149.59,-205.944"/>
</g>
<!-- Node34&#45;&gt;Node40 -->
<g id="edge128" class="edge"><title>Node34&#45;&gt;Node40</title>
<path fill="none" stroke="midnightblue" d="M1151.94,-232.922C1177.33,-222.061 1209.73,-208.209 1233.15,-198.193"/>
<polygon fill="midnightblue" stroke="midnightblue" points="1234.77,-201.306 1242.59,-194.156 1232.02,-194.87 1234.77,-201.306"/>
</g>
<!-- Node35&#45;&gt;Node4 -->
<g id="edge108" class="edge"><title>Node35&#45;&gt;Node4</title>
<path fill="none" stroke="midnightblue" d="M1155.46,-174.295C1145.42,-154.872 1124.05,-113.556 1111.27,-88.8462"/>
<polygon fill="midnightblue" stroke="midnightblue" points="1114.23,-86.9534 1106.52,-79.6792 1108.01,-90.1694 1114.23,-86.9534"/>
</g>
<!-- Node35&#45;&gt;Node15 -->
<g id="edge126" class="edge"><title>Node35&#45;&gt;Node15</title>
<path fill="none" stroke="midnightblue" d="M1225.87,-175.168C1228.62,-174.77 1231.34,-174.379 1234,-174 1389.22,-151.921 1506.81,-221.652 1574,-80 1578.19,-71.1657 1580.2,-65.5616 1574,-58 1567.56,-50.1487 1434.3,-26.943 1371.37,-16.3643"/>
<polygon fill="midnightblue" stroke="midnightblue" points="1371.64,-12.8598 1361.2,-14.6606 1370.48,-19.7637 1371.64,-12.8598"/>
</g>
<!-- Node36 -->
<g id="node92" class="node"><title>Node36</title>
<a xlink:href="printable_8h.html" target="_top" xlink:title="base/std_ext/printable.h">
<polygon fill="white" stroke="black" points="1373.5,-116.5 1373.5,-137.5 1494.5,-137.5 1494.5,-116.5 1373.5,-116.5"/>
<text text-anchor="middle" x="1434" y="-124.5" font-family="Helvetica,sans-Serif" font-size="10.00">base/std_ext/printable.h</text>
</a>
</g>
<!-- Node35&#45;&gt;Node36 -->
<g id="edge110" class="edge"><title>Node35&#45;&gt;Node36</title>
<path fill="none" stroke="midnightblue" d="M1210.44,-174.497C1256.58,-164.693 1325.51,-150.05 1374.62,-139.616"/>
<polygon fill="midnightblue" stroke="midnightblue" points="1375.41,-143.025 1384.47,-137.523 1373.96,-136.178 1375.41,-143.025"/>
</g>
<!-- Node36&#45;&gt;Node31 -->
<g id="edge124" class="edge"><title>Node36&#45;&gt;Node31</title>
<path fill="none" stroke="midnightblue" d="M1423.55,-116.362C1415.43,-108.104 1404,-96.4725 1394.5,-86.8029"/>
<polygon fill="midnightblue" stroke="midnightblue" points="1396.89,-84.2497 1387.39,-79.5707 1391.9,-89.1562 1396.89,-84.2497"/>
</g>
<!-- Node37 -->
<g id="node94" class="node"><title>Node37</title>
<a xlink:href="container_8h.html" target="_top" xlink:title="container.h">
<polygon fill="white" stroke="black" points="1420.5,-58.5 1420.5,-79.5 1485.5,-79.5 1485.5,-58.5 1420.5,-58.5"/>
<text text-anchor="middle" x="1453" y="-66.5" font-family="Helvetica,sans-Serif" font-size="10.00">container.h</text>
</a>
</g>
<!-- Node36&#45;&gt;Node37 -->
<g id="edge112" class="edge"><title>Node36&#45;&gt;Node37</title>
<path fill="none" stroke="midnightblue" d="M1437.48,-116.362C1439.98,-108.758 1443.4,-98.294 1446.4,-89.1349"/>
<polygon fill="midnightblue" stroke="midnightblue" points="1449.75,-90.1634 1449.54,-79.5707 1443.1,-87.9841 1449.75,-90.1634"/>
</g>
<!-- Node39 -->
<g id="node101" class="node"><title>Node39</title>
<polygon fill="white" stroke="#bfbfbf" points="1503,-58.5 1503,-79.5 1565,-79.5 1565,-58.5 1503,-58.5"/>
<text text-anchor="middle" x="1534" y="-66.5" font-family="Helvetica,sans-Serif" font-size="10.00">type_traits</text>
</g>
<!-- Node36&#45;&gt;Node39 -->
<g id="edge122" class="edge"><title>Node36&#45;&gt;Node39</title>
<path fill="none" stroke="midnightblue" d="M1452.34,-116.362C1467.57,-107.532 1489.44,-94.844 1506.72,-84.8224"/>
<polygon fill="midnightblue" stroke="midnightblue" points="1508.88,-87.6155 1515.77,-79.5707 1505.37,-81.5603 1508.88,-87.6155"/>
</g>
<!-- Node37&#45;&gt;Node6 -->
<g id="edge116" class="edge"><title>Node37&#45;&gt;Node6</title>
<path fill="none" stroke="midnightblue" d="M1420.44,-59.7256C1417.6,-59.0804 1414.76,-58.4921 1412,-58 1242.11,-27.6777 1192.51,-54.1942 1019.11,-21.8871"/>
<polygon fill="midnightblue" stroke="midnightblue" points="1019.62,-18.4212 1009.14,-19.9909 1018.31,-25.2979 1019.62,-18.4212"/>
</g>
<!-- Node37&#45;&gt;Node14 -->
<g id="edge120" class="edge"><title>Node37&#45;&gt;Node14</title>
<path fill="none" stroke="midnightblue" d="M1420.45,-59.6826C1417.6,-59.0467 1414.76,-58.4723 1412,-58 1206.37,-22.8201 1149.14,-59.9378 944,-22 941.805,-21.594 939.554,-21.1074 937.3,-20.5681"/>
<polygon fill="midnightblue" stroke="midnightblue" points="938.12,-17.1643 927.554,-17.9522 936.305,-23.925 938.12,-17.1643"/>
</g>
<!-- Node37&#45;&gt;Node15 -->
<g id="edge114" class="edge"><title>Node37&#45;&gt;Node15</title>
<path fill="none" stroke="midnightblue" d="M1432.36,-58.4966C1414.63,-49.4786 1388.86,-36.3649 1368.88,-26.2006"/>
<polygon fill="midnightblue" stroke="midnightblue" points="1370.38,-23.0364 1359.88,-21.6212 1367.2,-29.2753 1370.38,-23.0364"/>
</g>
<!-- Node38 -->
<g id="node98" class="node"><title>Node38</title>
<polygon fill="white" stroke="#bfbfbf" points="1427.5,-0.5 1427.5,-21.5 1478.5,-21.5 1478.5,-0.5 1427.5,-0.5"/>
<text text-anchor="middle" x="1453" y="-8.5" font-family="Helvetica,sans-Serif" font-size="10.00">numeric</text>
</g>
<!-- Node37&#45;&gt;Node38 -->
<g id="edge118" class="edge"><title>Node37&#45;&gt;Node38</title>
<path fill="none" stroke="midnightblue" d="M1453,-58.3619C1453,-50.9219 1453,-40.7427 1453,-31.7276"/>
<polygon fill="midnightblue" stroke="midnightblue" points="1456.5,-31.5706 1453,-21.5707 1449.5,-31.5707 1456.5,-31.5706"/>
</g>
</g>
</svg>
