<?xml version="1.0" encoding="UTF-8" standalone="no"?>
<!DOCTYPE svg PUBLIC "-//W3C//DTD SVG 1.1//EN"
 "http://www.w3.org/Graphics/SVG/1.1/DTD/svg11.dtd">
<!-- Generated by graphviz version 2.26.3 (20100126.1600)
 -->
<!-- Title: src/analysis/utils/uncertainties/FitterSergey.h Pages: 1 -->
<svg width="2567pt" height="200pt"
 viewBox="0.00 0.00 2567.00 200.00" xmlns="http://www.w3.org/2000/svg" xmlns:xlink="http://www.w3.org/1999/xlink">
<g id="graph1" class="graph" transform="scale(1 1) rotate(0) translate(4 196)">
<title>src/analysis/utils/uncertainties/FitterSergey.h</title>
<polygon fill="white" stroke="white" points="-4,5 -4,-196 2564,-196 2564,5 -4,5"/>
<!-- Node42 -->
<g id="node1" class="node"><title>Node42</title>
<polygon fill="#bfbfbf" stroke="black" points="1318,-157 1318,-191 1458,-191 1458,-157 1318,-157"/>
<text text-anchor="start" x="1326" y="-178" font-family="Helvetica,sans-Serif" font-size="10.00">src/analysis/utils</text>
<text text-anchor="middle" x="1388" y="-165" font-family="Helvetica,sans-Serif" font-size="10.00">/uncertainties/FitterSergey.h</text>
</g>
<!-- Node43 -->
<g id="node3" class="node"><title>Node43</title>
<a xlink:href="analysis_2physics_2calibration_2_p_i_d___energy_8h.html" target="_top" xlink:title="src/analysis/physics\l/calibration/PID_Energy.h">
<polygon fill="white" stroke="black" points="3,-79 3,-113 131,-113 131,-79 3,-79"/>
<text text-anchor="start" x="11" y="-100" font-family="Helvetica,sans-Serif" font-size="10.00">src/analysis/physics</text>
<text text-anchor="middle" x="67" y="-87" font-family="Helvetica,sans-Serif" font-size="10.00">/calibration/PID_Energy.h</text>
</a>
</g>
<!-- Node42&#45;&gt;Node43 -->
<g id="edge2" class="edge"><title>Node42&#45;&gt;Node43</title>
<path fill="none" stroke="midnightblue" d="M1307.53,-173.395C1068.5,-171.142 365.333,-161.106 140,-120 130.944,-118.348 121.467,-115.843 112.453,-113.065"/>
<polygon fill="midnightblue" stroke="midnightblue" points="1307.85,-176.898 1317.88,-173.49 1307.92,-169.898 1307.85,-176.898"/>
</g>
<!-- Node45 -->
<g id="node7" class="node"><title>Node45</title>
<a xlink:href="_p_i_d___t_a_p_s_veto___kinfit_8cc.html" target="_top" xlink:title="src/analysis/physics\l/calibration/PID_TAPSVeto\l_Kinfit.cc">
<polygon fill="white" stroke="black" points="149,-72.5 149,-119.5 285,-119.5 285,-72.5 149,-72.5"/>
<text text-anchor="start" x="157" y="-106.5" font-family="Helvetica,sans-Serif" font-size="10.00">src/analysis/physics</text>
<text text-anchor="start" x="157" y="-93.5" font-family="Helvetica,sans-Serif" font-size="10.00">/calibration/PID_TAPSVeto</text>
<text text-anchor="middle" x="217" y="-80.5" font-family="Helvetica,sans-Serif" font-size="10.00">_Kinfit.cc</text>
</a>
</g>
<!-- Node42&#45;&gt;Node45 -->
<g id="edge6" class="edge"><title>Node42&#45;&gt;Node45</title>
<path fill="none" stroke="midnightblue" d="M1307.8,-172.667C1089.65,-168.624 488.79,-154.588 294,-120 291.105,-119.486 288.166,-118.895 285.211,-118.242"/>
<polygon fill="midnightblue" stroke="midnightblue" points="1307.84,-176.169 1317.9,-172.853 1307.97,-169.17 1307.84,-176.169"/>
</g>
<!-- Node46 -->
<g id="node9" class="node"><title>Node46</title>
<a xlink:href="_i_m_comb_fit_plots_8cc.html" target="_top" xlink:title="src/analysis/physics\l/common/IMCombFitPlots.cc">
<polygon fill="white" stroke="black" points="302.5,-79 302.5,-113 447.5,-113 447.5,-79 302.5,-79"/>
<text text-anchor="start" x="310.5" y="-100" font-family="Helvetica,sans-Serif" font-size="10.00">src/analysis/physics</text>
<text text-anchor="middle" x="375" y="-87" font-family="Helvetica,sans-Serif" font-size="10.00">/common/IMCombFitPlots.cc</text>
</a>
</g>
<!-- Node42&#45;&gt;Node46 -->
<g id="edge8" class="edge"><title>Node42&#45;&gt;Node46</title>
<path fill="none" stroke="midnightblue" d="M1307.64,-171.719C1112.68,-165.803 618.636,-148.414 456,-120 446.175,-118.284 435.855,-115.786 425.995,-113.042"/>
<polygon fill="midnightblue" stroke="midnightblue" points="1307.72,-175.223 1317.82,-172.026 1307.93,-168.226 1307.72,-175.223"/>
</g>
<!-- Node47 -->
<g id="node11" class="node"><title>Node47</title>
<a xlink:href="_just_particles_8cc.html" target="_top" xlink:title="src/analysis/physics\l/common/JustParticles.cc">
<polygon fill="white" stroke="black" points="464.5,-79 464.5,-113 595.5,-113 595.5,-79 464.5,-79"/>
<text text-anchor="start" x="472.5" y="-100" font-family="Helvetica,sans-Serif" font-size="10.00">src/analysis/physics</text>
<text text-anchor="middle" x="530" y="-87" font-family="Helvetica,sans-Serif" font-size="10.00">/common/JustParticles.cc</text>
</a>
</g>
<!-- Node42&#45;&gt;Node47 -->
<g id="edge10" class="edge"><title>Node42&#45;&gt;Node47</title>
<path fill="none" stroke="midnightblue" d="M1307.73,-170.965C1135.85,-164.061 737.071,-145.757 604,-120 595.116,-118.28 585.813,-115.817 576.92,-113.117"/>
<polygon fill="midnightblue" stroke="midnightblue" points="1307.84,-174.473 1317.97,-171.374 1308.12,-167.478 1307.84,-174.473"/>
</g>
<!-- Node48 -->
<g id="node13" class="node"><title>Node48</title>
<a xlink:href="_meson_dalitz_decays_8cc.html" target="_top" xlink:title="Physics class to investigate Dalitz decays for different mesons. ">
<polygon fill="white" stroke="black" points="613,-79 613,-113 775,-113 775,-79 613,-79"/>
<text text-anchor="start" x="621" y="-100" font-family="Helvetica,sans-Serif" font-size="10.00">src/analysis/physics</text>
<text text-anchor="middle" x="694" y="-87" font-family="Helvetica,sans-Serif" font-size="10.00">/common/MesonDalitzDecays.cc</text>
</a>
</g>
<!-- Node42&#45;&gt;Node48 -->
<g id="edge12" class="edge"><title>Node42&#45;&gt;Node48</title>
<path fill="none" stroke="midnightblue" d="M1307.49,-171.19C1191.17,-166.14 969.674,-152.807 784,-120 773.649,-118.171 762.752,-115.724 752.254,-113.09"/>
<polygon fill="midnightblue" stroke="midnightblue" points="1307.59,-174.697 1317.73,-171.625 1307.89,-167.704 1307.59,-174.697"/>
</g>
<!-- Node49 -->
<g id="node15" class="node"><title>Node49</title>
<a xlink:href="_etap_omega_g_8cc.html" target="_top" xlink:title="src/analysis/physics\l/etaprime/EtapOmegaG.cc">
<polygon fill="white" stroke="black" points="792.5,-79 792.5,-113 925.5,-113 925.5,-79 792.5,-79"/>
<text text-anchor="start" x="800.5" y="-100" font-family="Helvetica,sans-Serif" font-size="10.00">src/analysis/physics</text>
<text text-anchor="middle" x="859" y="-87" font-family="Helvetica,sans-Serif" font-size="10.00">/etaprime/EtapOmegaG.cc</text>
</a>
</g>
<!-- Node42&#45;&gt;Node49 -->
<g id="edge14" class="edge"><title>Node42&#45;&gt;Node49</title>
<path fill="none" stroke="midnightblue" d="M1307.7,-169.109C1216.36,-162.473 1063.15,-148.074 934,-120 925.45,-118.141 916.488,-115.712 907.853,-113.114"/>
<polygon fill="midnightblue" stroke="midnightblue" points="1307.48,-172.602 1317.7,-169.823 1307.98,-165.62 1307.48,-172.602"/>
</g>
<!-- Node50 -->
<g id="node17" class="node"><title>Node50</title>
<a xlink:href="etaprime-3pi0_8h.html" target="_top" xlink:title="src/analysis/physics\l/etaprime/etaprime&#45;3pi0.h">
<polygon fill="white" stroke="black" points="942.5,-79 942.5,-113 1069.5,-113 1069.5,-79 942.5,-79"/>
<text text-anchor="start" x="950.5" y="-100" font-family="Helvetica,sans-Serif" font-size="10.00">src/analysis/physics</text>
<text text-anchor="middle" x="1006" y="-87" font-family="Helvetica,sans-Serif" font-size="10.00">/etaprime/etaprime&#45;3pi0.h</text>
</a>
</g>
<!-- Node42&#45;&gt;Node50 -->
<g id="edge16" class="edge"><title>Node42&#45;&gt;Node50</title>
<path fill="none" stroke="midnightblue" d="M1307.54,-163.352C1244.56,-154.209 1155.02,-139.43 1078,-120 1070.08,-118.002 1061.77,-115.564 1053.73,-113.016"/>
<polygon fill="midnightblue" stroke="midnightblue" points="1307.41,-166.869 1317.81,-164.826 1308.41,-159.94 1307.41,-166.869"/>
</g>
<!-- Node52 -->
<g id="node21" class="node"><title>Node52</title>
<a xlink:href="etaprime__dalitz_8cc.html" target="_top" xlink:title="src/analysis/physics\l/etaprime/etaprime_dalitz.cc">
<polygon fill="white" stroke="black" points="1087,-79 1087,-113 1227,-113 1227,-79 1087,-79"/>
<text text-anchor="start" x="1095" y="-100" font-family="Helvetica,sans-Serif" font-size="10.00">src/analysis/physics</text>
<text text-anchor="middle" x="1157" y="-87" font-family="Helvetica,sans-Serif" font-size="10.00">/etaprime/etaprime_dalitz.cc</text>
</a>
</g>
<!-- Node42&#45;&gt;Node52 -->
<g id="edge20" class="edge"><title>Node42&#45;&gt;Node52</title>
<path fill="none" stroke="midnightblue" d="M1327.84,-153.688C1290.52,-141.086 1243.11,-125.075 1207.7,-113.119"/>
<polygon fill="midnightblue" stroke="midnightblue" points="1327,-157.096 1337.59,-156.979 1329.24,-150.464 1327,-157.096"/>
</g>
<!-- Node53 -->
<g id="node23" class="node"><title>Node53</title>
<a xlink:href="etaprime__proton_8cc.html" target="_top" xlink:title="src/analysis/physics\l/etaprime/etaprime_proton.cc">
<polygon fill="white" stroke="black" points="1244.5,-79 1244.5,-113 1387.5,-113 1387.5,-79 1244.5,-79"/>
<text text-anchor="start" x="1252.5" y="-100" font-family="Helvetica,sans-Serif" font-size="10.00">src/analysis/physics</text>
<text text-anchor="middle" x="1316" y="-87" font-family="Helvetica,sans-Serif" font-size="10.00">/etaprime/etaprime_proton.cc</text>
</a>
</g>
<!-- Node42&#45;&gt;Node53 -->
<g id="edge22" class="edge"><title>Node42&#45;&gt;Node53</title>
<path fill="none" stroke="midnightblue" d="M1365.22,-149.324C1354.39,-137.594 1341.71,-123.856 1331.93,-113.262"/>
<polygon fill="midnightblue" stroke="midnightblue" points="1362.67,-151.715 1372.02,-156.689 1367.81,-146.967 1362.67,-151.715"/>
</g>
<!-- Node54 -->
<g id="node25" class="node"><title>Node54</title>
<a xlink:href="_find_proton_8cc.html" target="_top" xlink:title="src/analysis/physics\l/omega/FindProton.cc">
<polygon fill="white" stroke="black" points="1404.5,-79 1404.5,-113 1517.5,-113 1517.5,-79 1404.5,-79"/>
<text text-anchor="start" x="1412.5" y="-100" font-family="Helvetica,sans-Serif" font-size="10.00">src/analysis/physics</text>
<text text-anchor="middle" x="1461" y="-87" font-family="Helvetica,sans-Serif" font-size="10.00">/omega/FindProton.cc</text>
</a>
</g>
<!-- Node42&#45;&gt;Node54 -->
<g id="edge24" class="edge"><title>Node42&#45;&gt;Node54</title>
<path fill="none" stroke="midnightblue" d="M1411.09,-149.324C1422.07,-137.594 1434.93,-123.856 1444.84,-113.262"/>
<polygon fill="midnightblue" stroke="midnightblue" points="1408.48,-146.996 1404.2,-156.689 1413.59,-151.78 1408.48,-146.996"/>
</g>
<!-- Node55 -->
<g id="node27" class="node"><title>Node55</title>
<a xlink:href="_omega___eta_g_8cc.html" target="_top" xlink:title="src/analysis/physics\l/omega/Omega_EtaG.cc">
<polygon fill="white" stroke="black" points="1534.5,-79 1534.5,-113 1659.5,-113 1659.5,-79 1534.5,-79"/>
<text text-anchor="start" x="1542.5" y="-100" font-family="Helvetica,sans-Serif" font-size="10.00">src/analysis/physics</text>
<text text-anchor="middle" x="1597" y="-87" font-family="Helvetica,sans-Serif" font-size="10.00">/omega/Omega_EtaG.cc</text>
</a>
</g>
<!-- Node42&#45;&gt;Node55 -->
<g id="edge26" class="edge"><title>Node42&#45;&gt;Node55</title>
<path fill="none" stroke="midnightblue" d="M1443.29,-153.365C1476.92,-140.813 1519.37,-124.973 1551.13,-113.119"/>
<polygon fill="midnightblue" stroke="midnightblue" points="1441.75,-150.203 1433.61,-156.979 1444.2,-156.761 1441.75,-150.203"/>
</g>
<!-- Node56 -->
<g id="node29" class="node"><title>Node56</title>
<a xlink:href="_just_pi0_8cc.html" target="_top" xlink:title="src/analysis/physics\l/pi0/JustPi0.cc">
<polygon fill="white" stroke="black" points="1677,-79 1677,-113 1783,-113 1783,-79 1677,-79"/>
<text text-anchor="start" x="1685" y="-100" font-family="Helvetica,sans-Serif" font-size="10.00">src/analysis/physics</text>
<text text-anchor="middle" x="1730" y="-87" font-family="Helvetica,sans-Serif" font-size="10.00">/pi0/JustPi0.cc</text>
</a>
</g>
<!-- Node42&#45;&gt;Node56 -->
<g id="edge28" class="edge"><title>Node42&#45;&gt;Node56</title>
<path fill="none" stroke="midnightblue" d="M1468.09,-162.46C1524.58,-153.377 1601.68,-139.065 1668,-120 1674.88,-118.023 1682.06,-115.596 1689,-113.052"/>
<polygon fill="midnightblue" stroke="midnightblue" points="1467.47,-159.015 1458.15,-164.04 1468.57,-165.928 1467.47,-159.015"/>
</g>
<!-- Node57 -->
<g id="node31" class="node"><title>Node57</title>
<a xlink:href="single_pi0_8h.html" target="_top" xlink:title="src/analysis/physics\l/production/singlePi0.h">
<polygon fill="white" stroke="black" points="1839,-79 1839,-113 1955,-113 1955,-79 1839,-79"/>
<text text-anchor="start" x="1847" y="-100" font-family="Helvetica,sans-Serif" font-size="10.00">src/analysis/physics</text>
<text text-anchor="middle" x="1897" y="-87" font-family="Helvetica,sans-Serif" font-size="10.00">/production/singlePi0.h</text>
</a>
</g>
<!-- Node42&#45;&gt;Node57 -->
<g id="edge30" class="edge"><title>Node42&#45;&gt;Node57</title>
<path fill="none" stroke="midnightblue" d="M1468.59,-168.862C1556.9,-162.118 1702.35,-147.729 1825,-120 1833.23,-118.14 1841.84,-115.711 1850.13,-113.112"/>
<polygon fill="midnightblue" stroke="midnightblue" points="1468.08,-165.39 1458.37,-169.628 1468.6,-172.371 1468.08,-165.39"/>
</g>
<!-- Node58 -->
<g id="node33" class="node"><title>Node58</title>
<a xlink:href="single_pi0_8cc.html" target="_top" xlink:title="src/analysis/physics\l/production/singlePi0.cc">
<polygon fill="white" stroke="black" points="1750.5,-1 1750.5,-35 1871.5,-35 1871.5,-1 1750.5,-1"/>
<text text-anchor="start" x="1758.5" y="-22" font-family="Helvetica,sans-Serif" font-size="10.00">src/analysis/physics</text>
<text text-anchor="middle" x="1811" y="-9" font-family="Helvetica,sans-Serif" font-size="10.00">/production/singlePi0.cc</text>
</a>
</g>
<!-- Node42&#45;&gt;Node58 -->
<g id="edge36" class="edge"><title>Node42&#45;&gt;Node58</title>
<path fill="none" stroke="midnightblue" d="M1468.24,-168.295C1579.32,-159.648 1768.96,-141.888 1792,-120 1814.98,-98.1649 1815.35,-58.1421 1813.33,-35.2602"/>
<polygon fill="midnightblue" stroke="midnightblue" points="1467.77,-164.821 1458.07,-169.078 1468.31,-171.8 1467.77,-164.821"/>
</g>
<!-- Node60 -->
<g id="node38" class="node"><title>Node60</title>
<a xlink:href="gp__pi0[2g]p_8cc.html" target="_top" xlink:title="src/analysis/physics\l/scratch/collicott/gp\l_pi0[2g]p.cc">
<polygon fill="white" stroke="black" points="1973,-72.5 1973,-119.5 2079,-119.5 2079,-72.5 1973,-72.5"/>
<text text-anchor="start" x="1981" y="-106.5" font-family="Helvetica,sans-Serif" font-size="10.00">src/analysis/physics</text>
<text text-anchor="start" x="1981" y="-93.5" font-family="Helvetica,sans-Serif" font-size="10.00">/scratch/collicott/gp</text>
<text text-anchor="middle" x="2026" y="-80.5" font-family="Helvetica,sans-Serif" font-size="10.00">_pi0[2g]p.cc</text>
</a>
</g>
<!-- Node42&#45;&gt;Node60 -->
<g id="edge38" class="edge"><title>Node42&#45;&gt;Node60</title>
<path fill="none" stroke="midnightblue" d="M1468.4,-169.207C1603.91,-160.67 1872,-141.679 1964,-120 1966.92,-119.312 1969.89,-118.516 1972.86,-117.641"/>
<polygon fill="midnightblue" stroke="midnightblue" points="1467.85,-165.735 1458.09,-169.853 1468.28,-172.721 1467.85,-165.735"/>
</g>
<!-- Node61 -->
<g id="node40" class="node"><title>Node61</title>
<a xlink:href="analysis_2physics_2tunings_2_interpolated_pulls_8cc.html" target="_top" xlink:title="src/analysis/physics\l/tunings/InterpolatedPulls.cc">
<polygon fill="white" stroke="black" points="2097,-79 2097,-113 2237,-113 2237,-79 2097,-79"/>
<text text-anchor="start" x="2105" y="-100" font-family="Helvetica,sans-Serif" font-size="10.00">src/analysis/physics</text>
<text text-anchor="middle" x="2167" y="-87" font-family="Helvetica,sans-Serif" font-size="10.00">/tunings/InterpolatedPulls.cc</text>
</a>
</g>
<!-- Node42&#45;&gt;Node61 -->
<g id="edge40" class="edge"><title>Node42&#45;&gt;Node61</title>
<path fill="none" stroke="midnightblue" d="M1468.18,-170.017C1625.87,-161.822 1971.15,-141.983 2088,-120 2097.44,-118.224 2107.35,-115.734 2116.83,-113.025"/>
<polygon fill="midnightblue" stroke="midnightblue" points="1467.87,-166.528 1458.07,-170.54 1468.23,-173.519 1467.87,-166.528"/>
</g>
<!-- Node62 -->
<g id="node42" class="node"><title>Node62</title>
<a xlink:href="physics_2tunings_2_trigger_simulation_8cc.html" target="_top" xlink:title="src/analysis/physics\l/tunings/TriggerSimulation.cc">
<polygon fill="white" stroke="black" points="2254.5,-79 2254.5,-113 2397.5,-113 2397.5,-79 2254.5,-79"/>
<text text-anchor="start" x="2262.5" y="-100" font-family="Helvetica,sans-Serif" font-size="10.00">src/analysis/physics</text>
<text text-anchor="middle" x="2326" y="-87" font-family="Helvetica,sans-Serif" font-size="10.00">/tunings/TriggerSimulation.cc</text>
</a>
</g>
<!-- Node42&#45;&gt;Node62 -->
<g id="edge42" class="edge"><title>Node42&#45;&gt;Node62</title>
<path fill="none" stroke="midnightblue" d="M1468.14,-171.297C1651.67,-164.728 2098.02,-146.493 2246,-120 2255.71,-118.262 2265.9,-115.754 2275.64,-113.008"/>
<polygon fill="midnightblue" stroke="midnightblue" points="1467.88,-167.804 1458.01,-171.657 1468.13,-174.8 1467.88,-167.804"/>
</g>
<!-- Node63 -->
<g id="node44" class="node"><title>Node63</title>
<a xlink:href="_fitter_sergey_8cc.html" target="_top" xlink:title="src/analysis/utils\l/uncertainties/FitterSergey.cc">
<polygon fill="white" stroke="black" points="2414.5,-79 2414.5,-113 2559.5,-113 2559.5,-79 2414.5,-79"/>
<text text-anchor="start" x="2422.5" y="-100" font-family="Helvetica,sans-Serif" font-size="10.00">src/analysis/utils</text>
<text text-anchor="middle" x="2487" y="-87" font-family="Helvetica,sans-Serif" font-size="10.00">/uncertainties/FitterSergey.cc</text>
</a>
</g>
<!-- Node42&#45;&gt;Node63 -->
<g id="edge44" class="edge"><title>Node42&#45;&gt;Node63</title>
<path fill="none" stroke="midnightblue" d="M1468.33,-172.176C1675.87,-167.073 2226.22,-150.957 2406,-120 2415.83,-118.308 2426.15,-115.821 2436.01,-113.081"/>
<polygon fill="midnightblue" stroke="midnightblue" points="1468.03,-168.682 1458.12,-172.425 1468.2,-175.68 1468.03,-168.682"/>
</g>
<!-- Node44 -->
<g id="node5" class="node"><title>Node44</title>
<a xlink:href="analysis_2physics_2calibration_2_p_i_d___energy_8cc.html" target="_top" xlink:title="src/analysis/physics\l/calibration/PID_Energy.cc">
<polygon fill="white" stroke="black" points="0,-1 0,-35 134,-35 134,-1 0,-1"/>
<text text-anchor="start" x="8" y="-22" font-family="Helvetica,sans-Serif" font-size="10.00">src/analysis/physics</text>
<text text-anchor="middle" x="67" y="-9" font-family="Helvetica,sans-Serif" font-size="10.00">/calibration/PID_Energy.cc</text>
</a>
</g>
<!-- Node43&#45;&gt;Node44 -->
<g id="edge4" class="edge"><title>Node43&#45;&gt;Node44</title>
<path fill="none" stroke="midnightblue" d="M67,-68.6102C67,-57.5188 67,-45.0489 67,-35.2623"/>
<polygon fill="midnightblue" stroke="midnightblue" points="63.5001,-68.6892 67,-78.6893 70.5001,-68.6893 63.5001,-68.6892"/>
</g>
<!-- Node51 -->
<g id="node19" class="node"><title>Node51</title>
<a xlink:href="etaprime-3pi0_8cc.html" target="_top" xlink:title="src/analysis/physics\l/etaprime/etaprime&#45;3pi0.cc">
<polygon fill="white" stroke="black" points="940,-1 940,-35 1072,-35 1072,-1 940,-1"/>
<text text-anchor="start" x="948" y="-22" font-family="Helvetica,sans-Serif" font-size="10.00">src/analysis/physics</text>
<text text-anchor="middle" x="1006" y="-9" font-family="Helvetica,sans-Serif" font-size="10.00">/etaprime/etaprime&#45;3pi0.cc</text>
</a>
</g>
<!-- Node50&#45;&gt;Node51 -->
<g id="edge18" class="edge"><title>Node50&#45;&gt;Node51</title>
<path fill="none" stroke="midnightblue" d="M1006,-68.6102C1006,-57.5188 1006,-45.0489 1006,-35.2623"/>
<polygon fill="midnightblue" stroke="midnightblue" points="1002.5,-68.6892 1006,-78.6893 1009.5,-68.6893 1002.5,-68.6892"/>
</g>
<!-- Node57&#45;&gt;Node58 -->
<g id="edge32" class="edge"><title>Node57&#45;&gt;Node58</title>
<path fill="none" stroke="midnightblue" d="M1870.16,-71.6587C1857.15,-59.8559 1841.82,-45.957 1830.03,-35.2623"/>
<polygon fill="midnightblue" stroke="midnightblue" points="1868.16,-74.5636 1877.91,-78.6893 1872.86,-69.3786 1868.16,-74.5636"/>
</g>
<!-- Node59 -->
<g id="node35" class="node"><title>Node59</title>
<a xlink:href="single_pi0_plots_8cc.html" target="_top" xlink:title="src/analysis/physics\l/production/singlePi0Plots.cc">
<polygon fill="white" stroke="black" points="1888.5,-1 1888.5,-35 2031.5,-35 2031.5,-1 1888.5,-1"/>
<text text-anchor="start" x="1896.5" y="-22" font-family="Helvetica,sans-Serif" font-size="10.00">src/analysis/physics</text>
<text text-anchor="middle" x="1960" y="-9" font-family="Helvetica,sans-Serif" font-size="10.00">/production/singlePi0Plots.cc</text>
</a>
</g>
<!-- Node57&#45;&gt;Node59 -->
<g id="edge34" class="edge"><title>Node57&#45;&gt;Node59</title>
<path fill="none" stroke="midnightblue" d="M1917.47,-70.6516C1926.83,-59.0718 1937.66,-45.6543 1946.06,-35.2623"/>
<polygon fill="midnightblue" stroke="midnightblue" points="1914.54,-68.7106 1910.98,-78.6893 1919.99,-73.109 1914.54,-68.7106"/>
</g>
</g>
</svg>
