<?xml version="1.0" encoding="UTF-8" standalone="no"?>
<!DOCTYPE svg PUBLIC "-//W3C//DTD SVG 1.1//EN"
 "http://www.w3.org/Graphics/SVG/1.1/DTD/svg11.dtd">
<!-- Generated by graphviz version 2.26.3 (20100126.1600)
 -->
<!-- Title: src/root&#45;addons/analysis_codes/Fits.cc Pages: 1 -->
<svg width="1341pt" height="348pt"
 viewBox="0.00 0.00 1341.00 348.00" xmlns="http://www.w3.org/2000/svg" xmlns:xlink="http://www.w3.org/1999/xlink">
<g id="graph1" class="graph" transform="scale(1 1) rotate(0) translate(4 344)">
<title>src/root&#45;addons/analysis_codes/Fits.cc</title>
<polygon fill="white" stroke="white" points="-4,5 -4,-344 1338,-344 1338,5 -4,5"/>
<!-- Node0 -->
<g id="node1" class="node"><title>Node0</title>
<polygon fill="#bfbfbf" stroke="black" points="600.5,-305 600.5,-339 723.5,-339 723.5,-305 600.5,-305"/>
<text text-anchor="start" x="608.5" y="-326" font-family="Helvetica,sans-Serif" font-size="10.00">src/root&#45;addons/analysis</text>
<text text-anchor="middle" x="662" y="-313" font-family="Helvetica,sans-Serif" font-size="10.00">_codes/Fits.cc</text>
</g>
<!-- Node1 -->
<g id="node3" class="node"><title>Node1</title>
<a xlink:href="_fits_8h.html" target="_top" xlink:title="Fits.h">
<polygon fill="white" stroke="black" points="201.5,-239.5 201.5,-260.5 242.5,-260.5 242.5,-239.5 201.5,-239.5"/>
<text text-anchor="middle" x="222" y="-247.5" font-family="Helvetica,sans-Serif" font-size="10.00">Fits.h</text>
</a>
</g>
<!-- Node0&#45;&gt;Node1 -->
<g id="edge2" class="edge"><title>Node0&#45;&gt;Node1</title>
<path fill="none" stroke="midnightblue" d="M600.485,-316.504C503.274,-307.367 318.732,-288.065 256,-268 253.406,-267.17 250.775,-266.148 248.186,-265.016"/>
<polygon fill="midnightblue" stroke="midnightblue" points="249.646,-261.834 239.126,-260.58 246.568,-268.121 249.646,-261.834"/>
</g>
<!-- Node2 -->
<g id="node5" class="node"><title>Node2</title>
<polygon fill="white" stroke="#bfbfbf" points="336,-174.5 336,-195.5 378,-195.5 378,-174.5 336,-174.5"/>
<text text-anchor="middle" x="357" y="-182.5" font-family="Helvetica,sans-Serif" font-size="10.00">TF1.h</text>
</g>
<!-- Node0&#45;&gt;Node2 -->
<g id="edge4" class="edge"><title>Node0&#45;&gt;Node2</title>
<path fill="none" stroke="midnightblue" d="M600.268,-318.132C525.998,-312.191 407.358,-298.176 376,-268 359.349,-251.977 355.949,-224.574 355.825,-205.664"/>
<polygon fill="midnightblue" stroke="midnightblue" points="359.324,-205.739 356.056,-195.661 352.326,-205.578 359.324,-205.739"/>
</g>
<!-- Node3 -->
<g id="node7" class="node"><title>Node3</title>
<polygon fill="white" stroke="#bfbfbf" points="547,-239.5 547,-260.5 591,-260.5 591,-239.5 547,-239.5"/>
<text text-anchor="middle" x="569" y="-247.5" font-family="Helvetica,sans-Serif" font-size="10.00">TH1.h</text>
</g>
<!-- Node0&#45;&gt;Node3 -->
<g id="edge6" class="edge"><title>Node0&#45;&gt;Node3</title>
<path fill="none" stroke="midnightblue" d="M639.96,-304.937C625.143,-293.465 605.693,-278.408 590.904,-266.958"/>
<polygon fill="midnightblue" stroke="midnightblue" points="592.855,-264.042 582.805,-260.688 588.57,-269.577 592.855,-264.042"/>
</g>
<!-- Node4 -->
<g id="node9" class="node"><title>Node4</title>
<polygon fill="white" stroke="#bfbfbf" points="609,-239.5 609,-260.5 653,-260.5 653,-239.5 609,-239.5"/>
<text text-anchor="middle" x="631" y="-247.5" font-family="Helvetica,sans-Serif" font-size="10.00">TH2.h</text>
</g>
<!-- Node0&#45;&gt;Node4 -->
<g id="edge8" class="edge"><title>Node0&#45;&gt;Node4</title>
<path fill="none" stroke="midnightblue" d="M654.653,-304.937C650.157,-294.494 644.381,-281.079 639.663,-270.12"/>
<polygon fill="midnightblue" stroke="midnightblue" points="642.863,-268.702 635.693,-260.901 636.433,-271.47 642.863,-268.702"/>
</g>
<!-- Node5 -->
<g id="node11" class="node"><title>Node5</title>
<polygon fill="white" stroke="#bfbfbf" points="671,-239.5 671,-260.5 715,-260.5 715,-239.5 671,-239.5"/>
<text text-anchor="middle" x="693" y="-247.5" font-family="Helvetica,sans-Serif" font-size="10.00">TH3.h</text>
</g>
<!-- Node0&#45;&gt;Node5 -->
<g id="edge10" class="edge"><title>Node0&#45;&gt;Node5</title>
<path fill="none" stroke="midnightblue" d="M669.347,-304.937C673.843,-294.494 679.619,-281.079 684.337,-270.12"/>
<polygon fill="midnightblue" stroke="midnightblue" points="687.567,-271.47 688.307,-260.901 681.137,-268.702 687.567,-271.47"/>
</g>
<!-- Node6 -->
<g id="node13" class="node"><title>Node6</title>
<polygon fill="white" stroke="#bfbfbf" points="732.5,-239.5 732.5,-260.5 797.5,-260.5 797.5,-239.5 732.5,-239.5"/>
<text text-anchor="middle" x="765" y="-247.5" font-family="Helvetica,sans-Serif" font-size="10.00">TCanvas.h</text>
</g>
<!-- Node0&#45;&gt;Node6 -->
<g id="edge12" class="edge"><title>Node0&#45;&gt;Node6</title>
<path fill="none" stroke="midnightblue" d="M686.41,-304.937C702.974,-293.358 724.764,-278.126 741.198,-266.638"/>
<polygon fill="midnightblue" stroke="midnightblue" points="743.519,-269.286 749.71,-260.688 739.509,-263.549 743.519,-269.286"/>
</g>
<!-- Node7 -->
<g id="node15" class="node"><title>Node7</title>
<a xlink:href="root-addons_2analysis__codes_2math_8h.html" target="_top" xlink:title="root&#45;addons/analysis\l_codes/Math.h">
<polygon fill="white" stroke="black" points="384.5,-233 384.5,-267 491.5,-267 491.5,-233 384.5,-233"/>
<text text-anchor="start" x="392.5" y="-254" font-family="Helvetica,sans-Serif" font-size="10.00">root&#45;addons/analysis</text>
<text text-anchor="middle" x="438" y="-241" font-family="Helvetica,sans-Serif" font-size="10.00">_codes/Math.h</text>
</a>
</g>
<!-- Node0&#45;&gt;Node7 -->
<g id="edge14" class="edge"><title>Node0&#45;&gt;Node7</title>
<path fill="none" stroke="midnightblue" d="M608.915,-304.937C576.534,-294.529 534.967,-281.168 500.934,-270.229"/>
<polygon fill="midnightblue" stroke="midnightblue" points="501.683,-266.793 491.092,-267.065 499.541,-273.457 501.683,-266.793"/>
</g>
<!-- Node25 -->
<g id="node55" class="node"><title>Node25</title>
<a xlink:href="_particle_type_8h.html" target="_top" xlink:title="base/ParticleType.h">
<polygon fill="white" stroke="black" points="382,-116.5 382,-137.5 486,-137.5 486,-116.5 382,-116.5"/>
<text text-anchor="middle" x="434" y="-124.5" font-family="Helvetica,sans-Serif" font-size="10.00">base/ParticleType.h</text>
</a>
</g>
<!-- Node0&#45;&gt;Node25 -->
<g id="edge58" class="edge"><title>Node0&#45;&gt;Node25</title>
<path fill="none" stroke="midnightblue" d="M600.324,-318.34C521.432,-312.473 390.603,-298.382 354,-268 320.554,-240.238 303.235,-210.395 327,-174 337.389,-158.089 354.498,-147.53 372.019,-140.535"/>
<polygon fill="midnightblue" stroke="midnightblue" points="373.547,-143.704 381.755,-137.005 371.161,-137.123 373.547,-143.704"/>
</g>
<!-- Node28 -->
<g id="node66" class="node"><title>Node28</title>
<polygon fill="white" stroke="#bfbfbf" points="814.5,-239.5 814.5,-260.5 867.5,-260.5 867.5,-239.5 814.5,-239.5"/>
<text text-anchor="middle" x="841" y="-247.5" font-family="Helvetica,sans-Serif" font-size="10.00">TStyle.h</text>
</g>
<!-- Node0&#45;&gt;Node28 -->
<g id="edge74" class="edge"><title>Node0&#45;&gt;Node28</title>
<path fill="none" stroke="midnightblue" d="M711.89,-304.906C739.875,-294.917 775.239,-281.622 806,-268 808.03,-267.101 810.11,-266.14 812.192,-265.147"/>
<polygon fill="midnightblue" stroke="midnightblue" points="813.795,-268.259 821.205,-260.687 810.69,-261.985 813.795,-268.259"/>
</g>
<!-- Node29 -->
<g id="node68" class="node"><title>Node29</title>
<polygon fill="white" stroke="#bfbfbf" points="884.5,-239.5 884.5,-260.5 939.5,-260.5 939.5,-239.5 884.5,-239.5"/>
<text text-anchor="middle" x="912" y="-247.5" font-family="Helvetica,sans-Serif" font-size="10.00">TLatex.h</text>
</g>
<!-- Node0&#45;&gt;Node29 -->
<g id="edge76" class="edge"><title>Node0&#45;&gt;Node29</title>
<path fill="none" stroke="midnightblue" d="M723.952,-310.086C767.268,-300.861 826.068,-286.534 876,-268 878.553,-267.052 881.163,-265.976 883.753,-264.833"/>
<polygon fill="midnightblue" stroke="midnightblue" points="885.366,-267.942 892.912,-260.504 882.375,-261.613 885.366,-267.942"/>
</g>
<!-- Node30 -->
<g id="node70" class="node"><title>Node30</title>
<a xlink:href="string_8h.html" target="_top" xlink:title="base/std_ext/string.h">
<polygon fill="white" stroke="black" points="238,-58.5 238,-79.5 346,-79.5 346,-58.5 238,-58.5"/>
<text text-anchor="middle" x="292" y="-66.5" font-family="Helvetica,sans-Serif" font-size="10.00">base/std_ext/string.h</text>
</a>
</g>
<!-- Node0&#45;&gt;Node30 -->
<g id="edge78" class="edge"><title>Node0&#45;&gt;Node30</title>
<path fill="none" stroke="midnightblue" d="M600.279,-316.314C506.628,-307.099 337.409,-287.916 318,-268 270.877,-219.646 280.197,-130.472 287.51,-89.9819"/>
<polygon fill="midnightblue" stroke="midnightblue" points="290.992,-90.4121 289.471,-79.927 284.122,-89.0721 290.992,-90.4121"/>
</g>
<!-- Node31 -->
<g id="node76" class="node"><title>Node31</title>
<polygon fill="white" stroke="#bfbfbf" points="956.5,-239.5 956.5,-260.5 1013.5,-260.5 1013.5,-239.5 956.5,-239.5"/>
<text text-anchor="middle" x="985" y="-247.5" font-family="Helvetica,sans-Serif" font-size="10.00">TGraph.h</text>
</g>
<!-- Node0&#45;&gt;Node31 -->
<g id="edge88" class="edge"><title>Node0&#45;&gt;Node31</title>
<path fill="none" stroke="midnightblue" d="M723.725,-315.168C782.47,-307.547 872.807,-292.893 948,-268 950.797,-267.074 953.654,-265.979 956.478,-264.794"/>
<polygon fill="midnightblue" stroke="midnightblue" points="958.177,-267.865 965.821,-260.529 955.27,-261.497 958.177,-267.865"/>
</g>
<!-- Node32 -->
<g id="node78" class="node"><title>Node32</title>
<a xlink:href="_root_draw_8h.html" target="_top" xlink:title="analysis/plot/RootDraw.h">
<polygon fill="white" stroke="black" points="622.5,-174.5 622.5,-195.5 749.5,-195.5 749.5,-174.5 622.5,-174.5"/>
<text text-anchor="middle" x="686" y="-182.5" font-family="Helvetica,sans-Serif" font-size="10.00">analysis/plot/RootDraw.h</text>
</a>
</g>
<!-- Node0&#45;&gt;Node32 -->
<g id="edge90" class="edge"><title>Node0&#45;&gt;Node32</title>
<path fill="none" stroke="midnightblue" d="M600.496,-310.316C576.814,-302.494 552.091,-289.506 538,-268 529.231,-254.617 528.552,-244.913 538,-232 548.251,-217.99 585.644,-206.181 620.276,-197.904"/>
<polygon fill="midnightblue" stroke="midnightblue" points="621.468,-201.221 630.423,-195.558 619.891,-194.401 621.468,-201.221"/>
</g>
<!-- Node37 -->
<g id="node96" class="node"><title>Node37</title>
<polygon fill="white" stroke="#bfbfbf" points="1031,-239.5 1031,-260.5 1109,-260.5 1109,-239.5 1031,-239.5"/>
<text text-anchor="middle" x="1070" y="-247.5" font-family="Helvetica,sans-Serif" font-size="10.00">TMultiGraph.h</text>
</g>
<!-- Node0&#45;&gt;Node37 -->
<g id="edge116" class="edge"><title>Node0&#45;&gt;Node37</title>
<path fill="none" stroke="midnightblue" d="M723.617,-316.727C795.939,-309.63 919.074,-294.702 1022,-268 1026.38,-266.863 1030.92,-265.467 1035.38,-263.96"/>
<polygon fill="midnightblue" stroke="midnightblue" points="1036.68,-267.211 1044.91,-260.54 1034.32,-260.621 1036.68,-267.211"/>
</g>
<!-- Node38 -->
<g id="node98" class="node"><title>Node38</title>
<a xlink:href="_crystal_ball_8h.html" target="_top" xlink:title="base/math_functions\l/CrystalBall.h">
<polygon fill="white" stroke="black" points="1126.5,-233 1126.5,-267 1233.5,-267 1233.5,-233 1126.5,-233"/>
<text text-anchor="start" x="1134.5" y="-254" font-family="Helvetica,sans-Serif" font-size="10.00">base/math_functions</text>
<text text-anchor="middle" x="1180" y="-241" font-family="Helvetica,sans-Serif" font-size="10.00">/CrystalBall.h</text>
</a>
</g>
<!-- Node0&#45;&gt;Node38 -->
<g id="edge118" class="edge"><title>Node0&#45;&gt;Node38</title>
<path fill="none" stroke="midnightblue" d="M723.728,-317.931C809.886,-311.536 971.095,-296.974 1116.38,-268.166"/>
<polygon fill="midnightblue" stroke="midnightblue" points="1117.25,-271.56 1126.37,-266.157 1115.87,-264.697 1117.25,-271.56"/>
</g>
<!-- Node39 -->
<g id="node100" class="node"><title>Node39</title>
<polygon fill="white" stroke="#bfbfbf" points="1250.5,-239.5 1250.5,-260.5 1333.5,-260.5 1333.5,-239.5 1250.5,-239.5"/>
<text text-anchor="middle" x="1292" y="-247.5" font-family="Helvetica,sans-Serif" font-size="10.00">TGraphErrors.h</text>
</g>
<!-- Node0&#45;&gt;Node39 -->
<g id="edge120" class="edge"><title>Node0&#45;&gt;Node39</title>
<path fill="none" stroke="midnightblue" d="M723.749,-318.231C852.241,-310.065 1144.52,-289.715 1242,-268 1246.99,-266.888 1252.17,-265.412 1257.22,-263.784"/>
<polygon fill="midnightblue" stroke="midnightblue" points="1258.36,-267.09 1266.67,-260.519 1256.08,-260.473 1258.36,-267.09"/>
</g>
<!-- Node7&#45;&gt;Node2 -->
<g id="edge56" class="edge"><title>Node7&#45;&gt;Node2</title>
<path fill="none" stroke="midnightblue" d="M416.718,-232.922C404.95,-223.479 390.364,-211.774 378.553,-202.296"/>
<polygon fill="midnightblue" stroke="midnightblue" points="380.513,-199.381 370.523,-195.852 376.132,-204.841 380.513,-199.381"/>
</g>
<!-- Node8 -->
<g id="node17" class="node"><title>Node8</title>
<polygon fill="white" stroke="#bfbfbf" points="579.5,-116.5 579.5,-137.5 608.5,-137.5 608.5,-116.5 579.5,-116.5"/>
<text text-anchor="middle" x="594" y="-124.5" font-family="Helvetica,sans-Serif" font-size="10.00">list</text>
</g>
<!-- Node7&#45;&gt;Node8 -->
<g id="edge16" class="edge"><title>Node7&#45;&gt;Node8</title>
<path fill="none" stroke="midnightblue" d="M491.742,-237.61C517.014,-229.429 545.929,-216.348 566,-196 579.003,-182.817 586.221,-162.785 590.057,-147.696"/>
<polygon fill="midnightblue" stroke="midnightblue" points="593.514,-148.274 592.286,-137.751 586.684,-146.743 593.514,-148.274"/>
</g>
<!-- Node9 -->
<g id="node19" class="node"><title>Node9</title>
<a xlink:href="interval_8h.html" target="_top" xlink:title="base/interval.h">
<polygon fill="white" stroke="black" points="740,-58.5 740,-79.5 820,-79.5 820,-58.5 740,-58.5"/>
<text text-anchor="middle" x="780" y="-66.5" font-family="Helvetica,sans-Serif" font-size="10.00">base/interval.h</text>
</a>
</g>
<!-- Node7&#45;&gt;Node9 -->
<g id="edge18" class="edge"><title>Node7&#45;&gt;Node9</title>
<path fill="none" stroke="midnightblue" d="M480.152,-232.977C498.188,-224.067 518.408,-211.705 533,-196 559.793,-167.163 540.251,-140.575 571,-116 595.154,-96.695 676.109,-82.6393 729.884,-75.1584"/>
<polygon fill="midnightblue" stroke="midnightblue" points="730.483,-78.6093 739.92,-73.7943 729.54,-71.6731 730.483,-78.6093"/>
</g>
<!-- Node17 -->
<g id="node35" class="node"><title>Node17</title>
<a xlink:href="piecewise__interval_8h.html" target="_top" xlink:title="base/piecewise_interval.h">
<polygon fill="white" stroke="black" points="395.5,-174.5 395.5,-195.5 524.5,-195.5 524.5,-174.5 395.5,-174.5"/>
<text text-anchor="middle" x="460" y="-182.5" font-family="Helvetica,sans-Serif" font-size="10.00">base/piecewise_interval.h</text>
</a>
</g>
<!-- Node7&#45;&gt;Node17 -->
<g id="edge34" class="edge"><title>Node7&#45;&gt;Node17</title>
<path fill="none" stroke="midnightblue" d="M443.78,-232.922C446.635,-224.487 450.101,-214.248 453.094,-205.403"/>
<polygon fill="midnightblue" stroke="midnightblue" points="456.436,-206.446 456.327,-195.852 449.806,-204.202 456.436,-206.446"/>
</g>
<!-- Node10 -->
<g id="node21" class="node"><title>Node10</title>
<a xlink:href="types_8h.html" target="_top" xlink:title="types.h">
<polygon fill="white" stroke="black" points="673.5,-0.5 673.5,-21.5 722.5,-21.5 722.5,-0.5 673.5,-0.5"/>
<text text-anchor="middle" x="698" y="-8.5" font-family="Helvetica,sans-Serif" font-size="10.00">types.h</text>
</a>
</g>
<!-- Node9&#45;&gt;Node10 -->
<g id="edge20" class="edge"><title>Node9&#45;&gt;Node10</title>
<path fill="none" stroke="midnightblue" d="M764.96,-58.3619C752.707,-49.6955 735.201,-37.3126 721.161,-27.3819"/>
<polygon fill="midnightblue" stroke="midnightblue" points="723.13,-24.4879 712.945,-21.5707 719.088,-30.2028 723.13,-24.4879"/>
</g>
<!-- Node11 -->
<g id="node23" class="node"><title>Node11</title>
<polygon fill="white" stroke="#bfbfbf" points="264,-0.5 264,-21.5 320,-21.5 320,-0.5 264,-0.5"/>
<text text-anchor="middle" x="292" y="-8.5" font-family="Helvetica,sans-Serif" font-size="10.00">algorithm</text>
</g>
<!-- Node9&#45;&gt;Node11 -->
<g id="edge22" class="edge"><title>Node9&#45;&gt;Node11</title>
<path fill="none" stroke="midnightblue" d="M739.869,-65.0796C665.309,-57.6645 500.413,-40.6478 362,-22 351.667,-20.6079 340.504,-18.932 330.193,-17.3127"/>
<polygon fill="midnightblue" stroke="midnightblue" points="330.654,-13.8421 320.228,-15.7249 329.553,-20.7549 330.654,-13.8421"/>
</g>
<!-- Node12 -->
<g id="node25" class="node"><title>Node12</title>
<polygon fill="white" stroke="#bfbfbf" points="859.5,-0.5 859.5,-21.5 918.5,-21.5 918.5,-0.5 859.5,-0.5"/>
<text text-anchor="middle" x="889" y="-8.5" font-family="Helvetica,sans-Serif" font-size="10.00">stdexcept</text>
</g>
<!-- Node9&#45;&gt;Node12 -->
<g id="edge24" class="edge"><title>Node9&#45;&gt;Node12</title>
<path fill="none" stroke="midnightblue" d="M799.739,-58.4966C816.61,-49.5194 841.109,-36.4835 860.174,-26.3387"/>
<polygon fill="midnightblue" stroke="midnightblue" points="861.856,-29.4086 869.039,-21.6212 858.567,-23.2289 861.856,-29.4086"/>
</g>
<!-- Node13 -->
<g id="node27" class="node"><title>Node13</title>
<polygon fill="white" stroke="#bfbfbf" points="740,-0.5 740,-21.5 780,-21.5 780,-0.5 740,-0.5"/>
<text text-anchor="middle" x="760" y="-8.5" font-family="Helvetica,sans-Serif" font-size="10.00">limits</text>
</g>
<!-- Node9&#45;&gt;Node13 -->
<g id="edge26" class="edge"><title>Node9&#45;&gt;Node13</title>
<path fill="none" stroke="midnightblue" d="M776.332,-58.3619C773.71,-50.7584 770.101,-40.294 766.943,-31.1349"/>
<polygon fill="midnightblue" stroke="midnightblue" points="770.214,-29.8834 763.645,-21.5707 763.596,-32.1654 770.214,-29.8834"/>
</g>
<!-- Node14 -->
<g id="node29" class="node"><title>Node14</title>
<polygon fill="white" stroke="#bfbfbf" points="935.5,-0.5 935.5,-21.5 984.5,-21.5 984.5,-0.5 935.5,-0.5"/>
<text text-anchor="middle" x="960" y="-8.5" font-family="Helvetica,sans-Serif" font-size="10.00">istream</text>
</g>
<!-- Node9&#45;&gt;Node14 -->
<g id="edge28" class="edge"><title>Node9&#45;&gt;Node14</title>
<path fill="none" stroke="midnightblue" d="M813.315,-58.4766C841.096,-49.673 881.963,-36.657 925.518,-22.4636"/>
<polygon fill="midnightblue" stroke="midnightblue" points="926.724,-25.7516 935.145,-19.3215 924.552,-19.0971 926.724,-25.7516"/>
</g>
<!-- Node15 -->
<g id="node31" class="node"><title>Node15</title>
<polygon fill="white" stroke="#bfbfbf" points="513,-0.5 513,-21.5 565,-21.5 565,-0.5 513,-0.5"/>
<text text-anchor="middle" x="539" y="-8.5" font-family="Helvetica,sans-Serif" font-size="10.00">sstream</text>
</g>
<!-- Node9&#45;&gt;Node15 -->
<g id="edge30" class="edge"><title>Node9&#45;&gt;Node15</title>
<path fill="none" stroke="midnightblue" d="M739.933,-59.3574C693.865,-48.2703 618.93,-30.2364 574.759,-19.6059"/>
<polygon fill="midnightblue" stroke="midnightblue" points="575.567,-16.2004 565.025,-17.2633 573.929,-23.0061 575.567,-16.2004"/>
</g>
<!-- Node16 -->
<g id="node33" class="node"><title>Node16</title>
<polygon fill="white" stroke="#bfbfbf" points="798,-0.5 798,-21.5 842,-21.5 842,-0.5 798,-0.5"/>
<text text-anchor="middle" x="820" y="-8.5" font-family="Helvetica,sans-Serif" font-size="10.00">cmath</text>
</g>
<!-- Node9&#45;&gt;Node16 -->
<g id="edge32" class="edge"><title>Node9&#45;&gt;Node16</title>
<path fill="none" stroke="midnightblue" d="M787.337,-58.3619C792.806,-50.4313 800.422,-39.3885 806.924,-29.9606"/>
<polygon fill="midnightblue" stroke="midnightblue" points="809.914,-31.7899 812.71,-21.5707 804.151,-27.8157 809.914,-31.7899"/>
</g>
<!-- Node17&#45;&gt;Node9 -->
<g id="edge36" class="edge"><title>Node17&#45;&gt;Node9</title>
<path fill="none" stroke="midnightblue" d="M468.604,-174.429C481.81,-158.971 508.649,-130.47 538,-116 571.022,-99.7199 668.961,-84.094 729.646,-75.5961"/>
<polygon fill="midnightblue" stroke="midnightblue" points="730.358,-79.031 739.784,-74.1941 729.399,-72.097 730.358,-79.031"/>
</g>
<!-- Node18 -->
<g id="node38" class="node"><title>Node18</title>
<a xlink:href="printable_8h.html" target="_top" xlink:title="base/std_ext/printable.h">
<polygon fill="white" stroke="black" points="86.5,-116.5 86.5,-137.5 207.5,-137.5 207.5,-116.5 86.5,-116.5"/>
<text text-anchor="middle" x="147" y="-124.5" font-family="Helvetica,sans-Serif" font-size="10.00">base/std_ext/printable.h</text>
</a>
</g>
<!-- Node17&#45;&gt;Node18 -->
<g id="edge38" class="edge"><title>Node17&#45;&gt;Node18</title>
<path fill="none" stroke="midnightblue" d="M403.318,-174.497C349.971,-164.611 270.066,-149.805 213.68,-139.356"/>
<polygon fill="midnightblue" stroke="midnightblue" points="214.259,-135.904 203.788,-137.523 212.983,-142.787 214.259,-135.904"/>
</g>
<!-- Node20 -->
<g id="node42" class="node"><title>Node20</title>
<polygon fill="white" stroke="#bfbfbf" points="371,-0.5 371,-21.5 415,-21.5 415,-0.5 371,-0.5"/>
<text text-anchor="middle" x="393" y="-8.5" font-family="Helvetica,sans-Serif" font-size="10.00">vector</text>
</g>
<!-- Node17&#45;&gt;Node20 -->
<g id="edge54" class="edge"><title>Node17&#45;&gt;Node20</title>
<path fill="none" stroke="midnightblue" d="M421.812,-174.458C403.658,-167.316 383.64,-155.841 373,-138 352.928,-104.343 369.795,-57.1167 382.374,-30.764"/>
<polygon fill="midnightblue" stroke="midnightblue" points="385.537,-32.2648 386.9,-21.758 379.282,-29.1219 385.537,-32.2648"/>
</g>
<!-- Node19 -->
<g id="node40" class="node"><title>Node19</title>
<a xlink:href="container_8h.html" target="_top" xlink:title="container.h">
<polygon fill="white" stroke="black" points="-0.5,-58.5 -0.5,-79.5 64.5,-79.5 64.5,-58.5 -0.5,-58.5"/>
<text text-anchor="middle" x="32" y="-66.5" font-family="Helvetica,sans-Serif" font-size="10.00">container.h</text>
</a>
</g>
<!-- Node18&#45;&gt;Node19 -->
<g id="edge40" class="edge"><title>Node18&#45;&gt;Node19</title>
<path fill="none" stroke="midnightblue" d="M126.174,-116.497C108.294,-107.479 82.2926,-94.3649 62.139,-84.2006"/>
<polygon fill="midnightblue" stroke="midnightblue" points="63.5641,-80.9994 53.0593,-79.6212 60.4119,-87.2495 63.5641,-80.9994"/>
</g>
<!-- Node23 -->
<g id="node49" class="node"><title>Node23</title>
<polygon fill="white" stroke="#bfbfbf" points="82,-58.5 82,-79.5 144,-79.5 144,-58.5 82,-58.5"/>
<text text-anchor="middle" x="113" y="-66.5" font-family="Helvetica,sans-Serif" font-size="10.00">type_traits</text>
</g>
<!-- Node18&#45;&gt;Node23 -->
<g id="edge50" class="edge"><title>Node18&#45;&gt;Node23</title>
<path fill="none" stroke="midnightblue" d="M140.764,-116.362C136.163,-108.513 129.775,-97.6159 124.286,-88.2527"/>
<polygon fill="midnightblue" stroke="midnightblue" points="127.273,-86.4276 119.197,-79.5707 121.234,-89.9677 127.273,-86.4276"/>
</g>
<!-- Node24 -->
<g id="node51" class="node"><title>Node24</title>
<polygon fill="white" stroke="#bfbfbf" points="440,-58.5 440,-79.5 492,-79.5 492,-58.5 440,-58.5"/>
<text text-anchor="middle" x="466" y="-66.5" font-family="Helvetica,sans-Serif" font-size="10.00">ostream</text>
</g>
<!-- Node18&#45;&gt;Node24 -->
<g id="edge52" class="edge"><title>Node18&#45;&gt;Node24</title>
<path fill="none" stroke="midnightblue" d="M204.768,-116.497C270.214,-104.597 374.878,-85.5677 429.748,-75.5913"/>
<polygon fill="midnightblue" stroke="midnightblue" points="430.5,-79.012 439.713,-73.7795 429.248,-72.1249 430.5,-79.012"/>
</g>
<!-- Node19&#45;&gt;Node11 -->
<g id="edge44" class="edge"><title>Node19&#45;&gt;Node11</title>
<path fill="none" stroke="midnightblue" d="M64.6356,-60.0842C67.46,-59.3611 70.2776,-58.6569 73,-58 136.168,-42.7583 210.182,-27.3888 253.968,-18.5526"/>
<polygon fill="midnightblue" stroke="midnightblue" points="254.781,-21.9593 263.895,-16.5568 253.401,-15.0966 254.781,-21.9593"/>
</g>
<!-- Node19&#45;&gt;Node20 -->
<g id="edge42" class="edge"><title>Node19&#45;&gt;Node20</title>
<path fill="none" stroke="midnightblue" d="M64.5881,-59.871C67.4229,-59.1942 70.2558,-58.5589 73,-58 185.586,-35.0705 215.479,-39.7334 329,-22 339.334,-20.3857 350.583,-18.4968 360.727,-16.7443"/>
<polygon fill="midnightblue" stroke="midnightblue" points="361.564,-20.1513 370.813,-14.9847 360.36,-13.2555 361.564,-20.1513"/>
</g>
<!-- Node21 -->
<g id="node45" class="node"><title>Node21</title>
<polygon fill="white" stroke="#bfbfbf" points="6.5,-0.5 6.5,-21.5 57.5,-21.5 57.5,-0.5 6.5,-0.5"/>
<text text-anchor="middle" x="32" y="-8.5" font-family="Helvetica,sans-Serif" font-size="10.00">numeric</text>
</g>
<!-- Node19&#45;&gt;Node21 -->
<g id="edge46" class="edge"><title>Node19&#45;&gt;Node21</title>
<path fill="none" stroke="midnightblue" d="M32,-58.3619C32,-50.9219 32,-40.7427 32,-31.7276"/>
<polygon fill="midnightblue" stroke="midnightblue" points="35.5001,-31.5706 32,-21.5707 28.5001,-31.5707 35.5001,-31.5706"/>
</g>
<!-- Node22 -->
<g id="node47" class="node"><title>Node22</title>
<polygon fill="white" stroke="#bfbfbf" points="170.5,-0.5 170.5,-21.5 211.5,-21.5 211.5,-0.5 170.5,-0.5"/>
<text text-anchor="middle" x="191" y="-8.5" font-family="Helvetica,sans-Serif" font-size="10.00">string</text>
</g>
<!-- Node19&#45;&gt;Node22 -->
<g id="edge48" class="edge"><title>Node19&#45;&gt;Node22</title>
<path fill="none" stroke="midnightblue" d="M60.7937,-58.4966C88.9722,-48.2177 131.737,-32.6178 160.49,-22.1293"/>
<polygon fill="midnightblue" stroke="midnightblue" points="161.835,-25.3646 170.03,-18.6496 159.436,-18.7885 161.835,-25.3646"/>
</g>
<!-- Node25&#45;&gt;Node9 -->
<g id="edge62" class="edge"><title>Node25&#45;&gt;Node9</title>
<path fill="none" stroke="midnightblue" d="M486.233,-118.259C490.888,-117.491 495.529,-116.729 500,-116 600.386,-99.6393 625.923,-98.1552 726,-80 727.271,-79.7694 728.558,-79.5326 729.856,-79.2908"/>
<polygon fill="midnightblue" stroke="midnightblue" points="730.769,-82.6796 739.932,-77.3614 729.453,-75.8045 730.769,-82.6796"/>
</g>
<!-- Node25&#45;&gt;Node10 -->
<g id="edge60" class="edge"><title>Node25&#45;&gt;Node10</title>
<path fill="none" stroke="midnightblue" d="M485.559,-116.481C531.301,-106.656 594.288,-91.7804 617,-80 642.136,-66.9625 666.21,-44.8005 681.483,-29.1148"/>
<polygon fill="midnightblue" stroke="midnightblue" points="684.283,-31.2487 688.626,-21.5851 679.205,-26.4309 684.283,-31.2487"/>
</g>
<!-- Node25&#45;&gt;Node20 -->
<g id="edge72" class="edge"><title>Node25&#45;&gt;Node20</title>
<path fill="none" stroke="midnightblue" d="M430.216,-116.295C423.382,-96.9588 408.878,-55.9229 400.131,-31.1767"/>
<polygon fill="midnightblue" stroke="midnightblue" points="403.407,-29.9412 396.775,-21.6792 396.807,-32.274 403.407,-29.9412"/>
</g>
<!-- Node25&#45;&gt;Node22 -->
<g id="edge64" class="edge"><title>Node25&#45;&gt;Node22</title>
<path fill="none" stroke="midnightblue" d="M381.816,-117.334C325.2,-106.488 241.206,-89.2093 229,-80 213.034,-67.9535 202.908,-47.1515 197.161,-31.5294"/>
<polygon fill="midnightblue" stroke="midnightblue" points="200.365,-30.0778 193.863,-21.7129 193.73,-32.3069 200.365,-30.0778"/>
</g>
<!-- Node25&#45;&gt;Node24 -->
<g id="edge66" class="edge"><title>Node25&#45;&gt;Node24</title>
<path fill="none" stroke="midnightblue" d="M439.869,-116.362C444.155,-108.595 450.087,-97.8426 455.216,-88.5458"/>
<polygon fill="midnightblue" stroke="midnightblue" points="458.402,-90.0172 460.168,-79.5707 452.273,-86.6357 458.402,-90.0172"/>
</g>
<!-- Node26 -->
<g id="node61" class="node"><title>Node26</title>
<polygon fill="white" stroke="#bfbfbf" points="509.5,-58.5 509.5,-79.5 544.5,-79.5 544.5,-58.5 509.5,-58.5"/>
<text text-anchor="middle" x="527" y="-66.5" font-family="Helvetica,sans-Serif" font-size="10.00">map</text>
</g>
<!-- Node25&#45;&gt;Node26 -->
<g id="edge68" class="edge"><title>Node25&#45;&gt;Node26</title>
<path fill="none" stroke="midnightblue" d="M451.058,-116.362C465.085,-107.614 485.184,-95.0786 501.182,-85.1015"/>
<polygon fill="midnightblue" stroke="midnightblue" points="503.418,-87.8323 510.051,-79.5707 499.713,-81.8927 503.418,-87.8323"/>
</g>
<!-- Node27 -->
<g id="node63" class="node"><title>Node27</title>
<polygon fill="white" stroke="#bfbfbf" points="561.5,-58.5 561.5,-79.5 608.5,-79.5 608.5,-58.5 561.5,-58.5"/>
<text text-anchor="middle" x="585" y="-66.5" font-family="Helvetica,sans-Serif" font-size="10.00">iterator</text>
</g>
<!-- Node25&#45;&gt;Node27 -->
<g id="edge70" class="edge"><title>Node25&#45;&gt;Node27</title>
<path fill="none" stroke="midnightblue" d="M461.345,-116.497C486.778,-106.728 524.723,-92.1529 551.866,-81.7272"/>
<polygon fill="midnightblue" stroke="midnightblue" points="553.254,-84.9434 561.334,-78.0904 550.744,-78.4088 553.254,-84.9434"/>
</g>
<!-- Node30&#45;&gt;Node11 -->
<g id="edge84" class="edge"><title>Node30&#45;&gt;Node11</title>
<path fill="none" stroke="midnightblue" d="M292,-58.3619C292,-50.9219 292,-40.7427 292,-31.7276"/>
<polygon fill="midnightblue" stroke="midnightblue" points="295.5,-31.5706 292,-21.5707 288.5,-31.5707 295.5,-31.5706"/>
</g>
<!-- Node30&#45;&gt;Node15 -->
<g id="edge82" class="edge"><title>Node30&#45;&gt;Node15</title>
<path fill="none" stroke="midnightblue" d="M336.73,-58.4966C384.35,-47.3146 458.786,-29.8356 502.843,-19.4902"/>
<polygon fill="midnightblue" stroke="midnightblue" points="503.889,-22.8399 512.824,-17.1465 502.289,-16.0253 503.889,-22.8399"/>
</g>
<!-- Node30&#45;&gt;Node20 -->
<g id="edge86" class="edge"><title>Node30&#45;&gt;Node20</title>
<path fill="none" stroke="midnightblue" d="M310.525,-58.3619C325.901,-49.532 347.996,-36.844 365.447,-26.8224"/>
<polygon fill="midnightblue" stroke="midnightblue" points="367.664,-29.5857 374.592,-21.5707 364.178,-23.5154 367.664,-29.5857"/>
</g>
<!-- Node30&#45;&gt;Node22 -->
<g id="edge80" class="edge"><title>Node30&#45;&gt;Node22</title>
<path fill="none" stroke="midnightblue" d="M273.475,-58.3619C258.099,-49.532 236.004,-36.844 218.553,-26.8224"/>
<polygon fill="midnightblue" stroke="midnightblue" points="219.822,-23.5154 209.408,-21.5707 216.336,-29.5857 219.822,-23.5154"/>
</g>
<!-- Node32&#45;&gt;Node8 -->
<g id="edge94" class="edge"><title>Node32&#45;&gt;Node8</title>
<path fill="none" stroke="midnightblue" d="M669.126,-174.362C654.642,-165.231 633.615,-151.975 617.487,-141.807"/>
<polygon fill="midnightblue" stroke="midnightblue" points="618.97,-138.605 608.644,-136.232 615.237,-144.526 618.97,-138.605"/>
</g>
<!-- Node32&#45;&gt;Node20 -->
<g id="edge96" class="edge"><title>Node32&#45;&gt;Node20</title>
<path fill="none" stroke="midnightblue" d="M678.42,-174.44C671.856,-165.086 662.295,-150.943 655,-138 635.672,-103.709 647.925,-82.3537 617,-58 587.587,-34.8369 480.107,-20.3082 425.425,-14.2529"/>
<polygon fill="midnightblue" stroke="midnightblue" points="425.548,-10.7461 415.231,-13.1548 424.799,-17.7058 425.548,-10.7461"/>
</g>
<!-- Node32&#45;&gt;Node22 -->
<g id="edge92" class="edge"><title>Node32&#45;&gt;Node22</title>
<path fill="none" stroke="midnightblue" d="M622.307,-180.082C504.989,-169.628 261.721,-140.992 207,-80 195.352,-67.0169 191.7,-47.238 190.759,-32.1799"/>
<polygon fill="midnightblue" stroke="midnightblue" points="194.246,-31.6785 190.48,-21.7758 187.249,-31.866 194.246,-31.6785"/>
</g>
<!-- Node33 -->
<g id="node83" class="node"><title>Node33</title>
<polygon fill="white" stroke="#bfbfbf" points="664,-116.5 664,-137.5 716,-137.5 716,-116.5 664,-116.5"/>
<text text-anchor="middle" x="690" y="-124.5" font-family="Helvetica,sans-Serif" font-size="10.00">memory</text>
</g>
<!-- Node32&#45;&gt;Node33 -->
<g id="edge98" class="edge"><title>Node32&#45;&gt;Node33</title>
<path fill="none" stroke="midnightblue" d="M686.734,-174.362C687.247,-166.922 687.949,-156.743 688.571,-147.728"/>
<polygon fill="midnightblue" stroke="midnightblue" points="692.075,-147.788 689.271,-137.571 685.091,-147.306 692.075,-147.788"/>
</g>
<!-- Node34 -->
<g id="node85" class="node"><title>Node34</title>
<polygon fill="white" stroke="#bfbfbf" points="733.5,-116.5 733.5,-137.5 792.5,-137.5 792.5,-116.5 733.5,-116.5"/>
<text text-anchor="middle" x="763" y="-124.5" font-family="Helvetica,sans-Serif" font-size="10.00">functional</text>
</g>
<!-- Node32&#45;&gt;Node34 -->
<g id="edge100" class="edge"><title>Node32&#45;&gt;Node34</title>
<path fill="none" stroke="midnightblue" d="M700.123,-174.362C711.52,-165.777 727.758,-153.546 740.878,-143.664"/>
<polygon fill="midnightblue" stroke="midnightblue" points="743.085,-146.383 748.967,-137.571 738.873,-140.792 743.085,-146.383"/>
</g>
<!-- Node35 -->
<g id="node87" class="node"><title>Node35</title>
<a xlink:href="_bin_settings_8h.html" target="_top" xlink:title="base/BinSettings.h">
<polygon fill="white" stroke="black" points="883.5,-116.5 883.5,-137.5 982.5,-137.5 982.5,-116.5 883.5,-116.5"/>
<text text-anchor="middle" x="933" y="-124.5" font-family="Helvetica,sans-Serif" font-size="10.00">base/BinSettings.h</text>
</a>
</g>
<!-- Node32&#45;&gt;Node35 -->
<g id="edge102" class="edge"><title>Node32&#45;&gt;Node35</title>
<path fill="none" stroke="midnightblue" d="M730.73,-174.497C772.218,-164.755 834.06,-150.233 878.434,-139.813"/>
<polygon fill="midnightblue" stroke="midnightblue" points="879.251,-143.216 888.186,-137.523 877.651,-136.402 879.251,-143.216"/>
</g>
<!-- Node36 -->
<g id="node94" class="node"><title>Node36</title>
<polygon fill="white" stroke="#bfbfbf" points="810,-116.5 810,-137.5 866,-137.5 866,-116.5 810,-116.5"/>
<text text-anchor="middle" x="838" y="-124.5" font-family="Helvetica,sans-Serif" font-size="10.00">Rtypes.h</text>
</g>
<!-- Node32&#45;&gt;Node36 -->
<g id="edge114" class="edge"><title>Node32&#45;&gt;Node36</title>
<path fill="none" stroke="midnightblue" d="M713.526,-174.497C737.984,-165.164 773.938,-151.445 800.924,-141.147"/>
<polygon fill="midnightblue" stroke="midnightblue" points="802.327,-144.358 810.422,-137.523 799.832,-137.818 802.327,-144.358"/>
</g>
<!-- Node35&#45;&gt;Node9 -->
<g id="edge104" class="edge"><title>Node35&#45;&gt;Node9</title>
<path fill="none" stroke="midnightblue" d="M905.293,-116.497C880.674,-107.164 844.483,-93.4447 817.32,-83.1475"/>
<polygon fill="midnightblue" stroke="midnightblue" points="818.35,-79.7951 807.759,-79.5231 815.869,-86.3406 818.35,-79.7951"/>
</g>
<!-- Node35&#45;&gt;Node12 -->
<g id="edge108" class="edge"><title>Node35&#45;&gt;Node12</title>
<path fill="none" stroke="midnightblue" d="M928.939,-116.295C921.605,-96.9588 906.04,-55.9229 896.653,-31.1767"/>
<polygon fill="midnightblue" stroke="midnightblue" points="899.87,-29.7879 893.051,-21.6792 893.325,-32.2705 899.87,-29.7879"/>
</g>
<!-- Node35&#45;&gt;Node14 -->
<g id="edge110" class="edge"><title>Node35&#45;&gt;Node14</title>
<path fill="none" stroke="midnightblue" d="M935.492,-116.295C939.972,-97.0451 949.459,-56.2889 955.226,-31.5091"/>
<polygon fill="midnightblue" stroke="midnightblue" points="958.656,-32.2123 957.514,-21.6792 951.838,-30.6254 958.656,-32.2123"/>
</g>
<!-- Node35&#45;&gt;Node20 -->
<g id="edge106" class="edge"><title>Node35&#45;&gt;Node20</title>
<path fill="none" stroke="midnightblue" d="M885.537,-116.472C844.526,-107.252 783.721,-93.2882 731,-80 694.827,-70.8826 686.38,-66.2517 650,-58 569.639,-39.7728 473.909,-23.7462 425.093,-15.9761"/>
<polygon fill="midnightblue" stroke="midnightblue" points="425.553,-12.5055 415.129,-14.4014 424.46,-19.4197 425.553,-12.5055"/>
</g>
<!-- Node35&#45;&gt;Node24 -->
<g id="edge112" class="edge"><title>Node35&#45;&gt;Node24</title>
<path fill="none" stroke="midnightblue" d="M883.376,-117.279C880.546,-116.822 877.739,-116.391 875,-116 712.912,-92.878 666.459,-112.419 502.179,-79.8923"/>
<polygon fill="midnightblue" stroke="midnightblue" points="502.714,-76.4297 492.219,-77.8857 501.331,-83.2918 502.714,-76.4297"/>
</g>
</g>
</svg>
