<?xml version="1.0" encoding="UTF-8" standalone="no"?>
<!DOCTYPE svg PUBLIC "-//W3C//DTD SVG 1.1//EN"
 "http://www.w3.org/Graphics/SVG/1.1/DTD/svg11.dtd">
<!-- Generated by graphviz version 2.26.3 (20100126.1600)
 -->
<!-- Title: src/analysis/plot/HistStyle.h Pages: 1 -->
<svg width="1944pt" height="258pt"
 viewBox="0.00 0.00 1944.00 258.00" xmlns="http://www.w3.org/2000/svg" xmlns:xlink="http://www.w3.org/1999/xlink">
<g id="graph1" class="graph" transform="scale(1 1) rotate(0) translate(4 254)">
<title>src/analysis/plot/HistStyle.h</title>
<polygon fill="white" stroke="white" points="-4,5 -4,-254 1941,-254 1941,5 -4,5"/>
<!-- Node4 -->
<g id="node1" class="node"><title>Node4</title>
<polygon fill="#bfbfbf" stroke="black" points="1209,-228.5 1209,-249.5 1349,-249.5 1349,-228.5 1209,-228.5"/>
<text text-anchor="middle" x="1279" y="-236.5" font-family="Helvetica,sans-Serif" font-size="10.00">src/analysis/plot/HistStyle.h</text>
</g>
<!-- Node5 -->
<g id="node3" class="node"><title>Node5</title>
<a xlink:href="_m_c_clustering_check_8cc.html" target="_top" xlink:title="src/analysis/physics\l/check/MCClusteringCheck.cc">
<polygon fill="white" stroke="black" points="1539.5,-7 1539.5,-41 1690.5,-41 1690.5,-7 1539.5,-7"/>
<text text-anchor="start" x="1547.5" y="-28" font-family="Helvetica,sans-Serif" font-size="10.00">src/analysis/physics</text>
<text text-anchor="middle" x="1615" y="-15" font-family="Helvetica,sans-Serif" font-size="10.00">/check/MCClusteringCheck.cc</text>
</a>
</g>
<!-- Node4&#45;&gt;Node5 -->
<g id="edge2" class="edge"><title>Node4&#45;&gt;Node5</title>
<path fill="none" stroke="midnightblue" d="M1308.39,-223.817C1345.09,-205.408 1410.23,-174.547 1469,-156 1545.97,-131.708 1595.9,-182.474 1647,-120 1666.02,-96.747 1645.35,-61.725 1629.53,-41.0318"/>
<polygon fill="midnightblue" stroke="midnightblue" points="1306.6,-220.801 1299.25,-228.437 1309.76,-227.047 1306.6,-220.801"/>
</g>
<!-- Node6 -->
<g id="node5" class="node"><title>Node6</title>
<a xlink:href="_m_c_gun_check_8cc.html" target="_top" xlink:title="src/analysis/physics\l/check/MCGunCheck.cc">
<polygon fill="white" stroke="black" points="1477.5,-157 1477.5,-191 1602.5,-191 1602.5,-157 1477.5,-157"/>
<text text-anchor="start" x="1485.5" y="-178" font-family="Helvetica,sans-Serif" font-size="10.00">src/analysis/physics</text>
<text text-anchor="middle" x="1540" y="-165" font-family="Helvetica,sans-Serif" font-size="10.00">/check/MCGunCheck.cc</text>
</a>
</g>
<!-- Node4&#45;&gt;Node6 -->
<g id="edge4" class="edge"><title>Node4&#45;&gt;Node6</title>
<path fill="none" stroke="midnightblue" d="M1331,-226.049C1373.13,-215.558 1432.62,-200.742 1477.36,-189.599"/>
<polygon fill="midnightblue" stroke="midnightblue" points="1330.08,-222.671 1321.22,-228.484 1331.77,-229.464 1330.08,-222.671"/>
</g>
<!-- Node7 -->
<g id="node7" class="node"><title>Node7</title>
<a xlink:href="_m_c_photon_pair_check_8cc.html" target="_top" xlink:title="src/analysis/physics\l/check/MCPhotonPairCheck.cc">
<polygon fill="white" stroke="black" points="1619.5,-157 1619.5,-191 1774.5,-191 1774.5,-157 1619.5,-157"/>
<text text-anchor="start" x="1627.5" y="-178" font-family="Helvetica,sans-Serif" font-size="10.00">src/analysis/physics</text>
<text text-anchor="middle" x="1697" y="-165" font-family="Helvetica,sans-Serif" font-size="10.00">/check/MCPhotonPairCheck.cc</text>
</a>
</g>
<!-- Node4&#45;&gt;Node7 -->
<g id="edge6" class="edge"><title>Node4&#45;&gt;Node7</title>
<path fill="none" stroke="midnightblue" d="M1359.29,-229.136C1426.67,-220.498 1525.37,-207.005 1611,-192 1613.7,-191.526 1616.45,-191.03 1619.23,-190.517"/>
<polygon fill="midnightblue" stroke="midnightblue" points="1358.64,-225.69 1349.16,-230.427 1359.52,-232.634 1358.64,-225.69"/>
</g>
<!-- Node8 -->
<g id="node9" class="node"><title>Node8</title>
<a xlink:href="_m_c_reconstruct_check_8cc.html" target="_top" xlink:title="src/analysis/physics\l/check/MCReconstructCheck.cc">
<polygon fill="white" stroke="black" points="618,-85 618,-119 778,-119 778,-85 618,-85"/>
<text text-anchor="start" x="626" y="-106" font-family="Helvetica,sans-Serif" font-size="10.00">src/analysis/physics</text>
<text text-anchor="middle" x="698" y="-93" font-family="Helvetica,sans-Serif" font-size="10.00">/check/MCReconstructCheck.cc</text>
</a>
</g>
<!-- Node4&#45;&gt;Node8 -->
<g id="edge8" class="edge"><title>Node4&#45;&gt;Node8</title>
<path fill="none" stroke="midnightblue" d="M1208.83,-226.582C1160.61,-217.739 1095.21,-205.136 1038,-192 939.061,-169.284 825.235,-138.115 757.585,-119.053"/>
<polygon fill="midnightblue" stroke="midnightblue" points="1208.38,-230.059 1218.85,-228.411 1209.64,-223.172 1208.38,-230.059"/>
</g>
<!-- Node9 -->
<g id="node11" class="node"><title>Node9</title>
<a xlink:href="physics_2tunings_2_trigger_simulation_8cc.html" target="_top" xlink:title="src/analysis/physics\l/tunings/TriggerSimulation.cc">
<polygon fill="white" stroke="black" points="-0.5,-7 -0.5,-41 142.5,-41 142.5,-7 -0.5,-7"/>
<text text-anchor="start" x="7.5" y="-28" font-family="Helvetica,sans-Serif" font-size="10.00">src/analysis/physics</text>
<text text-anchor="middle" x="71" y="-15" font-family="Helvetica,sans-Serif" font-size="10.00">/tunings/TriggerSimulation.cc</text>
</a>
</g>
<!-- Node4&#45;&gt;Node9 -->
<g id="edge10" class="edge"><title>Node4&#45;&gt;Node9</title>
<path fill="none" stroke="midnightblue" d="M1198.68,-236.108C1091.28,-231.334 895.241,-219.444 730,-192 468.411,-148.555 406.734,-118.118 151,-48 143.169,-45.8528 134.936,-43.4966 126.851,-41.1255"/>
<polygon fill="midnightblue" stroke="midnightblue" points="1198.65,-239.609 1208.79,-236.548 1198.96,-232.616 1198.65,-239.609"/>
</g>
<!-- Node10 -->
<g id="node13" class="node"><title>Node10</title>
<a xlink:href="_cut_tree_8h.html" target="_top" xlink:title="src/analysis/plot/CutTree.h">
<polygon fill="white" stroke="black" points="466,-91.5 466,-112.5 600,-112.5 600,-91.5 466,-91.5"/>
<text text-anchor="middle" x="533" y="-99.5" font-family="Helvetica,sans-Serif" font-size="10.00">src/analysis/plot/CutTree.h</text>
</a>
</g>
<!-- Node4&#45;&gt;Node10 -->
<g id="edge12" class="edge"><title>Node4&#45;&gt;Node10</title>
<path fill="none" stroke="midnightblue" d="M1198.59,-232.135C1120.2,-224.755 997.822,-211.407 893,-192 772.958,-169.775 633.373,-131.138 568.955,-112.565"/>
<polygon fill="midnightblue" stroke="midnightblue" points="1198.59,-235.65 1208.87,-233.093 1199.24,-228.681 1198.59,-235.65"/>
</g>
<!-- Node18 -->
<g id="node30" class="node"><title>Node18</title>
<a xlink:href="_hist_style_8cc.html" target="_top" xlink:title="src/analysis/plot/HistStyle.cc">
<polygon fill="white" stroke="black" points="1791.5,-163.5 1791.5,-184.5 1936.5,-184.5 1936.5,-163.5 1791.5,-163.5"/>
<text text-anchor="middle" x="1864" y="-171.5" font-family="Helvetica,sans-Serif" font-size="10.00">src/analysis/plot/HistStyle.cc</text>
</a>
</g>
<!-- Node4&#45;&gt;Node18 -->
<g id="edge30" class="edge"><title>Node4&#45;&gt;Node18</title>
<path fill="none" stroke="midnightblue" d="M1359.06,-234.649C1458.8,-228.514 1634.23,-215.372 1783,-192 1795.52,-190.033 1809.01,-187.291 1821.31,-184.54"/>
<polygon fill="midnightblue" stroke="midnightblue" points="1358.82,-231.157 1349.05,-235.256 1359.25,-238.144 1358.82,-231.157"/>
</g>
<!-- Node19 -->
<g id="node32" class="node"><title>Node19</title>
<a xlink:href="hstack_8h.html" target="_top" xlink:title="src/root&#45;addons/analysis\l_codes/hstack.h">
<polygon fill="white" stroke="black" points="1046.5,-157 1046.5,-191 1169.5,-191 1169.5,-157 1046.5,-157"/>
<text text-anchor="start" x="1054.5" y="-178" font-family="Helvetica,sans-Serif" font-size="10.00">src/root&#45;addons/analysis</text>
<text text-anchor="middle" x="1108" y="-165" font-family="Helvetica,sans-Serif" font-size="10.00">_codes/hstack.h</text>
</a>
</g>
<!-- Node4&#45;&gt;Node19 -->
<g id="edge32" class="edge"><title>Node4&#45;&gt;Node19</title>
<path fill="none" stroke="midnightblue" d="M1241.61,-224.786C1215.49,-214.859 1180.5,-201.56 1152.88,-191.06"/>
<polygon fill="midnightblue" stroke="midnightblue" points="1240.55,-228.13 1251.15,-228.412 1243.04,-221.587 1240.55,-228.13"/>
</g>
<!-- Node10&#45;&gt;Node9 -->
<g id="edge28" class="edge"><title>Node10&#45;&gt;Node9</title>
<path fill="none" stroke="midnightblue" d="M455.689,-94.5367C378.088,-86.2359 255.406,-70.9028 151,-48 142.077,-46.0426 132.701,-43.5951 123.635,-41.0173"/>
<polygon fill="midnightblue" stroke="midnightblue" points="455.55,-98.0415 465.863,-95.6123 456.286,-91.0803 455.55,-98.0415"/>
</g>
<!-- Node11 -->
<g id="node15" class="node"><title>Node11</title>
<a xlink:href="_p_i_d_efficiency_check_8cc.html" target="_top" xlink:title="src/analysis/physics\l/check/PIDEfficiencyCheck.cc">
<polygon fill="white" stroke="black" points="714,-7 714,-41 866,-41 866,-7 714,-7"/>
<text text-anchor="start" x="722" y="-28" font-family="Helvetica,sans-Serif" font-size="10.00">src/analysis/physics</text>
<text text-anchor="middle" x="790" y="-15" font-family="Helvetica,sans-Serif" font-size="10.00">/check/PIDEfficiencyCheck.cc</text>
</a>
</g>
<!-- Node10&#45;&gt;Node11 -->
<g id="edge14" class="edge"><title>Node10&#45;&gt;Node11</title>
<path fill="none" stroke="midnightblue" d="M577.352,-88.5389C620.688,-75.3865 686.812,-55.3179 733.806,-41.0549"/>
<polygon fill="midnightblue" stroke="midnightblue" points="576.213,-85.2271 567.66,-91.4806 578.246,-91.9254 576.213,-85.2271"/>
</g>
<!-- Node12 -->
<g id="node17" class="node"><title>Node12</title>
<a xlink:href="_meson_dalitz_decays__plot_8cc.html" target="_top" xlink:title="src/analysis/physics\l/common/MesonDalitzDecays\l_plot.cc">
<polygon fill="white" stroke="black" points="883.5,-0.5 883.5,-47.5 1032.5,-47.5 1032.5,-0.5 883.5,-0.5"/>
<text text-anchor="start" x="891.5" y="-34.5" font-family="Helvetica,sans-Serif" font-size="10.00">src/analysis/physics</text>
<text text-anchor="start" x="891.5" y="-21.5" font-family="Helvetica,sans-Serif" font-size="10.00">/common/MesonDalitzDecays</text>
<text text-anchor="middle" x="958" y="-8.5" font-family="Helvetica,sans-Serif" font-size="10.00">_plot.cc</text>
</a>
</g>
<!-- Node10&#45;&gt;Node12 -->
<g id="edge16" class="edge"><title>Node10&#45;&gt;Node12</title>
<path fill="none" stroke="midnightblue" d="M584.19,-89.1538C592.456,-87.2879 600.944,-85.4955 609,-84 726.296,-62.2265 758.271,-72.6359 875,-48 877.789,-47.4115 880.62,-46.7781 883.474,-46.1098"/>
<polygon fill="midnightblue" stroke="midnightblue" points="583.213,-85.7871 574.26,-91.4511 584.791,-92.6069 583.213,-85.7871"/>
</g>
<!-- Node13 -->
<g id="node19" class="node"><title>Node13</title>
<a xlink:href="_etap_dalitz__plot_8cc.html" target="_top" xlink:title="src/analysis/physics\l/etaprime/EtapDalitz\l_plot.cc">
<polygon fill="white" stroke="black" points="160,-0.5 160,-47.5 266,-47.5 266,-0.5 160,-0.5"/>
<text text-anchor="start" x="168" y="-34.5" font-family="Helvetica,sans-Serif" font-size="10.00">src/analysis/physics</text>
<text text-anchor="start" x="168" y="-21.5" font-family="Helvetica,sans-Serif" font-size="10.00">/etaprime/EtapDalitz</text>
<text text-anchor="middle" x="213" y="-8.5" font-family="Helvetica,sans-Serif" font-size="10.00">_plot.cc</text>
</a>
</g>
<!-- Node10&#45;&gt;Node13 -->
<g id="edge18" class="edge"><title>Node10&#45;&gt;Node13</title>
<path fill="none" stroke="midnightblue" d="M458.264,-89.6889C406.32,-80.325 335.78,-65.994 275,-48 272.122,-47.1481 269.19,-46.2217 266.243,-45.2447"/>
<polygon fill="midnightblue" stroke="midnightblue" points="457.937,-93.1858 468.396,-91.4951 459.166,-86.2944 457.937,-93.1858"/>
</g>
<!-- Node14 -->
<g id="node21" class="node"><title>Node14</title>
<a xlink:href="_etap_omega_g__plot_8cc.html" target="_top" xlink:title="src/analysis/physics\l/etaprime/EtapOmegaG\l_plot.cc">
<polygon fill="white" stroke="black" points="283.5,-0.5 283.5,-47.5 402.5,-47.5 402.5,-0.5 283.5,-0.5"/>
<text text-anchor="start" x="291.5" y="-34.5" font-family="Helvetica,sans-Serif" font-size="10.00">src/analysis/physics</text>
<text text-anchor="start" x="291.5" y="-21.5" font-family="Helvetica,sans-Serif" font-size="10.00">/etaprime/EtapOmegaG</text>
<text text-anchor="middle" x="343" y="-8.5" font-family="Helvetica,sans-Serif" font-size="10.00">_plot.cc</text>
</a>
</g>
<!-- Node10&#45;&gt;Node14 -->
<g id="edge20" class="edge"><title>Node10&#45;&gt;Node14</title>
<path fill="none" stroke="midnightblue" d="M497.867,-87.577C470.605,-76.3854 432.242,-60.6364 400.52,-47.6134"/>
<polygon fill="midnightblue" stroke="midnightblue" points="496.796,-90.9206 507.376,-91.4806 499.454,-84.445 496.796,-90.9206"/>
</g>
<!-- Node15 -->
<g id="node23" class="node"><title>Node15</title>
<a xlink:href="_omega___eta_g_8cc.html" target="_top" xlink:title="src/analysis/physics\l/omega/Omega_EtaG.cc">
<polygon fill="white" stroke="black" points="1049.5,-7 1049.5,-41 1174.5,-41 1174.5,-7 1049.5,-7"/>
<text text-anchor="start" x="1057.5" y="-28" font-family="Helvetica,sans-Serif" font-size="10.00">src/analysis/physics</text>
<text text-anchor="middle" x="1112" y="-15" font-family="Helvetica,sans-Serif" font-size="10.00">/omega/Omega_EtaG.cc</text>
</a>
</g>
<!-- Node10&#45;&gt;Node15 -->
<g id="edge22" class="edge"><title>Node10&#45;&gt;Node15</title>
<path fill="none" stroke="midnightblue" d="M582.391,-89.175C591.207,-87.2088 600.341,-85.3783 609,-84 799.27,-53.7141 852.351,-87.1365 1041,-48 1049.54,-46.2291 1058.47,-43.7413 1067,-41.0331"/>
<polygon fill="midnightblue" stroke="midnightblue" points="581.569,-85.7727 572.615,-91.4358 583.146,-92.5927 581.569,-85.7727"/>
</g>
<!-- Node16 -->
<g id="node25" class="node"><title>Node16</title>
<a xlink:href="single_pi0_plots_8cc.html" target="_top" xlink:title="src/analysis/physics\l/production/singlePi0Plots.cc">
<polygon fill="white" stroke="black" points="419.5,-7 419.5,-41 562.5,-41 562.5,-7 419.5,-7"/>
<text text-anchor="start" x="427.5" y="-28" font-family="Helvetica,sans-Serif" font-size="10.00">src/analysis/physics</text>
<text text-anchor="middle" x="491" y="-15" font-family="Helvetica,sans-Serif" font-size="10.00">/production/singlePi0Plots.cc</text>
</a>
</g>
<!-- Node10&#45;&gt;Node16 -->
<g id="edge24" class="edge"><title>Node10&#45;&gt;Node16</title>
<path fill="none" stroke="midnightblue" d="M522.569,-82.6276C515.726,-69.9191 506.857,-53.4495 500.263,-41.2034"/>
<polygon fill="midnightblue" stroke="midnightblue" points="519.513,-84.3352 527.336,-91.4806 525.676,-81.0165 519.513,-84.3352"/>
</g>
<!-- Node17 -->
<g id="node27" class="node"><title>Node17</title>
<a xlink:href="triple_pi0_8cc.html" target="_top" xlink:title="src/analysis/physics\l/production/triplePi0.cc">
<polygon fill="white" stroke="black" points="580,-7 580,-41 696,-41 696,-7 580,-7"/>
<text text-anchor="start" x="588" y="-28" font-family="Helvetica,sans-Serif" font-size="10.00">src/analysis/physics</text>
<text text-anchor="middle" x="638" y="-15" font-family="Helvetica,sans-Serif" font-size="10.00">/production/triplePi0.cc</text>
</a>
</g>
<!-- Node10&#45;&gt;Node17 -->
<g id="edge26" class="edge"><title>Node10&#45;&gt;Node17</title>
<path fill="none" stroke="midnightblue" d="M555.631,-85.1884C573.116,-72.1995 597.225,-54.2899 614.842,-41.2034"/>
<polygon fill="midnightblue" stroke="midnightblue" points="553.101,-82.7077 547.161,-91.4806 557.275,-88.3269 553.101,-82.7077"/>
</g>
<!-- Node19&#45;&gt;Node8 -->
<g id="edge44" class="edge"><title>Node19&#45;&gt;Node8</title>
<path fill="none" stroke="midnightblue" d="M1036.2,-162.614C971.064,-152.121 872.448,-135.824 787,-120 784.055,-119.455 781.057,-118.891 778.029,-118.315"/>
<polygon fill="midnightblue" stroke="midnightblue" points="1035.93,-166.116 1046.36,-164.248 1037.04,-159.205 1035.93,-166.116"/>
</g>
<!-- Node19&#45;&gt;Node10 -->
<g id="edge50" class="edge"><title>Node19&#45;&gt;Node10</title>
<path fill="none" stroke="midnightblue" d="M1036.18,-169.057C938.873,-161.717 759.958,-145.94 609,-120 597.374,-118.002 584.872,-115.283 573.433,-112.564"/>
<polygon fill="midnightblue" stroke="midnightblue" points="1035.97,-172.551 1046.2,-169.805 1036.49,-165.57 1035.97,-172.551"/>
</g>
<!-- Node19&#45;&gt;Node15 -->
<g id="edge46" class="edge"><title>Node19&#45;&gt;Node15</title>
<path fill="none" stroke="midnightblue" d="M1096.64,-147.403C1093.52,-138.819 1090.56,-129.154 1089,-120 1086.31,-104.228 1086.09,-99.7328 1089,-84 1091.78,-68.9719 1098.17,-52.845 1103.51,-41.0993"/>
<polygon fill="midnightblue" stroke="midnightblue" points="1093.43,-148.823 1100.3,-156.888 1099.96,-146.299 1093.43,-148.823"/>
</g>
<!-- Node20 -->
<g id="node34" class="node"><title>Node20</title>
<a xlink:href="_ant-hadd_8cc.html" target="_top" xlink:title="progs/Ant&#45;hadd.cc">
<polygon fill="white" stroke="black" points="1098,-91.5 1098,-112.5 1194,-112.5 1194,-91.5 1098,-91.5"/>
<text text-anchor="middle" x="1146" y="-99.5" font-family="Helvetica,sans-Serif" font-size="10.00">progs/Ant&#45;hadd.cc</text>
</a>
</g>
<!-- Node19&#45;&gt;Node20 -->
<g id="edge34" class="edge"><title>Node19&#45;&gt;Node20</title>
<path fill="none" stroke="midnightblue" d="M1121.86,-147.742C1128.21,-135.716 1135.38,-122.122 1140.25,-112.901"/>
<polygon fill="midnightblue" stroke="midnightblue" points="1118.58,-146.459 1117.01,-156.937 1124.77,-149.727 1118.58,-146.459"/>
</g>
<!-- Node21 -->
<g id="node36" class="node"><title>Node21</title>
<a xlink:href="_ant-mcdatabase-viewer_8cc.html" target="_top" xlink:title="progs/Ant&#45;mcdatabase\l&#45;viewer.cc">
<polygon fill="white" stroke="black" points="1211.5,-85 1211.5,-119 1326.5,-119 1326.5,-85 1211.5,-85"/>
<text text-anchor="start" x="1219.5" y="-106" font-family="Helvetica,sans-Serif" font-size="10.00">progs/Ant&#45;mcdatabase</text>
<text text-anchor="middle" x="1269" y="-93" font-family="Helvetica,sans-Serif" font-size="10.00">&#45;viewer.cc</text>
</a>
</g>
<!-- Node19&#45;&gt;Node21 -->
<g id="edge36" class="edge"><title>Node19&#45;&gt;Node21</title>
<path fill="none" stroke="midnightblue" d="M1155.45,-152.781C1179.48,-142.035 1208.26,-129.161 1230.84,-119.065"/>
<polygon fill="midnightblue" stroke="midnightblue" points="1153.85,-149.659 1146.15,-156.937 1156.71,-156.05 1153.85,-149.659"/>
</g>
<!-- Node22 -->
<g id="node38" class="node"><title>Node22</title>
<a xlink:href="process_etap_tree_8cc.html" target="_top" xlink:title="progs/processEtapTree.cc">
<polygon fill="white" stroke="black" points="1343.5,-91.5 1343.5,-112.5 1474.5,-112.5 1474.5,-91.5 1343.5,-91.5"/>
<text text-anchor="middle" x="1409" y="-99.5" font-family="Helvetica,sans-Serif" font-size="10.00">progs/processEtapTree.cc</text>
</a>
</g>
<!-- Node19&#45;&gt;Node22 -->
<g id="edge38" class="edge"><title>Node19&#45;&gt;Node22</title>
<path fill="none" stroke="midnightblue" d="M1179.57,-157.072C1224.27,-146.476 1283,-132.508 1335,-120 1345.03,-117.588 1355.81,-114.975 1365.97,-112.507"/>
<polygon fill="midnightblue" stroke="midnightblue" points="1178.6,-153.704 1169.68,-159.416 1180.22,-160.516 1178.6,-153.704"/>
</g>
<!-- Node23 -->
<g id="node40" class="node"><title>Node23</title>
<a xlink:href="_m_c_clustering_check_8h.html" target="_top" xlink:title="src/analysis/physics\l/check/MCClusteringCheck.h">
<polygon fill="white" stroke="black" points="1492,-85 1492,-119 1638,-119 1638,-85 1492,-85"/>
<text text-anchor="start" x="1500" y="-106" font-family="Helvetica,sans-Serif" font-size="10.00">src/analysis/physics</text>
<text text-anchor="middle" x="1565" y="-93" font-family="Helvetica,sans-Serif" font-size="10.00">/check/MCClusteringCheck.h</text>
</a>
</g>
<!-- Node19&#45;&gt;Node23 -->
<g id="edge40" class="edge"><title>Node19&#45;&gt;Node23</title>
<path fill="none" stroke="midnightblue" d="M1179.97,-165.224C1255.65,-155.625 1378.08,-139.044 1483,-120 1485.87,-119.479 1488.79,-118.93 1491.74,-118.36"/>
<polygon fill="midnightblue" stroke="midnightblue" points="1179.09,-161.807 1169.61,-166.532 1179.97,-168.752 1179.09,-161.807"/>
</g>
<!-- Node24 -->
<g id="node45" class="node"><title>Node24</title>
<a xlink:href="pi0eta_8cc.html" target="_top" xlink:title="src/analysis/physics\l/omega/pi0eta.cc">
<polygon fill="white" stroke="black" points="796,-85 796,-119 902,-119 902,-85 796,-85"/>
<text text-anchor="start" x="804" y="-106" font-family="Helvetica,sans-Serif" font-size="10.00">src/analysis/physics</text>
<text text-anchor="middle" x="849" y="-93" font-family="Helvetica,sans-Serif" font-size="10.00">/omega/pi0eta.cc</text>
</a>
</g>
<!-- Node19&#45;&gt;Node24 -->
<g id="edge48" class="edge"><title>Node19&#45;&gt;Node24</title>
<path fill="none" stroke="midnightblue" d="M1036.46,-154.669C999.049,-144.488 952.513,-131.715 911,-120 908.087,-119.178 905.1,-118.329 902.085,-117.469"/>
<polygon fill="midnightblue" stroke="midnightblue" points="1035.7,-158.087 1046.27,-157.333 1037.53,-151.333 1035.7,-158.087"/>
</g>
<!-- Node25 -->
<g id="node48" class="node"><title>Node25</title>
<a xlink:href="hstack_8cc.html" target="_top" xlink:title="src/root&#45;addons/analysis\l_codes/hstack.cc">
<polygon fill="white" stroke="black" points="919.5,-85 919.5,-119 1042.5,-119 1042.5,-85 919.5,-85"/>
<text text-anchor="start" x="927.5" y="-106" font-family="Helvetica,sans-Serif" font-size="10.00">src/root&#45;addons/analysis</text>
<text text-anchor="middle" x="981" y="-93" font-family="Helvetica,sans-Serif" font-size="10.00">_codes/hstack.cc</text>
</a>
</g>
<!-- Node19&#45;&gt;Node25 -->
<g id="edge52" class="edge"><title>Node19&#45;&gt;Node25</title>
<path fill="none" stroke="midnightblue" d="M1069.09,-151.94C1050.52,-141.413 1028.63,-129.004 1011.32,-119.19"/>
<polygon fill="midnightblue" stroke="midnightblue" points="1067.48,-155.05 1077.9,-156.937 1070.93,-148.96 1067.48,-155.05"/>
</g>
<!-- Node23&#45;&gt;Node5 -->
<g id="edge42" class="edge"><title>Node23&#45;&gt;Node5</title>
<path fill="none" stroke="midnightblue" d="M1581.68,-75.975C1589.01,-64.5518 1597.4,-51.4525 1603.93,-41.2623"/>
<polygon fill="midnightblue" stroke="midnightblue" points="1578.55,-74.3816 1576.1,-84.6893 1584.44,-78.1593 1578.55,-74.3816"/>
</g>
</g>
</svg>
