<?xml version="1.0" encoding="UTF-8" standalone="no"?>
<!DOCTYPE svg PUBLIC "-//W3C//DTD SVG 1.1//EN"
 "http://www.w3.org/Graphics/SVG/1.1/DTD/svg11.dtd">
<!-- Generated by graphviz version 2.26.3 (20100126.1600)
 -->
<!-- Title: src/base/Interpolator.h Pages: 1 -->
<svg width="2258pt" height="330pt"
 viewBox="0.00 0.00 2258.00 330.00" xmlns="http://www.w3.org/2000/svg" xmlns:xlink="http://www.w3.org/1999/xlink">
<g id="graph1" class="graph" transform="scale(1 1) rotate(0) translate(4 326)">
<title>src/base/Interpolator.h</title>
<polygon fill="white" stroke="white" points="-4,5 -4,-326 2255,-326 2255,5 -4,5"/>
<!-- Node11 -->
<g id="node1" class="node"><title>Node11</title>
<polygon fill="#bfbfbf" stroke="black" points="1022,-300.5 1022,-321.5 1136,-321.5 1136,-300.5 1022,-300.5"/>
<text text-anchor="middle" x="1079" y="-308.5" font-family="Helvetica,sans-Serif" font-size="10.00">src/base/Interpolator.h</text>
</g>
<!-- Node12 -->
<g id="node3" class="node"><title>Node12</title>
<a xlink:href="_interpolated_8cc.html" target="_top" xlink:title="src/analysis/utils\l/uncertainties/Interpolated.cc">
<polygon fill="white" stroke="black" points="-0.5,-79 -0.5,-113 142.5,-113 142.5,-79 -0.5,-79"/>
<text text-anchor="start" x="7.5" y="-100" font-family="Helvetica,sans-Serif" font-size="10.00">src/analysis/utils</text>
<text text-anchor="middle" x="71" y="-87" font-family="Helvetica,sans-Serif" font-size="10.00">/uncertainties/Interpolated.cc</text>
</a>
</g>
<!-- Node11&#45;&gt;Node12 -->
<g id="edge2" class="edge"><title>Node11&#45;&gt;Node12</title>
<path fill="none" stroke="midnightblue" d="M1011.55,-304.698C879.47,-291.385 578.137,-256.219 332,-192 251.18,-170.914 160.4,-134.485 110.03,-113.081"/>
<polygon fill="midnightblue" stroke="midnightblue" points="1011.23,-308.183 1021.52,-305.694 1011.92,-301.217 1011.23,-308.183"/>
</g>
<!-- Node13 -->
<g id="node5" class="node"><title>Node13</title>
<a xlink:href="_clipped_interpolator_wrapper_8h.html" target="_top" xlink:title="src/base/ClippedInterpolator\lWrapper.h">
<polygon fill="white" stroke="black" points="936.5,-229 936.5,-263 1075.5,-263 1075.5,-229 936.5,-229"/>
<text text-anchor="start" x="944.5" y="-250" font-family="Helvetica,sans-Serif" font-size="10.00">src/base/ClippedInterpolator</text>
<text text-anchor="middle" x="1006" y="-237" font-family="Helvetica,sans-Serif" font-size="10.00">Wrapper.h</text>
</a>
</g>
<!-- Node11&#45;&gt;Node13 -->
<g id="edge4" class="edge"><title>Node11&#45;&gt;Node13</title>
<path fill="none" stroke="midnightblue" d="M1059.4,-293.545C1048.8,-284.106 1035.76,-272.495 1025.22,-263.11"/>
<polygon fill="midnightblue" stroke="midnightblue" points="1057.15,-296.231 1066.95,-300.267 1061.8,-291.003 1057.15,-296.231"/>
</g>
<!-- Node32 -->
<g id="node45" class="node"><title>Node32</title>
<a xlink:href="_interpolator_8cc.html" target="_top" xlink:title="src/base/Interpolator.cc">
<polygon fill="white" stroke="black" points="1092.5,-235.5 1092.5,-256.5 1211.5,-256.5 1211.5,-235.5 1092.5,-235.5"/>
<text text-anchor="middle" x="1152" y="-243.5" font-family="Helvetica,sans-Serif" font-size="10.00">src/base/Interpolator.cc</text>
</a>
</g>
<!-- Node11&#45;&gt;Node32 -->
<g id="edge46" class="edge"><title>Node11&#45;&gt;Node32</title>
<path fill="none" stroke="midnightblue" d="M1098.73,-293.434C1111.97,-281.642 1128.98,-266.498 1140.17,-256.534"/>
<polygon fill="midnightblue" stroke="midnightblue" points="1096.2,-291.003 1091.05,-300.267 1100.85,-296.231 1096.2,-291.003"/>
</g>
<!-- Node33 -->
<g id="node47" class="node"><title>Node33</title>
<a xlink:href="_test_interpolator_8cc.html" target="_top" xlink:title="test/base/TestInterpolator.cc">
<polygon fill="white" stroke="black" points="1229,-235.5 1229,-256.5 1371,-256.5 1371,-235.5 1229,-235.5"/>
<text text-anchor="middle" x="1300" y="-243.5" font-family="Helvetica,sans-Serif" font-size="10.00">test/base/TestInterpolator.cc</text>
</a>
</g>
<!-- Node11&#45;&gt;Node33 -->
<g id="edge48" class="edge"><title>Node11&#45;&gt;Node33</title>
<path fill="none" stroke="midnightblue" d="M1124.82,-297.525C1166.13,-285.374 1226.06,-267.748 1264.02,-256.584"/>
<polygon fill="midnightblue" stroke="midnightblue" points="1123.61,-294.232 1115,-300.412 1125.58,-300.948 1123.61,-294.232"/>
</g>
<!-- Node13&#45;&gt;Node12 -->
<g id="edge40" class="edge"><title>Node13&#45;&gt;Node12</title>
<path fill="none" stroke="midnightblue" d="M926.209,-238.153C774.146,-222.339 432.868,-182.702 151,-120 142.224,-118.048 133.007,-115.634 124.077,-113.095"/>
<polygon fill="midnightblue" stroke="midnightblue" points="926.081,-241.659 936.388,-239.206 926.801,-234.696 926.081,-241.659"/>
</g>
<!-- Node14 -->
<g id="node7" class="node"><title>Node14</title>
<a xlink:href="_interpolated_8h.html" target="_top" xlink:title="src/analysis/utils\l/uncertainties/Interpolated.h">
<polygon fill="white" stroke="black" points="937.5,-157 937.5,-191 1074.5,-191 1074.5,-157 937.5,-157"/>
<text text-anchor="start" x="945.5" y="-178" font-family="Helvetica,sans-Serif" font-size="10.00">src/analysis/utils</text>
<text text-anchor="middle" x="1006" y="-165" font-family="Helvetica,sans-Serif" font-size="10.00">/uncertainties/Interpolated.h</text>
</a>
</g>
<!-- Node13&#45;&gt;Node14 -->
<g id="edge6" class="edge"><title>Node13&#45;&gt;Node14</title>
<path fill="none" stroke="midnightblue" d="M1006,-218.719C1006,-209.572 1006,-199.625 1006,-191.441"/>
<polygon fill="midnightblue" stroke="midnightblue" points="1002.5,-218.937 1006,-228.937 1009.5,-218.937 1002.5,-218.937"/>
</g>
<!-- Node30 -->
<g id="node41" class="node"><title>Node30</title>
<a xlink:href="_clipped_interpolator_wrapper_8cc.html" target="_top" xlink:title="src/base/ClippedInterpolator\lWrapper.cc">
<polygon fill="white" stroke="black" points="1091.5,-157 1091.5,-191 1230.5,-191 1230.5,-157 1091.5,-157"/>
<text text-anchor="start" x="1099.5" y="-178" font-family="Helvetica,sans-Serif" font-size="10.00">src/base/ClippedInterpolator</text>
<text text-anchor="middle" x="1161" y="-165" font-family="Helvetica,sans-Serif" font-size="10.00">Wrapper.cc</text>
</a>
</g>
<!-- Node13&#45;&gt;Node30 -->
<g id="edge42" class="edge"><title>Node13&#45;&gt;Node30</title>
<path fill="none" stroke="midnightblue" d="M1051.99,-224.638C1075.06,-213.921 1102.62,-201.117 1124.26,-191.065"/>
<polygon fill="midnightblue" stroke="midnightblue" points="1050.33,-221.55 1042.73,-228.937 1053.28,-227.898 1050.33,-221.55"/>
</g>
<!-- Node31 -->
<g id="node43" class="node"><title>Node31</title>
<a xlink:href="_cluster_correction_8cc.html" target="_top" xlink:title="src/calibration/modules\l/ClusterCorrection.cc">
<polygon fill="white" stroke="black" points="1247.5,-157 1247.5,-191 1364.5,-191 1364.5,-157 1247.5,-157"/>
<text text-anchor="start" x="1255.5" y="-178" font-family="Helvetica,sans-Serif" font-size="10.00">src/calibration/modules</text>
<text text-anchor="middle" x="1306" y="-165" font-family="Helvetica,sans-Serif" font-size="10.00">/ClusterCorrection.cc</text>
</a>
</g>
<!-- Node13&#45;&gt;Node31 -->
<g id="edge44" class="edge"><title>Node13&#45;&gt;Node31</title>
<path fill="none" stroke="midnightblue" d="M1085.49,-227.647C1149.93,-212.756 1231.31,-193.923 1239,-192 1241.69,-191.328 1244.43,-190.631 1247.2,-189.92"/>
<polygon fill="midnightblue" stroke="midnightblue" points="1084.66,-224.245 1075.71,-229.906 1086.24,-231.065 1084.66,-224.245"/>
</g>
<!-- Node14&#45;&gt;Node12 -->
<g id="edge36" class="edge"><title>Node14&#45;&gt;Node12</title>
<path fill="none" stroke="midnightblue" d="M927.032,-168.938C870.494,-165.32 792.561,-160.342 724,-156 469.341,-139.873 402.178,-164.955 151,-120 141.294,-118.263 131.1,-115.755 121.361,-113.009"/>
<polygon fill="midnightblue" stroke="midnightblue" points="927.13,-172.452 937.333,-169.598 927.577,-165.466 927.13,-172.452"/>
</g>
<!-- Node15 -->
<g id="node9" class="node"><title>Node15</title>
<a xlink:href="_p_i_d___t_a_p_s_veto___kinfit_8cc.html" target="_top" xlink:title="src/analysis/physics\l/calibration/PID_TAPSVeto\l_Kinfit.cc">
<polygon fill="white" stroke="black" points="160,-72.5 160,-119.5 296,-119.5 296,-72.5 160,-72.5"/>
<text text-anchor="start" x="168" y="-106.5" font-family="Helvetica,sans-Serif" font-size="10.00">src/analysis/physics</text>
<text text-anchor="start" x="168" y="-93.5" font-family="Helvetica,sans-Serif" font-size="10.00">/calibration/PID_TAPSVeto</text>
<text text-anchor="middle" x="228" y="-80.5" font-family="Helvetica,sans-Serif" font-size="10.00">_Kinfit.cc</text>
</a>
</g>
<!-- Node14&#45;&gt;Node15 -->
<g id="edge8" class="edge"><title>Node14&#45;&gt;Node15</title>
<path fill="none" stroke="midnightblue" d="M927.183,-168.934C756.82,-157.837 364.766,-131.464 305,-120 302.112,-119.446 299.18,-118.822 296.23,-118.142"/>
<polygon fill="midnightblue" stroke="midnightblue" points="927.135,-172.438 937.341,-169.594 927.589,-165.453 927.135,-172.438"/>
</g>
<!-- Node16 -->
<g id="node11" class="node"><title>Node16</title>
<a xlink:href="_kin_fit_i_m_check_8cc.html" target="_top" xlink:title="src/analysis/physics\l/check/KinFitIMCheck.cc">
<polygon fill="white" stroke="black" points="314,-79 314,-113 442,-113 442,-79 314,-79"/>
<text text-anchor="start" x="322" y="-100" font-family="Helvetica,sans-Serif" font-size="10.00">src/analysis/physics</text>
<text text-anchor="middle" x="378" y="-87" font-family="Helvetica,sans-Serif" font-size="10.00">/check/KinFitIMCheck.cc</text>
</a>
</g>
<!-- Node14&#45;&gt;Node16 -->
<g id="edge10" class="edge"><title>Node14&#45;&gt;Node16</title>
<path fill="none" stroke="midnightblue" d="M926.973,-168.471C796.048,-158.949 539.779,-138.673 451,-120 442.383,-118.188 433.358,-115.715 424.707,-113.042"/>
<polygon fill="midnightblue" stroke="midnightblue" points="927.102,-171.99 937.328,-169.221 927.607,-165.008 927.102,-171.99"/>
</g>
<!-- Node17 -->
<g id="node13" class="node"><title>Node17</title>
<a xlink:href="_p_i_d_efficiency_check_8cc.html" target="_top" xlink:title="src/analysis/physics\l/check/PIDEfficiencyCheck.cc">
<polygon fill="white" stroke="black" points="460,-79 460,-113 612,-113 612,-79 460,-79"/>
<text text-anchor="start" x="468" y="-100" font-family="Helvetica,sans-Serif" font-size="10.00">src/analysis/physics</text>
<text text-anchor="middle" x="536" y="-87" font-family="Helvetica,sans-Serif" font-size="10.00">/check/PIDEfficiencyCheck.cc</text>
</a>
</g>
<!-- Node14&#45;&gt;Node17 -->
<g id="edge12" class="edge"><title>Node14&#45;&gt;Node17</title>
<path fill="none" stroke="midnightblue" d="M927.101,-166.107C848.896,-157.541 725.932,-142.066 621,-120 611.696,-118.044 601.914,-115.627 592.429,-113.088"/>
<polygon fill="midnightblue" stroke="midnightblue" points="927.04,-169.621 937.359,-167.219 927.794,-162.662 927.04,-169.621"/>
</g>
<!-- Node18 -->
<g id="node15" class="node"><title>Node18</title>
<a xlink:href="_three_photon_check_8cc.html" target="_top" xlink:title="src/analysis/physics\l/check/ThreePhotonCheck.cc">
<polygon fill="white" stroke="black" points="630,-79 630,-113 776,-113 776,-79 630,-79"/>
<text text-anchor="start" x="638" y="-100" font-family="Helvetica,sans-Serif" font-size="10.00">src/analysis/physics</text>
<text text-anchor="middle" x="703" y="-87" font-family="Helvetica,sans-Serif" font-size="10.00">/check/ThreePhotonCheck.cc</text>
</a>
</g>
<!-- Node14&#45;&gt;Node18 -->
<g id="edge14" class="edge"><title>Node14&#45;&gt;Node18</title>
<path fill="none" stroke="midnightblue" d="M927.155,-155.647C884.882,-145.577 831.97,-132.605 785,-120 776.977,-117.847 768.541,-115.487 760.255,-113.115"/>
<polygon fill="midnightblue" stroke="midnightblue" points="926.57,-159.105 937.108,-158.011 928.188,-152.294 926.57,-159.105"/>
</g>
<!-- Node19 -->
<g id="node17" class="node"><title>Node19</title>
<a xlink:href="_etap_omega_g_8cc.html" target="_top" xlink:title="src/analysis/physics\l/etaprime/EtapOmegaG.cc">
<polygon fill="white" stroke="black" points="793.5,-79 793.5,-113 926.5,-113 926.5,-79 793.5,-79"/>
<text text-anchor="start" x="801.5" y="-100" font-family="Helvetica,sans-Serif" font-size="10.00">src/analysis/physics</text>
<text text-anchor="middle" x="860" y="-87" font-family="Helvetica,sans-Serif" font-size="10.00">/etaprime/EtapOmegaG.cc</text>
</a>
</g>
<!-- Node14&#45;&gt;Node19 -->
<g id="edge16" class="edge"><title>Node14&#45;&gt;Node19</title>
<path fill="none" stroke="midnightblue" d="M965.06,-152.128C941.93,-139.771 913.439,-124.55 891.966,-113.078"/>
<polygon fill="midnightblue" stroke="midnightblue" points="963.49,-155.257 973.96,-156.883 966.789,-149.083 963.49,-155.257"/>
</g>
<!-- Node20 -->
<g id="node19" class="node"><title>Node20</title>
<a xlink:href="_omega___eta_g_8cc.html" target="_top" xlink:title="src/analysis/physics\l/omega/Omega_EtaG.cc">
<polygon fill="white" stroke="black" points="943.5,-79 943.5,-113 1068.5,-113 1068.5,-79 943.5,-79"/>
<text text-anchor="start" x="951.5" y="-100" font-family="Helvetica,sans-Serif" font-size="10.00">src/analysis/physics</text>
<text text-anchor="middle" x="1006" y="-87" font-family="Helvetica,sans-Serif" font-size="10.00">/omega/Omega_EtaG.cc</text>
</a>
</g>
<!-- Node14&#45;&gt;Node20 -->
<g id="edge18" class="edge"><title>Node14&#45;&gt;Node20</title>
<path fill="none" stroke="midnightblue" d="M1006,-146.61C1006,-135.519 1006,-123.049 1006,-113.262"/>
<polygon fill="midnightblue" stroke="midnightblue" points="1002.5,-146.689 1006,-156.689 1009.5,-146.689 1002.5,-146.689"/>
</g>
<!-- Node21 -->
<g id="node21" class="node"><title>Node21</title>
<a xlink:href="_just_pi0_8cc.html" target="_top" xlink:title="src/analysis/physics\l/pi0/JustPi0.cc">
<polygon fill="white" stroke="black" points="1086,-79 1086,-113 1192,-113 1192,-79 1086,-79"/>
<text text-anchor="start" x="1094" y="-100" font-family="Helvetica,sans-Serif" font-size="10.00">src/analysis/physics</text>
<text text-anchor="middle" x="1139" y="-87" font-family="Helvetica,sans-Serif" font-size="10.00">/pi0/JustPi0.cc</text>
</a>
</g>
<!-- Node14&#45;&gt;Node21 -->
<g id="edge20" class="edge"><title>Node14&#45;&gt;Node21</title>
<path fill="none" stroke="midnightblue" d="M1043.85,-151.799C1064.82,-139.501 1090.49,-124.448 1109.88,-113.078"/>
<polygon fill="midnightblue" stroke="midnightblue" points="1042.04,-148.805 1035.19,-156.883 1045.58,-154.843 1042.04,-148.805"/>
</g>
<!-- Node22 -->
<g id="node23" class="node"><title>Node22</title>
<a xlink:href="single_pi0_8cc.html" target="_top" xlink:title="src/analysis/physics\l/production/singlePi0.cc">
<polygon fill="white" stroke="black" points="1209.5,-79 1209.5,-113 1330.5,-113 1330.5,-79 1209.5,-79"/>
<text text-anchor="start" x="1217.5" y="-100" font-family="Helvetica,sans-Serif" font-size="10.00">src/analysis/physics</text>
<text text-anchor="middle" x="1270" y="-87" font-family="Helvetica,sans-Serif" font-size="10.00">/production/singlePi0.cc</text>
</a>
</g>
<!-- Node14&#45;&gt;Node22 -->
<g id="edge22" class="edge"><title>Node14&#45;&gt;Node22</title>
<path fill="none" stroke="midnightblue" d="M1081.76,-154.241C1118.01,-144.477 1161.92,-132.194 1201,-120 1207.9,-117.847 1215.15,-115.462 1222.25,-113.057"/>
<polygon fill="midnightblue" stroke="midnightblue" points="1080.51,-150.954 1071.75,-156.925 1082.32,-157.715 1080.51,-150.954"/>
</g>
<!-- Node23 -->
<g id="node25" class="node"><title>Node23</title>
<a xlink:href="triple_pi0_8cc.html" target="_top" xlink:title="src/analysis/physics\l/production/triplePi0.cc">
<polygon fill="white" stroke="black" points="1348,-79 1348,-113 1464,-113 1464,-79 1348,-79"/>
<text text-anchor="start" x="1356" y="-100" font-family="Helvetica,sans-Serif" font-size="10.00">src/analysis/physics</text>
<text text-anchor="middle" x="1406" y="-87" font-family="Helvetica,sans-Serif" font-size="10.00">/production/triplePi0.cc</text>
</a>
</g>
<!-- Node14&#45;&gt;Node23 -->
<g id="edge24" class="edge"><title>Node14&#45;&gt;Node23</title>
<path fill="none" stroke="midnightblue" d="M1084.86,-155.753C1197.79,-135.584 1230.61,-146.737 1339,-120 1346.68,-118.106 1354.7,-115.659 1362.42,-113.054"/>
<polygon fill="midnightblue" stroke="midnightblue" points="1083.99,-152.355 1074.78,-157.598 1085.25,-159.24 1083.99,-152.355"/>
</g>
<!-- Node24 -->
<g id="node27" class="node"><title>Node24</title>
<a xlink:href="_proton_vertex_test_8cc.html" target="_top" xlink:title="src/analysis/physics\l/scratch/wolfes/ProtonVertex\lTest.cc">
<polygon fill="white" stroke="black" points="1481.5,-72.5 1481.5,-119.5 1624.5,-119.5 1624.5,-72.5 1481.5,-72.5"/>
<text text-anchor="start" x="1489.5" y="-106.5" font-family="Helvetica,sans-Serif" font-size="10.00">src/analysis/physics</text>
<text text-anchor="start" x="1489.5" y="-93.5" font-family="Helvetica,sans-Serif" font-size="10.00">/scratch/wolfes/ProtonVertex</text>
<text text-anchor="middle" x="1553" y="-80.5" font-family="Helvetica,sans-Serif" font-size="10.00">Test.cc</text>
</a>
</g>
<!-- Node14&#45;&gt;Node24 -->
<g id="edge26" class="edge"><title>Node14&#45;&gt;Node24</title>
<path fill="none" stroke="midnightblue" d="M1084.64,-155.857C1256.62,-129.032 1305.29,-152.559 1473,-120 1475.7,-119.475 1478.45,-118.896 1481.21,-118.273"/>
<polygon fill="midnightblue" stroke="midnightblue" points="1084.08,-152.403 1074.75,-157.434 1085.18,-159.316 1084.08,-152.403"/>
</g>
<!-- Node25 -->
<g id="node29" class="node"><title>Node25</title>
<a xlink:href="_test_sigma_plus_fitter_8cc.html" target="_top" xlink:title="src/analysis/physics\l/test/TestSigmaPlusFitter.cc">
<polygon fill="white" stroke="black" points="1642,-79 1642,-113 1784,-113 1784,-79 1642,-79"/>
<text text-anchor="start" x="1650" y="-100" font-family="Helvetica,sans-Serif" font-size="10.00">src/analysis/physics</text>
<text text-anchor="middle" x="1713" y="-87" font-family="Helvetica,sans-Serif" font-size="10.00">/test/TestSigmaPlusFitter.cc</text>
</a>
</g>
<!-- Node14&#45;&gt;Node25 -->
<g id="edge28" class="edge"><title>Node14&#45;&gt;Node25</title>
<path fill="none" stroke="midnightblue" d="M1084.91,-155.854C1327.16,-121.17 1395.22,-162.879 1633,-120 1642.56,-118.276 1652.6,-115.81 1662.2,-113.109"/>
<polygon fill="midnightblue" stroke="midnightblue" points="1084.13,-152.432 1074.74,-157.341 1085.14,-159.359 1084.13,-152.432"/>
</g>
<!-- Node26 -->
<g id="node31" class="node"><title>Node26</title>
<a xlink:href="analysis_2physics_2tunings_2_interpolated_pulls_8h.html" target="_top" xlink:title="src/analysis/physics\l/tunings/InterpolatedPulls.h">
<polygon fill="white" stroke="black" points="1801.5,-79 1801.5,-113 1936.5,-113 1936.5,-79 1801.5,-79"/>
<text text-anchor="start" x="1809.5" y="-100" font-family="Helvetica,sans-Serif" font-size="10.00">src/analysis/physics</text>
<text text-anchor="middle" x="1869" y="-87" font-family="Helvetica,sans-Serif" font-size="10.00">/tunings/InterpolatedPulls.h</text>
</a>
</g>
<!-- Node14&#45;&gt;Node26 -->
<g id="edge30" class="edge"><title>Node14&#45;&gt;Node26</title>
<path fill="none" stroke="midnightblue" d="M1085,-155.864C1397.74,-113.227 1485.39,-175.427 1793,-120 1802.26,-118.332 1811.96,-115.856 1821.22,-113.12"/>
<polygon fill="midnightblue" stroke="midnightblue" points="1084.16,-152.448 1074.73,-157.29 1085.12,-159.381 1084.16,-152.448"/>
</g>
<!-- Node28 -->
<g id="node35" class="node"><title>Node28</title>
<a xlink:href="physics_2tunings_2_trigger_simulation_8cc.html" target="_top" xlink:title="src/analysis/physics\l/tunings/TriggerSimulation.cc">
<polygon fill="white" stroke="black" points="1953.5,-79 1953.5,-113 2096.5,-113 2096.5,-79 1953.5,-79"/>
<text text-anchor="start" x="1961.5" y="-100" font-family="Helvetica,sans-Serif" font-size="10.00">src/analysis/physics</text>
<text text-anchor="middle" x="2025" y="-87" font-family="Helvetica,sans-Serif" font-size="10.00">/tunings/TriggerSimulation.cc</text>
</a>
</g>
<!-- Node14&#45;&gt;Node28 -->
<g id="edge34" class="edge"><title>Node14&#45;&gt;Node28</title>
<path fill="none" stroke="midnightblue" d="M1084.9,-155.889C1464.77,-105.515 1570.19,-183.027 1945,-120 1954.87,-118.341 1965.23,-115.833 1975.1,-113.053"/>
<polygon fill="midnightblue" stroke="midnightblue" points="1084.17,-152.455 1074.73,-157.259 1085.11,-159.393 1084.17,-152.455"/>
</g>
<!-- Node29 -->
<g id="node38" class="node"><title>Node29</title>
<a xlink:href="root-addons_2analysis__codes_2_interpolated_pulls_8cc.html" target="_top" xlink:title="src/root&#45;addons/analysis\l_codes/InterpolatedPulls.cc">
<polygon fill="white" stroke="black" points="2113.5,-79 2113.5,-113 2250.5,-113 2250.5,-79 2113.5,-79"/>
<text text-anchor="start" x="2121.5" y="-100" font-family="Helvetica,sans-Serif" font-size="10.00">src/root&#45;addons/analysis</text>
<text text-anchor="middle" x="2182" y="-87" font-family="Helvetica,sans-Serif" font-size="10.00">_codes/InterpolatedPulls.cc</text>
</a>
</g>
<!-- Node14&#45;&gt;Node29 -->
<g id="edge38" class="edge"><title>Node14&#45;&gt;Node29</title>
<path fill="none" stroke="midnightblue" d="M1084.75,-155.917C1535.35,-97.4474 1660.23,-195.743 2105,-120 2114.52,-118.378 2124.51,-115.887 2134.01,-113.113"/>
<polygon fill="midnightblue" stroke="midnightblue" points="1084.18,-152.462 1074.72,-157.237 1085.1,-159.402 1084.18,-152.462"/>
</g>
<!-- Node27 -->
<g id="node33" class="node"><title>Node27</title>
<a xlink:href="analysis_2physics_2tunings_2_interpolated_pulls_8cc.html" target="_top" xlink:title="src/analysis/physics\l/tunings/InterpolatedPulls.cc">
<polygon fill="white" stroke="black" points="1799,-1 1799,-35 1939,-35 1939,-1 1799,-1"/>
<text text-anchor="start" x="1807" y="-22" font-family="Helvetica,sans-Serif" font-size="10.00">src/analysis/physics</text>
<text text-anchor="middle" x="1869" y="-9" font-family="Helvetica,sans-Serif" font-size="10.00">/tunings/InterpolatedPulls.cc</text>
</a>
</g>
<!-- Node26&#45;&gt;Node27 -->
<g id="edge32" class="edge"><title>Node26&#45;&gt;Node27</title>
<path fill="none" stroke="midnightblue" d="M1869,-68.6102C1869,-57.5188 1869,-45.0489 1869,-35.2623"/>
<polygon fill="midnightblue" stroke="midnightblue" points="1865.5,-68.6892 1869,-78.6893 1872.5,-68.6893 1865.5,-68.6892"/>
</g>
</g>
</svg>
