<?xml version="1.0" encoding="UTF-8" standalone="no"?>
<!DOCTYPE svg PUBLIC "-//W3C//DTD SVG 1.1//EN"
 "http://www.w3.org/Graphics/SVG/1.1/DTD/svg11.dtd">
<!-- Generated by graphviz version 2.26.3 (20100126.1600)
 -->
<!-- Title: src/analysis/utils/uncertainties/Interpolated.h Pages: 1 -->
<svg width="2258pt" height="200pt"
 viewBox="0.00 0.00 2258.00 200.00" xmlns="http://www.w3.org/2000/svg" xmlns:xlink="http://www.w3.org/1999/xlink">
<g id="graph1" class="graph" transform="scale(1 1) rotate(0) translate(4 196)">
<title>src/analysis/utils/uncertainties/Interpolated.h</title>
<polygon fill="white" stroke="white" points="-4,5 -4,-196 2255,-196 2255,5 -4,5"/>
<!-- Node44 -->
<g id="node1" class="node"><title>Node44</title>
<polygon fill="#bfbfbf" stroke="black" points="1041.5,-157 1041.5,-191 1178.5,-191 1178.5,-157 1041.5,-157"/>
<text text-anchor="start" x="1049.5" y="-178" font-family="Helvetica,sans-Serif" font-size="10.00">src/analysis/utils</text>
<text text-anchor="middle" x="1110" y="-165" font-family="Helvetica,sans-Serif" font-size="10.00">/uncertainties/Interpolated.h</text>
</g>
<!-- Node45 -->
<g id="node3" class="node"><title>Node45</title>
<a xlink:href="_p_i_d___t_a_p_s_veto___kinfit_8cc.html" target="_top" xlink:title="src/analysis/physics\l/calibration/PID_TAPSVeto\l_Kinfit.cc">
<polygon fill="white" stroke="black" points="0,-72.5 0,-119.5 136,-119.5 136,-72.5 0,-72.5"/>
<text text-anchor="start" x="8" y="-106.5" font-family="Helvetica,sans-Serif" font-size="10.00">src/analysis/physics</text>
<text text-anchor="start" x="8" y="-93.5" font-family="Helvetica,sans-Serif" font-size="10.00">/calibration/PID_TAPSVeto</text>
<text text-anchor="middle" x="68" y="-80.5" font-family="Helvetica,sans-Serif" font-size="10.00">_Kinfit.cc</text>
</a>
</g>
<!-- Node44&#45;&gt;Node45 -->
<g id="edge2" class="edge"><title>Node44&#45;&gt;Node45</title>
<path fill="none" stroke="midnightblue" d="M1031.4,-172.094C832.781,-166.878 314.495,-150.672 145,-120 142.106,-119.476 139.17,-118.877 136.216,-118.218"/>
<polygon fill="midnightblue" stroke="midnightblue" points="1031.38,-175.595 1041.47,-172.356 1031.56,-168.597 1031.38,-175.595"/>
</g>
<!-- Node46 -->
<g id="node5" class="node"><title>Node46</title>
<a xlink:href="_kin_fit_i_m_check_8cc.html" target="_top" xlink:title="src/analysis/physics\l/check/KinFitIMCheck.cc">
<polygon fill="white" stroke="black" points="154,-79 154,-113 282,-113 282,-79 154,-79"/>
<text text-anchor="start" x="162" y="-100" font-family="Helvetica,sans-Serif" font-size="10.00">src/analysis/physics</text>
<text text-anchor="middle" x="218" y="-87" font-family="Helvetica,sans-Serif" font-size="10.00">/check/KinFitIMCheck.cc</text>
</a>
</g>
<!-- Node44&#45;&gt;Node46 -->
<g id="edge4" class="edge"><title>Node44&#45;&gt;Node46</title>
<path fill="none" stroke="midnightblue" d="M1031.26,-171.335C854.631,-164.946 431.309,-147.237 291,-120 282.094,-118.271 272.769,-115.768 263.876,-113.023"/>
<polygon fill="midnightblue" stroke="midnightblue" points="1031.15,-174.833 1041.27,-171.694 1031.4,-167.837 1031.15,-174.833"/>
</g>
<!-- Node47 -->
<g id="node7" class="node"><title>Node47</title>
<a xlink:href="_p_i_d_efficiency_check_8cc.html" target="_top" xlink:title="src/analysis/physics\l/check/PIDEfficiencyCheck.cc">
<polygon fill="white" stroke="black" points="300,-79 300,-113 452,-113 452,-79 300,-79"/>
<text text-anchor="start" x="308" y="-100" font-family="Helvetica,sans-Serif" font-size="10.00">src/analysis/physics</text>
<text text-anchor="middle" x="376" y="-87" font-family="Helvetica,sans-Serif" font-size="10.00">/check/PIDEfficiencyCheck.cc</text>
</a>
</g>
<!-- Node44&#45;&gt;Node47 -->
<g id="edge6" class="edge"><title>Node44&#45;&gt;Node47</title>
<path fill="none" stroke="midnightblue" d="M1031.16,-172.314C908.378,-168.597 664.439,-156.831 461,-120 451.042,-118.197 440.568,-115.729 430.507,-113.058"/>
<polygon fill="midnightblue" stroke="midnightblue" points="1031.13,-175.815 1041.23,-172.609 1031.33,-168.818 1031.13,-175.815"/>
</g>
<!-- Node48 -->
<g id="node9" class="node"><title>Node48</title>
<a xlink:href="_three_photon_check_8cc.html" target="_top" xlink:title="src/analysis/physics\l/check/ThreePhotonCheck.cc">
<polygon fill="white" stroke="black" points="470,-79 470,-113 616,-113 616,-79 470,-79"/>
<text text-anchor="start" x="478" y="-100" font-family="Helvetica,sans-Serif" font-size="10.00">src/analysis/physics</text>
<text text-anchor="middle" x="543" y="-87" font-family="Helvetica,sans-Serif" font-size="10.00">/check/ThreePhotonCheck.cc</text>
</a>
</g>
<!-- Node44&#45;&gt;Node48 -->
<g id="edge8" class="edge"><title>Node44&#45;&gt;Node48</title>
<path fill="none" stroke="midnightblue" d="M1030.89,-169.429C934.337,-162.88 766.463,-148.353 625,-120 615.692,-118.134 605.913,-115.702 596.48,-113.102"/>
<polygon fill="midnightblue" stroke="midnightblue" points="1030.94,-172.94 1041.15,-170.113 1031.41,-165.956 1030.94,-172.94"/>
</g>
<!-- Node49 -->
<g id="node11" class="node"><title>Node49</title>
<a xlink:href="_etap_omega_g_8cc.html" target="_top" xlink:title="src/analysis/physics\l/etaprime/EtapOmegaG.cc">
<polygon fill="white" stroke="black" points="633.5,-79 633.5,-113 766.5,-113 766.5,-79 633.5,-79"/>
<text text-anchor="start" x="641.5" y="-100" font-family="Helvetica,sans-Serif" font-size="10.00">src/analysis/physics</text>
<text text-anchor="middle" x="700" y="-87" font-family="Helvetica,sans-Serif" font-size="10.00">/etaprime/EtapOmegaG.cc</text>
</a>
</g>
<!-- Node44&#45;&gt;Node49 -->
<g id="edge10" class="edge"><title>Node44&#45;&gt;Node49</title>
<path fill="none" stroke="midnightblue" d="M1031.14,-164.684C962.837,-155.808 861.65,-140.724 775,-120 766.756,-118.028 758.107,-115.604 749.731,-113.062"/>
<polygon fill="midnightblue" stroke="midnightblue" points="1031.03,-168.198 1041.4,-166.001 1031.92,-161.255 1031.03,-168.198"/>
</g>
<!-- Node50 -->
<g id="node13" class="node"><title>Node50</title>
<a xlink:href="_omega___eta_g_8cc.html" target="_top" xlink:title="src/analysis/physics\l/omega/Omega_EtaG.cc">
<polygon fill="white" stroke="black" points="783.5,-79 783.5,-113 908.5,-113 908.5,-79 783.5,-79"/>
<text text-anchor="start" x="791.5" y="-100" font-family="Helvetica,sans-Serif" font-size="10.00">src/analysis/physics</text>
<text text-anchor="middle" x="846" y="-87" font-family="Helvetica,sans-Serif" font-size="10.00">/omega/Omega_EtaG.cc</text>
</a>
</g>
<!-- Node44&#45;&gt;Node50 -->
<g id="edge12" class="edge"><title>Node44&#45;&gt;Node50</title>
<path fill="none" stroke="midnightblue" d="M1035.91,-154.262C999.895,-144.414 956.05,-132.054 917,-120 910.038,-117.851 902.724,-115.494 895.546,-113.122"/>
<polygon fill="midnightblue" stroke="midnightblue" points="1035.29,-157.719 1045.86,-156.971 1037.13,-150.965 1035.29,-157.719"/>
</g>
<!-- Node51 -->
<g id="node15" class="node"><title>Node51</title>
<a xlink:href="_just_pi0_8cc.html" target="_top" xlink:title="src/analysis/physics\l/pi0/JustPi0.cc">
<polygon fill="white" stroke="black" points="926,-79 926,-113 1032,-113 1032,-79 926,-79"/>
<text text-anchor="start" x="934" y="-100" font-family="Helvetica,sans-Serif" font-size="10.00">src/analysis/physics</text>
<text text-anchor="middle" x="979" y="-87" font-family="Helvetica,sans-Serif" font-size="10.00">/pi0/JustPi0.cc</text>
</a>
</g>
<!-- Node44&#45;&gt;Node51 -->
<g id="edge14" class="edge"><title>Node44&#45;&gt;Node51</title>
<path fill="none" stroke="midnightblue" d="M1072.44,-151.635C1051.83,-139.367 1026.69,-124.398 1007.68,-113.078"/>
<polygon fill="midnightblue" stroke="midnightblue" points="1070.87,-154.774 1081.25,-156.883 1074.45,-148.759 1070.87,-154.774"/>
</g>
<!-- Node52 -->
<g id="node17" class="node"><title>Node52</title>
<a xlink:href="single_pi0_8cc.html" target="_top" xlink:title="src/analysis/physics\l/production/singlePi0.cc">
<polygon fill="white" stroke="black" points="1049.5,-79 1049.5,-113 1170.5,-113 1170.5,-79 1049.5,-79"/>
<text text-anchor="start" x="1057.5" y="-100" font-family="Helvetica,sans-Serif" font-size="10.00">src/analysis/physics</text>
<text text-anchor="middle" x="1110" y="-87" font-family="Helvetica,sans-Serif" font-size="10.00">/production/singlePi0.cc</text>
</a>
</g>
<!-- Node44&#45;&gt;Node52 -->
<g id="edge16" class="edge"><title>Node44&#45;&gt;Node52</title>
<path fill="none" stroke="midnightblue" d="M1110,-146.61C1110,-135.519 1110,-123.049 1110,-113.262"/>
<polygon fill="midnightblue" stroke="midnightblue" points="1106.5,-146.689 1110,-156.689 1113.5,-146.689 1106.5,-146.689"/>
</g>
<!-- Node53 -->
<g id="node19" class="node"><title>Node53</title>
<a xlink:href="triple_pi0_8cc.html" target="_top" xlink:title="src/analysis/physics\l/production/triplePi0.cc">
<polygon fill="white" stroke="black" points="1188,-79 1188,-113 1304,-113 1304,-79 1188,-79"/>
<text text-anchor="start" x="1196" y="-100" font-family="Helvetica,sans-Serif" font-size="10.00">src/analysis/physics</text>
<text text-anchor="middle" x="1246" y="-87" font-family="Helvetica,sans-Serif" font-size="10.00">/production/triplePi0.cc</text>
</a>
</g>
<!-- Node44&#45;&gt;Node53 -->
<g id="edge18" class="edge"><title>Node44&#45;&gt;Node53</title>
<path fill="none" stroke="midnightblue" d="M1148.71,-151.799C1170.15,-139.501 1196.4,-124.448 1216.22,-113.078"/>
<polygon fill="midnightblue" stroke="midnightblue" points="1146.78,-148.871 1139.85,-156.883 1150.26,-154.944 1146.78,-148.871"/>
</g>
<!-- Node54 -->
<g id="node21" class="node"><title>Node54</title>
<a xlink:href="_proton_vertex_test_8cc.html" target="_top" xlink:title="src/analysis/physics\l/scratch/wolfes/ProtonVertex\lTest.cc">
<polygon fill="white" stroke="black" points="1321.5,-72.5 1321.5,-119.5 1464.5,-119.5 1464.5,-72.5 1321.5,-72.5"/>
<text text-anchor="start" x="1329.5" y="-106.5" font-family="Helvetica,sans-Serif" font-size="10.00">src/analysis/physics</text>
<text text-anchor="start" x="1329.5" y="-93.5" font-family="Helvetica,sans-Serif" font-size="10.00">/scratch/wolfes/ProtonVertex</text>
<text text-anchor="middle" x="1393" y="-80.5" font-family="Helvetica,sans-Serif" font-size="10.00">Test.cc</text>
</a>
</g>
<!-- Node44&#45;&gt;Node54 -->
<g id="edge20" class="edge"><title>Node44&#45;&gt;Node54</title>
<path fill="none" stroke="midnightblue" d="M1186.43,-154.277C1224.54,-144.288 1271.28,-131.802 1313,-120 1315.65,-119.25 1318.35,-118.479 1321.07,-117.694"/>
<polygon fill="midnightblue" stroke="midnightblue" points="1185.22,-150.976 1176.43,-156.893 1186.99,-157.748 1185.22,-150.976"/>
</g>
<!-- Node55 -->
<g id="node23" class="node"><title>Node55</title>
<a xlink:href="_test_sigma_plus_fitter_8cc.html" target="_top" xlink:title="src/analysis/physics\l/test/TestSigmaPlusFitter.cc">
<polygon fill="white" stroke="black" points="1482,-79 1482,-113 1624,-113 1624,-79 1482,-79"/>
<text text-anchor="start" x="1490" y="-100" font-family="Helvetica,sans-Serif" font-size="10.00">src/analysis/physics</text>
<text text-anchor="middle" x="1553" y="-87" font-family="Helvetica,sans-Serif" font-size="10.00">/test/TestSigmaPlusFitter.cc</text>
</a>
</g>
<!-- Node44&#45;&gt;Node55 -->
<g id="edge22" class="edge"><title>Node44&#45;&gt;Node55</title>
<path fill="none" stroke="midnightblue" d="M1188.95,-165.574C1262.89,-156.902 1376.19,-141.604 1473,-120 1481.77,-118.042 1490.99,-115.624 1499.92,-113.085"/>
<polygon fill="midnightblue" stroke="midnightblue" points="1188.31,-162.125 1178.78,-166.754 1189.12,-169.078 1188.31,-162.125"/>
</g>
<!-- Node56 -->
<g id="node25" class="node"><title>Node56</title>
<a xlink:href="analysis_2physics_2tunings_2_interpolated_pulls_8h.html" target="_top" xlink:title="src/analysis/physics\l/tunings/InterpolatedPulls.h">
<polygon fill="white" stroke="black" points="1641.5,-79 1641.5,-113 1776.5,-113 1776.5,-79 1641.5,-79"/>
<text text-anchor="start" x="1649.5" y="-100" font-family="Helvetica,sans-Serif" font-size="10.00">src/analysis/physics</text>
<text text-anchor="middle" x="1709" y="-87" font-family="Helvetica,sans-Serif" font-size="10.00">/tunings/InterpolatedPulls.h</text>
</a>
</g>
<!-- Node44&#45;&gt;Node56 -->
<g id="edge24" class="edge"><title>Node44&#45;&gt;Node56</title>
<path fill="none" stroke="midnightblue" d="M1188.81,-170.847C1291.85,-165.592 1477.51,-152.229 1633,-120 1641.81,-118.175 1651.04,-115.729 1659.92,-113.096"/>
<polygon fill="midnightblue" stroke="midnightblue" points="1188.61,-167.352 1178.8,-171.345 1188.96,-174.344 1188.61,-167.352"/>
</g>
<!-- Node58 -->
<g id="node29" class="node"><title>Node58</title>
<a xlink:href="physics_2tunings_2_trigger_simulation_8cc.html" target="_top" xlink:title="src/analysis/physics\l/tunings/TriggerSimulation.cc">
<polygon fill="white" stroke="black" points="1793.5,-79 1793.5,-113 1936.5,-113 1936.5,-79 1793.5,-79"/>
<text text-anchor="start" x="1801.5" y="-100" font-family="Helvetica,sans-Serif" font-size="10.00">src/analysis/physics</text>
<text text-anchor="middle" x="1865" y="-87" font-family="Helvetica,sans-Serif" font-size="10.00">/tunings/TriggerSimulation.cc</text>
</a>
</g>
<!-- Node44&#45;&gt;Node58 -->
<g id="edge28" class="edge"><title>Node44&#45;&gt;Node58</title>
<path fill="none" stroke="midnightblue" d="M1188.91,-169.79C1341.69,-161.291 1672.69,-141.093 1785,-120 1794.41,-118.234 1804.28,-115.783 1813.75,-113.118"/>
<polygon fill="midnightblue" stroke="midnightblue" points="1188.46,-166.309 1178.67,-170.357 1188.85,-173.298 1188.46,-166.309"/>
</g>
<!-- Node59 -->
<g id="node31" class="node"><title>Node59</title>
<a xlink:href="_interpolated_8cc.html" target="_top" xlink:title="src/analysis/utils\l/uncertainties/Interpolated.cc">
<polygon fill="white" stroke="black" points="1953.5,-79 1953.5,-113 2096.5,-113 2096.5,-79 1953.5,-79"/>
<text text-anchor="start" x="1961.5" y="-100" font-family="Helvetica,sans-Serif" font-size="10.00">src/analysis/utils</text>
<text text-anchor="middle" x="2025" y="-87" font-family="Helvetica,sans-Serif" font-size="10.00">/uncertainties/Interpolated.cc</text>
</a>
</g>
<!-- Node44&#45;&gt;Node59 -->
<g id="edge30" class="edge"><title>Node44&#45;&gt;Node59</title>
<path fill="none" stroke="midnightblue" d="M1188.91,-171.183C1368.09,-164.416 1801.24,-145.865 1945,-120 1954.56,-118.28 1964.6,-115.816 1974.21,-113.116"/>
<polygon fill="midnightblue" stroke="midnightblue" points="1188.63,-167.691 1178.77,-171.564 1188.89,-174.686 1188.63,-167.691"/>
</g>
<!-- Node60 -->
<g id="node33" class="node"><title>Node60</title>
<a xlink:href="root-addons_2analysis__codes_2_interpolated_pulls_8cc.html" target="_top" xlink:title="src/root&#45;addons/analysis\l_codes/InterpolatedPulls.cc">
<polygon fill="white" stroke="black" points="2113.5,-79 2113.5,-113 2250.5,-113 2250.5,-79 2113.5,-79"/>
<text text-anchor="start" x="2121.5" y="-100" font-family="Helvetica,sans-Serif" font-size="10.00">src/root&#45;addons/analysis</text>
<text text-anchor="middle" x="2182" y="-87" font-family="Helvetica,sans-Serif" font-size="10.00">_codes/InterpolatedPulls.cc</text>
</a>
</g>
<!-- Node44&#45;&gt;Node60 -->
<g id="edge32" class="edge"><title>Node44&#45;&gt;Node60</title>
<path fill="none" stroke="midnightblue" d="M1188.85,-172.242C1391.99,-167.309 1929.6,-151.588 2105,-120 2114.37,-118.312 2124.2,-115.828 2133.57,-113.089"/>
<polygon fill="midnightblue" stroke="midnightblue" points="1188.47,-168.75 1178.56,-172.49 1188.64,-175.748 1188.47,-168.75"/>
</g>
<!-- Node57 -->
<g id="node27" class="node"><title>Node57</title>
<a xlink:href="analysis_2physics_2tunings_2_interpolated_pulls_8cc.html" target="_top" xlink:title="src/analysis/physics\l/tunings/InterpolatedPulls.cc">
<polygon fill="white" stroke="black" points="1639,-1 1639,-35 1779,-35 1779,-1 1639,-1"/>
<text text-anchor="start" x="1647" y="-22" font-family="Helvetica,sans-Serif" font-size="10.00">src/analysis/physics</text>
<text text-anchor="middle" x="1709" y="-9" font-family="Helvetica,sans-Serif" font-size="10.00">/tunings/InterpolatedPulls.cc</text>
</a>
</g>
<!-- Node56&#45;&gt;Node57 -->
<g id="edge26" class="edge"><title>Node56&#45;&gt;Node57</title>
<path fill="none" stroke="midnightblue" d="M1709,-68.6102C1709,-57.5188 1709,-45.0489 1709,-35.2623"/>
<polygon fill="midnightblue" stroke="midnightblue" points="1705.5,-68.6892 1709,-78.6893 1712.5,-68.6893 1705.5,-68.6892"/>
</g>
</g>
</svg>
