<?xml version="1.0" encoding="UTF-8" standalone="no"?>
<!DOCTYPE svg PUBLIC "-//W3C//DTD SVG 1.1//EN"
 "http://www.w3.org/Graphics/SVG/1.1/DTD/svg11.dtd">
<!-- Generated by graphviz version 2.26.3 (20100126.1600)
 -->
<!-- Title: src/analysis/utils/uncertainties/Interpolated.h Pages: 1 -->
<svg width="1875pt" height="594pt"
 viewBox="0.00 0.00 1875.05 594.00" xmlns="http://www.w3.org/2000/svg" xmlns:xlink="http://www.w3.org/1999/xlink">
<g id="graph1" class="graph" transform="scale(1 1) rotate(0) translate(4 590)">
<title>src/analysis/utils/uncertainties/Interpolated.h</title>
<polygon fill="white" stroke="white" points="-4,5 -4,-590 1872.05,-590 1872.05,5 -4,5"/>
<!-- Node0 -->
<g id="node1" class="node"><title>Node0</title>
<polygon fill="#bfbfbf" stroke="black" points="1033.5,-551 1033.5,-585 1170.5,-585 1170.5,-551 1033.5,-551"/>
<text text-anchor="start" x="1041.5" y="-572" font-family="Helvetica,sans-Serif" font-size="10.00">src/analysis/utils</text>
<text text-anchor="middle" x="1102" y="-559" font-family="Helvetica,sans-Serif" font-size="10.00">/uncertainties/Interpolated.h</text>
</g>
<!-- Node1 -->
<g id="node3" class="node"><title>Node1</title>
<a xlink:href="_uncertainties_8h.html" target="_top" xlink:title="analysis/utils/Uncertainties.h">
<polygon fill="white" stroke="black" points="553.5,-492.5 553.5,-513.5 696.5,-513.5 696.5,-492.5 553.5,-492.5"/>
<text text-anchor="middle" x="625" y="-500.5" font-family="Helvetica,sans-Serif" font-size="10.00">analysis/utils/Uncertainties.h</text>
</a>
</g>
<!-- Node0&#45;&gt;Node1 -->
<g id="edge2" class="edge"><title>Node0&#45;&gt;Node1</title>
<path fill="none" stroke="midnightblue" d="M1033.4,-558.652C947.054,-546.886 798.901,-526.697 706.761,-514.141"/>
<polygon fill="midnightblue" stroke="midnightblue" points="707.022,-510.645 696.641,-512.762 706.077,-517.581 707.022,-510.645"/>
</g>
<!-- Node42 -->
<g id="node122" class="node"><title>Node42</title>
<a xlink:href="_clipped_interpolator_wrapper_8h.html" target="_top" xlink:title="base/ClippedInterpolator\lWrapper.h">
<polygon fill="white" stroke="black" points="1392,-305 1392,-339 1514,-339 1514,-305 1392,-305"/>
<text text-anchor="start" x="1400" y="-326" font-family="Helvetica,sans-Serif" font-size="10.00">base/ClippedInterpolator</text>
<text text-anchor="middle" x="1453" y="-313" font-family="Helvetica,sans-Serif" font-size="10.00">Wrapper.h</text>
</a>
</g>
<!-- Node0&#45;&gt;Node42 -->
<g id="edge158" class="edge"><title>Node0&#45;&gt;Node42</title>
<path fill="none" stroke="midnightblue" d="M1135.11,-550.982C1188.67,-522.733 1296.53,-462.818 1378,-398 1397.39,-382.57 1416.99,-362.528 1431.28,-346.9"/>
<polygon fill="midnightblue" stroke="midnightblue" points="1434.15,-348.948 1438.24,-339.178 1428.95,-344.261 1434.15,-348.948"/>
</g>
<!-- Node2 -->
<g id="node5" class="node"><title>Node2</title>
<a xlink:href="_t_particle_8h.html" target="_top" xlink:title="tree/TParticle.h">
<polygon fill="white" stroke="black" points="583.5,-434.5 583.5,-455.5 666.5,-455.5 666.5,-434.5 583.5,-434.5"/>
<text text-anchor="middle" x="625" y="-442.5" font-family="Helvetica,sans-Serif" font-size="10.00">tree/TParticle.h</text>
</a>
</g>
<!-- Node1&#45;&gt;Node2 -->
<g id="edge4" class="edge"><title>Node1&#45;&gt;Node2</title>
<path fill="none" stroke="midnightblue" d="M625,-492.362C625,-484.922 625,-474.743 625,-465.728"/>
<polygon fill="midnightblue" stroke="midnightblue" points="628.5,-465.571 625,-455.571 621.5,-465.571 628.5,-465.571"/>
</g>
<!-- Node6 -->
<g id="node13" class="node"><title>Node6</title>
<a xlink:href="_detector__t_8h.html" target="_top" xlink:title="base/Detector_t.h">
<polygon fill="white" stroke="black" points="635.5,-174.5 635.5,-195.5 730.5,-195.5 730.5,-174.5 635.5,-174.5"/>
<text text-anchor="middle" x="683" y="-182.5" font-family="Helvetica,sans-Serif" font-size="10.00">base/Detector_t.h</text>
</a>
</g>
<!-- Node1&#45;&gt;Node6 -->
<g id="edge156" class="edge"><title>Node1&#45;&gt;Node6</title>
<path fill="none" stroke="midnightblue" d="M607.583,-492.225C595.953,-483.93 581.62,-471.309 575,-456 571.119,-447.025 573.013,-443.574 575,-434 593.792,-343.448 647.249,-245.387 671.173,-204.554"/>
<polygon fill="midnightblue" stroke="midnightblue" points="674.232,-206.257 676.324,-195.87 668.212,-202.685 674.232,-206.257"/>
</g>
<!-- Node3 -->
<g id="node7" class="node"><title>Node3</title>
<a xlink:href="_t_candidate_8h.html" target="_top" xlink:title="tree/TCandidate.h">
<polygon fill="white" stroke="black" points="748.5,-376.5 748.5,-397.5 843.5,-397.5 843.5,-376.5 748.5,-376.5"/>
<text text-anchor="middle" x="796" y="-384.5" font-family="Helvetica,sans-Serif" font-size="10.00">tree/TCandidate.h</text>
</a>
</g>
<!-- Node2&#45;&gt;Node3 -->
<g id="edge6" class="edge"><title>Node2&#45;&gt;Node3</title>
<path fill="none" stroke="midnightblue" d="M655.967,-434.497C683.844,-425.041 724.997,-411.083 755.482,-400.743"/>
<polygon fill="midnightblue" stroke="midnightblue" points="756.629,-404.05 764.975,-397.523 754.381,-397.421 756.629,-404.05"/>
</g>
<!-- Node15 -->
<g id="node33" class="node"><title>Node15</title>
<polygon fill="white" stroke="#bfbfbf" points="1104,-58.5 1104,-79.5 1148,-79.5 1148,-58.5 1104,-58.5"/>
<text text-anchor="middle" x="1126" y="-66.5" font-family="Helvetica,sans-Serif" font-size="10.00">vector</text>
</g>
<!-- Node2&#45;&gt;Node15 -->
<g id="edge148" class="edge"><title>Node2&#45;&gt;Node15</title>
<path fill="none" stroke="midnightblue" d="M622.031,-434.348C608.907,-384.747 561.702,-176.292 677,-116 749.665,-78.002 1003.51,-70.7205 1093.81,-69.3282"/>
<polygon fill="midnightblue" stroke="midnightblue" points="1094.04,-72.8254 1103.99,-69.1859 1093.94,-65.8261 1094.04,-72.8254"/>
</g>
<!-- Node23 -->
<g id="node53" class="node"><title>Node23</title>
<polygon fill="white" stroke="#bfbfbf" points="824,-174.5 824,-195.5 876,-195.5 876,-174.5 824,-174.5"/>
<text text-anchor="middle" x="850" y="-182.5" font-family="Helvetica,sans-Serif" font-size="10.00">memory</text>
</g>
<!-- Node2&#45;&gt;Node23 -->
<g id="edge154" class="edge"><title>Node2&#45;&gt;Node23</title>
<path fill="none" stroke="midnightblue" d="M634.099,-434.486C668.444,-394.798 790.47,-253.79 834.235,-203.217"/>
<polygon fill="midnightblue" stroke="midnightblue" points="836.891,-205.497 840.788,-195.645 831.597,-200.917 836.891,-205.497"/>
</g>
<!-- Node26 -->
<g id="node71" class="node"><title>Node26</title>
<a xlink:href="types_8h.html" target="_top" xlink:title="base/types.h">
<polygon fill="white" stroke="black" points="1673.5,-116.5 1673.5,-137.5 1746.5,-137.5 1746.5,-116.5 1673.5,-116.5"/>
<text text-anchor="middle" x="1710" y="-124.5" font-family="Helvetica,sans-Serif" font-size="10.00">base/types.h</text>
</a>
</g>
<!-- Node2&#45;&gt;Node26 -->
<g id="edge88" class="edge"><title>Node2&#45;&gt;Node26</title>
<path fill="none" stroke="midnightblue" d="M666.582,-442.514C822.562,-432.644 1364,-393.25 1364,-322 1364,-322 1364,-322 1364,-250 1364,-135.67 1606.41,-139.487 1662.95,-137.062"/>
<polygon fill="midnightblue" stroke="midnightblue" points="1663.53,-140.526 1673.21,-136.205 1662.95,-133.55 1663.53,-140.526"/>
</g>
<!-- Node27 -->
<g id="node73" class="node"><title>Node27</title>
<a xlink:href="_particle_type_8h.html" target="_top" xlink:title="base/ParticleType.h">
<polygon fill="white" stroke="black" points="1554,-239.5 1554,-260.5 1658,-260.5 1658,-239.5 1554,-239.5"/>
<text text-anchor="middle" x="1606" y="-247.5" font-family="Helvetica,sans-Serif" font-size="10.00">base/ParticleType.h</text>
</a>
</g>
<!-- Node2&#45;&gt;Node27 -->
<g id="edge90" class="edge"><title>Node2&#45;&gt;Node27</title>
<path fill="none" stroke="midnightblue" d="M666.664,-444.138C803.897,-441.028 1240.79,-428.888 1378,-398 1445.71,-382.757 1465.84,-379.373 1523,-340 1551.69,-320.239 1577.66,-288.89 1592.64,-268.892"/>
<polygon fill="midnightblue" stroke="midnightblue" points="1595.64,-270.722 1598.72,-260.585 1589.99,-266.589 1595.64,-270.722"/>
</g>
<!-- Node32 -->
<g id="node93" class="node"><title>Node32</title>
<a xlink:href="_tree_8h.html" target="_top" xlink:title="base/Tree.h">
<polygon fill="white" stroke="black" points="396,-239.5 396,-260.5 464,-260.5 464,-239.5 396,-239.5"/>
<text text-anchor="middle" x="430" y="-247.5" font-family="Helvetica,sans-Serif" font-size="10.00">base/Tree.h</text>
</a>
</g>
<!-- Node2&#45;&gt;Node32 -->
<g id="edge120" class="edge"><title>Node2&#45;&gt;Node32</title>
<path fill="none" stroke="midnightblue" d="M583.461,-436.177C545.478,-427.339 492.998,-412.936 478,-398 443.054,-363.2 433.54,-302.758 430.957,-270.951"/>
<polygon fill="midnightblue" stroke="midnightblue" points="434.427,-270.38 430.284,-260.629 427.442,-270.835 434.427,-270.38"/>
</g>
<!-- Node37 -->
<g id="node104" class="node"><title>Node37</title>
<polygon fill="white" stroke="#bfbfbf" points="551.5,-174.5 551.5,-195.5 580.5,-195.5 580.5,-174.5 551.5,-174.5"/>
<text text-anchor="middle" x="566" y="-182.5" font-family="Helvetica,sans-Serif" font-size="10.00">list</text>
</g>
<!-- Node2&#45;&gt;Node37 -->
<g id="edge150" class="edge"><title>Node2&#45;&gt;Node37</title>
<path fill="none" stroke="midnightblue" d="M606.619,-434.306C580.522,-417.901 533.909,-383.774 516,-340 497.824,-295.574 496.948,-276.057 516,-232 521.541,-219.186 532.487,-208.254 542.728,-200.168"/>
<polygon fill="midnightblue" stroke="midnightblue" points="545.046,-202.808 551.03,-194.065 540.9,-197.167 545.046,-202.808"/>
</g>
<!-- Node40 -->
<g id="node113" class="node"><title>Node40</title>
<a xlink:href="_lorentz_vec_8h.html" target="_top" xlink:title="base/vec/LorentzVec.h">
<polygon fill="white" stroke="black" points="175.5,-311.5 175.5,-332.5 292.5,-332.5 292.5,-311.5 175.5,-311.5"/>
<text text-anchor="middle" x="234" y="-319.5" font-family="Helvetica,sans-Serif" font-size="10.00">base/vec/LorentzVec.h</text>
</a>
</g>
<!-- Node2&#45;&gt;Node40 -->
<g id="edge144" class="edge"><title>Node2&#45;&gt;Node40</title>
<path fill="none" stroke="midnightblue" d="M583.418,-436.838C543.232,-428.538 480.843,-414.566 428,-398 370.492,-379.972 305.666,-353.218 267.406,-336.733"/>
<polygon fill="midnightblue" stroke="midnightblue" points="268.377,-333.339 257.81,-332.573 265.593,-339.762 268.377,-333.339"/>
</g>
<!-- Node41 -->
<g id="node118" class="node"><title>Node41</title>
<polygon fill="white" stroke="#bfbfbf" points="861,-376.5 861,-397.5 915,-397.5 915,-376.5 861,-376.5"/>
<text text-anchor="middle" x="888" y="-384.5" font-family="Helvetica,sans-Serif" font-size="10.00">iostream</text>
</g>
<!-- Node2&#45;&gt;Node41 -->
<g id="edge152" class="edge"><title>Node2&#45;&gt;Node41</title>
<path fill="none" stroke="midnightblue" d="M666.686,-437.565C710.366,-429.51 781.142,-415.713 851.088,-398.073"/>
<polygon fill="midnightblue" stroke="midnightblue" points="852.124,-401.421 860.949,-395.559 850.394,-394.638 852.124,-401.421"/>
</g>
<!-- Node4 -->
<g id="node9" class="node"><title>Node4</title>
<a xlink:href="_t_cluster_8h.html" target="_top" xlink:title="TCluster.h">
<polygon fill="white" stroke="black" points="921,-311.5 921,-332.5 983,-332.5 983,-311.5 921,-311.5"/>
<text text-anchor="middle" x="952" y="-319.5" font-family="Helvetica,sans-Serif" font-size="10.00">TCluster.h</text>
</a>
</g>
<!-- Node3&#45;&gt;Node4 -->
<g id="edge8" class="edge"><title>Node3&#45;&gt;Node4</title>
<path fill="none" stroke="midnightblue" d="M821.411,-376.412C847.474,-365.552 888.2,-348.583 917.238,-336.484"/>
<polygon fill="midnightblue" stroke="midnightblue" points="918.715,-339.66 926.6,-332.584 916.023,-333.199 918.715,-339.66"/>
</g>
<!-- Node3&#45;&gt;Node6 -->
<g id="edge76" class="edge"><title>Node3&#45;&gt;Node6</title>
<path fill="none" stroke="midnightblue" d="M748.409,-378.724C725.879,-372.187 700.914,-360.569 687,-340 659.342,-299.113 669.256,-237.269 677.106,-205.472"/>
<polygon fill="midnightblue" stroke="midnightblue" points="680.554,-206.125 679.732,-195.562 673.787,-204.332 680.554,-206.125"/>
</g>
<!-- Node3&#45;&gt;Node15 -->
<g id="edge78" class="edge"><title>Node3&#45;&gt;Node15</title>
<path fill="none" stroke="midnightblue" d="M843.616,-377.397C846.449,-376.904 849.26,-376.433 852,-376 984.205,-355.086 1033.94,-404.903 1151,-340 1240.94,-290.133 1264.56,-202.537 1209,-116 1197.24,-97.6917 1175.69,-85.7961 1157.5,-78.5533"/>
<polygon fill="midnightblue" stroke="midnightblue" points="1158.68,-75.2597 1148.09,-75.0889 1156.26,-81.8286 1158.68,-75.2597"/>
</g>
<!-- Node20 -->
<g id="node44" class="node"><title>Node20</title>
<polygon fill="white" stroke="#bfbfbf" points="1096,-174.5 1096,-195.5 1146,-195.5 1146,-174.5 1096,-174.5"/>
<text text-anchor="middle" x="1121" y="-182.5" font-family="Helvetica,sans-Serif" font-size="10.00">iomanip</text>
</g>
<!-- Node3&#45;&gt;Node20 -->
<g id="edge80" class="edge"><title>Node3&#45;&gt;Node20</title>
<path fill="none" stroke="midnightblue" d="M843.665,-377.622C883.69,-369.261 942.162,-355.904 992,-340 1073.69,-313.932 1122.99,-339.053 1171,-268 1179.96,-254.742 1177.35,-246.686 1171,-232 1165.88,-220.16 1156.15,-209.927 1146.62,-202.06"/>
<polygon fill="midnightblue" stroke="midnightblue" points="1148.48,-199.081 1138.42,-195.775 1144.22,-204.637 1148.48,-199.081"/>
</g>
<!-- Node21 -->
<g id="node46" class="node"><title>Node21</title>
<polygon fill="white" stroke="#bfbfbf" points="1148,-116.5 1148,-137.5 1200,-137.5 1200,-116.5 1148,-116.5"/>
<text text-anchor="middle" x="1174" y="-124.5" font-family="Helvetica,sans-Serif" font-size="10.00">sstream</text>
</g>
<!-- Node3&#45;&gt;Node21 -->
<g id="edge82" class="edge"><title>Node3&#45;&gt;Node21</title>
<path fill="none" stroke="midnightblue" d="M843.637,-377.524C846.465,-376.998 849.269,-376.487 852,-376 1006.01,-348.562 1102.4,-399.583 1187,-268 1209.75,-232.619 1207.84,-214.896 1198,-174 1195.69,-164.396 1191.07,-154.546 1186.49,-146.359"/>
<polygon fill="midnightblue" stroke="midnightblue" points="1189.41,-144.423 1181.28,-137.628 1183.4,-148.009 1189.41,-144.423"/>
</g>
<!-- Node3&#45;&gt;Node23 -->
<g id="edge84" class="edge"><title>Node3&#45;&gt;Node23</title>
<path fill="none" stroke="midnightblue" d="M798.827,-376.424C807.371,-344.462 833.036,-248.458 844.437,-205.808"/>
<polygon fill="midnightblue" stroke="midnightblue" points="847.868,-206.526 847.07,-195.961 841.106,-204.718 847.868,-206.526"/>
</g>
<!-- Node25 -->
<g id="node57" class="node"><title>Node25</title>
<polygon fill="white" stroke="#bfbfbf" points="851,-116.5 851,-137.5 907,-137.5 907,-116.5 851,-116.5"/>
<text text-anchor="middle" x="879" y="-124.5" font-family="Helvetica,sans-Serif" font-size="10.00">algorithm</text>
</g>
<!-- Node3&#45;&gt;Node25 -->
<g id="edge86" class="edge"><title>Node3&#45;&gt;Node25</title>
<path fill="none" stroke="midnightblue" d="M794.066,-376.363C788.687,-343.644 776.36,-242.569 815,-174 822.407,-160.857 835.176,-150.362 847.371,-142.652"/>
<polygon fill="midnightblue" stroke="midnightblue" points="849.223,-145.624 856.063,-137.533 845.67,-139.592 849.223,-145.624"/>
</g>
<!-- Node5 -->
<g id="node11" class="node"><title>Node5</title>
<a xlink:href="_t_detector_read_hit_8h.html" target="_top" xlink:title="tree/TDetectorReadHit.h">
<polygon fill="white" stroke="black" points="1022,-239.5 1022,-260.5 1146,-260.5 1146,-239.5 1022,-239.5"/>
<text text-anchor="middle" x="1084" y="-247.5" font-family="Helvetica,sans-Serif" font-size="10.00">tree/TDetectorReadHit.h</text>
</a>
</g>
<!-- Node4&#45;&gt;Node5 -->
<g id="edge10" class="edge"><title>Node4&#45;&gt;Node5</title>
<path fill="none" stroke="midnightblue" d="M971.477,-311.376C993.704,-299.252 1030.25,-279.316 1055.64,-265.468"/>
<polygon fill="midnightblue" stroke="midnightblue" points="1057.34,-268.529 1064.44,-260.667 1053.99,-262.383 1057.34,-268.529"/>
</g>
<!-- Node4&#45;&gt;Node6 -->
<g id="edge50" class="edge"><title>Node4&#45;&gt;Node6</title>
<path fill="none" stroke="midnightblue" d="M920.785,-320.36C877.617,-316.741 798.823,-305.146 744,-268 720.425,-252.027 702.576,-223.81 692.452,-204.762"/>
<polygon fill="midnightblue" stroke="midnightblue" points="695.523,-203.08 687.872,-195.751 689.282,-206.251 695.523,-203.08"/>
</g>
<!-- Node9 -->
<g id="node19" class="node"><title>Node9</title>
<a xlink:href="vec3_8h.html" target="_top" xlink:title="base/vec/vec3.h">
<polygon fill="white" stroke="black" points="331.5,-116.5 331.5,-137.5 420.5,-137.5 420.5,-116.5 331.5,-116.5"/>
<text text-anchor="middle" x="376" y="-124.5" font-family="Helvetica,sans-Serif" font-size="10.00">base/vec/vec3.h</text>
</a>
</g>
<!-- Node4&#45;&gt;Node9 -->
<g id="edge64" class="edge"><title>Node4&#45;&gt;Node9</title>
<path fill="none" stroke="midnightblue" d="M920.769,-320.01C817.896,-313.3 490.351,-290.652 387,-268 292.262,-247.236 237.138,-275.089 181,-196 175.34,-188.027 174.95,-181.681 181,-174 198.221,-152.136 269.96,-139.251 321.422,-132.657"/>
<polygon fill="midnightblue" stroke="midnightblue" points="321.927,-136.122 331.422,-131.422 321.068,-129.175 321.927,-136.122"/>
</g>
<!-- Node11 -->
<g id="node23" class="node"><title>Node11</title>
<polygon fill="white" stroke="#bfbfbf" points="1477,-0.5 1477,-21.5 1521,-21.5 1521,-0.5 1477,-0.5"/>
<text text-anchor="middle" x="1499" y="-8.5" font-family="Helvetica,sans-Serif" font-size="10.00">cmath</text>
</g>
<!-- Node4&#45;&gt;Node11 -->
<g id="edge68" class="edge"><title>Node4&#45;&gt;Node11</title>
<path fill="none" stroke="midnightblue" d="M983.034,-320.478C1121.46,-313.603 1677.22,-285.039 1710,-268 1805.58,-218.31 1826.92,-181.506 1863,-80 1866.28,-70.787 1869.46,-65.3433 1863,-58 1841.21,-33.2186 1616.37,-17.7691 1531.34,-12.7745"/>
<polygon fill="midnightblue" stroke="midnightblue" points="1531.4,-9.27275 1521.22,-12.1911 1531,-16.2611 1531.4,-9.27275"/>
</g>
<!-- Node13 -->
<g id="node28" class="node"><title>Node13</title>
<a xlink:href="base_2std__ext_2math_8h.html" target="_top" xlink:title="base/std_ext/math.h">
<polygon fill="white" stroke="black" points="1446,-116.5 1446,-137.5 1552,-137.5 1552,-116.5 1446,-116.5"/>
<text text-anchor="middle" x="1499" y="-124.5" font-family="Helvetica,sans-Serif" font-size="10.00">base/std_ext/math.h</text>
</a>
</g>
<!-- Node4&#45;&gt;Node13 -->
<g id="edge52" class="edge"><title>Node4&#45;&gt;Node13</title>
<path fill="none" stroke="midnightblue" d="M983.116,-320.812C1112.39,-315.721 1603.31,-294.775 1667,-268 1711.71,-249.204 1729,-240.182 1749,-196 1753.03,-187.093 1755.24,-181.526 1749,-174 1737.11,-159.664 1632.32,-143.812 1562.24,-134.668"/>
<polygon fill="midnightblue" stroke="midnightblue" points="1562.53,-131.176 1552.16,-133.368 1561.63,-138.119 1562.53,-131.176"/>
</g>
<!-- Node4&#45;&gt;Node15 -->
<g id="edge66" class="edge"><title>Node4&#45;&gt;Node15</title>
<path fill="none" stroke="midnightblue" d="M920.941,-313.426C896.783,-305.312 863.952,-290.907 843,-268 797.404,-218.15 788.201,-156.861 842,-116 881.114,-86.2929 1027.59,-74.4967 1093.5,-70.6203"/>
<polygon fill="midnightblue" stroke="midnightblue" points="1093.94,-74.1012 1103.73,-70.0448 1093.55,-67.1122 1093.94,-74.1012"/>
</g>
<!-- Node4&#45;&gt;Node20 -->
<g id="edge70" class="edge"><title>Node4&#45;&gt;Node20</title>
<path fill="none" stroke="midnightblue" d="M983.349,-318.292C1034.95,-311.473 1134.16,-295.105 1155,-268 1170.01,-248.479 1153.5,-221.407 1138.69,-203.56"/>
<polygon fill="midnightblue" stroke="midnightblue" points="1140.93,-200.809 1131.7,-195.613 1135.68,-205.433 1140.93,-200.809"/>
</g>
<!-- Node4&#45;&gt;Node21 -->
<g id="edge72" class="edge"><title>Node4&#45;&gt;Node21</title>
<path fill="none" stroke="midnightblue" d="M983.095,-318.922C1037.8,-312.802 1147.69,-297.116 1171,-268 1198.67,-233.444 1188.75,-177.371 1180.54,-147.408"/>
<polygon fill="midnightblue" stroke="midnightblue" points="1183.84,-146.243 1177.66,-137.639 1177.13,-148.221 1183.84,-146.243"/>
</g>
<!-- Node22 -->
<g id="node50" class="node"><title>Node22</title>
<a xlink:href="shared__ptr__container_8h.html" target="_top" xlink:title="base/std_ext/shared\l_ptr_container.h">
<polygon fill="white" stroke="black" points="899.5,-233 899.5,-267 1004.5,-267 1004.5,-233 899.5,-233"/>
<text text-anchor="start" x="907.5" y="-254" font-family="Helvetica,sans-Serif" font-size="10.00">base/std_ext/shared</text>
<text text-anchor="middle" x="952" y="-241" font-family="Helvetica,sans-Serif" font-size="10.00">_ptr_container.h</text>
</a>
</g>
<!-- Node4&#45;&gt;Node22 -->
<g id="edge54" class="edge"><title>Node4&#45;&gt;Node22</title>
<path fill="none" stroke="midnightblue" d="M952,-311.376C952,-302.451 952,-289.293 952,-277.446"/>
<polygon fill="midnightblue" stroke="midnightblue" points="955.5,-277.094 952,-267.094 948.5,-277.094 955.5,-277.094"/>
</g>
<!-- Node4&#45;&gt;Node23 -->
<g id="edge74" class="edge"><title>Node4&#45;&gt;Node23</title>
<path fill="none" stroke="midnightblue" d="M920.842,-312.601C899.436,-304.419 872.381,-290.302 858,-268 846.046,-249.461 845.488,-223.586 846.995,-205.676"/>
<polygon fill="midnightblue" stroke="midnightblue" points="850.479,-206.019 848.117,-195.691 843.522,-205.238 850.479,-206.019"/>
</g>
<!-- Node5&#45;&gt;Node6 -->
<g id="edge12" class="edge"><title>Node5&#45;&gt;Node6</title>
<path fill="none" stroke="midnightblue" d="M1045.48,-239.437C1034.99,-236.781 1023.6,-234.093 1013,-232 918.286,-213.305 806.876,-199.016 740.752,-191.33"/>
<polygon fill="midnightblue" stroke="midnightblue" points="740.873,-187.821 730.538,-190.154 740.072,-194.775 740.873,-187.821"/>
</g>
<!-- Node5&#45;&gt;Node20 -->
<g id="edge46" class="edge"><title>Node5&#45;&gt;Node20</title>
<path fill="none" stroke="midnightblue" d="M1090.11,-239.267C1095.5,-229.801 1103.48,-215.777 1109.98,-204.357"/>
<polygon fill="midnightblue" stroke="midnightblue" points="1113.1,-205.956 1115,-195.534 1107.02,-202.493 1113.1,-205.956"/>
</g>
<!-- Node5&#45;&gt;Node21 -->
<g id="edge48" class="edge"><title>Node5&#45;&gt;Node21</title>
<path fill="none" stroke="midnightblue" d="M1081.37,-239.475C1078.09,-223.876 1074.36,-194.282 1087,-174 1098.45,-155.64 1119.71,-143.966 1138.35,-136.845"/>
<polygon fill="midnightblue" stroke="midnightblue" points="1139.52,-140.144 1147.79,-133.525 1137.19,-133.54 1139.52,-140.144"/>
</g>
<!-- Node7 -->
<g id="node15" class="node"><title>Node7</title>
<a xlink:href="bitflag_8h.html" target="_top" xlink:title="base/bitflag.h">
<polygon fill="white" stroke="black" points="555.5,-116.5 555.5,-137.5 630.5,-137.5 630.5,-116.5 555.5,-116.5"/>
<text text-anchor="middle" x="593" y="-124.5" font-family="Helvetica,sans-Serif" font-size="10.00">base/bitflag.h</text>
</a>
</g>
<!-- Node6&#45;&gt;Node7 -->
<g id="edge14" class="edge"><title>Node6&#45;&gt;Node7</title>
<path fill="none" stroke="midnightblue" d="M666.493,-174.362C652.918,-165.614 633.467,-153.079 617.985,-143.101"/>
<polygon fill="midnightblue" stroke="midnightblue" points="619.704,-140.046 609.403,-137.571 615.912,-145.93 619.704,-140.046"/>
</g>
<!-- Node6&#45;&gt;Node9 -->
<g id="edge18" class="edge"><title>Node6&#45;&gt;Node9</title>
<path fill="none" stroke="midnightblue" d="M635.368,-176.001C580.078,-165.555 489.058,-148.36 430.859,-137.364"/>
<polygon fill="midnightblue" stroke="midnightblue" points="431.222,-133.871 420.746,-135.454 429.922,-140.749 431.222,-133.871"/>
</g>
<!-- Node6&#45;&gt;Node13 -->
<g id="edge28" class="edge"><title>Node6&#45;&gt;Node13</title>
<path fill="none" stroke="midnightblue" d="M730.637,-180.781C755.728,-178.621 787.018,-176.028 815,-174 1074.37,-155.201 1139.9,-160.223 1399,-138 1410.9,-136.98 1423.57,-135.72 1435.76,-134.421"/>
<polygon fill="midnightblue" stroke="midnightblue" points="1436.29,-137.884 1445.85,-133.326 1435.53,-130.925 1436.29,-137.884"/>
</g>
<!-- Node6&#45;&gt;Node15 -->
<g id="edge44" class="edge"><title>Node6&#45;&gt;Node15</title>
<path fill="none" stroke="midnightblue" d="M694.692,-174.263C712.497,-158.594 748.136,-129.826 784,-116 840.365,-94.2706 1020.03,-77.6193 1093.85,-71.5225"/>
<polygon fill="midnightblue" stroke="midnightblue" points="1094.27,-75.0004 1103.95,-70.7001 1093.7,-68.0235 1094.27,-75.0004"/>
</g>
<!-- Node16 -->
<g id="node35" class="node"><title>Node16</title>
<polygon fill="white" stroke="#bfbfbf" points="686,-116.5 686,-137.5 732,-137.5 732,-116.5 686,-116.5"/>
<text text-anchor="middle" x="709" y="-124.5" font-family="Helvetica,sans-Serif" font-size="10.00">cstdint</text>
</g>
<!-- Node6&#45;&gt;Node16 -->
<g id="edge36" class="edge"><title>Node6&#45;&gt;Node16</title>
<path fill="none" stroke="midnightblue" d="M687.769,-174.362C691.214,-166.677 695.969,-156.069 700.106,-146.84"/>
<polygon fill="midnightblue" stroke="midnightblue" points="703.365,-148.127 704.261,-137.571 696.977,-145.264 703.365,-148.127"/>
</g>
<!-- Node17 -->
<g id="node37" class="node"><title>Node17</title>
<polygon fill="white" stroke="#bfbfbf" points="1331.5,-116.5 1331.5,-137.5 1390.5,-137.5 1390.5,-116.5 1331.5,-116.5"/>
<text text-anchor="middle" x="1361" y="-124.5" font-family="Helvetica,sans-Serif" font-size="10.00">stdexcept</text>
</g>
<!-- Node6&#45;&gt;Node17 -->
<g id="edge38" class="edge"><title>Node6&#45;&gt;Node17</title>
<path fill="none" stroke="midnightblue" d="M730.676,-180.922C857.952,-170.034 1204.02,-140.429 1321.42,-130.386"/>
<polygon fill="midnightblue" stroke="midnightblue" points="1321.75,-133.87 1331.42,-129.531 1321.15,-126.896 1321.75,-133.87"/>
</g>
<!-- Node18 -->
<g id="node39" class="node"><title>Node18</title>
<polygon fill="white" stroke="#bfbfbf" points="952.5,-116.5 952.5,-137.5 993.5,-137.5 993.5,-116.5 952.5,-116.5"/>
<text text-anchor="middle" x="973" y="-124.5" font-family="Helvetica,sans-Serif" font-size="10.00">string</text>
</g>
<!-- Node6&#45;&gt;Node18 -->
<g id="edge40" class="edge"><title>Node6&#45;&gt;Node18</title>
<path fill="none" stroke="midnightblue" d="M730.563,-175.487C790.57,-163.486 892.014,-143.197 942.527,-133.095"/>
<polygon fill="midnightblue" stroke="midnightblue" points="943.38,-136.493 952.499,-131.1 942.007,-129.629 943.38,-136.493"/>
</g>
<!-- Node19 -->
<g id="node41" class="node"><title>Node19</title>
<polygon fill="white" stroke="#bfbfbf" points="476,-116.5 476,-137.5 538,-137.5 538,-116.5 476,-116.5"/>
<text text-anchor="middle" x="507" y="-124.5" font-family="Helvetica,sans-Serif" font-size="10.00">type_traits</text>
</g>
<!-- Node6&#45;&gt;Node19 -->
<g id="edge42" class="edge"><title>Node6&#45;&gt;Node19</title>
<path fill="none" stroke="midnightblue" d="M651.128,-174.497C622.167,-164.953 579.286,-150.822 547.825,-140.454"/>
<polygon fill="midnightblue" stroke="midnightblue" points="548.637,-137.036 538.044,-137.231 546.446,-143.685 548.637,-137.036"/>
</g>
<!-- Node8 -->
<g id="node17" class="node"><title>Node8</title>
<polygon fill="white" stroke="#bfbfbf" points="572.5,-58.5 572.5,-79.5 613.5,-79.5 613.5,-58.5 572.5,-58.5"/>
<text text-anchor="middle" x="593" y="-66.5" font-family="Helvetica,sans-Serif" font-size="10.00">bitset</text>
</g>
<!-- Node7&#45;&gt;Node8 -->
<g id="edge16" class="edge"><title>Node7&#45;&gt;Node8</title>
<path fill="none" stroke="midnightblue" d="M593,-116.362C593,-108.922 593,-98.7427 593,-89.7276"/>
<polygon fill="midnightblue" stroke="midnightblue" points="596.5,-89.5706 593,-79.5707 589.5,-89.5707 596.5,-89.5706"/>
</g>
<!-- Node10 -->
<g id="node21" class="node"><title>Node10</title>
<a xlink:href="vec2_8h.html" target="_top" xlink:title="vec2.h">
<polygon fill="white" stroke="black" points="457,-58.5 457,-79.5 503,-79.5 503,-58.5 457,-58.5"/>
<text text-anchor="middle" x="480" y="-66.5" font-family="Helvetica,sans-Serif" font-size="10.00">vec2.h</text>
</a>
</g>
<!-- Node9&#45;&gt;Node10 -->
<g id="edge20" class="edge"><title>Node9&#45;&gt;Node10</title>
<path fill="none" stroke="midnightblue" d="M395.075,-116.362C411.055,-107.45 434.081,-94.6087 452.127,-84.5447"/>
<polygon fill="midnightblue" stroke="midnightblue" points="454.017,-87.4982 461.046,-79.5707 450.607,-81.3846 454.017,-87.4982"/>
</g>
<!-- Node9&#45;&gt;Node11 -->
<g id="edge26" class="edge"><title>Node9&#45;&gt;Node11</title>
<path fill="none" stroke="midnightblue" d="M383.119,-116.409C394.596,-100.369 418.872,-70.4666 448,-58 543.606,-17.0808 1300.94,-11.7697 1466.92,-11.0958"/>
<polygon fill="midnightblue" stroke="midnightblue" points="1467,-14.5957 1476.99,-11.0578 1466.97,-7.59571 1467,-14.5957"/>
</g>
<!-- Node12 -->
<g id="node25" class="node"><title>Node12</title>
<polygon fill="white" stroke="#bfbfbf" points="1802,-58.5 1802,-79.5 1854,-79.5 1854,-58.5 1802,-58.5"/>
<text text-anchor="middle" x="1828" y="-66.5" font-family="Helvetica,sans-Serif" font-size="10.00">ostream</text>
</g>
<!-- Node9&#45;&gt;Node12 -->
<g id="edge24" class="edge"><title>Node9&#45;&gt;Node12</title>
<path fill="none" stroke="midnightblue" d="M420.819,-120.785C435.508,-118.961 451.926,-117.15 467,-116 965.806,-77.9462 1092.13,-99.6464 1592,-80 1662.72,-77.2204 1745.33,-73.1901 1791.67,-70.8582"/>
<polygon fill="midnightblue" stroke="midnightblue" points="1792,-74.3458 1801.81,-70.3455 1791.65,-67.3547 1792,-74.3458"/>
</g>
<!-- Node10&#45;&gt;Node11 -->
<g id="edge22" class="edge"><title>Node10&#45;&gt;Node11</title>
<path fill="none" stroke="midnightblue" d="M503.12,-65.4661C519.962,-63.0156 543.346,-59.8684 564,-58 916.79,-26.0853 1346.57,-14.4463 1466.55,-11.6912"/>
<polygon fill="midnightblue" stroke="midnightblue" points="1466.95,-15.1832 1476.87,-11.4588 1466.79,-8.18498 1466.95,-15.1832"/>
</g>
<!-- Node13&#45;&gt;Node11 -->
<g id="edge30" class="edge"><title>Node13&#45;&gt;Node11</title>
<path fill="none" stroke="midnightblue" d="M1499,-116.295C1499,-97.1314 1499,-56.654 1499,-31.8434"/>
<polygon fill="midnightblue" stroke="midnightblue" points="1502.5,-31.6792 1499,-21.6792 1495.5,-31.6792 1502.5,-31.6792"/>
</g>
<!-- Node14 -->
<g id="node31" class="node"><title>Node14</title>
<polygon fill="white" stroke="#bfbfbf" points="1543,-58.5 1543,-79.5 1583,-79.5 1583,-58.5 1543,-58.5"/>
<text text-anchor="middle" x="1563" y="-66.5" font-family="Helvetica,sans-Serif" font-size="10.00">limits</text>
</g>
<!-- Node13&#45;&gt;Node14 -->
<g id="edge32" class="edge"><title>Node13&#45;&gt;Node14</title>
<path fill="none" stroke="midnightblue" d="M1510.74,-116.362C1519.94,-108.023 1532.94,-96.2418 1543.67,-86.5162"/>
<polygon fill="midnightblue" stroke="midnightblue" points="1546.28,-88.8793 1551.34,-79.5707 1541.58,-83.6924 1546.28,-88.8793"/>
</g>
<!-- Node13&#45;&gt;Node15 -->
<g id="edge34" class="edge"><title>Node13&#45;&gt;Node15</title>
<path fill="none" stroke="midnightblue" d="M1445.98,-118.243C1441.25,-117.478 1436.54,-116.721 1432,-116 1332.26,-100.154 1214.09,-82.2501 1158.28,-73.8453"/>
<polygon fill="midnightblue" stroke="midnightblue" points="1158.69,-70.3685 1148.28,-72.3417 1157.65,-77.2906 1158.69,-70.3685"/>
</g>
<!-- Node22&#45;&gt;Node15 -->
<g id="edge56" class="edge"><title>Node22&#45;&gt;Node15</title>
<path fill="none" stroke="midnightblue" d="M968.369,-232.972C1001.11,-198.917 1074.4,-122.671 1108.25,-87.4648"/>
<polygon fill="midnightblue" stroke="midnightblue" points="1111.18,-89.4664 1115.59,-79.8317 1106.13,-84.6152 1111.18,-89.4664"/>
</g>
<!-- Node22&#45;&gt;Node23 -->
<g id="edge58" class="edge"><title>Node22&#45;&gt;Node23</title>
<path fill="none" stroke="midnightblue" d="M925.201,-232.922C909.852,-223.141 890.697,-210.934 875.561,-201.289"/>
<polygon fill="midnightblue" stroke="midnightblue" points="877.04,-198.081 866.725,-195.658 873.278,-203.984 877.04,-198.081"/>
</g>
<!-- Node24 -->
<g id="node55" class="node"><title>Node24</title>
<polygon fill="white" stroke="#bfbfbf" points="931.5,-174.5 931.5,-195.5 990.5,-195.5 990.5,-174.5 931.5,-174.5"/>
<text text-anchor="middle" x="961" y="-182.5" font-family="Helvetica,sans-Serif" font-size="10.00">functional</text>
</g>
<!-- Node22&#45;&gt;Node24 -->
<g id="edge60" class="edge"><title>Node22&#45;&gt;Node24</title>
<path fill="none" stroke="midnightblue" d="M954.365,-232.922C955.507,-224.67 956.889,-214.692 958.095,-205.982"/>
<polygon fill="midnightblue" stroke="midnightblue" points="961.593,-206.238 959.497,-195.852 954.659,-205.278 961.593,-206.238"/>
</g>
<!-- Node22&#45;&gt;Node25 -->
<g id="edge62" class="edge"><title>Node22&#45;&gt;Node25</title>
<path fill="none" stroke="midnightblue" d="M941.85,-232.897C928.421,-210.271 904.803,-170.477 890.658,-146.643"/>
<polygon fill="midnightblue" stroke="midnightblue" points="893.516,-144.601 885.402,-137.787 887.496,-148.173 893.516,-144.601"/>
</g>
<!-- Node27&#45;&gt;Node12 -->
<g id="edge112" class="edge"><title>Node27&#45;&gt;Node12</title>
<path fill="none" stroke="midnightblue" d="M1656.79,-239.454C1686.16,-231.377 1722.44,-217.814 1749,-196 1784.58,-166.77 1808.78,-117.09 1820.29,-89.3219"/>
<polygon fill="midnightblue" stroke="midnightblue" points="1823.61,-90.4254 1824.07,-79.8405 1817.11,-87.8289 1823.61,-90.4254"/>
</g>
<!-- Node27&#45;&gt;Node15 -->
<g id="edge118" class="edge"><title>Node27&#45;&gt;Node15</title>
<path fill="none" stroke="midnightblue" d="M1602.03,-239.466C1595.3,-223.028 1580.09,-191.362 1557,-174 1512.5,-140.533 1488.11,-160.099 1437,-138 1419.09,-130.255 1417.35,-122.648 1399,-116 1315.45,-85.7263 1210.29,-74.6692 1158.24,-70.8599"/>
<polygon fill="midnightblue" stroke="midnightblue" points="1158.48,-67.3682 1148.26,-70.1719 1158,-74.3516 1158.48,-67.3682"/>
</g>
<!-- Node27&#45;&gt;Node18 -->
<g id="edge110" class="edge"><title>Node27&#45;&gt;Node18</title>
<path fill="none" stroke="midnightblue" d="M1567.43,-239.422C1557.55,-236.853 1546.91,-234.212 1537,-232 1334.71,-186.845 1088.62,-145.719 1003.6,-131.91"/>
<polygon fill="midnightblue" stroke="midnightblue" points="1004.02,-128.433 993.594,-130.29 1002.91,-135.343 1004.02,-128.433"/>
</g>
<!-- Node27&#45;&gt;Node26 -->
<g id="edge92" class="edge"><title>Node27&#45;&gt;Node26</title>
<path fill="none" stroke="midnightblue" d="M1607.48,-239.319C1610.14,-223.52 1617.02,-193.674 1633,-174 1643.93,-160.536 1659.82,-149.926 1674.32,-142.22"/>
<polygon fill="midnightblue" stroke="midnightblue" points="1676.22,-145.185 1683.59,-137.574 1673.08,-138.927 1676.22,-145.185"/>
</g>
<!-- Node28 -->
<g id="node76" class="node"><title>Node28</title>
<a xlink:href="interval_8h.html" target="_top" xlink:title="base/interval.h">
<polygon fill="white" stroke="black" points="1468,-174.5 1468,-195.5 1548,-195.5 1548,-174.5 1468,-174.5"/>
<text text-anchor="middle" x="1508" y="-182.5" font-family="Helvetica,sans-Serif" font-size="10.00">base/interval.h</text>
</a>
</g>
<!-- Node27&#45;&gt;Node28 -->
<g id="edge94" class="edge"><title>Node27&#45;&gt;Node28</title>
<path fill="none" stroke="midnightblue" d="M1589.82,-239.267C1574.26,-228.949 1550.54,-213.216 1532.64,-201.342"/>
<polygon fill="midnightblue" stroke="midnightblue" points="1534.15,-198.144 1523.88,-195.534 1530.28,-203.978 1534.15,-198.144"/>
</g>
<!-- Node30 -->
<g id="node88" class="node"><title>Node30</title>
<polygon fill="white" stroke="#bfbfbf" points="1641.5,-174.5 1641.5,-195.5 1676.5,-195.5 1676.5,-174.5 1641.5,-174.5"/>
<text text-anchor="middle" x="1659" y="-182.5" font-family="Helvetica,sans-Serif" font-size="10.00">map</text>
</g>
<!-- Node27&#45;&gt;Node30 -->
<g id="edge114" class="edge"><title>Node27&#45;&gt;Node30</title>
<path fill="none" stroke="midnightblue" d="M1614.75,-239.267C1622.7,-229.517 1634.59,-214.932 1644.05,-203.336"/>
<polygon fill="midnightblue" stroke="midnightblue" points="1646.8,-205.496 1650.41,-195.534 1641.38,-201.072 1646.8,-205.496"/>
</g>
<!-- Node31 -->
<g id="node90" class="node"><title>Node31</title>
<polygon fill="white" stroke="#bfbfbf" points="1693.5,-174.5 1693.5,-195.5 1740.5,-195.5 1740.5,-174.5 1693.5,-174.5"/>
<text text-anchor="middle" x="1717" y="-182.5" font-family="Helvetica,sans-Serif" font-size="10.00">iterator</text>
</g>
<!-- Node27&#45;&gt;Node31 -->
<g id="edge116" class="edge"><title>Node27&#45;&gt;Node31</title>
<path fill="none" stroke="midnightblue" d="M1624.33,-239.267C1642.27,-228.76 1669.8,-212.637 1690.2,-200.692"/>
<polygon fill="midnightblue" stroke="midnightblue" points="1692.15,-203.607 1699.01,-195.534 1688.61,-197.567 1692.15,-203.607"/>
</g>
<!-- Node28&#45;&gt;Node11 -->
<g id="edge108" class="edge"><title>Node28&#45;&gt;Node11</title>
<path fill="none" stroke="midnightblue" d="M1548.26,-180.159C1614.84,-171.744 1741.92,-153.805 1755,-138 1820.38,-59.0026 1613.31,-24.7803 1531.11,-14.5277"/>
<polygon fill="midnightblue" stroke="midnightblue" points="1531.4,-11.0376 1521.06,-13.3159 1530.57,-17.9873 1531.4,-11.0376"/>
</g>
<!-- Node28&#45;&gt;Node14 -->
<g id="edge102" class="edge"><title>Node28&#45;&gt;Node14</title>
<path fill="none" stroke="midnightblue" d="M1526.29,-174.403C1538.54,-166.192 1553.71,-153.598 1561,-138 1567.97,-123.093 1568.04,-104.329 1566.6,-90.133"/>
<polygon fill="midnightblue" stroke="midnightblue" points="1570.03,-89.3366 1565.23,-79.8881 1563.09,-90.2636 1570.03,-89.3366"/>
</g>
<!-- Node28&#45;&gt;Node17 -->
<g id="edge100" class="edge"><title>Node28&#45;&gt;Node17</title>
<path fill="none" stroke="midnightblue" d="M1481.38,-174.497C1457.9,-165.234 1423.47,-151.65 1397.44,-141.379"/>
<polygon fill="midnightblue" stroke="midnightblue" points="1398.51,-138.036 1387.92,-137.621 1395.94,-144.547 1398.51,-138.036"/>
</g>
<!-- Node28&#45;&gt;Node21 -->
<g id="edge106" class="edge"><title>Node28&#45;&gt;Node21</title>
<path fill="none" stroke="midnightblue" d="M1467.71,-178.004C1402.11,-166.611 1273.21,-144.228 1210.28,-133.301"/>
<polygon fill="midnightblue" stroke="midnightblue" points="1210.5,-129.787 1200.05,-131.524 1209.31,-136.683 1210.5,-129.787"/>
</g>
<!-- Node28&#45;&gt;Node25 -->
<g id="edge98" class="edge"><title>Node28&#45;&gt;Node25</title>
<path fill="none" stroke="midnightblue" d="M1467.87,-182.824C1375.3,-177.55 1139.7,-162.669 944,-138 935.267,-136.899 925.915,-135.467 917.104,-134.002"/>
<polygon fill="midnightblue" stroke="midnightblue" points="917.526,-130.523 907.078,-132.285 916.344,-137.423 917.526,-130.523"/>
</g>
<!-- Node28&#45;&gt;Node26 -->
<g id="edge96" class="edge"><title>Node28&#45;&gt;Node26</title>
<path fill="none" stroke="midnightblue" d="M1544.58,-174.497C1577.94,-164.918 1627.39,-150.72 1663.53,-140.342"/>
<polygon fill="midnightblue" stroke="midnightblue" points="1664.71,-143.647 1673.35,-137.523 1662.77,-136.919 1664.71,-143.647"/>
</g>
<!-- Node29 -->
<g id="node82" class="node"><title>Node29</title>
<polygon fill="white" stroke="#bfbfbf" points="1607.5,-116.5 1607.5,-137.5 1656.5,-137.5 1656.5,-116.5 1607.5,-116.5"/>
<text text-anchor="middle" x="1632" y="-124.5" font-family="Helvetica,sans-Serif" font-size="10.00">istream</text>
</g>
<!-- Node28&#45;&gt;Node29 -->
<g id="edge104" class="edge"><title>Node28&#45;&gt;Node29</title>
<path fill="none" stroke="midnightblue" d="M1530.46,-174.497C1549.91,-165.397 1578.28,-152.127 1600.09,-141.925"/>
<polygon fill="midnightblue" stroke="midnightblue" points="1601.72,-145.028 1609.29,-137.621 1598.75,-138.688 1601.72,-145.028"/>
</g>
<!-- Node32&#45;&gt;Node15 -->
<g id="edge134" class="edge"><title>Node32&#45;&gt;Node15</title>
<path fill="none" stroke="midnightblue" d="M429.228,-239.14C428.041,-213.114 429.099,-147.046 467,-116 515.822,-76.009 967.765,-70.0416 1093.61,-69.1543"/>
<polygon fill="midnightblue" stroke="midnightblue" points="1093.79,-72.6533 1103.77,-69.0889 1093.74,-65.6535 1093.79,-72.6533"/>
</g>
<!-- Node32&#45;&gt;Node19 -->
<g id="edge142" class="edge"><title>Node32&#45;&gt;Node19</title>
<path fill="none" stroke="midnightblue" d="M436.833,-239.085C449.88,-218.244 478.493,-172.537 494.865,-146.384"/>
<polygon fill="midnightblue" stroke="midnightblue" points="497.952,-148.049 500.292,-137.715 492.019,-144.334 497.952,-148.049"/>
</g>
<!-- Node32&#45;&gt;Node23 -->
<g id="edge130" class="edge"><title>Node32&#45;&gt;Node23</title>
<path fill="none" stroke="midnightblue" d="M464.015,-244.736C542.044,-232.66 733.356,-203.052 813.62,-190.63"/>
<polygon fill="midnightblue" stroke="midnightblue" points="814.392,-194.052 823.739,-189.064 813.322,-187.135 814.392,-194.052"/>
</g>
<!-- Node32&#45;&gt;Node25 -->
<g id="edge136" class="edge"><title>Node32&#45;&gt;Node25</title>
<path fill="none" stroke="midnightblue" d="M441.828,-239.313C461.329,-222.362 502.151,-189.634 543,-174 596.787,-153.414 764.459,-136.854 840.643,-130.181"/>
<polygon fill="midnightblue" stroke="midnightblue" points="841.103,-133.654 850.764,-129.305 840.5,-126.68 841.103,-133.654"/>
</g>
<!-- Node33 -->
<g id="node95" class="node"><title>Node33</title>
<polygon fill="white" stroke="#bfbfbf" points="190,-174.5 190,-195.5 286,-195.5 286,-174.5 190,-174.5"/>
<text text-anchor="middle" x="238" y="-182.5" font-family="Helvetica,sans-Serif" font-size="10.00">cereal/access.hpp</text>
</g>
<!-- Node32&#45;&gt;Node33 -->
<g id="edge122" class="edge"><title>Node32&#45;&gt;Node33</title>
<path fill="none" stroke="midnightblue" d="M398.725,-239.412C366.089,-228.364 314.774,-210.991 278.933,-198.857"/>
<polygon fill="midnightblue" stroke="midnightblue" points="279.856,-195.475 269.262,-195.584 277.612,-202.105 279.856,-195.475"/>
</g>
<!-- Node34 -->
<g id="node97" class="node"><title>Node34</title>
<a xlink:href="variadic_8h.html" target="_top" xlink:title="std_ext/variadic.h">
<polygon fill="white" stroke="black" points="2,-174.5 2,-195.5 96,-195.5 96,-174.5 2,-174.5"/>
<text text-anchor="middle" x="49" y="-182.5" font-family="Helvetica,sans-Serif" font-size="10.00">std_ext/variadic.h</text>
</a>
</g>
<!-- Node32&#45;&gt;Node34 -->
<g id="edge124" class="edge"><title>Node32&#45;&gt;Node34</title>
<path fill="none" stroke="midnightblue" d="M395.853,-244.174C330.344,-232.998 186.409,-208.443 106.071,-194.736"/>
<polygon fill="midnightblue" stroke="midnightblue" points="106.569,-191.271 96.1226,-193.039 105.392,-198.171 106.569,-191.271"/>
</g>
<!-- Node32&#45;&gt;Node37 -->
<g id="edge132" class="edge"><title>Node32&#45;&gt;Node37</title>
<path fill="none" stroke="midnightblue" d="M452.153,-239.412C476.872,-227.598 516.719,-208.553 542.118,-196.414"/>
<polygon fill="midnightblue" stroke="midnightblue" points="543.886,-199.448 551.399,-191.978 540.867,-193.133 543.886,-199.448"/>
</g>
<!-- Node38 -->
<g id="node108" class="node"><title>Node38</title>
<polygon fill="white" stroke="#bfbfbf" points="303.5,-174.5 303.5,-195.5 352.5,-195.5 352.5,-174.5 303.5,-174.5"/>
<text text-anchor="middle" x="328" y="-182.5" font-family="Helvetica,sans-Serif" font-size="10.00">cassert</text>
</g>
<!-- Node32&#45;&gt;Node38 -->
<g id="edge138" class="edge"><title>Node32&#45;&gt;Node38</title>
<path fill="none" stroke="midnightblue" d="M413.157,-239.267C396.818,-228.855 371.824,-212.927 353.133,-201.016"/>
<polygon fill="midnightblue" stroke="midnightblue" points="354.844,-197.956 344.53,-195.534 351.082,-203.859 354.844,-197.956"/>
</g>
<!-- Node39 -->
<g id="node110" class="node"><title>Node39</title>
<polygon fill="white" stroke="#bfbfbf" points="369.5,-174.5 369.5,-195.5 420.5,-195.5 420.5,-174.5 369.5,-174.5"/>
<text text-anchor="middle" x="395" y="-182.5" font-family="Helvetica,sans-Serif" font-size="10.00">numeric</text>
</g>
<!-- Node32&#45;&gt;Node39 -->
<g id="edge140" class="edge"><title>Node32&#45;&gt;Node39</title>
<path fill="none" stroke="midnightblue" d="M424.22,-239.267C419.124,-229.801 411.572,-215.777 405.423,-204.357"/>
<polygon fill="midnightblue" stroke="midnightblue" points="408.495,-202.679 400.672,-195.534 402.331,-205.998 408.495,-202.679"/>
</g>
<!-- Node35 -->
<g id="node99" class="node"><title>Node35</title>
<polygon fill="white" stroke="#bfbfbf" points="55.5,-116.5 55.5,-137.5 104.5,-137.5 104.5,-116.5 55.5,-116.5"/>
<text text-anchor="middle" x="80" y="-124.5" font-family="Helvetica,sans-Serif" font-size="10.00">cstddef</text>
</g>
<!-- Node34&#45;&gt;Node35 -->
<g id="edge126" class="edge"><title>Node34&#45;&gt;Node35</title>
<path fill="none" stroke="midnightblue" d="M54.6859,-174.362C58.8372,-166.595 64.5841,-155.843 69.5531,-146.546"/>
<polygon fill="midnightblue" stroke="midnightblue" points="72.7231,-148.04 74.3502,-137.571 66.5496,-144.74 72.7231,-148.04"/>
</g>
<!-- Node36 -->
<g id="node101" class="node"><title>Node36</title>
<polygon fill="white" stroke="#bfbfbf" points="0,-116.5 0,-137.5 38,-137.5 38,-116.5 0,-116.5"/>
<text text-anchor="middle" x="19" y="-124.5" font-family="Helvetica,sans-Serif" font-size="10.00">tuple</text>
</g>
<!-- Node34&#45;&gt;Node36 -->
<g id="edge128" class="edge"><title>Node34&#45;&gt;Node36</title>
<path fill="none" stroke="midnightblue" d="M43.4975,-174.362C39.4801,-166.595 33.9186,-155.843 29.1099,-146.546"/>
<polygon fill="midnightblue" stroke="midnightblue" points="32.1706,-144.845 24.4676,-137.571 25.9531,-148.061 32.1706,-144.845"/>
</g>
<!-- Node40&#45;&gt;Node9 -->
<g id="edge146" class="edge"><title>Node40&#45;&gt;Node9</title>
<path fill="none" stroke="midnightblue" d="M202.673,-311.36C183.148,-302.912 159.601,-288.983 148,-268 127.786,-231.438 121.609,-206.386 148,-174 169.45,-147.678 260.967,-135.661 321.332,-130.511"/>
<polygon fill="midnightblue" stroke="midnightblue" points="321.793,-133.985 331.476,-129.685 321.225,-127.008 321.793,-133.985"/>
</g>
<!-- Node42&#45;&gt;Node12 -->
<g id="edge174" class="edge"><title>Node42&#45;&gt;Node12</title>
<path fill="none" stroke="midnightblue" d="M1514.29,-313.953C1579.54,-304.545 1677.77,-287.725 1710,-268 1773.35,-229.228 1783.85,-205.421 1815,-138 1822.02,-122.807 1825.25,-104.064 1826.73,-89.9482"/>
<polygon fill="midnightblue" stroke="midnightblue" points="1830.24,-90.0349 1827.59,-79.7764 1823.26,-89.4474 1830.24,-90.0349"/>
</g>
<!-- Node42&#45;&gt;Node15 -->
<g id="edge160" class="edge"><title>Node42&#45;&gt;Node15</title>
<path fill="none" stroke="midnightblue" d="M1439.43,-304.786C1408.27,-266.251 1327.69,-172.042 1242,-116 1215.74,-98.8291 1182.21,-86.0772 1157.96,-78.2212"/>
<polygon fill="midnightblue" stroke="midnightblue" points="1158.77,-74.8076 1148.18,-75.1555 1156.67,-81.487 1158.77,-74.8076"/>
</g>
<!-- Node42&#45;&gt;Node23 -->
<g id="edge162" class="edge"><title>Node42&#45;&gt;Node23</title>
<path fill="none" stroke="midnightblue" d="M1391.94,-319.466C1254.88,-313.307 931.543,-295.969 891,-268 869.903,-253.446 859.18,-224.817 854.093,-205.296"/>
<polygon fill="midnightblue" stroke="midnightblue" points="857.497,-204.479 851.817,-195.535 850.68,-206.069 857.497,-204.479"/>
</g>
<!-- Node43 -->
<g id="node126" class="node"><title>Node43</title>
<a xlink:href="_interpolator_8h.html" target="_top" xlink:title="base/Interpolator.h">
<polygon fill="white" stroke="black" points="1430,-239.5 1430,-260.5 1528,-260.5 1528,-239.5 1430,-239.5"/>
<text text-anchor="middle" x="1479" y="-247.5" font-family="Helvetica,sans-Serif" font-size="10.00">base/Interpolator.h</text>
</a>
</g>
<!-- Node42&#45;&gt;Node43 -->
<g id="edge164" class="edge"><title>Node42&#45;&gt;Node43</title>
<path fill="none" stroke="midnightblue" d="M1459.16,-304.937C1462.89,-294.601 1467.68,-281.352 1471.61,-270.456"/>
<polygon fill="midnightblue" stroke="midnightblue" points="1474.96,-271.495 1475.06,-260.901 1468.38,-269.118 1474.96,-271.495"/>
</g>
<!-- Node43&#45;&gt;Node15 -->
<g id="edge166" class="edge"><title>Node43&#45;&gt;Node15</title>
<path fill="none" stroke="midnightblue" d="M1466.31,-239.457C1435.95,-214.691 1355.96,-152.173 1280,-116 1239.87,-96.8882 1190.17,-83.3844 1158.28,-75.8961"/>
<polygon fill="midnightblue" stroke="midnightblue" points="1158.71,-72.4053 1148.18,-73.5878 1157.15,-79.2291 1158.71,-72.4053"/>
</g>
<!-- Node43&#45;&gt;Node17 -->
<g id="edge168" class="edge"><title>Node43&#45;&gt;Node17</title>
<path fill="none" stroke="midnightblue" d="M1471.17,-239.441C1459.75,-224.304 1437.53,-195.854 1416,-174 1405.57,-163.41 1393.02,-152.565 1382.55,-143.966"/>
<polygon fill="midnightblue" stroke="midnightblue" points="1384.66,-141.165 1374.68,-137.598 1380.25,-146.608 1384.66,-141.165"/>
</g>
<!-- Node43&#45;&gt;Node23 -->
<g id="edge170" class="edge"><title>Node43&#45;&gt;Node23</title>
<path fill="none" stroke="midnightblue" d="M1429.82,-246.1C1332.74,-238.209 1109.72,-219.119 923,-196 910.998,-194.514 897.926,-192.629 886.203,-190.841"/>
<polygon fill="midnightblue" stroke="midnightblue" points="886.728,-187.381 876.309,-189.307 885.655,-194.298 886.728,-187.381"/>
</g>
<!-- Node43&#45;&gt;Node28 -->
<g id="edge172" class="edge"><title>Node43&#45;&gt;Node28</title>
<path fill="none" stroke="midnightblue" d="M1483.79,-239.267C1487.97,-229.896 1494.14,-216.057 1499.21,-204.7"/>
<polygon fill="midnightblue" stroke="midnightblue" points="1502.42,-206.092 1503.3,-195.534 1496.03,-203.24 1502.42,-206.092"/>
</g>
</g>
</svg>
