<?xml version="1.0" encoding="UTF-8" standalone="no"?>
<!DOCTYPE svg PUBLIC "-//W3C//DTD SVG 1.1//EN"
 "http://www.w3.org/Graphics/SVG/1.1/DTD/svg11.dtd">
<!-- Generated by graphviz version 2.26.3 (20100126.1600)
 -->
<!-- Title: src/base/Interpolator.h Pages: 1 -->
<svg width="487pt" height="146pt"
 viewBox="0.00 0.00 487.00 146.00" xmlns="http://www.w3.org/2000/svg" xmlns:xlink="http://www.w3.org/1999/xlink">
<g id="graph1" class="graph" transform="scale(1 1) rotate(0) translate(4 142)">
<title>src/base/Interpolator.h</title>
<polygon fill="white" stroke="white" points="-4,5 -4,-142 484,-142 484,5 -4,5"/>
<!-- Node0 -->
<g id="node1" class="node"><title>Node0</title>
<polygon fill="#bfbfbf" stroke="black" points="42,-116.5 42,-137.5 156,-137.5 156,-116.5 42,-116.5"/>
<text text-anchor="middle" x="99" y="-124.5" font-family="Helvetica,sans-Serif" font-size="10.00">src/base/Interpolator.h</text>
</g>
<!-- Node1 -->
<g id="node3" class="node"><title>Node1</title>
<polygon fill="white" stroke="#bfbfbf" points="0,-58.5 0,-79.5 44,-79.5 44,-58.5 0,-58.5"/>
<text text-anchor="middle" x="22" y="-66.5" font-family="Helvetica,sans-Serif" font-size="10.00">vector</text>
</g>
<!-- Node0&#45;&gt;Node1 -->
<g id="edge2" class="edge"><title>Node0&#45;&gt;Node1</title>
<path fill="none" stroke="midnightblue" d="M84.877,-116.362C73.4802,-107.777 57.2419,-95.5459 44.1223,-85.6636"/>
<polygon fill="midnightblue" stroke="midnightblue" points="46.1268,-82.7916 36.0335,-79.5707 41.9152,-88.3829 46.1268,-82.7916"/>
</g>
<!-- Node2 -->
<g id="node5" class="node"><title>Node2</title>
<polygon fill="white" stroke="#bfbfbf" points="24.5,-0.5 24.5,-21.5 83.5,-21.5 83.5,-0.5 24.5,-0.5"/>
<text text-anchor="middle" x="54" y="-8.5" font-family="Helvetica,sans-Serif" font-size="10.00">stdexcept</text>
</g>
<!-- Node0&#45;&gt;Node2 -->
<g id="edge4" class="edge"><title>Node0&#45;&gt;Node2</title>
<path fill="none" stroke="midnightblue" d="M94.8472,-116.295C87.3461,-96.9588 71.427,-55.9229 61.8272,-31.1767"/>
<polygon fill="midnightblue" stroke="midnightblue" points="65.0226,-29.7364 58.1428,-21.6792 58.4965,-32.2681 65.0226,-29.7364"/>
</g>
<!-- Node3 -->
<g id="node7" class="node"><title>Node3</title>
<polygon fill="white" stroke="#bfbfbf" points="100,-58.5 100,-79.5 152,-79.5 152,-58.5 100,-58.5"/>
<text text-anchor="middle" x="126" y="-66.5" font-family="Helvetica,sans-Serif" font-size="10.00">memory</text>
</g>
<!-- Node0&#45;&gt;Node3 -->
<g id="edge6" class="edge"><title>Node0&#45;&gt;Node3</title>
<path fill="none" stroke="midnightblue" d="M103.952,-116.362C107.53,-108.677 112.468,-98.0686 116.764,-88.8399"/>
<polygon fill="midnightblue" stroke="midnightblue" points="120.032,-90.1136 121.079,-79.5707 113.686,-87.1594 120.032,-90.1136"/>
</g>
<!-- Node4 -->
<g id="node9" class="node"><title>Node4</title>
<a xlink:href="interval_8h.html" target="_top" xlink:title="base/interval.h">
<polygon fill="white" stroke="black" points="204,-58.5 204,-79.5 284,-79.5 284,-58.5 204,-58.5"/>
<text text-anchor="middle" x="244" y="-66.5" font-family="Helvetica,sans-Serif" font-size="10.00">base/interval.h</text>
</a>
</g>
<!-- Node0&#45;&gt;Node4 -->
<g id="edge8" class="edge"><title>Node0&#45;&gt;Node4</title>
<path fill="none" stroke="midnightblue" d="M125.258,-116.497C148.416,-107.234 182.375,-93.6499 208.052,-83.3793"/>
<polygon fill="midnightblue" stroke="midnightblue" points="209.462,-86.5849 217.447,-79.6212 206.862,-80.0855 209.462,-86.5849"/>
</g>
<!-- Node4&#45;&gt;Node2 -->
<g id="edge14" class="edge"><title>Node4&#45;&gt;Node2</title>
<path fill="none" stroke="midnightblue" d="M209.592,-58.4966C176.889,-48.5135 127.744,-33.5114 93.4654,-23.0473"/>
<polygon fill="midnightblue" stroke="midnightblue" points="94.3651,-19.6626 83.7789,-20.0904 92.3213,-26.3576 94.3651,-19.6626"/>
</g>
<!-- Node5 -->
<g id="node11" class="node"><title>Node5</title>
<a xlink:href="types_8h.html" target="_top" xlink:title="types.h">
<polygon fill="white" stroke="black" points="100.5,-0.5 100.5,-21.5 149.5,-21.5 149.5,-0.5 100.5,-0.5"/>
<text text-anchor="middle" x="125" y="-8.5" font-family="Helvetica,sans-Serif" font-size="10.00">types.h</text>
</a>
</g>
<!-- Node4&#45;&gt;Node5 -->
<g id="edge10" class="edge"><title>Node4&#45;&gt;Node5</title>
<path fill="none" stroke="midnightblue" d="M222.45,-58.4966C203.864,-49.4378 176.798,-36.2462 155.905,-26.0628"/>
<polygon fill="midnightblue" stroke="midnightblue" points="157.314,-22.8563 146.792,-21.6212 154.247,-29.1487 157.314,-22.8563"/>
</g>
<!-- Node6 -->
<g id="node13" class="node"><title>Node6</title>
<polygon fill="white" stroke="#bfbfbf" points="167,-0.5 167,-21.5 223,-21.5 223,-0.5 167,-0.5"/>
<text text-anchor="middle" x="195" y="-8.5" font-family="Helvetica,sans-Serif" font-size="10.00">algorithm</text>
</g>
<!-- Node4&#45;&gt;Node6 -->
<g id="edge12" class="edge"><title>Node4&#45;&gt;Node6</title>
<path fill="none" stroke="midnightblue" d="M235.013,-58.3619C228.175,-50.2678 218.598,-38.9318 210.528,-29.3796"/>
<polygon fill="midnightblue" stroke="midnightblue" points="213.058,-26.9508 203.93,-21.5707 207.71,-31.4683 213.058,-26.9508"/>
</g>
<!-- Node7 -->
<g id="node16" class="node"><title>Node7</title>
<polygon fill="white" stroke="#bfbfbf" points="241,-0.5 241,-21.5 281,-21.5 281,-0.5 241,-0.5"/>
<text text-anchor="middle" x="261" y="-8.5" font-family="Helvetica,sans-Serif" font-size="10.00">limits</text>
</g>
<!-- Node4&#45;&gt;Node7 -->
<g id="edge16" class="edge"><title>Node4&#45;&gt;Node7</title>
<path fill="none" stroke="midnightblue" d="M247.118,-58.3619C249.323,-50.8401 252.348,-40.5187 255.012,-31.4308"/>
<polygon fill="midnightblue" stroke="midnightblue" points="258.448,-32.1514 257.902,-21.5707 251.73,-30.1825 258.448,-32.1514"/>
</g>
<!-- Node8 -->
<g id="node18" class="node"><title>Node8</title>
<polygon fill="white" stroke="#bfbfbf" points="298.5,-0.5 298.5,-21.5 347.5,-21.5 347.5,-0.5 298.5,-0.5"/>
<text text-anchor="middle" x="323" y="-8.5" font-family="Helvetica,sans-Serif" font-size="10.00">istream</text>
</g>
<!-- Node4&#45;&gt;Node8 -->
<g id="edge18" class="edge"><title>Node4&#45;&gt;Node8</title>
<path fill="none" stroke="midnightblue" d="M258.49,-58.3619C270.183,-49.7773 286.843,-37.5459 300.303,-27.6636"/>
<polygon fill="midnightblue" stroke="midnightblue" points="302.613,-30.31 308.602,-21.5707 298.47,-24.6675 302.613,-30.31"/>
</g>
<!-- Node9 -->
<g id="node20" class="node"><title>Node9</title>
<polygon fill="white" stroke="#bfbfbf" points="365,-0.5 365,-21.5 417,-21.5 417,-0.5 365,-0.5"/>
<text text-anchor="middle" x="391" y="-8.5" font-family="Helvetica,sans-Serif" font-size="10.00">sstream</text>
</g>
<!-- Node4&#45;&gt;Node9 -->
<g id="edge20" class="edge"><title>Node4&#45;&gt;Node9</title>
<path fill="none" stroke="midnightblue" d="M270.621,-58.4966C294.244,-49.1759 328.956,-35.4799 355.043,-25.1872"/>
<polygon fill="midnightblue" stroke="midnightblue" points="356.56,-28.3513 364.577,-21.4252 353.991,-21.8398 356.56,-28.3513"/>
</g>
<!-- Node10 -->
<g id="node22" class="node"><title>Node10</title>
<polygon fill="white" stroke="#bfbfbf" points="435,-0.5 435,-21.5 479,-21.5 479,-0.5 435,-0.5"/>
<text text-anchor="middle" x="457" y="-8.5" font-family="Helvetica,sans-Serif" font-size="10.00">cmath</text>
</g>
<!-- Node4&#45;&gt;Node10 -->
<g id="edge22" class="edge"><title>Node4&#45;&gt;Node10</title>
<path fill="none" stroke="midnightblue" d="M284.047,-59.7344C319.014,-51.4048 371.29,-38.3771 425.034,-22.1292"/>
<polygon fill="midnightblue" stroke="midnightblue" points="426.186,-25.437 434.727,-19.168 424.141,-18.7425 426.186,-25.437"/>
</g>
</g>
</svg>
