<?xml version="1.0" encoding="UTF-8" standalone="no"?>
<!DOCTYPE svg PUBLIC "-//W3C//DTD SVG 1.1//EN"
 "http://www.w3.org/Graphics/SVG/1.1/DTD/svg11.dtd">
<!-- Generated by graphviz version 2.26.3 (20100126.1600)
 -->
<!-- Title: src/base/math_functions/Linear.h Pages: 1 -->
<svg width="404pt" height="116pt"
 viewBox="0.00 0.00 404.00 116.00" xmlns="http://www.w3.org/2000/svg" xmlns:xlink="http://www.w3.org/1999/xlink">
<g id="graph1" class="graph" transform="scale(1 1) rotate(0) translate(4 112)">
<title>src/base/math_functions/Linear.h</title>
<polygon fill="white" stroke="white" points="-4,5 -4,-112 401,-112 401,5 -4,5"/>
<!-- Node3 -->
<g id="node1" class="node"><title>Node3</title>
<polygon fill="#bfbfbf" stroke="black" points="142,-73 142,-107 266,-107 266,-73 142,-73"/>
<text text-anchor="start" x="150" y="-94" font-family="Helvetica,sans-Serif" font-size="10.00">src/base/math_functions</text>
<text text-anchor="middle" x="204" y="-81" font-family="Helvetica,sans-Serif" font-size="10.00">/Linear.h</text>
</g>
<!-- Node4 -->
<g id="node3" class="node"><title>Node4</title>
<a xlink:href="_fit_gaus_pol3_8cc.html" target="_top" xlink:title="src/calibration/fitfunctions\l/FitGausPol3.cc">
<polygon fill="white" stroke="black" points="0,-1 0,-35 128,-35 128,-1 0,-1"/>
<text text-anchor="start" x="8" y="-22" font-family="Helvetica,sans-Serif" font-size="10.00">src/calibration/fitfunctions</text>
<text text-anchor="middle" x="64" y="-9" font-family="Helvetica,sans-Serif" font-size="10.00">/FitGausPol3.cc</text>
</a>
</g>
<!-- Node3&#45;&gt;Node4 -->
<g id="edge2" class="edge"><title>Node3&#45;&gt;Node4</title>
<path fill="none" stroke="midnightblue" d="M161.662,-68.2264C141.075,-57.6383 116.682,-45.0936 97.4251,-35.19"/>
<polygon fill="midnightblue" stroke="midnightblue" points="160.328,-71.476 170.822,-72.937 163.53,-65.251 160.328,-71.476"/>
</g>
<!-- Node5 -->
<g id="node5" class="node"><title>Node5</title>
<a xlink:href="_energy_8cc.html" target="_top" xlink:title="src/calibration/modules\l/Energy.cc">
<polygon fill="white" stroke="black" points="145.5,-1 145.5,-35 262.5,-35 262.5,-1 145.5,-1"/>
<text text-anchor="start" x="153.5" y="-22" font-family="Helvetica,sans-Serif" font-size="10.00">src/calibration/modules</text>
<text text-anchor="middle" x="204" y="-9" font-family="Helvetica,sans-Serif" font-size="10.00">/Energy.cc</text>
</a>
</g>
<!-- Node3&#45;&gt;Node5 -->
<g id="edge4" class="edge"><title>Node3&#45;&gt;Node5</title>
<path fill="none" stroke="midnightblue" d="M204,-62.7193C204,-53.572 204,-43.6255 204,-35.4407"/>
<polygon fill="midnightblue" stroke="midnightblue" points="200.5,-62.937 204,-72.937 207.5,-62.937 200.5,-62.937"/>
</g>
<!-- Node6 -->
<g id="node7" class="node"><title>Node6</title>
<a xlink:href="_energy___g_u_i_8cc.html" target="_top" xlink:title="src/calibration/modules\l/Energy_GUI.cc">
<polygon fill="white" stroke="black" points="279.5,-1 279.5,-35 396.5,-35 396.5,-1 279.5,-1"/>
<text text-anchor="start" x="287.5" y="-22" font-family="Helvetica,sans-Serif" font-size="10.00">src/calibration/modules</text>
<text text-anchor="middle" x="338" y="-9" font-family="Helvetica,sans-Serif" font-size="10.00">/Energy_GUI.cc</text>
</a>
</g>
<!-- Node3&#45;&gt;Node6 -->
<g id="edge6" class="edge"><title>Node3&#45;&gt;Node6</title>
<path fill="none" stroke="midnightblue" d="M244.79,-68.0832C264.439,-57.5254 287.659,-45.049 306.007,-35.19"/>
<polygon fill="midnightblue" stroke="midnightblue" points="242.908,-65.1207 235.756,-72.937 246.222,-71.2869 242.908,-65.1207"/>
</g>
</g>
</svg>
