<?xml version="1.0" encoding="UTF-8" standalone="no"?>
<!DOCTYPE svg PUBLIC "-//W3C//DTD SVG 1.1//EN"
 "http://www.w3.org/Graphics/SVG/1.1/DTD/svg11.dtd">
<!-- Generated by graphviz version 2.26.3 (20100126.1600)
 -->
<!-- Title: src/analysis/utils/MCWeighting.h Pages: 1 -->
<svg width="815pt" height="272pt"
 viewBox="0.00 0.00 815.00 272.00" xmlns="http://www.w3.org/2000/svg" xmlns:xlink="http://www.w3.org/1999/xlink">
<g id="graph1" class="graph" transform="scale(1 1) rotate(0) translate(4 268)">
<title>src/analysis/utils/MCWeighting.h</title>
<polygon fill="white" stroke="white" points="-4,5 -4,-268 812,-268 812,5 -4,5"/>
<!-- Node45 -->
<g id="node1" class="node"><title>Node45</title>
<polygon fill="#bfbfbf" stroke="black" points="376,-229 376,-263 466,-263 466,-229 376,-229"/>
<text text-anchor="start" x="384" y="-250" font-family="Helvetica,sans-Serif" font-size="10.00">src/analysis/utils</text>
<text text-anchor="middle" x="421" y="-237" font-family="Helvetica,sans-Serif" font-size="10.00">/MCWeighting.h</text>
</g>
<!-- Node46 -->
<g id="node3" class="node"><title>Node46</title>
<a xlink:href="_ant-mc-prefilter_8cc.html" target="_top" xlink:title="progs/Ant&#45;mc&#45;prefilter.cc">
<polygon fill="white" stroke="black" points="3,-163.5 3,-184.5 127,-184.5 127,-163.5 3,-163.5"/>
<text text-anchor="middle" x="65" y="-171.5" font-family="Helvetica,sans-Serif" font-size="10.00">progs/Ant&#45;mc&#45;prefilter.cc</text>
</a>
</g>
<!-- Node45&#45;&gt;Node46 -->
<g id="edge2" class="edge"><title>Node45&#45;&gt;Node46</title>
<path fill="none" stroke="midnightblue" d="M365.933,-236.594C308.38,-226.524 215.55,-209.603 136,-192 125.819,-189.747 114.875,-187.091 104.703,-184.52"/>
<polygon fill="midnightblue" stroke="midnightblue" points="365.455,-240.064 375.908,-238.333 366.657,-233.168 365.455,-240.064"/>
</g>
<!-- Node47 -->
<g id="node5" class="node"><title>Node47</title>
<a xlink:href="_etap_omega_g_8h.html" target="_top" xlink:title="src/analysis/physics\l/etaprime/EtapOmegaG.h">
<polygon fill="white" stroke="black" points="145,-157 145,-191 273,-191 273,-157 145,-157"/>
<text text-anchor="start" x="153" y="-178" font-family="Helvetica,sans-Serif" font-size="10.00">src/analysis/physics</text>
<text text-anchor="middle" x="209" y="-165" font-family="Helvetica,sans-Serif" font-size="10.00">/etaprime/EtapOmegaG.h</text>
</a>
</g>
<!-- Node45&#45;&gt;Node47 -->
<g id="edge4" class="edge"><title>Node45&#45;&gt;Node47</title>
<path fill="none" stroke="midnightblue" d="M366.28,-227.416C333.275,-216.207 291.533,-202.03 259.347,-191.099"/>
<polygon fill="midnightblue" stroke="midnightblue" points="365.186,-230.741 375.781,-230.643 367.437,-224.113 365.186,-230.741"/>
</g>
<!-- Node50 -->
<g id="node11" class="node"><title>Node50</title>
<a xlink:href="_omega___eta_g_8h.html" target="_top" xlink:title="src/analysis/physics\l/omega/Omega_EtaG.h">
<polygon fill="white" stroke="black" points="290.5,-157 290.5,-191 409.5,-191 409.5,-157 290.5,-157"/>
<text text-anchor="start" x="298.5" y="-178" font-family="Helvetica,sans-Serif" font-size="10.00">src/analysis/physics</text>
<text text-anchor="middle" x="350" y="-165" font-family="Helvetica,sans-Serif" font-size="10.00">/omega/Omega_EtaG.h</text>
</a>
</g>
<!-- Node45&#45;&gt;Node50 -->
<g id="edge10" class="edge"><title>Node45&#45;&gt;Node50</title>
<path fill="none" stroke="midnightblue" d="M397.008,-221.671C387.231,-211.755 376.147,-200.515 367.198,-191.441"/>
<polygon fill="midnightblue" stroke="midnightblue" points="394.66,-224.274 404.174,-228.937 399.645,-219.359 394.66,-224.274"/>
</g>
<!-- Node54 -->
<g id="node19" class="node"><title>Node54</title>
<a xlink:href="_test_m_c_weighting_8cc.html" target="_top" xlink:title="src/analysis/physics\l/test/TestMCWeighting.cc">
<polygon fill="white" stroke="black" points="426.5,-157 426.5,-191 557.5,-191 557.5,-157 426.5,-157"/>
<text text-anchor="start" x="434.5" y="-178" font-family="Helvetica,sans-Serif" font-size="10.00">src/analysis/physics</text>
<text text-anchor="middle" x="492" y="-165" font-family="Helvetica,sans-Serif" font-size="10.00">/test/TestMCWeighting.cc</text>
</a>
</g>
<!-- Node45&#45;&gt;Node54 -->
<g id="edge18" class="edge"><title>Node45&#45;&gt;Node54</title>
<path fill="none" stroke="midnightblue" d="M444.992,-221.671C454.769,-211.755 465.853,-200.515 474.802,-191.441"/>
<polygon fill="midnightblue" stroke="midnightblue" points="442.355,-219.359 437.826,-228.937 447.34,-224.274 442.355,-219.359"/>
</g>
<!-- Node55 -->
<g id="node21" class="node"><title>Node55</title>
<a xlink:href="_m_c_weighting_8cc.html" target="_top" xlink:title="src/analysis/utils\l/MCWeighting.cc">
<polygon fill="white" stroke="black" points="575,-157 575,-191 667,-191 667,-157 575,-157"/>
<text text-anchor="start" x="583" y="-178" font-family="Helvetica,sans-Serif" font-size="10.00">src/analysis/utils</text>
<text text-anchor="middle" x="621" y="-165" font-family="Helvetica,sans-Serif" font-size="10.00">/MCWeighting.cc</text>
</a>
</g>
<!-- Node45&#45;&gt;Node55 -->
<g id="edge20" class="edge"><title>Node45&#45;&gt;Node55</title>
<path fill="none" stroke="midnightblue" d="M476.166,-226.14C507.144,-214.988 545.36,-201.23 574.757,-190.648"/>
<polygon fill="midnightblue" stroke="midnightblue" points="474.606,-222.982 466.383,-229.662 476.978,-229.568 474.606,-222.982"/>
</g>
<!-- Node56 -->
<g id="node23" class="node"><title>Node56</title>
<a xlink:href="_omega_8cc.html" target="_top" xlink:title="src/root&#45;addons/analysis\l_codes/Omega.cc">
<polygon fill="white" stroke="black" points="684.5,-157 684.5,-191 807.5,-191 807.5,-157 684.5,-157"/>
<text text-anchor="start" x="692.5" y="-178" font-family="Helvetica,sans-Serif" font-size="10.00">src/root&#45;addons/analysis</text>
<text text-anchor="middle" x="746" y="-165" font-family="Helvetica,sans-Serif" font-size="10.00">_codes/Omega.cc</text>
</a>
</g>
<!-- Node45&#45;&gt;Node56 -->
<g id="edge22" class="edge"><title>Node45&#45;&gt;Node56</title>
<path fill="none" stroke="midnightblue" d="M476.242,-235.016C527.995,-224.556 607.433,-208.068 676,-192 678.688,-191.37 681.431,-190.716 684.199,-190.045"/>
<polygon fill="midnightblue" stroke="midnightblue" points="475.383,-231.618 466.272,-237.025 476.766,-238.48 475.383,-231.618"/>
</g>
<!-- Node48 -->
<g id="node7" class="node"><title>Node48</title>
<a xlink:href="_etap_omega_g_8cc.html" target="_top" xlink:title="src/analysis/physics\l/etaprime/EtapOmegaG.cc">
<polygon fill="white" stroke="black" points="-0.5,-79 -0.5,-113 132.5,-113 132.5,-79 -0.5,-79"/>
<text text-anchor="start" x="7.5" y="-100" font-family="Helvetica,sans-Serif" font-size="10.00">src/analysis/physics</text>
<text text-anchor="middle" x="66" y="-87" font-family="Helvetica,sans-Serif" font-size="10.00">/etaprime/EtapOmegaG.cc</text>
</a>
</g>
<!-- Node47&#45;&gt;Node48 -->
<g id="edge6" class="edge"><title>Node47&#45;&gt;Node48</title>
<path fill="none" stroke="midnightblue" d="M168.601,-151.964C145.999,-139.636 118.248,-124.499 97.3088,-113.078"/>
<polygon fill="midnightblue" stroke="midnightblue" points="167.163,-155.167 177.618,-156.883 170.515,-149.021 167.163,-155.167"/>
</g>
<!-- Node49 -->
<g id="node9" class="node"><title>Node49</title>
<a xlink:href="_etap_omega_g__plot_8cc.html" target="_top" xlink:title="src/analysis/physics\l/etaprime/EtapOmegaG\l_plot.cc">
<polygon fill="white" stroke="black" points="149.5,-72.5 149.5,-119.5 268.5,-119.5 268.5,-72.5 149.5,-72.5"/>
<text text-anchor="start" x="157.5" y="-106.5" font-family="Helvetica,sans-Serif" font-size="10.00">src/analysis/physics</text>
<text text-anchor="start" x="157.5" y="-93.5" font-family="Helvetica,sans-Serif" font-size="10.00">/etaprime/EtapOmegaG</text>
<text text-anchor="middle" x="209" y="-80.5" font-family="Helvetica,sans-Serif" font-size="10.00">_plot.cc</text>
</a>
</g>
<!-- Node47&#45;&gt;Node49 -->
<g id="edge8" class="edge"><title>Node47&#45;&gt;Node49</title>
<path fill="none" stroke="midnightblue" d="M209,-146.579C209,-137.834 209,-128.234 209,-119.77"/>
<polygon fill="midnightblue" stroke="midnightblue" points="205.5,-146.689 209,-156.689 212.5,-146.689 205.5,-146.689"/>
</g>
<!-- Node51 -->
<g id="node13" class="node"><title>Node51</title>
<a xlink:href="_omega___eta_g_8cc.html" target="_top" xlink:title="src/analysis/physics\l/omega/Omega_EtaG.cc">
<polygon fill="white" stroke="black" points="286.5,-79 286.5,-113 411.5,-113 411.5,-79 286.5,-79"/>
<text text-anchor="start" x="294.5" y="-100" font-family="Helvetica,sans-Serif" font-size="10.00">src/analysis/physics</text>
<text text-anchor="middle" x="349" y="-87" font-family="Helvetica,sans-Serif" font-size="10.00">/omega/Omega_EtaG.cc</text>
</a>
</g>
<!-- Node50&#45;&gt;Node51 -->
<g id="edge12" class="edge"><title>Node50&#45;&gt;Node51</title>
<path fill="none" stroke="midnightblue" d="M349.649,-146.61C349.507,-135.519 349.347,-123.049 349.221,-113.262"/>
<polygon fill="midnightblue" stroke="midnightblue" points="346.15,-146.735 349.778,-156.689 353.149,-146.645 346.15,-146.735"/>
</g>
<!-- Node52 -->
<g id="node15" class="node"><title>Node52</title>
<a xlink:href="pi0eta_8h.html" target="_top" xlink:title="src/analysis/physics\l/omega/pi0eta.h">
<polygon fill="white" stroke="black" points="429,-79 429,-113 535,-113 535,-79 429,-79"/>
<text text-anchor="start" x="437" y="-100" font-family="Helvetica,sans-Serif" font-size="10.00">src/analysis/physics</text>
<text text-anchor="middle" x="482" y="-87" font-family="Helvetica,sans-Serif" font-size="10.00">/omega/pi0eta.h</text>
</a>
</g>
<!-- Node50&#45;&gt;Node52 -->
<g id="edge14" class="edge"><title>Node50&#45;&gt;Node52</title>
<path fill="none" stroke="midnightblue" d="M387.849,-151.635C408.609,-139.367 433.943,-124.398 453.1,-113.078"/>
<polygon fill="midnightblue" stroke="midnightblue" points="385.797,-148.782 378.968,-156.883 389.358,-154.808 385.797,-148.782"/>
</g>
<!-- Node53 -->
<g id="node17" class="node"><title>Node53</title>
<a xlink:href="pi0eta_8cc.html" target="_top" xlink:title="src/analysis/physics\l/omega/pi0eta.cc">
<polygon fill="white" stroke="black" points="429,-1 429,-35 535,-35 535,-1 429,-1"/>
<text text-anchor="start" x="437" y="-22" font-family="Helvetica,sans-Serif" font-size="10.00">src/analysis/physics</text>
<text text-anchor="middle" x="482" y="-9" font-family="Helvetica,sans-Serif" font-size="10.00">/omega/pi0eta.cc</text>
</a>
</g>
<!-- Node52&#45;&gt;Node53 -->
<g id="edge16" class="edge"><title>Node52&#45;&gt;Node53</title>
<path fill="none" stroke="midnightblue" d="M482,-68.6102C482,-57.5188 482,-45.0489 482,-35.2623"/>
<polygon fill="midnightblue" stroke="midnightblue" points="478.5,-68.6892 482,-78.6893 485.5,-68.6893 478.5,-68.6892"/>
</g>
</g>
</svg>
