<?xml version="1.0" encoding="UTF-8" standalone="no"?>
<!DOCTYPE svg PUBLIC "-//W3C//DTD SVG 1.1//EN"
 "http://www.w3.org/Graphics/SVG/1.1/DTD/svg11.dtd">
<!-- Generated by graphviz version 2.26.3 (20100126.1600)
 -->
<!-- Title: src/analysis/physics/common/MCChannels.cc Pages: 1 -->
<svg width="3338pt" height="696pt"
 viewBox="0.00 0.00 3337.59 696.00" xmlns="http://www.w3.org/2000/svg" xmlns:xlink="http://www.w3.org/1999/xlink">
<g id="graph1" class="graph" transform="scale(1 1) rotate(0) translate(4 692)">
<title>src/analysis/physics/common/MCChannels.cc</title>
<polygon fill="white" stroke="white" points="-4,5 -4,-692 3334.59,-692 3334.59,5 -4,5"/>
<!-- Node0 -->
<g id="node1" class="node"><title>Node0</title>
<polygon fill="#bfbfbf" stroke="black" points="3073.09,-653 3073.09,-687 3204.09,-687 3204.09,-653 3073.09,-653"/>
<text text-anchor="start" x="3081.09" y="-674" font-family="Helvetica,sans-Serif" font-size="10.00">src/analysis/physics</text>
<text text-anchor="middle" x="3138.59" y="-661" font-family="Helvetica,sans-Serif" font-size="10.00">/common/MCChannels.cc</text>
</g>
<!-- Node1 -->
<g id="node3" class="node"><title>Node1</title>
<a xlink:href="_m_c_channels_8h.html" target="_top" xlink:title="MCChannels.h">
<polygon fill="white" stroke="black" points="3246.59,-594.5 3246.59,-615.5 3328.59,-615.5 3328.59,-594.5 3246.59,-594.5"/>
<text text-anchor="middle" x="3287.59" y="-602.5" font-family="Helvetica,sans-Serif" font-size="10.00">MCChannels.h</text>
</a>
</g>
<!-- Node0&#45;&gt;Node1 -->
<g id="edge2" class="edge"><title>Node0&#45;&gt;Node1</title>
<path fill="none" stroke="midnightblue" d="M3177.73,-652.922C3201.42,-642.588 3231.32,-629.545 3253.94,-619.676"/>
<polygon fill="midnightblue" stroke="midnightblue" points="3255.39,-622.865 3263.15,-615.658 3252.59,-616.449 3255.39,-622.865"/>
</g>
<!-- Node17 -->
<g id="node39" class="node"><title>Node17</title>
<a xlink:href="_root_draw_8h.html" target="_top" xlink:title="analysis/plot/RootDraw.h">
<polygon fill="white" stroke="black" points="2137.09,-304.5 2137.09,-325.5 2264.09,-325.5 2264.09,-304.5 2137.09,-304.5"/>
<text text-anchor="middle" x="2200.59" y="-312.5" font-family="Helvetica,sans-Serif" font-size="10.00">analysis/plot/RootDraw.h</text>
</a>
</g>
<!-- Node0&#45;&gt;Node17 -->
<g id="edge356" class="edge"><title>Node0&#45;&gt;Node17</title>
<path fill="none" stroke="midnightblue" d="M3072.78,-666.515C2826.97,-653.067 1976.59,-602.534 1976.59,-547 1976.59,-547 1976.59,-547 1976.59,-431 1976.59,-361.852 2061.8,-333.873 2127.11,-322.585"/>
<polygon fill="midnightblue" stroke="midnightblue" points="2127.69,-326.037 2136.99,-320.975 2126.56,-319.128 2127.69,-326.037"/>
</g>
<!-- Node68 -->
<g id="node238" class="node"><title>Node68</title>
<a xlink:href="_particle_type_tree_8h.html" target="_top" xlink:title="base/ParticleTypeTree.h">
<polygon fill="white" stroke="black" points="2878.09,-362.5 2878.09,-383.5 3001.09,-383.5 3001.09,-362.5 2878.09,-362.5"/>
<text text-anchor="middle" x="2939.59" y="-370.5" font-family="Helvetica,sans-Serif" font-size="10.00">base/ParticleTypeTree.h</text>
</a>
</g>
<!-- Node0&#45;&gt;Node68 -->
<g id="edge338" class="edge"><title>Node0&#45;&gt;Node68</title>
<path fill="none" stroke="midnightblue" d="M3128.77,-652.959C3109.06,-619.017 3062.84,-540.826 3019.59,-478 2998.21,-446.949 2971.27,-412.448 2954.75,-391.752"/>
<polygon fill="midnightblue" stroke="midnightblue" points="2957.34,-389.388 2948.35,-383.778 2951.88,-393.768 2957.34,-389.388"/>
</g>
<!-- Node69 -->
<g id="node243" class="node"><title>Node69</title>
<a xlink:href="_particle_tools_8h.html" target="_top" xlink:title="analysis/utils/ParticleTools.h">
<polygon fill="white" stroke="black" points="2868.59,-478.5 2868.59,-499.5 3010.59,-499.5 3010.59,-478.5 2868.59,-478.5"/>
<text text-anchor="middle" x="2939.59" y="-486.5" font-family="Helvetica,sans-Serif" font-size="10.00">analysis/utils/ParticleTools.h</text>
</a>
</g>
<!-- Node0&#45;&gt;Node69 -->
<g id="edge346" class="edge"><title>Node0&#45;&gt;Node69</title>
<path fill="none" stroke="midnightblue" d="M3119.86,-652.972C3082.11,-618.63 2997.18,-541.381 2958.92,-506.582"/>
<polygon fill="midnightblue" stroke="midnightblue" points="2961.25,-503.971 2951.49,-499.832 2956.54,-509.15 2961.25,-503.971"/>
</g>
<!-- Node2 -->
<g id="node5" class="node"><title>Node2</title>
<a xlink:href="_physics_8h.html" target="_top" xlink:title="analysis/physics/Physics.h">
<polygon fill="white" stroke="black" points="2472.59,-536.5 2472.59,-557.5 2608.59,-557.5 2608.59,-536.5 2472.59,-536.5"/>
<text text-anchor="middle" x="2540.59" y="-544.5" font-family="Helvetica,sans-Serif" font-size="10.00">analysis/physics/Physics.h</text>
</a>
</g>
<!-- Node1&#45;&gt;Node2 -->
<g id="edge4" class="edge"><title>Node1&#45;&gt;Node2</title>
<path fill="none" stroke="midnightblue" d="M3246.36,-601.799C3126.42,-592.486 2776.2,-565.294 2618.79,-553.072"/>
<polygon fill="midnightblue" stroke="midnightblue" points="2618.95,-549.574 2608.71,-552.289 2618.41,-556.553 2618.95,-549.574"/>
</g>
<!-- Node55 -->
<g id="node184" class="node"><title>Node55</title>
<a xlink:href="_particle_type_8h.html" target="_top" xlink:title="base/ParticleType.h">
<polygon fill="white" stroke="black" points="2891.59,-239.5 2891.59,-260.5 2995.59,-260.5 2995.59,-239.5 2891.59,-239.5"/>
<text text-anchor="middle" x="2943.59" y="-247.5" font-family="Helvetica,sans-Serif" font-size="10.00">base/ParticleType.h</text>
</a>
</g>
<!-- Node1&#45;&gt;Node55 -->
<g id="edge334" class="edge"><title>Node1&#45;&gt;Node55</title>
<path fill="none" stroke="midnightblue" d="M3277.29,-594.376C3228.73,-544.258 3022.33,-331.267 2960.9,-267.872"/>
<polygon fill="midnightblue" stroke="midnightblue" points="2963.31,-265.329 2953.84,-260.583 2958.29,-270.2 2963.31,-265.329"/>
</g>
<!-- Node56 -->
<g id="node190" class="node"><title>Node56</title>
<polygon fill="white" stroke="#bfbfbf" points="3236.09,-174.5 3236.09,-195.5 3271.09,-195.5 3271.09,-174.5 3236.09,-174.5"/>
<text text-anchor="middle" x="3253.59" y="-182.5" font-family="Helvetica,sans-Serif" font-size="10.00">map</text>
</g>
<!-- Node1&#45;&gt;Node56 -->
<g id="edge336" class="edge"><title>Node1&#45;&gt;Node56</title>
<path fill="none" stroke="midnightblue" d="M3294.33,-594.275C3306.21,-574.346 3329.59,-529.909 3329.59,-489 3329.59,-489 3329.59,-489 3329.59,-315 3329.59,-269.668 3294.72,-226.104 3272.22,-202.71"/>
<polygon fill="midnightblue" stroke="midnightblue" points="3274.66,-200.203 3265.13,-195.577 3269.69,-205.137 3274.66,-200.203"/>
</g>
<!-- Node3 -->
<g id="node7" class="node"><title>Node3</title>
<a xlink:href="manager__t_8h.html" target="_top" xlink:title="analysis/physics/manager_t.h">
<polygon fill="white" stroke="black" points="2105.59,-478.5 2105.59,-499.5 2251.59,-499.5 2251.59,-478.5 2105.59,-478.5"/>
<text text-anchor="middle" x="2178.59" y="-486.5" font-family="Helvetica,sans-Serif" font-size="10.00">analysis/physics/manager_t.h</text>
</a>
</g>
<!-- Node2&#45;&gt;Node3 -->
<g id="edge6" class="edge"><title>Node2&#45;&gt;Node3</title>
<path fill="none" stroke="midnightblue" d="M2475.03,-536.497C2412.95,-526.55 2319.77,-511.621 2254.49,-501.162"/>
<polygon fill="midnightblue" stroke="midnightblue" points="2254.69,-497.649 2244.26,-499.523 2253.58,-504.561 2254.69,-497.649"/>
</g>
<!-- Node4 -->
<g id="node9" class="node"><title>Node4</title>
<a xlink:href="_histogram_factory_8h.html" target="_top" xlink:title="analysis/plot/HistogramFactory.h">
<polygon fill="white" stroke="black" points="2587.09,-304.5 2587.09,-325.5 2748.09,-325.5 2748.09,-304.5 2587.09,-304.5"/>
<text text-anchor="middle" x="2667.59" y="-312.5" font-family="Helvetica,sans-Serif" font-size="10.00">analysis/plot/HistogramFactory.h</text>
</a>
</g>
<!-- Node2&#45;&gt;Node4 -->
<g id="edge8" class="edge"><title>Node2&#45;&gt;Node4</title>
<path fill="none" stroke="midnightblue" d="M2574.75,-536.495C2593.63,-529.076 2616.13,-517.326 2630.59,-500 2670.51,-452.132 2671.52,-373.194 2669.41,-335.835"/>
<polygon fill="midnightblue" stroke="midnightblue" points="2672.89,-335.387 2668.7,-325.657 2665.91,-335.878 2672.89,-335.387"/>
</g>
<!-- Node16 -->
<g id="node36" class="node"><title>Node16</title>
<polygon fill="white" stroke="#bfbfbf" points="2984.09,-116.5 2984.09,-137.5 3025.09,-137.5 3025.09,-116.5 2984.09,-116.5"/>
<text text-anchor="middle" x="3004.59" y="-124.5" font-family="Helvetica,sans-Serif" font-size="10.00">string</text>
</g>
<!-- Node2&#45;&gt;Node16 -->
<g id="edge326" class="edge"><title>Node2&#45;&gt;Node16</title>
<path fill="none" stroke="midnightblue" d="M2608.93,-544.802C2734.1,-540.127 2990.08,-527.318 3019.59,-500 3108.01,-418.143 3070.86,-352.058 3060.59,-232 3058.35,-205.937 3062.49,-197.29 3050.59,-174 3044.85,-162.793 3035.53,-152.521 3026.77,-144.458"/>
<polygon fill="midnightblue" stroke="midnightblue" points="3028.84,-141.626 3019,-137.711 3024.25,-146.911 3028.84,-141.626"/>
</g>
<!-- Node2&#45;&gt;Node17 -->
<g id="edge42" class="edge"><title>Node2&#45;&gt;Node17</title>
<path fill="none" stroke="midnightblue" d="M2472.41,-540.358C2410.75,-533.19 2325.62,-520.035 2298.59,-500 2242.38,-458.353 2215.3,-374.768 2205.31,-335.839"/>
<polygon fill="midnightblue" stroke="midnightblue" points="2208.66,-334.794 2202.89,-325.907 2201.86,-336.451 2208.66,-334.794"/>
</g>
<!-- Node18 -->
<g id="node42" class="node"><title>Node18</title>
<polygon fill="white" stroke="#bfbfbf" points="2121.09,-239.5 2121.09,-260.5 2150.09,-260.5 2150.09,-239.5 2121.09,-239.5"/>
<text text-anchor="middle" x="2135.59" y="-247.5" font-family="Helvetica,sans-Serif" font-size="10.00">list</text>
</g>
<!-- Node2&#45;&gt;Node18 -->
<g id="edge324" class="edge"><title>Node2&#45;&gt;Node18</title>
<path fill="none" stroke="midnightblue" d="M2537.31,-536.442C2532.17,-521.519 2520.88,-494.265 2502.59,-478 2368.49,-358.787 2228.77,-474.854 2128.59,-326 2117.6,-309.679 2121.71,-286.724 2127.1,-270.321"/>
<polygon fill="midnightblue" stroke="midnightblue" points="2130.5,-271.217 2130.69,-260.624 2123.94,-268.792 2130.5,-271.217"/>
</g>
<!-- Node19 -->
<g id="node45" class="node"><title>Node19</title>
<polygon fill="white" stroke="#bfbfbf" points="2005.59,-174.5 2005.59,-195.5 2057.59,-195.5 2057.59,-174.5 2005.59,-174.5"/>
<text text-anchor="middle" x="2031.59" y="-182.5" font-family="Helvetica,sans-Serif" font-size="10.00">memory</text>
</g>
<!-- Node2&#45;&gt;Node19 -->
<g id="edge330" class="edge"><title>Node2&#45;&gt;Node19</title>
<path fill="none" stroke="midnightblue" d="M2546.97,-536.242C2552.06,-526.994 2558.79,-513.111 2561.59,-500 2566.31,-477.835 2554.16,-421.311 2553.59,-420 2540.12,-389.369 2530.88,-383.903 2505.59,-362 2482.36,-341.892 2472.28,-342.829 2446.59,-326 2385.73,-286.145 2379.91,-259.572 2312.59,-232 2290.27,-222.861 2138.93,-200.377 2068.06,-190.179"/>
<polygon fill="midnightblue" stroke="midnightblue" points="2068.2,-186.664 2057.81,-188.709 2067.21,-193.593 2068.2,-186.664"/>
</g>
<!-- Node20 -->
<g id="node47" class="node"><title>Node20</title>
<polygon fill="white" stroke="#bfbfbf" points="1588.09,-174.5 1588.09,-195.5 1647.09,-195.5 1647.09,-174.5 1588.09,-174.5"/>
<text text-anchor="middle" x="1617.59" y="-182.5" font-family="Helvetica,sans-Serif" font-size="10.00">functional</text>
</g>
<!-- Node2&#45;&gt;Node20 -->
<g id="edge332" class="edge"><title>Node2&#45;&gt;Node20</title>
<path fill="none" stroke="midnightblue" d="M2472.4,-544.195C2295.99,-536.055 1828.69,-508.637 1690.59,-442 1650.38,-422.599 1617.59,-417.644 1617.59,-373 1617.59,-373 1617.59,-373 1617.59,-315 1617.59,-276.466 1617.59,-231.508 1617.59,-205.834"/>
<polygon fill="midnightblue" stroke="midnightblue" points="1621.09,-205.786 1617.59,-195.786 1614.09,-205.786 1621.09,-205.786"/>
</g>
<!-- Node22 -->
<g id="node52" class="node"><title>Node22</title>
<polygon fill="white" stroke="#bfbfbf" points="2307.09,-478.5 2307.09,-499.5 2358.09,-499.5 2358.09,-478.5 2307.09,-478.5"/>
<text text-anchor="middle" x="2332.59" y="-486.5" font-family="Helvetica,sans-Serif" font-size="10.00">TH1D.h</text>
</g>
<!-- Node2&#45;&gt;Node22 -->
<g id="edge58" class="edge"><title>Node2&#45;&gt;Node22</title>
<path fill="none" stroke="midnightblue" d="M2499.29,-536.456C2466.08,-527.838 2417.99,-515.057 2367.88,-500.301"/>
<polygon fill="midnightblue" stroke="midnightblue" points="2368.75,-496.908 2358.16,-497.424 2366.76,-503.62 2368.75,-496.908"/>
</g>
<!-- Node23 -->
<g id="node54" class="node"><title>Node23</title>
<polygon fill="white" stroke="#bfbfbf" points="2375.09,-478.5 2375.09,-499.5 2426.09,-499.5 2426.09,-478.5 2375.09,-478.5"/>
<text text-anchor="middle" x="2400.59" y="-486.5" font-family="Helvetica,sans-Serif" font-size="10.00">TH2D.h</text>
</g>
<!-- Node2&#45;&gt;Node23 -->
<g id="edge60" class="edge"><title>Node2&#45;&gt;Node23</title>
<path fill="none" stroke="midnightblue" d="M2515.23,-536.497C2492.97,-527.275 2460.37,-513.769 2435.62,-503.515"/>
<polygon fill="midnightblue" stroke="midnightblue" points="2436.8,-500.215 2426.22,-499.621 2434.12,-506.682 2436.8,-500.215"/>
</g>
<!-- Node24 -->
<g id="node56" class="node"><title>Node24</title>
<polygon fill="white" stroke="#bfbfbf" points="2443.09,-478.5 2443.09,-499.5 2494.09,-499.5 2494.09,-478.5 2443.09,-478.5"/>
<text text-anchor="middle" x="2468.59" y="-486.5" font-family="Helvetica,sans-Serif" font-size="10.00">TH3D.h</text>
</g>
<!-- Node2&#45;&gt;Node24 -->
<g id="edge62" class="edge"><title>Node2&#45;&gt;Node24</title>
<path fill="none" stroke="midnightblue" d="M2527.38,-536.362C2516.82,-527.859 2501.83,-515.779 2489.62,-505.947"/>
<polygon fill="midnightblue" stroke="midnightblue" points="2491.69,-503.118 2481.71,-499.571 2487.3,-508.57 2491.69,-503.118"/>
</g>
<!-- Node25 -->
<g id="node58" class="node"><title>Node25</title>
<a xlink:href="_t_event_8h.html" target="_top" xlink:title="tree/TEvent.h">
<polygon fill="white" stroke="black" points="2455.59,-304.5 2455.59,-325.5 2531.59,-325.5 2531.59,-304.5 2455.59,-304.5"/>
<text text-anchor="middle" x="2493.59" y="-312.5" font-family="Helvetica,sans-Serif" font-size="10.00">tree/TEvent.h</text>
</a>
</g>
<!-- Node2&#45;&gt;Node25 -->
<g id="edge64" class="edge"><title>Node2&#45;&gt;Node25</title>
<path fill="none" stroke="midnightblue" d="M2568.64,-536.353C2584.32,-528.784 2602.49,-516.929 2611.59,-500 2640.61,-445.971 2646.01,-412.763 2611.59,-362 2595.91,-338.879 2566.85,-327.132 2541.49,-321.163"/>
<polygon fill="midnightblue" stroke="midnightblue" points="2542.14,-317.723 2531.63,-319.079 2540.69,-324.571 2542.14,-317.723"/>
</g>
<!-- Node26 -->
<g id="node63" class="node"><title>Node26</title>
<a xlink:href="_t_event_data_8h.html" target="_top" xlink:title="tree/TEventData.h">
<polygon fill="white" stroke="black" points="1012.09,-478.5 1012.09,-499.5 1109.09,-499.5 1109.09,-478.5 1012.09,-478.5"/>
<text text-anchor="middle" x="1060.59" y="-486.5" font-family="Helvetica,sans-Serif" font-size="10.00">tree/TEventData.h</text>
</a>
</g>
<!-- Node2&#45;&gt;Node26 -->
<g id="edge72" class="edge"><title>Node2&#45;&gt;Node26</title>
<path fill="none" stroke="midnightblue" d="M2472.17,-544.319C2221.21,-534.484 1353.68,-500.486 1119.33,-491.302"/>
<polygon fill="midnightblue" stroke="midnightblue" points="1119.43,-487.803 1109.3,-490.909 1119.16,-494.798 1119.43,-487.803"/>
</g>
<!-- Node2&#45;&gt;Node56 -->
<g id="edge328" class="edge"><title>Node2&#45;&gt;Node56</title>
<path fill="none" stroke="midnightblue" d="M2608.72,-545.157C2756.56,-540.661 3097.14,-527.432 3141.59,-500 3182.82,-474.55 3236.16,-361.342 3256.59,-268 3261.16,-247.086 3259.42,-222.512 3257.15,-205.558"/>
<polygon fill="midnightblue" stroke="midnightblue" points="3260.61,-204.994 3255.64,-195.633 3253.68,-206.045 3260.61,-204.994"/>
</g>
<!-- Node65 -->
<g id="node219" class="node"><title>Node65</title>
<a xlink:href="_options_list_8h.html" target="_top" xlink:title="base/OptionsList.h">
<polygon fill="white" stroke="black" points="3127.59,-239.5 3127.59,-260.5 3225.59,-260.5 3225.59,-239.5 3127.59,-239.5"/>
<text text-anchor="middle" x="3176.59" y="-247.5" font-family="Helvetica,sans-Serif" font-size="10.00">base/OptionsList.h</text>
</a>
</g>
<!-- Node2&#45;&gt;Node65 -->
<g id="edge306" class="edge"><title>Node2&#45;&gt;Node65</title>
<path fill="none" stroke="midnightblue" d="M2608.69,-545.903C2753.26,-542.947 3080.71,-532.683 3118.59,-500 3186.81,-441.127 3183.43,-319.242 3179.01,-270.651"/>
<polygon fill="midnightblue" stroke="midnightblue" points="3182.49,-270.287 3177.99,-260.695 3175.53,-271 3182.49,-270.287"/>
</g>
<!-- Node67 -->
<g id="node227" class="node"><title>Node67</title>
<a xlink:href="memory_8h.html" target="_top" xlink:title="base/std_ext/memory.h">
<polygon fill="white" stroke="black" points="2281.09,-304.5 2281.09,-325.5 2400.09,-325.5 2400.09,-304.5 2281.09,-304.5"/>
<text text-anchor="middle" x="2340.59" y="-312.5" font-family="Helvetica,sans-Serif" font-size="10.00">base/std_ext/memory.h</text>
</a>
</g>
<!-- Node2&#45;&gt;Node67 -->
<g id="edge318" class="edge"><title>Node2&#45;&gt;Node67</title>
<path fill="none" stroke="midnightblue" d="M2543.03,-536.367C2547.7,-513.54 2555.73,-458.77 2535.59,-420 2509.36,-369.511 2448.3,-342.308 2401.44,-328.34"/>
<polygon fill="midnightblue" stroke="midnightblue" points="2402.25,-324.932 2391.67,-325.557 2400.33,-331.663 2402.25,-324.932"/>
</g>
<!-- Node5 -->
<g id="node11" class="node"><title>Node5</title>
<a xlink:href="interval_8h.html" target="_top" xlink:title="base/interval.h">
<polygon fill="white" stroke="black" points="2265.59,-174.5 2265.59,-195.5 2345.59,-195.5 2345.59,-174.5 2265.59,-174.5"/>
<text text-anchor="middle" x="2305.59" y="-182.5" font-family="Helvetica,sans-Serif" font-size="10.00">base/interval.h</text>
</a>
</g>
<!-- Node4&#45;&gt;Node5 -->
<g id="edge10" class="edge"><title>Node4&#45;&gt;Node5</title>
<path fill="none" stroke="midnightblue" d="M2655.27,-304.286C2644.47,-294.832 2628.37,-280.631 2614.59,-268 2597.44,-252.28 2597.42,-242.357 2576.59,-232 2489.05,-188.477 2455.72,-213.76 2359.59,-196 2358.31,-195.765 2357.03,-195.525 2355.73,-195.28"/>
<polygon fill="midnightblue" stroke="midnightblue" points="2356.14,-191.794 2345.66,-193.333 2354.81,-198.667 2356.14,-191.794"/>
</g>
<!-- Node13 -->
<g id="node27" class="node"><title>Node13</title>
<a xlink:href="_bin_settings_8h.html" target="_top" xlink:title="base/BinSettings.h">
<polygon fill="white" stroke="black" points="2469.09,-239.5 2469.09,-260.5 2568.09,-260.5 2568.09,-239.5 2469.09,-239.5"/>
<text text-anchor="middle" x="2518.59" y="-247.5" font-family="Helvetica,sans-Serif" font-size="10.00">base/BinSettings.h</text>
</a>
</g>
<!-- Node4&#45;&gt;Node13 -->
<g id="edge26" class="edge"><title>Node4&#45;&gt;Node13</title>
<path fill="none" stroke="midnightblue" d="M2643.31,-304.412C2618.53,-293.6 2579.86,-276.731 2552.15,-264.642"/>
<polygon fill="midnightblue" stroke="midnightblue" points="2553.41,-261.374 2542.85,-260.584 2550.61,-267.79 2553.41,-261.374"/>
</g>
<!-- Node14 -->
<g id="node30" class="node"><title>Node14</title>
<polygon fill="white" stroke="#bfbfbf" points="1224.59,-58.5 1224.59,-79.5 1268.59,-79.5 1268.59,-58.5 1224.59,-58.5"/>
<text text-anchor="middle" x="1246.59" y="-66.5" font-family="Helvetica,sans-Serif" font-size="10.00">vector</text>
</g>
<!-- Node4&#45;&gt;Node14 -->
<g id="edge40" class="edge"><title>Node4&#45;&gt;Node14</title>
<path fill="none" stroke="midnightblue" d="M2676.39,-304.334C2689.39,-287.234 2710.36,-253.432 2692.59,-232 2637.45,-165.501 2581.58,-228.614 2501.59,-196 2485.26,-189.345 2484.59,-181.382 2468.59,-174 2415.31,-149.43 2395.34,-161.514 2341.59,-138 2324.41,-130.485 2323.52,-121.478 2305.59,-116 2205.37,-85.3895 1445.3,-72.0449 1278.77,-69.4724"/>
<polygon fill="midnightblue" stroke="midnightblue" points="1278.72,-65.9714 1268.67,-69.3185 1278.61,-72.9706 1278.72,-65.9714"/>
</g>
<!-- Node4&#45;&gt;Node16 -->
<g id="edge38" class="edge"><title>Node4&#45;&gt;Node16</title>
<path fill="none" stroke="midnightblue" d="M2748.47,-309.23C2842.79,-301.664 2987.98,-287.078 3004.59,-268 3033.77,-234.467 3021.55,-177.561 3011.98,-147.313"/>
<polygon fill="midnightblue" stroke="midnightblue" points="3015.29,-146.168 3008.78,-137.808 3008.65,-148.402 3015.29,-146.168"/>
</g>
<!-- Node6 -->
<g id="node13" class="node"><title>Node6</title>
<a xlink:href="types_8h.html" target="_top" xlink:title="types.h">
<polygon fill="white" stroke="black" points="2707.09,-116.5 2707.09,-137.5 2756.09,-137.5 2756.09,-116.5 2707.09,-116.5"/>
<text text-anchor="middle" x="2731.59" y="-124.5" font-family="Helvetica,sans-Serif" font-size="10.00">types.h</text>
</a>
</g>
<!-- Node5&#45;&gt;Node6 -->
<g id="edge12" class="edge"><title>Node5&#45;&gt;Node6</title>
<path fill="none" stroke="midnightblue" d="M2345.66,-179.544C2428.65,-168.245 2618.08,-142.454 2696.54,-131.771"/>
<polygon fill="midnightblue" stroke="midnightblue" points="2697.42,-135.184 2706.86,-130.367 2696.47,-128.248 2697.42,-135.184"/>
</g>
<!-- Node7 -->
<g id="node15" class="node"><title>Node7</title>
<polygon fill="white" stroke="#bfbfbf" points="1353.59,-116.5 1353.59,-137.5 1409.59,-137.5 1409.59,-116.5 1353.59,-116.5"/>
<text text-anchor="middle" x="1381.59" y="-124.5" font-family="Helvetica,sans-Serif" font-size="10.00">algorithm</text>
</g>
<!-- Node5&#45;&gt;Node7 -->
<g id="edge14" class="edge"><title>Node5&#45;&gt;Node7</title>
<path fill="none" stroke="midnightblue" d="M2265.49,-181.344C2239.8,-179.067 2205.75,-176.168 2175.59,-174 1885.08,-153.115 1534.3,-134.741 1419.76,-128.916"/>
<polygon fill="midnightblue" stroke="midnightblue" points="1419.9,-125.419 1409.73,-128.408 1419.54,-132.41 1419.9,-125.419"/>
</g>
<!-- Node8 -->
<g id="node17" class="node"><title>Node8</title>
<polygon fill="white" stroke="#bfbfbf" points="2056.09,-116.5 2056.09,-137.5 2115.09,-137.5 2115.09,-116.5 2056.09,-116.5"/>
<text text-anchor="middle" x="2085.59" y="-124.5" font-family="Helvetica,sans-Serif" font-size="10.00">stdexcept</text>
</g>
<!-- Node5&#45;&gt;Node8 -->
<g id="edge16" class="edge"><title>Node5&#45;&gt;Node8</title>
<path fill="none" stroke="midnightblue" d="M2265.74,-174.497C2225.88,-163.986 2164.91,-147.912 2125.14,-137.428"/>
<polygon fill="midnightblue" stroke="midnightblue" points="2125.83,-133.989 2115.26,-134.824 2124.04,-140.758 2125.83,-133.989"/>
</g>
<!-- Node9 -->
<g id="node19" class="node"><title>Node9</title>
<polygon fill="white" stroke="#bfbfbf" points="2483.59,-58.5 2483.59,-79.5 2523.59,-79.5 2523.59,-58.5 2483.59,-58.5"/>
<text text-anchor="middle" x="2503.59" y="-66.5" font-family="Helvetica,sans-Serif" font-size="10.00">limits</text>
</g>
<!-- Node5&#45;&gt;Node9 -->
<g id="edge18" class="edge"><title>Node5&#45;&gt;Node9</title>
<path fill="none" stroke="midnightblue" d="M2345.91,-178.936C2391.89,-171.247 2463.19,-156.708 2482.59,-138 2495.57,-125.477 2500.59,-105.203 2502.5,-89.8637"/>
<polygon fill="midnightblue" stroke="midnightblue" points="2506,-90.0217 2503.41,-79.7483 2499.02,-89.3946 2506,-90.0217"/>
</g>
<!-- Node10 -->
<g id="node21" class="node"><title>Node10</title>
<polygon fill="white" stroke="#bfbfbf" points="2213.09,-116.5 2213.09,-137.5 2262.09,-137.5 2262.09,-116.5 2213.09,-116.5"/>
<text text-anchor="middle" x="2237.59" y="-124.5" font-family="Helvetica,sans-Serif" font-size="10.00">istream</text>
</g>
<!-- Node5&#45;&gt;Node10 -->
<g id="edge20" class="edge"><title>Node5&#45;&gt;Node10</title>
<path fill="none" stroke="midnightblue" d="M2293.11,-174.362C2283.24,-165.941 2269.25,-154.011 2257.79,-144.231"/>
<polygon fill="midnightblue" stroke="midnightblue" points="2259.86,-141.397 2249.98,-137.571 2255.32,-146.723 2259.86,-141.397"/>
</g>
<!-- Node11 -->
<g id="node23" class="node"><title>Node11</title>
<polygon fill="white" stroke="#bfbfbf" points="959.585,-116.5 959.585,-137.5 1011.59,-137.5 1011.59,-116.5 959.585,-116.5"/>
<text text-anchor="middle" x="985.585" y="-124.5" font-family="Helvetica,sans-Serif" font-size="10.00">sstream</text>
</g>
<!-- Node5&#45;&gt;Node11 -->
<g id="edge22" class="edge"><title>Node5&#45;&gt;Node11</title>
<path fill="none" stroke="midnightblue" d="M2265.51,-181.079C2239.83,-178.698 2205.77,-175.783 2175.59,-174 1699.7,-145.894 1579.34,-168.137 1103.59,-138 1076.16,-136.263 1045.24,-133.345 1021.93,-130.95"/>
<polygon fill="midnightblue" stroke="midnightblue" points="1022.1,-127.45 1011.8,-129.893 1021.38,-134.412 1022.1,-127.45"/>
</g>
<!-- Node12 -->
<g id="node25" class="node"><title>Node12</title>
<polygon fill="white" stroke="#bfbfbf" points="336.585,-0.5 336.585,-21.5 380.585,-21.5 380.585,-0.5 336.585,-0.5"/>
<text text-anchor="middle" x="358.585" y="-8.5" font-family="Helvetica,sans-Serif" font-size="10.00">cmath</text>
</g>
<!-- Node5&#45;&gt;Node12 -->
<g id="edge24" class="edge"><title>Node5&#45;&gt;Node12</title>
<path fill="none" stroke="midnightblue" d="M2345.86,-179.424C2396.14,-171.787 2478.49,-156.848 2502.59,-138 2532.49,-114.603 2559.14,-85.1398 2532.59,-58 2493.42,-17.977 658.327,-11.7675 390.945,-11.0748"/>
<polygon fill="midnightblue" stroke="midnightblue" points="390.747,-7.57442 380.739,-11.0491 390.73,-14.5744 390.747,-7.57442"/>
</g>
<!-- Node13&#45;&gt;Node5 -->
<g id="edge28" class="edge"><title>Node13&#45;&gt;Node5</title>
<path fill="none" stroke="midnightblue" d="M2483.89,-239.412C2447.37,-228.269 2389.78,-210.694 2349.98,-198.547"/>
<polygon fill="midnightblue" stroke="midnightblue" points="2350.85,-195.155 2340.27,-195.584 2348.81,-201.85 2350.85,-195.155"/>
</g>
<!-- Node13&#45;&gt;Node8 -->
<g id="edge32" class="edge"><title>Node13&#45;&gt;Node8</title>
<path fill="none" stroke="midnightblue" d="M2485.13,-239.463C2475.65,-236.744 2465.27,-234.019 2455.59,-232 2337.07,-207.305 2298.53,-239.582 2185.59,-196 2154.56,-184.028 2123.82,-160.629 2104.78,-144.421"/>
<polygon fill="midnightblue" stroke="midnightblue" points="2106.97,-141.689 2097.13,-137.758 2102.37,-146.966 2106.97,-141.689"/>
</g>
<!-- Node13&#45;&gt;Node10 -->
<g id="edge34" class="edge"><title>Node13&#45;&gt;Node10</title>
<path fill="none" stroke="midnightblue" d="M2484.09,-239.475C2474.87,-236.848 2464.89,-234.166 2455.59,-232 2368.04,-211.629 2322.93,-256.64 2256.59,-196 2243.3,-183.858 2238.97,-163.367 2237.71,-147.862"/>
<polygon fill="midnightblue" stroke="midnightblue" points="2241.19,-147.477 2237.25,-137.643 2234.2,-147.79 2241.19,-147.477"/>
</g>
<!-- Node13&#45;&gt;Node14 -->
<g id="edge30" class="edge"><title>Node13&#45;&gt;Node14</title>
<path fill="none" stroke="midnightblue" d="M2480.4,-239.413C2470.41,-236.816 2459.63,-234.163 2449.59,-232 2356.58,-211.975 2326.63,-232.027 2238.59,-196 2180.96,-172.421 2182.47,-136.215 2123.59,-116 2042.6,-88.1992 1428.51,-72.9997 1279.22,-69.692"/>
<polygon fill="midnightblue" stroke="midnightblue" points="1278.97,-66.1859 1268.9,-69.466 1278.82,-73.1842 1278.97,-66.1859"/>
</g>
<!-- Node15 -->
<g id="node34" class="node"><title>Node15</title>
<polygon fill="white" stroke="#bfbfbf" points="2616.59,-58.5 2616.59,-79.5 2668.59,-79.5 2668.59,-58.5 2616.59,-58.5"/>
<text text-anchor="middle" x="2642.59" y="-66.5" font-family="Helvetica,sans-Serif" font-size="10.00">ostream</text>
</g>
<!-- Node13&#45;&gt;Node15 -->
<g id="edge36" class="edge"><title>Node13&#45;&gt;Node15</title>
<path fill="none" stroke="midnightblue" d="M2520.22,-239.271C2523.03,-223.674 2529.93,-194.38 2544.59,-174 2559.95,-152.637 2573.14,-156.764 2591.59,-138 2606.66,-122.663 2620.95,-102.679 2630.55,-88.1678"/>
<polygon fill="midnightblue" stroke="midnightblue" points="2633.65,-89.8234 2636.14,-79.5259 2627.77,-86.0216 2633.65,-89.8234"/>
</g>
<!-- Node17&#45;&gt;Node13 -->
<g id="edge54" class="edge"><title>Node17&#45;&gt;Node13</title>
<path fill="none" stroke="midnightblue" d="M2252.03,-304.484C2308.61,-292.919 2399.4,-274.362 2459.02,-262.175"/>
<polygon fill="midnightblue" stroke="midnightblue" points="2459.95,-265.558 2469.05,-260.126 2458.55,-258.7 2459.95,-265.558"/>
</g>
<!-- Node17&#45;&gt;Node14 -->
<g id="edge48" class="edge"><title>Node17&#45;&gt;Node14</title>
<path fill="none" stroke="midnightblue" d="M2136.98,-312.22C2080.04,-309.799 1994.25,-306.324 1919.59,-304 1876.34,-302.654 392.82,-298.942 362.585,-268 228.552,-130.832 462.459,-140.862 601.585,-116 721.371,-94.5943 1100.72,-75.7423 1214.21,-70.4656"/>
<polygon fill="midnightblue" stroke="midnightblue" points="1214.51,-73.9553 1224.34,-69.9977 1214.19,-66.9627 1214.51,-73.9553"/>
</g>
<!-- Node17&#45;&gt;Node16 -->
<g id="edge44" class="edge"><title>Node17&#45;&gt;Node16</title>
<path fill="none" stroke="midnightblue" d="M2264.15,-305.033C2267,-304.667 2269.82,-304.32 2272.59,-304 2473.21,-280.734 2531.69,-324.542 2725.59,-268 2811.1,-243.064 2822.77,-213.543 2902.59,-174 2926.46,-162.173 2953.91,-149.581 2974.31,-140.411"/>
<polygon fill="midnightblue" stroke="midnightblue" points="2976.02,-143.481 2983.71,-136.202 2973.16,-137.092 2976.02,-143.481"/>
</g>
<!-- Node17&#45;&gt;Node18 -->
<g id="edge46" class="edge"><title>Node17&#45;&gt;Node18</title>
<path fill="none" stroke="midnightblue" d="M2189.85,-304.267C2179.91,-294.328 2164.95,-279.363 2153.25,-267.664"/>
<polygon fill="midnightblue" stroke="midnightblue" points="2155.66,-265.13 2146.12,-260.534 2150.71,-270.08 2155.66,-265.13"/>
</g>
<!-- Node17&#45;&gt;Node19 -->
<g id="edge50" class="edge"><title>Node17&#45;&gt;Node19</title>
<path fill="none" stroke="midnightblue" d="M2225.02,-304.473C2239.68,-296.715 2257.09,-284.617 2265.59,-268 2272.87,-253.752 2275.81,-244.303 2265.59,-232 2237.55,-198.285 2114.32,-205.822 2071.59,-196 2070.32,-195.71 2069.04,-195.406 2067.74,-195.091"/>
<polygon fill="midnightblue" stroke="midnightblue" points="2068.31,-191.624 2057.75,-192.539 2066.58,-198.406 2068.31,-191.624"/>
</g>
<!-- Node17&#45;&gt;Node20 -->
<g id="edge52" class="edge"><title>Node17&#45;&gt;Node20</title>
<path fill="none" stroke="midnightblue" d="M2211.08,-304.225C2226.64,-286.97 2252,-252.958 2232.59,-232 2212.99,-210.849 1790.91,-192.014 1657.58,-186.574"/>
<polygon fill="midnightblue" stroke="midnightblue" points="1657.53,-183.07 1647.39,-186.162 1657.24,-190.064 1657.53,-183.07"/>
</g>
<!-- Node21 -->
<g id="node50" class="node"><title>Node21</title>
<polygon fill="white" stroke="#bfbfbf" points="2167.59,-239.5 2167.59,-260.5 2223.59,-260.5 2223.59,-239.5 2167.59,-239.5"/>
<text text-anchor="middle" x="2195.59" y="-247.5" font-family="Helvetica,sans-Serif" font-size="10.00">Rtypes.h</text>
</g>
<!-- Node17&#45;&gt;Node21 -->
<g id="edge56" class="edge"><title>Node17&#45;&gt;Node21</title>
<path fill="none" stroke="midnightblue" d="M2199.76,-304.267C2199.06,-295.18 2198.04,-281.892 2197.18,-270.74"/>
<polygon fill="midnightblue" stroke="midnightblue" points="2200.65,-270.236 2196.4,-260.534 2193.67,-270.773 2200.65,-270.236"/>
</g>
<!-- Node25&#45;&gt;Node8 -->
<g id="edge70" class="edge"><title>Node25&#45;&gt;Node8</title>
<path fill="none" stroke="midnightblue" d="M2485.33,-304.29C2469.38,-283.897 2434.4,-240.736 2417.59,-232 2307.02,-174.569 2247.84,-257.663 2139.59,-196 2119.66,-184.653 2104.48,-162.75 2095.36,-146.654"/>
<polygon fill="midnightblue" stroke="midnightblue" points="2098.29,-144.695 2090.48,-137.528 2092.11,-147.997 2098.29,-144.695"/>
</g>
<!-- Node25&#45;&gt;Node19 -->
<g id="edge68" class="edge"><title>Node25&#45;&gt;Node19</title>
<path fill="none" stroke="midnightblue" d="M2478.57,-304.465C2465.14,-295.007 2444.96,-280.7 2427.59,-268 2406.06,-252.265 2404.35,-241.889 2379.59,-232 2251.59,-180.889 2206.86,-222.348 2071.59,-196 2070.31,-195.752 2069.02,-195.485 2067.72,-195.202"/>
<polygon fill="midnightblue" stroke="midnightblue" points="2068.24,-191.727 2057.7,-192.794 2066.61,-198.534 2068.24,-191.727"/>
</g>
<!-- Node25&#45;&gt;Node21 -->
<g id="edge66" class="edge"><title>Node25&#45;&gt;Node21</title>
<path fill="none" stroke="midnightblue" d="M2455.54,-306.702C2398.37,-294.233 2290.94,-270.799 2233.72,-258.318"/>
<polygon fill="midnightblue" stroke="midnightblue" points="2234.16,-254.832 2223.64,-256.12 2232.67,-261.671 2234.16,-254.832"/>
</g>
<!-- Node27 -->
<g id="node65" class="node"><title>Node27</title>
<a xlink:href="_t_i_d_8h.html" target="_top" xlink:title="TID.h">
<polygon fill="white" stroke="black" points="567.085,-304.5 567.085,-325.5 608.085,-325.5 608.085,-304.5 567.085,-304.5"/>
<text text-anchor="middle" x="587.585" y="-312.5" font-family="Helvetica,sans-Serif" font-size="10.00">TID.h</text>
</a>
</g>
<!-- Node26&#45;&gt;Node27 -->
<g id="edge74" class="edge"><title>Node26&#45;&gt;Node27</title>
<path fill="none" stroke="midnightblue" d="M1031.71,-478.377C947.588,-447.432 703.284,-357.561 617.661,-326.064"/>
<polygon fill="midnightblue" stroke="midnightblue" points="618.85,-322.772 608.256,-322.604 616.433,-329.342 618.85,-322.772"/>
</g>
<!-- Node36 -->
<g id="node91" class="node"><title>Node36</title>
<a xlink:href="_t_detector_read_hit_8h.html" target="_top" xlink:title="TDetectorReadHit.h">
<polygon fill="white" stroke="black" points="909.585,-239.5 909.585,-260.5 1013.59,-260.5 1013.59,-239.5 909.585,-239.5"/>
<text text-anchor="middle" x="961.585" y="-247.5" font-family="Helvetica,sans-Serif" font-size="10.00">TDetectorReadHit.h</text>
</a>
</g>
<!-- Node26&#45;&gt;Node36 -->
<g id="edge108" class="edge"><title>Node26&#45;&gt;Node36</title>
<path fill="none" stroke="midnightblue" d="M1056.2,-478.422C1040.97,-441.643 990.136,-318.925 969.95,-270.195"/>
<polygon fill="midnightblue" stroke="midnightblue" points="973.089,-268.626 966.028,-260.727 966.622,-271.305 973.089,-268.626"/>
</g>
<!-- Node43 -->
<g id="node118" class="node"><title>Node43</title>
<a xlink:href="_t_slow_control_8h.html" target="_top" xlink:title="TSlowControl.h">
<polygon fill="white" stroke="black" points="497.585,-362.5 497.585,-383.5 581.585,-383.5 581.585,-362.5 497.585,-362.5"/>
<text text-anchor="middle" x="539.585" y="-370.5" font-family="Helvetica,sans-Serif" font-size="10.00">TSlowControl.h</text>
</a>
</g>
<!-- Node26&#45;&gt;Node43 -->
<g id="edge148" class="edge"><title>Node26&#45;&gt;Node43</title>
<path fill="none" stroke="midnightblue" d="M1011.87,-483.766C951.632,-476.764 846.212,-462.771 757.585,-442 693.4,-426.957 620.754,-402.396 577.632,-386.995"/>
<polygon fill="midnightblue" stroke="midnightblue" points="578.705,-383.661 568.111,-383.571 576.337,-390.248 578.705,-383.661"/>
</g>
<!-- Node44 -->
<g id="node124" class="node"><title>Node44</title>
<a xlink:href="_t_unpacker_message_8h.html" target="_top" xlink:title="TUnpackerMessage.h">
<polygon fill="white" stroke="black" points="2553.09,-174.5 2553.09,-195.5 2666.09,-195.5 2666.09,-174.5 2553.09,-174.5"/>
<text text-anchor="middle" x="2609.59" y="-182.5" font-family="Helvetica,sans-Serif" font-size="10.00">TUnpackerMessage.h</text>
</a>
</g>
<!-- Node26&#45;&gt;Node44 -->
<g id="edge158" class="edge"><title>Node26&#45;&gt;Node44</title>
<path fill="none" stroke="midnightblue" d="M1109.52,-488.226C1376.16,-483.501 2646.09,-454.334 2756.59,-326 2784.17,-293.965 2749.37,-266.607 2709.59,-232 2693.19,-217.741 2671.73,-206.899 2652.9,-199.242"/>
<polygon fill="midnightblue" stroke="midnightblue" points="2653.91,-195.883 2643.33,-195.527 2651.38,-202.409 2653.91,-195.883"/>
</g>
<!-- Node47 -->
<g id="node132" class="node"><title>Node47</title>
<a xlink:href="_t_tagger_hit_8h.html" target="_top" xlink:title="TTaggerHit.h">
<polygon fill="white" stroke="black" points="626.585,-362.5 626.585,-383.5 700.585,-383.5 700.585,-362.5 626.585,-362.5"/>
<text text-anchor="middle" x="663.585" y="-370.5" font-family="Helvetica,sans-Serif" font-size="10.00">TTaggerHit.h</text>
</a>
</g>
<!-- Node26&#45;&gt;Node47 -->
<g id="edge168" class="edge"><title>Node26&#45;&gt;Node47</title>
<path fill="none" stroke="midnightblue" d="M1012.03,-482.879C962.589,-475.88 884.1,-462.649 818.585,-442 773.209,-427.698 723.389,-403.976 692.797,-388.414"/>
<polygon fill="midnightblue" stroke="midnightblue" points="694.063,-385.13 683.569,-383.67 690.863,-391.355 694.063,-385.13"/>
</g>
<!-- Node49 -->
<g id="node141" class="node"><title>Node49</title>
<a xlink:href="_t_trigger_8h.html" target="_top" xlink:title="TTrigger.h">
<polygon fill="white" stroke="black" points="2623.09,-239.5 2623.09,-260.5 2684.09,-260.5 2684.09,-239.5 2623.09,-239.5"/>
<text text-anchor="middle" x="2653.59" y="-247.5" font-family="Helvetica,sans-Serif" font-size="10.00">TTrigger.h</text>
</a>
</g>
<!-- Node26&#45;&gt;Node49 -->
<g id="edge182" class="edge"><title>Node26&#45;&gt;Node49</title>
<path fill="none" stroke="midnightblue" d="M1109.27,-487.05C1333.84,-477.543 2270.18,-432.125 2540.59,-326 2559.55,-318.557 2604.2,-286.689 2631.35,-266.657"/>
<polygon fill="midnightblue" stroke="midnightblue" points="2633.55,-269.384 2639.49,-260.615 2629.38,-263.761 2633.55,-269.384"/>
</g>
<!-- Node50 -->
<g id="node147" class="node"><title>Node50</title>
<a xlink:href="_t_target_8h.html" target="_top" xlink:title="TTarget.h">
<polygon fill="white" stroke="black" points="1852.09,-304.5 1852.09,-325.5 1911.09,-325.5 1911.09,-304.5 1852.09,-304.5"/>
<text text-anchor="middle" x="1881.59" y="-312.5" font-family="Helvetica,sans-Serif" font-size="10.00">TTarget.h</text>
</a>
</g>
<!-- Node26&#45;&gt;Node50 -->
<g id="edge192" class="edge"><title>Node26&#45;&gt;Node50</title>
<path fill="none" stroke="midnightblue" d="M1109.11,-487.965C1259.86,-484.449 1713.59,-471.505 1772.59,-442 1819.98,-418.297 1855.17,-363.908 1871.49,-334.586"/>
<polygon fill="midnightblue" stroke="midnightblue" points="1874.62,-336.147 1876.29,-325.684 1868.46,-332.824 1874.62,-336.147"/>
</g>
<!-- Node51 -->
<g id="node154" class="node"><title>Node51</title>
<a xlink:href="_t_cluster_8h.html" target="_top" xlink:title="TCluster.h">
<polygon fill="white" stroke="black" points="1029.59,-304.5 1029.59,-325.5 1091.59,-325.5 1091.59,-304.5 1029.59,-304.5"/>
<text text-anchor="middle" x="1060.59" y="-312.5" font-family="Helvetica,sans-Serif" font-size="10.00">TCluster.h</text>
</a>
</g>
<!-- Node26&#45;&gt;Node51 -->
<g id="edge204" class="edge"><title>Node26&#45;&gt;Node51</title>
<path fill="none" stroke="midnightblue" d="M1060.59,-478.377C1060.59,-450.293 1060.59,-373.673 1060.59,-336.203"/>
<polygon fill="midnightblue" stroke="midnightblue" points="1064.09,-335.928 1060.59,-325.928 1057.09,-335.928 1064.09,-335.928"/>
</g>
<!-- Node53 -->
<g id="node171" class="node"><title>Node53</title>
<a xlink:href="_t_candidate_8h.html" target="_top" xlink:title="TCandidate.h">
<polygon fill="white" stroke="black" points="899.085,-362.5 899.085,-383.5 974.085,-383.5 974.085,-362.5 899.085,-362.5"/>
<text text-anchor="middle" x="936.585" y="-370.5" font-family="Helvetica,sans-Serif" font-size="10.00">TCandidate.h</text>
</a>
</g>
<!-- Node26&#45;&gt;Node53 -->
<g id="edge234" class="edge"><title>Node26&#45;&gt;Node53</title>
<path fill="none" stroke="midnightblue" d="M1039.99,-478.408C1024.54,-469.861 1003.42,-456.845 987.585,-442 971.895,-427.291 957.682,-407.227 948.269,-392.526"/>
<polygon fill="midnightblue" stroke="midnightblue" points="951.064,-390.393 942.81,-383.75 945.12,-394.09 951.064,-390.393"/>
</g>
<!-- Node54 -->
<g id="node180" class="node"><title>Node54</title>
<a xlink:href="_t_particle_8h.html" target="_top" xlink:title="TParticle.h">
<polygon fill="white" stroke="black" points="1699.59,-420.5 1699.59,-441.5 1763.59,-441.5 1763.59,-420.5 1699.59,-420.5"/>
<text text-anchor="middle" x="1731.59" y="-428.5" font-family="Helvetica,sans-Serif" font-size="10.00">TParticle.h</text>
</a>
</g>
<!-- Node26&#45;&gt;Node54 -->
<g id="edge250" class="edge"><title>Node26&#45;&gt;Node54</title>
<path fill="none" stroke="midnightblue" d="M1109.11,-484.805C1235.06,-473.919 1570.81,-444.897 1689.39,-434.648"/>
<polygon fill="midnightblue" stroke="midnightblue" points="1689.86,-438.12 1699.52,-433.772 1689.25,-431.146 1689.86,-438.12"/>
</g>
<!-- Node27&#45;&gt;Node8 -->
<g id="edge100" class="edge"><title>Node27&#45;&gt;Node8</title>
<path fill="none" stroke="midnightblue" d="M608.361,-314.713C716.243,-313.077 1213.29,-303.693 1362.59,-268 1464.81,-243.56 1477.77,-200.074 1579.59,-174 1667.79,-151.411 1942.71,-134.694 2045.91,-129.065"/>
<polygon fill="midnightblue" stroke="midnightblue" points="2046.12,-132.558 2055.92,-128.524 2045.75,-125.569 2046.12,-132.558"/>
</g>
<!-- Node27&#45;&gt;Node18 -->
<g id="edge102" class="edge"><title>Node27&#45;&gt;Node18</title>
<path fill="none" stroke="midnightblue" d="M608.321,-314.418C785.324,-309.443 2036.67,-274.09 2074.59,-268 2086.81,-266.036 2100.03,-262.338 2111.03,-258.802"/>
<polygon fill="midnightblue" stroke="midnightblue" points="2112.43,-262.026 2120.79,-255.524 2110.2,-255.391 2112.43,-262.026"/>
</g>
<!-- Node27&#45;&gt;Node21 -->
<g id="edge76" class="edge"><title>Node27&#45;&gt;Node21</title>
<path fill="none" stroke="midnightblue" d="M608.328,-314.439C792.329,-309.458 2138.84,-272.861 2158.59,-268 2161.85,-267.198 2165.16,-266.083 2168.39,-264.798"/>
<polygon fill="midnightblue" stroke="midnightblue" points="2170.05,-267.886 2177.72,-260.574 2167.17,-261.509 2170.05,-267.886"/>
</g>
<!-- Node28 -->
<g id="node68" class="node"><title>Node28</title>
<a xlink:href="base_2std__ext_2_time_8h.html" target="_top" xlink:title="base/std_ext/time.h">
<polygon fill="white" stroke="black" points="371.085,-239.5 371.085,-260.5 474.085,-260.5 474.085,-239.5 371.085,-239.5"/>
<text text-anchor="middle" x="422.585" y="-247.5" font-family="Helvetica,sans-Serif" font-size="10.00">base/std_ext/time.h</text>
</a>
</g>
<!-- Node27&#45;&gt;Node28 -->
<g id="edge78" class="edge"><title>Node27&#45;&gt;Node28</title>
<path fill="none" stroke="midnightblue" d="M567.021,-306.899C539.973,-296.244 491.994,-277.343 458.798,-264.266"/>
<polygon fill="midnightblue" stroke="midnightblue" points="460.021,-260.986 449.434,-260.577 457.455,-267.498 460.021,-260.986"/>
</g>
<!-- Node31 -->
<g id="node78" class="node"><title>Node31</title>
<polygon fill="white" stroke="#bfbfbf" points="477.085,-174.5 477.085,-195.5 518.085,-195.5 518.085,-174.5 477.085,-174.5"/>
<text text-anchor="middle" x="497.585" y="-182.5" font-family="Helvetica,sans-Serif" font-size="10.00">ctime</text>
</g>
<!-- Node27&#45;&gt;Node31 -->
<g id="edge106" class="edge"><title>Node27&#45;&gt;Node31</title>
<path fill="none" stroke="midnightblue" d="M580.22,-304.362C565.057,-282.46 530.167,-232.062 510.926,-204.27"/>
<polygon fill="midnightblue" stroke="midnightblue" points="513.622,-202.015 505.052,-195.785 507.866,-206 513.622,-202.015"/>
</g>
<!-- Node32 -->
<g id="node80" class="node"><title>Node32</title>
<polygon fill="white" stroke="#bfbfbf" points="778.585,-116.5 778.585,-137.5 840.585,-137.5 840.585,-116.5 778.585,-116.5"/>
<text text-anchor="middle" x="809.585" y="-124.5" font-family="Helvetica,sans-Serif" font-size="10.00">type_traits</text>
</g>
<!-- Node27&#45;&gt;Node32 -->
<g id="edge94" class="edge"><title>Node27&#45;&gt;Node32</title>
<path fill="none" stroke="midnightblue" d="M567.056,-313.903C516.517,-310.732 388.319,-299.665 362.585,-268 352.494,-255.583 358.01,-247.332 362.585,-232 371.397,-202.469 374.216,-189.951 400.585,-174 468.602,-132.856 673.458,-151.537 768.338,-137.795"/>
<polygon fill="midnightblue" stroke="midnightblue" points="768.962,-141.24 778.26,-136.16 767.824,-134.333 768.962,-141.24"/>
</g>
<!-- Node33 -->
<g id="node82" class="node"><title>Node33</title>
<polygon fill="white" stroke="#bfbfbf" points="549.585,-174.5 549.585,-195.5 587.585,-195.5 587.585,-174.5 549.585,-174.5"/>
<text text-anchor="middle" x="568.585" y="-182.5" font-family="Helvetica,sans-Serif" font-size="10.00">tuple</text>
</g>
<!-- Node27&#45;&gt;Node33 -->
<g id="edge96" class="edge"><title>Node27&#45;&gt;Node33</title>
<path fill="none" stroke="midnightblue" d="M586.03,-304.362C582.885,-282.841 575.718,-233.807 571.616,-205.74"/>
<polygon fill="midnightblue" stroke="midnightblue" points="575.071,-205.174 570.161,-195.785 568.144,-206.187 575.071,-205.174"/>
</g>
<!-- Node34 -->
<g id="node84" class="node"><title>Node34</title>
<polygon fill="white" stroke="#bfbfbf" points="143.585,-116.5 143.585,-137.5 189.585,-137.5 189.585,-116.5 143.585,-116.5"/>
<text text-anchor="middle" x="166.585" y="-124.5" font-family="Helvetica,sans-Serif" font-size="10.00">cstdint</text>
</g>
<!-- Node27&#45;&gt;Node34 -->
<g id="edge98" class="edge"><title>Node27&#45;&gt;Node34</title>
<path fill="none" stroke="midnightblue" d="M566.894,-314.144C487.431,-310.656 204.908,-296.333 177.585,-268 146.618,-235.888 154.066,-178.336 160.999,-147.628"/>
<polygon fill="midnightblue" stroke="midnightblue" points="164.47,-148.173 163.458,-137.627 157.672,-146.502 164.47,-148.173"/>
</g>
<!-- Node35 -->
<g id="node88" class="node"><title>Node35</title>
<polygon fill="white" stroke="#bfbfbf" points="869.585,-174.5 869.585,-195.5 919.585,-195.5 919.585,-174.5 869.585,-174.5"/>
<text text-anchor="middle" x="894.585" y="-182.5" font-family="Helvetica,sans-Serif" font-size="10.00">iomanip</text>
</g>
<!-- Node27&#45;&gt;Node35 -->
<g id="edge104" class="edge"><title>Node27&#45;&gt;Node35</title>
<path fill="none" stroke="midnightblue" d="M608.205,-306.268C659.994,-284.338 795.97,-226.759 860.132,-199.589"/>
<polygon fill="midnightblue" stroke="midnightblue" points="861.581,-202.777 869.424,-195.654 858.851,-196.331 861.581,-202.777"/>
</g>
<!-- Node29 -->
<g id="node70" class="node"><title>Node29</title>
<a xlink:href="string_8h.html" target="_top" xlink:title="base/std_ext/string.h">
<polygon fill="white" stroke="black" points="1051.59,-174.5 1051.59,-195.5 1159.59,-195.5 1159.59,-174.5 1051.59,-174.5"/>
<text text-anchor="middle" x="1105.59" y="-182.5" font-family="Helvetica,sans-Serif" font-size="10.00">base/std_ext/string.h</text>
</a>
</g>
<!-- Node28&#45;&gt;Node29 -->
<g id="edge80" class="edge"><title>Node28&#45;&gt;Node29</title>
<path fill="none" stroke="midnightblue" d="M474.201,-245.088C597.019,-233.399 906.415,-203.955 1041.18,-191.129"/>
<polygon fill="midnightblue" stroke="midnightblue" points="1041.73,-194.593 1051.35,-190.161 1041.07,-187.624 1041.73,-194.593"/>
</g>
<!-- Node30 -->
<g id="node76" class="node"><title>Node30</title>
<polygon fill="white" stroke="#bfbfbf" points="409.585,-174.5 409.585,-195.5 455.585,-195.5 455.585,-174.5 409.585,-174.5"/>
<text text-anchor="middle" x="432.585" y="-182.5" font-family="Helvetica,sans-Serif" font-size="10.00">cstring</text>
</g>
<!-- Node28&#45;&gt;Node30 -->
<g id="edge90" class="edge"><title>Node28&#45;&gt;Node30</title>
<path fill="none" stroke="midnightblue" d="M424.236,-239.267C425.634,-230.18 427.679,-216.892 429.394,-205.74"/>
<polygon fill="midnightblue" stroke="midnightblue" points="432.903,-205.95 430.964,-195.534 425.985,-204.885 432.903,-205.95"/>
</g>
<!-- Node28&#45;&gt;Node31 -->
<g id="edge92" class="edge"><title>Node28&#45;&gt;Node31</title>
<path fill="none" stroke="midnightblue" d="M434.97,-239.267C446.547,-229.233 464.034,-214.078 477.588,-202.331"/>
<polygon fill="midnightblue" stroke="midnightblue" points="480.166,-204.728 485.431,-195.534 475.582,-199.438 480.166,-204.728"/>
</g>
<!-- Node29&#45;&gt;Node7 -->
<g id="edge86" class="edge"><title>Node29&#45;&gt;Node7</title>
<path fill="none" stroke="midnightblue" d="M1155.57,-174.497C1209.66,-163.129 1294.73,-145.253 1343.61,-134.981"/>
<polygon fill="midnightblue" stroke="midnightblue" points="1344.4,-138.391 1353.47,-132.909 1342.96,-131.54 1344.4,-138.391"/>
</g>
<!-- Node29&#45;&gt;Node11 -->
<g id="edge84" class="edge"><title>Node29&#45;&gt;Node11</title>
<path fill="none" stroke="midnightblue" d="M1083.85,-174.497C1065.11,-165.438 1037.82,-152.246 1016.75,-142.063"/>
<polygon fill="midnightblue" stroke="midnightblue" points="1018.09,-138.822 1007.56,-137.621 1015.04,-145.124 1018.09,-138.822"/>
</g>
<!-- Node29&#45;&gt;Node14 -->
<g id="edge88" class="edge"><title>Node29&#45;&gt;Node14</title>
<path fill="none" stroke="midnightblue" d="M1101.66,-174.499C1096.93,-159.888 1091.08,-133.279 1103.59,-116 1116.72,-97.8604 1176.36,-82.9435 1214.35,-75.0644"/>
<polygon fill="midnightblue" stroke="midnightblue" points="1215.32,-78.4387 1224.43,-73.0319 1213.94,-71.5767 1215.32,-78.4387"/>
</g>
<!-- Node29&#45;&gt;Node16 -->
<g id="edge82" class="edge"><title>Node29&#45;&gt;Node16</title>
<path fill="none" stroke="midnightblue" d="M1159.78,-181.1C1194.8,-178.711 1241.37,-175.781 1282.59,-174 1940.83,-145.561 2106.13,-161.084 2764.59,-138 2839.84,-135.362 2928.3,-130.974 2973.93,-128.617"/>
<polygon fill="midnightblue" stroke="midnightblue" points="2974.24,-132.105 2984.04,-128.091 2973.88,-125.115 2974.24,-132.105"/>
</g>
<!-- Node36&#45;&gt;Node11 -->
<g id="edge146" class="edge"><title>Node36&#45;&gt;Node11</title>
<path fill="none" stroke="midnightblue" d="M962.473,-239.084C963.804,-224.239 966.699,-196.907 971.585,-174 973.462,-165.2 976.176,-155.655 978.715,-147.481"/>
<polygon fill="midnightblue" stroke="midnightblue" points="982.13,-148.293 981.867,-137.702 975.468,-146.145 982.13,-148.293"/>
</g>
<!-- Node36&#45;&gt;Node35 -->
<g id="edge144" class="edge"><title>Node36&#45;&gt;Node35</title>
<path fill="none" stroke="midnightblue" d="M950.521,-239.267C940.277,-229.328 924.852,-214.363 912.793,-202.664"/>
<polygon fill="midnightblue" stroke="midnightblue" points="915.057,-199.985 905.443,-195.534 910.183,-205.009 915.057,-199.985"/>
</g>
<!-- Node37 -->
<g id="node93" class="node"><title>Node37</title>
<a xlink:href="_detector__t_8h.html" target="_top" xlink:title="base/Detector_t.h">
<polygon fill="white" stroke="black" points="719.085,-174.5 719.085,-195.5 814.085,-195.5 814.085,-174.5 719.085,-174.5"/>
<text text-anchor="middle" x="766.585" y="-182.5" font-family="Helvetica,sans-Serif" font-size="10.00">base/Detector_t.h</text>
</a>
</g>
<!-- Node36&#45;&gt;Node37 -->
<g id="edge110" class="edge"><title>Node36&#45;&gt;Node37</title>
<path fill="none" stroke="midnightblue" d="M929.821,-239.412C896.676,-228.364 844.559,-210.991 808.157,-198.857"/>
<polygon fill="midnightblue" stroke="midnightblue" points="808.929,-195.425 798.336,-195.584 806.716,-202.066 808.929,-195.425"/>
</g>
<!-- Node37&#45;&gt;Node8 -->
<g id="edge136" class="edge"><title>Node37&#45;&gt;Node8</title>
<path fill="none" stroke="midnightblue" d="M814.335,-178.68C829.135,-176.919 845.514,-175.169 860.585,-174 1325.27,-137.952 1891.37,-129.184 2045.32,-127.403"/>
<polygon fill="midnightblue" stroke="midnightblue" points="2045.73,-130.898 2055.69,-127.286 2045.65,-123.899 2045.73,-130.898"/>
</g>
<!-- Node37&#45;&gt;Node14 -->
<g id="edge142" class="edge"><title>Node37&#45;&gt;Node14</title>
<path fill="none" stroke="midnightblue" d="M790.195,-174.386C824.735,-159.266 891.374,-131.632 950.585,-116 1044.68,-91.1585 1159.28,-77.5281 1214.2,-71.9868"/>
<polygon fill="midnightblue" stroke="midnightblue" points="1214.75,-75.4491 1224.36,-70.9855 1214.07,-68.4828 1214.75,-75.4491"/>
</g>
<!-- Node37&#45;&gt;Node16 -->
<g id="edge138" class="edge"><title>Node37&#45;&gt;Node16</title>
<path fill="none" stroke="midnightblue" d="M814.322,-178.5C829.121,-176.731 845.503,-175.023 860.585,-174 1705.02,-116.746 1918.65,-165.378 2764.59,-138 2839.84,-135.564 2928.31,-131.094 2973.93,-128.669"/>
<polygon fill="midnightblue" stroke="midnightblue" points="2974.25,-132.157 2984.05,-128.128 2973.87,-125.167 2974.25,-132.157"/>
</g>
<!-- Node37&#45;&gt;Node32 -->
<g id="edge140" class="edge"><title>Node37&#45;&gt;Node32</title>
<path fill="none" stroke="midnightblue" d="M774.472,-174.362C780.412,-166.35 788.707,-155.161 795.744,-145.67"/>
<polygon fill="midnightblue" stroke="midnightblue" points="798.604,-147.688 801.748,-137.571 792.981,-143.519 798.604,-147.688"/>
</g>
<!-- Node37&#45;&gt;Node34 -->
<g id="edge134" class="edge"><title>Node37&#45;&gt;Node34</title>
<path fill="none" stroke="midnightblue" d="M718.886,-181.147C628.307,-173.715 425.194,-156.489 254.585,-138 236.504,-136.041 216.372,-133.547 199.933,-131.43"/>
<polygon fill="midnightblue" stroke="midnightblue" points="200.089,-127.921 189.721,-130.102 199.186,-134.863 200.089,-127.921"/>
</g>
<!-- Node38 -->
<g id="node95" class="node"><title>Node38</title>
<a xlink:href="bitflag_8h.html" target="_top" xlink:title="base/bitflag.h">
<polygon fill="white" stroke="black" points="686.085,-116.5 686.085,-137.5 761.085,-137.5 761.085,-116.5 686.085,-116.5"/>
<text text-anchor="middle" x="723.585" y="-124.5" font-family="Helvetica,sans-Serif" font-size="10.00">base/bitflag.h</text>
</a>
</g>
<!-- Node37&#45;&gt;Node38 -->
<g id="edge112" class="edge"><title>Node37&#45;&gt;Node38</title>
<path fill="none" stroke="midnightblue" d="M758.698,-174.362C752.758,-166.35 744.463,-155.161 737.426,-145.67"/>
<polygon fill="midnightblue" stroke="midnightblue" points="740.189,-143.519 731.422,-137.571 734.566,-147.688 740.189,-143.519"/>
</g>
<!-- Node40 -->
<g id="node99" class="node"><title>Node40</title>
<a xlink:href="vec3_8h.html" target="_top" xlink:title="base/vec/vec3.h">
<polygon fill="white" stroke="black" points="263.085,-116.5 263.085,-137.5 352.085,-137.5 352.085,-116.5 263.085,-116.5"/>
<text text-anchor="middle" x="307.585" y="-124.5" font-family="Helvetica,sans-Serif" font-size="10.00">base/vec/vec3.h</text>
</a>
</g>
<!-- Node37&#45;&gt;Node40 -->
<g id="edge116" class="edge"><title>Node37&#45;&gt;Node40</title>
<path fill="none" stroke="midnightblue" d="M718.763,-178.957C632.869,-168.103 452.993,-145.374 362.319,-133.916"/>
<polygon fill="midnightblue" stroke="midnightblue" points="362.604,-130.424 352.244,-132.643 361.726,-137.369 362.604,-130.424"/>
</g>
<!-- Node42 -->
<g id="node106" class="node"><title>Node42</title>
<a xlink:href="base_2std__ext_2math_8h.html" target="_top" xlink:title="base/std_ext/math.h">
<polygon fill="white" stroke="black" points="1112.59,-116.5 1112.59,-137.5 1218.59,-137.5 1218.59,-116.5 1112.59,-116.5"/>
<text text-anchor="middle" x="1165.59" y="-124.5" font-family="Helvetica,sans-Serif" font-size="10.00">base/std_ext/math.h</text>
</a>
</g>
<!-- Node37&#45;&gt;Node42 -->
<g id="edge126" class="edge"><title>Node37&#45;&gt;Node42</title>
<path fill="none" stroke="midnightblue" d="M814.317,-178.061C886.225,-167.609 1022.42,-147.811 1102.46,-136.177"/>
<polygon fill="midnightblue" stroke="midnightblue" points="1103.01,-139.632 1112.41,-134.73 1102.01,-132.705 1103.01,-139.632"/>
</g>
<!-- Node39 -->
<g id="node97" class="node"><title>Node39</title>
<polygon fill="white" stroke="#bfbfbf" points="703.085,-58.5 703.085,-79.5 744.085,-79.5 744.085,-58.5 703.085,-58.5"/>
<text text-anchor="middle" x="723.585" y="-66.5" font-family="Helvetica,sans-Serif" font-size="10.00">bitset</text>
</g>
<!-- Node38&#45;&gt;Node39 -->
<g id="edge114" class="edge"><title>Node38&#45;&gt;Node39</title>
<path fill="none" stroke="midnightblue" d="M723.585,-116.362C723.585,-108.922 723.585,-98.7427 723.585,-89.7276"/>
<polygon fill="midnightblue" stroke="midnightblue" points="727.085,-89.5706 723.585,-79.5707 720.085,-89.5707 727.085,-89.5706"/>
</g>
<!-- Node40&#45;&gt;Node12 -->
<g id="edge124" class="edge"><title>Node40&#45;&gt;Node12</title>
<path fill="none" stroke="midnightblue" d="M309.391,-116.337C311.993,-102.447 317.509,-77.6222 326.585,-58 331.15,-48.1306 337.711,-38.0524 343.706,-29.7725"/>
<polygon fill="midnightblue" stroke="midnightblue" points="346.649,-31.683 349.867,-21.5887 341.056,-27.4729 346.649,-31.683"/>
</g>
<!-- Node40&#45;&gt;Node15 -->
<g id="edge122" class="edge"><title>Node40&#45;&gt;Node15</title>
<path fill="none" stroke="midnightblue" d="M352.29,-125.522C421.842,-123.256 560.177,-118.884 677.585,-116 1501.94,-95.7476 1709.45,-129.065 2532.59,-80 2557.28,-78.5279 2585,-75.7493 2606.43,-73.3531"/>
<polygon fill="midnightblue" stroke="midnightblue" points="2606.87,-76.826 2616.41,-72.2149 2606.07,-69.8711 2606.87,-76.826"/>
</g>
<!-- Node41 -->
<g id="node101" class="node"><title>Node41</title>
<a xlink:href="vec2_8h.html" target="_top" xlink:title="vec2.h">
<polygon fill="white" stroke="black" points="335.585,-58.5 335.585,-79.5 381.585,-79.5 381.585,-58.5 335.585,-58.5"/>
<text text-anchor="middle" x="358.585" y="-66.5" font-family="Helvetica,sans-Serif" font-size="10.00">vec2.h</text>
</a>
</g>
<!-- Node40&#45;&gt;Node41 -->
<g id="edge118" class="edge"><title>Node40&#45;&gt;Node41</title>
<path fill="none" stroke="midnightblue" d="M316.939,-116.362C324.128,-108.186 334.226,-96.7025 342.678,-87.0907"/>
<polygon fill="midnightblue" stroke="midnightblue" points="345.315,-89.3916 349.29,-79.5707 340.058,-84.7692 345.315,-89.3916"/>
</g>
<!-- Node41&#45;&gt;Node12 -->
<g id="edge120" class="edge"><title>Node41&#45;&gt;Node12</title>
<path fill="none" stroke="midnightblue" d="M358.585,-58.3619C358.585,-50.9219 358.585,-40.7427 358.585,-31.7276"/>
<polygon fill="midnightblue" stroke="midnightblue" points="362.085,-31.5706 358.585,-21.5707 355.085,-31.5707 362.085,-31.5706"/>
</g>
<!-- Node42&#45;&gt;Node9 -->
<g id="edge130" class="edge"><title>Node42&#45;&gt;Node9</title>
<path fill="none" stroke="midnightblue" d="M1218.82,-123.316C1254.41,-120.954 1302.29,-117.973 1344.59,-116 1592.36,-104.442 2212.21,-128.596 2473.65,-79.4999"/>
<polygon fill="midnightblue" stroke="midnightblue" points="2474.41,-82.9177 2483.56,-77.5694 2473.07,-76.047 2474.41,-82.9177"/>
</g>
<!-- Node42&#45;&gt;Node12 -->
<g id="edge128" class="edge"><title>Node42&#45;&gt;Node12</title>
<path fill="none" stroke="midnightblue" d="M1112.57,-117.327C1034.1,-103.192 882.297,-76.5617 752.585,-58 618.594,-38.8259 458.18,-21.3973 390.839,-14.3303"/>
<polygon fill="midnightblue" stroke="midnightblue" points="391.158,-10.8447 380.849,-13.2864 390.431,-17.8068 391.158,-10.8447"/>
</g>
<!-- Node42&#45;&gt;Node14 -->
<g id="edge132" class="edge"><title>Node42&#45;&gt;Node14</title>
<path fill="none" stroke="midnightblue" d="M1180.44,-116.362C1192.43,-107.777 1209.51,-95.5459 1223.31,-85.6636"/>
<polygon fill="midnightblue" stroke="midnightblue" points="1225.73,-88.2383 1231.82,-79.5707 1221.65,-82.5469 1225.73,-88.2383"/>
</g>
<!-- Node43&#45;&gt;Node27 -->
<g id="edge150" class="edge"><title>Node43&#45;&gt;Node27</title>
<path fill="none" stroke="midnightblue" d="M548.389,-362.362C555.088,-354.268 564.469,-342.932 572.374,-333.38"/>
<polygon fill="midnightblue" stroke="midnightblue" points="575.158,-335.506 578.837,-325.571 569.765,-331.043 575.158,-335.506"/>
</g>
<!-- Node43&#45;&gt;Node28 -->
<g id="edge152" class="edge"><title>Node43&#45;&gt;Node28</title>
<path fill="none" stroke="midnightblue" d="M529.202,-362.085C509.03,-340.878 464.368,-293.925 439.731,-268.026"/>
<polygon fill="midnightblue" stroke="midnightblue" points="442.206,-265.549 432.778,-260.715 437.134,-270.373 442.206,-265.549"/>
</g>
<!-- Node43&#45;&gt;Node33 -->
<g id="edge156" class="edge"><title>Node43&#45;&gt;Node33</title>
<path fill="none" stroke="midnightblue" d="M541.227,-362.354C545.893,-332.107 559.286,-245.285 565.433,-205.437"/>
<polygon fill="midnightblue" stroke="midnightblue" points="568.895,-205.946 566.961,-195.53 561.977,-204.879 568.895,-205.946"/>
</g>
<!-- Node43&#45;&gt;Node34 -->
<g id="edge154" class="edge"><title>Node43&#45;&gt;Node34</title>
<path fill="none" stroke="midnightblue" d="M497.38,-367.656C406.871,-355.266 198.81,-321.486 155.585,-268 127.56,-233.322 144.828,-176.896 157.234,-147.023"/>
<polygon fill="midnightblue" stroke="midnightblue" points="160.536,-148.208 161.337,-137.643 154.123,-145.402 160.536,-148.208"/>
</g>
<!-- Node44&#45;&gt;Node15 -->
<g id="edge166" class="edge"><title>Node44&#45;&gt;Node15</title>
<path fill="none" stroke="midnightblue" d="M2614.87,-174.419C2619.36,-165.05 2625.68,-150.9 2629.59,-138 2634.38,-122.167 2637.75,-103.729 2639.85,-89.8974"/>
<polygon fill="midnightblue" stroke="midnightblue" points="2643.32,-90.324 2641.27,-79.9305 2636.39,-89.3375 2643.32,-90.324"/>
</g>
<!-- Node45 -->
<g id="node126" class="node"><title>Node45</title>
<a xlink:href="_format_8h.html" target="_top" xlink:title="base/Format.h">
<polygon fill="white" stroke="black" points="2393.59,-116.5 2393.59,-137.5 2473.59,-137.5 2473.59,-116.5 2393.59,-116.5"/>
<text text-anchor="middle" x="2433.59" y="-124.5" font-family="Helvetica,sans-Serif" font-size="10.00">base/Format.h</text>
</a>
</g>
<!-- Node44&#45;&gt;Node45 -->
<g id="edge160" class="edge"><title>Node44&#45;&gt;Node45</title>
<path fill="none" stroke="midnightblue" d="M2577.71,-174.497C2549.02,-165.041 2506.66,-151.083 2475.29,-140.743"/>
<polygon fill="midnightblue" stroke="midnightblue" points="2476.11,-137.329 2465.52,-137.523 2473.92,-143.977 2476.11,-137.329"/>
</g>
<!-- Node45&#45;&gt;Node14 -->
<g id="edge164" class="edge"><title>Node45&#45;&gt;Node14</title>
<path fill="none" stroke="midnightblue" d="M2393.3,-118.063C2388.69,-117.259 2384.05,-116.544 2379.59,-116 2157.98,-89.008 1439.82,-72.9541 1278.82,-69.6419"/>
<polygon fill="midnightblue" stroke="midnightblue" points="1278.68,-66.1385 1268.61,-69.4337 1278.54,-73.137 1278.68,-66.1385"/>
</g>
<!-- Node46 -->
<g id="node128" class="node"><title>Node46</title>
<polygon fill="white" stroke="#bfbfbf" points="2395.59,-58.5 2395.59,-79.5 2465.59,-79.5 2465.59,-58.5 2395.59,-58.5"/>
<text text-anchor="middle" x="2430.59" y="-66.5" font-family="Helvetica,sans-Serif" font-size="10.00">fmt/format.h</text>
</g>
<!-- Node45&#45;&gt;Node46 -->
<g id="edge162" class="edge"><title>Node45&#45;&gt;Node46</title>
<path fill="none" stroke="midnightblue" d="M2433.03,-116.362C2432.65,-108.922 2432.12,-98.7427 2431.66,-89.7276"/>
<polygon fill="midnightblue" stroke="midnightblue" points="2435.14,-89.3765 2431.13,-79.5707 2428.15,-89.7381 2435.14,-89.3765"/>
</g>
<!-- Node47&#45;&gt;Node11 -->
<g id="edge180" class="edge"><title>Node47&#45;&gt;Node11</title>
<path fill="none" stroke="midnightblue" d="M662.453,-362.424C659.533,-329.153 655.47,-225.766 710.585,-174 727.795,-157.836 878.331,-139.028 949.105,-130.982"/>
<polygon fill="midnightblue" stroke="midnightblue" points="949.799,-134.426 959.345,-129.829 949.017,-127.47 949.799,-134.426"/>
</g>
<!-- Node47&#45;&gt;Node14 -->
<g id="edge176" class="edge"><title>Node47&#45;&gt;Node14</title>
<path fill="none" stroke="midnightblue" d="M626.404,-366.503C512.032,-346.364 172.146,-285.301 155.585,-268 108.427,-218.736 87.3915,-165.23 134.585,-116 153.77,-95.9869 1032.72,-74.0731 1214.07,-69.76"/>
<polygon fill="midnightblue" stroke="midnightblue" points="1214.38,-73.2537 1224.29,-69.5179 1214.21,-66.2557 1214.38,-73.2537"/>
</g>
<!-- Node47&#45;&gt;Node27 -->
<g id="edge170" class="edge"><title>Node47&#45;&gt;Node27</title>
<path fill="none" stroke="midnightblue" d="M649.645,-362.362C638.397,-353.777 622.369,-341.546 609.42,-331.664"/>
<polygon fill="midnightblue" stroke="midnightblue" points="611.509,-328.855 601.436,-325.571 607.262,-334.42 611.509,-328.855"/>
</g>
<!-- Node47&#45;&gt;Node35 -->
<g id="edge178" class="edge"><title>Node47&#45;&gt;Node35</title>
<path fill="none" stroke="midnightblue" d="M676.666,-362.354C714.943,-331.202 826.956,-240.04 873.709,-201.99"/>
<polygon fill="midnightblue" stroke="midnightblue" points="876.1,-204.556 881.647,-195.53 871.682,-199.127 876.1,-204.556"/>
</g>
<!-- Node48 -->
<g id="node135" class="node"><title>Node48</title>
<a xlink:href="_lorentz_vec_8h.html" target="_top" xlink:title="base/vec/LorentzVec.h">
<polygon fill="white" stroke="black" points="29.0851,-304.5 29.0851,-325.5 146.085,-325.5 146.085,-304.5 29.0851,-304.5"/>
<text text-anchor="middle" x="87.5851" y="-312.5" font-family="Helvetica,sans-Serif" font-size="10.00">base/vec/LorentzVec.h</text>
</a>
</g>
<!-- Node47&#45;&gt;Node48 -->
<g id="edge172" class="edge"><title>Node47&#45;&gt;Node48</title>
<path fill="none" stroke="midnightblue" d="M626.503,-366.998C615.01,-365.25 602.29,-363.428 590.585,-362 435.813,-343.123 253.437,-327.799 156.43,-320.196"/>
<polygon fill="midnightblue" stroke="midnightblue" points="156.413,-316.684 146.171,-319.396 155.868,-323.663 156.413,-316.684"/>
</g>
<!-- Node48&#45;&gt;Node40 -->
<g id="edge174" class="edge"><title>Node48&#45;&gt;Node40</title>
<path fill="none" stroke="midnightblue" d="M100.044,-304.354C136.421,-273.267 242.734,-182.418 287.425,-144.227"/>
<polygon fill="midnightblue" stroke="midnightblue" points="289.935,-146.687 295.263,-137.53 285.387,-141.365 289.935,-146.687"/>
</g>
<!-- Node49&#45;&gt;Node6 -->
<g id="edge184" class="edge"><title>Node49&#45;&gt;Node6</title>
<path fill="none" stroke="midnightblue" d="M2660.51,-239.085C2673.72,-218.244 2702.71,-172.537 2719.29,-146.384"/>
<polygon fill="midnightblue" stroke="midnightblue" points="2722.39,-148.035 2724.79,-137.715 2716.48,-144.286 2722.39,-148.035"/>
</g>
<!-- Node49&#45;&gt;Node9 -->
<g id="edge188" class="edge"><title>Node49&#45;&gt;Node9</title>
<path fill="none" stroke="midnightblue" d="M2629.82,-239.421C2599.62,-225.792 2550.64,-203.017 2544.59,-196 2517.99,-165.155 2508.59,-116.791 2505.31,-89.5096"/>
<polygon fill="midnightblue" stroke="midnightblue" points="2508.78,-89.1193 2504.27,-79.5347 2501.82,-89.843 2508.78,-89.1193"/>
</g>
<!-- Node49&#45;&gt;Node14 -->
<g id="edge186" class="edge"><title>Node49&#45;&gt;Node14</title>
<path fill="none" stroke="midnightblue" d="M2628.59,-239.367C2622.42,-236.853 2615.79,-234.251 2609.59,-232 2479.82,-184.941 2441.24,-190.503 2313.59,-138 2293.73,-129.834 2291.33,-121.506 2270.59,-116 2172.95,-90.0922 1443.11,-73.1714 1279.2,-69.674"/>
<polygon fill="midnightblue" stroke="midnightblue" points="1278.88,-66.1666 1268.81,-69.4542 1278.74,-73.165 1278.88,-66.1666"/>
</g>
<!-- Node49&#45;&gt;Node19 -->
<g id="edge190" class="edge"><title>Node49&#45;&gt;Node19</title>
<path fill="none" stroke="midnightblue" d="M2623.06,-241.783C2609,-238.279 2592.04,-234.442 2576.59,-232 2387.59,-202.144 2338.16,-213.032 2147.59,-196 2120.85,-193.611 2090.67,-190.743 2067.79,-188.535"/>
<polygon fill="midnightblue" stroke="midnightblue" points="2068.13,-185.051 2057.84,-187.571 2067.45,-192.019 2068.13,-185.051"/>
</g>
<!-- Node50&#45;&gt;Node6 -->
<g id="edge194" class="edge"><title>Node50&#45;&gt;Node6</title>
<path fill="none" stroke="midnightblue" d="M1911.1,-313.521C2055.94,-306.238 2684.82,-274.272 2692.59,-268 2728.66,-238.863 2733.11,-179.567 2732.7,-147.952"/>
<polygon fill="midnightblue" stroke="midnightblue" points="2736.19,-147.549 2732.38,-137.663 2729.2,-147.768 2736.19,-147.549"/>
</g>
<!-- Node50&#45;&gt;Node18 -->
<g id="edge200" class="edge"><title>Node50&#45;&gt;Node18</title>
<path fill="none" stroke="midnightblue" d="M1911.14,-307.207C1915.63,-306.089 1920.23,-304.986 1924.59,-304 2005.44,-285.721 2030.69,-298.961 2107.59,-268 2109.21,-267.347 2110.84,-266.597 2112.45,-265.782"/>
<polygon fill="midnightblue" stroke="midnightblue" points="2114.44,-268.674 2121.33,-260.627 2110.93,-262.62 2114.44,-268.674"/>
</g>
<!-- Node50&#45;&gt;Node19 -->
<g id="edge202" class="edge"><title>Node50&#45;&gt;Node19</title>
<path fill="none" stroke="midnightblue" d="M1911.18,-307.368C1915.67,-306.228 1920.25,-305.075 1924.59,-304 1991.13,-287.504 2032.14,-321.84 2074.59,-268 2090.67,-247.593 2069.81,-220.242 2051.93,-202.618"/>
<polygon fill="midnightblue" stroke="midnightblue" points="2054.25,-199.998 2044.57,-195.709 2049.46,-205.103 2054.25,-199.998"/>
</g>
<!-- Node50&#45;&gt;Node40 -->
<g id="edge198" class="edge"><title>Node50&#45;&gt;Node40</title>
<path fill="none" stroke="midnightblue" d="M1851.88,-305.615C1849.09,-304.974 1846.3,-304.418 1843.59,-304 1760.43,-291.196 392.844,-323.471 329.585,-268 295.574,-238.177 298.886,-179.174 303.583,-147.782"/>
<polygon fill="midnightblue" stroke="midnightblue" points="307.093,-148.015 305.31,-137.571 300.191,-146.848 307.093,-148.015"/>
</g>
<!-- Node50&#45;&gt;Node42 -->
<g id="edge196" class="edge"><title>Node50&#45;&gt;Node42</title>
<path fill="none" stroke="midnightblue" d="M1851.84,-305.829C1849.07,-305.143 1846.28,-304.518 1843.59,-304 1682.63,-273.083 1629.65,-326.594 1476.59,-268 1410.67,-242.766 1412.37,-204.217 1348.59,-174 1310.65,-156.029 1264.91,-144.28 1228.65,-137.024"/>
<polygon fill="midnightblue" stroke="midnightblue" points="1229.18,-133.56 1218.69,-135.095 1227.84,-140.432 1229.18,-133.56"/>
</g>
<!-- Node51&#45;&gt;Node11 -->
<g id="edge230" class="edge"><title>Node51&#45;&gt;Node11</title>
<path fill="none" stroke="midnightblue" d="M1060.2,-304.467C1059.34,-288.396 1056.55,-256.987 1047.59,-232 1035.99,-199.686 1014.21,-166.178 999.797,-145.955"/>
<polygon fill="midnightblue" stroke="midnightblue" points="1002.47,-143.679 993.757,-137.651 996.808,-147.797 1002.47,-143.679"/>
</g>
<!-- Node51&#45;&gt;Node12 -->
<g id="edge226" class="edge"><title>Node51&#45;&gt;Node12</title>
<path fill="none" stroke="midnightblue" d="M1029.49,-314.239C886.845,-310.608 300.851,-294.143 272.585,-268 222.643,-221.81 228.702,-178.911 254.585,-116 270.391,-77.5822 307.804,-45.7592 333.171,-27.5564"/>
<polygon fill="midnightblue" stroke="midnightblue" points="335.379,-30.2839 341.586,-21.6975 331.379,-24.5391 335.379,-30.2839"/>
</g>
<!-- Node51&#45;&gt;Node14 -->
<g id="edge224" class="edge"><title>Node51&#45;&gt;Node14</title>
<path fill="none" stroke="midnightblue" d="M1088.07,-304.35C1106.2,-296.341 1129.64,-284.006 1146.59,-268 1196.08,-221.256 1200.26,-200.353 1227.59,-138 1234.43,-122.375 1239.4,-103.663 1242.53,-89.6696"/>
<polygon fill="midnightblue" stroke="midnightblue" points="1246.02,-90.1149 1244.66,-79.6079 1239.17,-88.6703 1246.02,-90.1149"/>
</g>
<!-- Node51&#45;&gt;Node19 -->
<g id="edge232" class="edge"><title>Node51&#45;&gt;Node19</title>
<path fill="none" stroke="midnightblue" d="M1091.78,-313.629C1191.49,-309.035 1501.56,-293.051 1598.59,-268 1636.73,-258.151 1641.68,-242.716 1679.59,-232 1791.99,-200.228 1930.8,-189.741 1995.38,-186.436"/>
<polygon fill="midnightblue" stroke="midnightblue" points="1995.64,-189.928 2005.46,-185.948 1995.3,-182.936 1995.64,-189.928"/>
</g>
<!-- Node51&#45;&gt;Node35 -->
<g id="edge228" class="edge"><title>Node51&#45;&gt;Node35</title>
<path fill="none" stroke="midnightblue" d="M1058.47,-304.267C1054.48,-286.764 1044.22,-252.021 1022.59,-232 996.743,-208.085 957.722,-196.094 929.559,-190.244"/>
<polygon fill="midnightblue" stroke="midnightblue" points="930.2,-186.803 919.719,-188.356 928.88,-193.678 930.2,-186.803"/>
</g>
<!-- Node51&#45;&gt;Node36 -->
<g id="edge206" class="edge"><title>Node51&#45;&gt;Node36</title>
<path fill="none" stroke="midnightblue" d="M1044.24,-304.267C1028.52,-293.949 1004.56,-278.216 986.475,-266.342"/>
<polygon fill="midnightblue" stroke="midnightblue" points="987.909,-263.096 977.629,-260.534 984.067,-268.948 987.909,-263.096"/>
</g>
<!-- Node51&#45;&gt;Node37 -->
<g id="edge208" class="edge"><title>Node51&#45;&gt;Node37</title>
<path fill="none" stroke="midnightblue" d="M1029.34,-308.45C996.43,-300.955 943.54,-287.189 900.585,-268 859.014,-249.429 814.876,-219.937 789.069,-201.565"/>
<polygon fill="midnightblue" stroke="midnightblue" points="790.899,-198.57 780.739,-195.567 786.808,-204.251 790.899,-198.57"/>
</g>
<!-- Node51&#45;&gt;Node40 -->
<g id="edge222" class="edge"><title>Node51&#45;&gt;Node40</title>
<path fill="none" stroke="midnightblue" d="M1029.22,-314.271C888.038,-310.839 317.276,-295.309 291.585,-268 260.646,-235.112 282.209,-177.043 296.956,-146.707"/>
<polygon fill="midnightblue" stroke="midnightblue" points="300.195,-148.058 301.61,-137.558 293.956,-144.884 300.195,-148.058"/>
</g>
<!-- Node51&#45;&gt;Node42 -->
<g id="edge210" class="edge"><title>Node51&#45;&gt;Node42</title>
<path fill="none" stroke="midnightblue" d="M1075.8,-304.332C1100.83,-285.733 1149.79,-244.67 1168.59,-196 1174.51,-180.643 1173.22,-161.911 1170.75,-147.842"/>
<polygon fill="midnightblue" stroke="midnightblue" points="1174.1,-146.782 1168.62,-137.712 1167.25,-148.218 1174.1,-146.782"/>
</g>
<!-- Node52 -->
<g id="node159" class="node"><title>Node52</title>
<a xlink:href="shared__ptr__container_8h.html" target="_top" xlink:title="base/std_ext/shared\l_ptr_container.h">
<polygon fill="white" stroke="black" points="1485.09,-233 1485.09,-267 1590.09,-267 1590.09,-233 1485.09,-233"/>
<text text-anchor="start" x="1493.09" y="-254" font-family="Helvetica,sans-Serif" font-size="10.00">base/std_ext/shared</text>
<text text-anchor="middle" x="1537.59" y="-241" font-family="Helvetica,sans-Serif" font-size="10.00">_ptr_container.h</text>
</a>
</g>
<!-- Node51&#45;&gt;Node52 -->
<g id="edge212" class="edge"><title>Node51&#45;&gt;Node52</title>
<path fill="none" stroke="midnightblue" d="M1091.77,-313.063C1160.73,-308.424 1331.24,-295 1471.59,-268 1472.66,-267.792 1473.75,-267.576 1474.84,-267.353"/>
<polygon fill="midnightblue" stroke="midnightblue" points="1475.79,-270.729 1484.8,-265.158 1474.28,-263.894 1475.79,-270.729"/>
</g>
<!-- Node52&#45;&gt;Node7 -->
<g id="edge220" class="edge"><title>Node52&#45;&gt;Node7</title>
<path fill="none" stroke="midnightblue" d="M1515.89,-232.897C1486.18,-209.466 1433.11,-167.625 1403.35,-144.163"/>
<polygon fill="midnightblue" stroke="midnightblue" points="1405.29,-141.231 1395.27,-137.787 1400.95,-146.727 1405.29,-141.231"/>
</g>
<!-- Node52&#45;&gt;Node14 -->
<g id="edge214" class="edge"><title>Node52&#45;&gt;Node14</title>
<path fill="none" stroke="midnightblue" d="M1527.1,-232.707C1508.77,-203.982 1468.09,-146.575 1418.59,-116 1374.72,-88.9048 1315.12,-77.1715 1278.84,-72.2802"/>
<polygon fill="midnightblue" stroke="midnightblue" points="1279.17,-68.7944 1268.81,-71.0236 1278.3,-75.74 1279.17,-68.7944"/>
</g>
<!-- Node52&#45;&gt;Node19 -->
<g id="edge216" class="edge"><title>Node52&#45;&gt;Node19</title>
<path fill="none" stroke="midnightblue" d="M1590.14,-240.362C1606.59,-237.492 1624.81,-234.46 1641.59,-232 1771.29,-212.974 1926.09,-196.022 1995.17,-188.756"/>
<polygon fill="midnightblue" stroke="midnightblue" points="1995.93,-192.196 2005.51,-187.674 1995.2,-185.234 1995.93,-192.196"/>
</g>
<!-- Node52&#45;&gt;Node20 -->
<g id="edge218" class="edge"><title>Node52&#45;&gt;Node20</title>
<path fill="none" stroke="midnightblue" d="M1558.6,-232.922C1570.23,-223.479 1584.63,-211.774 1596.3,-202.296"/>
<polygon fill="midnightblue" stroke="midnightblue" points="1598.67,-204.874 1604.23,-195.852 1594.26,-199.442 1598.67,-204.874"/>
</g>
<!-- Node53&#45;&gt;Node7 -->
<g id="edge248" class="edge"><title>Node53&#45;&gt;Node7</title>
<path fill="none" stroke="midnightblue" d="M974.2,-366.38C1008.43,-359.406 1059.69,-346.54 1100.59,-326 1194.76,-278.695 1194.68,-232.139 1282.59,-174 1302,-161.16 1325.46,-149.859 1344.68,-141.558"/>
<polygon fill="midnightblue" stroke="midnightblue" points="1346.16,-144.731 1354.01,-137.615 1343.44,-138.283 1346.16,-144.731"/>
</g>
<!-- Node53&#45;&gt;Node11 -->
<g id="edge244" class="edge"><title>Node53&#45;&gt;Node11</title>
<path fill="none" stroke="midnightblue" d="M925.823,-362.218C895.839,-330.857 816.377,-237.853 860.585,-174 871.05,-158.885 916.523,-144.459 949.611,-135.67"/>
<polygon fill="midnightblue" stroke="midnightblue" points="950.626,-139.023 959.43,-133.129 948.872,-132.246 950.626,-139.023"/>
</g>
<!-- Node53&#45;&gt;Node14 -->
<g id="edge240" class="edge"><title>Node53&#45;&gt;Node14</title>
<path fill="none" stroke="midnightblue" d="M899.077,-367.242C867.851,-361.044 823.359,-348.832 790.585,-326 703.62,-265.416 605.791,-193.968 677.585,-116 714.091,-76.3542 1099.24,-70.149 1214.3,-69.1793"/>
<polygon fill="midnightblue" stroke="midnightblue" points="1214.6,-72.6772 1224.57,-69.1008 1214.55,-65.6774 1214.6,-72.6772"/>
</g>
<!-- Node53&#45;&gt;Node19 -->
<g id="edge246" class="edge"><title>Node53&#45;&gt;Node19</title>
<path fill="none" stroke="midnightblue" d="M974.19,-372.202C1082.48,-368.915 1403.22,-352.219 1652.59,-268 1683.87,-257.433 1686.31,-242.613 1717.59,-232 1814.34,-199.162 1935.61,-189.237 1995.16,-186.26"/>
<polygon fill="midnightblue" stroke="midnightblue" points="1995.38,-189.754 2005.21,-185.795 1995.05,-182.761 1995.38,-189.754"/>
</g>
<!-- Node53&#45;&gt;Node35 -->
<g id="edge242" class="edge"><title>Node53&#45;&gt;Node35</title>
<path fill="none" stroke="midnightblue" d="M931.847,-362.224C923.847,-343.486 907.826,-303.498 900.585,-268 896.338,-247.182 894.991,-222.892 894.613,-205.989"/>
<polygon fill="midnightblue" stroke="midnightblue" points="898.108,-205.555 894.482,-195.6 891.108,-205.643 898.108,-205.555"/>
</g>
<!-- Node53&#45;&gt;Node37 -->
<g id="edge238" class="edge"><title>Node53&#45;&gt;Node37</title>
<path fill="none" stroke="midnightblue" d="M898.9,-367.96C870.936,-362.314 833.781,-350.497 810.585,-326 778.848,-292.483 769.988,-236.389 767.525,-206.039"/>
<polygon fill="midnightblue" stroke="midnightblue" points="770.999,-205.521 766.86,-195.768 764.013,-205.973 770.999,-205.521"/>
</g>
<!-- Node53&#45;&gt;Node51 -->
<g id="edge236" class="edge"><title>Node53&#45;&gt;Node51</title>
<path fill="none" stroke="midnightblue" d="M959.041,-362.497C978.495,-353.397 1006.86,-340.127 1028.68,-329.925"/>
<polygon fill="midnightblue" stroke="midnightblue" points="1030.3,-333.028 1037.88,-325.621 1027.34,-326.688 1030.3,-333.028"/>
</g>
<!-- Node54&#45;&gt;Node6 -->
<g id="edge254" class="edge"><title>Node54&#45;&gt;Node6</title>
<path fill="none" stroke="midnightblue" d="M1763.81,-427.845C1937.27,-410.847 2752.3,-330.746 2756.59,-326 2802.19,-275.488 2763.59,-186.119 2742.78,-146.661"/>
<polygon fill="midnightblue" stroke="midnightblue" points="2745.79,-144.869 2737.93,-137.759 2739.64,-148.216 2745.79,-144.869"/>
</g>
<!-- Node54&#45;&gt;Node14 -->
<g id="edge298" class="edge"><title>Node54&#45;&gt;Node14</title>
<path fill="none" stroke="midnightblue" d="M1699.46,-430.587C1516.83,-428.142 607.826,-414.597 329.585,-384 190.691,-368.726 122.282,-421.826 20.5851,-326 -4.75517,-302.123 1.58506,-284.817 1.58506,-250 1.58506,-250 1.58506,-250 1.58506,-185 1.58506,-126.155 58.2795,-133.1 114.585,-116 168.534,-99.6159 1034.14,-74.8719 1214.01,-69.8915"/>
<polygon fill="midnightblue" stroke="midnightblue" points="1214.26,-73.3859 1224.16,-69.6112 1214.07,-66.3886 1214.26,-73.3859"/>
</g>
<!-- Node54&#45;&gt;Node18 -->
<g id="edge300" class="edge"><title>Node54&#45;&gt;Node18</title>
<path fill="none" stroke="midnightblue" d="M1755.05,-420.486C1826.3,-388.564 2039.65,-292.979 2111.6,-260.748"/>
<polygon fill="midnightblue" stroke="midnightblue" points="2113.08,-263.916 2120.78,-256.633 2110.22,-257.528 2113.08,-263.916"/>
</g>
<!-- Node54&#45;&gt;Node19 -->
<g id="edge304" class="edge"><title>Node54&#45;&gt;Node19</title>
<path fill="none" stroke="midnightblue" d="M1731.49,-420.306C1731.82,-385.758 1738.12,-276.796 1802.59,-232 1833.35,-210.622 1938.82,-195.636 1995.26,-188.94"/>
<polygon fill="midnightblue" stroke="midnightblue" points="1996,-192.378 2005.53,-187.749 1995.19,-185.424 1996,-192.378"/>
</g>
<!-- Node54&#45;&gt;Node48 -->
<g id="edge296" class="edge"><title>Node54&#45;&gt;Node48</title>
<path fill="none" stroke="midnightblue" d="M1699.53,-424.399C1689.94,-422.672 1679.37,-421.012 1669.59,-420 1147.24,-365.99 1011.07,-436.654 488.585,-384 365.658,-371.612 223.529,-343.945 145.812,-327.658"/>
<polygon fill="midnightblue" stroke="midnightblue" points="146.248,-324.173 135.741,-325.535 144.804,-331.022 146.248,-324.173"/>
</g>
<!-- Node54&#45;&gt;Node53 -->
<g id="edge252" class="edge"><title>Node54&#45;&gt;Node53</title>
<path fill="none" stroke="midnightblue" d="M1699.51,-424.606C1689.92,-422.885 1679.35,-421.176 1669.59,-420 1412.12,-389.004 1101.15,-377.594 984.155,-374.213"/>
<polygon fill="midnightblue" stroke="midnightblue" points="984.194,-370.713 974.099,-373.928 983.996,-377.71 984.194,-370.713"/>
</g>
<!-- Node54&#45;&gt;Node55 -->
<g id="edge256" class="edge"><title>Node54&#45;&gt;Node55</title>
<path fill="none" stroke="midnightblue" d="M1763.83,-429.6C1919.17,-422.587 2590.89,-389.073 2789.59,-326 2836.77,-311.023 2887.52,-283.505 2917.37,-266.013"/>
<polygon fill="midnightblue" stroke="midnightblue" points="2919.49,-268.829 2926.3,-260.715 2915.91,-262.809 2919.49,-268.829"/>
</g>
<!-- Node58 -->
<g id="node195" class="node"><title>Node58</title>
<a xlink:href="_tree_8h.html" target="_top" xlink:title="base/Tree.h">
<polygon fill="white" stroke="black" points="1766.59,-304.5 1766.59,-325.5 1834.59,-325.5 1834.59,-304.5 1766.59,-304.5"/>
<text text-anchor="middle" x="1800.59" y="-312.5" font-family="Helvetica,sans-Serif" font-size="10.00">base/Tree.h</text>
</a>
</g>
<!-- Node54&#45;&gt;Node58 -->
<g id="edge272" class="edge"><title>Node54&#45;&gt;Node58</title>
<path fill="none" stroke="midnightblue" d="M1737.95,-420.295C1749.56,-400.786 1774.3,-359.188 1788.98,-334.518"/>
<polygon fill="midnightblue" stroke="midnightblue" points="1792.13,-336.063 1794.23,-325.679 1786.11,-332.484 1792.13,-336.063"/>
</g>
<!-- Node64 -->
<g id="node216" class="node"><title>Node64</title>
<polygon fill="white" stroke="#bfbfbf" points="1649.59,-362.5 1649.59,-383.5 1703.59,-383.5 1703.59,-362.5 1649.59,-362.5"/>
<text text-anchor="middle" x="1676.59" y="-370.5" font-family="Helvetica,sans-Serif" font-size="10.00">iostream</text>
</g>
<!-- Node54&#45;&gt;Node64 -->
<g id="edge302" class="edge"><title>Node54&#45;&gt;Node64</title>
<path fill="none" stroke="midnightblue" d="M1721.5,-420.362C1713.74,-412.186 1702.85,-400.702 1693.74,-391.091"/>
<polygon fill="midnightblue" stroke="midnightblue" points="1696.03,-388.419 1686.61,-383.571 1690.95,-393.235 1696.03,-388.419"/>
</g>
<!-- Node55&#45;&gt;Node5 -->
<g id="edge260" class="edge"><title>Node55&#45;&gt;Node5</title>
<path fill="none" stroke="midnightblue" d="M2891.37,-244.681C2770.91,-232.408 2474.78,-202.238 2356.04,-190.141"/>
<polygon fill="midnightblue" stroke="midnightblue" points="2356.09,-186.627 2345.79,-189.096 2355.38,-193.591 2356.09,-186.627"/>
</g>
<!-- Node55&#45;&gt;Node6 -->
<g id="edge258" class="edge"><title>Node55&#45;&gt;Node6</title>
<path fill="none" stroke="midnightblue" d="M2925.14,-239.3C2887.62,-217.528 2802.24,-167.993 2758.5,-142.617"/>
<polygon fill="midnightblue" stroke="midnightblue" points="2760.24,-139.579 2749.83,-137.588 2756.73,-145.634 2760.24,-139.579"/>
</g>
<!-- Node55&#45;&gt;Node14 -->
<g id="edge270" class="edge"><title>Node55&#45;&gt;Node14</title>
<path fill="none" stroke="midnightblue" d="M2891.43,-245.15C2798.54,-236.145 2608.2,-215.939 2544.59,-196 2524.1,-189.58 2521.48,-182.076 2501.59,-174 2451.18,-153.532 2434.99,-158.468 2384.59,-138 2364.69,-129.924 2362.34,-121.475 2341.59,-116 2236.66,-88.3242 1449.33,-72.6529 1279.01,-69.5666"/>
<polygon fill="midnightblue" stroke="midnightblue" points="1278.98,-66.0656 1268.92,-69.3854 1278.85,-73.0644 1278.98,-66.0656"/>
</g>
<!-- Node55&#45;&gt;Node15 -->
<g id="edge264" class="edge"><title>Node55&#45;&gt;Node15</title>
<path fill="none" stroke="midnightblue" d="M2931.89,-239.176C2904.53,-214.351 2833.47,-152.64 2764.59,-116 2736.76,-101.199 2703.22,-88.6255 2678.36,-80.2184"/>
<polygon fill="midnightblue" stroke="midnightblue" points="2679.21,-76.8123 2668.61,-76.9858 2677,-83.4563 2679.21,-76.8123"/>
</g>
<!-- Node55&#45;&gt;Node16 -->
<g id="edge262" class="edge"><title>Node55&#45;&gt;Node16</title>
<path fill="none" stroke="midnightblue" d="M2949,-239.085C2959.29,-218.335 2981.8,-172.937 2994.8,-146.729"/>
<polygon fill="midnightblue" stroke="midnightblue" points="2997.96,-148.229 2999.27,-137.715 2991.69,-145.119 2997.96,-148.229"/>
</g>
<!-- Node55&#45;&gt;Node56 -->
<g id="edge266" class="edge"><title>Node55&#45;&gt;Node56</title>
<path fill="none" stroke="midnightblue" d="M2995.64,-239.499C3048.35,-228.8 3132.21,-211.609 3204.59,-196 3211.57,-194.493 3219.11,-192.824 3226.12,-191.25"/>
<polygon fill="midnightblue" stroke="midnightblue" points="3226.93,-194.657 3235.91,-189.043 3225.39,-187.829 3226.93,-194.657"/>
</g>
<!-- Node57 -->
<g id="node192" class="node"><title>Node57</title>
<polygon fill="white" stroke="#bfbfbf" points="2911.09,-174.5 2911.09,-195.5 2958.09,-195.5 2958.09,-174.5 2911.09,-174.5"/>
<text text-anchor="middle" x="2934.59" y="-182.5" font-family="Helvetica,sans-Serif" font-size="10.00">iterator</text>
</g>
<!-- Node55&#45;&gt;Node57 -->
<g id="edge268" class="edge"><title>Node55&#45;&gt;Node57</title>
<path fill="none" stroke="midnightblue" d="M2942.1,-239.267C2940.84,-230.18 2939,-216.892 2937.46,-205.74"/>
<polygon fill="midnightblue" stroke="midnightblue" points="2940.88,-204.959 2936.04,-195.534 2933.95,-205.919 2940.88,-204.959"/>
</g>
<!-- Node58&#45;&gt;Node7 -->
<g id="edge288" class="edge"><title>Node58&#45;&gt;Node7</title>
<path fill="none" stroke="midnightblue" d="M1766.4,-313.508C1693.27,-309.769 1524.41,-298.05 1476.59,-268 1430.55,-239.077 1401.58,-178.788 1388.95,-147.237"/>
<polygon fill="midnightblue" stroke="midnightblue" points="1392.15,-145.802 1385.29,-137.725 1385.62,-148.315 1392.15,-145.802"/>
</g>
<!-- Node58&#45;&gt;Node14 -->
<g id="edge286" class="edge"><title>Node58&#45;&gt;Node14</title>
<path fill="none" stroke="midnightblue" d="M1792.76,-304.319C1772.91,-278.007 1717.73,-209.62 1655.59,-174 1528.84,-101.357 1351.6,-78.1846 1279.27,-71.4817"/>
<polygon fill="midnightblue" stroke="midnightblue" points="1279.25,-67.9664 1268.98,-70.5751 1278.63,-74.9394 1279.25,-67.9664"/>
</g>
<!-- Node58&#45;&gt;Node18 -->
<g id="edge284" class="edge"><title>Node58&#45;&gt;Node18</title>
<path fill="none" stroke="midnightblue" d="M1834.78,-305.936C1837.75,-305.245 1840.72,-304.589 1843.59,-304 1945.37,-283.1 1973.2,-290.753 2074.59,-268 2086.67,-265.288 2099.87,-261.498 2110.9,-258.094"/>
<polygon fill="midnightblue" stroke="midnightblue" points="2112.21,-261.349 2120.69,-254.997 2110.1,-254.675 2112.21,-261.349"/>
</g>
<!-- Node58&#45;&gt;Node19 -->
<g id="edge282" class="edge"><title>Node58&#45;&gt;Node19</title>
<path fill="none" stroke="midnightblue" d="M1800.71,-304.339C1801.54,-286.622 1805.85,-251.171 1826.59,-232 1850.85,-209.561 1943.31,-195.355 1995.38,-188.959"/>
<polygon fill="midnightblue" stroke="midnightblue" points="1996.02,-192.408 2005.53,-187.748 1995.19,-185.457 1996.02,-192.408"/>
</g>
<!-- Node58&#45;&gt;Node32 -->
<g id="edge294" class="edge"><title>Node58&#45;&gt;Node32</title>
<path fill="none" stroke="midnightblue" d="M1766.26,-313.077C1662.01,-307.079 1350.2,-287.918 1250.59,-268 1095.57,-237.004 918.456,-170.415 844.688,-141.215"/>
<polygon fill="midnightblue" stroke="midnightblue" points="845.974,-137.96 835.388,-137.515 843.386,-144.464 845.974,-137.96"/>
</g>
<!-- Node59 -->
<g id="node197" class="node"><title>Node59</title>
<polygon fill="white" stroke="#bfbfbf" points="1969.59,-239.5 1969.59,-260.5 2065.59,-260.5 2065.59,-239.5 1969.59,-239.5"/>
<text text-anchor="middle" x="2017.59" y="-247.5" font-family="Helvetica,sans-Serif" font-size="10.00">cereal/access.hpp</text>
</g>
<!-- Node58&#45;&gt;Node59 -->
<g id="edge274" class="edge"><title>Node58&#45;&gt;Node59</title>
<path fill="none" stroke="midnightblue" d="M1834.67,-305.205C1867.1,-295.832 1917.24,-281.208 1960.59,-268 1965.18,-266.599 1969.98,-265.116 1974.76,-263.626"/>
<polygon fill="midnightblue" stroke="midnightblue" points="1975.97,-266.915 1984.47,-260.583 1973.88,-260.235 1975.97,-266.915"/>
</g>
<!-- Node60 -->
<g id="node199" class="node"><title>Node60</title>
<a xlink:href="variadic_8h.html" target="_top" xlink:title="std_ext/variadic.h">
<polygon fill="white" stroke="black" points="1259.59,-239.5 1259.59,-260.5 1353.59,-260.5 1353.59,-239.5 1259.59,-239.5"/>
<text text-anchor="middle" x="1306.59" y="-247.5" font-family="Helvetica,sans-Serif" font-size="10.00">std_ext/variadic.h</text>
</a>
</g>
<!-- Node58&#45;&gt;Node60 -->
<g id="edge276" class="edge"><title>Node58&#45;&gt;Node60</title>
<path fill="none" stroke="midnightblue" d="M1766.58,-313.38C1693.13,-309.429 1514.39,-297.382 1367.59,-268 1361.26,-266.734 1354.65,-265.109 1348.21,-263.355"/>
<polygon fill="midnightblue" stroke="midnightblue" points="1348.87,-259.904 1338.29,-260.524 1346.95,-266.635 1348.87,-259.904"/>
</g>
<!-- Node62 -->
<g id="node208" class="node"><title>Node62</title>
<polygon fill="white" stroke="#bfbfbf" points="1835.09,-239.5 1835.09,-260.5 1884.09,-260.5 1884.09,-239.5 1835.09,-239.5"/>
<text text-anchor="middle" x="1859.59" y="-247.5" font-family="Helvetica,sans-Serif" font-size="10.00">cassert</text>
</g>
<!-- Node58&#45;&gt;Node62 -->
<g id="edge290" class="edge"><title>Node58&#45;&gt;Node62</title>
<path fill="none" stroke="midnightblue" d="M1810.33,-304.267C1819.26,-294.423 1832.67,-279.648 1843.25,-268"/>
<polygon fill="midnightblue" stroke="midnightblue" points="1845.89,-270.291 1850.02,-260.534 1840.71,-265.586 1845.89,-270.291"/>
</g>
<!-- Node63 -->
<g id="node210" class="node"><title>Node63</title>
<polygon fill="white" stroke="#bfbfbf" points="1901.09,-239.5 1901.09,-260.5 1952.09,-260.5 1952.09,-239.5 1901.09,-239.5"/>
<text text-anchor="middle" x="1926.59" y="-247.5" font-family="Helvetica,sans-Serif" font-size="10.00">numeric</text>
</g>
<!-- Node58&#45;&gt;Node63 -->
<g id="edge292" class="edge"><title>Node58&#45;&gt;Node63</title>
<path fill="none" stroke="midnightblue" d="M1821.46,-304.447C1840.13,-294.977 1868.24,-280.662 1892.59,-268 1894.32,-267.099 1896.1,-266.168 1897.89,-265.227"/>
<polygon fill="midnightblue" stroke="midnightblue" points="1899.62,-268.276 1906.83,-260.519 1896.36,-262.082 1899.62,-268.276"/>
</g>
<!-- Node60&#45;&gt;Node33 -->
<g id="edge280" class="edge"><title>Node60&#45;&gt;Node33</title>
<path fill="none" stroke="midnightblue" d="M1259.58,-245.86C1119.94,-233.561 710.322,-197.484 597.592,-187.555"/>
<polygon fill="midnightblue" stroke="midnightblue" points="597.897,-184.068 587.629,-186.677 597.283,-191.041 597.897,-184.068"/>
</g>
<!-- Node61 -->
<g id="node201" class="node"><title>Node61</title>
<polygon fill="white" stroke="#bfbfbf" points="1291.09,-174.5 1291.09,-195.5 1340.09,-195.5 1340.09,-174.5 1291.09,-174.5"/>
<text text-anchor="middle" x="1315.59" y="-182.5" font-family="Helvetica,sans-Serif" font-size="10.00">cstddef</text>
</g>
<!-- Node60&#45;&gt;Node61 -->
<g id="edge278" class="edge"><title>Node60&#45;&gt;Node61</title>
<path fill="none" stroke="midnightblue" d="M1308.07,-239.267C1309.33,-230.18 1311.17,-216.892 1312.71,-205.74"/>
<polygon fill="midnightblue" stroke="midnightblue" points="1316.22,-205.919 1314.13,-195.534 1309.29,-204.959 1316.22,-205.919"/>
</g>
<!-- Node65&#45;&gt;Node11 -->
<g id="edge316" class="edge"><title>Node65&#45;&gt;Node11</title>
<path fill="none" stroke="midnightblue" d="M3127.35,-244.105C3092.99,-240.174 3046.05,-235.165 3004.59,-232 2672.72,-206.669 2588.3,-223.156 2256.59,-196 2171.86,-189.064 2151.35,-180.482 2066.59,-174 1639.53,-141.344 1530.98,-165.888 1103.59,-138 1076.17,-136.211 1045.24,-133.295 1021.93,-130.915"/>
<polygon fill="midnightblue" stroke="midnightblue" points="1022.1,-127.414 1011.8,-129.865 1021.38,-134.377 1022.1,-127.414"/>
</g>
<!-- Node65&#45;&gt;Node16 -->
<g id="edge308" class="edge"><title>Node65&#45;&gt;Node16</title>
<path fill="none" stroke="midnightblue" d="M3170.09,-239.308C3159.86,-223.223 3138.55,-192.7 3113.59,-174 3089.73,-156.135 3058.05,-143.457 3034.99,-135.805"/>
<polygon fill="midnightblue" stroke="midnightblue" points="3035.97,-132.442 3025.38,-132.738 3033.84,-139.111 3035.97,-132.442"/>
</g>
<!-- Node65&#45;&gt;Node19 -->
<g id="edge310" class="edge"><title>Node65&#45;&gt;Node19</title>
<path fill="none" stroke="midnightblue" d="M3127.35,-244.025C3093,-240.058 3046.06,-235.038 3004.59,-232 2624.38,-204.147 2527.92,-222.004 2147.59,-196 2120.81,-194.169 2090.63,-191.281 2067.76,-188.924"/>
<polygon fill="midnightblue" stroke="midnightblue" points="2068.12,-185.442 2057.81,-187.884 2067.39,-192.405 2068.12,-185.442"/>
</g>
<!-- Node65&#45;&gt;Node56 -->
<g id="edge312" class="edge"><title>Node65&#45;&gt;Node56</title>
<path fill="none" stroke="midnightblue" d="M3189.3,-239.267C3201.3,-229.139 3219.48,-213.792 3233.45,-202"/>
<polygon fill="midnightblue" stroke="midnightblue" points="3235.72,-204.659 3241.11,-195.534 3231.21,-199.31 3235.72,-204.659"/>
</g>
<!-- Node66 -->
<g id="node224" class="node"><title>Node66</title>
<polygon fill="white" stroke="#bfbfbf" points="3165.59,-174.5 3165.59,-195.5 3195.59,-195.5 3195.59,-174.5 3165.59,-174.5"/>
<text text-anchor="middle" x="3180.59" y="-182.5" font-family="Helvetica,sans-Serif" font-size="10.00">set</text>
</g>
<!-- Node65&#45;&gt;Node66 -->
<g id="edge314" class="edge"><title>Node65&#45;&gt;Node66</title>
<path fill="none" stroke="midnightblue" d="M3177.25,-239.267C3177.8,-230.18 3178.62,-216.892 3179.31,-205.74"/>
<polygon fill="midnightblue" stroke="midnightblue" points="3182.82,-205.73 3179.94,-195.534 3175.83,-205.3 3182.82,-205.73"/>
</g>
<!-- Node67&#45;&gt;Node18 -->
<g id="edge322" class="edge"><title>Node67&#45;&gt;Node18</title>
<path fill="none" stroke="midnightblue" d="M2290.29,-304.436C2244.81,-294.445 2181.56,-279.336 2158.59,-268 2157.58,-267.506 2156.59,-266.965 2155.6,-266.387"/>
<polygon fill="midnightblue" stroke="midnightblue" points="2157.35,-263.341 2147.13,-260.53 2153.36,-269.098 2157.35,-263.341"/>
</g>
<!-- Node67&#45;&gt;Node19 -->
<g id="edge320" class="edge"><title>Node67&#45;&gt;Node19</title>
<path fill="none" stroke="midnightblue" d="M2336.39,-304.288C2328.69,-286.162 2310.5,-249.693 2282.59,-232 2202.23,-181.07 2164.45,-216.638 2071.59,-196 2070.32,-195.719 2069.03,-195.423 2067.74,-195.115"/>
<polygon fill="midnightblue" stroke="midnightblue" points="2068.29,-191.646 2057.74,-192.594 2066.58,-198.433 2068.29,-191.646"/>
</g>
<!-- Node68&#45;&gt;Node55 -->
<g id="edge340" class="edge"><title>Node68&#45;&gt;Node55</title>
<path fill="none" stroke="midnightblue" d="M2939.94,-362.085C2940.61,-341.609 2942.05,-297.133 2942.91,-270.778"/>
<polygon fill="midnightblue" stroke="midnightblue" points="2946.41,-270.824 2943.24,-260.715 2939.41,-270.596 2946.41,-270.824"/>
</g>
<!-- Node68&#45;&gt;Node56 -->
<g id="edge344" class="edge"><title>Node68&#45;&gt;Node56</title>
<path fill="none" stroke="midnightblue" d="M3001.09,-368.194C3068.38,-359.561 3174.61,-335.43 3234.59,-268 3249.79,-250.906 3253.55,-224.147 3254.15,-205.656"/>
<polygon fill="midnightblue" stroke="midnightblue" points="3257.65,-205.631 3254.2,-195.615 3250.65,-205.6 3257.65,-205.631"/>
</g>
<!-- Node68&#45;&gt;Node58 -->
<g id="edge342" class="edge"><title>Node68&#45;&gt;Node58</title>
<path fill="none" stroke="midnightblue" d="M2877.75,-372.036C2680.22,-368.697 2065.05,-356.211 1844.9,-325.872"/>
<polygon fill="midnightblue" stroke="midnightblue" points="1845.12,-322.367 1834.72,-324.414 1844.12,-329.297 1845.12,-322.367"/>
</g>
<!-- Node69&#45;&gt;Node16 -->
<g id="edge354" class="edge"><title>Node69&#45;&gt;Node16</title>
<path fill="none" stroke="midnightblue" d="M2949.15,-478.274C2964.64,-460.232 2994.97,-422.04 3009.59,-384 3043.29,-296.259 3060.93,-264.226 3034.59,-174 3031.64,-163.9 3025.78,-153.905 3020.02,-145.745"/>
<polygon fill="midnightblue" stroke="midnightblue" points="3022.77,-143.571 3013.95,-137.694 3017.18,-147.786 3022.77,-143.571"/>
</g>
<!-- Node69&#45;&gt;Node48 -->
<g id="edge352" class="edge"><title>Node69&#45;&gt;Node48</title>
<path fill="none" stroke="midnightblue" d="M2868.45,-487.158C2476.25,-476.866 586.166,-425.452 329.585,-384 255.9,-372.096 172.782,-345.349 125.64,-328.873"/>
<polygon fill="midnightblue" stroke="midnightblue" points="126.738,-325.548 116.143,-325.522 124.409,-332.15 126.738,-325.548"/>
</g>
<!-- Node69&#45;&gt;Node54 -->
<g id="edge348" class="edge"><title>Node69&#45;&gt;Node54</title>
<path fill="none" stroke="midnightblue" d="M2868.53,-485.588C2643.65,-474.791 1951.89,-441.577 1773.76,-433.025"/>
<polygon fill="midnightblue" stroke="midnightblue" points="1773.89,-429.527 1763.74,-432.544 1773.56,-436.519 1773.89,-429.527"/>
</g>
<!-- Node69&#45;&gt;Node68 -->
<g id="edge350" class="edge"><title>Node69&#45;&gt;Node68</title>
<path fill="none" stroke="midnightblue" d="M2939.59,-478.295C2939.59,-459.131 2939.59,-418.654 2939.59,-393.843"/>
<polygon fill="midnightblue" stroke="midnightblue" points="2943.09,-393.679 2939.59,-383.679 2936.09,-393.679 2943.09,-393.679"/>
</g>
</g>
</svg>
