<?xml version="1.0" encoding="UTF-8" standalone="no"?>
<!DOCTYPE svg PUBLIC "-//W3C//DTD SVG 1.1//EN"
 "http://www.w3.org/Graphics/SVG/1.1/DTD/svg11.dtd">
<!-- Generated by graphviz version 2.26.3 (20100126.1600)
 -->
<!-- Title: src/analysis/utils/Matcher.h Pages: 1 -->
<svg width="1266pt" height="128pt"
 viewBox="0.00 0.00 1266.00 128.00" xmlns="http://www.w3.org/2000/svg" xmlns:xlink="http://www.w3.org/1999/xlink">
<g id="graph1" class="graph" transform="scale(1 1) rotate(0) translate(4 124)">
<title>src/analysis/utils/Matcher.h</title>
<polygon fill="white" stroke="white" points="-4,5 -4,-124 1263,-124 1263,5 -4,5"/>
<!-- Node12 -->
<g id="node1" class="node"><title>Node12</title>
<polygon fill="#bfbfbf" stroke="black" points="603,-85 603,-119 693,-119 693,-85 603,-85"/>
<text text-anchor="start" x="611" y="-106" font-family="Helvetica,sans-Serif" font-size="10.00">src/analysis/utils</text>
<text text-anchor="middle" x="648" y="-93" font-family="Helvetica,sans-Serif" font-size="10.00">/Matcher.h</text>
</g>
<!-- Node13 -->
<g id="node3" class="node"><title>Node13</title>
<a xlink:href="_p_i_d___t_a_p_s_veto___kinfit_8cc.html" target="_top" xlink:title="src/analysis/physics\l/calibration/PID_TAPSVeto\l_Kinfit.cc">
<polygon fill="white" stroke="black" points="0,-0.5 0,-47.5 136,-47.5 136,-0.5 0,-0.5"/>
<text text-anchor="start" x="8" y="-34.5" font-family="Helvetica,sans-Serif" font-size="10.00">src/analysis/physics</text>
<text text-anchor="start" x="8" y="-21.5" font-family="Helvetica,sans-Serif" font-size="10.00">/calibration/PID_TAPSVeto</text>
<text text-anchor="middle" x="68" y="-8.5" font-family="Helvetica,sans-Serif" font-size="10.00">_Kinfit.cc</text>
</a>
</g>
<!-- Node12&#45;&gt;Node13 -->
<g id="edge2" class="edge"><title>Node12&#45;&gt;Node13</title>
<path fill="none" stroke="midnightblue" d="M592.747,-99.5971C499.561,-94.7609 305.599,-81.3158 145,-48 142.121,-47.4027 139.196,-46.7419 136.252,-46.0321"/>
<polygon fill="midnightblue" stroke="midnightblue" points="592.631,-103.096 602.795,-100.105 592.985,-96.1045 592.631,-103.096"/>
</g>
<!-- Node14 -->
<g id="node5" class="node"><title>Node14</title>
<a xlink:href="_etap_omega_g_8cc.html" target="_top" xlink:title="src/analysis/physics\l/etaprime/EtapOmegaG.cc">
<polygon fill="white" stroke="black" points="153.5,-7 153.5,-41 286.5,-41 286.5,-7 153.5,-7"/>
<text text-anchor="start" x="161.5" y="-28" font-family="Helvetica,sans-Serif" font-size="10.00">src/analysis/physics</text>
<text text-anchor="middle" x="220" y="-15" font-family="Helvetica,sans-Serif" font-size="10.00">/etaprime/EtapOmegaG.cc</text>
</a>
</g>
<!-- Node12&#45;&gt;Node14 -->
<g id="edge4" class="edge"><title>Node12&#45;&gt;Node14</title>
<path fill="none" stroke="midnightblue" d="M592.651,-96.2732C522.708,-88.4116 398.907,-72.4115 295,-48 286.748,-46.0614 278.095,-43.6541 269.717,-41.1189"/>
<polygon fill="midnightblue" stroke="midnightblue" points="592.662,-99.7958 602.987,-97.4196 593.434,-92.8384 592.662,-99.7958"/>
</g>
<!-- Node15 -->
<g id="node7" class="node"><title>Node15</title>
<a xlink:href="_find_proton_8cc.html" target="_top" xlink:title="src/analysis/physics\l/omega/FindProton.cc">
<polygon fill="white" stroke="black" points="303.5,-7 303.5,-41 416.5,-41 416.5,-7 303.5,-7"/>
<text text-anchor="start" x="311.5" y="-28" font-family="Helvetica,sans-Serif" font-size="10.00">src/analysis/physics</text>
<text text-anchor="middle" x="360" y="-15" font-family="Helvetica,sans-Serif" font-size="10.00">/omega/FindProton.cc</text>
</a>
</g>
<!-- Node12&#45;&gt;Node15 -->
<g id="edge6" class="edge"><title>Node12&#45;&gt;Node15</title>
<path fill="none" stroke="midnightblue" d="M592.795,-90.505C547.371,-80.6003 481.506,-65.2097 425,-48 418.211,-45.9322 411.098,-43.5427 404.172,-41.0897"/>
<polygon fill="midnightblue" stroke="midnightblue" points="592.223,-93.9623 602.737,-92.6566 593.704,-87.1207 592.223,-93.9623"/>
</g>
<!-- Node16 -->
<g id="node9" class="node"><title>Node16</title>
<a xlink:href="_geo_acceptance_8cc.html" target="_top" xlink:title="src/analysis/physics\l/omega/GeoAcceptance.cc">
<polygon fill="white" stroke="black" points="433.5,-7 433.5,-41 568.5,-41 568.5,-7 433.5,-7"/>
<text text-anchor="start" x="441.5" y="-28" font-family="Helvetica,sans-Serif" font-size="10.00">src/analysis/physics</text>
<text text-anchor="middle" x="501" y="-15" font-family="Helvetica,sans-Serif" font-size="10.00">/omega/GeoAcceptance.cc</text>
</a>
</g>
<!-- Node12&#45;&gt;Node16 -->
<g id="edge8" class="edge"><title>Node12&#45;&gt;Node16</title>
<path fill="none" stroke="midnightblue" d="M606.78,-80.1282C583.491,-67.7706 554.805,-52.5498 533.185,-41.0775"/>
<polygon fill="midnightblue" stroke="midnightblue" points="605.266,-83.2871 615.74,-84.8826 608.547,-77.1036 605.266,-83.2871"/>
</g>
<!-- Node17 -->
<g id="node11" class="node"><title>Node17</title>
<a xlink:href="_omega___eta_g_8cc.html" target="_top" xlink:title="src/analysis/physics\l/omega/Omega_EtaG.cc">
<polygon fill="white" stroke="black" points="585.5,-7 585.5,-41 710.5,-41 710.5,-7 585.5,-7"/>
<text text-anchor="start" x="593.5" y="-28" font-family="Helvetica,sans-Serif" font-size="10.00">src/analysis/physics</text>
<text text-anchor="middle" x="648" y="-15" font-family="Helvetica,sans-Serif" font-size="10.00">/omega/Omega_EtaG.cc</text>
</a>
</g>
<!-- Node12&#45;&gt;Node17 -->
<g id="edge10" class="edge"><title>Node12&#45;&gt;Node17</title>
<path fill="none" stroke="midnightblue" d="M648,-74.6102C648,-63.5188 648,-51.0489 648,-41.2623"/>
<polygon fill="midnightblue" stroke="midnightblue" points="644.5,-74.6892 648,-84.6893 651.5,-74.6893 644.5,-74.6892"/>
</g>
<!-- Node18 -->
<g id="node13" class="node"><title>Node18</title>
<a xlink:href="pi0eta_8cc.html" target="_top" xlink:title="src/analysis/physics\l/omega/pi0eta.cc">
<polygon fill="white" stroke="black" points="728,-7 728,-41 834,-41 834,-7 728,-7"/>
<text text-anchor="start" x="736" y="-28" font-family="Helvetica,sans-Serif" font-size="10.00">src/analysis/physics</text>
<text text-anchor="middle" x="781" y="-15" font-family="Helvetica,sans-Serif" font-size="10.00">/omega/pi0eta.cc</text>
</a>
</g>
<!-- Node12&#45;&gt;Node18 -->
<g id="edge12" class="edge"><title>Node12&#45;&gt;Node18</title>
<path fill="none" stroke="midnightblue" d="M685.855,-79.7995C706.824,-67.5015 732.492,-52.4483 751.881,-41.0775"/>
<polygon fill="midnightblue" stroke="midnightblue" points="684.043,-76.8046 677.187,-84.8826 687.584,-82.8428 684.043,-76.8046"/>
</g>
<!-- Node19 -->
<g id="node15" class="node"><title>Node19</title>
<a xlink:href="pi0eta__lost__g_8cc.html" target="_top" xlink:title="src/analysis/physics\l/omega/pi0eta_lost_g.cc">
<polygon fill="white" stroke="black" points="851.5,-7 851.5,-41 974.5,-41 974.5,-7 851.5,-7"/>
<text text-anchor="start" x="859.5" y="-28" font-family="Helvetica,sans-Serif" font-size="10.00">src/analysis/physics</text>
<text text-anchor="middle" x="913" y="-15" font-family="Helvetica,sans-Serif" font-size="10.00">/omega/pi0eta_lost_g.cc</text>
</a>
</g>
<!-- Node12&#45;&gt;Node19 -->
<g id="edge14" class="edge"><title>Node12&#45;&gt;Node19</title>
<path fill="none" stroke="midnightblue" d="M703.036,-87.7061C742.238,-77.2942 796.078,-62.5263 843,-48 849.995,-45.8344 857.346,-43.4433 864.547,-41.0345"/>
<polygon fill="midnightblue" stroke="midnightblue" points="701.917,-84.3815 693.145,-90.323 703.708,-91.1486 701.917,-84.3815"/>
</g>
<!-- Node20 -->
<g id="node17" class="node"><title>Node20</title>
<a xlink:href="_just_pi0_8cc.html" target="_top" xlink:title="src/analysis/physics\l/pi0/JustPi0.cc">
<polygon fill="white" stroke="black" points="992,-7 992,-41 1098,-41 1098,-7 992,-7"/>
<text text-anchor="start" x="1000" y="-28" font-family="Helvetica,sans-Serif" font-size="10.00">src/analysis/physics</text>
<text text-anchor="middle" x="1045" y="-15" font-family="Helvetica,sans-Serif" font-size="10.00">/pi0/JustPi0.cc</text>
</a>
</g>
<!-- Node12&#45;&gt;Node20 -->
<g id="edge16" class="edge"><title>Node12&#45;&gt;Node20</title>
<path fill="none" stroke="midnightblue" d="M703.397,-96.6671C770.449,-89.3923 886.388,-74.1749 983,-48 990.019,-46.0985 997.338,-43.6794 1004.38,-41.1126"/>
<polygon fill="midnightblue" stroke="midnightblue" points="702.639,-93.2279 693.066,-97.7669 703.38,-100.189 702.639,-93.2279"/>
</g>
<!-- Node21 -->
<g id="node19" class="node"><title>Node21</title>
<a xlink:href="_test_matcher_8cc.html" target="_top" xlink:title="test/analysis/TestMatcher.cc">
<polygon fill="white" stroke="black" points="1115.5,-13.5 1115.5,-34.5 1258.5,-34.5 1258.5,-13.5 1115.5,-13.5"/>
<text text-anchor="middle" x="1187" y="-21.5" font-family="Helvetica,sans-Serif" font-size="10.00">test/analysis/TestMatcher.cc</text>
</a>
</g>
<!-- Node12&#45;&gt;Node21 -->
<g id="edge18" class="edge"><title>Node12&#45;&gt;Node21</title>
<path fill="none" stroke="midnightblue" d="M703.185,-98.6272C789.886,-92.6305 962.985,-77.8361 1107,-48 1123.47,-44.5877 1141.44,-39.3401 1156.17,-34.621"/>
<polygon fill="midnightblue" stroke="midnightblue" points="702.787,-95.146 693.047,-99.3153 703.262,-102.13 702.787,-95.146"/>
</g>
</g>
</svg>
