<?xml version="1.0" encoding="UTF-8" standalone="no"?>
<!DOCTYPE svg PUBLIC "-//W3C//DTD SVG 1.1//EN"
 "http://www.w3.org/Graphics/SVG/1.1/DTD/svg11.dtd">
<!-- Generated by graphviz version 2.26.3 (20100126.1600)
 -->
<!-- Title: src/analysis/utils/uncertainties/Optimized.h Pages: 1 -->
<svg width="1340pt" height="200pt"
 viewBox="0.00 0.00 1340.00 200.00" xmlns="http://www.w3.org/2000/svg" xmlns:xlink="http://www.w3.org/1999/xlink">
<g id="graph1" class="graph" transform="scale(1 1) rotate(0) translate(4 196)">
<title>src/analysis/utils/uncertainties/Optimized.h</title>
<polygon fill="white" stroke="white" points="-4,5 -4,-196 1337,-196 1337,5 -4,5"/>
<!-- Node42 -->
<g id="node1" class="node"><title>Node42</title>
<polygon fill="#bfbfbf" stroke="black" points="698.5,-157 698.5,-191 829.5,-191 829.5,-157 698.5,-157"/>
<text text-anchor="start" x="706.5" y="-178" font-family="Helvetica,sans-Serif" font-size="10.00">src/analysis/utils</text>
<text text-anchor="middle" x="764" y="-165" font-family="Helvetica,sans-Serif" font-size="10.00">/uncertainties/Optimized.h</text>
</g>
<!-- Node43 -->
<g id="node3" class="node"><title>Node43</title>
<a xlink:href="analysis_2physics_2calibration_2_p_i_d___energy_8h.html" target="_top" xlink:title="src/analysis/physics\l/calibration/PID_Energy.h">
<polygon fill="white" stroke="black" points="83,-85 83,-119 211,-119 211,-85 83,-85"/>
<text text-anchor="start" x="91" y="-106" font-family="Helvetica,sans-Serif" font-size="10.00">src/analysis/physics</text>
<text text-anchor="middle" x="147" y="-93" font-family="Helvetica,sans-Serif" font-size="10.00">/calibration/PID_Energy.h</text>
</a>
</g>
<!-- Node42&#45;&gt;Node43 -->
<g id="edge2" class="edge"><title>Node42&#45;&gt;Node43</title>
<path fill="none" stroke="midnightblue" d="M688.424,-165.191C596.761,-154.506 437.552,-135.943 301,-120 271.456,-116.551 238.725,-112.725 211.062,-109.491"/>
<polygon fill="midnightblue" stroke="midnightblue" points="688.105,-168.678 698.443,-166.359 688.916,-161.725 688.105,-168.678"/>
</g>
<!-- Node45 -->
<g id="node7" class="node"><title>Node45</title>
<a xlink:href="_meson_dalitz_decays_8h.html" target="_top" xlink:title="src/analysis/physics\l/common/MesonDalitzDecays.h">
<polygon fill="white" stroke="black" points="309.5,-85 309.5,-119 466.5,-119 466.5,-85 309.5,-85"/>
<text text-anchor="start" x="317.5" y="-106" font-family="Helvetica,sans-Serif" font-size="10.00">src/analysis/physics</text>
<text text-anchor="middle" x="388" y="-93" font-family="Helvetica,sans-Serif" font-size="10.00">/common/MesonDalitzDecays.h</text>
</a>
</g>
<!-- Node42&#45;&gt;Node45 -->
<g id="edge6" class="edge"><title>Node42&#45;&gt;Node45</title>
<path fill="none" stroke="midnightblue" d="M688.344,-160.276C629.997,-149.592 547.315,-134.236 475,-120 472.276,-119.464 469.505,-118.914 466.707,-118.355"/>
<polygon fill="midnightblue" stroke="midnightblue" points="687.753,-163.726 698.22,-162.082 689.013,-156.84 687.753,-163.726"/>
</g>
<!-- Node48 -->
<g id="node13" class="node"><title>Node48</title>
<a xlink:href="etaprime__dalitz_8h.html" target="_top" xlink:title="src/analysis/physics\l/etaprime/etaprime_dalitz.h">
<polygon fill="white" stroke="black" points="484,-85 484,-119 618,-119 618,-85 484,-85"/>
<text text-anchor="start" x="492" y="-106" font-family="Helvetica,sans-Serif" font-size="10.00">src/analysis/physics</text>
<text text-anchor="middle" x="551" y="-93" font-family="Helvetica,sans-Serif" font-size="10.00">/etaprime/etaprime_dalitz.h</text>
</a>
</g>
<!-- Node42&#45;&gt;Node48 -->
<g id="edge12" class="edge"><title>Node42&#45;&gt;Node48</title>
<path fill="none" stroke="midnightblue" d="M703.746,-153.633C671.464,-142.72 632.145,-129.429 601.484,-119.065"/>
<polygon fill="midnightblue" stroke="midnightblue" points="702.928,-157.05 713.522,-156.937 705.169,-150.419 702.928,-157.05"/>
</g>
<!-- Node51 -->
<g id="node19" class="node"><title>Node51</title>
<a xlink:href="_omega___eta_g_8cc.html" target="_top" xlink:title="src/analysis/physics\l/omega/Omega_EtaG.cc">
<polygon fill="white" stroke="black" points="635.5,-85 635.5,-119 760.5,-119 760.5,-85 635.5,-85"/>
<text text-anchor="start" x="643.5" y="-106" font-family="Helvetica,sans-Serif" font-size="10.00">src/analysis/physics</text>
<text text-anchor="middle" x="698" y="-93" font-family="Helvetica,sans-Serif" font-size="10.00">/omega/Omega_EtaG.cc</text>
</a>
</g>
<!-- Node42&#45;&gt;Node51 -->
<g id="edge18" class="edge"><title>Node42&#45;&gt;Node51</title>
<path fill="none" stroke="midnightblue" d="M741.43,-149.379C732.407,-139.535 722.224,-128.426 713.987,-119.441"/>
<polygon fill="midnightblue" stroke="midnightblue" points="739.022,-151.93 748.359,-156.937 744.182,-147.2 739.022,-151.93"/>
</g>
<!-- Node52 -->
<g id="node21" class="node"><title>Node52</title>
<a xlink:href="pi0eta_8cc.html" target="_top" xlink:title="src/analysis/physics\l/omega/pi0eta.cc">
<polygon fill="white" stroke="black" points="778,-85 778,-119 884,-119 884,-85 778,-85"/>
<text text-anchor="start" x="786" y="-106" font-family="Helvetica,sans-Serif" font-size="10.00">src/analysis/physics</text>
<text text-anchor="middle" x="831" y="-93" font-family="Helvetica,sans-Serif" font-size="10.00">/omega/pi0eta.cc</text>
</a>
</g>
<!-- Node42&#45;&gt;Node52 -->
<g id="edge20" class="edge"><title>Node42&#45;&gt;Node52</title>
<path fill="none" stroke="midnightblue" d="M786.912,-149.379C796.072,-139.535 806.409,-128.426 814.77,-119.441"/>
<polygon fill="midnightblue" stroke="midnightblue" points="784.128,-147.232 779.878,-156.937 789.253,-152.001 784.128,-147.232"/>
</g>
<!-- Node53 -->
<g id="node23" class="node"><title>Node53</title>
<a xlink:href="_optimized_8cc.html" target="_top" xlink:title="src/analysis/utils\l/uncertainties/Optimized.cc">
<polygon fill="white" stroke="black" points="902,-85 902,-119 1038,-119 1038,-85 902,-85"/>
<text text-anchor="start" x="910" y="-106" font-family="Helvetica,sans-Serif" font-size="10.00">src/analysis/utils</text>
<text text-anchor="middle" x="970" y="-93" font-family="Helvetica,sans-Serif" font-size="10.00">/uncertainties/Optimized.cc</text>
</a>
</g>
<!-- Node42&#45;&gt;Node53 -->
<g id="edge22" class="edge"><title>Node42&#45;&gt;Node53</title>
<path fill="none" stroke="midnightblue" d="M822.273,-153.633C853.495,-142.72 891.522,-129.429 921.175,-119.065"/>
<polygon fill="midnightblue" stroke="midnightblue" points="821.104,-150.334 812.819,-156.937 823.414,-156.942 821.104,-150.334"/>
</g>
<!-- Node54 -->
<g id="node25" class="node"><title>Node54</title>
<a xlink:href="root-addons_2analysis__codes_2_interpolated_pulls_8cc.html" target="_top" xlink:title="src/root&#45;addons/analysis\l_codes/InterpolatedPulls.cc">
<polygon fill="white" stroke="black" points="1055.5,-85 1055.5,-119 1192.5,-119 1192.5,-85 1055.5,-85"/>
<text text-anchor="start" x="1063.5" y="-106" font-family="Helvetica,sans-Serif" font-size="10.00">src/root&#45;addons/analysis</text>
<text text-anchor="middle" x="1124" y="-93" font-family="Helvetica,sans-Serif" font-size="10.00">_codes/InterpolatedPulls.cc</text>
</a>
</g>
<!-- Node42&#45;&gt;Node54 -->
<g id="edge24" class="edge"><title>Node42&#45;&gt;Node54</title>
<path fill="none" stroke="midnightblue" d="M839.658,-160.437C896.754,-149.989 976.956,-134.863 1047,-120 1049.69,-119.43 1052.42,-118.839 1055.18,-118.234"/>
<polygon fill="midnightblue" stroke="midnightblue" points="838.839,-157.028 829.63,-162.267 840.096,-163.914 838.839,-157.028"/>
</g>
<!-- Node55 -->
<g id="node27" class="node"><title>Node55</title>
<a xlink:href="_kinfit_extract_8cc.html" target="_top" xlink:title="src/root&#45;addons/analysis\l_codes/KinfitExtract.cc">
<polygon fill="white" stroke="black" points="1209.5,-85 1209.5,-119 1332.5,-119 1332.5,-85 1209.5,-85"/>
<text text-anchor="start" x="1217.5" y="-106" font-family="Helvetica,sans-Serif" font-size="10.00">src/root&#45;addons/analysis</text>
<text text-anchor="middle" x="1271" y="-93" font-family="Helvetica,sans-Serif" font-size="10.00">_codes/KinfitExtract.cc</text>
</a>
</g>
<!-- Node42&#45;&gt;Node55 -->
<g id="edge26" class="edge"><title>Node42&#45;&gt;Node55</title>
<path fill="none" stroke="midnightblue" d="M839.663,-167.632C927.16,-159.58 1075.29,-143.827 1201,-120 1203.71,-119.486 1206.48,-118.927 1209.26,-118.335"/>
<polygon fill="midnightblue" stroke="midnightblue" points="839.201,-164.16 829.56,-168.552 839.836,-171.131 839.201,-164.16"/>
</g>
<!-- Node44 -->
<g id="node5" class="node"><title>Node44</title>
<a xlink:href="analysis_2physics_2calibration_2_p_i_d___energy_8cc.html" target="_top" xlink:title="src/analysis/physics\l/calibration/PID_Energy.cc">
<polygon fill="white" stroke="black" points="0,-7 0,-41 134,-41 134,-7 0,-7"/>
<text text-anchor="start" x="8" y="-28" font-family="Helvetica,sans-Serif" font-size="10.00">src/analysis/physics</text>
<text text-anchor="middle" x="67" y="-15" font-family="Helvetica,sans-Serif" font-size="10.00">/calibration/PID_Energy.cc</text>
</a>
</g>
<!-- Node43&#45;&gt;Node44 -->
<g id="edge4" class="edge"><title>Node43&#45;&gt;Node44</title>
<path fill="none" stroke="midnightblue" d="M122.035,-77.6587C109.929,-65.8559 95.6738,-51.957 84.705,-41.2623"/>
<polygon fill="midnightblue" stroke="midnightblue" points="119.642,-80.2143 129.245,-84.6893 124.529,-75.2022 119.642,-80.2143"/>
</g>
<!-- Node46 -->
<g id="node9" class="node"><title>Node46</title>
<a xlink:href="_meson_dalitz_decays_8cc.html" target="_top" xlink:title="Physics class to investigate Dalitz decays for different mesons. ">
<polygon fill="white" stroke="black" points="152,-7 152,-41 314,-41 314,-7 152,-7"/>
<text text-anchor="start" x="160" y="-28" font-family="Helvetica,sans-Serif" font-size="10.00">src/analysis/physics</text>
<text text-anchor="middle" x="233" y="-15" font-family="Helvetica,sans-Serif" font-size="10.00">/common/MesonDalitzDecays.cc</text>
</a>
</g>
<!-- Node45&#45;&gt;Node46 -->
<g id="edge8" class="edge"><title>Node45&#45;&gt;Node46</title>
<path fill="none" stroke="midnightblue" d="M344.862,-80.2921C320.248,-67.9054 289.834,-52.6006 266.936,-41.0775"/>
<polygon fill="midnightblue" stroke="midnightblue" points="343.479,-83.5138 353.985,-84.8826 346.625,-77.2609 343.479,-83.5138"/>
</g>
<!-- Node47 -->
<g id="node11" class="node"><title>Node47</title>
<a xlink:href="_meson_dalitz_decays__plot_8cc.html" target="_top" xlink:title="src/analysis/physics\l/common/MesonDalitzDecays\l_plot.cc">
<polygon fill="white" stroke="black" points="331.5,-0.5 331.5,-47.5 480.5,-47.5 480.5,-0.5 331.5,-0.5"/>
<text text-anchor="start" x="339.5" y="-34.5" font-family="Helvetica,sans-Serif" font-size="10.00">src/analysis/physics</text>
<text text-anchor="start" x="339.5" y="-21.5" font-family="Helvetica,sans-Serif" font-size="10.00">/common/MesonDalitzDecays</text>
<text text-anchor="middle" x="406" y="-8.5" font-family="Helvetica,sans-Serif" font-size="10.00">_plot.cc</text>
</a>
</g>
<!-- Node45&#45;&gt;Node47 -->
<g id="edge10" class="edge"><title>Node45&#45;&gt;Node47</title>
<path fill="none" stroke="midnightblue" d="M394.261,-74.8673C396.297,-66.045 398.54,-56.3272 400.515,-47.77"/>
<polygon fill="midnightblue" stroke="midnightblue" points="390.833,-74.1583 391.995,-84.6893 397.654,-75.7324 390.833,-74.1583"/>
</g>
<!-- Node49 -->
<g id="node15" class="node"><title>Node49</title>
<a xlink:href="_etap_dalitz__plot_8cc.html" target="_top" xlink:title="src/analysis/physics\l/etaprime/EtapDalitz\l_plot.cc">
<polygon fill="white" stroke="black" points="498,-0.5 498,-47.5 604,-47.5 604,-0.5 498,-0.5"/>
<text text-anchor="start" x="506" y="-34.5" font-family="Helvetica,sans-Serif" font-size="10.00">src/analysis/physics</text>
<text text-anchor="start" x="506" y="-21.5" font-family="Helvetica,sans-Serif" font-size="10.00">/etaprime/EtapDalitz</text>
<text text-anchor="middle" x="551" y="-8.5" font-family="Helvetica,sans-Serif" font-size="10.00">_plot.cc</text>
</a>
</g>
<!-- Node48&#45;&gt;Node49 -->
<g id="edge14" class="edge"><title>Node48&#45;&gt;Node49</title>
<path fill="none" stroke="midnightblue" d="M551,-74.5793C551,-65.8339 551,-56.2342 551,-47.77"/>
<polygon fill="midnightblue" stroke="midnightblue" points="547.5,-74.6892 551,-84.6893 554.5,-74.6893 547.5,-74.6892"/>
</g>
<!-- Node50 -->
<g id="node17" class="node"><title>Node50</title>
<a xlink:href="etaprime__dalitz_8cc.html" target="_top" xlink:title="src/analysis/physics\l/etaprime/etaprime_dalitz.cc">
<polygon fill="white" stroke="black" points="622,-7 622,-41 762,-41 762,-7 622,-7"/>
<text text-anchor="start" x="630" y="-28" font-family="Helvetica,sans-Serif" font-size="10.00">src/analysis/physics</text>
<text text-anchor="middle" x="692" y="-15" font-family="Helvetica,sans-Serif" font-size="10.00">/etaprime/etaprime_dalitz.cc</text>
</a>
</g>
<!-- Node48&#45;&gt;Node50 -->
<g id="edge16" class="edge"><title>Node48&#45;&gt;Node50</title>
<path fill="none" stroke="midnightblue" d="M590.834,-79.964C613.12,-67.636 640.483,-52.499 661.129,-41.0775"/>
<polygon fill="midnightblue" stroke="midnightblue" points="588.999,-76.9793 581.943,-84.8826 592.388,-83.1045 588.999,-76.9793"/>
</g>
</g>
</svg>
