<?xml version="1.0" encoding="UTF-8" standalone="no"?>
<!DOCTYPE svg PUBLIC "-//W3C//DTD SVG 1.1//EN"
 "http://www.w3.org/Graphics/SVG/1.1/DTD/svg11.dtd">
<!-- Generated by graphviz version 2.26.3 (20100126.1600)
 -->
<!-- Title: src/base/PlotExt.h Pages: 1 -->
<svg width="1018pt" height="102pt"
 viewBox="0.00 0.00 1018.00 102.00" xmlns="http://www.w3.org/2000/svg" xmlns:xlink="http://www.w3.org/1999/xlink">
<g id="graph1" class="graph" transform="scale(1 1) rotate(0) translate(4 98)">
<title>src/base/PlotExt.h</title>
<polygon fill="white" stroke="white" points="-4,5 -4,-98 1015,-98 1015,5 -4,5"/>
<!-- Node10 -->
<g id="node1" class="node"><title>Node10</title>
<polygon fill="#bfbfbf" stroke="black" points="492,-72.5 492,-93.5 590,-93.5 590,-72.5 492,-72.5"/>
<text text-anchor="middle" x="541" y="-80.5" font-family="Helvetica,sans-Serif" font-size="10.00">src/base/PlotExt.h</text>
</g>
<!-- Node11 -->
<g id="node3" class="node"><title>Node11</title>
<a xlink:href="_ant-make_tagg_eff_8cc.html" target="_top" xlink:title="progs/Ant&#45;makeTaggEff.cc">
<polygon fill="white" stroke="black" points="0,-7.5 0,-28.5 134,-28.5 134,-7.5 0,-7.5"/>
<text text-anchor="middle" x="67" y="-15.5" font-family="Helvetica,sans-Serif" font-size="10.00">progs/Ant&#45;makeTaggEff.cc</text>
</a>
</g>
<!-- Node10&#45;&gt;Node11 -->
<g id="edge2" class="edge"><title>Node10&#45;&gt;Node11</title>
<path fill="none" stroke="midnightblue" d="M481.591,-78.1337C403.529,-71.2493 262.338,-57.1062 143,-36 131.517,-33.9691 119.172,-31.2714 107.841,-28.584"/>
<polygon fill="midnightblue" stroke="midnightblue" points="481.45,-81.6346 491.716,-79.0171 482.058,-74.6611 481.45,-81.6346"/>
</g>
<!-- Node12 -->
<g id="node5" class="node"><title>Node12</title>
<a xlink:href="_ant-smooth_tagg_eff_8cc.html" target="_top" xlink:title="progs/Ant&#45;smoothTaggEff.cc">
<polygon fill="white" stroke="black" points="152,-7.5 152,-28.5 294,-28.5 294,-7.5 152,-7.5"/>
<text text-anchor="middle" x="223" y="-15.5" font-family="Helvetica,sans-Serif" font-size="10.00">progs/Ant&#45;smoothTaggEff.cc</text>
</a>
</g>
<!-- Node10&#45;&gt;Node12 -->
<g id="edge4" class="edge"><title>Node10&#45;&gt;Node12</title>
<path fill="none" stroke="midnightblue" d="M481.746,-71.748C433.54,-62.4859 363.786,-48.838 303,-36 291.996,-33.676 280.165,-31.0722 269.066,-28.5826"/>
<polygon fill="midnightblue" stroke="midnightblue" points="481.214,-75.2097 491.694,-73.6559 482.533,-68.335 481.214,-75.2097"/>
</g>
<!-- Node13 -->
<g id="node7" class="node"><title>Node13</title>
<a xlink:href="tagg_eff_classes_8cc.html" target="_top" xlink:title="progs/detail/taggEffClasses.cc">
<polygon fill="white" stroke="black" points="311.5,-7.5 311.5,-28.5 462.5,-28.5 462.5,-7.5 311.5,-7.5"/>
<text text-anchor="middle" x="387" y="-15.5" font-family="Helvetica,sans-Serif" font-size="10.00">progs/detail/taggEffClasses.cc</text>
</a>
</g>
<!-- Node10&#45;&gt;Node13 -->
<g id="edge6" class="edge"><title>Node10&#45;&gt;Node13</title>
<path fill="none" stroke="midnightblue" d="M506.672,-68.5108C478.003,-56.4103 437.8,-39.4414 412.075,-28.5835"/>
<polygon fill="midnightblue" stroke="midnightblue" points="505.34,-71.7479 515.914,-72.412 508.063,-65.2988 505.34,-71.7479"/>
</g>
<!-- Node14 -->
<g id="node9" class="node"><title>Node14</title>
<a xlink:href="tagger_energies_8cc.html" target="_top" xlink:title="progs/taggerEnergies.cc">
<polygon fill="white" stroke="black" points="480,-7.5 480,-28.5 602,-28.5 602,-7.5 480,-7.5"/>
<text text-anchor="middle" x="541" y="-15.5" font-family="Helvetica,sans-Serif" font-size="10.00">progs/taggerEnergies.cc</text>
</a>
</g>
<!-- Node10&#45;&gt;Node14 -->
<g id="edge8" class="edge"><title>Node10&#45;&gt;Node14</title>
<path fill="none" stroke="midnightblue" d="M541,-62.0142C541,-50.8307 541,-37.5583 541,-28.5337"/>
<polygon fill="midnightblue" stroke="midnightblue" points="537.5,-62.2665 541,-72.2666 544.5,-62.2666 537.5,-62.2665"/>
</g>
<!-- Node15 -->
<g id="node11" class="node"><title>Node15</title>
<a xlink:href="_plot_ext_8cc.html" target="_top" xlink:title="src/base/PlotExt.cc">
<polygon fill="white" stroke="black" points="619.5,-7.5 619.5,-28.5 722.5,-28.5 722.5,-7.5 619.5,-7.5"/>
<text text-anchor="middle" x="671" y="-15.5" font-family="Helvetica,sans-Serif" font-size="10.00">src/base/PlotExt.cc</text>
</a>
</g>
<!-- Node10&#45;&gt;Node15 -->
<g id="edge10" class="edge"><title>Node10&#45;&gt;Node15</title>
<path fill="none" stroke="midnightblue" d="M571.25,-67.8751C595.356,-55.8219 628.495,-39.2525 649.833,-28.5835"/>
<polygon fill="midnightblue" stroke="midnightblue" points="569.555,-64.8093 562.176,-72.412 572.686,-71.0703 569.555,-64.8093"/>
</g>
<!-- Node16 -->
<g id="node13" class="node"><title>Node16</title>
<a xlink:href="calibration_2modules_2_time_8cc.html" target="_top" xlink:title="src/calibration/modules\l/Time.cc">
<polygon fill="white" stroke="black" points="739.5,-1 739.5,-35 856.5,-35 856.5,-1 739.5,-1"/>
<text text-anchor="start" x="747.5" y="-22" font-family="Helvetica,sans-Serif" font-size="10.00">src/calibration/modules</text>
<text text-anchor="middle" x="798" y="-9" font-family="Helvetica,sans-Serif" font-size="10.00">/Time.cc</text>
</a>
</g>
<!-- Node10&#45;&gt;Node16 -->
<g id="edge12" class="edge"><title>Node10&#45;&gt;Node16</title>
<path fill="none" stroke="midnightblue" d="M594.689,-70.0217C632.782,-60.7395 685.09,-47.8441 731,-36 733.682,-35.308 736.424,-34.595 739.191,-33.8705"/>
<polygon fill="midnightblue" stroke="midnightblue" points="593.721,-66.655 584.832,-72.4202 595.376,-73.4565 593.721,-66.655"/>
</g>
<!-- Node17 -->
<g id="node15" class="node"><title>Node17</title>
<a xlink:href="root-addons_2analysis__codes_2_interpolated_pulls_8cc.html" target="_top" xlink:title="src/root&#45;addons/analysis\l_codes/InterpolatedPulls.cc">
<polygon fill="white" stroke="black" points="873.5,-1 873.5,-35 1010.5,-35 1010.5,-1 873.5,-1"/>
<text text-anchor="start" x="881.5" y="-22" font-family="Helvetica,sans-Serif" font-size="10.00">src/root&#45;addons/analysis</text>
<text text-anchor="middle" x="942" y="-9" font-family="Helvetica,sans-Serif" font-size="10.00">_codes/InterpolatedPulls.cc</text>
</a>
</g>
<!-- Node10&#45;&gt;Node17 -->
<g id="edge14" class="edge"><title>Node10&#45;&gt;Node17</title>
<path fill="none" stroke="midnightblue" d="M600.15,-75.964C665.296,-67.856 773.022,-53.3889 865,-36 867.698,-35.4899 870.444,-34.9497 873.215,-34.3872"/>
<polygon fill="midnightblue" stroke="midnightblue" points="599.564,-72.5097 590.069,-77.2101 600.423,-79.4568 599.564,-72.5097"/>
</g>
</g>
</svg>
