<?xml version="1.0" encoding="UTF-8" standalone="no"?>
<!DOCTYPE svg PUBLIC "-//W3C//DTD SVG 1.1//EN"
 "http://www.w3.org/Graphics/SVG/1.1/DTD/svg11.dtd">
<!-- Generated by graphviz version 2.26.3 (20100126.1600)
 -->
<!-- Title: src/base/ProgressCounter.h Pages: 1 -->
<svg width="1558pt" height="174pt"
 viewBox="0.00 0.00 1558.00 174.00" xmlns="http://www.w3.org/2000/svg" xmlns:xlink="http://www.w3.org/1999/xlink">
<g id="graph1" class="graph" transform="scale(1 1) rotate(0) translate(4 170)">
<title>src/base/ProgressCounter.h</title>
<polygon fill="white" stroke="white" points="-4,5 -4,-170 1555,-170 1555,5 -4,5"/>
<!-- Node7 -->
<g id="node1" class="node"><title>Node7</title>
<polygon fill="#bfbfbf" stroke="black" points="377.5,-144.5 377.5,-165.5 516.5,-165.5 516.5,-144.5 377.5,-144.5"/>
<text text-anchor="middle" x="447" y="-152.5" font-family="Helvetica,sans-Serif" font-size="10.00">src/base/ProgressCounter.h</text>
</g>
<!-- Node8 -->
<g id="node3" class="node"><title>Node8</title>
<a xlink:href="_ant-hadd_8cc.html" target="_top" xlink:title="progs/Ant&#45;hadd.cc">
<polygon fill="white" stroke="black" points="0,-79.5 0,-100.5 96,-100.5 96,-79.5 0,-79.5"/>
<text text-anchor="middle" x="48" y="-87.5" font-family="Helvetica,sans-Serif" font-size="10.00">progs/Ant&#45;hadd.cc</text>
</a>
</g>
<!-- Node7&#45;&gt;Node8 -->
<g id="edge2" class="edge"><title>Node7&#45;&gt;Node8</title>
<path fill="none" stroke="midnightblue" d="M367.239,-147.899C297.488,-140.774 193.753,-127.961 105,-108 96.1916,-106.019 86.787,-103.305 78.2087,-100.586"/>
<polygon fill="midnightblue" stroke="midnightblue" points="366.978,-151.39 377.278,-148.909 367.679,-144.425 366.978,-151.39"/>
</g>
<!-- Node9 -->
<g id="node5" class="node"><title>Node9</title>
<a xlink:href="_ant-make_sigmas_8cc.html" target="_top" xlink:title="progs/Ant&#45;makeSigmas.cc">
<polygon fill="white" stroke="black" points="114,-79.5 114,-100.5 246,-100.5 246,-79.5 114,-79.5"/>
<text text-anchor="middle" x="180" y="-87.5" font-family="Helvetica,sans-Serif" font-size="10.00">progs/Ant&#45;makeSigmas.cc</text>
</a>
</g>
<!-- Node7&#45;&gt;Node9 -->
<g id="edge4" class="edge"><title>Node7&#45;&gt;Node9</title>
<path fill="none" stroke="midnightblue" d="M393.812,-142.052C343.728,-129.859 269.641,-111.823 223.133,-100.501"/>
<polygon fill="midnightblue" stroke="midnightblue" points="393.261,-145.52 403.805,-144.484 394.917,-138.718 393.261,-145.52"/>
</g>
<!-- Node10 -->
<g id="node7" class="node"><title>Node10</title>
<a xlink:href="_ant-mc-pi0gun_8cc.html" target="_top" xlink:title="progs/Ant&#45;mc&#45;pi0gun.cc">
<polygon fill="white" stroke="black" points="264,-79.5 264,-100.5 384,-100.5 384,-79.5 264,-79.5"/>
<text text-anchor="middle" x="324" y="-87.5" font-family="Helvetica,sans-Serif" font-size="10.00">progs/Ant&#45;mc&#45;pi0gun.cc</text>
</a>
</g>
<!-- Node7&#45;&gt;Node10 -->
<g id="edge6" class="edge"><title>Node7&#45;&gt;Node10</title>
<path fill="none" stroke="midnightblue" d="M418.076,-139.715C395.293,-127.675 364.127,-111.205 344.027,-100.584"/>
<polygon fill="midnightblue" stroke="midnightblue" points="416.487,-142.834 426.964,-144.412 419.758,-136.645 416.487,-142.834"/>
</g>
<!-- Node11 -->
<g id="node9" class="node"><title>Node11</title>
<a xlink:href="_ant-plot_8cc.html" target="_top" xlink:title="progs/Ant&#45;plot.cc">
<polygon fill="white" stroke="black" points="401.5,-79.5 401.5,-100.5 492.5,-100.5 492.5,-79.5 401.5,-79.5"/>
<text text-anchor="middle" x="447" y="-87.5" font-family="Helvetica,sans-Serif" font-size="10.00">progs/Ant&#45;plot.cc</text>
</a>
</g>
<!-- Node7&#45;&gt;Node11 -->
<g id="edge8" class="edge"><title>Node7&#45;&gt;Node11</title>
<path fill="none" stroke="midnightblue" d="M447,-134.014C447,-122.831 447,-109.558 447,-100.534"/>
<polygon fill="midnightblue" stroke="midnightblue" points="443.5,-134.267 447,-144.267 450.5,-134.267 443.5,-134.267"/>
</g>
<!-- Node12 -->
<g id="node11" class="node"><title>Node12</title>
<a xlink:href="_physics_manager_8cc.html" target="_top" xlink:title="src/analysis/physics\l/PhysicsManager.cc">
<polygon fill="white" stroke="black" points="510,-73 510,-107 616,-107 616,-73 510,-73"/>
<text text-anchor="start" x="518" y="-94" font-family="Helvetica,sans-Serif" font-size="10.00">src/analysis/physics</text>
<text text-anchor="middle" x="563" y="-81" font-family="Helvetica,sans-Serif" font-size="10.00">/PhysicsManager.cc</text>
</a>
</g>
<!-- Node7&#45;&gt;Node12 -->
<g id="edge10" class="edge"><title>Node7&#45;&gt;Node12</title>
<path fill="none" stroke="midnightblue" d="M474.949,-139.339C492.267,-129.635 514.524,-117.163 532.328,-107.187"/>
<polygon fill="midnightblue" stroke="midnightblue" points="472.908,-136.47 465.896,-144.412 476.33,-142.577 472.908,-136.47"/>
</g>
<!-- Node13 -->
<g id="node13" class="node"><title>Node13</title>
<a xlink:href="_progress_counter_8cc.html" target="_top" xlink:title="src/base/ProgressCounter.cc">
<polygon fill="white" stroke="black" points="634,-79.5 634,-100.5 778,-100.5 778,-79.5 634,-79.5"/>
<text text-anchor="middle" x="706" y="-87.5" font-family="Helvetica,sans-Serif" font-size="10.00">src/base/ProgressCounter.cc</text>
</a>
</g>
<!-- Node7&#45;&gt;Node13 -->
<g id="edge12" class="edge"><title>Node7&#45;&gt;Node13</title>
<path fill="none" stroke="midnightblue" d="M498.899,-141.975C547.478,-129.784 619.139,-111.799 664.16,-100.501"/>
<polygon fill="midnightblue" stroke="midnightblue" points="497.748,-138.655 488.901,-144.484 499.452,-145.445 497.748,-138.655"/>
</g>
<!-- Node14 -->
<g id="node15" class="node"><title>Node14</title>
<a xlink:href="_raw_file_reader_8h.html" target="_top" xlink:title="src/unpacker/RawFileReader.h">
<polygon fill="white" stroke="black" points="796,-79.5 796,-100.5 948,-100.5 948,-79.5 796,-79.5"/>
<text text-anchor="middle" x="872" y="-87.5" font-family="Helvetica,sans-Serif" font-size="10.00">src/unpacker/RawFileReader.h</text>
</a>
</g>
<!-- Node7&#45;&gt;Node14 -->
<g id="edge14" class="edge"><title>Node7&#45;&gt;Node14</title>
<path fill="none" stroke="midnightblue" d="M526.517,-145.636C595.581,-137.115 698.183,-123.523 787,-108 799.482,-105.819 812.924,-103.131 825.352,-100.504"/>
<polygon fill="midnightblue" stroke="midnightblue" points="526.075,-142.164 516.576,-146.856 526.928,-149.112 526.075,-142.164"/>
</g>
<!-- Node15 -->
<g id="node17" class="node"><title>Node15</title>
<a xlink:href="_ant-fake_raw_8cc.html" target="_top" xlink:title="progs/Ant&#45;fakeRaw.cc">
<polygon fill="white" stroke="black" points="372,-7.5 372,-28.5 486,-28.5 486,-7.5 372,-7.5"/>
<text text-anchor="middle" x="429" y="-15.5" font-family="Helvetica,sans-Serif" font-size="10.00">progs/Ant&#45;fakeRaw.cc</text>
</a>
</g>
<!-- Node14&#45;&gt;Node15 -->
<g id="edge16" class="edge"><title>Node14&#45;&gt;Node15</title>
<path fill="none" stroke="midnightblue" d="M815.931,-77.4141C806.307,-75.4583 796.386,-73.5694 787,-72 658.03,-50.4352 623.296,-61.2678 495,-36 484.862,-34.0033 473.992,-31.2849 464.058,-28.5658"/>
<polygon fill="midnightblue" stroke="midnightblue" points="815.314,-80.8606 825.817,-79.4658 816.737,-74.0067 815.314,-80.8606"/>
</g>
<!-- Node16 -->
<g id="node19" class="node"><title>Node16</title>
<a xlink:href="_ant-rawdump_8cc.html" target="_top" xlink:title="progs/Ant&#45;rawdump.cc">
<polygon fill="white" stroke="black" points="503.5,-7.5 503.5,-28.5 618.5,-28.5 618.5,-7.5 503.5,-7.5"/>
<text text-anchor="middle" x="561" y="-15.5" font-family="Helvetica,sans-Serif" font-size="10.00">progs/Ant&#45;rawdump.cc</text>
</a>
</g>
<!-- Node14&#45;&gt;Node16 -->
<g id="edge18" class="edge"><title>Node14&#45;&gt;Node16</title>
<path fill="none" stroke="midnightblue" d="M813.116,-77.3716C752.337,-64.2737 661.652,-44.5386 627,-36 617.659,-33.6983 607.622,-31.0512 598.264,-28.5075"/>
<polygon fill="midnightblue" stroke="midnightblue" points="812.462,-80.8107 822.974,-79.4943 813.935,-73.9676 812.462,-80.8107"/>
</g>
<!-- Node17 -->
<g id="node21" class="node"><title>Node17</title>
<a xlink:href="_ant_8cc.html" target="_top" xlink:title="Main Ant executable. ">
<polygon fill="white" stroke="black" points="636,-7.5 636,-28.5 708,-28.5 708,-7.5 636,-7.5"/>
<text text-anchor="middle" x="672" y="-15.5" font-family="Helvetica,sans-Serif" font-size="10.00">progs/Ant.cc</text>
</a>
</g>
<!-- Node14&#45;&gt;Node17 -->
<g id="edge20" class="edge"><title>Node14&#45;&gt;Node17</title>
<path fill="none" stroke="midnightblue" d="M830.68,-76.1728C799.349,-65.5508 755.294,-50.3209 717,-36 710.853,-33.701 704.274,-31.132 698.097,-28.6709"/>
<polygon fill="midnightblue" stroke="midnightblue" points="829.788,-79.5656 840.382,-79.4525 832.03,-72.9343 829.788,-79.5656"/>
</g>
<!-- Node18 -->
<g id="node23" class="node"><title>Node18</title>
<a xlink:href="_unpacker_acqu__detail_8cc.html" target="_top" xlink:title="src/unpacker/detail\l/UnpackerAcqu_detail.cc">
<polygon fill="white" stroke="black" points="726,-1 726,-35 852,-35 852,-1 726,-1"/>
<text text-anchor="start" x="734" y="-22" font-family="Helvetica,sans-Serif" font-size="10.00">src/unpacker/detail</text>
<text text-anchor="middle" x="789" y="-9" font-family="Helvetica,sans-Serif" font-size="10.00">/UnpackerAcqu_detail.cc</text>
</a>
</g>
<!-- Node14&#45;&gt;Node18 -->
<g id="edge22" class="edge"><title>Node14&#45;&gt;Node18</title>
<path fill="none" stroke="midnightblue" d="M852.159,-72.7882C839.009,-61.3811 821.828,-46.4774 808.706,-35.0944"/>
<polygon fill="midnightblue" stroke="midnightblue" points="849.906,-75.4672 859.753,-79.3762 854.493,-70.1795 849.906,-75.4672"/>
</g>
<!-- Node19 -->
<g id="node25" class="node"><title>Node19</title>
<a xlink:href="_unpacker_acqu___file_format_mk1_8cc.html" target="_top" xlink:title="src/unpacker/detail\l/UnpackerAcqu_FileFormatMk1.cc">
<polygon fill="white" stroke="black" points="870,-1 870,-35 1038,-35 1038,-1 870,-1"/>
<text text-anchor="start" x="878" y="-22" font-family="Helvetica,sans-Serif" font-size="10.00">src/unpacker/detail</text>
<text text-anchor="middle" x="954" y="-9" font-family="Helvetica,sans-Serif" font-size="10.00">/UnpackerAcqu_FileFormatMk1.cc</text>
</a>
</g>
<!-- Node14&#45;&gt;Node19 -->
<g id="edge24" class="edge"><title>Node14&#45;&gt;Node19</title>
<path fill="none" stroke="midnightblue" d="M891.971,-72.4644C904.914,-61.1002 921.69,-46.37 934.531,-35.0944"/>
<polygon fill="midnightblue" stroke="midnightblue" points="889.304,-70.1481 884.099,-79.3762 893.923,-75.4082 889.304,-70.1481"/>
</g>
<!-- Node20 -->
<g id="node27" class="node"><title>Node20</title>
<a xlink:href="_unpacker_acqu___file_format_mk2_8cc.html" target="_top" xlink:title="src/unpacker/detail\l/UnpackerAcqu_FileFormatMk2.cc">
<polygon fill="white" stroke="black" points="1056,-1 1056,-35 1224,-35 1224,-1 1056,-1"/>
<text text-anchor="start" x="1064" y="-22" font-family="Helvetica,sans-Serif" font-size="10.00">src/unpacker/detail</text>
<text text-anchor="middle" x="1140" y="-9" font-family="Helvetica,sans-Serif" font-size="10.00">/UnpackerAcqu_FileFormatMk2.cc</text>
</a>
</g>
<!-- Node14&#45;&gt;Node20 -->
<g id="edge26" class="edge"><title>Node14&#45;&gt;Node20</title>
<path fill="none" stroke="midnightblue" d="M921.073,-76.8162C964.751,-65.0819 1028.91,-47.8461 1076.49,-35.0633"/>
<polygon fill="midnightblue" stroke="midnightblue" points="920.006,-73.4787 911.257,-79.4535 921.822,-80.239 920.006,-73.4787"/>
</g>
<!-- Node21 -->
<g id="node29" class="node"><title>Node21</title>
<a xlink:href="_raw_file_reader_8cc.html" target="_top" xlink:title="src/unpacker/RawFileReader.cc">
<polygon fill="white" stroke="black" points="1241.5,-7.5 1241.5,-28.5 1398.5,-28.5 1398.5,-7.5 1241.5,-7.5"/>
<text text-anchor="middle" x="1320" y="-15.5" font-family="Helvetica,sans-Serif" font-size="10.00">src/unpacker/RawFileReader.cc</text>
</a>
</g>
<!-- Node14&#45;&gt;Node21 -->
<g id="edge28" class="edge"><title>Node14&#45;&gt;Node21</title>
<path fill="none" stroke="midnightblue" d="M958.366,-78.4544C1031.64,-68.3309 1139.45,-52.6613 1233,-36 1245.45,-33.7824 1258.85,-31.1386 1271.32,-28.5692"/>
<polygon fill="midnightblue" stroke="midnightblue" points="957.691,-75.0142 948.262,-79.8455 958.646,-81.9488 957.691,-75.0142"/>
</g>
<!-- Node22 -->
<g id="node31" class="node"><title>Node22</title>
<a xlink:href="_test_raw_file_reader_8cc.html" target="_top" xlink:title="test/unpacker/TestRawFile\lReader.cc">
<polygon fill="white" stroke="black" points="1416,-1 1416,-35 1550,-35 1550,-1 1416,-1"/>
<text text-anchor="start" x="1424" y="-22" font-family="Helvetica,sans-Serif" font-size="10.00">test/unpacker/TestRawFile</text>
<text text-anchor="middle" x="1483" y="-9" font-family="Helvetica,sans-Serif" font-size="10.00">Reader.cc</text>
</a>
</g>
<!-- Node14&#45;&gt;Node22 -->
<g id="edge30" class="edge"><title>Node14&#45;&gt;Node22</title>
<path fill="none" stroke="midnightblue" d="M958.19,-84.8152C1064.31,-77.6247 1249.81,-62.4286 1407,-36 1409.94,-35.5054 1412.94,-34.9629 1415.96,-34.3843"/>
<polygon fill="midnightblue" stroke="midnightblue" points="957.915,-81.3256 948.171,-85.4861 958.383,-88.31 957.915,-81.3256"/>
</g>
</g>
</svg>
