<?xml version="1.0" encoding="UTF-8" standalone="no"?>
<!DOCTYPE svg PUBLIC "-//W3C//DTD SVG 1.1//EN"
 "http://www.w3.org/Graphics/SVG/1.1/DTD/svg11.dtd">
<!-- Generated by graphviz version 2.26.3 (20100126.1600)
 -->
<!-- Title: src/analysis/utils/ProtonPhotonCombs.h Pages: 1 -->
<svg width="742pt" height="200pt"
 viewBox="0.00 0.00 742.00 200.00" xmlns="http://www.w3.org/2000/svg" xmlns:xlink="http://www.w3.org/1999/xlink">
<g id="graph1" class="graph" transform="scale(1 1) rotate(0) translate(4 196)">
<title>src/analysis/utils/ProtonPhotonCombs.h</title>
<polygon fill="white" stroke="white" points="-4,5 -4,-196 739,-196 739,5 -4,5"/>
<!-- Node48 -->
<g id="node1" class="node"><title>Node48</title>
<polygon fill="#bfbfbf" stroke="black" points="302.5,-157 302.5,-191 421.5,-191 421.5,-157 302.5,-157"/>
<text text-anchor="start" x="310.5" y="-178" font-family="Helvetica,sans-Serif" font-size="10.00">src/analysis/utils</text>
<text text-anchor="middle" x="362" y="-165" font-family="Helvetica,sans-Serif" font-size="10.00">/ProtonPhotonCombs.h</text>
</g>
<!-- Node49 -->
<g id="node3" class="node"><title>Node49</title>
<a xlink:href="_kin_fit_i_m_check_8cc.html" target="_top" xlink:title="src/analysis/physics\l/check/KinFitIMCheck.cc">
<polygon fill="white" stroke="black" points="0,-85 0,-119 128,-119 128,-85 0,-85"/>
<text text-anchor="start" x="8" y="-106" font-family="Helvetica,sans-Serif" font-size="10.00">src/analysis/physics</text>
<text text-anchor="middle" x="64" y="-93" font-family="Helvetica,sans-Serif" font-size="10.00">/check/KinFitIMCheck.cc</text>
</a>
</g>
<!-- Node48&#45;&gt;Node49 -->
<g id="edge2" class="edge"><title>Node48&#45;&gt;Node49</title>
<path fill="none" stroke="midnightblue" d="M292.452,-157.426C247.979,-146.799 189.074,-132.669 137,-120 134.083,-119.29 131.101,-118.563 128.089,-117.827"/>
<polygon fill="midnightblue" stroke="midnightblue" points="291.746,-160.856 302.286,-159.775 293.373,-154.048 291.746,-160.856"/>
</g>
<!-- Node50 -->
<g id="node5" class="node"><title>Node50</title>
<a xlink:href="_etap_omega_g_8h.html" target="_top" xlink:title="src/analysis/physics\l/etaprime/EtapOmegaG.h">
<polygon fill="white" stroke="black" points="146,-85 146,-119 274,-119 274,-85 146,-85"/>
<text text-anchor="start" x="154" y="-106" font-family="Helvetica,sans-Serif" font-size="10.00">src/analysis/physics</text>
<text text-anchor="middle" x="210" y="-93" font-family="Helvetica,sans-Serif" font-size="10.00">/etaprime/EtapOmegaG.h</text>
</a>
</g>
<!-- Node48&#45;&gt;Node50 -->
<g id="edge4" class="edge"><title>Node48&#45;&gt;Node50</title>
<path fill="none" stroke="midnightblue" d="M316.903,-152.638C294.277,-141.921 267.246,-129.117 246.026,-119.065"/>
<polygon fill="midnightblue" stroke="midnightblue" points="315.442,-155.819 325.978,-156.937 318.439,-149.493 315.442,-155.819"/>
</g>
<!-- Node53 -->
<g id="node11" class="node"><title>Node53</title>
<a xlink:href="analysis_2physics_2tunings_2_interpolated_pulls_8cc.html" target="_top" xlink:title="src/analysis/physics\l/tunings/InterpolatedPulls.cc">
<polygon fill="white" stroke="black" points="292,-85 292,-119 432,-119 432,-85 292,-85"/>
<text text-anchor="start" x="300" y="-106" font-family="Helvetica,sans-Serif" font-size="10.00">src/analysis/physics</text>
<text text-anchor="middle" x="362" y="-93" font-family="Helvetica,sans-Serif" font-size="10.00">/tunings/InterpolatedPulls.cc</text>
</a>
</g>
<!-- Node48&#45;&gt;Node53 -->
<g id="edge10" class="edge"><title>Node48&#45;&gt;Node53</title>
<path fill="none" stroke="midnightblue" d="M362,-146.719C362,-137.572 362,-127.625 362,-119.441"/>
<polygon fill="midnightblue" stroke="midnightblue" points="358.5,-146.937 362,-156.937 365.5,-146.937 358.5,-146.937"/>
</g>
<!-- Node54 -->
<g id="node13" class="node"><title>Node54</title>
<a xlink:href="physics_2tunings_2_trigger_simulation_8cc.html" target="_top" xlink:title="src/analysis/physics\l/tunings/TriggerSimulation.cc">
<polygon fill="white" stroke="black" points="449.5,-85 449.5,-119 592.5,-119 592.5,-85 449.5,-85"/>
<text text-anchor="start" x="457.5" y="-106" font-family="Helvetica,sans-Serif" font-size="10.00">src/analysis/physics</text>
<text text-anchor="middle" x="521" y="-93" font-family="Helvetica,sans-Serif" font-size="10.00">/tunings/TriggerSimulation.cc</text>
</a>
</g>
<!-- Node48&#45;&gt;Node54 -->
<g id="edge12" class="edge"><title>Node48&#45;&gt;Node54</title>
<path fill="none" stroke="midnightblue" d="M408.858,-152.781C432.59,-142.035 461.019,-129.161 483.314,-119.065"/>
<polygon fill="midnightblue" stroke="midnightblue" points="407.347,-149.624 399.681,-156.937 410.234,-156 407.347,-149.624"/>
</g>
<!-- Node55 -->
<g id="node15" class="node"><title>Node55</title>
<a xlink:href="_proton_photon_combs_8cc.html" target="_top" xlink:title="src/analysis/utils\l/ProtonPhotonCombs.cc">
<polygon fill="white" stroke="black" points="610,-85 610,-119 734,-119 734,-85 610,-85"/>
<text text-anchor="start" x="618" y="-106" font-family="Helvetica,sans-Serif" font-size="10.00">src/analysis/utils</text>
<text text-anchor="middle" x="672" y="-93" font-family="Helvetica,sans-Serif" font-size="10.00">/ProtonPhotonCombs.cc</text>
</a>
</g>
<!-- Node48&#45;&gt;Node55 -->
<g id="edge14" class="edge"><title>Node48&#45;&gt;Node55</title>
<path fill="none" stroke="midnightblue" d="M431.445,-158.811C479.2,-148.243 544.035,-133.654 601,-120 603.844,-119.318 606.75,-118.614 609.685,-117.896"/>
<polygon fill="midnightblue" stroke="midnightblue" points="430.532,-155.428 421.522,-161.003 432.042,-162.264 430.532,-155.428"/>
</g>
<!-- Node51 -->
<g id="node7" class="node"><title>Node51</title>
<a xlink:href="_etap_omega_g_8cc.html" target="_top" xlink:title="src/analysis/physics\l/etaprime/EtapOmegaG.cc">
<polygon fill="white" stroke="black" points="71.5,-7 71.5,-41 204.5,-41 204.5,-7 71.5,-7"/>
<text text-anchor="start" x="79.5" y="-28" font-family="Helvetica,sans-Serif" font-size="10.00">src/analysis/physics</text>
<text text-anchor="middle" x="138" y="-15" font-family="Helvetica,sans-Serif" font-size="10.00">/etaprime/EtapOmegaG.cc</text>
</a>
</g>
<!-- Node50&#45;&gt;Node51 -->
<g id="edge6" class="edge"><title>Node50&#45;&gt;Node51</title>
<path fill="none" stroke="midnightblue" d="M187.222,-77.3241C176.394,-65.594 163.713,-51.8561 153.934,-41.2623"/>
<polygon fill="midnightblue" stroke="midnightblue" points="184.666,-79.7152 194.021,-84.6893 189.81,-74.9672 184.666,-79.7152"/>
</g>
<!-- Node52 -->
<g id="node9" class="node"><title>Node52</title>
<a xlink:href="_etap_omega_g__plot_8cc.html" target="_top" xlink:title="src/analysis/physics\l/etaprime/EtapOmegaG\l_plot.cc">
<polygon fill="white" stroke="black" points="221.5,-0.5 221.5,-47.5 340.5,-47.5 340.5,-0.5 221.5,-0.5"/>
<text text-anchor="start" x="229.5" y="-34.5" font-family="Helvetica,sans-Serif" font-size="10.00">src/analysis/physics</text>
<text text-anchor="start" x="229.5" y="-21.5" font-family="Helvetica,sans-Serif" font-size="10.00">/etaprime/EtapOmegaG</text>
<text text-anchor="middle" x="281" y="-8.5" font-family="Helvetica,sans-Serif" font-size="10.00">_plot.cc</text>
</a>
</g>
<!-- Node50&#45;&gt;Node52 -->
<g id="edge8" class="edge"><title>Node50&#45;&gt;Node52</title>
<path fill="none" stroke="midnightblue" d="M232.623,-77.147C241.182,-67.7438 250.897,-57.0713 259.363,-47.77"/>
<polygon fill="midnightblue" stroke="midnightblue" points="229.9,-74.9381 225.757,-84.6893 235.077,-79.6502 229.9,-74.9381"/>
</g>
</g>
</svg>
