<?xml version="1.0" encoding="UTF-8" standalone="no"?>
<!DOCTYPE svg PUBLIC "-//W3C//DTD SVG 1.1//EN"
 "http://www.w3.org/Graphics/SVG/1.1/DTD/svg11.dtd">
<!-- Generated by graphviz version 2.26.3 (20100126.1600)
 -->
<!-- Title: src/analysis/slowcontrol/processors/Processor.h Pages: 1 -->
<svg width="1951pt" height="416pt"
 viewBox="0.00 0.00 1951.00 416.00" xmlns="http://www.w3.org/2000/svg" xmlns:xlink="http://www.w3.org/1999/xlink">
<g id="graph1" class="graph" transform="scale(1 1) rotate(0) translate(4 412)">
<title>src/analysis/slowcontrol/processors/Processor.h</title>
<polygon fill="white" stroke="white" points="-4,5 -4,-412 1948,-412 1948,5 -4,5"/>
<!-- Node56 -->
<g id="node1" class="node"><title>Node56</title>
<polygon fill="#bfbfbf" stroke="black" points="653.5,-373 653.5,-407 776.5,-407 776.5,-373 653.5,-373"/>
<text text-anchor="start" x="661.5" y="-394" font-family="Helvetica,sans-Serif" font-size="10.00">src/analysis/slowcontrol</text>
<text text-anchor="middle" x="715" y="-381" font-family="Helvetica,sans-Serif" font-size="10.00">/processors/Processor.h</text>
</g>
<!-- Node57 -->
<g id="node3" class="node"><title>Node57</title>
<a xlink:href="_acqu_scaler_processor_8h.html" target="_top" xlink:title="src/analysis/slowcontrol\l/processors/AcquScalerProcessor.h">
<polygon fill="white" stroke="black" points="461.5,-301 461.5,-335 634.5,-335 634.5,-301 461.5,-301"/>
<text text-anchor="start" x="469.5" y="-322" font-family="Helvetica,sans-Serif" font-size="10.00">src/analysis/slowcontrol</text>
<text text-anchor="middle" x="548" y="-309" font-family="Helvetica,sans-Serif" font-size="10.00">/processors/AcquScalerProcessor.h</text>
</a>
</g>
<!-- Node56&#45;&gt;Node57 -->
<g id="edge2" class="edge"><title>Node56&#45;&gt;Node57</title>
<path fill="none" stroke="midnightblue" d="M666.115,-368.924C641.122,-358.149 611.102,-345.206 587.582,-335.065"/>
<polygon fill="midnightblue" stroke="midnightblue" points="664.855,-372.192 675.423,-372.937 667.626,-365.764 664.855,-372.192"/>
</g>
<!-- Node78 -->
<g id="node50" class="node"><title>Node78</title>
<a xlink:href="_variable_8h.html" target="_top" xlink:title="src/analysis/slowcontrol\l/variables/Variable.h">
<polygon fill="white" stroke="black" points="1138,-229 1138,-263 1260,-263 1260,-229 1138,-229"/>
<text text-anchor="start" x="1146" y="-250" font-family="Helvetica,sans-Serif" font-size="10.00">src/analysis/slowcontrol</text>
<text text-anchor="middle" x="1199" y="-237" font-family="Helvetica,sans-Serif" font-size="10.00">/variables/Variable.h</text>
</a>
</g>
<!-- Node56&#45;&gt;Node78 -->
<g id="edge54" class="edge"><title>Node56&#45;&gt;Node78</title>
<path fill="none" stroke="midnightblue" d="M782.281,-369.983C877.975,-341.512 1051.73,-289.815 1141.65,-263.062"/>
<polygon fill="midnightblue" stroke="midnightblue" points="781.008,-366.709 772.422,-372.916 783.005,-373.419 781.008,-366.709"/>
</g>
<!-- Node58 -->
<g id="node5" class="node"><title>Node58</title>
<a xlink:href="_acqu_scaler_processor_8cc.html" target="_top" xlink:title="src/analysis/slowcontrol\l/processors/AcquScalerProcessor.cc">
<polygon fill="white" stroke="black" points="458.5,-229 458.5,-263 637.5,-263 637.5,-229 458.5,-229"/>
<text text-anchor="start" x="466.5" y="-250" font-family="Helvetica,sans-Serif" font-size="10.00">src/analysis/slowcontrol</text>
<text text-anchor="middle" x="548" y="-237" font-family="Helvetica,sans-Serif" font-size="10.00">/processors/AcquScalerProcessor.cc</text>
</a>
</g>
<!-- Node57&#45;&gt;Node58 -->
<g id="edge4" class="edge"><title>Node57&#45;&gt;Node58</title>
<path fill="none" stroke="midnightblue" d="M548,-290.719C548,-281.572 548,-271.625 548,-263.441"/>
<polygon fill="midnightblue" stroke="midnightblue" points="544.5,-290.937 548,-300.937 551.5,-290.937 544.5,-290.937"/>
</g>
<!-- Node59 -->
<g id="node7" class="node"><title>Node59</title>
<a xlink:href="_beampolmon_8h.html" target="_top" xlink:title="src/analysis/slowcontrol\l/processors/Beampolmon.h">
<polygon fill="white" stroke="black" points="655,-229 655,-263 791,-263 791,-229 655,-229"/>
<text text-anchor="start" x="663" y="-250" font-family="Helvetica,sans-Serif" font-size="10.00">src/analysis/slowcontrol</text>
<text text-anchor="middle" x="723" y="-237" font-family="Helvetica,sans-Serif" font-size="10.00">/processors/Beampolmon.h</text>
</a>
</g>
<!-- Node57&#45;&gt;Node59 -->
<g id="edge6" class="edge"><title>Node57&#45;&gt;Node59</title>
<path fill="none" stroke="midnightblue" d="M598.881,-297.066C625.139,-286.263 656.766,-273.251 681.522,-263.065"/>
<polygon fill="midnightblue" stroke="midnightblue" points="597.389,-293.895 589.473,-300.937 600.052,-300.369 597.389,-293.895"/>
</g>
<!-- Node72 -->
<g id="node34" class="node"><title>Node72</title>
<a xlink:href="_e_p_t___scalers_8h.html" target="_top" xlink:title="src/analysis/slowcontrol\l/processors/EPT_Scalers.h">
<polygon fill="white" stroke="black" points="304.5,-229 304.5,-263 441.5,-263 441.5,-229 304.5,-229"/>
<text text-anchor="start" x="312.5" y="-250" font-family="Helvetica,sans-Serif" font-size="10.00">src/analysis/slowcontrol</text>
<text text-anchor="middle" x="373" y="-237" font-family="Helvetica,sans-Serif" font-size="10.00">/processors/EPT_Scalers.h</text>
</a>
</g>
<!-- Node57&#45;&gt;Node72 -->
<g id="edge34" class="edge"><title>Node57&#45;&gt;Node72</title>
<path fill="none" stroke="midnightblue" d="M497.119,-297.066C470.861,-286.263 439.234,-273.251 414.478,-263.065"/>
<polygon fill="midnightblue" stroke="midnightblue" points="495.948,-300.369 506.527,-300.937 498.611,-293.895 495.948,-300.369"/>
</g>
<!-- Node73 -->
<g id="node37" class="node"><title>Node73</title>
<a xlink:href="_exp_trigger_8h.html" target="_top" xlink:title="src/analysis/slowcontrol\l/processors/ExpTrigger.h">
<polygon fill="white" stroke="black" points="809,-229 809,-263 935,-263 935,-229 809,-229"/>
<text text-anchor="start" x="817" y="-250" font-family="Helvetica,sans-Serif" font-size="10.00">src/analysis/slowcontrol</text>
<text text-anchor="middle" x="872" y="-237" font-family="Helvetica,sans-Serif" font-size="10.00">/processors/ExpTrigger.h</text>
</a>
</g>
<!-- Node57&#45;&gt;Node73 -->
<g id="edge38" class="edge"><title>Node57&#45;&gt;Node73</title>
<path fill="none" stroke="midnightblue" d="M640.999,-298.857C688.634,-288.853 747.509,-276.182 800,-264 802.887,-263.33 805.836,-262.635 808.813,-261.925"/>
<polygon fill="midnightblue" stroke="midnightblue" points="640.081,-295.473 631.011,-300.95 641.517,-302.325 640.081,-295.473"/>
</g>
<!-- Node75 -->
<g id="node42" class="node"><title>Node75</title>
<a xlink:href="processors_2_pair_spec_8h.html" target="_top" xlink:title="src/analysis/slowcontrol\l/processors/PairSpec.h">
<polygon fill="white" stroke="black" points="1,-229 1,-263 123,-263 123,-229 1,-229"/>
<text text-anchor="start" x="9" y="-250" font-family="Helvetica,sans-Serif" font-size="10.00">src/analysis/slowcontrol</text>
<text text-anchor="middle" x="62" y="-237" font-family="Helvetica,sans-Serif" font-size="10.00">/processors/PairSpec.h</text>
</a>
</g>
<!-- Node57&#45;&gt;Node75 -->
<g id="edge44" class="edge"><title>Node57&#45;&gt;Node75</title>
<path fill="none" stroke="midnightblue" d="M451.346,-308.847C366.688,-300.024 240.576,-284.925 132,-264 129.166,-263.454 126.276,-262.861 123.364,-262.233"/>
<polygon fill="midnightblue" stroke="midnightblue" points="451.153,-312.346 461.46,-309.892 451.873,-305.383 451.153,-312.346"/>
</g>
<!-- Node77 -->
<g id="node47" class="node"><title>Node77</title>
<a xlink:href="_tagger___scalers_8h.html" target="_top" xlink:title="src/analysis/slowcontrol\l/processors/Tagger_Scalers.h">
<polygon fill="white" stroke="black" points="140.5,-229 140.5,-263 287.5,-263 287.5,-229 140.5,-229"/>
<text text-anchor="start" x="148.5" y="-250" font-family="Helvetica,sans-Serif" font-size="10.00">src/analysis/slowcontrol</text>
<text text-anchor="middle" x="214" y="-237" font-family="Helvetica,sans-Serif" font-size="10.00">/processors/Tagger_Scalers.h</text>
</a>
</g>
<!-- Node57&#45;&gt;Node77 -->
<g id="edge50" class="edge"><title>Node57&#45;&gt;Node77</title>
<path fill="none" stroke="midnightblue" d="M457.899,-298.806C409.831,-288.538 349.682,-275.643 296,-264 293.294,-263.413 290.537,-262.814 287.753,-262.208"/>
<polygon fill="midnightblue" stroke="midnightblue" points="457.455,-302.291 467.966,-300.956 458.917,-295.445 457.455,-302.291"/>
</g>
<!-- Node60 -->
<g id="node9" class="node"><title>Node60</title>
<a xlink:href="_beampolmon_8cc.html" target="_top" xlink:title="src/analysis/slowcontrol\l/processors/Beampolmon.cc">
<polygon fill="white" stroke="black" points="551.5,-157 551.5,-191 692.5,-191 692.5,-157 551.5,-157"/>
<text text-anchor="start" x="559.5" y="-178" font-family="Helvetica,sans-Serif" font-size="10.00">src/analysis/slowcontrol</text>
<text text-anchor="middle" x="622" y="-165" font-family="Helvetica,sans-Serif" font-size="10.00">/processors/Beampolmon.cc</text>
</a>
</g>
<!-- Node59&#45;&gt;Node60 -->
<g id="edge8" class="edge"><title>Node59&#45;&gt;Node60</title>
<path fill="none" stroke="midnightblue" d="M690.84,-223.074C676.34,-212.738 659.506,-200.737 646.114,-191.19"/>
<polygon fill="midnightblue" stroke="midnightblue" points="688.89,-225.982 699.064,-228.937 692.953,-220.282 688.89,-225.982"/>
</g>
<!-- Node61 -->
<g id="node11" class="node"><title>Node61</title>
<a xlink:href="_slow_control_processors_8h.html" target="_top" xlink:title="src/analysis/slowcontrol\l/SlowControlProcessors.h">
<polygon fill="white" stroke="black" points="403.5,-157 403.5,-191 534.5,-191 534.5,-157 403.5,-157"/>
<text text-anchor="start" x="411.5" y="-178" font-family="Helvetica,sans-Serif" font-size="10.00">src/analysis/slowcontrol</text>
<text text-anchor="middle" x="469" y="-165" font-family="Helvetica,sans-Serif" font-size="10.00">/SlowControlProcessors.h</text>
</a>
</g>
<!-- Node59&#45;&gt;Node61 -->
<g id="edge10" class="edge"><title>Node59&#45;&gt;Node61</title>
<path fill="none" stroke="midnightblue" d="M653.132,-226.195C614.271,-215.179 566.395,-201.608 529.202,-191.065"/>
<polygon fill="midnightblue" stroke="midnightblue" points="652.23,-229.577 662.806,-228.937 654.139,-222.842 652.23,-229.577"/>
</g>
<!-- Node62 -->
<g id="node13" class="node"><title>Node62</title>
<a xlink:href="_slow_control_manager_8h.html" target="_top" xlink:title="src/analysis/slowcontrol\l/SlowControlManager.h">
<polygon fill="white" stroke="black" points="235,-85 235,-119 357,-119 357,-85 235,-85"/>
<text text-anchor="start" x="243" y="-106" font-family="Helvetica,sans-Serif" font-size="10.00">src/analysis/slowcontrol</text>
<text text-anchor="middle" x="296" y="-93" font-family="Helvetica,sans-Serif" font-size="10.00">/SlowControlManager.h</text>
</a>
</g>
<!-- Node61&#45;&gt;Node62 -->
<g id="edge12" class="edge"><title>Node61&#45;&gt;Node62</title>
<path fill="none" stroke="midnightblue" d="M418.7,-153.066C392.742,-142.263 361.477,-129.251 337.004,-119.065"/>
<polygon fill="midnightblue" stroke="midnightblue" points="417.424,-156.326 428.001,-156.937 420.114,-149.863 417.424,-156.326"/>
</g>
<!-- Node65 -->
<g id="node19" class="node"><title>Node65</title>
<a xlink:href="_test_slow_control_manager_8cc.html" target="_top" xlink:title="test/analysis/TestSlowControl\lManager.cc">
<polygon fill="white" stroke="black" points="339,-7 339,-41 487,-41 487,-7 339,-7"/>
<text text-anchor="start" x="347" y="-28" font-family="Helvetica,sans-Serif" font-size="10.00">test/analysis/TestSlowControl</text>
<text text-anchor="middle" x="413" y="-15" font-family="Helvetica,sans-Serif" font-size="10.00">Manager.cc</text>
</a>
</g>
<!-- Node61&#45;&gt;Node65 -->
<g id="edge32" class="edge"><title>Node61&#45;&gt;Node65</title>
<path fill="none" stroke="midnightblue" d="M429.781,-150.611C419.469,-142.344 409.656,-132.052 404,-120 392.052,-94.5414 399.662,-61.1534 406.305,-41.2075"/>
<polygon fill="midnightblue" stroke="midnightblue" points="427.979,-153.632 438.089,-156.801 432.161,-148.019 427.979,-153.632"/>
</g>
<!-- Node66 -->
<g id="node21" class="node"><title>Node66</title>
<a xlink:href="_slow_control_processors_8cc.html" target="_top" xlink:title="src/analysis/slowcontrol\l/SlowControlProcessors.cc">
<polygon fill="white" stroke="black" points="413,-85 413,-119 549,-119 549,-85 413,-85"/>
<text text-anchor="start" x="421" y="-106" font-family="Helvetica,sans-Serif" font-size="10.00">src/analysis/slowcontrol</text>
<text text-anchor="middle" x="481" y="-93" font-family="Helvetica,sans-Serif" font-size="10.00">/SlowControlProcessors.cc</text>
</a>
</g>
<!-- Node61&#45;&gt;Node66 -->
<g id="edge20" class="edge"><title>Node61&#45;&gt;Node66</title>
<path fill="none" stroke="midnightblue" d="M473.497,-147.017C475.035,-137.788 476.714,-127.714 478.093,-119.441"/>
<polygon fill="midnightblue" stroke="midnightblue" points="470.036,-146.498 471.844,-156.937 476.94,-147.648 470.036,-146.498"/>
</g>
<!-- Node67 -->
<g id="node23" class="node"><title>Node67</title>
<a xlink:href="_beam_8cc.html" target="_top" xlink:title="src/analysis/slowcontrol\l/variables/Beam.cc">
<polygon fill="white" stroke="black" points="567,-85 567,-119 689,-119 689,-85 567,-85"/>
<text text-anchor="start" x="575" y="-106" font-family="Helvetica,sans-Serif" font-size="10.00">src/analysis/slowcontrol</text>
<text text-anchor="middle" x="628" y="-93" font-family="Helvetica,sans-Serif" font-size="10.00">/variables/Beam.cc</text>
</a>
</g>
<!-- Node61&#45;&gt;Node67 -->
<g id="edge22" class="edge"><title>Node61&#45;&gt;Node67</title>
<path fill="none" stroke="midnightblue" d="M515.858,-152.781C539.59,-142.035 568.019,-129.161 590.314,-119.065"/>
<polygon fill="midnightblue" stroke="midnightblue" points="514.347,-149.624 506.681,-156.937 517.234,-156 514.347,-149.624"/>
</g>
<!-- Node68 -->
<g id="node25" class="node"><title>Node68</title>
<a xlink:href="_clocks_8cc.html" target="_top" xlink:title="src/analysis/slowcontrol\l/variables/Clocks.cc">
<polygon fill="white" stroke="black" points="1143,-85 1143,-119 1265,-119 1265,-85 1143,-85"/>
<text text-anchor="start" x="1151" y="-106" font-family="Helvetica,sans-Serif" font-size="10.00">src/analysis/slowcontrol</text>
<text text-anchor="middle" x="1204" y="-93" font-family="Helvetica,sans-Serif" font-size="10.00">/variables/Clocks.cc</text>
</a>
</g>
<!-- Node61&#45;&gt;Node68 -->
<g id="edge24" class="edge"><title>Node61&#45;&gt;Node68</title>
<path fill="none" stroke="midnightblue" d="M544.781,-155.883C805.039,-117.855 877.353,-160.434 1134,-120 1136.85,-119.551 1139.75,-119.037 1142.68,-118.474"/>
<polygon fill="midnightblue" stroke="midnightblue" points="544.023,-152.457 534.647,-157.391 545.053,-159.381 544.023,-152.457"/>
</g>
<!-- Node69 -->
<g id="node27" class="node"><title>Node69</title>
<a xlink:href="variables_2_pair_spec_8cc.html" target="_top" xlink:title="src/analysis/slowcontrol\l/variables/Pairspec.cc">
<polygon fill="white" stroke="black" points="707,-85 707,-119 829,-119 829,-85 707,-85"/>
<text text-anchor="start" x="715" y="-106" font-family="Helvetica,sans-Serif" font-size="10.00">src/analysis/slowcontrol</text>
<text text-anchor="middle" x="768" y="-93" font-family="Helvetica,sans-Serif" font-size="10.00">/variables/Pairspec.cc</text>
</a>
</g>
<!-- Node61&#45;&gt;Node69 -->
<g id="edge26" class="edge"><title>Node61&#45;&gt;Node69</title>
<path fill="none" stroke="midnightblue" d="M544.792,-155.589C613.48,-139.359 632.39,-136.053 698,-120 700.925,-119.284 703.917,-118.545 706.938,-117.792"/>
<polygon fill="midnightblue" stroke="midnightblue" points="543.682,-152.255 534.759,-157.967 545.297,-159.066 543.682,-152.255"/>
</g>
<!-- Node70 -->
<g id="node29" class="node"><title>Node70</title>
<a xlink:href="_tagger_scalers_8cc.html" target="_top" xlink:title="src/analysis/slowcontrol\l/variables/TaggerScalers.cc">
<polygon fill="white" stroke="black" points="987,-85 987,-119 1125,-119 1125,-85 987,-85"/>
<text text-anchor="start" x="995" y="-106" font-family="Helvetica,sans-Serif" font-size="10.00">src/analysis/slowcontrol</text>
<text text-anchor="middle" x="1056" y="-93" font-family="Helvetica,sans-Serif" font-size="10.00">/variables/TaggerScalers.cc</text>
</a>
</g>
<!-- Node61&#45;&gt;Node70 -->
<g id="edge28" class="edge"><title>Node61&#45;&gt;Node70</title>
<path fill="none" stroke="midnightblue" d="M544.776,-155.85C736.31,-125.816 789.598,-149.378 978,-120 980.884,-119.55 983.819,-119.053 986.778,-118.52"/>
<polygon fill="midnightblue" stroke="midnightblue" points="543.982,-152.433 534.659,-157.466 545.086,-159.345 543.982,-152.433"/>
</g>
<!-- Node71 -->
<g id="node31" class="node"><title>Node71</title>
<a xlink:href="analysis_2slowcontrol_2variables_2_trigger_8cc.html" target="_top" xlink:title="src/analysis/slowcontrol\l/variables/Trigger.cc">
<polygon fill="white" stroke="black" points="847,-85 847,-119 969,-119 969,-85 847,-85"/>
<text text-anchor="start" x="855" y="-106" font-family="Helvetica,sans-Serif" font-size="10.00">src/analysis/slowcontrol</text>
<text text-anchor="middle" x="908" y="-93" font-family="Helvetica,sans-Serif" font-size="10.00">/variables/Trigger.cc</text>
</a>
</g>
<!-- Node61&#45;&gt;Node71 -->
<g id="edge30" class="edge"><title>Node61&#45;&gt;Node71</title>
<path fill="none" stroke="midnightblue" d="M544.628,-155.817C674.727,-132.922 711.377,-143.901 838,-120 840.836,-119.465 843.727,-118.88 846.641,-118.26"/>
<polygon fill="midnightblue" stroke="midnightblue" points="543.907,-152.39 534.682,-157.6 545.143,-159.28 543.907,-152.39"/>
</g>
<!-- Node63 -->
<g id="node15" class="node"><title>Node63</title>
<a xlink:href="_physics_manager_8cc.html" target="_top" xlink:title="src/analysis/physics\l/PhysicsManager.cc">
<polygon fill="white" stroke="black" points="215,-7 215,-41 321,-41 321,-7 215,-7"/>
<text text-anchor="start" x="223" y="-28" font-family="Helvetica,sans-Serif" font-size="10.00">src/analysis/physics</text>
<text text-anchor="middle" x="268" y="-15" font-family="Helvetica,sans-Serif" font-size="10.00">/PhysicsManager.cc</text>
</a>
</g>
<!-- Node62&#45;&gt;Node63 -->
<g id="edge14" class="edge"><title>Node62&#45;&gt;Node63</title>
<path fill="none" stroke="midnightblue" d="M286.291,-74.9528C282.279,-63.7762 277.746,-51.1498 274.197,-41.2623"/>
<polygon fill="midnightblue" stroke="midnightblue" points="283.113,-76.4599 289.786,-84.6893 289.701,-74.0948 283.113,-76.4599"/>
</g>
<!-- Node64 -->
<g id="node17" class="node"><title>Node64</title>
<a xlink:href="_slow_control_manager_8cc.html" target="_top" xlink:title="src/analysis/slowcontrol\l/SlowControlManager.cc">
<polygon fill="white" stroke="black" points="521,-7 521,-41 645,-41 645,-7 521,-7"/>
<text text-anchor="start" x="529" y="-28" font-family="Helvetica,sans-Serif" font-size="10.00">src/analysis/slowcontrol</text>
<text text-anchor="middle" x="583" y="-15" font-family="Helvetica,sans-Serif" font-size="10.00">/SlowControlManager.cc</text>
</a>
</g>
<!-- Node62&#45;&gt;Node64 -->
<g id="edge16" class="edge"><title>Node62&#45;&gt;Node64</title>
<path fill="none" stroke="midnightblue" d="M367.292,-82.8523C405.48,-72.5702 453.321,-59.6484 496,-48 504.162,-45.7723 512.752,-43.4165 521.226,-41.0858"/>
<polygon fill="midnightblue" stroke="midnightblue" points="366.043,-79.5639 357.296,-85.5428 367.862,-86.3233 366.043,-79.5639"/>
</g>
<!-- Node62&#45;&gt;Node65 -->
<g id="edge18" class="edge"><title>Node62&#45;&gt;Node65</title>
<path fill="none" stroke="midnightblue" d="M330.293,-79.138C348.552,-66.965 370.632,-52.2452 387.384,-41.0775"/>
<polygon fill="midnightblue" stroke="midnightblue" points="328.055,-76.4233 321.676,-84.8826 331.938,-82.2477 328.055,-76.4233"/>
</g>
<!-- Node72&#45;&gt;Node61 -->
<g id="edge36" class="edge"><title>Node72&#45;&gt;Node61</title>
<path fill="none" stroke="midnightblue" d="M403.955,-222.784C417.649,-212.514 433.47,-200.648 446.08,-191.19"/>
<polygon fill="midnightblue" stroke="midnightblue" points="401.651,-220.137 395.751,-228.937 405.851,-225.737 401.651,-220.137"/>
</g>
<!-- Node73&#45;&gt;Node61 -->
<g id="edge42" class="edge"><title>Node73&#45;&gt;Node61</title>
<path fill="none" stroke="midnightblue" d="M798.712,-227.865C684.99,-206.394 653.078,-213.044 543,-192 540.273,-191.479 537.495,-190.922 534.693,-190.339"/>
<polygon fill="midnightblue" stroke="midnightblue" points="798.388,-231.367 808.868,-229.816 799.708,-224.492 798.388,-231.367"/>
</g>
<!-- Node74 -->
<g id="node39" class="node"><title>Node74</title>
<a xlink:href="_exp_trigger_8cc.html" target="_top" xlink:title="src/analysis/slowcontrol\l/processors/ExpTrigger.cc">
<polygon fill="white" stroke="black" points="709.5,-157 709.5,-191 840.5,-191 840.5,-157 709.5,-157"/>
<text text-anchor="start" x="717.5" y="-178" font-family="Helvetica,sans-Serif" font-size="10.00">src/analysis/slowcontrol</text>
<text text-anchor="middle" x="775" y="-165" font-family="Helvetica,sans-Serif" font-size="10.00">/processors/ExpTrigger.cc</text>
</a>
</g>
<!-- Node73&#45;&gt;Node74 -->
<g id="edge40" class="edge"><title>Node73&#45;&gt;Node74</title>
<path fill="none" stroke="midnightblue" d="M840.723,-222.784C826.886,-212.514 810.9,-200.648 798.159,-191.19"/>
<polygon fill="midnightblue" stroke="midnightblue" points="838.897,-225.787 849.012,-228.937 843.069,-220.166 838.897,-225.787"/>
</g>
<!-- Node75&#45;&gt;Node61 -->
<g id="edge48" class="edge"><title>Node75&#45;&gt;Node61</title>
<path fill="none" stroke="midnightblue" d="M132.952,-227.898C232.706,-207.444 337.482,-191.803 403.437,-182.668"/>
<polygon fill="midnightblue" stroke="midnightblue" points="132.088,-224.503 123.005,-229.958 133.507,-231.357 132.088,-224.503"/>
</g>
<!-- Node76 -->
<g id="node44" class="node"><title>Node76</title>
<a xlink:href="processors_2_pair_spec_8cc.html" target="_top" xlink:title="src/analysis/slowcontrol\l/processors/PairSpec.cc">
<polygon fill="white" stroke="black" points="0,-157 0,-191 124,-191 124,-157 0,-157"/>
<text text-anchor="start" x="8" y="-178" font-family="Helvetica,sans-Serif" font-size="10.00">src/analysis/slowcontrol</text>
<text text-anchor="middle" x="62" y="-165" font-family="Helvetica,sans-Serif" font-size="10.00">/processors/PairSpec.cc</text>
</a>
</g>
<!-- Node75&#45;&gt;Node76 -->
<g id="edge46" class="edge"><title>Node75&#45;&gt;Node76</title>
<path fill="none" stroke="midnightblue" d="M62,-218.719C62,-209.572 62,-199.625 62,-191.441"/>
<polygon fill="midnightblue" stroke="midnightblue" points="58.5001,-218.937 62,-228.937 65.5001,-218.937 58.5001,-218.937"/>
</g>
<!-- Node77&#45;&gt;Node61 -->
<g id="edge52" class="edge"><title>Node77&#45;&gt;Node61</title>
<path fill="none" stroke="midnightblue" d="M284.143,-226.195C323.157,-215.179 371.222,-201.608 408.561,-191.065"/>
<polygon fill="midnightblue" stroke="midnightblue" points="283.104,-222.851 274.431,-228.937 285.006,-229.588 283.104,-222.851"/>
</g>
<!-- Node79 -->
<g id="node52" class="node"><title>Node79</title>
<a xlink:href="_slow_control_variables_8h.html" target="_top" xlink:title="src/analysis/slowcontrol\l/SlowControlVariables.h">
<polygon fill="white" stroke="black" points="1283,-85 1283,-119 1405,-119 1405,-85 1283,-85"/>
<text text-anchor="start" x="1291" y="-106" font-family="Helvetica,sans-Serif" font-size="10.00">src/analysis/slowcontrol</text>
<text text-anchor="middle" x="1344" y="-93" font-family="Helvetica,sans-Serif" font-size="10.00">/SlowControlVariables.h</text>
</a>
</g>
<!-- Node78&#45;&gt;Node79 -->
<g id="edge56" class="edge"><title>Node78&#45;&gt;Node79</title>
<path fill="none" stroke="midnightblue" d="M1270.33,-240.255C1369.88,-231.505 1540.43,-213.558 1559,-192 1605.94,-137.499 1484.04,-115.293 1405.14,-106.809"/>
<polygon fill="midnightblue" stroke="midnightblue" points="1269.99,-236.771 1260.33,-241.124 1270.6,-243.745 1269.99,-236.771"/>
</g>
<!-- Node89 -->
<g id="node74" class="node"><title>Node89</title>
<a xlink:href="_tagger_scalers_8h.html" target="_top" xlink:title="src/analysis/slowcontrol\l/variables/TaggerScalers.h">
<polygon fill="white" stroke="black" points="1277.5,-157 1277.5,-191 1410.5,-191 1410.5,-157 1277.5,-157"/>
<text text-anchor="start" x="1285.5" y="-178" font-family="Helvetica,sans-Serif" font-size="10.00">src/analysis/slowcontrol</text>
<text text-anchor="middle" x="1344" y="-165" font-family="Helvetica,sans-Serif" font-size="10.00">/variables/TaggerScalers.h</text>
</a>
</g>
<!-- Node78&#45;&gt;Node89 -->
<g id="edge80" class="edge"><title>Node78&#45;&gt;Node89</title>
<path fill="none" stroke="midnightblue" d="M1242.6,-224.352C1264.06,-213.693 1289.57,-201.027 1309.63,-191.065"/>
<polygon fill="midnightblue" stroke="midnightblue" points="1240.76,-221.355 1233.36,-228.937 1243.88,-227.624 1240.76,-221.355"/>
</g>
<!-- Node90 -->
<g id="node78" class="node"><title>Node90</title>
<a xlink:href="_clocks_8h.html" target="_top" xlink:title="src/analysis/slowcontrol\l/variables/Clocks.h">
<polygon fill="white" stroke="black" points="1428,-157 1428,-191 1550,-191 1550,-157 1428,-157"/>
<text text-anchor="start" x="1436" y="-178" font-family="Helvetica,sans-Serif" font-size="10.00">src/analysis/slowcontrol</text>
<text text-anchor="middle" x="1489" y="-165" font-family="Helvetica,sans-Serif" font-size="10.00">/variables/Clocks.h</text>
</a>
</g>
<!-- Node78&#45;&gt;Node90 -->
<g id="edge86" class="edge"><title>Node78&#45;&gt;Node90</title>
<path fill="none" stroke="midnightblue" d="M1270.04,-228.772C1313.16,-218.264 1369.28,-204.493 1419,-192 1421.92,-191.266 1424.91,-190.512 1427.93,-189.747"/>
<polygon fill="midnightblue" stroke="midnightblue" points="1269.1,-225.399 1260.21,-231.166 1270.76,-232.2 1269.1,-225.399"/>
</g>
<!-- Node91 -->
<g id="node82" class="node"><title>Node91</title>
<a xlink:href="_beam_8h.html" target="_top" xlink:title="src/analysis/slowcontrol\l/variables/Beam.h">
<polygon fill="white" stroke="black" points="858,-157 858,-191 980,-191 980,-157 858,-157"/>
<text text-anchor="start" x="866" y="-178" font-family="Helvetica,sans-Serif" font-size="10.00">src/analysis/slowcontrol</text>
<text text-anchor="middle" x="919" y="-165" font-family="Helvetica,sans-Serif" font-size="10.00">/variables/Beam.h</text>
</a>
</g>
<!-- Node78&#45;&gt;Node91 -->
<g id="edge92" class="edge"><title>Node78&#45;&gt;Node91</title>
<path fill="none" stroke="midnightblue" d="M1128.1,-227.768C1082.56,-216.059 1024.01,-201.003 980.454,-189.802"/>
<polygon fill="midnightblue" stroke="midnightblue" points="1127.34,-231.188 1137.9,-230.288 1129.09,-224.408 1127.34,-231.188"/>
</g>
<!-- Node92 -->
<g id="node86" class="node"><title>Node92</title>
<a xlink:href="variables_2_pair_spec_8h.html" target="_top" xlink:title="src/analysis/slowcontrol\l/variables/Pairspec.h">
<polygon fill="white" stroke="black" points="998,-157 998,-191 1120,-191 1120,-157 998,-157"/>
<text text-anchor="start" x="1006" y="-178" font-family="Helvetica,sans-Serif" font-size="10.00">src/analysis/slowcontrol</text>
<text text-anchor="middle" x="1059" y="-165" font-family="Helvetica,sans-Serif" font-size="10.00">/variables/Pairspec.h</text>
</a>
</g>
<!-- Node78&#45;&gt;Node92 -->
<g id="edge98" class="edge"><title>Node78&#45;&gt;Node92</title>
<path fill="none" stroke="midnightblue" d="M1156.66,-224.226C1136.07,-213.638 1111.68,-201.094 1092.43,-191.19"/>
<polygon fill="midnightblue" stroke="midnightblue" points="1155.33,-227.476 1165.82,-228.937 1158.53,-221.251 1155.33,-227.476"/>
</g>
<!-- Node93 -->
<g id="node90" class="node"><title>Node93</title>
<a xlink:href="analysis_2slowcontrol_2variables_2_trigger_8h.html" target="_top" xlink:title="src/analysis/slowcontrol\l/variables/Trigger.h">
<polygon fill="white" stroke="black" points="1138,-157 1138,-191 1260,-191 1260,-157 1138,-157"/>
<text text-anchor="start" x="1146" y="-178" font-family="Helvetica,sans-Serif" font-size="10.00">src/analysis/slowcontrol</text>
<text text-anchor="middle" x="1199" y="-165" font-family="Helvetica,sans-Serif" font-size="10.00">/variables/Trigger.h</text>
</a>
</g>
<!-- Node78&#45;&gt;Node93 -->
<g id="edge104" class="edge"><title>Node78&#45;&gt;Node93</title>
<path fill="none" stroke="midnightblue" d="M1199,-218.719C1199,-209.572 1199,-199.625 1199,-191.441"/>
<polygon fill="midnightblue" stroke="midnightblue" points="1195.5,-218.937 1199,-228.937 1202.5,-218.937 1195.5,-218.937"/>
</g>
<!-- Node79&#45;&gt;Node64 -->
<g id="edge74" class="edge"><title>Node79&#45;&gt;Node64</title>
<path fill="none" stroke="midnightblue" d="M1272.72,-83.9805C1006.52,-43.5205 932.059,-91.4613 670,-48 659.644,-46.2824 648.749,-43.82 638.307,-41.1202"/>
<polygon fill="midnightblue" stroke="midnightblue" points="1272.26,-87.4509 1282.68,-85.5214 1273.33,-80.5333 1272.26,-87.4509"/>
</g>
<!-- Node79&#45;&gt;Node65 -->
<g id="edge78" class="edge"><title>Node79&#45;&gt;Node65</title>
<path fill="none" stroke="midnightblue" d="M1272.68,-83.988C936.932,-34.7313 844.329,-95.6877 512,-48 500.096,-46.2918 487.531,-43.7977 475.496,-41.0558"/>
<polygon fill="midnightblue" stroke="midnightblue" points="1272.28,-87.4667 1282.69,-85.4777 1273.31,-80.5431 1272.28,-87.4667"/>
</g>
<!-- Node80 -->
<g id="node54" class="node"><title>Node80</title>
<a xlink:href="_debug_physics_8cc.html" target="_top" xlink:title="src/analysis/physics\l/common/DebugPhysics.cc">
<polygon fill="white" stroke="black" points="678.5,-7 678.5,-41 815.5,-41 815.5,-7 678.5,-7"/>
<text text-anchor="start" x="686.5" y="-28" font-family="Helvetica,sans-Serif" font-size="10.00">src/analysis/physics</text>
<text text-anchor="middle" x="747" y="-15" font-family="Helvetica,sans-Serif" font-size="10.00">/common/DebugPhysics.cc</text>
</a>
</g>
<!-- Node79&#45;&gt;Node80 -->
<g id="edge58" class="edge"><title>Node79&#45;&gt;Node80</title>
<path fill="none" stroke="midnightblue" d="M1272.8,-83.9697C1074.3,-52.0093 1017.82,-85.4733 824,-48 814.789,-46.2191 805.125,-43.7265 795.876,-41.0167"/>
<polygon fill="midnightblue" stroke="midnightblue" points="1272.23,-87.4233 1282.67,-85.5932 1273.37,-80.5162 1272.23,-87.4233"/>
</g>
<!-- Node81 -->
<g id="node56" class="node"><title>Node81</title>
<a xlink:href="_extract_scalers_8cc.html" target="_top" xlink:title="src/analysis/physics\l/common/ExtractScalers.cc">
<polygon fill="white" stroke="black" points="833,-7 833,-41 971,-41 971,-7 833,-7"/>
<text text-anchor="start" x="841" y="-28" font-family="Helvetica,sans-Serif" font-size="10.00">src/analysis/physics</text>
<text text-anchor="middle" x="902" y="-15" font-family="Helvetica,sans-Serif" font-size="10.00">/common/ExtractScalers.cc</text>
</a>
</g>
<!-- Node79&#45;&gt;Node81 -->
<g id="edge60" class="edge"><title>Node79&#45;&gt;Node81</title>
<path fill="none" stroke="midnightblue" d="M1272.71,-83.8977C1142.84,-60.3072 1105.6,-74.7937 980,-48 971.132,-46.1082 961.823,-43.6624 952.848,-41.0577"/>
<polygon fill="midnightblue" stroke="midnightblue" points="1272.17,-87.3565 1282.64,-85.7415 1273.45,-80.4742 1272.17,-87.3565"/>
</g>
<!-- Node82 -->
<g id="node58" class="node"><title>Node82</title>
<a xlink:href="_process_tagg_eff_8cc.html" target="_top" xlink:title="src/analysis/physics\l/common/ProcessTaggEff.cc">
<polygon fill="white" stroke="black" points="989,-7 989,-41 1133,-41 1133,-7 989,-7"/>
<text text-anchor="start" x="997" y="-28" font-family="Helvetica,sans-Serif" font-size="10.00">src/analysis/physics</text>
<text text-anchor="middle" x="1061" y="-15" font-family="Helvetica,sans-Serif" font-size="10.00">/common/ProcessTaggEff.cc</text>
</a>
</g>
<!-- Node79&#45;&gt;Node82 -->
<g id="edge62" class="edge"><title>Node79&#45;&gt;Node82</title>
<path fill="none" stroke="midnightblue" d="M1272.75,-83.4532C1234.01,-73.2427 1185.3,-60.2001 1142,-48 1134.24,-45.8123 1126.07,-43.4569 1118.03,-41.1067"/>
<polygon fill="midnightblue" stroke="midnightblue" points="1272.33,-86.9602 1282.89,-86.12 1274.11,-80.1906 1272.33,-86.9602"/>
</g>
<!-- Node83 -->
<g id="node60" class="node"><title>Node83</title>
<a xlink:href="debug_scalers_8cc.html" target="_top" xlink:title="src/analysis/physics\l/misc/debugScalers.cc">
<polygon fill="white" stroke="black" points="1151,-7 1151,-41 1267,-41 1267,-7 1151,-7"/>
<text text-anchor="start" x="1159" y="-28" font-family="Helvetica,sans-Serif" font-size="10.00">src/analysis/physics</text>
<text text-anchor="middle" x="1209" y="-15" font-family="Helvetica,sans-Serif" font-size="10.00">/misc/debugScalers.cc</text>
</a>
</g>
<!-- Node79&#45;&gt;Node83 -->
<g id="edge64" class="edge"><title>Node79&#45;&gt;Node83</title>
<path fill="none" stroke="midnightblue" d="M1305.58,-79.7995C1284.29,-67.5015 1258.24,-52.4483 1238.56,-41.0775"/>
<polygon fill="midnightblue" stroke="midnightblue" points="1303.96,-82.9103 1314.37,-84.8826 1307.47,-76.8492 1303.96,-82.9103"/>
</g>
<!-- Node84 -->
<g id="node62" class="node"><title>Node84</title>
<a xlink:href="debug_tagg_eff_8cc.html" target="_top" xlink:title="src/analysis/physics\l/misc/debugTaggEff.cc">
<polygon fill="white" stroke="black" points="1285,-7 1285,-41 1403,-41 1403,-7 1285,-7"/>
<text text-anchor="start" x="1293" y="-28" font-family="Helvetica,sans-Serif" font-size="10.00">src/analysis/physics</text>
<text text-anchor="middle" x="1344" y="-15" font-family="Helvetica,sans-Serif" font-size="10.00">/misc/debugTaggEff.cc</text>
</a>
</g>
<!-- Node79&#45;&gt;Node84 -->
<g id="edge66" class="edge"><title>Node79&#45;&gt;Node84</title>
<path fill="none" stroke="midnightblue" d="M1344,-74.6102C1344,-63.5188 1344,-51.0489 1344,-41.2623"/>
<polygon fill="midnightblue" stroke="midnightblue" points="1340.5,-74.6892 1344,-84.6893 1347.5,-74.6893 1340.5,-74.6892"/>
</g>
<!-- Node85 -->
<g id="node64" class="node"><title>Node85</title>
<a xlink:href="single_pi0_8cc.html" target="_top" xlink:title="src/analysis/physics\l/production/singlePi0.cc">
<polygon fill="white" stroke="black" points="1420.5,-7 1420.5,-41 1541.5,-41 1541.5,-7 1420.5,-7"/>
<text text-anchor="start" x="1428.5" y="-28" font-family="Helvetica,sans-Serif" font-size="10.00">src/analysis/physics</text>
<text text-anchor="middle" x="1481" y="-15" font-family="Helvetica,sans-Serif" font-size="10.00">/production/singlePi0.cc</text>
</a>
</g>
<!-- Node79&#45;&gt;Node85 -->
<g id="edge68" class="edge"><title>Node79&#45;&gt;Node85</title>
<path fill="none" stroke="midnightblue" d="M1382.99,-79.7995C1404.59,-67.5015 1431.03,-52.4483 1451,-41.0775"/>
<polygon fill="midnightblue" stroke="midnightblue" points="1381.02,-76.8932 1374.07,-84.8826 1384.49,-82.9764 1381.02,-76.8932"/>
</g>
<!-- Node86 -->
<g id="node66" class="node"><title>Node86</title>
<a xlink:href="cross__section_8cc.html" target="_top" xlink:title="src/analysis/physics\l/scratch/collicott/cross\l_section.cc">
<polygon fill="white" stroke="black" points="1559,-0.5 1559,-47.5 1675,-47.5 1675,-0.5 1559,-0.5"/>
<text text-anchor="start" x="1567" y="-34.5" font-family="Helvetica,sans-Serif" font-size="10.00">src/analysis/physics</text>
<text text-anchor="start" x="1567" y="-21.5" font-family="Helvetica,sans-Serif" font-size="10.00">/scratch/collicott/cross</text>
<text text-anchor="middle" x="1617" y="-8.5" font-family="Helvetica,sans-Serif" font-size="10.00">_section.cc</text>
</a>
</g>
<!-- Node79&#45;&gt;Node86 -->
<g id="edge70" class="edge"><title>Node79&#45;&gt;Node86</title>
<path fill="none" stroke="midnightblue" d="M1415.14,-84.9844C1455.03,-75.0363 1505.56,-61.7564 1550,-48 1552.95,-47.0867 1555.96,-46.1228 1559,-45.1271"/>
<polygon fill="midnightblue" stroke="midnightblue" points="1414.1,-81.6359 1405.24,-87.4401 1415.79,-88.4301 1414.1,-81.6359"/>
</g>
<!-- Node87 -->
<g id="node68" class="node"><title>Node87</title>
<a xlink:href="det__eff_8cc.html" target="_top" xlink:title="src/analysis/physics\l/scratch/collicott/det\l_eff.cc">
<polygon fill="white" stroke="black" points="1693,-0.5 1693,-47.5 1799,-47.5 1799,-0.5 1693,-0.5"/>
<text text-anchor="start" x="1701" y="-34.5" font-family="Helvetica,sans-Serif" font-size="10.00">src/analysis/physics</text>
<text text-anchor="start" x="1701" y="-21.5" font-family="Helvetica,sans-Serif" font-size="10.00">/scratch/collicott/det</text>
<text text-anchor="middle" x="1746" y="-8.5" font-family="Helvetica,sans-Serif" font-size="10.00">_eff.cc</text>
</a>
</g>
<!-- Node79&#45;&gt;Node87 -->
<g id="edge72" class="edge"><title>Node79&#45;&gt;Node87</title>
<path fill="none" stroke="midnightblue" d="M1414.96,-95.1606C1484.38,-87.4365 1592.7,-72.6229 1684,-48 1686.9,-47.2186 1689.85,-46.3483 1692.81,-45.4154"/>
<polygon fill="midnightblue" stroke="midnightblue" points="1414.56,-91.6827 1405,-96.2491 1415.32,-98.6413 1414.56,-91.6827"/>
</g>
<!-- Node88 -->
<g id="node71" class="node"><title>Node88</title>
<a xlink:href="_slow_control_variables_8cc.html" target="_top" xlink:title="src/analysis/slowcontrol\l/SlowControlVariables.cc">
<polygon fill="white" stroke="black" points="1816.5,-7 1816.5,-41 1943.5,-41 1943.5,-7 1816.5,-7"/>
<text text-anchor="start" x="1824.5" y="-28" font-family="Helvetica,sans-Serif" font-size="10.00">src/analysis/slowcontrol</text>
<text text-anchor="middle" x="1880" y="-15" font-family="Helvetica,sans-Serif" font-size="10.00">/SlowControlVariables.cc</text>
</a>
</g>
<!-- Node79&#45;&gt;Node88 -->
<g id="edge76" class="edge"><title>Node79&#45;&gt;Node88</title>
<path fill="none" stroke="midnightblue" d="M1415.1,-98.2814C1506.81,-92.4495 1670.84,-78.4992 1808,-48 1816.36,-46.141 1825.12,-43.6787 1833.53,-41.0395"/>
<polygon fill="midnightblue" stroke="midnightblue" points="1414.86,-94.7894 1405.1,-98.9034 1415.3,-101.776 1414.86,-94.7894"/>
</g>
<!-- Node89&#45;&gt;Node70 -->
<g id="edge84" class="edge"><title>Node89&#45;&gt;Node70</title>
<path fill="none" stroke="midnightblue" d="M1267.3,-154.825C1222.78,-143.694 1167.17,-129.793 1124.18,-119.046"/>
<polygon fill="midnightblue" stroke="midnightblue" points="1266.65,-158.271 1277.2,-157.301 1268.35,-151.48 1266.65,-158.271"/>
</g>
<!-- Node89&#45;&gt;Node79 -->
<g id="edge82" class="edge"><title>Node89&#45;&gt;Node79</title>
<path fill="none" stroke="midnightblue" d="M1344,-146.719C1344,-137.572 1344,-127.625 1344,-119.441"/>
<polygon fill="midnightblue" stroke="midnightblue" points="1340.5,-146.937 1344,-156.937 1347.5,-146.937 1340.5,-146.937"/>
</g>
<!-- Node90&#45;&gt;Node68 -->
<g id="edge90" class="edge"><title>Node90&#45;&gt;Node68</title>
<path fill="none" stroke="midnightblue" d="M1417.98,-155.753C1352.99,-139.379 1335.36,-135.506 1274,-120 1271.08,-119.262 1268.09,-118.504 1265.08,-117.737"/>
<polygon fill="midnightblue" stroke="midnightblue" points="1417.37,-159.209 1427.92,-158.263 1419.08,-152.422 1417.37,-159.209"/>
</g>
<!-- Node90&#45;&gt;Node79 -->
<g id="edge88" class="edge"><title>Node90&#45;&gt;Node79</title>
<path fill="none" stroke="midnightblue" d="M1445.4,-152.352C1423.94,-141.693 1398.43,-129.027 1378.37,-119.065"/>
<polygon fill="midnightblue" stroke="midnightblue" points="1444.12,-155.624 1454.64,-156.937 1447.24,-149.355 1444.12,-155.624"/>
</g>
<!-- Node91&#45;&gt;Node67 -->
<g id="edge96" class="edge"><title>Node91&#45;&gt;Node67</title>
<path fill="none" stroke="midnightblue" d="M848.05,-155.787C780.399,-139.128 761.959,-135.846 698,-120 695.077,-119.276 692.087,-118.529 689.067,-117.771"/>
<polygon fill="midnightblue" stroke="midnightblue" points="847.385,-159.228 857.933,-158.229 849.064,-152.432 847.385,-159.228"/>
</g>
<!-- Node91&#45;&gt;Node79 -->
<g id="edge94" class="edge"><title>Node91&#45;&gt;Node79</title>
<path fill="none" stroke="midnightblue" d="M990.382,-155.869C1116.2,-132.635 1151.78,-143.337 1274,-120 1276.83,-119.459 1279.73,-118.869 1282.64,-118.245"/>
<polygon fill="midnightblue" stroke="midnightblue" points="989.541,-152.465 980.361,-157.755 990.836,-159.345 989.541,-152.465"/>
</g>
<!-- Node92&#45;&gt;Node69 -->
<g id="edge102" class="edge"><title>Node92&#45;&gt;Node69</title>
<path fill="none" stroke="midnightblue" d="M988.05,-155.787C920.399,-139.128 901.959,-135.846 838,-120 835.077,-119.276 832.087,-118.529 829.067,-117.771"/>
<polygon fill="midnightblue" stroke="midnightblue" points="987.385,-159.228 997.933,-158.229 989.064,-152.432 987.385,-159.228"/>
</g>
<!-- Node92&#45;&gt;Node79 -->
<g id="edge100" class="edge"><title>Node92&#45;&gt;Node79</title>
<path fill="none" stroke="midnightblue" d="M1130.02,-155.753C1195.01,-139.379 1212.64,-135.506 1274,-120 1276.92,-119.262 1279.91,-118.504 1282.92,-117.737"/>
<polygon fill="midnightblue" stroke="midnightblue" points="1128.92,-152.422 1120.08,-158.263 1130.63,-159.209 1128.92,-152.422"/>
</g>
<!-- Node93&#45;&gt;Node71 -->
<g id="edge108" class="edge"><title>Node93&#45;&gt;Node71</title>
<path fill="none" stroke="midnightblue" d="M1128.05,-155.787C1060.4,-139.128 1041.96,-135.846 978,-120 975.077,-119.276 972.087,-118.529 969.067,-117.771"/>
<polygon fill="midnightblue" stroke="midnightblue" points="1127.38,-159.228 1137.93,-158.229 1129.06,-152.432 1127.38,-159.228"/>
</g>
<!-- Node93&#45;&gt;Node79 -->
<g id="edge106" class="edge"><title>Node93&#45;&gt;Node79</title>
<path fill="none" stroke="midnightblue" d="M1242.6,-152.352C1264.06,-141.693 1289.57,-129.027 1309.63,-119.065"/>
<polygon fill="midnightblue" stroke="midnightblue" points="1240.76,-149.355 1233.36,-156.937 1243.88,-155.624 1240.76,-149.355"/>
</g>
</g>
</svg>
