<?xml version="1.0" encoding="UTF-8" standalone="no"?>
<!DOCTYPE svg PUBLIC "-//W3C//DTD SVG 1.1//EN"
 "http://www.w3.org/Graphics/SVG/1.1/DTD/svg11.dtd">
<!-- Generated by graphviz version 2.26.3 (20100126.1600)
 -->
<!-- Title: src/base/SavitzkyGolay.cc Pages: 1 -->
<svg width="580pt" height="204pt"
 viewBox="0.00 0.00 580.00 204.00" xmlns="http://www.w3.org/2000/svg" xmlns:xlink="http://www.w3.org/1999/xlink">
<g id="graph1" class="graph" transform="scale(1 1) rotate(0) translate(4 200)">
<title>src/base/SavitzkyGolay.cc</title>
<polygon fill="white" stroke="white" points="-4,5 -4,-200 577,-200 577,5 -4,5"/>
<!-- Node0 -->
<g id="node1" class="node"><title>Node0</title>
<polygon fill="#bfbfbf" stroke="black" points="277,-174.5 277,-195.5 411,-195.5 411,-174.5 277,-174.5"/>
<text text-anchor="middle" x="344" y="-182.5" font-family="Helvetica,sans-Serif" font-size="10.00">src/base/SavitzkyGolay.cc</text>
</g>
<!-- Node1 -->
<g id="node3" class="node"><title>Node1</title>
<a xlink:href="_savitzky_golay_8h.html" target="_top" xlink:title="SavitzkyGolay.h">
<polygon fill="white" stroke="black" points="197.5,-116.5 197.5,-137.5 286.5,-137.5 286.5,-116.5 197.5,-116.5"/>
<text text-anchor="middle" x="242" y="-124.5" font-family="Helvetica,sans-Serif" font-size="10.00">SavitzkyGolay.h</text>
</a>
</g>
<!-- Node0&#45;&gt;Node1 -->
<g id="edge2" class="edge"><title>Node0&#45;&gt;Node1</title>
<path fill="none" stroke="midnightblue" d="M325.292,-174.362C309.619,-165.45 287.036,-152.609 269.337,-142.545"/>
<polygon fill="midnightblue" stroke="midnightblue" points="271.013,-139.471 260.59,-137.571 267.553,-145.556 271.013,-139.471"/>
</g>
<!-- Node12 -->
<g id="node25" class="node"><title>Node12</title>
<a xlink:href="string_8h.html" target="_top" xlink:title="base/std_ext/string.h">
<polygon fill="white" stroke="black" points="60,-116.5 60,-137.5 168,-137.5 168,-116.5 60,-116.5"/>
<text text-anchor="middle" x="114" y="-124.5" font-family="Helvetica,sans-Serif" font-size="10.00">base/std_ext/string.h</text>
</a>
</g>
<!-- Node0&#45;&gt;Node12 -->
<g id="edge24" class="edge"><title>Node0&#45;&gt;Node12</title>
<path fill="none" stroke="midnightblue" d="M302.349,-174.497C263.96,-164.816 206.855,-150.416 165.593,-140.01"/>
<polygon fill="midnightblue" stroke="midnightblue" points="166.282,-136.575 155.729,-137.523 164.57,-143.362 166.282,-136.575"/>
</g>
<!-- Node14 -->
<g id="node32" class="node"><title>Node14</title>
<polygon fill="white" stroke="#bfbfbf" points="303.5,-116.5 303.5,-137.5 384.5,-137.5 384.5,-116.5 303.5,-116.5"/>
<text text-anchor="middle" x="344" y="-124.5" font-family="Helvetica,sans-Serif" font-size="10.00">gsl/gsl_linalg.h</text>
</g>
<!-- Node0&#45;&gt;Node14 -->
<g id="edge34" class="edge"><title>Node0&#45;&gt;Node14</title>
<path fill="none" stroke="midnightblue" d="M344,-174.362C344,-166.922 344,-156.743 344,-147.728"/>
<polygon fill="midnightblue" stroke="midnightblue" points="347.5,-147.571 344,-137.571 340.5,-147.571 347.5,-147.571"/>
</g>
<!-- Node15 -->
<g id="node34" class="node"><title>Node15</title>
<polygon fill="white" stroke="#bfbfbf" points="401.5,-116.5 401.5,-137.5 478.5,-137.5 478.5,-116.5 401.5,-116.5"/>
<text text-anchor="middle" x="440" y="-124.5" font-family="Helvetica,sans-Serif" font-size="10.00">gsl/gsl_blas.h</text>
</g>
<!-- Node0&#45;&gt;Node15 -->
<g id="edge36" class="edge"><title>Node0&#45;&gt;Node15</title>
<path fill="none" stroke="midnightblue" d="M361.608,-174.362C376.223,-165.532 397.224,-152.844 413.811,-142.822"/>
<polygon fill="midnightblue" stroke="midnightblue" points="415.754,-145.738 422.504,-137.571 412.135,-139.746 415.754,-145.738"/>
</g>
<!-- Node16 -->
<g id="node36" class="node"><title>Node16</title>
<polygon fill="white" stroke="#bfbfbf" points="495.5,-116.5 495.5,-137.5 572.5,-137.5 572.5,-116.5 495.5,-116.5"/>
<text text-anchor="middle" x="534" y="-124.5" font-family="Helvetica,sans-Serif" font-size="10.00">gsl/gsl_poly.h</text>
</g>
<!-- Node0&#45;&gt;Node16 -->
<g id="edge38" class="edge"><title>Node0&#45;&gt;Node16</title>
<path fill="none" stroke="midnightblue" d="M378.408,-174.497C409.651,-164.959 455.901,-150.841 489.858,-140.475"/>
<polygon fill="midnightblue" stroke="midnightblue" points="490.985,-143.79 499.528,-137.523 488.942,-137.095 490.985,-143.79"/>
</g>
<!-- Node2 -->
<g id="node5" class="node"><title>Node2</title>
<a xlink:href="interval_8h.html" target="_top" xlink:title="base/interval.h">
<polygon fill="white" stroke="black" points="214,-58.5 214,-79.5 294,-79.5 294,-58.5 214,-58.5"/>
<text text-anchor="middle" x="254" y="-66.5" font-family="Helvetica,sans-Serif" font-size="10.00">base/interval.h</text>
</a>
</g>
<!-- Node1&#45;&gt;Node2 -->
<g id="edge4" class="edge"><title>Node1&#45;&gt;Node2</title>
<path fill="none" stroke="midnightblue" d="M244.201,-116.362C245.757,-108.84 247.893,-98.5187 249.773,-89.4308"/>
<polygon fill="midnightblue" stroke="midnightblue" points="253.214,-90.0724 251.813,-79.5707 246.359,-88.6541 253.214,-90.0724"/>
</g>
<!-- Node10 -->
<g id="node21" class="node"><title>Node10</title>
<polygon fill="white" stroke="#bfbfbf" points="312,-58.5 312,-79.5 364,-79.5 364,-58.5 312,-58.5"/>
<text text-anchor="middle" x="338" y="-66.5" font-family="Helvetica,sans-Serif" font-size="10.00">memory</text>
</g>
<!-- Node1&#45;&gt;Node10 -->
<g id="edge20" class="edge"><title>Node1&#45;&gt;Node10</title>
<path fill="none" stroke="midnightblue" d="M259.608,-116.362C274.223,-107.532 295.224,-94.844 311.811,-84.8224"/>
<polygon fill="midnightblue" stroke="midnightblue" points="313.754,-87.7376 320.504,-79.5707 310.135,-81.7461 313.754,-87.7376"/>
</g>
<!-- Node11 -->
<g id="node23" class="node"><title>Node11</title>
<polygon fill="white" stroke="#bfbfbf" points="152,-58.5 152,-79.5 196,-79.5 196,-58.5 152,-58.5"/>
<text text-anchor="middle" x="174" y="-66.5" font-family="Helvetica,sans-Serif" font-size="10.00">vector</text>
</g>
<!-- Node1&#45;&gt;Node11 -->
<g id="edge22" class="edge"><title>Node1&#45;&gt;Node11</title>
<path fill="none" stroke="midnightblue" d="M229.528,-116.362C219.655,-107.941 205.667,-96.0105 194.202,-86.2308"/>
<polygon fill="midnightblue" stroke="midnightblue" points="196.273,-83.3972 186.393,-79.5707 191.73,-88.7231 196.273,-83.3972"/>
</g>
<!-- Node3 -->
<g id="node7" class="node"><title>Node3</title>
<a xlink:href="types_8h.html" target="_top" xlink:title="types.h">
<polygon fill="white" stroke="black" points="405.5,-0.5 405.5,-21.5 454.5,-21.5 454.5,-0.5 405.5,-0.5"/>
<text text-anchor="middle" x="430" y="-8.5" font-family="Helvetica,sans-Serif" font-size="10.00">types.h</text>
</a>
</g>
<!-- Node2&#45;&gt;Node3 -->
<g id="edge6" class="edge"><title>Node2&#45;&gt;Node3</title>
<path fill="none" stroke="midnightblue" d="M286.101,-58.4919C313.11,-49.6414 352.995,-36.5493 395.986,-22.3283"/>
<polygon fill="midnightblue" stroke="midnightblue" points="397.102,-25.6458 405.496,-19.1809 394.902,-19.0003 397.102,-25.6458"/>
</g>
<!-- Node4 -->
<g id="node9" class="node"><title>Node4</title>
<polygon fill="white" stroke="#bfbfbf" points="0,-0.5 0,-21.5 56,-21.5 56,-0.5 0,-0.5"/>
<text text-anchor="middle" x="28" y="-8.5" font-family="Helvetica,sans-Serif" font-size="10.00">algorithm</text>
</g>
<!-- Node2&#45;&gt;Node4 -->
<g id="edge8" class="edge"><title>Node2&#45;&gt;Node4</title>
<path fill="none" stroke="midnightblue" d="M213.676,-59.5312C177.414,-50.8918 122.469,-37.4943 66.0478,-22.2109"/>
<polygon fill="midnightblue" stroke="midnightblue" points="66.8125,-18.7918 56.2441,-19.5401 64.9725,-25.5456 66.8125,-18.7918"/>
</g>
<!-- Node5 -->
<g id="node11" class="node"><title>Node5</title>
<polygon fill="white" stroke="#bfbfbf" points="143.5,-0.5 143.5,-21.5 202.5,-21.5 202.5,-0.5 143.5,-0.5"/>
<text text-anchor="middle" x="173" y="-8.5" font-family="Helvetica,sans-Serif" font-size="10.00">stdexcept</text>
</g>
<!-- Node2&#45;&gt;Node5 -->
<g id="edge10" class="edge"><title>Node2&#45;&gt;Node5</title>
<path fill="none" stroke="midnightblue" d="M239.143,-58.3619C227.154,-49.7773 210.073,-37.5459 196.272,-27.6636"/>
<polygon fill="midnightblue" stroke="midnightblue" points="197.931,-24.5469 187.762,-21.5707 193.855,-30.2383 197.931,-24.5469"/>
</g>
<!-- Node6 -->
<g id="node13" class="node"><title>Node6</title>
<polygon fill="white" stroke="#bfbfbf" points="220,-0.5 220,-21.5 260,-21.5 260,-0.5 220,-0.5"/>
<text text-anchor="middle" x="240" y="-8.5" font-family="Helvetica,sans-Serif" font-size="10.00">limits</text>
</g>
<!-- Node2&#45;&gt;Node6 -->
<g id="edge12" class="edge"><title>Node2&#45;&gt;Node6</title>
<path fill="none" stroke="midnightblue" d="M251.432,-58.3619C249.617,-50.8401 247.125,-40.5187 244.932,-31.4308"/>
<polygon fill="midnightblue" stroke="midnightblue" points="248.3,-30.4702 242.552,-21.5707 241.496,-32.1127 248.3,-30.4702"/>
</g>
<!-- Node7 -->
<g id="node15" class="node"><title>Node7</title>
<polygon fill="white" stroke="#bfbfbf" points="277.5,-0.5 277.5,-21.5 326.5,-21.5 326.5,-0.5 277.5,-0.5"/>
<text text-anchor="middle" x="302" y="-8.5" font-family="Helvetica,sans-Serif" font-size="10.00">istream</text>
</g>
<!-- Node2&#45;&gt;Node7 -->
<g id="edge14" class="edge"><title>Node2&#45;&gt;Node7</title>
<path fill="none" stroke="midnightblue" d="M262.804,-58.3619C269.502,-50.2678 278.884,-38.9318 286.789,-29.3796"/>
<polygon fill="midnightblue" stroke="midnightblue" points="289.573,-31.5061 293.252,-21.5707 284.18,-27.0431 289.573,-31.5061"/>
</g>
<!-- Node8 -->
<g id="node17" class="node"><title>Node8</title>
<polygon fill="white" stroke="#bfbfbf" points="74,-0.5 74,-21.5 126,-21.5 126,-0.5 74,-0.5"/>
<text text-anchor="middle" x="100" y="-8.5" font-family="Helvetica,sans-Serif" font-size="10.00">sstream</text>
</g>
<!-- Node2&#45;&gt;Node8 -->
<g id="edge16" class="edge"><title>Node2&#45;&gt;Node8</title>
<path fill="none" stroke="midnightblue" d="M226.112,-58.4966C200.791,-48.9604 163.311,-34.8442 135.789,-24.4788"/>
<polygon fill="midnightblue" stroke="midnightblue" points="136.732,-21.0943 126.14,-20.8451 134.265,-27.6451 136.732,-21.0943"/>
</g>
<!-- Node9 -->
<g id="node19" class="node"><title>Node9</title>
<polygon fill="white" stroke="#bfbfbf" points="344,-0.5 344,-21.5 388,-21.5 388,-0.5 344,-0.5"/>
<text text-anchor="middle" x="366" y="-8.5" font-family="Helvetica,sans-Serif" font-size="10.00">cmath</text>
</g>
<!-- Node2&#45;&gt;Node9 -->
<g id="edge18" class="edge"><title>Node2&#45;&gt;Node9</title>
<path fill="none" stroke="midnightblue" d="M274.282,-58.4966C291.618,-49.5194 316.79,-36.4835 336.38,-26.3387"/>
<polygon fill="midnightblue" stroke="midnightblue" points="338.22,-29.3278 345.49,-21.6212 335.001,-23.1118 338.22,-29.3278"/>
</g>
<!-- Node12&#45;&gt;Node4 -->
<g id="edge30" class="edge"><title>Node12&#45;&gt;Node4</title>
<path fill="none" stroke="midnightblue" d="M105.926,-116.181C98.8252,-106.66 88.2139,-92.4193 79,-80 66.4771,-63.1205 52.2662,-43.8875 42.0319,-30.0227"/>
<polygon fill="midnightblue" stroke="midnightblue" points="44.6925,-27.7335 35.9386,-21.7653 39.0601,-31.8899 44.6925,-27.7335"/>
</g>
<!-- Node12&#45;&gt;Node8 -->
<g id="edge28" class="edge"><title>Node12&#45;&gt;Node8</title>
<path fill="none" stroke="midnightblue" d="M104.939,-116.252C97.9602,-107.227 88.8727,-93.6515 85,-80 80.4144,-63.8354 85.0389,-45.2008 90.3257,-31.3747"/>
<polygon fill="midnightblue" stroke="midnightblue" points="93.6785,-32.4328 94.3562,-21.8596 87.2329,-29.7024 93.6785,-32.4328"/>
</g>
<!-- Node12&#45;&gt;Node11 -->
<g id="edge32" class="edge"><title>Node12&#45;&gt;Node11</title>
<path fill="none" stroke="midnightblue" d="M125.005,-116.362C133.547,-108.104 145.58,-96.4725 155.583,-86.8029"/>
<polygon fill="midnightblue" stroke="midnightblue" points="158.308,-89.0374 163.065,-79.5707 153.442,-84.0044 158.308,-89.0374"/>
</g>
<!-- Node13 -->
<g id="node27" class="node"><title>Node13</title>
<polygon fill="white" stroke="#bfbfbf" points="93.5,-58.5 93.5,-79.5 134.5,-79.5 134.5,-58.5 93.5,-58.5"/>
<text text-anchor="middle" x="114" y="-66.5" font-family="Helvetica,sans-Serif" font-size="10.00">string</text>
</g>
<!-- Node12&#45;&gt;Node13 -->
<g id="edge26" class="edge"><title>Node12&#45;&gt;Node13</title>
<path fill="none" stroke="midnightblue" d="M114,-116.362C114,-108.922 114,-98.7427 114,-89.7276"/>
<polygon fill="midnightblue" stroke="midnightblue" points="117.5,-89.5706 114,-79.5707 110.5,-89.5707 117.5,-89.5706"/>
</g>
</g>
</svg>
