<?xml version="1.0" encoding="UTF-8" standalone="no"?>
<!DOCTYPE svg PUBLIC "-//W3C//DTD SVG 1.1//EN"
 "http://www.w3.org/Graphics/SVG/1.1/DTD/svg11.dtd">
<!-- Generated by graphviz version 2.26.3 (20100126.1600)
 -->
<!-- Title: src/expconfig/setups/Setup.h Pages: 1 -->
<svg width="2120pt" height="200pt"
 viewBox="0.00 0.00 2120.00 200.00" xmlns="http://www.w3.org/2000/svg" xmlns:xlink="http://www.w3.org/1999/xlink">
<g id="graph1" class="graph" transform="scale(1 1) rotate(0) translate(4 196)">
<title>src/expconfig/setups/Setup.h</title>
<polygon fill="white" stroke="white" points="-4,5 -4,-196 2117,-196 2117,5 -4,5"/>
<!-- Node61 -->
<g id="node1" class="node"><title>Node61</title>
<polygon fill="#bfbfbf" stroke="black" points="1042.5,-157 1042.5,-191 1149.5,-191 1149.5,-157 1042.5,-157"/>
<text text-anchor="start" x="1050.5" y="-178" font-family="Helvetica,sans-Serif" font-size="10.00">src/expconfig/setups</text>
<text text-anchor="middle" x="1096" y="-165" font-family="Helvetica,sans-Serif" font-size="10.00">/Setup.h</text>
</g>
<!-- Node62 -->
<g id="node3" class="node"><title>Node62</title>
<a xlink:href="_ant-fake_raw_8cc.html" target="_top" xlink:title="progs/Ant&#45;fakeRaw.cc">
<polygon fill="white" stroke="black" points="0,-85.5 0,-106.5 114,-106.5 114,-85.5 0,-85.5"/>
<text text-anchor="middle" x="57" y="-93.5" font-family="Helvetica,sans-Serif" font-size="10.00">progs/Ant&#45;fakeRaw.cc</text>
</a>
</g>
<!-- Node61&#45;&gt;Node62 -->
<g id="edge2" class="edge"><title>Node61&#45;&gt;Node62</title>
<path fill="none" stroke="midnightblue" d="M1031.96,-172.89C844.25,-169.25 297.661,-155.789 123,-120 108.547,-117.039 93.0124,-111.515 80.647,-106.513"/>
<polygon fill="midnightblue" stroke="midnightblue" points="1032.15,-176.394 1042.21,-173.086 1032.28,-169.396 1032.15,-176.394"/>
</g>
<!-- Node63 -->
<g id="node5" class="node"><title>Node63</title>
<a xlink:href="_ant-info_8cc.html" target="_top" xlink:title="progs/Ant&#45;info.cc">
<polygon fill="white" stroke="black" points="131.5,-85.5 131.5,-106.5 222.5,-106.5 222.5,-85.5 131.5,-85.5"/>
<text text-anchor="middle" x="177" y="-93.5" font-family="Helvetica,sans-Serif" font-size="10.00">progs/Ant&#45;info.cc</text>
</a>
</g>
<!-- Node61&#45;&gt;Node63 -->
<g id="edge4" class="edge"><title>Node61&#45;&gt;Node63</title>
<path fill="none" stroke="midnightblue" d="M1032.21,-172.944C859.035,-169.614 382.989,-157.24 231,-120 219.043,-117.07 206.43,-111.614 196.404,-106.643"/>
<polygon fill="midnightblue" stroke="midnightblue" points="1032.37,-176.448 1042.43,-173.137 1032.5,-169.449 1032.37,-176.448"/>
</g>
<!-- Node64 -->
<g id="node7" class="node"><title>Node64</title>
<a xlink:href="_ant-make_tagg_eff_8cc.html" target="_top" xlink:title="progs/Ant&#45;makeTaggEff.cc">
<polygon fill="white" stroke="black" points="240,-85.5 240,-106.5 374,-106.5 374,-85.5 240,-85.5"/>
<text text-anchor="middle" x="307" y="-93.5" font-family="Helvetica,sans-Serif" font-size="10.00">progs/Ant&#45;makeTaggEff.cc</text>
</a>
</g>
<!-- Node61&#45;&gt;Node64 -->
<g id="edge6" class="edge"><title>Node61&#45;&gt;Node64</title>
<path fill="none" stroke="midnightblue" d="M1032.25,-171.056C881.513,-163.79 506.544,-143.854 383,-120 366.833,-116.878 349.274,-111.473 335.111,-106.582"/>
<polygon fill="midnightblue" stroke="midnightblue" points="1032.12,-174.554 1042.28,-171.537 1032.46,-167.562 1032.12,-174.554"/>
</g>
<!-- Node65 -->
<g id="node9" class="node"><title>Node65</title>
<a xlink:href="_ant-rawdump_8cc.html" target="_top" xlink:title="progs/Ant&#45;rawdump.cc">
<polygon fill="white" stroke="black" points="391.5,-85.5 391.5,-106.5 506.5,-106.5 506.5,-85.5 391.5,-85.5"/>
<text text-anchor="middle" x="449" y="-93.5" font-family="Helvetica,sans-Serif" font-size="10.00">progs/Ant&#45;rawdump.cc</text>
</a>
</g>
<!-- Node61&#45;&gt;Node65 -->
<g id="edge8" class="edge"><title>Node61&#45;&gt;Node65</title>
<path fill="none" stroke="midnightblue" d="M1032.03,-170.127C902.249,-161.931 612.081,-141.783 515,-120 500.843,-116.823 485.586,-111.414 473.311,-106.534"/>
<polygon fill="midnightblue" stroke="midnightblue" points="1032.02,-173.633 1042.22,-170.767 1032.46,-166.647 1032.02,-173.633"/>
</g>
<!-- Node66 -->
<g id="node11" class="node"><title>Node66</title>
<a xlink:href="_proton_vertex_test_8cc.html" target="_top" xlink:title="src/analysis/physics\l/scratch/wolfes/ProtonVertex\lTest.cc">
<polygon fill="white" stroke="black" points="523.5,-72.5 523.5,-119.5 666.5,-119.5 666.5,-72.5 523.5,-72.5"/>
<text text-anchor="start" x="531.5" y="-106.5" font-family="Helvetica,sans-Serif" font-size="10.00">src/analysis/physics</text>
<text text-anchor="start" x="531.5" y="-93.5" font-family="Helvetica,sans-Serif" font-size="10.00">/scratch/wolfes/ProtonVertex</text>
<text text-anchor="middle" x="595" y="-80.5" font-family="Helvetica,sans-Serif" font-size="10.00">Test.cc</text>
</a>
</g>
<!-- Node61&#45;&gt;Node66 -->
<g id="edge10" class="edge"><title>Node61&#45;&gt;Node66</title>
<path fill="none" stroke="midnightblue" d="M1032.34,-169.106C949.411,-161.987 800.237,-146.63 675,-120 672.305,-119.427 669.57,-118.807 666.814,-118.15"/>
<polygon fill="midnightblue" stroke="midnightblue" points="1032.1,-172.599 1042.36,-169.954 1032.69,-165.623 1032.1,-172.599"/>
</g>
<!-- Node67 -->
<g id="node13" class="node"><title>Node67</title>
<a xlink:href="_exp_config_8cc.html" target="_top" xlink:title="src/expconfig/ExpConfig.cc">
<polygon fill="white" stroke="black" points="683.5,-85.5 683.5,-106.5 820.5,-106.5 820.5,-85.5 683.5,-85.5"/>
<text text-anchor="middle" x="752" y="-93.5" font-family="Helvetica,sans-Serif" font-size="10.00">src/expconfig/ExpConfig.cc</text>
</a>
</g>
<!-- Node61&#45;&gt;Node67 -->
<g id="edge12" class="edge"><title>Node61&#45;&gt;Node67</title>
<path fill="none" stroke="midnightblue" d="M1032.26,-163.011C977.908,-153.187 897.862,-137.646 829,-120 813.808,-116.107 797.171,-111.027 783.261,-106.543"/>
<polygon fill="midnightblue" stroke="midnightblue" points="1031.98,-166.516 1042.44,-164.838 1033.22,-159.626 1031.98,-166.516"/>
</g>
<!-- Node68 -->
<g id="node15" class="node"><title>Node68</title>
<a xlink:href="_setup_8cc.html" target="_top" xlink:title="src/expconfig/setups\l/Setup.cc">
<polygon fill="white" stroke="black" points="837.5,-79 837.5,-113 944.5,-113 944.5,-79 837.5,-79"/>
<text text-anchor="start" x="845.5" y="-100" font-family="Helvetica,sans-Serif" font-size="10.00">src/expconfig/setups</text>
<text text-anchor="middle" x="891" y="-87" font-family="Helvetica,sans-Serif" font-size="10.00">/Setup.cc</text>
</a>
</g>
<!-- Node61&#45;&gt;Node68 -->
<g id="edge14" class="edge"><title>Node61&#45;&gt;Node68</title>
<path fill="none" stroke="midnightblue" d="M1041.04,-153.366C1014.43,-143.346 982.03,-131.1 953,-120 947.178,-117.774 941.054,-115.419 935.014,-113.089"/>
<polygon fill="midnightblue" stroke="midnightblue" points="1039.97,-156.703 1050.56,-156.95 1042.43,-150.152 1039.97,-156.703"/>
</g>
<!-- Node69 -->
<g id="node17" class="node"><title>Node69</title>
<a xlink:href="_setup__2007___base_8h.html" target="_top" xlink:title="src/expconfig/setups\l/Setup_2007_Base.h">
<polygon fill="white" stroke="black" points="961.5,-79 961.5,-113 1068.5,-113 1068.5,-79 961.5,-79"/>
<text text-anchor="start" x="969.5" y="-100" font-family="Helvetica,sans-Serif" font-size="10.00">src/expconfig/setups</text>
<text text-anchor="middle" x="1015" y="-87" font-family="Helvetica,sans-Serif" font-size="10.00">/Setup_2007_Base.h</text>
</a>
</g>
<!-- Node61&#45;&gt;Node69 -->
<g id="edge16" class="edge"><title>Node61&#45;&gt;Node69</title>
<path fill="none" stroke="midnightblue" d="M1070.72,-149.659C1058.47,-137.856 1044.03,-123.957 1032.93,-113.262"/>
<polygon fill="midnightblue" stroke="midnightblue" points="1068.39,-152.274 1078.02,-156.689 1073.25,-147.232 1068.39,-152.274"/>
</g>
<!-- Node72 -->
<g id="node23" class="node"><title>Node72</title>
<a xlink:href="_setup__2007___base_8cc.html" target="_top" xlink:title="src/expconfig/setups\l/Setup_2007_Base.cc">
<polygon fill="white" stroke="black" points="958.5,-1 958.5,-35 1071.5,-35 1071.5,-1 958.5,-1"/>
<text text-anchor="start" x="966.5" y="-22" font-family="Helvetica,sans-Serif" font-size="10.00">src/expconfig/setups</text>
<text text-anchor="middle" x="1015" y="-9" font-family="Helvetica,sans-Serif" font-size="10.00">/Setup_2007_Base.cc</text>
</a>
</g>
<!-- Node61&#45;&gt;Node72 -->
<g id="edge24" class="edge"><title>Node61&#45;&gt;Node72</title>
<path fill="none" stroke="midnightblue" d="M1095.75,-146.837C1094.46,-125.267 1090.15,-95.0114 1077,-72 1068.57,-57.2523 1054.58,-44.5471 1042.02,-35.1721"/>
<polygon fill="midnightblue" stroke="midnightblue" points="1092.26,-147.104 1096.17,-156.949 1099.25,-146.812 1092.26,-147.104"/>
</g>
<!-- Node73 -->
<g id="node26" class="node"><title>Node73</title>
<a xlink:href="_setup__2012__12___compton_8cc.html" target="_top" xlink:title="src/expconfig/setups\l/Setup_2012_12_Compton.cc">
<polygon fill="white" stroke="black" points="1124,-79 1124,-113 1270,-113 1270,-79 1124,-79"/>
<text text-anchor="start" x="1132" y="-100" font-family="Helvetica,sans-Serif" font-size="10.00">src/expconfig/setups</text>
<text text-anchor="middle" x="1197" y="-87" font-family="Helvetica,sans-Serif" font-size="10.00">/Setup_2012_12_Compton.cc</text>
</a>
</g>
<!-- Node61&#45;&gt;Node73 -->
<g id="edge26" class="edge"><title>Node61&#45;&gt;Node73</title>
<path fill="none" stroke="midnightblue" d="M1126.66,-150.324C1142.12,-138.382 1160.54,-124.159 1174.65,-113.262"/>
<polygon fill="midnightblue" stroke="midnightblue" points="1124.19,-147.807 1118.42,-156.689 1128.47,-153.347 1124.19,-147.807"/>
</g>
<!-- Node74 -->
<g id="node28" class="node"><title>Node74</title>
<a xlink:href="_setup__2014___e_p_t_8h.html" target="_top" xlink:title="src/expconfig/setups\l/Setup_2014_EPT.h">
<polygon fill="white" stroke="black" points="1287.5,-79 1287.5,-113 1394.5,-113 1394.5,-79 1287.5,-79"/>
<text text-anchor="start" x="1295.5" y="-100" font-family="Helvetica,sans-Serif" font-size="10.00">src/expconfig/setups</text>
<text text-anchor="middle" x="1341" y="-87" font-family="Helvetica,sans-Serif" font-size="10.00">/Setup_2014_EPT.h</text>
</a>
</g>
<!-- Node61&#45;&gt;Node74 -->
<g id="edge28" class="edge"><title>Node61&#45;&gt;Node74</title>
<path fill="none" stroke="midnightblue" d="M1159.35,-156.698C1194.77,-146.676 1239.59,-133.417 1279,-120 1285.23,-117.88 1291.76,-115.514 1298.14,-113.117"/>
<polygon fill="midnightblue" stroke="midnightblue" points="1158.29,-153.358 1149.62,-159.436 1160.19,-160.096 1158.29,-153.358"/>
</g>
<!-- Node79 -->
<g id="node38" class="node"><title>Node79</title>
<a xlink:href="_setup__2015__01___pion_8cc.html" target="_top" xlink:title="src/expconfig/setups\l/Setup_2015_01_Pion.cc">
<polygon fill="white" stroke="black" points="1720.5,-1 1720.5,-35 1845.5,-35 1845.5,-1 1720.5,-1"/>
<text text-anchor="start" x="1728.5" y="-22" font-family="Helvetica,sans-Serif" font-size="10.00">src/expconfig/setups</text>
<text text-anchor="middle" x="1783" y="-9" font-family="Helvetica,sans-Serif" font-size="10.00">/Setup_2015_01_Pion.cc</text>
</a>
</g>
<!-- Node61&#45;&gt;Node79 -->
<g id="edge38" class="edge"><title>Node61&#45;&gt;Node79</title>
<path fill="none" stroke="midnightblue" d="M1159.87,-168.142C1237.45,-160.112 1362.91,-143.904 1403,-120 1426.37,-106.066 1417.34,-85.4397 1441,-72 1546.65,-11.9853 1592.69,-58.9682 1712,-36 1714.75,-35.4712 1717.55,-34.9003 1720.37,-34.2985"/>
<polygon fill="midnightblue" stroke="midnightblue" points="1159.32,-164.681 1149.73,-169.175 1160.03,-171.645 1159.32,-164.681"/>
</g>
<!-- Node80 -->
<g id="node40" class="node"><title>Node80</title>
<a xlink:href="_setup__2015__01___pion_8h.html" target="_top" xlink:title="src/expconfig/setups\l/Setup_2015_01_Pion.h">
<polygon fill="white" stroke="black" points="1450,-79 1450,-113 1570,-113 1570,-79 1450,-79"/>
<text text-anchor="start" x="1458" y="-100" font-family="Helvetica,sans-Serif" font-size="10.00">src/expconfig/setups</text>
<text text-anchor="middle" x="1510" y="-87" font-family="Helvetica,sans-Serif" font-size="10.00">/Setup_2015_01_Pion.h</text>
</a>
</g>
<!-- Node61&#45;&gt;Node80 -->
<g id="edge40" class="edge"><title>Node61&#45;&gt;Node80</title>
<path fill="none" stroke="midnightblue" d="M1159.75,-166.893C1228.51,-158.528 1340.92,-142.821 1436,-120 1444.14,-118.046 1452.68,-115.63 1460.95,-113.092"/>
<polygon fill="midnightblue" stroke="midnightblue" points="1159.02,-163.455 1149.51,-168.123 1159.86,-170.405 1159.02,-163.455"/>
</g>
<!-- Node81 -->
<g id="node43" class="node"><title>Node81</title>
<a xlink:href="_setup__2017__03_8h.html" target="_top" xlink:title="src/expconfig/setups\l/Setup_2017_03.h">
<polygon fill="white" stroke="black" points="1587.5,-79 1587.5,-113 1694.5,-113 1694.5,-79 1587.5,-79"/>
<text text-anchor="start" x="1595.5" y="-100" font-family="Helvetica,sans-Serif" font-size="10.00">src/expconfig/setups</text>
<text text-anchor="middle" x="1641" y="-87" font-family="Helvetica,sans-Serif" font-size="10.00">/Setup_2017_03.h</text>
</a>
</g>
<!-- Node61&#45;&gt;Node81 -->
<g id="edge44" class="edge"><title>Node61&#45;&gt;Node81</title>
<path fill="none" stroke="midnightblue" d="M1159.8,-172.091C1253.1,-168.13 1431.68,-156.103 1579,-120 1586.4,-118.187 1594.1,-115.713 1601.46,-113.04"/>
<polygon fill="midnightblue" stroke="midnightblue" points="1159.52,-168.599 1149.67,-172.503 1159.81,-175.593 1159.52,-168.599"/>
</g>
<!-- Node83 -->
<g id="node47" class="node"><title>Node83</title>
<a xlink:href="_setup___c_b_source_calib_8cc.html" target="_top" xlink:title="src/expconfig/setups\l/Setup_CBSourceCalib.cc">
<polygon fill="white" stroke="black" points="1711.5,-79 1711.5,-113 1842.5,-113 1842.5,-79 1711.5,-79"/>
<text text-anchor="start" x="1719.5" y="-100" font-family="Helvetica,sans-Serif" font-size="10.00">src/expconfig/setups</text>
<text text-anchor="middle" x="1777" y="-87" font-family="Helvetica,sans-Serif" font-size="10.00">/Setup_CBSourceCalib.cc</text>
</a>
</g>
<!-- Node61&#45;&gt;Node83 -->
<g id="edge48" class="edge"><title>Node61&#45;&gt;Node83</title>
<path fill="none" stroke="midnightblue" d="M1159.86,-170.144C1293.86,-161.754 1600.45,-140.913 1703,-120 1711.73,-118.219 1720.88,-115.761 1729.65,-113.093"/>
<polygon fill="midnightblue" stroke="midnightblue" points="1159.51,-166.659 1149.75,-170.774 1159.95,-173.645 1159.51,-166.659"/>
</g>
<!-- Node84 -->
<g id="node49" class="node"><title>Node84</title>
<a xlink:href="_setup_registry_8cc.html" target="_top" xlink:title="src/expconfig/setups\l/SetupRegistry.cc">
<polygon fill="white" stroke="black" points="1859.5,-79 1859.5,-113 1966.5,-113 1966.5,-79 1859.5,-79"/>
<text text-anchor="start" x="1867.5" y="-100" font-family="Helvetica,sans-Serif" font-size="10.00">src/expconfig/setups</text>
<text text-anchor="middle" x="1913" y="-87" font-family="Helvetica,sans-Serif" font-size="10.00">/SetupRegistry.cc</text>
</a>
</g>
<!-- Node61&#45;&gt;Node84 -->
<g id="edge50" class="edge"><title>Node61&#45;&gt;Node84</title>
<path fill="none" stroke="midnightblue" d="M1160.18,-171.863C1317.71,-166.224 1720.08,-149.326 1851,-120 1858.66,-118.284 1866.62,-115.787 1874.19,-113.044"/>
<polygon fill="midnightblue" stroke="midnightblue" points="1159.59,-168.382 1149.72,-172.234 1159.84,-175.377 1159.59,-168.382"/>
</g>
<!-- Node85 -->
<g id="node51" class="node"><title>Node85</title>
<a xlink:href="expconfig__helpers_8cc.html" target="_top" xlink:title="test/expconfig_helpers.cc">
<polygon fill="white" stroke="black" points="1984,-85.5 1984,-106.5 2112,-106.5 2112,-85.5 1984,-85.5"/>
<text text-anchor="middle" x="2048" y="-93.5" font-family="Helvetica,sans-Serif" font-size="10.00">test/expconfig_helpers.cc</text>
</a>
</g>
<!-- Node61&#45;&gt;Node85 -->
<g id="edge52" class="edge"><title>Node61&#45;&gt;Node85</title>
<path fill="none" stroke="midnightblue" d="M1159.77,-172.202C1334.54,-166.937 1818.58,-150.002 1975,-120 1990.72,-116.984 2007.75,-111.523 2021.39,-106.57"/>
<polygon fill="midnightblue" stroke="midnightblue" points="1159.59,-168.706 1149.69,-172.503 1159.79,-175.703 1159.59,-168.706"/>
</g>
<!-- Node70 -->
<g id="node19" class="node"><title>Node70</title>
<a xlink:href="_setup__2007__06_8cc.html" target="_top" xlink:title="src/expconfig/setups\l/Setup_2007_06.cc">
<polygon fill="white" stroke="black" points="710.5,-1 710.5,-35 817.5,-35 817.5,-1 710.5,-1"/>
<text text-anchor="start" x="718.5" y="-22" font-family="Helvetica,sans-Serif" font-size="10.00">src/expconfig/setups</text>
<text text-anchor="middle" x="764" y="-9" font-family="Helvetica,sans-Serif" font-size="10.00">/Setup_2007_06.cc</text>
</a>
</g>
<!-- Node69&#45;&gt;Node70 -->
<g id="edge18" class="edge"><title>Node69&#45;&gt;Node70</title>
<path fill="none" stroke="midnightblue" d="M963.001,-75.4682C959.628,-74.2616 956.274,-73.0949 953,-72 897.361,-53.3904 882.393,-52.1787 826,-36 823.307,-35.2273 820.548,-34.4338 817.762,-33.631"/>
<polygon fill="midnightblue" stroke="midnightblue" points="961.905,-78.7943 972.499,-78.9484 964.314,-72.2216 961.905,-78.7943"/>
</g>
<!-- Node71 -->
<g id="node21" class="node"><title>Node71</title>
<a xlink:href="_setup__2007__07_8cc.html" target="_top" xlink:title="src/expconfig/setups\l/Setup_2007_07.cc">
<polygon fill="white" stroke="black" points="834.5,-1 834.5,-35 941.5,-35 941.5,-1 834.5,-1"/>
<text text-anchor="start" x="842.5" y="-22" font-family="Helvetica,sans-Serif" font-size="10.00">src/expconfig/setups</text>
<text text-anchor="middle" x="888" y="-9" font-family="Helvetica,sans-Serif" font-size="10.00">/Setup_2007_07.cc</text>
</a>
</g>
<!-- Node69&#45;&gt;Node71 -->
<g id="edge20" class="edge"><title>Node69&#45;&gt;Node71</title>
<path fill="none" stroke="midnightblue" d="M978.585,-73.6346C958.611,-61.3672 934.237,-46.3975 915.806,-35.0775"/>
<polygon fill="midnightblue" stroke="midnightblue" points="976.776,-76.6315 987.129,-78.8826 980.44,-70.6666 976.776,-76.6315"/>
</g>
<!-- Node69&#45;&gt;Node72 -->
<g id="edge22" class="edge"><title>Node69&#45;&gt;Node72</title>
<path fill="none" stroke="midnightblue" d="M1015,-68.6102C1015,-57.5188 1015,-45.0489 1015,-35.2623"/>
<polygon fill="midnightblue" stroke="midnightblue" points="1011.5,-68.6892 1015,-78.6893 1018.5,-68.6893 1011.5,-68.6892"/>
</g>
<!-- Node75 -->
<g id="node30" class="node"><title>Node75</title>
<a xlink:href="_setup__2014__07___e_p_t___prod_8cc.html" target="_top" xlink:title="src/expconfig/setups\l/Setup_2014_07_EPT_Prod.cc">
<polygon fill="white" stroke="black" points="1088.5,-1 1088.5,-35 1239.5,-35 1239.5,-1 1088.5,-1"/>
<text text-anchor="start" x="1096.5" y="-22" font-family="Helvetica,sans-Serif" font-size="10.00">src/expconfig/setups</text>
<text text-anchor="middle" x="1164" y="-9" font-family="Helvetica,sans-Serif" font-size="10.00">/Setup_2014_07_EPT_Prod.cc</text>
</a>
</g>
<!-- Node74&#45;&gt;Node75 -->
<g id="edge30" class="edge"><title>Node74&#45;&gt;Node75</title>
<path fill="none" stroke="midnightblue" d="M1292.85,-74.7816C1264.55,-62.3105 1229.25,-46.7529 1202.75,-35.0775"/>
<polygon fill="midnightblue" stroke="midnightblue" points="1291.59,-78.0527 1302.16,-78.8826 1294.42,-71.6471 1291.59,-78.0527"/>
</g>
<!-- Node76 -->
<g id="node32" class="node"><title>Node76</title>
<a xlink:href="_setup__2014__10___e_p_t___prod_8cc.html" target="_top" xlink:title="src/expconfig/setups\l/Setup_2014_10_EPT_Prod.cc">
<polygon fill="white" stroke="black" points="1256.5,-1 1256.5,-35 1407.5,-35 1407.5,-1 1256.5,-1"/>
<text text-anchor="start" x="1264.5" y="-22" font-family="Helvetica,sans-Serif" font-size="10.00">src/expconfig/setups</text>
<text text-anchor="middle" x="1332" y="-9" font-family="Helvetica,sans-Serif" font-size="10.00">/Setup_2014_10_EPT_Prod.cc</text>
</a>
</g>
<!-- Node74&#45;&gt;Node76 -->
<g id="edge32" class="edge"><title>Node74&#45;&gt;Node76</title>
<path fill="none" stroke="midnightblue" d="M1337.84,-68.6102C1336.56,-57.5188 1335.12,-45.0489 1333.99,-35.2623"/>
<polygon fill="midnightblue" stroke="midnightblue" points="1334.38,-69.1564 1339,-78.6893 1341.33,-68.354 1334.38,-69.1564"/>
</g>
<!-- Node77 -->
<g id="node34" class="node"><title>Node77</title>
<a xlink:href="_setup__2014__12___e_p_t___prod_8cc.html" target="_top" xlink:title="src/expconfig/setups\l/Setup_2014_12_EPT_Prod.cc">
<polygon fill="white" stroke="black" points="1424.5,-1 1424.5,-35 1575.5,-35 1575.5,-1 1424.5,-1"/>
<text text-anchor="start" x="1432.5" y="-22" font-family="Helvetica,sans-Serif" font-size="10.00">src/expconfig/setups</text>
<text text-anchor="middle" x="1500" y="-9" font-family="Helvetica,sans-Serif" font-size="10.00">/Setup_2014_12_EPT_Prod.cc</text>
</a>
</g>
<!-- Node74&#45;&gt;Node77 -->
<g id="edge34" class="edge"><title>Node74&#45;&gt;Node77</title>
<path fill="none" stroke="midnightblue" d="M1384.92,-74.4556C1410.23,-62.0403 1441.6,-46.6513 1465.19,-35.0775"/>
<polygon fill="midnightblue" stroke="midnightblue" points="1383.33,-71.336 1375.89,-78.8826 1386.41,-77.6205 1383.33,-71.336"/>
</g>
<!-- Node78 -->
<g id="node36" class="node"><title>Node78</title>
<a xlink:href="_setup__2014___e_p_t_8cc.html" target="_top" xlink:title="src/expconfig/setups\l/Setup_2014_EPT.cc">
<polygon fill="white" stroke="black" points="1593,-1 1593,-35 1703,-35 1703,-1 1593,-1"/>
<text text-anchor="start" x="1601" y="-22" font-family="Helvetica,sans-Serif" font-size="10.00">src/expconfig/setups</text>
<text text-anchor="middle" x="1648" y="-9" font-family="Helvetica,sans-Serif" font-size="10.00">/Setup_2014_EPT.cc</text>
</a>
</g>
<!-- Node74&#45;&gt;Node78 -->
<g id="edge36" class="edge"><title>Node74&#45;&gt;Node78</title>
<path fill="none" stroke="midnightblue" d="M1395.53,-75.7482C1399.73,-74.4099 1403.92,-73.1425 1408,-72 1484.89,-50.4832 1506.41,-54.8207 1584,-36 1586.92,-35.2926 1589.9,-34.5432 1592.91,-33.7677"/>
<polygon fill="midnightblue" stroke="midnightblue" points="1394.16,-72.5127 1385.77,-78.9741 1396.36,-79.1591 1394.16,-72.5127"/>
</g>
<!-- Node80&#45;&gt;Node79 -->
<g id="edge42" class="edge"><title>Node80&#45;&gt;Node79</title>
<path fill="none" stroke="midnightblue" d="M1566.89,-75.8337C1570.97,-74.5014 1575.04,-73.21 1579,-72 1605.19,-63.9919 1670.36,-46.921 1720.05,-34.1034"/>
<polygon fill="midnightblue" stroke="midnightblue" points="1565.74,-72.5252 1557.35,-78.998 1567.95,-79.1687 1565.74,-72.5252"/>
</g>
<!-- Node82 -->
<g id="node45" class="node"><title>Node82</title>
<a xlink:href="_setup__2017__03_8cc.html" target="_top" xlink:title="src/expconfig/setups\l/Setup_2017_03.cc">
<polygon fill="white" stroke="black" points="1862.5,-1 1862.5,-35 1969.5,-35 1969.5,-1 1862.5,-1"/>
<text text-anchor="start" x="1870.5" y="-22" font-family="Helvetica,sans-Serif" font-size="10.00">src/expconfig/setups</text>
<text text-anchor="middle" x="1916" y="-9" font-family="Helvetica,sans-Serif" font-size="10.00">/Setup_2017_03.cc</text>
</a>
</g>
<!-- Node81&#45;&gt;Node82 -->
<g id="edge46" class="edge"><title>Node81&#45;&gt;Node82</title>
<path fill="none" stroke="midnightblue" d="M1692.28,-75.5373C1695.89,-74.2862 1699.49,-73.0932 1703,-72 1768.88,-51.5003 1787.3,-53.623 1854,-36 1856.71,-35.2842 1859.48,-34.5366 1862.28,-33.7702"/>
<polygon fill="midnightblue" stroke="midnightblue" points="1690.98,-72.284 1682.75,-78.9557 1693.35,-78.8728 1690.98,-72.284"/>
</g>
</g>
</svg>
