<?xml version="1.0" encoding="UTF-8" standalone="no"?>
<!DOCTYPE svg PUBLIC "-//W3C//DTD SVG 1.1//EN"
 "http://www.w3.org/Graphics/SVG/1.1/DTD/svg11.dtd">
<!-- Generated by graphviz version 2.26.3 (20100126.1600)
 -->
<!-- Title: src/expconfig/setups/SetupRegistry.h Pages: 1 -->
<svg width="2410pt" height="272pt"
 viewBox="0.00 0.00 2410.00 272.00" xmlns="http://www.w3.org/2000/svg" xmlns:xlink="http://www.w3.org/1999/xlink">
<g id="graph1" class="graph" transform="scale(1 1) rotate(0) translate(4 268)">
<title>src/expconfig/setups/SetupRegistry.h</title>
<polygon fill="white" stroke="white" points="-4,5 -4,-268 2407,-268 2407,5 -4,5"/>
<!-- Node9 -->
<g id="node1" class="node"><title>Node9</title>
<polygon fill="#bfbfbf" stroke="black" points="1816.5,-229 1816.5,-263 1923.5,-263 1923.5,-229 1816.5,-229"/>
<text text-anchor="start" x="1824.5" y="-250" font-family="Helvetica,sans-Serif" font-size="10.00">src/expconfig/setups</text>
<text text-anchor="middle" x="1870" y="-237" font-family="Helvetica,sans-Serif" font-size="10.00">/SetupRegistry.h</text>
</g>
<!-- Node10 -->
<g id="node3" class="node"><title>Node10</title>
<a xlink:href="_ant-rawdump_8cc.html" target="_top" xlink:title="progs/Ant&#45;rawdump.cc">
<polygon fill="white" stroke="black" points="289.5,-85.5 289.5,-106.5 404.5,-106.5 404.5,-85.5 289.5,-85.5"/>
<text text-anchor="middle" x="347" y="-93.5" font-family="Helvetica,sans-Serif" font-size="10.00">progs/Ant&#45;rawdump.cc</text>
</a>
</g>
<!-- Node9&#45;&gt;Node10 -->
<g id="edge2" class="edge"><title>Node9&#45;&gt;Node10</title>
<path fill="none" stroke="midnightblue" d="M1806.09,-242.709C1561.51,-229.767 685.05,-180.127 413,-120 398.833,-116.869 383.576,-111.463 371.303,-106.573"/>
<polygon fill="midnightblue" stroke="midnightblue" points="1806.07,-246.212 1816.24,-243.244 1806.43,-239.222 1806.07,-246.212"/>
</g>
<!-- Node11 -->
<g id="node5" class="node"><title>Node11</title>
<a xlink:href="_ant_8cc.html" target="_top" xlink:title="Main Ant executable. ">
<polygon fill="white" stroke="black" points="1936,-163.5 1936,-184.5 2008,-184.5 2008,-163.5 1936,-163.5"/>
<text text-anchor="middle" x="1972" y="-171.5" font-family="Helvetica,sans-Serif" font-size="10.00">progs/Ant.cc</text>
</a>
</g>
<!-- Node9&#45;&gt;Node11 -->
<g id="edge4" class="edge"><title>Node9&#45;&gt;Node11</title>
<path fill="none" stroke="midnightblue" d="M1902.76,-222.877C1920.92,-210.053 1942.65,-194.718 1956.86,-184.688"/>
<polygon fill="midnightblue" stroke="midnightblue" points="1900.32,-220.311 1894.17,-228.937 1904.36,-226.03 1900.32,-220.311"/>
</g>
<!-- Node12 -->
<g id="node7" class="node"><title>Node12</title>
<a xlink:href="_setup_8h.html" target="_top" xlink:title="src/expconfig/setups\l/Setup.h">
<polygon fill="white" stroke="black" points="1325.5,-157 1325.5,-191 1432.5,-191 1432.5,-157 1325.5,-157"/>
<text text-anchor="start" x="1333.5" y="-178" font-family="Helvetica,sans-Serif" font-size="10.00">src/expconfig/setups</text>
<text text-anchor="middle" x="1379" y="-165" font-family="Helvetica,sans-Serif" font-size="10.00">/Setup.h</text>
</a>
</g>
<!-- Node9&#45;&gt;Node12 -->
<g id="edge6" class="edge"><title>Node9&#45;&gt;Node12</title>
<path fill="none" stroke="midnightblue" d="M1806.01,-236.617C1708.33,-222.293 1523.78,-195.231 1432.67,-181.87"/>
<polygon fill="midnightblue" stroke="midnightblue" points="1805.65,-240.101 1816.05,-238.089 1806.66,-233.175 1805.65,-240.101"/>
</g>
<!-- Node34 -->
<g id="node54" class="node"><title>Node34</title>
<a xlink:href="_setup_registry_8cc.html" target="_top" xlink:title="src/expconfig/setups\l/SetupRegistry.cc">
<polygon fill="white" stroke="black" points="2149.5,-79 2149.5,-113 2256.5,-113 2256.5,-79 2149.5,-79"/>
<text text-anchor="start" x="2157.5" y="-100" font-family="Helvetica,sans-Serif" font-size="10.00">src/expconfig/setups</text>
<text text-anchor="middle" x="2203" y="-87" font-family="Helvetica,sans-Serif" font-size="10.00">/SetupRegistry.cc</text>
</a>
</g>
<!-- Node9&#45;&gt;Node34 -->
<g id="edge60" class="edge"><title>Node9&#45;&gt;Node34</title>
<path fill="none" stroke="midnightblue" d="M1869.75,-218.685C1871.12,-198.376 1876.49,-171.587 1894,-156 1935.43,-119.115 2087.35,-134.101 2141,-120 2148.14,-118.122 2155.59,-115.683 2162.74,-113.081"/>
<polygon fill="midnightblue" stroke="midnightblue" points="1866.24,-218.776 1869.35,-228.904 1873.24,-219.048 1866.24,-218.776"/>
</g>
<!-- Node35 -->
<g id="node56" class="node"><title>Node35</title>
<a xlink:href="expconfig__helpers_8cc.html" target="_top" xlink:title="test/expconfig_helpers.cc">
<polygon fill="white" stroke="black" points="2274,-85.5 2274,-106.5 2402,-106.5 2402,-85.5 2274,-85.5"/>
<text text-anchor="middle" x="2338" y="-93.5" font-family="Helvetica,sans-Serif" font-size="10.00">test/expconfig_helpers.cc</text>
</a>
</g>
<!-- Node9&#45;&gt;Node35 -->
<g id="edge62" class="edge"><title>Node9&#45;&gt;Node35</title>
<path fill="none" stroke="midnightblue" d="M1883.2,-219.932C1895.78,-196.198 1914.59,-163.715 1927,-156 1991.15,-116.122 2191.15,-135.884 2265,-120 2280.39,-116.69 2297.1,-111.332 2310.65,-106.517"/>
<polygon fill="midnightblue" stroke="midnightblue" points="1880.08,-218.358 1878.55,-228.843 1886.28,-221.597 1880.08,-218.358"/>
</g>
<!-- Node12&#45;&gt;Node10 -->
<g id="edge14" class="edge"><title>Node12&#45;&gt;Node10</title>
<path fill="none" stroke="midnightblue" d="M1315.33,-171.523C1114.26,-163.549 500.841,-138.017 413,-120 398.548,-117.036 383.013,-111.512 370.647,-106.51"/>
<polygon fill="midnightblue" stroke="midnightblue" points="1315.31,-175.025 1325.44,-171.923 1315.59,-168.03 1315.31,-175.025"/>
</g>
<!-- Node13 -->
<g id="node9" class="node"><title>Node13</title>
<a xlink:href="_ant-fake_raw_8cc.html" target="_top" xlink:title="progs/Ant&#45;fakeRaw.cc">
<polygon fill="white" stroke="black" points="994,-85.5 994,-106.5 1108,-106.5 1108,-85.5 994,-85.5"/>
<text text-anchor="middle" x="1051" y="-93.5" font-family="Helvetica,sans-Serif" font-size="10.00">progs/Ant&#45;fakeRaw.cc</text>
</a>
</g>
<!-- Node12&#45;&gt;Node13 -->
<g id="edge8" class="edge"><title>Node12&#45;&gt;Node13</title>
<path fill="none" stroke="midnightblue" d="M1315.24,-163.539C1261.8,-154.134 1183.75,-138.906 1117,-120 1103.74,-116.245 1089.33,-111.129 1077.37,-106.585"/>
<polygon fill="midnightblue" stroke="midnightblue" points="1314.81,-167.016 1325.26,-165.284 1316.01,-160.12 1314.81,-167.016"/>
</g>
<!-- Node14 -->
<g id="node11" class="node"><title>Node14</title>
<a xlink:href="_ant-info_8cc.html" target="_top" xlink:title="progs/Ant&#45;info.cc">
<polygon fill="white" stroke="black" points="1125.5,-85.5 1125.5,-106.5 1216.5,-106.5 1216.5,-85.5 1125.5,-85.5"/>
<text text-anchor="middle" x="1171" y="-93.5" font-family="Helvetica,sans-Serif" font-size="10.00">progs/Ant&#45;info.cc</text>
</a>
</g>
<!-- Node12&#45;&gt;Node14 -->
<g id="edge10" class="edge"><title>Node12&#45;&gt;Node14</title>
<path fill="none" stroke="midnightblue" d="M1317.17,-153.597C1288.88,-143.935 1255.04,-131.918 1225,-120 1214.61,-115.876 1203.27,-110.912 1193.69,-106.573"/>
<polygon fill="midnightblue" stroke="midnightblue" points="1316.33,-157.01 1326.93,-156.912 1318.59,-150.382 1316.33,-157.01"/>
</g>
<!-- Node15 -->
<g id="node13" class="node"><title>Node15</title>
<a xlink:href="_ant-make_tagg_eff_8cc.html" target="_top" xlink:title="progs/Ant&#45;makeTaggEff.cc">
<polygon fill="white" stroke="black" points="1234,-85.5 1234,-106.5 1368,-106.5 1368,-85.5 1234,-85.5"/>
<text text-anchor="middle" x="1301" y="-93.5" font-family="Helvetica,sans-Serif" font-size="10.00">progs/Ant&#45;makeTaggEff.cc</text>
</a>
</g>
<!-- Node12&#45;&gt;Node15 -->
<g id="edge12" class="edge"><title>Node12&#45;&gt;Node15</title>
<path fill="none" stroke="midnightblue" d="M1354.51,-149.515C1340.17,-135.166 1322.76,-117.76 1311.78,-106.779"/>
<polygon fill="midnightblue" stroke="midnightblue" points="1352.14,-152.093 1361.69,-156.689 1357.09,-147.143 1352.14,-152.093"/>
</g>
<!-- Node16 -->
<g id="node16" class="node"><title>Node16</title>
<a xlink:href="_proton_vertex_test_8cc.html" target="_top" xlink:title="src/analysis/physics\l/scratch/wolfes/ProtonVertex\lTest.cc">
<polygon fill="white" stroke="black" points="1385.5,-72.5 1385.5,-119.5 1528.5,-119.5 1528.5,-72.5 1385.5,-72.5"/>
<text text-anchor="start" x="1393.5" y="-106.5" font-family="Helvetica,sans-Serif" font-size="10.00">src/analysis/physics</text>
<text text-anchor="start" x="1393.5" y="-93.5" font-family="Helvetica,sans-Serif" font-size="10.00">/scratch/wolfes/ProtonVertex</text>
<text text-anchor="middle" x="1457" y="-80.5" font-family="Helvetica,sans-Serif" font-size="10.00">Test.cc</text>
</a>
</g>
<!-- Node12&#45;&gt;Node16 -->
<g id="edge16" class="edge"><title>Node12&#45;&gt;Node16</title>
<path fill="none" stroke="midnightblue" d="M1403.57,-149.429C1413.04,-139.957 1423.84,-129.164 1433.23,-119.77"/>
<polygon fill="midnightblue" stroke="midnightblue" points="1400.91,-147.143 1396.31,-156.689 1405.86,-152.093 1400.91,-147.143"/>
</g>
<!-- Node17 -->
<g id="node18" class="node"><title>Node17</title>
<a xlink:href="_exp_config_8cc.html" target="_top" xlink:title="src/expconfig/ExpConfig.cc">
<polygon fill="white" stroke="black" points="1545.5,-85.5 1545.5,-106.5 1682.5,-106.5 1682.5,-85.5 1545.5,-85.5"/>
<text text-anchor="middle" x="1614" y="-93.5" font-family="Helvetica,sans-Serif" font-size="10.00">src/expconfig/ExpConfig.cc</text>
</a>
</g>
<!-- Node12&#45;&gt;Node17 -->
<g id="edge18" class="edge"><title>Node12&#45;&gt;Node17</title>
<path fill="none" stroke="midnightblue" d="M1440.05,-153.736C1485.59,-138.62 1545.98,-118.577 1582.31,-106.52"/>
<polygon fill="midnightblue" stroke="midnightblue" points="1438.67,-150.507 1430.28,-156.979 1440.87,-157.151 1438.67,-150.507"/>
</g>
<!-- Node18 -->
<g id="node20" class="node"><title>Node18</title>
<a xlink:href="_setup_8cc.html" target="_top" xlink:title="src/expconfig/setups\l/Setup.cc">
<polygon fill="white" stroke="black" points="1699.5,-79 1699.5,-113 1806.5,-113 1806.5,-79 1699.5,-79"/>
<text text-anchor="start" x="1707.5" y="-100" font-family="Helvetica,sans-Serif" font-size="10.00">src/expconfig/setups</text>
<text text-anchor="middle" x="1753" y="-87" font-family="Helvetica,sans-Serif" font-size="10.00">/Setup.cc</text>
</a>
</g>
<!-- Node12&#45;&gt;Node18 -->
<g id="edge20" class="edge"><title>Node12&#45;&gt;Node18</title>
<path fill="none" stroke="midnightblue" d="M1442.99,-166.693C1506.64,-158.548 1606.69,-143.364 1691,-120 1698.01,-118.058 1705.32,-115.618 1712.37,-113.043"/>
<polygon fill="midnightblue" stroke="midnightblue" points="1442.19,-163.266 1432.71,-167.988 1443.07,-170.211 1442.19,-163.266"/>
</g>
<!-- Node19 -->
<g id="node22" class="node"><title>Node19</title>
<a xlink:href="_setup__2007___base_8h.html" target="_top" xlink:title="src/expconfig/setups\l/Setup_2007_Base.h">
<polygon fill="white" stroke="black" points="1823.5,-79 1823.5,-113 1930.5,-113 1930.5,-79 1823.5,-79"/>
<text text-anchor="start" x="1831.5" y="-100" font-family="Helvetica,sans-Serif" font-size="10.00">src/expconfig/setups</text>
<text text-anchor="middle" x="1877" y="-87" font-family="Helvetica,sans-Serif" font-size="10.00">/Setup_2007_Base.h</text>
</a>
</g>
<!-- Node12&#45;&gt;Node19 -->
<g id="edge22" class="edge"><title>Node12&#45;&gt;Node19</title>
<path fill="none" stroke="midnightblue" d="M1442.9,-171.009C1528.68,-165.883 1685.28,-152.61 1815,-120 1822.28,-118.171 1829.85,-115.723 1837.11,-113.089"/>
<polygon fill="midnightblue" stroke="midnightblue" points="1442.58,-167.522 1432.8,-171.594 1442.98,-174.51 1442.58,-167.522"/>
</g>
<!-- Node22 -->
<g id="node28" class="node"><title>Node22</title>
<a xlink:href="_setup__2007___base_8cc.html" target="_top" xlink:title="src/expconfig/setups\l/Setup_2007_Base.cc">
<polygon fill="white" stroke="black" points="1924.5,-1 1924.5,-35 2037.5,-35 2037.5,-1 1924.5,-1"/>
<text text-anchor="start" x="1932.5" y="-22" font-family="Helvetica,sans-Serif" font-size="10.00">src/expconfig/setups</text>
<text text-anchor="middle" x="1981" y="-9" font-family="Helvetica,sans-Serif" font-size="10.00">/Setup_2007_Base.cc</text>
</a>
</g>
<!-- Node12&#45;&gt;Node22 -->
<g id="edge30" class="edge"><title>Node12&#45;&gt;Node22</title>
<path fill="none" stroke="midnightblue" d="M1442.55,-171.533C1580.84,-165.646 1899.82,-149.057 1939,-120 1966.23,-99.807 1975.88,-58.7768 1979.25,-35.3764"/>
<polygon fill="midnightblue" stroke="midnightblue" points="1442.36,-168.038 1432.52,-171.955 1442.66,-175.032 1442.36,-168.038"/>
</g>
<!-- Node23 -->
<g id="node31" class="node"><title>Node23</title>
<a xlink:href="_setup__2012__12___compton_8cc.html" target="_top" xlink:title="src/expconfig/setups\l/Setup_2012_12_Compton.cc">
<polygon fill="white" stroke="black" points="1986,-79 1986,-113 2132,-113 2132,-79 1986,-79"/>
<text text-anchor="start" x="1994" y="-100" font-family="Helvetica,sans-Serif" font-size="10.00">src/expconfig/setups</text>
<text text-anchor="middle" x="2059" y="-87" font-family="Helvetica,sans-Serif" font-size="10.00">/Setup_2012_12_Compton.cc</text>
</a>
</g>
<!-- Node12&#45;&gt;Node23 -->
<g id="edge32" class="edge"><title>Node12&#45;&gt;Node23</title>
<path fill="none" stroke="midnightblue" d="M1442.77,-171.92C1551.95,-167.531 1781.35,-154.691 1972,-120 1982.02,-118.177 1992.56,-115.732 2002.71,-113.099"/>
<polygon fill="midnightblue" stroke="midnightblue" points="1442.44,-168.43 1432.59,-172.319 1442.72,-175.425 1442.44,-168.43"/>
</g>
<!-- Node24 -->
<g id="node33" class="node"><title>Node24</title>
<a xlink:href="_setup__2014___e_p_t_8h.html" target="_top" xlink:title="src/expconfig/setups\l/Setup_2014_EPT.h">
<polygon fill="white" stroke="black" points="421.5,-79 421.5,-113 528.5,-113 528.5,-79 421.5,-79"/>
<text text-anchor="start" x="429.5" y="-100" font-family="Helvetica,sans-Serif" font-size="10.00">src/expconfig/setups</text>
<text text-anchor="middle" x="475" y="-87" font-family="Helvetica,sans-Serif" font-size="10.00">/Setup_2014_EPT.h</text>
</a>
</g>
<!-- Node12&#45;&gt;Node24 -->
<g id="edge34" class="edge"><title>Node12&#45;&gt;Node24</title>
<path fill="none" stroke="midnightblue" d="M1315.19,-172.423C1145.38,-167.823 685.252,-152.637 537,-120 529.335,-118.313 521.367,-115.828 513.799,-113.089"/>
<polygon fill="midnightblue" stroke="midnightblue" points="1315.14,-175.922 1325.23,-172.691 1315.33,-168.925 1315.14,-175.922"/>
</g>
<!-- Node29 -->
<g id="node43" class="node"><title>Node29</title>
<a xlink:href="_setup__2015__01___pion_8cc.html" target="_top" xlink:title="src/expconfig/setups\l/Setup_2015_01_Pion.cc">
<polygon fill="white" stroke="black" points="631.5,-1 631.5,-35 756.5,-35 756.5,-1 631.5,-1"/>
<text text-anchor="start" x="639.5" y="-22" font-family="Helvetica,sans-Serif" font-size="10.00">src/expconfig/setups</text>
<text text-anchor="middle" x="694" y="-9" font-family="Helvetica,sans-Serif" font-size="10.00">/Setup_2015_01_Pion.cc</text>
</a>
</g>
<!-- Node12&#45;&gt;Node29 -->
<g id="edge44" class="edge"><title>Node12&#45;&gt;Node29</title>
<path fill="none" stroke="midnightblue" d="M1315.21,-173.16C1157.18,-170.478 757.126,-159.79 713,-120 689.322,-98.6489 689.303,-58.062 691.547,-35.0456"/>
<polygon fill="midnightblue" stroke="midnightblue" points="1315.2,-176.66 1325.26,-173.325 1315.32,-169.661 1315.2,-176.66"/>
</g>
<!-- Node30 -->
<g id="node45" class="node"><title>Node30</title>
<a xlink:href="_setup__2015__01___pion_8h.html" target="_top" xlink:title="src/expconfig/setups\l/Setup_2015_01_Pion.h">
<polygon fill="white" stroke="black" points="546,-79 546,-113 666,-113 666,-79 546,-79"/>
<text text-anchor="start" x="554" y="-100" font-family="Helvetica,sans-Serif" font-size="10.00">src/expconfig/setups</text>
<text text-anchor="middle" x="606" y="-87" font-family="Helvetica,sans-Serif" font-size="10.00">/Setup_2015_01_Pion.h</text>
</a>
</g>
<!-- Node12&#45;&gt;Node30 -->
<g id="edge46" class="edge"><title>Node12&#45;&gt;Node30</title>
<path fill="none" stroke="midnightblue" d="M1314.97,-170.994C1166.18,-163.694 800.61,-143.867 680,-120 671.123,-118.243 661.824,-115.762 652.932,-113.056"/>
<polygon fill="midnightblue" stroke="midnightblue" points="1315.14,-174.506 1325.3,-171.498 1315.49,-167.515 1315.14,-174.506"/>
</g>
<!-- Node31 -->
<g id="node48" class="node"><title>Node31</title>
<a xlink:href="_setup__2017__03_8h.html" target="_top" xlink:title="src/expconfig/setups\l/Setup_2017_03.h">
<polygon fill="white" stroke="black" points="721.5,-79 721.5,-113 828.5,-113 828.5,-79 721.5,-79"/>
<text text-anchor="start" x="729.5" y="-100" font-family="Helvetica,sans-Serif" font-size="10.00">src/expconfig/setups</text>
<text text-anchor="middle" x="775" y="-87" font-family="Helvetica,sans-Serif" font-size="10.00">/Setup_2017_03.h</text>
</a>
</g>
<!-- Node12&#45;&gt;Node31 -->
<g id="edge50" class="edge"><title>Node12&#45;&gt;Node31</title>
<path fill="none" stroke="midnightblue" d="M1315.27,-169.817C1192.26,-161.386 926.352,-141.329 837,-120 829.59,-118.231 821.88,-115.779 814.517,-113.114"/>
<polygon fill="midnightblue" stroke="midnightblue" points="1315.09,-173.313 1325.3,-170.5 1315.56,-166.329 1315.09,-173.313"/>
</g>
<!-- Node33 -->
<g id="node52" class="node"><title>Node33</title>
<a xlink:href="_setup___c_b_source_calib_8cc.html" target="_top" xlink:title="src/expconfig/setups\l/Setup_CBSourceCalib.cc">
<polygon fill="white" stroke="black" points="845.5,-79 845.5,-113 976.5,-113 976.5,-79 845.5,-79"/>
<text text-anchor="start" x="853.5" y="-100" font-family="Helvetica,sans-Serif" font-size="10.00">src/expconfig/setups</text>
<text text-anchor="middle" x="911" y="-87" font-family="Helvetica,sans-Serif" font-size="10.00">/Setup_CBSourceCalib.cc</text>
</a>
</g>
<!-- Node12&#45;&gt;Node33 -->
<g id="edge54" class="edge"><title>Node12&#45;&gt;Node33</title>
<path fill="none" stroke="midnightblue" d="M1315.04,-168.75C1236.57,-161.506 1099.81,-146.268 985,-120 976.706,-118.102 968.012,-115.685 959.618,-113.119"/>
<polygon fill="midnightblue" stroke="midnightblue" points="1314.97,-172.258 1325.24,-169.678 1315.6,-165.287 1314.97,-172.258"/>
</g>
<!-- Node12&#45;&gt;Node34 -->
<g id="edge56" class="edge"><title>Node12&#45;&gt;Node34</title>
<path fill="none" stroke="midnightblue" d="M1442.73,-171.927C1600.98,-166.389 2008.58,-149.618 2141,-120 2148.66,-118.287 2156.62,-115.79 2164.19,-113.048"/>
<polygon fill="midnightblue" stroke="midnightblue" points="1442.55,-168.432 1432.68,-172.276 1442.79,-175.427 1442.55,-168.432"/>
</g>
<!-- Node12&#45;&gt;Node35 -->
<g id="edge58" class="edge"><title>Node12&#45;&gt;Node35</title>
<path fill="none" stroke="midnightblue" d="M1442.65,-172.241C1618.29,-167.051 2107.14,-150.237 2265,-120 2280.72,-116.988 2297.75,-111.527 2311.4,-106.574"/>
<polygon fill="midnightblue" stroke="midnightblue" points="1442.43,-168.746 1432.53,-172.538 1442.63,-175.743 1442.43,-168.746"/>
</g>
<!-- Node20 -->
<g id="node24" class="node"><title>Node20</title>
<a xlink:href="_setup__2007__06_8cc.html" target="_top" xlink:title="src/expconfig/setups\l/Setup_2007_06.cc">
<polygon fill="white" stroke="black" points="1800.5,-1 1800.5,-35 1907.5,-35 1907.5,-1 1800.5,-1"/>
<text text-anchor="start" x="1808.5" y="-22" font-family="Helvetica,sans-Serif" font-size="10.00">src/expconfig/setups</text>
<text text-anchor="middle" x="1854" y="-9" font-family="Helvetica,sans-Serif" font-size="10.00">/Setup_2007_06.cc</text>
</a>
</g>
<!-- Node19&#45;&gt;Node20 -->
<g id="edge24" class="edge"><title>Node19&#45;&gt;Node20</title>
<path fill="none" stroke="midnightblue" d="M1869.02,-68.9528C1865.73,-57.7762 1862.01,-45.1498 1859.09,-35.2623"/>
<polygon fill="midnightblue" stroke="midnightblue" points="1865.71,-70.0875 1871.9,-78.6893 1872.42,-68.1076 1865.71,-70.0875"/>
</g>
<!-- Node21 -->
<g id="node26" class="node"><title>Node21</title>
<a xlink:href="_setup__2007__07_8cc.html" target="_top" xlink:title="src/expconfig/setups\l/Setup_2007_07.cc">
<polygon fill="white" stroke="black" points="1676.5,-1 1676.5,-35 1783.5,-35 1783.5,-1 1676.5,-1"/>
<text text-anchor="start" x="1684.5" y="-22" font-family="Helvetica,sans-Serif" font-size="10.00">src/expconfig/setups</text>
<text text-anchor="middle" x="1730" y="-9" font-family="Helvetica,sans-Serif" font-size="10.00">/Setup_2007_07.cc</text>
</a>
</g>
<!-- Node19&#45;&gt;Node21 -->
<g id="edge26" class="edge"><title>Node19&#45;&gt;Node21</title>
<path fill="none" stroke="midnightblue" d="M1835.78,-74.1282C1812.49,-61.7706 1783.81,-46.5498 1762.18,-35.0775"/>
<polygon fill="midnightblue" stroke="midnightblue" points="1834.27,-77.2871 1844.74,-78.8826 1837.55,-71.1036 1834.27,-77.2871"/>
</g>
<!-- Node19&#45;&gt;Node22 -->
<g id="edge28" class="edge"><title>Node19&#45;&gt;Node22</title>
<path fill="none" stroke="midnightblue" d="M1907.93,-72.8054C1924.07,-60.6977 1943.48,-46.1437 1958.23,-35.0775"/>
<polygon fill="midnightblue" stroke="midnightblue" points="1905.72,-70.0825 1899.82,-78.8826 1909.92,-75.6825 1905.72,-70.0825"/>
</g>
<!-- Node25 -->
<g id="node35" class="node"><title>Node25</title>
<a xlink:href="_setup__2014__07___e_p_t___prod_8cc.html" target="_top" xlink:title="src/expconfig/setups\l/Setup_2014_07_EPT_Prod.cc">
<polygon fill="white" stroke="black" points="-0.5,-1 -0.5,-35 150.5,-35 150.5,-1 -0.5,-1"/>
<text text-anchor="start" x="7.5" y="-22" font-family="Helvetica,sans-Serif" font-size="10.00">src/expconfig/setups</text>
<text text-anchor="middle" x="75" y="-9" font-family="Helvetica,sans-Serif" font-size="10.00">/Setup_2014_07_EPT_Prod.cc</text>
</a>
</g>
<!-- Node24&#45;&gt;Node25 -->
<g id="edge36" class="edge"><title>Node24&#45;&gt;Node25</title>
<path fill="none" stroke="midnightblue" d="M425.242,-75.6131C421.137,-74.2765 417.021,-73.0484 413,-72 302.672,-43.2326 271.257,-55.9573 159,-36 156.21,-35.504 153.371,-34.9825 150.507,-34.4419"/>
<polygon fill="midnightblue" stroke="midnightblue" points="424.155,-78.9406 434.75,-78.8952 426.439,-72.3237 424.155,-78.9406"/>
</g>
<!-- Node26 -->
<g id="node37" class="node"><title>Node26</title>
<a xlink:href="_setup__2014__10___e_p_t___prod_8cc.html" target="_top" xlink:title="src/expconfig/setups\l/Setup_2014_10_EPT_Prod.cc">
<polygon fill="white" stroke="black" points="167.5,-1 167.5,-35 318.5,-35 318.5,-1 167.5,-1"/>
<text text-anchor="start" x="175.5" y="-22" font-family="Helvetica,sans-Serif" font-size="10.00">src/expconfig/setups</text>
<text text-anchor="middle" x="243" y="-9" font-family="Helvetica,sans-Serif" font-size="10.00">/Setup_2014_10_EPT_Prod.cc</text>
</a>
</g>
<!-- Node24&#45;&gt;Node26 -->
<g id="edge38" class="edge"><title>Node24&#45;&gt;Node26</title>
<path fill="none" stroke="midnightblue" d="M422.486,-75.4138C419.283,-74.2387 416.103,-73.0922 413,-72 375.465,-58.7878 332.779,-45.2337 299.57,-35.0099"/>
<polygon fill="midnightblue" stroke="midnightblue" points="421.51,-78.7852 432.102,-78.9995 423.955,-72.2263 421.51,-78.7852"/>
</g>
<!-- Node27 -->
<g id="node39" class="node"><title>Node27</title>
<a xlink:href="_setup__2014__12___e_p_t___prod_8cc.html" target="_top" xlink:title="src/expconfig/setups\l/Setup_2014_12_EPT_Prod.cc">
<polygon fill="white" stroke="black" points="335.5,-1 335.5,-35 486.5,-35 486.5,-1 335.5,-1"/>
<text text-anchor="start" x="343.5" y="-22" font-family="Helvetica,sans-Serif" font-size="10.00">src/expconfig/setups</text>
<text text-anchor="middle" x="411" y="-9" font-family="Helvetica,sans-Serif" font-size="10.00">/Setup_2014_12_EPT_Prod.cc</text>
</a>
</g>
<!-- Node24&#45;&gt;Node27 -->
<g id="edge40" class="edge"><title>Node24&#45;&gt;Node27</title>
<path fill="none" stroke="midnightblue" d="M454.201,-70.6516C444.7,-59.0718 433.691,-45.6543 425.164,-35.2623"/>
<polygon fill="midnightblue" stroke="midnightblue" points="451.747,-73.1786 460.796,-78.6893 457.159,-68.7384 451.747,-73.1786"/>
</g>
<!-- Node28 -->
<g id="node41" class="node"><title>Node28</title>
<a xlink:href="_setup__2014___e_p_t_8cc.html" target="_top" xlink:title="src/expconfig/setups\l/Setup_2014_EPT.cc">
<polygon fill="white" stroke="black" points="504,-1 504,-35 614,-35 614,-1 504,-1"/>
<text text-anchor="start" x="512" y="-22" font-family="Helvetica,sans-Serif" font-size="10.00">src/expconfig/setups</text>
<text text-anchor="middle" x="559" y="-9" font-family="Helvetica,sans-Serif" font-size="10.00">/Setup_2014_EPT.cc</text>
</a>
</g>
<!-- Node24&#45;&gt;Node28 -->
<g id="edge42" class="edge"><title>Node24&#45;&gt;Node28</title>
<path fill="none" stroke="midnightblue" d="M501.214,-71.6587C513.924,-59.8559 528.892,-45.957 540.41,-35.2623"/>
<polygon fill="midnightblue" stroke="midnightblue" points="498.589,-69.3199 493.642,-78.6893 503.352,-74.4495 498.589,-69.3199"/>
</g>
<!-- Node30&#45;&gt;Node29 -->
<g id="edge48" class="edge"><title>Node30&#45;&gt;Node29</title>
<path fill="none" stroke="midnightblue" d="M633.086,-71.9921C646.482,-60.1185 662.345,-46.0579 674.525,-35.2623"/>
<polygon fill="midnightblue" stroke="midnightblue" points="630.692,-69.4369 625.53,-78.6893 635.335,-74.6754 630.692,-69.4369"/>
</g>
<!-- Node32 -->
<g id="node50" class="node"><title>Node32</title>
<a xlink:href="_setup__2017__03_8cc.html" target="_top" xlink:title="src/expconfig/setups\l/Setup_2017_03.cc">
<polygon fill="white" stroke="black" points="773.5,-1 773.5,-35 880.5,-35 880.5,-1 773.5,-1"/>
<text text-anchor="start" x="781.5" y="-22" font-family="Helvetica,sans-Serif" font-size="10.00">src/expconfig/setups</text>
<text text-anchor="middle" x="827" y="-9" font-family="Helvetica,sans-Serif" font-size="10.00">/Setup_2017_03.cc</text>
</a>
</g>
<!-- Node31&#45;&gt;Node32 -->
<g id="edge52" class="edge"><title>Node31&#45;&gt;Node32</title>
<path fill="none" stroke="midnightblue" d="M792.124,-70.3138C799.792,-58.8115 808.631,-45.5534 815.492,-35.2623"/>
<polygon fill="midnightblue" stroke="midnightblue" points="789.175,-68.4273 786.54,-78.6893 795,-72.3102 789.175,-68.4273"/>
</g>
</g>
</svg>
