<?xml version="1.0" encoding="UTF-8" standalone="no"?>
<!DOCTYPE svg PUBLIC "-//W3C//DTD SVG 1.1//EN"
 "http://www.w3.org/Graphics/SVG/1.1/DTD/svg11.dtd">
<!-- Generated by graphviz version 2.26.3 (20100126.1600)
 -->
<!-- Title: src/tree/TAntHeader.h Pages: 1 -->
<svg width="2226pt" height="102pt"
 viewBox="0.00 0.00 2226.00 102.00" xmlns="http://www.w3.org/2000/svg" xmlns:xlink="http://www.w3.org/1999/xlink">
<g id="graph1" class="graph" transform="scale(1 1) rotate(0) translate(4 98)">
<title>src/tree/TAntHeader.h</title>
<polygon fill="white" stroke="white" points="-4,5 -4,-98 2223,-98 2223,5 -4,5"/>
<!-- Node18 -->
<g id="node1" class="node"><title>Node18</title>
<polygon fill="#bfbfbf" stroke="black" points="955.5,-72.5 955.5,-93.5 1068.5,-93.5 1068.5,-72.5 955.5,-72.5"/>
<text text-anchor="middle" x="1012" y="-80.5" font-family="Helvetica,sans-Serif" font-size="10.00">src/tree/TAntHeader.h</text>
</g>
<!-- Node19 -->
<g id="node3" class="node"><title>Node19</title>
<a xlink:href="_ant-alt_veto_cal_tool_8cc.html" target="_top" xlink:title="progs/Ant&#45;altVetoCalTool.cc">
<polygon fill="white" stroke="black" points="0,-7.5 0,-28.5 140,-28.5 140,-7.5 0,-7.5"/>
<text text-anchor="middle" x="70" y="-15.5" font-family="Helvetica,sans-Serif" font-size="10.00">progs/Ant&#45;altVetoCalTool.cc</text>
</a>
</g>
<!-- Node18&#45;&gt;Node19 -->
<g id="edge2" class="edge"><title>Node18&#45;&gt;Node19</title>
<path fill="none" stroke="midnightblue" d="M945.229,-80.8307C770.466,-74.9178 302.526,-57.5123 149,-36 136.323,-34.2237 122.676,-31.4358 110.351,-28.5799"/>
<polygon fill="midnightblue" stroke="midnightblue" points="945.207,-84.3318 955.319,-81.1703 945.443,-77.3358 945.207,-84.3318"/>
</g>
<!-- Node20 -->
<g id="node5" class="node"><title>Node20</title>
<a xlink:href="_ant-calib-regedit_8cc.html" target="_top" xlink:title="progs/Ant&#45;calib&#45;regedit.cc">
<polygon fill="white" stroke="black" points="158,-7.5 158,-28.5 286,-28.5 286,-7.5 158,-7.5"/>
<text text-anchor="middle" x="222" y="-15.5" font-family="Helvetica,sans-Serif" font-size="10.00">progs/Ant&#45;calib&#45;regedit.cc</text>
</a>
</g>
<!-- Node18&#45;&gt;Node20 -->
<g id="edge4" class="edge"><title>Node18&#45;&gt;Node20</title>
<path fill="none" stroke="midnightblue" d="M945.224,-80.1306C792.076,-73.3052 419.199,-55.2291 295,-36 283.261,-34.1826 270.644,-31.3828 259.256,-28.5287"/>
<polygon fill="midnightblue" stroke="midnightblue" points="945.282,-83.6365 955.427,-80.5832 945.592,-76.6434 945.282,-83.6365"/>
</g>
<!-- Node21 -->
<g id="node7" class="node"><title>Node21</title>
<a xlink:href="_ant-chain_8cc.html" target="_top" xlink:title="hadd like tool to concatenate TTrees in ROOT files using TChains. ">
<polygon fill="white" stroke="black" points="304,-7.5 304,-28.5 402,-28.5 402,-7.5 304,-7.5"/>
<text text-anchor="middle" x="353" y="-15.5" font-family="Helvetica,sans-Serif" font-size="10.00">progs/Ant&#45;chain.cc</text>
</a>
</g>
<!-- Node18&#45;&gt;Node21 -->
<g id="edge6" class="edge"><title>Node18&#45;&gt;Node21</title>
<path fill="none" stroke="midnightblue" d="M945.322,-79.6635C810.94,-72.6307 511.802,-55.3321 411,-36 401.577,-34.1929 391.525,-31.3961 382.481,-28.5415"/>
<polygon fill="midnightblue" stroke="midnightblue" points="945.314,-83.1678 955.483,-80.1921 945.678,-76.1772 945.314,-83.1678"/>
</g>
<!-- Node22 -->
<g id="node9" class="node"><title>Node22</title>
<a xlink:href="_ant-fake_raw_8cc.html" target="_top" xlink:title="progs/Ant&#45;fakeRaw.cc">
<polygon fill="white" stroke="black" points="420,-7.5 420,-28.5 534,-28.5 534,-7.5 420,-7.5"/>
<text text-anchor="middle" x="477" y="-15.5" font-family="Helvetica,sans-Serif" font-size="10.00">progs/Ant&#45;fakeRaw.cc</text>
</a>
</g>
<!-- Node18&#45;&gt;Node22 -->
<g id="edge8" class="edge"><title>Node18&#45;&gt;Node22</title>
<path fill="none" stroke="midnightblue" d="M945.038,-79.7988C853.587,-74.6309 684.785,-62.2499 543,-36 532.606,-34.0757 521.462,-31.3138 511.346,-28.5293"/>
<polygon fill="midnightblue" stroke="midnightblue" points="945.083,-83.3066 955.261,-80.3646 945.47,-76.3172 945.083,-83.3066"/>
</g>
<!-- Node23 -->
<g id="node11" class="node"><title>Node23</title>
<a xlink:href="_ant-hadd_8cc.html" target="_top" xlink:title="progs/Ant&#45;hadd.cc">
<polygon fill="white" stroke="black" points="552,-7.5 552,-28.5 648,-28.5 648,-7.5 552,-7.5"/>
<text text-anchor="middle" x="600" y="-15.5" font-family="Helvetica,sans-Serif" font-size="10.00">progs/Ant&#45;hadd.cc</text>
</a>
</g>
<!-- Node18&#45;&gt;Node23 -->
<g id="edge10" class="edge"><title>Node18&#45;&gt;Node23</title>
<path fill="none" stroke="midnightblue" d="M944.948,-77.6322C873.113,-71.0681 756.057,-58.0215 657,-36 648.085,-34.0182 638.564,-31.2719 629.907,-28.5209"/>
<polygon fill="midnightblue" stroke="midnightblue" points="944.937,-81.1453 955.21,-78.5539 945.564,-74.1733 944.937,-81.1453"/>
</g>
<!-- Node24 -->
<g id="node13" class="node"><title>Node24</title>
<a xlink:href="_ant-mc-pi0gun_8cc.html" target="_top" xlink:title="progs/Ant&#45;mc&#45;pi0gun.cc">
<polygon fill="white" stroke="black" points="666,-7.5 666,-28.5 786,-28.5 786,-7.5 666,-7.5"/>
<text text-anchor="middle" x="726" y="-15.5" font-family="Helvetica,sans-Serif" font-size="10.00">progs/Ant&#45;mc&#45;pi0gun.cc</text>
</a>
</g>
<!-- Node18&#45;&gt;Node24 -->
<g id="edge12" class="edge"><title>Node18&#45;&gt;Node24</title>
<path fill="none" stroke="midnightblue" d="M950.695,-70.437C907.148,-61.3386 847.351,-48.492 795,-36 785.366,-33.7012 775.016,-31.0814 765.336,-28.5656"/>
<polygon fill="midnightblue" stroke="midnightblue" points="950.061,-73.8799 960.565,-72.493 951.489,-67.027 950.061,-73.8799"/>
</g>
<!-- Node25 -->
<g id="node15" class="node"><title>Node25</title>
<a xlink:href="_ant-plot_8cc.html" target="_top" xlink:title="progs/Ant&#45;plot.cc">
<polygon fill="white" stroke="black" points="803.5,-7.5 803.5,-28.5 894.5,-28.5 894.5,-7.5 803.5,-7.5"/>
<text text-anchor="middle" x="849" y="-15.5" font-family="Helvetica,sans-Serif" font-size="10.00">progs/Ant&#45;plot.cc</text>
</a>
</g>
<!-- Node18&#45;&gt;Node25 -->
<g id="edge14" class="edge"><title>Node18&#45;&gt;Node25</title>
<path fill="none" stroke="midnightblue" d="M976.061,-68.6684C945.691,-56.5579 902.887,-39.4886 875.54,-28.5835"/>
<polygon fill="midnightblue" stroke="midnightblue" points="974.863,-71.9589 985.448,-72.412 977.456,-65.4568 974.863,-71.9589"/>
</g>
<!-- Node26 -->
<g id="node17" class="node"><title>Node26</title>
<a xlink:href="_ant_8cc.html" target="_top" xlink:title="Main Ant executable. ">
<polygon fill="white" stroke="black" points="912,-7.5 912,-28.5 984,-28.5 984,-7.5 912,-7.5"/>
<text text-anchor="middle" x="948" y="-15.5" font-family="Helvetica,sans-Serif" font-size="10.00">progs/Ant.cc</text>
</a>
</g>
<!-- Node18&#45;&gt;Node26 -->
<g id="edge16" class="edge"><title>Node18&#45;&gt;Node26</title>
<path fill="none" stroke="midnightblue" d="M994.375,-65.0992C982.813,-53.3566 968.09,-38.4043 958.372,-28.5337"/>
<polygon fill="midnightblue" stroke="midnightblue" points="991.922,-67.5965 1001.43,-72.2666 996.91,-62.6852 991.922,-67.5965"/>
</g>
<!-- Node27 -->
<g id="node19" class="node"><title>Node27</title>
<a xlink:href="tagg_eff_classes_8cc.html" target="_top" xlink:title="progs/detail/taggEffClasses.cc">
<polygon fill="white" stroke="black" points="1001.5,-7.5 1001.5,-28.5 1152.5,-28.5 1152.5,-7.5 1001.5,-7.5"/>
<text text-anchor="middle" x="1077" y="-15.5" font-family="Helvetica,sans-Serif" font-size="10.00">progs/detail/taggEffClasses.cc</text>
</a>
</g>
<!-- Node18&#45;&gt;Node27 -->
<g id="edge18" class="edge"><title>Node18&#45;&gt;Node27</title>
<path fill="none" stroke="midnightblue" d="M1029.9,-65.0992C1041.64,-53.3566 1056.6,-38.4043 1066.47,-28.5337"/>
<polygon fill="midnightblue" stroke="midnightblue" points="1027.33,-62.7206 1022.73,-72.2666 1032.28,-67.6704 1027.33,-62.7206"/>
</g>
<!-- Node28 -->
<g id="node21" class="node"><title>Node28</title>
<a xlink:href="_physics_manager_8cc.html" target="_top" xlink:title="src/analysis/physics\l/PhysicsManager.cc">
<polygon fill="white" stroke="black" points="1170,-1 1170,-35 1276,-35 1276,-1 1170,-1"/>
<text text-anchor="start" x="1178" y="-22" font-family="Helvetica,sans-Serif" font-size="10.00">src/analysis/physics</text>
<text text-anchor="middle" x="1223" y="-9" font-family="Helvetica,sans-Serif" font-size="10.00">/PhysicsManager.cc</text>
</a>
</g>
<!-- Node18&#45;&gt;Node28 -->
<g id="edge20" class="edge"><title>Node18&#45;&gt;Node28</title>
<path fill="none" stroke="midnightblue" d="M1056.21,-69.3814C1089.26,-59.2 1134.6,-45.2337 1169.66,-34.4318"/>
<polygon fill="midnightblue" stroke="midnightblue" points="1054.9,-66.123 1046.37,-72.412 1056.96,-72.8127 1054.9,-66.123"/>
</g>
<!-- Node29 -->
<g id="node23" class="node"><title>Node29</title>
<a xlink:href="_manager_8cc.html" target="_top" xlink:title="src/calibration/gui\l/Manager.cc">
<polygon fill="white" stroke="black" points="1293.5,-1 1293.5,-35 1386.5,-35 1386.5,-1 1293.5,-1"/>
<text text-anchor="start" x="1301.5" y="-22" font-family="Helvetica,sans-Serif" font-size="10.00">src/calibration/gui</text>
<text text-anchor="middle" x="1340" y="-9" font-family="Helvetica,sans-Serif" font-size="10.00">/Manager.cc</text>
</a>
</g>
<!-- Node18&#45;&gt;Node29 -->
<g id="edge22" class="edge"><title>Node18&#45;&gt;Node29</title>
<path fill="none" stroke="midnightblue" d="M1078.79,-74.2784C1134.41,-66.3538 1215.46,-53.2666 1285,-36 1287.73,-35.3221 1290.52,-34.5771 1293.33,-33.7878"/>
<polygon fill="midnightblue" stroke="midnightblue" points="1078.12,-70.8377 1068.7,-75.6979 1079.1,-77.7693 1078.12,-70.8377"/>
</g>
<!-- Node30 -->
<g id="node25" class="node"><title>Node30</title>
<a xlink:href="_display_clustering_8cc.html" target="_top" xlink:title="src/root&#45;addons/analysis\l_codes/DisplayClustering.cc">
<polygon fill="white" stroke="black" points="1404,-1 1404,-35 1546,-35 1546,-1 1404,-1"/>
<text text-anchor="start" x="1412" y="-22" font-family="Helvetica,sans-Serif" font-size="10.00">src/root&#45;addons/analysis</text>
<text text-anchor="middle" x="1475" y="-9" font-family="Helvetica,sans-Serif" font-size="10.00">_codes/DisplayClustering.cc</text>
</a>
</g>
<!-- Node18&#45;&gt;Node30 -->
<g id="edge24" class="edge"><title>Node18&#45;&gt;Node30</title>
<path fill="none" stroke="midnightblue" d="M1078.71,-76.8395C1155.37,-69.2929 1284.77,-55.1162 1395,-36 1397.95,-35.4892 1400.95,-34.941 1403.97,-34.3651"/>
<polygon fill="midnightblue" stroke="midnightblue" points="1078.33,-73.3605 1068.72,-77.8157 1079.01,-80.3274 1078.33,-73.3605"/>
</g>
<!-- Node31 -->
<g id="node27" class="node"><title>Node31</title>
<a xlink:href="_time_dependent_calibration_8cc.html" target="_top" xlink:title="src/root&#45;addons/analysis\l_codes/TimeDependentCalibration.cc">
<polygon fill="white" stroke="black" points="1564,-1 1564,-35 1744,-35 1744,-1 1564,-1"/>
<text text-anchor="start" x="1572" y="-22" font-family="Helvetica,sans-Serif" font-size="10.00">src/root&#45;addons/analysis</text>
<text text-anchor="middle" x="1654" y="-9" font-family="Helvetica,sans-Serif" font-size="10.00">_codes/TimeDependentCalibration.cc</text>
</a>
</g>
<!-- Node18&#45;&gt;Node31 -->
<g id="edge26" class="edge"><title>Node18&#45;&gt;Node31</title>
<path fill="none" stroke="midnightblue" d="M1079.1,-79.2176C1181.87,-72.9675 1384.31,-58.8536 1555,-36 1557.94,-35.6059 1560.93,-35.1848 1563.95,-34.7419"/>
<polygon fill="midnightblue" stroke="midnightblue" points="1078.64,-75.7388 1068.87,-79.8337 1079.06,-82.7261 1078.64,-75.7388"/>
</g>
<!-- Node32 -->
<g id="node29" class="node"><title>Node32</title>
<a xlink:href="_t_ant_header_8cc.html" target="_top" xlink:title="src/tree/TAntHeader.cc">
<polygon fill="white" stroke="black" points="1761.5,-7.5 1761.5,-28.5 1880.5,-28.5 1880.5,-7.5 1761.5,-7.5"/>
<text text-anchor="middle" x="1821" y="-15.5" font-family="Helvetica,sans-Serif" font-size="10.00">src/tree/TAntHeader.cc</text>
</a>
</g>
<!-- Node18&#45;&gt;Node32 -->
<g id="edge28" class="edge"><title>Node18&#45;&gt;Node32</title>
<path fill="none" stroke="midnightblue" d="M1079.03,-80.4282C1236.08,-74.1307 1624.27,-56.9142 1753,-36 1763.97,-34.2179 1775.73,-31.4283 1786.34,-28.5727"/>
<polygon fill="midnightblue" stroke="midnightblue" points="1078.43,-76.9493 1068.58,-80.8449 1078.71,-83.9437 1078.43,-76.9493"/>
</g>
<!-- Node33 -->
<g id="node31" class="node"><title>Node33</title>
<a xlink:href="_test_physics_manager_8cc.html" target="_top" xlink:title="test/analysis/TestPhysics\lManager.cc">
<polygon fill="white" stroke="black" points="1898,-1 1898,-35 2028,-35 2028,-1 1898,-1"/>
<text text-anchor="start" x="1906" y="-22" font-family="Helvetica,sans-Serif" font-size="10.00">test/analysis/TestPhysics</text>
<text text-anchor="middle" x="1963" y="-9" font-family="Helvetica,sans-Serif" font-size="10.00">Manager.cc</text>
</a>
</g>
<!-- Node18&#45;&gt;Node33 -->
<g id="edge30" class="edge"><title>Node18&#45;&gt;Node33</title>
<path fill="none" stroke="midnightblue" d="M1078.93,-81.0182C1255.82,-75.5233 1732.87,-58.9707 1889,-36 1891.88,-35.5766 1894.81,-35.093 1897.76,-34.5628"/>
<polygon fill="midnightblue" stroke="midnightblue" points="1078.6,-77.5264 1068.72,-81.3334 1078.82,-84.5231 1078.6,-77.5264"/>
</g>
<!-- Node34 -->
<g id="node33" class="node"><title>Node34</title>
<a xlink:href="_test_g_u_i_manager_8cc.html" target="_top" xlink:title="test/calibration/TestGUIManager.cc">
<polygon fill="white" stroke="black" points="2046,-7.5 2046,-28.5 2218,-28.5 2218,-7.5 2046,-7.5"/>
<text text-anchor="middle" x="2132" y="-15.5" font-family="Helvetica,sans-Serif" font-size="10.00">test/calibration/TestGUIManager.cc</text>
</a>
</g>
<!-- Node18&#45;&gt;Node34 -->
<g id="edge32" class="edge"><title>Node18&#45;&gt;Node34</title>
<path fill="none" stroke="midnightblue" d="M1078.99,-81.1677C1275.86,-75.5863 1850.47,-57.8368 2037,-36 2052.17,-34.2238 2068.56,-31.436 2083.39,-28.5801"/>
<polygon fill="midnightblue" stroke="midnightblue" points="1078.69,-77.6748 1068.79,-81.4556 1078.88,-84.672 1078.69,-77.6748"/>
</g>
</g>
</svg>
