<?xml version="1.0" encoding="UTF-8" standalone="no"?>
<!DOCTYPE svg PUBLIC "-//W3C//DTD SVG 1.1//EN"
 "http://www.w3.org/Graphics/SVG/1.1/DTD/svg11.dtd">
<!-- Generated by graphviz version 2.26.3 (20100126.1600)
 -->
<!-- Title: src/base/TH_ext.h Pages: 1 -->
<svg width="1264pt" height="114pt"
 viewBox="0.00 0.00 1264.00 114.00" xmlns="http://www.w3.org/2000/svg" xmlns:xlink="http://www.w3.org/1999/xlink">
<g id="graph1" class="graph" transform="scale(1 1) rotate(0) translate(4 110)">
<title>src/base/TH_ext.h</title>
<polygon fill="white" stroke="white" points="-4,5 -4,-110 1261,-110 1261,5 -4,5"/>
<!-- Node18 -->
<g id="node1" class="node"><title>Node18</title>
<polygon fill="#bfbfbf" stroke="black" points="591,-84.5 591,-105.5 689,-105.5 689,-84.5 591,-84.5"/>
<text text-anchor="middle" x="640" y="-92.5" font-family="Helvetica,sans-Serif" font-size="10.00">src/base/TH_ext.h</text>
</g>
<!-- Node19 -->
<g id="node3" class="node"><title>Node19</title>
<a xlink:href="_ant-_e_corr_8cc.html" target="_top" xlink:title="progs/Ant&#45;ECorr.cc">
<polygon fill="white" stroke="black" points="-0.5,-13.5 -0.5,-34.5 100.5,-34.5 100.5,-13.5 -0.5,-13.5"/>
<text text-anchor="middle" x="50" y="-21.5" font-family="Helvetica,sans-Serif" font-size="10.00">progs/Ant&#45;ECorr.cc</text>
</a>
</g>
<!-- Node18&#45;&gt;Node19 -->
<g id="edge2" class="edge"><title>Node18&#45;&gt;Node19</title>
<path fill="none" stroke="midnightblue" d="M580.761,-91.9822C461.683,-85.5512 197.171,-69.3258 109,-48 96.2097,-44.9064 82.5617,-39.503 71.6171,-34.6056"/>
<polygon fill="midnightblue" stroke="midnightblue" points="580.621,-95.4796 590.794,-92.5194 580.995,-88.4896 580.621,-95.4796"/>
</g>
<!-- Node20 -->
<g id="node5" class="node"><title>Node20</title>
<a xlink:href="_ant-make_sigmas_8cc.html" target="_top" xlink:title="progs/Ant&#45;makeSigmas.cc">
<polygon fill="white" stroke="black" points="118,-13.5 118,-34.5 250,-34.5 250,-13.5 118,-13.5"/>
<text text-anchor="middle" x="184" y="-21.5" font-family="Helvetica,sans-Serif" font-size="10.00">progs/Ant&#45;makeSigmas.cc</text>
</a>
</g>
<!-- Node18&#45;&gt;Node20 -->
<g id="edge4" class="edge"><title>Node18&#45;&gt;Node20</title>
<path fill="none" stroke="midnightblue" d="M580.537,-91.1226C505.074,-85.4141 371.219,-72.6494 259,-48 243.377,-44.5683 226.369,-39.2604 212.504,-34.508"/>
<polygon fill="midnightblue" stroke="midnightblue" points="580.558,-94.6336 590.789,-91.8817 581.075,-87.6527 580.558,-94.6336"/>
</g>
<!-- Node21 -->
<g id="node7" class="node"><title>Node21</title>
<a xlink:href="_ant-mcsmearing_8cc.html" target="_top" xlink:title="progs/Ant&#45;mcsmearing.cc">
<polygon fill="white" stroke="black" points="268,-13.5 268,-34.5 396,-34.5 396,-13.5 268,-13.5"/>
<text text-anchor="middle" x="332" y="-21.5" font-family="Helvetica,sans-Serif" font-size="10.00">progs/Ant&#45;mcsmearing.cc</text>
</a>
</g>
<!-- Node18&#45;&gt;Node21 -->
<g id="edge6" class="edge"><title>Node18&#45;&gt;Node21</title>
<path fill="none" stroke="midnightblue" d="M580.677,-85.1726C532.89,-76.769 464.161,-63.5809 405,-48 390.422,-44.1606 374.49,-39.0346 361.24,-34.5058"/>
<polygon fill="midnightblue" stroke="midnightblue" points="580.093,-88.6235 590.545,-86.8924 581.295,-81.7275 580.093,-88.6235"/>
</g>
<!-- Node22 -->
<g id="node9" class="node"><title>Node22</title>
<a xlink:href="analysis_2physics_2calibration_2_c_b___time_walk_8cc.html" target="_top" xlink:title="src/analysis/physics\l/calibration/CB_TimeWalk.cc">
<polygon fill="white" stroke="black" points="414,-7 414,-41 558,-41 558,-7 414,-7"/>
<text text-anchor="start" x="422" y="-28" font-family="Helvetica,sans-Serif" font-size="10.00">src/analysis/physics</text>
<text text-anchor="middle" x="486" y="-15" font-family="Helvetica,sans-Serif" font-size="10.00">/calibration/CB_TimeWalk.cc</text>
</a>
</g>
<!-- Node18&#45;&gt;Node22 -->
<g id="edge8" class="edge"><title>Node18&#45;&gt;Node22</title>
<path fill="none" stroke="midnightblue" d="M607.634,-80.0782C582.906,-68.6775 548.798,-52.9521 522.991,-41.0543"/>
<polygon fill="midnightblue" stroke="midnightblue" points="606.398,-83.3621 616.945,-84.3706 609.329,-77.0052 606.398,-83.3621"/>
</g>
<!-- Node23 -->
<g id="node11" class="node"><title>Node23</title>
<a xlink:href="_thresholds_8cc.html" target="_top" xlink:title="src/analysis/physics\l/calibration/Thresholds.cc">
<polygon fill="white" stroke="black" points="576,-7 576,-41 704,-41 704,-7 576,-7"/>
<text text-anchor="start" x="584" y="-28" font-family="Helvetica,sans-Serif" font-size="10.00">src/analysis/physics</text>
<text text-anchor="middle" x="640" y="-15" font-family="Helvetica,sans-Serif" font-size="10.00">/calibration/Thresholds.cc</text>
</a>
</g>
<!-- Node18&#45;&gt;Node23 -->
<g id="edge10" class="edge"><title>Node18&#45;&gt;Node23</title>
<path fill="none" stroke="midnightblue" d="M640,-73.9138C640,-63.499 640,-51.0904 640,-41.2508"/>
<polygon fill="midnightblue" stroke="midnightblue" points="636.5,-74.2166 640,-84.2166 643.5,-74.2167 636.5,-74.2166"/>
</g>
<!-- Node24 -->
<g id="node13" class="node"><title>Node24</title>
<a xlink:href="_t_h__ext_8cc.html" target="_top" xlink:title="src/base/TH_ext.cc">
<polygon fill="white" stroke="black" points="721.5,-13.5 721.5,-34.5 824.5,-34.5 824.5,-13.5 721.5,-13.5"/>
<text text-anchor="middle" x="773" y="-21.5" font-family="Helvetica,sans-Serif" font-size="10.00">src/base/TH_ext.cc</text>
</a>
</g>
<!-- Node18&#45;&gt;Node24 -->
<g id="edge12" class="edge"><title>Node18&#45;&gt;Node24</title>
<path fill="none" stroke="midnightblue" d="M669.065,-79.4844C694.461,-65.9266 730.663,-46.6011 752.952,-34.7021"/>
<polygon fill="midnightblue" stroke="midnightblue" points="667.085,-76.5736 659.911,-84.3706 670.381,-82.7488 667.085,-76.5736"/>
</g>
<!-- Node25 -->
<g id="node15" class="node"><title>Node25</title>
<a xlink:href="calibration_2modules_2_c_b___time_walk_8cc.html" target="_top" xlink:title="src/calibration/modules\l/CB_TimeWalk.cc">
<polygon fill="white" stroke="black" points="841.5,-7 841.5,-41 958.5,-41 958.5,-7 841.5,-7"/>
<text text-anchor="start" x="849.5" y="-28" font-family="Helvetica,sans-Serif" font-size="10.00">src/calibration/modules</text>
<text text-anchor="middle" x="900" y="-15" font-family="Helvetica,sans-Serif" font-size="10.00">/CB_TimeWalk.cc</text>
</a>
</g>
<!-- Node18&#45;&gt;Node25 -->
<g id="edge14" class="edge"><title>Node18&#45;&gt;Node25</title>
<path fill="none" stroke="midnightblue" d="M699.148,-82.2908C737.566,-73.6204 788.578,-61.325 833,-48 839.982,-45.9055 847.305,-43.5017 854.441,-41.0423"/>
<polygon fill="midnightblue" stroke="midnightblue" points="698.157,-78.9259 689.164,-84.5265 699.687,-85.7567 698.157,-78.9259"/>
</g>
<!-- Node26 -->
<g id="node17" class="node"><title>Node26</title>
<a xlink:href="_energy___g_u_i_8cc.html" target="_top" xlink:title="src/calibration/modules\l/Energy_GUI.cc">
<polygon fill="white" stroke="black" points="975.5,-7 975.5,-41 1092.5,-41 1092.5,-7 975.5,-7"/>
<text text-anchor="start" x="983.5" y="-28" font-family="Helvetica,sans-Serif" font-size="10.00">src/calibration/modules</text>
<text text-anchor="middle" x="1034" y="-15" font-family="Helvetica,sans-Serif" font-size="10.00">/Energy_GUI.cc</text>
</a>
</g>
<!-- Node18&#45;&gt;Node26 -->
<g id="edge16" class="edge"><title>Node18&#45;&gt;Node26</title>
<path fill="none" stroke="midnightblue" d="M699.284,-90.0959C765.329,-83.7996 874.931,-70.8592 967,-48 974.675,-46.0945 982.699,-43.6418 990.42,-41.0345"/>
<polygon fill="midnightblue" stroke="midnightblue" points="698.699,-86.6352 689.067,-91.0499 699.35,-93.6049 698.699,-86.6352"/>
</g>
<!-- Node27 -->
<g id="node19" class="node"><title>Node27</title>
<a xlink:href="_two_pi0___m_c_smearing__tools_8cc.html" target="_top" xlink:title="src/root&#45;addons/analysis\l_codes/TwoPi0_MCSmearing\l_tools.cc">
<polygon fill="white" stroke="black" points="1110,-0.5 1110,-47.5 1256,-47.5 1256,-0.5 1110,-0.5"/>
<text text-anchor="start" x="1118" y="-34.5" font-family="Helvetica,sans-Serif" font-size="10.00">src/root&#45;addons/analysis</text>
<text text-anchor="start" x="1118" y="-21.5" font-family="Helvetica,sans-Serif" font-size="10.00">_codes/TwoPi0_MCSmearing</text>
<text text-anchor="middle" x="1183" y="-8.5" font-family="Helvetica,sans-Serif" font-size="10.00">_tools.cc</text>
</a>
</g>
<!-- Node18&#45;&gt;Node27 -->
<g id="edge18" class="edge"><title>Node18&#45;&gt;Node27</title>
<path fill="none" stroke="midnightblue" d="M699.309,-92.4287C787.574,-87.8208 958.411,-75.8911 1101,-48 1103.91,-47.4305 1106.87,-46.8035 1109.85,-46.1315"/>
<polygon fill="midnightblue" stroke="midnightblue" points="699.029,-88.9383 689.22,-92.9421 699.385,-95.9293 699.029,-88.9383"/>
</g>
</g>
</svg>
