<?xml version="1.0" encoding="UTF-8" standalone="no"?>
<!DOCTYPE svg PUBLIC "-//W3C//DTD SVG 1.1//EN"
 "http://www.w3.org/Graphics/SVG/1.1/DTD/svg11.dtd">
<!-- Generated by graphviz version 2.26.3 (20100126.1600)
 -->
<!-- Title: src/expconfig/detectors/Tagger.h Pages: 1 -->
<svg width="1744pt" height="368pt"
 viewBox="0.00 0.00 1744.00 368.00" xmlns="http://www.w3.org/2000/svg" xmlns:xlink="http://www.w3.org/1999/xlink">
<g id="graph1" class="graph" transform="scale(1 1) rotate(0) translate(4 364)">
<title>src/expconfig/detectors/Tagger.h</title>
<polygon fill="white" stroke="white" points="-4,5 -4,-364 1741,-364 1741,5 -4,5"/>
<!-- Node57 -->
<g id="node1" class="node"><title>Node57</title>
<polygon fill="#bfbfbf" stroke="black" points="1180.5,-325 1180.5,-359 1299.5,-359 1299.5,-325 1180.5,-325"/>
<text text-anchor="start" x="1188.5" y="-346" font-family="Helvetica,sans-Serif" font-size="10.00">src/expconfig/detectors</text>
<text text-anchor="middle" x="1240" y="-333" font-family="Helvetica,sans-Serif" font-size="10.00">/Tagger.h</text>
</g>
<!-- Node58 -->
<g id="node3" class="node"><title>Node58</title>
<a xlink:href="src_2analysis_2physics_2scratch_2wolfes_2tools_2tools_8h.html" target="_top" xlink:title="src/analysis/physics\l/scratch/wolfes/tools\l/tools.h">
<polygon fill="white" stroke="black" points="396.5,-240.5 396.5,-287.5 503.5,-287.5 503.5,-240.5 396.5,-240.5"/>
<text text-anchor="start" x="404.5" y="-274.5" font-family="Helvetica,sans-Serif" font-size="10.00">src/analysis/physics</text>
<text text-anchor="start" x="404.5" y="-261.5" font-family="Helvetica,sans-Serif" font-size="10.00">/scratch/wolfes/tools</text>
<text text-anchor="middle" x="450" y="-248.5" font-family="Helvetica,sans-Serif" font-size="10.00">/tools.h</text>
</a>
</g>
<!-- Node57&#45;&gt;Node58 -->
<g id="edge2" class="edge"><title>Node57&#45;&gt;Node58</title>
<path fill="none" stroke="midnightblue" d="M1169.92,-335.08C1014.28,-319.714 642.65,-283.021 503.668,-269.299"/>
<polygon fill="midnightblue" stroke="midnightblue" points="1170,-338.606 1180.3,-336.105 1170.69,-331.64 1170,-338.606"/>
</g>
<!-- Node66 -->
<g id="node21" class="node"><title>Node66</title>
<a xlink:href="_tagger___scalers_8h.html" target="_top" xlink:title="src/analysis/slowcontrol\l/processors/Tagger_Scalers.h">
<polygon fill="white" stroke="black" points="875.5,-247 875.5,-281 1022.5,-281 1022.5,-247 875.5,-247"/>
<text text-anchor="start" x="883.5" y="-268" font-family="Helvetica,sans-Serif" font-size="10.00">src/analysis/slowcontrol</text>
<text text-anchor="middle" x="949" y="-255" font-family="Helvetica,sans-Serif" font-size="10.00">/processors/Tagger_Scalers.h</text>
</a>
</g>
<!-- Node57&#45;&gt;Node66 -->
<g id="edge22" class="edge"><title>Node57&#45;&gt;Node66</title>
<path fill="none" stroke="midnightblue" d="M1170.58,-324.654C1129.83,-314.326 1077.4,-300.78 1031,-288 1022.99,-285.794 1014.56,-283.405 1006.28,-281.018"/>
<polygon fill="midnightblue" stroke="midnightblue" points="1169.86,-328.081 1180.41,-327.141 1171.57,-321.295 1169.86,-328.081"/>
</g>
<!-- Node78 -->
<g id="node46" class="node"><title>Node78</title>
<a xlink:href="_tagger__2007__1508__elements_8h.html" target="_top" xlink:title="src/expconfig/detectors\l/detail/Tagger_2007_1508\l_elements.h">
<polygon fill="white" stroke="black" points="1040,-240.5 1040,-287.5 1168,-287.5 1168,-240.5 1040,-240.5"/>
<text text-anchor="start" x="1048" y="-274.5" font-family="Helvetica,sans-Serif" font-size="10.00">src/expconfig/detectors</text>
<text text-anchor="start" x="1048" y="-261.5" font-family="Helvetica,sans-Serif" font-size="10.00">/detail/Tagger_2007_1508</text>
<text text-anchor="middle" x="1104" y="-248.5" font-family="Helvetica,sans-Serif" font-size="10.00">_elements.h</text>
</a>
</g>
<!-- Node57&#45;&gt;Node78 -->
<g id="edge48" class="edge"><title>Node57&#45;&gt;Node78</title>
<path fill="none" stroke="midnightblue" d="M1201.3,-319.804C1183.74,-309.734 1162.96,-297.817 1145.12,-287.586"/>
<polygon fill="midnightblue" stroke="midnightblue" points="1199.74,-322.944 1210.15,-324.883 1203.22,-316.871 1199.74,-322.944"/>
</g>
<!-- Node79 -->
<g id="node48" class="node"><title>Node79</title>
<a xlink:href="_tagger_8cc.html" target="_top" xlink:title="src/expconfig/detectors\l/Tagger.cc">
<polygon fill="white" stroke="black" points="1109.5,-163 1109.5,-197 1228.5,-197 1228.5,-163 1109.5,-163"/>
<text text-anchor="start" x="1117.5" y="-184" font-family="Helvetica,sans-Serif" font-size="10.00">src/expconfig/detectors</text>
<text text-anchor="middle" x="1169" y="-171" font-family="Helvetica,sans-Serif" font-size="10.00">/Tagger.cc</text>
</a>
</g>
<!-- Node57&#45;&gt;Node79 -->
<g id="edge56" class="edge"><title>Node57&#45;&gt;Node79</title>
<path fill="none" stroke="midnightblue" d="M1227.43,-315.282C1223.4,-306.605 1218.96,-296.917 1215,-288 1200.85,-256.152 1185.08,-218.664 1176.17,-197.28"/>
<polygon fill="midnightblue" stroke="midnightblue" points="1224.36,-316.969 1231.76,-324.552 1230.7,-314.01 1224.36,-316.969"/>
</g>
<!-- Node80 -->
<g id="node50" class="node"><title>Node80</title>
<a xlink:href="_tagger__2015__450__elements_8h.html" target="_top" xlink:title="src/expconfig/detectors\l/detail/Tagger_2015_450\l_elements.h">
<polygon fill="white" stroke="black" points="1223.5,-240.5 1223.5,-287.5 1346.5,-287.5 1346.5,-240.5 1223.5,-240.5"/>
<text text-anchor="start" x="1231.5" y="-274.5" font-family="Helvetica,sans-Serif" font-size="10.00">src/expconfig/detectors</text>
<text text-anchor="start" x="1231.5" y="-261.5" font-family="Helvetica,sans-Serif" font-size="10.00">/detail/Tagger_2015_450</text>
<text text-anchor="middle" x="1285" y="-248.5" font-family="Helvetica,sans-Serif" font-size="10.00">_elements.h</text>
</a>
</g>
<!-- Node57&#45;&gt;Node80 -->
<g id="edge52" class="edge"><title>Node57&#45;&gt;Node80</title>
<path fill="none" stroke="midnightblue" d="M1254.99,-316.013C1260.25,-306.892 1266.14,-296.699 1271.29,-287.77"/>
<polygon fill="midnightblue" stroke="midnightblue" points="1251.95,-314.278 1249.99,-324.689 1258.02,-317.776 1251.95,-314.278"/>
</g>
<!-- Node81 -->
<g id="node54" class="node"><title>Node81</title>
<a xlink:href="_setup__2007___base_8h.html" target="_top" xlink:title="src/expconfig/setups\l/Setup_2007_Base.h">
<polygon fill="white" stroke="black" points="1363.5,-247 1363.5,-281 1470.5,-281 1470.5,-247 1363.5,-247"/>
<text text-anchor="start" x="1371.5" y="-268" font-family="Helvetica,sans-Serif" font-size="10.00">src/expconfig/setups</text>
<text text-anchor="middle" x="1417" y="-255" font-family="Helvetica,sans-Serif" font-size="10.00">/Setup_2007_Base.h</text>
</a>
</g>
<!-- Node57&#45;&gt;Node81 -->
<g id="edge58" class="edge"><title>Node57&#45;&gt;Node81</title>
<path fill="none" stroke="midnightblue" d="M1288.15,-320.782C1316.45,-308.311 1351.75,-292.753 1378.25,-281.078"/>
<polygon fill="midnightblue" stroke="midnightblue" points="1286.58,-317.647 1278.84,-324.883 1289.41,-324.053 1286.58,-317.647"/>
</g>
<!-- Node85 -->
<g id="node62" class="node"><title>Node85</title>
<a xlink:href="_setup__2015__01___pion_8cc.html" target="_top" xlink:title="src/expconfig/setups\l/Setup_2015_01_Pion.cc">
<polygon fill="white" stroke="black" points="1487.5,-247 1487.5,-281 1612.5,-281 1612.5,-247 1487.5,-247"/>
<text text-anchor="start" x="1495.5" y="-268" font-family="Helvetica,sans-Serif" font-size="10.00">src/expconfig/setups</text>
<text text-anchor="middle" x="1550" y="-255" font-family="Helvetica,sans-Serif" font-size="10.00">/Setup_2015_01_Pion.cc</text>
</a>
</g>
<!-- Node57&#45;&gt;Node85 -->
<g id="edge66" class="edge"><title>Node57&#45;&gt;Node85</title>
<path fill="none" stroke="midnightblue" d="M1309.81,-328.222C1357.73,-318.278 1422.61,-303.855 1479,-288 1486.39,-285.922 1494.15,-283.527 1501.7,-281.072"/>
<polygon fill="midnightblue" stroke="midnightblue" points="1308.94,-324.827 1299.85,-330.274 1310.35,-331.683 1308.94,-324.827"/>
</g>
<!-- Node86 -->
<g id="node64" class="node"><title>Node86</title>
<a xlink:href="_setup__2017__03_8h.html" target="_top" xlink:title="src/expconfig/setups\l/Setup_2017_03.h">
<polygon fill="white" stroke="black" points="1629.5,-247 1629.5,-281 1736.5,-281 1736.5,-247 1629.5,-247"/>
<text text-anchor="start" x="1637.5" y="-268" font-family="Helvetica,sans-Serif" font-size="10.00">src/expconfig/setups</text>
<text text-anchor="middle" x="1683" y="-255" font-family="Helvetica,sans-Serif" font-size="10.00">/Setup_2017_03.h</text>
</a>
</g>
<!-- Node57&#45;&gt;Node86 -->
<g id="edge68" class="edge"><title>Node57&#45;&gt;Node86</title>
<path fill="none" stroke="midnightblue" d="M1309.64,-336.935C1386.76,-330.221 1514.28,-315.827 1621,-288 1628.15,-286.136 1635.6,-283.704 1642.75,-281.105"/>
<polygon fill="midnightblue" stroke="midnightblue" points="1309.24,-333.457 1299.57,-337.793 1309.83,-340.431 1309.24,-333.457"/>
</g>
<!-- Node59 -->
<g id="node5" class="node"><title>Node59</title>
<a xlink:href="single_pi0_8h.html" target="_top" xlink:title="src/analysis/physics\l/production/singlePi0.h">
<polygon fill="white" stroke="black" points="151,-163 151,-197 267,-197 267,-163 151,-163"/>
<text text-anchor="start" x="159" y="-184" font-family="Helvetica,sans-Serif" font-size="10.00">src/analysis/physics</text>
<text text-anchor="middle" x="209" y="-171" font-family="Helvetica,sans-Serif" font-size="10.00">/production/singlePi0.h</text>
</a>
</g>
<!-- Node58&#45;&gt;Node59 -->
<g id="edge4" class="edge"><title>Node58&#45;&gt;Node59</title>
<path fill="none" stroke="midnightblue" d="M386.77,-241.961C346.558,-227.946 295.258,-210.065 258.112,-197.118"/>
<polygon fill="midnightblue" stroke="midnightblue" points="385.62,-245.267 396.215,-245.253 387.924,-238.657 385.62,-245.267"/>
</g>
<!-- Node61 -->
<g id="node9" class="node"><title>Node61</title>
<a xlink:href="single_pi0_plots_8cc.html" target="_top" xlink:title="src/analysis/physics\l/production/singlePi0Plots.cc">
<polygon fill="white" stroke="black" points="137.5,-79 137.5,-113 280.5,-113 280.5,-79 137.5,-79"/>
<text text-anchor="start" x="145.5" y="-100" font-family="Helvetica,sans-Serif" font-size="10.00">src/analysis/physics</text>
<text text-anchor="middle" x="209" y="-87" font-family="Helvetica,sans-Serif" font-size="10.00">/production/singlePi0Plots.cc</text>
</a>
</g>
<!-- Node58&#45;&gt;Node61 -->
<g id="edge10" class="edge"><title>Node58&#45;&gt;Node61</title>
<path fill="none" stroke="midnightblue" d="M396.295,-235.387C379.539,-225.913 361.209,-214.974 345,-204 301.558,-174.588 254.341,-135.265 228.55,-113.091"/>
<polygon fill="midnightblue" stroke="midnightblue" points="394.982,-238.663 405.418,-240.491 398.399,-232.554 394.982,-238.663"/>
</g>
<!-- Node62 -->
<g id="node12" class="node"><title>Node62</title>
<a xlink:href="triple_pi0_8h.html" target="_top" xlink:title="src/analysis/physics\l/production/triplePi0.h">
<polygon fill="white" stroke="black" points="353.5,-163 353.5,-197 464.5,-197 464.5,-163 353.5,-163"/>
<text text-anchor="start" x="361.5" y="-184" font-family="Helvetica,sans-Serif" font-size="10.00">src/analysis/physics</text>
<text text-anchor="middle" x="409" y="-171" font-family="Helvetica,sans-Serif" font-size="10.00">/production/triplePi0.h</text>
</a>
</g>
<!-- Node58&#45;&gt;Node62 -->
<g id="edge12" class="edge"><title>Node58&#45;&gt;Node62</title>
<path fill="none" stroke="midnightblue" d="M433.964,-231.145C428.31,-219.562 422.18,-207.004 417.41,-197.23"/>
<polygon fill="midnightblue" stroke="midnightblue" points="430.829,-232.702 438.361,-240.154 437.12,-229.632 430.829,-232.702"/>
</g>
<!-- Node64 -->
<g id="node16" class="node"><title>Node64</title>
<a xlink:href="_proton_vertex_test_8cc.html" target="_top" xlink:title="src/analysis/physics\l/scratch/wolfes/ProtonVertex\lTest.cc">
<polygon fill="white" stroke="black" points="431.5,-72.5 431.5,-119.5 574.5,-119.5 574.5,-72.5 431.5,-72.5"/>
<text text-anchor="start" x="439.5" y="-106.5" font-family="Helvetica,sans-Serif" font-size="10.00">src/analysis/physics</text>
<text text-anchor="start" x="439.5" y="-93.5" font-family="Helvetica,sans-Serif" font-size="10.00">/scratch/wolfes/ProtonVertex</text>
<text text-anchor="middle" x="503" y="-80.5" font-family="Helvetica,sans-Serif" font-size="10.00">Test.cc</text>
</a>
</g>
<!-- Node58&#45;&gt;Node64 -->
<g id="edge18" class="edge"><title>Node58&#45;&gt;Node64</title>
<path fill="none" stroke="midnightblue" d="M463.363,-230.825C466.678,-222.153 470.107,-212.775 473,-204 482.445,-175.354 491.451,-141.805 497.086,-119.791"/>
<polygon fill="midnightblue" stroke="midnightblue" points="460.062,-229.657 459.703,-240.246 466.587,-232.192 460.062,-229.657"/>
</g>
<!-- Node65 -->
<g id="node19" class="node"><title>Node65</title>
<a xlink:href="tools_8cc.html" target="_top" xlink:title="src/analysis/physics\l/scratch/wolfes/tools\l/tools.cc">
<polygon fill="white" stroke="black" points="519.5,-156.5 519.5,-203.5 626.5,-203.5 626.5,-156.5 519.5,-156.5"/>
<text text-anchor="start" x="527.5" y="-190.5" font-family="Helvetica,sans-Serif" font-size="10.00">src/analysis/physics</text>
<text text-anchor="start" x="527.5" y="-177.5" font-family="Helvetica,sans-Serif" font-size="10.00">/scratch/wolfes/tools</text>
<text text-anchor="middle" x="573" y="-164.5" font-family="Helvetica,sans-Serif" font-size="10.00">/tools.cc</text>
</a>
</g>
<!-- Node58&#45;&gt;Node65 -->
<g id="edge20" class="edge"><title>Node58&#45;&gt;Node65</title>
<path fill="none" stroke="midnightblue" d="M493.082,-234.578C507.863,-224.484 524.208,-213.322 538.244,-203.736"/>
<polygon fill="midnightblue" stroke="midnightblue" points="490.874,-231.848 484.59,-240.378 494.822,-237.628 490.874,-231.848"/>
</g>
<!-- Node60 -->
<g id="node7" class="node"><title>Node60</title>
<a xlink:href="single_pi0_8cc.html" target="_top" xlink:title="src/analysis/physics\l/production/singlePi0.cc">
<polygon fill="white" stroke="black" points="-0.5,-79 -0.5,-113 120.5,-113 120.5,-79 -0.5,-79"/>
<text text-anchor="start" x="7.5" y="-100" font-family="Helvetica,sans-Serif" font-size="10.00">src/analysis/physics</text>
<text text-anchor="middle" x="60" y="-87" font-family="Helvetica,sans-Serif" font-size="10.00">/production/singlePi0.cc</text>
</a>
</g>
<!-- Node59&#45;&gt;Node60 -->
<g id="edge6" class="edge"><title>Node59&#45;&gt;Node60</title>
<path fill="none" stroke="midnightblue" d="M169.659,-157.821C144.781,-143.796 113.117,-125.945 90.2162,-113.035"/>
<polygon fill="midnightblue" stroke="midnightblue" points="168.058,-160.937 178.488,-162.799 171.496,-154.839 168.058,-160.937"/>
</g>
<!-- Node59&#45;&gt;Node61 -->
<g id="edge8" class="edge"><title>Node59&#45;&gt;Node61</title>
<path fill="none" stroke="midnightblue" d="M209,-152.33C209,-139.38 209,-124.365 209,-113.095"/>
<polygon fill="midnightblue" stroke="midnightblue" points="205.5,-152.595 209,-162.595 212.5,-152.595 205.5,-152.595"/>
</g>
<!-- Node63 -->
<g id="node14" class="node"><title>Node63</title>
<a xlink:href="triple_pi0_8cc.html" target="_top" xlink:title="src/analysis/physics\l/production/triplePi0.cc">
<polygon fill="white" stroke="black" points="298,-79 298,-113 414,-113 414,-79 298,-79"/>
<text text-anchor="start" x="306" y="-100" font-family="Helvetica,sans-Serif" font-size="10.00">src/analysis/physics</text>
<text text-anchor="middle" x="356" y="-87" font-family="Helvetica,sans-Serif" font-size="10.00">/production/triplePi0.cc</text>
</a>
</g>
<!-- Node62&#45;&gt;Node63 -->
<g id="edge14" class="edge"><title>Node62&#45;&gt;Node63</title>
<path fill="none" stroke="midnightblue" d="M392.516,-153.874C384.133,-140.588 374.182,-124.816 366.786,-113.095"/>
<polygon fill="midnightblue" stroke="midnightblue" points="389.722,-156.006 398.018,-162.595 395.642,-152.27 389.722,-156.006"/>
</g>
<!-- Node62&#45;&gt;Node64 -->
<g id="edge16" class="edge"><title>Node62&#45;&gt;Node64</title>
<path fill="none" stroke="midnightblue" d="M436.025,-155.85C448.713,-144.511 463.787,-131.041 476.419,-119.753"/>
<polygon fill="midnightblue" stroke="midnightblue" points="433.601,-153.322 428.477,-162.595 438.266,-158.542 433.601,-153.322"/>
</g>
<!-- Node67 -->
<g id="node23" class="node"><title>Node67</title>
<a xlink:href="_slow_control_processors_8h.html" target="_top" xlink:title="src/analysis/slowcontrol\l/SlowControlProcessors.h">
<polygon fill="white" stroke="black" points="919.5,-163 919.5,-197 1050.5,-197 1050.5,-163 919.5,-163"/>
<text text-anchor="start" x="927.5" y="-184" font-family="Helvetica,sans-Serif" font-size="10.00">src/analysis/slowcontrol</text>
<text text-anchor="middle" x="985" y="-171" font-family="Helvetica,sans-Serif" font-size="10.00">/SlowControlProcessors.h</text>
</a>
</g>
<!-- Node66&#45;&gt;Node67 -->
<g id="edge24" class="edge"><title>Node66&#45;&gt;Node67</title>
<path fill="none" stroke="midnightblue" d="M960.526,-237.105C966.15,-223.983 972.747,-208.591 977.674,-197.095"/>
<polygon fill="midnightblue" stroke="midnightblue" points="957.181,-236.025 956.459,-246.595 963.615,-238.782 957.181,-236.025"/>
</g>
<!-- Node68 -->
<g id="node25" class="node"><title>Node68</title>
<a xlink:href="_slow_control_manager_8h.html" target="_top" xlink:title="src/analysis/slowcontrol\l/SlowControlManager.h">
<polygon fill="white" stroke="black" points="592,-79 592,-113 714,-113 714,-79 592,-79"/>
<text text-anchor="start" x="600" y="-100" font-family="Helvetica,sans-Serif" font-size="10.00">src/analysis/slowcontrol</text>
<text text-anchor="middle" x="653" y="-87" font-family="Helvetica,sans-Serif" font-size="10.00">/SlowControlManager.h</text>
</a>
</g>
<!-- Node67&#45;&gt;Node68 -->
<g id="edge26" class="edge"><title>Node67&#45;&gt;Node68</title>
<path fill="none" stroke="midnightblue" d="M909.375,-164.021C857.964,-152.748 788.553,-136.728 728,-120 720.357,-117.889 712.327,-115.502 704.479,-113.073"/>
<polygon fill="midnightblue" stroke="midnightblue" points="908.893,-167.498 919.409,-166.211 910.385,-160.659 908.893,-167.498"/>
</g>
<!-- Node71 -->
<g id="node31" class="node"><title>Node71</title>
<a xlink:href="_test_slow_control_manager_8cc.html" target="_top" xlink:title="test/analysis/TestSlowControl\lManager.cc">
<polygon fill="white" stroke="black" points="700,-1 700,-35 848,-35 848,-1 700,-1"/>
<text text-anchor="start" x="708" y="-22" font-family="Helvetica,sans-Serif" font-size="10.00">test/analysis/TestSlowControl</text>
<text text-anchor="middle" x="774" y="-9" font-family="Helvetica,sans-Serif" font-size="10.00">Manager.cc</text>
</a>
</g>
<!-- Node67&#45;&gt;Node71 -->
<g id="edge46" class="edge"><title>Node67&#45;&gt;Node71</title>
<path fill="none" stroke="midnightblue" d="M909.121,-169.66C851.505,-160.072 779.179,-143.69 761,-120 742.09,-95.3579 754.891,-57.0922 765.032,-35.1065"/>
<polygon fill="midnightblue" stroke="midnightblue" points="908.894,-173.169 919.325,-171.314 910.014,-166.259 908.894,-173.169"/>
</g>
<!-- Node72 -->
<g id="node33" class="node"><title>Node72</title>
<a xlink:href="_slow_control_processors_8cc.html" target="_top" xlink:title="src/analysis/slowcontrol\l/SlowControlProcessors.cc">
<polygon fill="white" stroke="black" points="770,-79 770,-113 906,-113 906,-79 770,-79"/>
<text text-anchor="start" x="778" y="-100" font-family="Helvetica,sans-Serif" font-size="10.00">src/analysis/slowcontrol</text>
<text text-anchor="middle" x="838" y="-87" font-family="Helvetica,sans-Serif" font-size="10.00">/SlowControlProcessors.cc</text>
</a>
</g>
<!-- Node67&#45;&gt;Node72 -->
<g id="edge34" class="edge"><title>Node67&#45;&gt;Node72</title>
<path fill="none" stroke="midnightblue" d="M946.187,-157.821C921.643,-143.796 890.404,-125.945 867.811,-113.035"/>
<polygon fill="midnightblue" stroke="midnightblue" points="944.479,-160.876 954.898,-162.799 947.952,-154.798 944.479,-160.876"/>
</g>
<!-- Node73 -->
<g id="node35" class="node"><title>Node73</title>
<a xlink:href="_beam_8cc.html" target="_top" xlink:title="src/analysis/slowcontrol\l/variables/Beam.cc">
<polygon fill="white" stroke="black" points="924,-79 924,-113 1046,-113 1046,-79 924,-79"/>
<text text-anchor="start" x="932" y="-100" font-family="Helvetica,sans-Serif" font-size="10.00">src/analysis/slowcontrol</text>
<text text-anchor="middle" x="985" y="-87" font-family="Helvetica,sans-Serif" font-size="10.00">/variables/Beam.cc</text>
</a>
</g>
<!-- Node67&#45;&gt;Node73 -->
<g id="edge36" class="edge"><title>Node67&#45;&gt;Node73</title>
<path fill="none" stroke="midnightblue" d="M985,-152.33C985,-139.38 985,-124.365 985,-113.095"/>
<polygon fill="midnightblue" stroke="midnightblue" points="981.5,-152.595 985,-162.595 988.5,-152.595 981.5,-152.595"/>
</g>
<!-- Node74 -->
<g id="node37" class="node"><title>Node74</title>
<a xlink:href="_clocks_8cc.html" target="_top" xlink:title="src/analysis/slowcontrol\l/variables/Clocks.cc">
<polygon fill="white" stroke="black" points="1064,-79 1064,-113 1186,-113 1186,-79 1064,-79"/>
<text text-anchor="start" x="1072" y="-100" font-family="Helvetica,sans-Serif" font-size="10.00">src/analysis/slowcontrol</text>
<text text-anchor="middle" x="1125" y="-87" font-family="Helvetica,sans-Serif" font-size="10.00">/variables/Clocks.cc</text>
</a>
</g>
<!-- Node67&#45;&gt;Node74 -->
<g id="edge38" class="edge"><title>Node67&#45;&gt;Node74</title>
<path fill="none" stroke="midnightblue" d="M1022.55,-157.469C1045.75,-143.551 1075.05,-125.969 1096.37,-113.178"/>
<polygon fill="midnightblue" stroke="midnightblue" points="1020.44,-154.652 1013.67,-162.799 1024.04,-160.655 1020.44,-154.652"/>
</g>
<!-- Node75 -->
<g id="node39" class="node"><title>Node75</title>
<a xlink:href="variables_2_pair_spec_8cc.html" target="_top" xlink:title="src/analysis/slowcontrol\l/variables/Pairspec.cc">
<polygon fill="white" stroke="black" points="1204,-79 1204,-113 1326,-113 1326,-79 1204,-79"/>
<text text-anchor="start" x="1212" y="-100" font-family="Helvetica,sans-Serif" font-size="10.00">src/analysis/slowcontrol</text>
<text text-anchor="middle" x="1265" y="-87" font-family="Helvetica,sans-Serif" font-size="10.00">/variables/Pairspec.cc</text>
</a>
</g>
<!-- Node67&#45;&gt;Node75 -->
<g id="edge40" class="edge"><title>Node67&#45;&gt;Node75</title>
<path fill="none" stroke="midnightblue" d="M1057.55,-160.274C1098.13,-148.989 1149.55,-134.274 1195,-120 1201.86,-117.844 1209.07,-115.483 1216.15,-113.11"/>
<polygon fill="midnightblue" stroke="midnightblue" points="1056.44,-156.949 1047.74,-162.994 1058.31,-163.695 1056.44,-156.949"/>
</g>
<!-- Node76 -->
<g id="node41" class="node"><title>Node76</title>
<a xlink:href="_tagger_scalers_8cc.html" target="_top" xlink:title="src/analysis/slowcontrol\l/variables/TaggerScalers.cc">
<polygon fill="white" stroke="black" points="1344,-79 1344,-113 1482,-113 1482,-79 1344,-79"/>
<text text-anchor="start" x="1352" y="-100" font-family="Helvetica,sans-Serif" font-size="10.00">src/analysis/slowcontrol</text>
<text text-anchor="middle" x="1413" y="-87" font-family="Helvetica,sans-Serif" font-size="10.00">/variables/TaggerScalers.cc</text>
</a>
</g>
<!-- Node67&#45;&gt;Node76 -->
<g id="edge42" class="edge"><title>Node67&#45;&gt;Node76</title>
<path fill="none" stroke="midnightblue" d="M1060.68,-163.759C1074.09,-161.048 1087.94,-158.355 1101,-156 1204.55,-137.334 1232.44,-143.535 1335,-120 1343.56,-118.035 1352.55,-115.614 1361.26,-113.074"/>
<polygon fill="midnightblue" stroke="midnightblue" points="1059.63,-160.401 1050.53,-165.83 1061.03,-167.26 1059.63,-160.401"/>
</g>
<!-- Node77 -->
<g id="node43" class="node"><title>Node77</title>
<a xlink:href="analysis_2slowcontrol_2variables_2_trigger_8cc.html" target="_top" xlink:title="src/analysis/slowcontrol\l/variables/Trigger.cc">
<polygon fill="white" stroke="black" points="1500,-79 1500,-113 1622,-113 1622,-79 1500,-79"/>
<text text-anchor="start" x="1508" y="-100" font-family="Helvetica,sans-Serif" font-size="10.00">src/analysis/slowcontrol</text>
<text text-anchor="middle" x="1561" y="-87" font-family="Helvetica,sans-Serif" font-size="10.00">/variables/Trigger.cc</text>
</a>
</g>
<!-- Node67&#45;&gt;Node77 -->
<g id="edge44" class="edge"><title>Node67&#45;&gt;Node77</title>
<path fill="none" stroke="midnightblue" d="M1060.81,-163.044C1074.16,-160.423 1087.95,-157.946 1101,-156 1273.17,-130.326 1320.8,-156.486 1491,-120 1499.29,-118.223 1507.96,-115.767 1516.26,-113.1"/>
<polygon fill="midnightblue" stroke="midnightblue" points="1059.83,-159.671 1050.72,-165.07 1061.21,-166.534 1059.83,-159.671"/>
</g>
<!-- Node69 -->
<g id="node27" class="node"><title>Node69</title>
<a xlink:href="_physics_manager_8cc.html" target="_top" xlink:title="src/analysis/physics\l/PhysicsManager.cc">
<polygon fill="white" stroke="black" points="434,-1 434,-35 540,-35 540,-1 434,-1"/>
<text text-anchor="start" x="442" y="-22" font-family="Helvetica,sans-Serif" font-size="10.00">src/analysis/physics</text>
<text text-anchor="middle" x="487" y="-9" font-family="Helvetica,sans-Serif" font-size="10.00">/PhysicsManager.cc</text>
</a>
</g>
<!-- Node68&#45;&gt;Node69 -->
<g id="edge28" class="edge"><title>Node68&#45;&gt;Node69</title>
<path fill="none" stroke="midnightblue" d="M607.496,-74.6188C581.014,-62.1753 548.084,-46.7021 523.344,-35.0775"/>
<polygon fill="midnightblue" stroke="midnightblue" points="606.031,-77.7975 616.571,-78.8826 609.008,-71.4621 606.031,-77.7975"/>
</g>
<!-- Node70 -->
<g id="node29" class="node"><title>Node70</title>
<a xlink:href="_slow_control_manager_8cc.html" target="_top" xlink:title="src/analysis/slowcontrol\l/SlowControlManager.cc">
<polygon fill="white" stroke="black" points="558,-1 558,-35 682,-35 682,-1 558,-1"/>
<text text-anchor="start" x="566" y="-22" font-family="Helvetica,sans-Serif" font-size="10.00">src/analysis/slowcontrol</text>
<text text-anchor="middle" x="620" y="-9" font-family="Helvetica,sans-Serif" font-size="10.00">/SlowControlManager.cc</text>
</a>
</g>
<!-- Node68&#45;&gt;Node70 -->
<g id="edge30" class="edge"><title>Node68&#45;&gt;Node70</title>
<path fill="none" stroke="midnightblue" d="M641.702,-69.2945C636.938,-58.0342 631.529,-45.2507 627.303,-35.2623"/>
<polygon fill="midnightblue" stroke="midnightblue" points="638.556,-70.8434 645.676,-78.6893 645.003,-68.1158 638.556,-70.8434"/>
</g>
<!-- Node68&#45;&gt;Node71 -->
<g id="edge32" class="edge"><title>Node68&#45;&gt;Node71</title>
<path fill="none" stroke="midnightblue" d="M688.208,-73.3039C707.141,-61.0989 730.105,-46.296 747.508,-35.0775"/>
<polygon fill="midnightblue" stroke="midnightblue" points="686.063,-70.5227 679.554,-78.8826 689.855,-76.4062 686.063,-70.5227"/>
</g>
<!-- Node78&#45;&gt;Node79 -->
<g id="edge50" class="edge"><title>Node78&#45;&gt;Node79</title>
<path fill="none" stroke="midnightblue" d="M1128.63,-232.175C1137.81,-220.311 1147.88,-207.294 1155.67,-197.23"/>
<polygon fill="midnightblue" stroke="midnightblue" points="1125.8,-230.103 1122.45,-240.154 1131.34,-234.387 1125.8,-230.103"/>
</g>
<!-- Node80&#45;&gt;Node79 -->
<g id="edge54" class="edge"><title>Node80&#45;&gt;Node79</title>
<path fill="none" stroke="midnightblue" d="M1244.11,-234.391C1226.84,-221.887 1207.35,-207.773 1192.56,-197.057"/>
<polygon fill="midnightblue" stroke="midnightblue" points="1242.23,-237.347 1252.38,-240.378 1246.33,-231.678 1242.23,-237.347"/>
</g>
<!-- Node82 -->
<g id="node56" class="node"><title>Node82</title>
<a xlink:href="_setup__2007__06_8cc.html" target="_top" xlink:title="src/expconfig/setups\l/Setup_2007_06.cc">
<polygon fill="white" stroke="black" points="1245.5,-163 1245.5,-197 1352.5,-197 1352.5,-163 1245.5,-163"/>
<text text-anchor="start" x="1253.5" y="-184" font-family="Helvetica,sans-Serif" font-size="10.00">src/expconfig/setups</text>
<text text-anchor="middle" x="1299" y="-171" font-family="Helvetica,sans-Serif" font-size="10.00">/Setup_2007_06.cc</text>
</a>
</g>
<!-- Node81&#45;&gt;Node82 -->
<g id="edge60" class="edge"><title>Node81&#45;&gt;Node82</title>
<path fill="none" stroke="midnightblue" d="M1384.57,-240.913C1365.14,-227.085 1340.86,-209.8 1323.13,-197.178"/>
<polygon fill="midnightblue" stroke="midnightblue" points="1382.66,-243.851 1392.84,-246.799 1386.72,-238.148 1382.66,-243.851"/>
</g>
<!-- Node83 -->
<g id="node58" class="node"><title>Node83</title>
<a xlink:href="_setup__2007__07_8cc.html" target="_top" xlink:title="src/expconfig/setups\l/Setup_2007_07.cc">
<polygon fill="white" stroke="black" points="1369.5,-163 1369.5,-197 1476.5,-197 1476.5,-163 1369.5,-163"/>
<text text-anchor="start" x="1377.5" y="-184" font-family="Helvetica,sans-Serif" font-size="10.00">src/expconfig/setups</text>
<text text-anchor="middle" x="1423" y="-171" font-family="Helvetica,sans-Serif" font-size="10.00">/Setup_2007_07.cc</text>
</a>
</g>
<!-- Node81&#45;&gt;Node83 -->
<g id="edge62" class="edge"><title>Node81&#45;&gt;Node83</title>
<path fill="none" stroke="midnightblue" d="M1418.98,-236.33C1419.9,-223.38 1420.97,-208.365 1421.78,-197.095"/>
<polygon fill="midnightblue" stroke="midnightblue" points="1415.46,-236.371 1418.24,-246.595 1422.45,-236.87 1415.46,-236.371"/>
</g>
<!-- Node84 -->
<g id="node60" class="node"><title>Node84</title>
<a xlink:href="_setup__2007___base_8cc.html" target="_top" xlink:title="src/expconfig/setups\l/Setup_2007_Base.cc">
<polygon fill="white" stroke="black" points="1493.5,-163 1493.5,-197 1606.5,-197 1606.5,-163 1493.5,-163"/>
<text text-anchor="start" x="1501.5" y="-184" font-family="Helvetica,sans-Serif" font-size="10.00">src/expconfig/setups</text>
<text text-anchor="middle" x="1550" y="-171" font-family="Helvetica,sans-Serif" font-size="10.00">/Setup_2007_Base.cc</text>
</a>
</g>
<!-- Node81&#45;&gt;Node84 -->
<g id="edge64" class="edge"><title>Node81&#45;&gt;Node84</title>
<path fill="none" stroke="midnightblue" d="M1452.97,-241.284C1474.96,-227.395 1502.64,-209.913 1522.8,-197.178"/>
<polygon fill="midnightblue" stroke="midnightblue" points="1450.82,-238.499 1444.24,-246.799 1454.56,-244.418 1450.82,-238.499"/>
</g>
<!-- Node87 -->
<g id="node66" class="node"><title>Node87</title>
<a xlink:href="_setup__2017__03_8cc.html" target="_top" xlink:title="src/expconfig/setups\l/Setup_2017_03.cc">
<polygon fill="white" stroke="black" points="1629.5,-163 1629.5,-197 1736.5,-197 1736.5,-163 1629.5,-163"/>
<text text-anchor="start" x="1637.5" y="-184" font-family="Helvetica,sans-Serif" font-size="10.00">src/expconfig/setups</text>
<text text-anchor="middle" x="1683" y="-171" font-family="Helvetica,sans-Serif" font-size="10.00">/Setup_2017_03.cc</text>
</a>
</g>
<!-- Node86&#45;&gt;Node87 -->
<g id="edge70" class="edge"><title>Node86&#45;&gt;Node87</title>
<path fill="none" stroke="midnightblue" d="M1683,-236.33C1683,-223.38 1683,-208.365 1683,-197.095"/>
<polygon fill="midnightblue" stroke="midnightblue" points="1679.5,-236.595 1683,-246.595 1686.5,-236.595 1679.5,-236.595"/>
</g>
</g>
</svg>
