<?xml version="1.0" encoding="UTF-8" standalone="no"?>
<!DOCTYPE svg PUBLIC "-//W3C//DTD SVG 1.1//EN"
 "http://www.w3.org/Graphics/SVG/1.1/DTD/svg11.dtd">
<!-- Generated by graphviz version 2.26.3 (20100126.1600)
 -->
<!-- Title: src/analysis/utils/fitter/TreeFitter.h Pages: 1 -->
<svg width="2676pt" height="284pt"
 viewBox="0.00 0.00 2676.00 284.00" xmlns="http://www.w3.org/2000/svg" xmlns:xlink="http://www.w3.org/1999/xlink">
<g id="graph1" class="graph" transform="scale(1 1) rotate(0) translate(4 280)">
<title>src/analysis/utils/fitter/TreeFitter.h</title>
<polygon fill="white" stroke="white" points="-4,5 -4,-280 2673,-280 2673,5 -4,5"/>
<!-- Node46 -->
<g id="node1" class="node"><title>Node46</title>
<polygon fill="#bfbfbf" stroke="black" points="1527,-241 1527,-275 1619,-275 1619,-241 1527,-241"/>
<text text-anchor="start" x="1535" y="-262" font-family="Helvetica,sans-Serif" font-size="10.00">src/analysis/utils</text>
<text text-anchor="middle" x="1573" y="-249" font-family="Helvetica,sans-Serif" font-size="10.00">/fitter/TreeFitter.h</text>
</g>
<!-- Node47 -->
<g id="node3" class="node"><title>Node47</title>
<a xlink:href="_p_i_d___t_a_p_s_veto___kinfit_8h.html" target="_top" xlink:title="src/analysis/physics\l/calibration/PID_TAPSVeto\l_Kinfit.h">
<polygon fill="white" stroke="black" points="88,-156.5 88,-203.5 224,-203.5 224,-156.5 88,-156.5"/>
<text text-anchor="start" x="96" y="-190.5" font-family="Helvetica,sans-Serif" font-size="10.00">src/analysis/physics</text>
<text text-anchor="start" x="96" y="-177.5" font-family="Helvetica,sans-Serif" font-size="10.00">/calibration/PID_TAPSVeto</text>
<text text-anchor="middle" x="156" y="-164.5" font-family="Helvetica,sans-Serif" font-size="10.00">_Kinfit.h</text>
</a>
</g>
<!-- Node46&#45;&gt;Node47 -->
<g id="edge2" class="edge"><title>Node46&#45;&gt;Node47</title>
<path fill="none" stroke="midnightblue" d="M1516.75,-257.603C1340.18,-255.921 781.327,-247.293 321,-204 289.01,-200.991 253.74,-196.08 224.05,-191.481"/>
<polygon fill="midnightblue" stroke="midnightblue" points="1516.81,-261.103 1526.84,-257.695 1516.87,-254.103 1516.81,-261.103"/>
</g>
<!-- Node49 -->
<g id="node7" class="node"><title>Node49</title>
<a xlink:href="_meson_dalitz_decays_8h.html" target="_top" xlink:title="src/analysis/physics\l/common/MesonDalitzDecays.h">
<polygon fill="white" stroke="black" points="329.5,-163 329.5,-197 486.5,-197 486.5,-163 329.5,-163"/>
<text text-anchor="start" x="337.5" y="-184" font-family="Helvetica,sans-Serif" font-size="10.00">src/analysis/physics</text>
<text text-anchor="middle" x="408" y="-171" font-family="Helvetica,sans-Serif" font-size="10.00">/common/MesonDalitzDecays.h</text>
</a>
</g>
<!-- Node46&#45;&gt;Node49 -->
<g id="edge6" class="edge"><title>Node46&#45;&gt;Node49</title>
<path fill="none" stroke="midnightblue" d="M1516.54,-255.938C1368.77,-250.298 958.538,-233.063 618,-204 574.49,-200.287 526.054,-194.84 486.673,-190.073"/>
<polygon fill="midnightblue" stroke="midnightblue" points="1516.6,-259.443 1526.72,-256.324 1516.86,-252.448 1516.6,-259.443"/>
</g>
<!-- Node52 -->
<g id="node13" class="node"><title>Node52</title>
<a xlink:href="etaprime__dalitz_8h.html" target="_top" xlink:title="src/analysis/physics\l/etaprime/etaprime_dalitz.h">
<polygon fill="white" stroke="black" points="627,-163 627,-197 761,-197 761,-163 627,-163"/>
<text text-anchor="start" x="635" y="-184" font-family="Helvetica,sans-Serif" font-size="10.00">src/analysis/physics</text>
<text text-anchor="middle" x="694" y="-171" font-family="Helvetica,sans-Serif" font-size="10.00">/etaprime/etaprime_dalitz.h</text>
</a>
</g>
<!-- Node46&#45;&gt;Node52 -->
<g id="edge12" class="edge"><title>Node46&#45;&gt;Node52</title>
<path fill="none" stroke="midnightblue" d="M1516.74,-253.828C1403.37,-245.319 1139.41,-224.985 918,-204 865.24,-199 805.577,-192.569 761.099,-187.623"/>
<polygon fill="midnightblue" stroke="midnightblue" points="1516.67,-257.333 1526.91,-254.59 1517.2,-250.353 1516.67,-257.333"/>
</g>
<!-- Node55 -->
<g id="node19" class="node"><title>Node55</title>
<a xlink:href="_etap_omega_g_8h.html" target="_top" xlink:title="src/analysis/physics\l/etaprime/EtapOmegaG.h">
<polygon fill="white" stroke="black" points="927,-163 927,-197 1055,-197 1055,-163 927,-163"/>
<text text-anchor="start" x="935" y="-184" font-family="Helvetica,sans-Serif" font-size="10.00">src/analysis/physics</text>
<text text-anchor="middle" x="991" y="-171" font-family="Helvetica,sans-Serif" font-size="10.00">/etaprime/EtapOmegaG.h</text>
</a>
</g>
<!-- Node46&#45;&gt;Node55 -->
<g id="edge18" class="edge"><title>Node46&#45;&gt;Node55</title>
<path fill="none" stroke="midnightblue" d="M1516.74,-253.005C1429.24,-244.888 1255.37,-227.359 1109,-204 1091.45,-201.2 1072.55,-197.613 1055.12,-194.071"/>
<polygon fill="midnightblue" stroke="midnightblue" points="1516.44,-256.493 1526.72,-253.925 1517.08,-249.522 1516.44,-256.493"/>
</g>
<!-- Node58 -->
<g id="node25" class="node"><title>Node58</title>
<a xlink:href="etaprime-3pi0_8h.html" target="_top" xlink:title="src/analysis/physics\l/etaprime/etaprime&#45;3pi0.h">
<polygon fill="white" stroke="black" points="1117.5,-163 1117.5,-197 1244.5,-197 1244.5,-163 1117.5,-163"/>
<text text-anchor="start" x="1125.5" y="-184" font-family="Helvetica,sans-Serif" font-size="10.00">src/analysis/physics</text>
<text text-anchor="middle" x="1181" y="-171" font-family="Helvetica,sans-Serif" font-size="10.00">/etaprime/etaprime&#45;3pi0.h</text>
</a>
</g>
<!-- Node46&#45;&gt;Node58 -->
<g id="edge24" class="edge"><title>Node46&#45;&gt;Node58</title>
<path fill="none" stroke="midnightblue" d="M1516.48,-249.623C1455.02,-240.133 1354.03,-223.437 1268,-204 1258.83,-201.928 1249.18,-199.509 1239.78,-197.02"/>
<polygon fill="midnightblue" stroke="midnightblue" points="1516.33,-253.14 1526.74,-251.196 1517.39,-246.221 1516.33,-253.14"/>
</g>
<!-- Node60 -->
<g id="node29" class="node"><title>Node60</title>
<a xlink:href="_find_proton_8h.html" target="_top" xlink:title="src/analysis/physics\l/omega/FindProton.h">
<polygon fill="white" stroke="black" points="1276.5,-163 1276.5,-197 1383.5,-197 1383.5,-163 1276.5,-163"/>
<text text-anchor="start" x="1284.5" y="-184" font-family="Helvetica,sans-Serif" font-size="10.00">src/analysis/physics</text>
<text text-anchor="middle" x="1330" y="-171" font-family="Helvetica,sans-Serif" font-size="10.00">/omega/FindProton.h</text>
</a>
</g>
<!-- Node46&#45;&gt;Node60 -->
<g id="edge28" class="edge"><title>Node46&#45;&gt;Node60</title>
<path fill="none" stroke="midnightblue" d="M1517.07,-240.046C1476.83,-227.132 1422.91,-209.824 1383.3,-197.108"/>
<polygon fill="midnightblue" stroke="midnightblue" points="1516.13,-243.421 1526.72,-243.145 1518.27,-236.756 1516.13,-243.421"/>
</g>
<!-- Node62 -->
<g id="node33" class="node"><title>Node62</title>
<a xlink:href="_omega___eta_g_8h.html" target="_top" xlink:title="src/analysis/physics\l/omega/Omega_EtaG.h">
<polygon fill="white" stroke="black" points="1426.5,-163 1426.5,-197 1545.5,-197 1545.5,-163 1426.5,-163"/>
<text text-anchor="start" x="1434.5" y="-184" font-family="Helvetica,sans-Serif" font-size="10.00">src/analysis/physics</text>
<text text-anchor="middle" x="1486" y="-171" font-family="Helvetica,sans-Serif" font-size="10.00">/omega/Omega_EtaG.h</text>
</a>
</g>
<!-- Node46&#45;&gt;Node62 -->
<g id="edge32" class="edge"><title>Node46&#45;&gt;Node62</title>
<path fill="none" stroke="midnightblue" d="M1546.22,-233.992C1532.98,-222.118 1517.3,-208.058 1505.25,-197.262"/>
<polygon fill="midnightblue" stroke="midnightblue" points="1543.91,-236.62 1553.69,-240.689 1548.58,-231.408 1543.91,-236.62"/>
</g>
<!-- Node64 -->
<g id="node37" class="node"><title>Node64</title>
<a xlink:href="pi0eta_8h.html" target="_top" xlink:title="src/analysis/physics\l/omega/pi0eta.h">
<polygon fill="white" stroke="black" points="1490,-79 1490,-113 1596,-113 1596,-79 1490,-79"/>
<text text-anchor="start" x="1498" y="-100" font-family="Helvetica,sans-Serif" font-size="10.00">src/analysis/physics</text>
<text text-anchor="middle" x="1543" y="-87" font-family="Helvetica,sans-Serif" font-size="10.00">/omega/pi0eta.h</text>
</a>
</g>
<!-- Node46&#45;&gt;Node64 -->
<g id="edge40" class="edge"><title>Node46&#45;&gt;Node64</title>
<path fill="none" stroke="midnightblue" d="M1567.99,-230.958C1561.79,-197.485 1551.42,-141.464 1546.2,-113.29"/>
<polygon fill="midnightblue" stroke="midnightblue" points="1564.58,-231.774 1569.85,-240.969 1571.47,-230.499 1564.58,-231.774"/>
</g>
<!-- Node66 -->
<g id="node42" class="node"><title>Node66</title>
<a xlink:href="_just_pi0_8h.html" target="_top" xlink:title="src/analysis/physics\l/pi0/JustPi0.h">
<polygon fill="white" stroke="black" points="1631,-163 1631,-197 1737,-197 1737,-163 1631,-163"/>
<text text-anchor="start" x="1639" y="-184" font-family="Helvetica,sans-Serif" font-size="10.00">src/analysis/physics</text>
<text text-anchor="middle" x="1684" y="-171" font-family="Helvetica,sans-Serif" font-size="10.00">/pi0/JustPi0.h</text>
</a>
</g>
<!-- Node46&#45;&gt;Node66 -->
<g id="edge42" class="edge"><title>Node46&#45;&gt;Node66</title>
<path fill="none" stroke="midnightblue" d="M1606.01,-234.805C1623.24,-222.698 1643.95,-208.144 1659.7,-197.078"/>
<polygon fill="midnightblue" stroke="midnightblue" points="1603.53,-232.269 1597.36,-240.883 1607.55,-237.997 1603.53,-232.269"/>
</g>
<!-- Node69 -->
<g id="node48" class="node"><title>Node69</title>
<a xlink:href="single_pi0_8h.html" target="_top" xlink:title="src/analysis/physics\l/production/singlePi0.h">
<polygon fill="white" stroke="black" points="1826,-163 1826,-197 1942,-197 1942,-163 1826,-163"/>
<text text-anchor="start" x="1834" y="-184" font-family="Helvetica,sans-Serif" font-size="10.00">src/analysis/physics</text>
<text text-anchor="middle" x="1884" y="-171" font-family="Helvetica,sans-Serif" font-size="10.00">/production/singlePi0.h</text>
</a>
</g>
<!-- Node46&#45;&gt;Node69 -->
<g id="edge48" class="edge"><title>Node46&#45;&gt;Node69</title>
<path fill="none" stroke="midnightblue" d="M1629.26,-243.891C1684.87,-229.942 1769.58,-208.696 1825.85,-194.585"/>
<polygon fill="midnightblue" stroke="midnightblue" points="1628.07,-240.579 1619.22,-246.407 1629.78,-247.369 1628.07,-240.579"/>
</g>
<!-- Node72 -->
<g id="node54" class="node"><title>Node72</title>
<a xlink:href="triple_pi0_8h.html" target="_top" xlink:title="src/analysis/physics\l/production/triplePi0.h">
<polygon fill="white" stroke="black" points="1959.5,-163 1959.5,-197 2070.5,-197 2070.5,-163 1959.5,-163"/>
<text text-anchor="start" x="1967.5" y="-184" font-family="Helvetica,sans-Serif" font-size="10.00">src/analysis/physics</text>
<text text-anchor="middle" x="2015" y="-171" font-family="Helvetica,sans-Serif" font-size="10.00">/production/triplePi0.h</text>
</a>
</g>
<!-- Node46&#45;&gt;Node72 -->
<g id="edge54" class="edge"><title>Node46&#45;&gt;Node72</title>
<path fill="none" stroke="midnightblue" d="M1629.11,-253.81C1703.58,-247.383 1838.75,-232.703 1951,-204 1958.36,-202.119 1966.04,-199.678 1973.42,-197.075"/>
<polygon fill="midnightblue" stroke="midnightblue" points="1628.68,-250.333 1619.01,-254.662 1629.27,-257.308 1628.68,-250.333"/>
</g>
<!-- Node75 -->
<g id="node60" class="node"><title>Node75</title>
<a xlink:href="_proton_vertex_test_8h.html" target="_top" xlink:title="src/analysis/physics\l/scratch/wolfes/ProtonVertex\lTest.h">
<polygon fill="white" stroke="black" points="2087.5,-156.5 2087.5,-203.5 2230.5,-203.5 2230.5,-156.5 2087.5,-156.5"/>
<text text-anchor="start" x="2095.5" y="-190.5" font-family="Helvetica,sans-Serif" font-size="10.00">src/analysis/physics</text>
<text text-anchor="start" x="2095.5" y="-177.5" font-family="Helvetica,sans-Serif" font-size="10.00">/scratch/wolfes/ProtonVertex</text>
<text text-anchor="middle" x="2159" y="-164.5" font-family="Helvetica,sans-Serif" font-size="10.00">Test.h</text>
</a>
</g>
<!-- Node46&#45;&gt;Node75 -->
<g id="edge60" class="edge"><title>Node46&#45;&gt;Node75</title>
<path fill="none" stroke="midnightblue" d="M1629.27,-255.4C1723.24,-250.301 1917.68,-236.513 2079,-204 2081.7,-203.456 2084.44,-202.86 2087.2,-202.223"/>
<polygon fill="midnightblue" stroke="midnightblue" points="1628.94,-251.913 1619.13,-255.937 1629.31,-258.903 1628.94,-251.913"/>
</g>
<!-- Node76 -->
<g id="node63" class="node"><title>Node76</title>
<a xlink:href="_test_sigma_plus_fitter_8h.html" target="_top" xlink:title="src/analysis/physics\l/test/TestSigmaPlusFitter.h">
<polygon fill="white" stroke="black" points="2247.5,-163 2247.5,-197 2384.5,-197 2384.5,-163 2247.5,-163"/>
<text text-anchor="start" x="2255.5" y="-184" font-family="Helvetica,sans-Serif" font-size="10.00">src/analysis/physics</text>
<text text-anchor="middle" x="2316" y="-171" font-family="Helvetica,sans-Serif" font-size="10.00">/test/TestSigmaPlusFitter.h</text>
</a>
</g>
<!-- Node46&#45;&gt;Node76 -->
<g id="edge64" class="edge"><title>Node46&#45;&gt;Node76</title>
<path fill="none" stroke="midnightblue" d="M1629.53,-255.029C1768.27,-247.478 2122.74,-226.544 2239,-204 2248.21,-202.214 2257.87,-199.719 2267.12,-197.009"/>
<polygon fill="midnightblue" stroke="midnightblue" points="1628.93,-251.556 1619.13,-255.592 1629.31,-258.546 1628.93,-251.556"/>
</g>
<!-- Node78 -->
<g id="node67" class="node"><title>Node78</title>
<a xlink:href="_tree_fitter_8cc.html" target="_top" xlink:title="src/analysis/utils\l/fitter/TreeFitter.cc">
<polygon fill="white" stroke="black" points="2402,-163 2402,-197 2500,-197 2500,-163 2402,-163"/>
<text text-anchor="start" x="2410" y="-184" font-family="Helvetica,sans-Serif" font-size="10.00">src/analysis/utils</text>
<text text-anchor="middle" x="2451" y="-171" font-family="Helvetica,sans-Serif" font-size="10.00">/fitter/TreeFitter.cc</text>
</a>
</g>
<!-- Node46&#45;&gt;Node78 -->
<g id="edge68" class="edge"><title>Node46&#45;&gt;Node78</title>
<path fill="none" stroke="midnightblue" d="M1629.31,-256.677C1789.79,-252.529 2247.27,-237.976 2393,-204 2400.22,-202.317 2407.69,-199.835 2414.78,-197.097"/>
<polygon fill="midnightblue" stroke="midnightblue" points="1629.08,-253.181 1619.18,-256.935 1629.26,-260.179 1629.08,-253.181"/>
</g>
<!-- Node79 -->
<g id="node69" class="node"><title>Node79</title>
<a xlink:href="_test_tree_fitter_8cc.html" target="_top" xlink:title="test/analysis/TestTreeFitter.cc">
<polygon fill="white" stroke="black" points="2518,-169.5 2518,-190.5 2668,-190.5 2668,-169.5 2518,-169.5"/>
<text text-anchor="middle" x="2593" y="-177.5" font-family="Helvetica,sans-Serif" font-size="10.00">test/analysis/TestTreeFitter.cc</text>
</a>
</g>
<!-- Node46&#45;&gt;Node79 -->
<g id="edge70" class="edge"><title>Node46&#45;&gt;Node79</title>
<path fill="none" stroke="midnightblue" d="M1629.17,-256.385C1804.19,-251.099 2338.18,-232.964 2509,-204 2526.94,-200.957 2546.52,-195.494 2562.26,-190.547"/>
<polygon fill="midnightblue" stroke="midnightblue" points="1629.04,-252.888 1619.14,-256.686 1629.25,-259.885 1629.04,-252.888"/>
</g>
<!-- Node48 -->
<g id="node5" class="node"><title>Node48</title>
<a xlink:href="_p_i_d___t_a_p_s_veto___kinfit_8cc.html" target="_top" xlink:title="src/analysis/physics\l/calibration/PID_TAPSVeto\l_Kinfit.cc">
<polygon fill="white" stroke="black" points="0,-72.5 0,-119.5 136,-119.5 136,-72.5 0,-72.5"/>
<text text-anchor="start" x="8" y="-106.5" font-family="Helvetica,sans-Serif" font-size="10.00">src/analysis/physics</text>
<text text-anchor="start" x="8" y="-93.5" font-family="Helvetica,sans-Serif" font-size="10.00">/calibration/PID_TAPSVeto</text>
<text text-anchor="middle" x="68" y="-80.5" font-family="Helvetica,sans-Serif" font-size="10.00">_Kinfit.cc</text>
</a>
</g>
<!-- Node47&#45;&gt;Node48 -->
<g id="edge4" class="edge"><title>Node47&#45;&gt;Node48</title>
<path fill="none" stroke="midnightblue" d="M123.759,-149.225C113.52,-139.451 102.364,-128.802 92.7398,-119.615"/>
<polygon fill="midnightblue" stroke="midnightblue" points="121.368,-151.781 131.018,-156.154 126.201,-146.717 121.368,-151.781"/>
</g>
<!-- Node50 -->
<g id="node9" class="node"><title>Node50</title>
<a xlink:href="_meson_dalitz_decays_8cc.html" target="_top" xlink:title="Physics class to investigate Dalitz decays for different mesons. ">
<polygon fill="white" stroke="black" points="154,-79 154,-113 316,-113 316,-79 154,-79"/>
<text text-anchor="start" x="162" y="-100" font-family="Helvetica,sans-Serif" font-size="10.00">src/analysis/physics</text>
<text text-anchor="middle" x="235" y="-87" font-family="Helvetica,sans-Serif" font-size="10.00">/common/MesonDalitzDecays.cc</text>
</a>
</g>
<!-- Node49&#45;&gt;Node50 -->
<g id="edge8" class="edge"><title>Node49&#45;&gt;Node50</title>
<path fill="none" stroke="midnightblue" d="M363.458,-158.373C334.406,-144.267 297.023,-126.115 270.083,-113.035"/>
<polygon fill="midnightblue" stroke="midnightblue" points="362.049,-161.579 372.573,-162.799 365.106,-155.282 362.049,-161.579"/>
</g>
<!-- Node51 -->
<g id="node11" class="node"><title>Node51</title>
<a xlink:href="_meson_dalitz_decays__plot_8cc.html" target="_top" xlink:title="src/analysis/physics\l/common/MesonDalitzDecays\l_plot.cc">
<polygon fill="white" stroke="black" points="333.5,-72.5 333.5,-119.5 482.5,-119.5 482.5,-72.5 333.5,-72.5"/>
<text text-anchor="start" x="341.5" y="-106.5" font-family="Helvetica,sans-Serif" font-size="10.00">src/analysis/physics</text>
<text text-anchor="start" x="341.5" y="-93.5" font-family="Helvetica,sans-Serif" font-size="10.00">/common/MesonDalitzDecays</text>
<text text-anchor="middle" x="408" y="-80.5" font-family="Helvetica,sans-Serif" font-size="10.00">_plot.cc</text>
</a>
</g>
<!-- Node49&#45;&gt;Node51 -->
<g id="edge10" class="edge"><title>Node49&#45;&gt;Node51</title>
<path fill="none" stroke="midnightblue" d="M408,-152.587C408,-141.989 408,-129.976 408,-119.753"/>
<polygon fill="midnightblue" stroke="midnightblue" points="404.5,-152.595 408,-162.595 411.5,-152.595 404.5,-152.595"/>
</g>
<!-- Node53 -->
<g id="node15" class="node"><title>Node53</title>
<a xlink:href="_etap_dalitz__plot_8cc.html" target="_top" xlink:title="src/analysis/physics\l/etaprime/EtapDalitz\l_plot.cc">
<polygon fill="white" stroke="black" points="500,-72.5 500,-119.5 606,-119.5 606,-72.5 500,-72.5"/>
<text text-anchor="start" x="508" y="-106.5" font-family="Helvetica,sans-Serif" font-size="10.00">src/analysis/physics</text>
<text text-anchor="start" x="508" y="-93.5" font-family="Helvetica,sans-Serif" font-size="10.00">/etaprime/EtapDalitz</text>
<text text-anchor="middle" x="553" y="-80.5" font-family="Helvetica,sans-Serif" font-size="10.00">_plot.cc</text>
</a>
</g>
<!-- Node52&#45;&gt;Node53 -->
<g id="edge14" class="edge"><title>Node52&#45;&gt;Node53</title>
<path fill="none" stroke="midnightblue" d="M656.406,-157.604C636.682,-145.853 612.528,-131.463 592.525,-119.547"/>
<polygon fill="midnightblue" stroke="midnightblue" points="654.744,-160.687 665.126,-162.799 658.327,-154.674 654.744,-160.687"/>
</g>
<!-- Node54 -->
<g id="node17" class="node"><title>Node54</title>
<a xlink:href="etaprime__dalitz_8cc.html" target="_top" xlink:title="src/analysis/physics\l/etaprime/etaprime_dalitz.cc">
<polygon fill="white" stroke="black" points="624,-79 624,-113 764,-113 764,-79 624,-79"/>
<text text-anchor="start" x="632" y="-100" font-family="Helvetica,sans-Serif" font-size="10.00">src/analysis/physics</text>
<text text-anchor="middle" x="694" y="-87" font-family="Helvetica,sans-Serif" font-size="10.00">/etaprime/etaprime_dalitz.cc</text>
</a>
</g>
<!-- Node52&#45;&gt;Node54 -->
<g id="edge16" class="edge"><title>Node52&#45;&gt;Node54</title>
<path fill="none" stroke="midnightblue" d="M694,-152.33C694,-139.38 694,-124.365 694,-113.095"/>
<polygon fill="midnightblue" stroke="midnightblue" points="690.5,-152.595 694,-162.595 697.5,-152.595 690.5,-152.595"/>
</g>
<!-- Node56 -->
<g id="node21" class="node"><title>Node56</title>
<a xlink:href="_etap_omega_g_8cc.html" target="_top" xlink:title="src/analysis/physics\l/etaprime/EtapOmegaG.cc">
<polygon fill="white" stroke="black" points="781.5,-79 781.5,-113 914.5,-113 914.5,-79 781.5,-79"/>
<text text-anchor="start" x="789.5" y="-100" font-family="Helvetica,sans-Serif" font-size="10.00">src/analysis/physics</text>
<text text-anchor="middle" x="848" y="-87" font-family="Helvetica,sans-Serif" font-size="10.00">/etaprime/EtapOmegaG.cc</text>
</a>
</g>
<!-- Node55&#45;&gt;Node56 -->
<g id="edge20" class="edge"><title>Node55&#45;&gt;Node56</title>
<path fill="none" stroke="midnightblue" d="M952.958,-157.654C929.215,-143.707 899.116,-126.026 877.244,-113.178"/>
<polygon fill="midnightblue" stroke="midnightblue" points="951.322,-160.752 961.717,-162.799 954.867,-154.716 951.322,-160.752"/>
</g>
<!-- Node57 -->
<g id="node23" class="node"><title>Node57</title>
<a xlink:href="_etap_omega_g__plot_8cc.html" target="_top" xlink:title="src/analysis/physics\l/etaprime/EtapOmegaG\l_plot.cc">
<polygon fill="white" stroke="black" points="931.5,-72.5 931.5,-119.5 1050.5,-119.5 1050.5,-72.5 931.5,-72.5"/>
<text text-anchor="start" x="939.5" y="-106.5" font-family="Helvetica,sans-Serif" font-size="10.00">src/analysis/physics</text>
<text text-anchor="start" x="939.5" y="-93.5" font-family="Helvetica,sans-Serif" font-size="10.00">/etaprime/EtapOmegaG</text>
<text text-anchor="middle" x="991" y="-80.5" font-family="Helvetica,sans-Serif" font-size="10.00">_plot.cc</text>
</a>
</g>
<!-- Node55&#45;&gt;Node57 -->
<g id="edge22" class="edge"><title>Node55&#45;&gt;Node57</title>
<path fill="none" stroke="midnightblue" d="M991,-152.587C991,-141.989 991,-129.976 991,-119.753"/>
<polygon fill="midnightblue" stroke="midnightblue" points="987.5,-152.595 991,-162.595 994.5,-152.595 987.5,-152.595"/>
</g>
<!-- Node59 -->
<g id="node27" class="node"><title>Node59</title>
<a xlink:href="etaprime-3pi0_8cc.html" target="_top" xlink:title="src/analysis/physics\l/etaprime/etaprime&#45;3pi0.cc">
<polygon fill="white" stroke="black" points="1068,-79 1068,-113 1200,-113 1200,-79 1068,-79"/>
<text text-anchor="start" x="1076" y="-100" font-family="Helvetica,sans-Serif" font-size="10.00">src/analysis/physics</text>
<text text-anchor="middle" x="1134" y="-87" font-family="Helvetica,sans-Serif" font-size="10.00">/etaprime/etaprime&#45;3pi0.cc</text>
</a>
</g>
<!-- Node58&#45;&gt;Node59 -->
<g id="edge26" class="edge"><title>Node58&#45;&gt;Node59</title>
<path fill="none" stroke="midnightblue" d="M1166.17,-153.49C1158.78,-140.285 1150.06,-124.703 1143.57,-113.095"/>
<polygon fill="midnightblue" stroke="midnightblue" points="1163.32,-155.577 1171.26,-162.595 1169.43,-152.159 1163.32,-155.577"/>
</g>
<!-- Node61 -->
<g id="node31" class="node"><title>Node61</title>
<a xlink:href="_find_proton_8cc.html" target="_top" xlink:title="src/analysis/physics\l/omega/FindProton.cc">
<polygon fill="white" stroke="black" points="1217.5,-79 1217.5,-113 1330.5,-113 1330.5,-79 1217.5,-79"/>
<text text-anchor="start" x="1225.5" y="-100" font-family="Helvetica,sans-Serif" font-size="10.00">src/analysis/physics</text>
<text text-anchor="middle" x="1274" y="-87" font-family="Helvetica,sans-Serif" font-size="10.00">/omega/FindProton.cc</text>
</a>
</g>
<!-- Node60&#45;&gt;Node61 -->
<g id="edge30" class="edge"><title>Node60&#45;&gt;Node61</title>
<path fill="none" stroke="midnightblue" d="M1312.84,-154.257C1303.93,-140.891 1293.29,-124.929 1285.4,-113.095"/>
<polygon fill="midnightblue" stroke="midnightblue" points="1309.94,-156.216 1318.4,-162.595 1315.76,-152.333 1309.94,-156.216"/>
</g>
<!-- Node63 -->
<g id="node35" class="node"><title>Node63</title>
<a xlink:href="_omega___eta_g_8cc.html" target="_top" xlink:title="src/analysis/physics\l/omega/Omega_EtaG.cc">
<polygon fill="white" stroke="black" points="1347.5,-79 1347.5,-113 1472.5,-113 1472.5,-79 1347.5,-79"/>
<text text-anchor="start" x="1355.5" y="-100" font-family="Helvetica,sans-Serif" font-size="10.00">src/analysis/physics</text>
<text text-anchor="middle" x="1410" y="-87" font-family="Helvetica,sans-Serif" font-size="10.00">/omega/Omega_EtaG.cc</text>
</a>
</g>
<!-- Node62&#45;&gt;Node63 -->
<g id="edge34" class="edge"><title>Node62&#45;&gt;Node63</title>
<path fill="none" stroke="midnightblue" d="M1463.4,-155.018C1451.17,-141.501 1436.38,-125.154 1425.47,-113.095"/>
<polygon fill="midnightblue" stroke="midnightblue" points="1460.95,-157.528 1470.25,-162.595 1466.14,-152.832 1460.95,-157.528"/>
</g>
<!-- Node62&#45;&gt;Node64 -->
<g id="edge36" class="edge"><title>Node62&#45;&gt;Node64</title>
<path fill="none" stroke="midnightblue" d="M1503.47,-154.257C1512.54,-140.891 1523.37,-124.929 1531.4,-113.095"/>
<polygon fill="midnightblue" stroke="midnightblue" points="1500.53,-152.355 1497.81,-162.595 1506.32,-156.286 1500.53,-152.355"/>
</g>
<!-- Node65 -->
<g id="node39" class="node"><title>Node65</title>
<a xlink:href="pi0eta_8cc.html" target="_top" xlink:title="src/analysis/physics\l/omega/pi0eta.cc">
<polygon fill="white" stroke="black" points="1490,-1 1490,-35 1596,-35 1596,-1 1490,-1"/>
<text text-anchor="start" x="1498" y="-22" font-family="Helvetica,sans-Serif" font-size="10.00">src/analysis/physics</text>
<text text-anchor="middle" x="1543" y="-9" font-family="Helvetica,sans-Serif" font-size="10.00">/omega/pi0eta.cc</text>
</a>
</g>
<!-- Node64&#45;&gt;Node65 -->
<g id="edge38" class="edge"><title>Node64&#45;&gt;Node65</title>
<path fill="none" stroke="midnightblue" d="M1543,-68.6102C1543,-57.5188 1543,-45.0489 1543,-35.2623"/>
<polygon fill="midnightblue" stroke="midnightblue" points="1539.5,-68.6892 1543,-78.6893 1546.5,-68.6893 1539.5,-68.6892"/>
</g>
<!-- Node67 -->
<g id="node44" class="node"><title>Node67</title>
<a xlink:href="_ant-alt_veto_cal_tool_8cc.html" target="_top" xlink:title="progs/Ant&#45;altVetoCalTool.cc">
<polygon fill="white" stroke="black" points="1614,-85.5 1614,-106.5 1754,-106.5 1754,-85.5 1614,-85.5"/>
<text text-anchor="middle" x="1684" y="-93.5" font-family="Helvetica,sans-Serif" font-size="10.00">progs/Ant&#45;altVetoCalTool.cc</text>
</a>
</g>
<!-- Node66&#45;&gt;Node67 -->
<g id="edge44" class="edge"><title>Node66&#45;&gt;Node67</title>
<path fill="none" stroke="midnightblue" d="M1684,-152.464C1684,-136.962 1684,-118.465 1684,-106.973"/>
<polygon fill="midnightblue" stroke="midnightblue" points="1680.5,-152.595 1684,-162.595 1687.5,-152.595 1680.5,-152.595"/>
</g>
<!-- Node68 -->
<g id="node46" class="node"><title>Node68</title>
<a xlink:href="_just_pi0_8cc.html" target="_top" xlink:title="src/analysis/physics\l/pi0/JustPi0.cc">
<polygon fill="white" stroke="black" points="1772,-79 1772,-113 1878,-113 1878,-79 1772,-79"/>
<text text-anchor="start" x="1780" y="-100" font-family="Helvetica,sans-Serif" font-size="10.00">src/analysis/physics</text>
<text text-anchor="middle" x="1825" y="-87" font-family="Helvetica,sans-Serif" font-size="10.00">/pi0/JustPi0.cc</text>
</a>
</g>
<!-- Node66&#45;&gt;Node68 -->
<g id="edge46" class="edge"><title>Node66&#45;&gt;Node68</title>
<path fill="none" stroke="midnightblue" d="M1721.51,-157.654C1744.92,-143.707 1774.6,-126.026 1796.16,-113.178"/>
<polygon fill="midnightblue" stroke="midnightblue" points="1719.67,-154.674 1712.87,-162.799 1723.26,-160.687 1719.67,-154.674"/>
</g>
<!-- Node70 -->
<g id="node50" class="node"><title>Node70</title>
<a xlink:href="single_pi0_8cc.html" target="_top" xlink:title="src/analysis/physics\l/production/singlePi0.cc">
<polygon fill="white" stroke="black" points="1895.5,-79 1895.5,-113 2016.5,-113 2016.5,-79 1895.5,-79"/>
<text text-anchor="start" x="1903.5" y="-100" font-family="Helvetica,sans-Serif" font-size="10.00">src/analysis/physics</text>
<text text-anchor="middle" x="1956" y="-87" font-family="Helvetica,sans-Serif" font-size="10.00">/production/singlePi0.cc</text>
</a>
</g>
<!-- Node69&#45;&gt;Node70 -->
<g id="edge50" class="edge"><title>Node69&#45;&gt;Node70</title>
<path fill="none" stroke="midnightblue" d="M1905.74,-154.638C1917.26,-141.196 1931.11,-125.041 1941.35,-113.095"/>
<polygon fill="midnightblue" stroke="midnightblue" points="1902.77,-152.725 1898.92,-162.595 1908.08,-157.28 1902.77,-152.725"/>
</g>
<!-- Node71 -->
<g id="node52" class="node"><title>Node71</title>
<a xlink:href="single_pi0_plots_8cc.html" target="_top" xlink:title="src/analysis/physics\l/production/singlePi0Plots.cc">
<polygon fill="white" stroke="black" points="2033.5,-79 2033.5,-113 2176.5,-113 2176.5,-79 2033.5,-79"/>
<text text-anchor="start" x="2041.5" y="-100" font-family="Helvetica,sans-Serif" font-size="10.00">src/analysis/physics</text>
<text text-anchor="middle" x="2105" y="-87" font-family="Helvetica,sans-Serif" font-size="10.00">/production/singlePi0Plots.cc</text>
</a>
</g>
<!-- Node69&#45;&gt;Node71 -->
<g id="edge52" class="edge"><title>Node69&#45;&gt;Node71</title>
<path fill="none" stroke="midnightblue" d="M1938.71,-159.204C1976.08,-145.001 2024.99,-126.412 2060.07,-113.076"/>
<polygon fill="midnightblue" stroke="midnightblue" points="1937.09,-156.075 1928.99,-162.9 1939.58,-162.619 1937.09,-156.075"/>
</g>
<!-- Node73 -->
<g id="node56" class="node"><title>Node73</title>
<a xlink:href="triple_pi0_8cc.html" target="_top" xlink:title="src/analysis/physics\l/production/triplePi0.cc">
<polygon fill="white" stroke="black" points="2194,-79 2194,-113 2310,-113 2310,-79 2194,-79"/>
<text text-anchor="start" x="2202" y="-100" font-family="Helvetica,sans-Serif" font-size="10.00">src/analysis/physics</text>
<text text-anchor="middle" x="2252" y="-87" font-family="Helvetica,sans-Serif" font-size="10.00">/production/triplePi0.cc</text>
</a>
</g>
<!-- Node72&#45;&gt;Node73 -->
<g id="edge56" class="edge"><title>Node72&#45;&gt;Node73</title>
<path fill="none" stroke="midnightblue" d="M2069.6,-159.395C2072.78,-158.237 2075.93,-157.098 2079,-156 2125.85,-139.263 2138.02,-136.39 2185,-120 2191.42,-117.761 2198.17,-115.377 2204.82,-113.013"/>
<polygon fill="midnightblue" stroke="midnightblue" points="2068.22,-156.173 2060.04,-162.908 2070.63,-162.743 2068.22,-156.173"/>
</g>
<!-- Node74 -->
<g id="node58" class="node"><title>Node74</title>
<a xlink:href="_proton_vertex_test_8cc.html" target="_top" xlink:title="src/analysis/physics\l/scratch/wolfes/ProtonVertex\lTest.cc">
<polygon fill="white" stroke="black" points="2327.5,-72.5 2327.5,-119.5 2470.5,-119.5 2470.5,-72.5 2327.5,-72.5"/>
<text text-anchor="start" x="2335.5" y="-106.5" font-family="Helvetica,sans-Serif" font-size="10.00">src/analysis/physics</text>
<text text-anchor="start" x="2335.5" y="-93.5" font-family="Helvetica,sans-Serif" font-size="10.00">/scratch/wolfes/ProtonVertex</text>
<text text-anchor="middle" x="2399" y="-80.5" font-family="Helvetica,sans-Serif" font-size="10.00">Test.cc</text>
</a>
</g>
<!-- Node72&#45;&gt;Node74 -->
<g id="edge58" class="edge"><title>Node72&#45;&gt;Node74</title>
<path fill="none" stroke="midnightblue" d="M2066.4,-159.667C2070.63,-158.318 2074.86,-157.073 2079,-156 2183.4,-128.915 2213.74,-143.556 2319,-120 2321.69,-119.398 2324.42,-118.754 2327.17,-118.076"/>
<polygon fill="midnightblue" stroke="midnightblue" points="2064.95,-156.46 2056.59,-162.968 2067.19,-163.094 2064.95,-156.46"/>
</g>
<!-- Node75&#45;&gt;Node74 -->
<g id="edge62" class="edge"><title>Node75&#45;&gt;Node74</title>
<path fill="none" stroke="midnightblue" d="M2235.62,-153.183C2266.56,-142.356 2301.94,-129.973 2331.84,-119.505"/>
<polygon fill="midnightblue" stroke="midnightblue" points="2234.45,-149.883 2226.17,-156.49 2236.77,-156.49 2234.45,-149.883"/>
</g>
<!-- Node77 -->
<g id="node65" class="node"><title>Node77</title>
<a xlink:href="_test_sigma_plus_fitter_8cc.html" target="_top" xlink:title="src/analysis/physics\l/test/TestSigmaPlusFitter.cc">
<polygon fill="white" stroke="black" points="2488,-79 2488,-113 2630,-113 2630,-79 2488,-79"/>
<text text-anchor="start" x="2496" y="-100" font-family="Helvetica,sans-Serif" font-size="10.00">src/analysis/physics</text>
<text text-anchor="middle" x="2559" y="-87" font-family="Helvetica,sans-Serif" font-size="10.00">/test/TestSigmaPlusFitter.cc</text>
</a>
</g>
<!-- Node76&#45;&gt;Node77 -->
<g id="edge66" class="edge"><title>Node76&#45;&gt;Node77</title>
<path fill="none" stroke="midnightblue" d="M2375.11,-159.566C2416.33,-145.318 2470.69,-126.526 2509.6,-113.076"/>
<polygon fill="midnightblue" stroke="midnightblue" points="2373.78,-156.325 2365.47,-162.9 2376.06,-162.941 2373.78,-156.325"/>
</g>
</g>
</svg>
