<?xml version="1.0" encoding="UTF-8" standalone="no"?>
<!DOCTYPE svg PUBLIC "-//W3C//DTD SVG 1.1//EN"
 "http://www.w3.org/Graphics/SVG/1.1/DTD/svg11.dtd">
<!-- Generated by graphviz version 2.26.3 (20100126.1600)
 -->
<!-- Title: src/unpacker/UnpackerA2Geant.h Pages: 1 -->
<svg width="2120pt" height="258pt"
 viewBox="0.00 0.00 2120.00 258.00" xmlns="http://www.w3.org/2000/svg" xmlns:xlink="http://www.w3.org/1999/xlink">
<g id="graph1" class="graph" transform="scale(1 1) rotate(0) translate(4 254)">
<title>src/unpacker/UnpackerA2Geant.h</title>
<polygon fill="white" stroke="white" points="-4,5 -4,-254 2117,-254 2117,5 -4,5"/>
<!-- Node57 -->
<g id="node1" class="node"><title>Node57</title>
<polygon fill="#bfbfbf" stroke="black" points="1041,-228.5 1041,-249.5 1205,-249.5 1205,-228.5 1041,-228.5"/>
<text text-anchor="middle" x="1123" y="-236.5" font-family="Helvetica,sans-Serif" font-size="10.00">src/unpacker/UnpackerA2Geant.h</text>
</g>
<!-- Node58 -->
<g id="node3" class="node"><title>Node58</title>
<a xlink:href="_setup_8h.html" target="_top" xlink:title="src/expconfig/setups\l/Setup.h">
<polygon fill="white" stroke="black" points="1001.5,-157 1001.5,-191 1108.5,-191 1108.5,-157 1001.5,-157"/>
<text text-anchor="start" x="1009.5" y="-178" font-family="Helvetica,sans-Serif" font-size="10.00">src/expconfig/setups</text>
<text text-anchor="middle" x="1055" y="-165" font-family="Helvetica,sans-Serif" font-size="10.00">/Setup.h</text>
</a>
</g>
<!-- Node57&#45;&gt;Node58 -->
<g id="edge2" class="edge"><title>Node57&#45;&gt;Node58</title>
<path fill="none" stroke="midnightblue" d="M1104.45,-221.267C1094.63,-211.879 1082.62,-200.403 1072.9,-191.11"/>
<polygon fill="midnightblue" stroke="midnightblue" points="1102.12,-223.887 1111.77,-228.267 1106.96,-218.827 1102.12,-223.887"/>
</g>
<!-- Node64 -->
<g id="node15" class="node"><title>Node64</title>
<a xlink:href="_exp_config_8cc.html" target="_top" xlink:title="src/expconfig/ExpConfig.cc">
<polygon fill="white" stroke="black" points="-0.5,-85.5 -0.5,-106.5 136.5,-106.5 136.5,-85.5 -0.5,-85.5"/>
<text text-anchor="middle" x="68" y="-93.5" font-family="Helvetica,sans-Serif" font-size="10.00">src/expconfig/ExpConfig.cc</text>
</a>
</g>
<!-- Node57&#45;&gt;Node64 -->
<g id="edge56" class="edge"><title>Node57&#45;&gt;Node64</title>
<path fill="none" stroke="midnightblue" d="M1030.52,-233.349C855.865,-221.443 466.161,-188.995 145,-120 129.12,-116.588 111.821,-111.341 97.65,-106.622"/>
<polygon fill="midnightblue" stroke="midnightblue" points="1030.49,-236.854 1040.7,-234.036 1030.96,-229.87 1030.49,-236.854"/>
</g>
<!-- Node83 -->
<g id="node56" class="node"><title>Node83</title>
<a xlink:href="_unpacker_8cc.html" target="_top" xlink:title="src/unpacker/Unpacker.cc">
<polygon fill="white" stroke="black" points="1125.5,-163.5 1125.5,-184.5 1256.5,-184.5 1256.5,-163.5 1125.5,-163.5"/>
<text text-anchor="middle" x="1191" y="-171.5" font-family="Helvetica,sans-Serif" font-size="10.00">src/unpacker/Unpacker.cc</text>
</a>
</g>
<!-- Node57&#45;&gt;Node83 -->
<g id="edge58" class="edge"><title>Node57&#45;&gt;Node83</title>
<path fill="none" stroke="midnightblue" d="M1141.73,-221.099C1154.01,-209.357 1169.65,-194.404 1179.98,-184.534"/>
<polygon fill="midnightblue" stroke="midnightblue" points="1139.04,-218.827 1134.23,-228.267 1143.88,-223.887 1139.04,-218.827"/>
</g>
<!-- Node84 -->
<g id="node58" class="node"><title>Node84</title>
<a xlink:href="_unpacker_a2_geant_8cc.html" target="_top" xlink:title="src/unpacker/UnpackerA2Geant.cc">
<polygon fill="white" stroke="black" points="1274,-163.5 1274,-184.5 1444,-184.5 1444,-163.5 1274,-163.5"/>
<text text-anchor="middle" x="1359" y="-171.5" font-family="Helvetica,sans-Serif" font-size="10.00">src/unpacker/UnpackerA2Geant.cc</text>
</a>
</g>
<!-- Node57&#45;&gt;Node84 -->
<g id="edge60" class="edge"><title>Node57&#45;&gt;Node84</title>
<path fill="none" stroke="midnightblue" d="M1170.85,-225.822C1215.1,-213.633 1280.02,-195.752 1320.88,-184.501"/>
<polygon fill="midnightblue" stroke="midnightblue" points="1169.89,-222.455 1161.18,-228.484 1171.75,-229.203 1169.89,-222.455"/>
</g>
<!-- Node59 -->
<g id="node5" class="node"><title>Node59</title>
<a xlink:href="_ant-fake_raw_8cc.html" target="_top" xlink:title="progs/Ant&#45;fakeRaw.cc">
<polygon fill="white" stroke="black" points="154,-85.5 154,-106.5 268,-106.5 268,-85.5 154,-85.5"/>
<text text-anchor="middle" x="211" y="-93.5" font-family="Helvetica,sans-Serif" font-size="10.00">progs/Ant&#45;fakeRaw.cc</text>
</a>
</g>
<!-- Node58&#45;&gt;Node59 -->
<g id="edge4" class="edge"><title>Node58&#45;&gt;Node59</title>
<path fill="none" stroke="midnightblue" d="M991.12,-171.864C830.478,-166.123 412.839,-148.816 277,-120 262.688,-116.964 247.291,-111.501 234.972,-106.553"/>
<polygon fill="midnightblue" stroke="midnightblue" points="991.206,-175.369 1001.32,-172.225 991.454,-168.373 991.206,-175.369"/>
</g>
<!-- Node60 -->
<g id="node7" class="node"><title>Node60</title>
<a xlink:href="_ant-info_8cc.html" target="_top" xlink:title="progs/Ant&#45;info.cc">
<polygon fill="white" stroke="black" points="285.5,-85.5 285.5,-106.5 376.5,-106.5 376.5,-85.5 285.5,-85.5"/>
<text text-anchor="middle" x="331" y="-93.5" font-family="Helvetica,sans-Serif" font-size="10.00">progs/Ant&#45;info.cc</text>
</a>
</g>
<!-- Node58&#45;&gt;Node60 -->
<g id="edge6" class="edge"><title>Node58&#45;&gt;Node60</title>
<path fill="none" stroke="midnightblue" d="M991.356,-171.605C847.043,-165.732 498.682,-148.946 385,-120 373.07,-116.962 360.459,-111.499 350.427,-106.552"/>
<polygon fill="midnightblue" stroke="midnightblue" points="991.256,-175.104 1001.39,-172.009 991.537,-168.109 991.256,-175.104"/>
</g>
<!-- Node61 -->
<g id="node9" class="node"><title>Node61</title>
<a xlink:href="_ant-make_tagg_eff_8cc.html" target="_top" xlink:title="progs/Ant&#45;makeTaggEff.cc">
<polygon fill="white" stroke="black" points="394,-85.5 394,-106.5 528,-106.5 528,-85.5 394,-85.5"/>
<text text-anchor="middle" x="461" y="-93.5" font-family="Helvetica,sans-Serif" font-size="10.00">progs/Ant&#45;makeTaggEff.cc</text>
</a>
</g>
<!-- Node58&#45;&gt;Node61 -->
<g id="edge8" class="edge"><title>Node58&#45;&gt;Node61</title>
<path fill="none" stroke="midnightblue" d="M991.047,-171.488C892.597,-166.692 698.383,-153.534 537,-120 521.014,-116.678 503.618,-111.32 489.508,-106.508"/>
<polygon fill="midnightblue" stroke="midnightblue" points="990.98,-174.989 1001.13,-171.967 991.311,-167.997 990.98,-174.989"/>
</g>
<!-- Node62 -->
<g id="node11" class="node"><title>Node62</title>
<a xlink:href="_ant-rawdump_8cc.html" target="_top" xlink:title="progs/Ant&#45;rawdump.cc">
<polygon fill="white" stroke="black" points="545.5,-85.5 545.5,-106.5 660.5,-106.5 660.5,-85.5 545.5,-85.5"/>
<text text-anchor="middle" x="603" y="-93.5" font-family="Helvetica,sans-Serif" font-size="10.00">progs/Ant&#45;rawdump.cc</text>
</a>
</g>
<!-- Node58&#45;&gt;Node62 -->
<g id="edge10" class="edge"><title>Node58&#45;&gt;Node62</title>
<path fill="none" stroke="midnightblue" d="M991.203,-169.201C914.019,-162.454 780.546,-147.757 669,-120 655.275,-116.585 640.437,-111.337 628.313,-106.618"/>
<polygon fill="midnightblue" stroke="midnightblue" points="990.99,-172.696 1001.25,-170.063 991.588,-165.721 990.99,-172.696"/>
</g>
<!-- Node63 -->
<g id="node13" class="node"><title>Node63</title>
<a xlink:href="_proton_vertex_test_8cc.html" target="_top" xlink:title="src/analysis/physics\l/scratch/wolfes/ProtonVertex\lTest.cc">
<polygon fill="white" stroke="black" points="677.5,-72.5 677.5,-119.5 820.5,-119.5 820.5,-72.5 677.5,-72.5"/>
<text text-anchor="start" x="685.5" y="-106.5" font-family="Helvetica,sans-Serif" font-size="10.00">src/analysis/physics</text>
<text text-anchor="start" x="685.5" y="-93.5" font-family="Helvetica,sans-Serif" font-size="10.00">/scratch/wolfes/ProtonVertex</text>
<text text-anchor="middle" x="749" y="-80.5" font-family="Helvetica,sans-Serif" font-size="10.00">Test.cc</text>
</a>
</g>
<!-- Node58&#45;&gt;Node63 -->
<g id="edge12" class="edge"><title>Node58&#45;&gt;Node63</title>
<path fill="none" stroke="midnightblue" d="M991.356,-159.812C945.939,-149.439 883.503,-134.674 829,-120 826.34,-119.284 823.634,-118.542 820.903,-117.781"/>
<polygon fill="midnightblue" stroke="midnightblue" points="990.83,-163.281 1001.36,-162.088 992.384,-156.456 990.83,-163.281"/>
</g>
<!-- Node58&#45;&gt;Node64 -->
<g id="edge14" class="edge"><title>Node58&#45;&gt;Node64</title>
<path fill="none" stroke="midnightblue" d="M991.181,-172.228C812.183,-166.937 307.84,-149.751 145,-120 128.471,-116.98 110.519,-111.518 96.1097,-106.567"/>
<polygon fill="midnightblue" stroke="midnightblue" points="991.135,-175.728 1001.23,-172.523 991.34,-168.731 991.135,-175.728"/>
</g>
<!-- Node65 -->
<g id="node17" class="node"><title>Node65</title>
<a xlink:href="_setup_8cc.html" target="_top" xlink:title="src/expconfig/setups\l/Setup.cc">
<polygon fill="white" stroke="black" points="837.5,-79 837.5,-113 944.5,-113 944.5,-79 837.5,-79"/>
<text text-anchor="start" x="845.5" y="-100" font-family="Helvetica,sans-Serif" font-size="10.00">src/expconfig/setups</text>
<text text-anchor="middle" x="891" y="-87" font-family="Helvetica,sans-Serif" font-size="10.00">/Setup.cc</text>
</a>
</g>
<!-- Node58&#45;&gt;Node65 -->
<g id="edge16" class="edge"><title>Node58&#45;&gt;Node65</title>
<path fill="none" stroke="midnightblue" d="M1009.7,-152.456C983.598,-140.04 951.241,-124.651 926.907,-113.078"/>
<polygon fill="midnightblue" stroke="midnightblue" points="1008.48,-155.748 1019.01,-156.883 1011.48,-149.427 1008.48,-155.748"/>
</g>
<!-- Node66 -->
<g id="node19" class="node"><title>Node66</title>
<a xlink:href="_setup__2007___base_8h.html" target="_top" xlink:title="src/expconfig/setups\l/Setup_2007_Base.h">
<polygon fill="white" stroke="black" points="961.5,-79 961.5,-113 1068.5,-113 1068.5,-79 961.5,-79"/>
<text text-anchor="start" x="969.5" y="-100" font-family="Helvetica,sans-Serif" font-size="10.00">src/expconfig/setups</text>
<text text-anchor="middle" x="1015" y="-87" font-family="Helvetica,sans-Serif" font-size="10.00">/Setup_2007_Base.h</text>
</a>
</g>
<!-- Node58&#45;&gt;Node66 -->
<g id="edge18" class="edge"><title>Node58&#45;&gt;Node66</title>
<path fill="none" stroke="midnightblue" d="M1041.48,-147.635C1035.66,-136.293 1029.03,-123.352 1023.85,-113.262"/>
<polygon fill="midnightblue" stroke="midnightblue" points="1038.45,-149.388 1046.12,-156.689 1044.67,-146.194 1038.45,-149.388"/>
</g>
<!-- Node69 -->
<g id="node25" class="node"><title>Node69</title>
<a xlink:href="_setup__2007___base_8cc.html" target="_top" xlink:title="src/expconfig/setups\l/Setup_2007_Base.cc">
<polygon fill="white" stroke="black" points="958.5,-1 958.5,-35 1071.5,-35 1071.5,-1 958.5,-1"/>
<text text-anchor="start" x="966.5" y="-22" font-family="Helvetica,sans-Serif" font-size="10.00">src/expconfig/setups</text>
<text text-anchor="middle" x="1015" y="-9" font-family="Helvetica,sans-Serif" font-size="10.00">/Setup_2007_Base.cc</text>
</a>
</g>
<!-- Node58&#45;&gt;Node69 -->
<g id="edge26" class="edge"><title>Node58&#45;&gt;Node69</title>
<path fill="none" stroke="midnightblue" d="M1069.49,-147.636C1079.09,-126.444 1088.06,-96.307 1077,-72 1070.08,-56.7996 1056.54,-44.214 1043.87,-35.028"/>
<polygon fill="midnightblue" stroke="midnightblue" points="1066.31,-146.165 1065.1,-156.69 1072.61,-149.217 1066.31,-146.165"/>
</g>
<!-- Node70 -->
<g id="node28" class="node"><title>Node70</title>
<a xlink:href="_setup__2012__12___compton_8cc.html" target="_top" xlink:title="src/expconfig/setups\l/Setup_2012_12_Compton.cc">
<polygon fill="white" stroke="black" points="1124,-79 1124,-113 1270,-113 1270,-79 1124,-79"/>
<text text-anchor="start" x="1132" y="-100" font-family="Helvetica,sans-Serif" font-size="10.00">src/expconfig/setups</text>
<text text-anchor="middle" x="1197" y="-87" font-family="Helvetica,sans-Serif" font-size="10.00">/Setup_2012_12_Compton.cc</text>
</a>
</g>
<!-- Node58&#45;&gt;Node70 -->
<g id="edge28" class="edge"><title>Node58&#45;&gt;Node70</title>
<path fill="none" stroke="midnightblue" d="M1095.12,-151.964C1117.56,-139.636 1145.12,-124.499 1165.91,-113.078"/>
<polygon fill="midnightblue" stroke="midnightblue" points="1093.24,-149 1086.16,-156.883 1096.61,-155.136 1093.24,-149"/>
</g>
<!-- Node71 -->
<g id="node30" class="node"><title>Node71</title>
<a xlink:href="_setup__2014___e_p_t_8h.html" target="_top" xlink:title="src/expconfig/setups\l/Setup_2014_EPT.h">
<polygon fill="white" stroke="black" points="1287.5,-79 1287.5,-113 1394.5,-113 1394.5,-79 1287.5,-79"/>
<text text-anchor="start" x="1295.5" y="-100" font-family="Helvetica,sans-Serif" font-size="10.00">src/expconfig/setups</text>
<text text-anchor="middle" x="1341" y="-87" font-family="Helvetica,sans-Serif" font-size="10.00">/Setup_2014_EPT.h</text>
</a>
</g>
<!-- Node58&#45;&gt;Node71 -->
<g id="edge30" class="edge"><title>Node58&#45;&gt;Node71</title>
<path fill="none" stroke="midnightblue" d="M1118.67,-155.67C1190.26,-137.977 1211.44,-140.455 1279,-120 1285.74,-117.96 1292.79,-115.529 1299.61,-113.01"/>
<polygon fill="midnightblue" stroke="midnightblue" points="1117.55,-152.341 1108.71,-158.179 1119.26,-159.129 1117.55,-152.341"/>
</g>
<!-- Node76 -->
<g id="node40" class="node"><title>Node76</title>
<a xlink:href="_setup__2015__01___pion_8cc.html" target="_top" xlink:title="src/expconfig/setups\l/Setup_2015_01_Pion.cc">
<polygon fill="white" stroke="black" points="1720.5,-1 1720.5,-35 1845.5,-35 1845.5,-1 1720.5,-1"/>
<text text-anchor="start" x="1728.5" y="-22" font-family="Helvetica,sans-Serif" font-size="10.00">src/expconfig/setups</text>
<text text-anchor="middle" x="1783" y="-9" font-family="Helvetica,sans-Serif" font-size="10.00">/Setup_2015_01_Pion.cc</text>
</a>
</g>
<!-- Node58&#45;&gt;Node76 -->
<g id="edge40" class="edge"><title>Node58&#45;&gt;Node76</title>
<path fill="none" stroke="midnightblue" d="M1118.67,-155.902C1244.99,-132.669 1294.22,-181.301 1403,-120 1426.7,-106.641 1417.34,-85.4397 1441,-72 1546.65,-11.9853 1592.69,-58.9682 1712,-36 1714.75,-35.4712 1717.55,-34.9003 1720.37,-34.2985"/>
<polygon fill="midnightblue" stroke="midnightblue" points="1117.78,-152.51 1108.64,-157.867 1119.13,-159.379 1117.78,-152.51"/>
</g>
<!-- Node77 -->
<g id="node42" class="node"><title>Node77</title>
<a xlink:href="_setup__2015__01___pion_8h.html" target="_top" xlink:title="src/expconfig/setups\l/Setup_2015_01_Pion.h">
<polygon fill="white" stroke="black" points="1450,-79 1450,-113 1570,-113 1570,-79 1450,-79"/>
<text text-anchor="start" x="1458" y="-100" font-family="Helvetica,sans-Serif" font-size="10.00">src/expconfig/setups</text>
<text text-anchor="middle" x="1510" y="-87" font-family="Helvetica,sans-Serif" font-size="10.00">/Setup_2015_01_Pion.h</text>
</a>
</g>
<!-- Node58&#45;&gt;Node77 -->
<g id="edge42" class="edge"><title>Node58&#45;&gt;Node77</title>
<path fill="none" stroke="midnightblue" d="M1118.46,-155.893C1258.74,-128.977 1299.68,-149.483 1436,-120 1444.58,-118.144 1453.57,-115.684 1462.22,-113.045"/>
<polygon fill="midnightblue" stroke="midnightblue" points="1117.77,-152.462 1108.63,-157.824 1119.12,-159.33 1117.77,-152.462"/>
</g>
<!-- Node78 -->
<g id="node45" class="node"><title>Node78</title>
<a xlink:href="_setup__2017__03_8h.html" target="_top" xlink:title="src/expconfig/setups\l/Setup_2017_03.h">
<polygon fill="white" stroke="black" points="1587.5,-79 1587.5,-113 1694.5,-113 1694.5,-79 1587.5,-79"/>
<text text-anchor="start" x="1595.5" y="-100" font-family="Helvetica,sans-Serif" font-size="10.00">src/expconfig/setups</text>
<text text-anchor="middle" x="1641" y="-87" font-family="Helvetica,sans-Serif" font-size="10.00">/Setup_2017_03.h</text>
</a>
</g>
<!-- Node58&#45;&gt;Node78 -->
<g id="edge46" class="edge"><title>Node58&#45;&gt;Node78</title>
<path fill="none" stroke="midnightblue" d="M1118.69,-155.907C1321.55,-120.572 1381.41,-164.923 1579,-120 1586.65,-118.26 1594.62,-115.751 1602.18,-113.004"/>
<polygon fill="midnightblue" stroke="midnightblue" points="1117.84,-152.504 1108.61,-157.708 1119.07,-159.395 1117.84,-152.504"/>
</g>
<!-- Node80 -->
<g id="node49" class="node"><title>Node80</title>
<a xlink:href="_setup___c_b_source_calib_8cc.html" target="_top" xlink:title="src/expconfig/setups\l/Setup_CBSourceCalib.cc">
<polygon fill="white" stroke="black" points="1711.5,-79 1711.5,-113 1842.5,-113 1842.5,-79 1711.5,-79"/>
<text text-anchor="start" x="1719.5" y="-100" font-family="Helvetica,sans-Serif" font-size="10.00">src/expconfig/setups</text>
<text text-anchor="middle" x="1777" y="-87" font-family="Helvetica,sans-Serif" font-size="10.00">/Setup_CBSourceCalib.cc</text>
</a>
</g>
<!-- Node58&#45;&gt;Node80 -->
<g id="edge50" class="edge"><title>Node58&#45;&gt;Node80</title>
<path fill="none" stroke="midnightblue" d="M1118.62,-155.939C1375.96,-112.789 1449.89,-168.019 1703,-120 1712.02,-118.288 1721.47,-115.792 1730.49,-113.05"/>
<polygon fill="midnightblue" stroke="midnightblue" points="1117.86,-152.517 1108.6,-157.653 1119.04,-159.416 1117.86,-152.517"/>
</g>
<!-- Node81 -->
<g id="node51" class="node"><title>Node81</title>
<a xlink:href="_setup_registry_8cc.html" target="_top" xlink:title="src/expconfig/setups\l/SetupRegistry.cc">
<polygon fill="white" stroke="black" points="1859.5,-79 1859.5,-113 1966.5,-113 1966.5,-79 1859.5,-79"/>
<text text-anchor="start" x="1867.5" y="-100" font-family="Helvetica,sans-Serif" font-size="10.00">src/expconfig/setups</text>
<text text-anchor="middle" x="1913" y="-87" font-family="Helvetica,sans-Serif" font-size="10.00">/SetupRegistry.cc</text>
</a>
</g>
<!-- Node58&#45;&gt;Node81 -->
<g id="edge52" class="edge"><title>Node58&#45;&gt;Node81</title>
<path fill="none" stroke="midnightblue" d="M1118.68,-155.948C1441.05,-103.843 1534.78,-187.126 1851,-120 1858.79,-118.346 1866.89,-115.84 1874.56,-113.062"/>
<polygon fill="midnightblue" stroke="midnightblue" points="1117.89,-152.531 1108.59,-157.611 1119.03,-159.438 1117.89,-152.531"/>
</g>
<!-- Node82 -->
<g id="node53" class="node"><title>Node82</title>
<a xlink:href="expconfig__helpers_8cc.html" target="_top" xlink:title="test/expconfig_helpers.cc">
<polygon fill="white" stroke="black" points="1984,-85.5 1984,-106.5 2112,-106.5 2112,-85.5 1984,-85.5"/>
<text text-anchor="middle" x="2048" y="-93.5" font-family="Helvetica,sans-Serif" font-size="10.00">test/expconfig_helpers.cc</text>
</a>
</g>
<!-- Node58&#45;&gt;Node82 -->
<g id="edge54" class="edge"><title>Node58&#45;&gt;Node82</title>
<path fill="none" stroke="midnightblue" d="M1118.68,-155.956C1495.54,-95.9858 1602.78,-187.649 1975,-120 1990.88,-117.113 2008.06,-111.594 2021.76,-106.575"/>
<polygon fill="midnightblue" stroke="midnightblue" points="1117.9,-152.536 1108.59,-157.587 1119.02,-159.446 1117.9,-152.536"/>
</g>
<!-- Node67 -->
<g id="node21" class="node"><title>Node67</title>
<a xlink:href="_setup__2007__06_8cc.html" target="_top" xlink:title="src/expconfig/setups\l/Setup_2007_06.cc">
<polygon fill="white" stroke="black" points="710.5,-1 710.5,-35 817.5,-35 817.5,-1 710.5,-1"/>
<text text-anchor="start" x="718.5" y="-22" font-family="Helvetica,sans-Serif" font-size="10.00">src/expconfig/setups</text>
<text text-anchor="middle" x="764" y="-9" font-family="Helvetica,sans-Serif" font-size="10.00">/Setup_2007_06.cc</text>
</a>
</g>
<!-- Node66&#45;&gt;Node67 -->
<g id="edge20" class="edge"><title>Node66&#45;&gt;Node67</title>
<path fill="none" stroke="midnightblue" d="M963.001,-75.4682C959.628,-74.2616 956.274,-73.0949 953,-72 897.361,-53.3904 882.393,-52.1787 826,-36 823.307,-35.2273 820.548,-34.4338 817.762,-33.631"/>
<polygon fill="midnightblue" stroke="midnightblue" points="961.905,-78.7943 972.499,-78.9484 964.314,-72.2216 961.905,-78.7943"/>
</g>
<!-- Node68 -->
<g id="node23" class="node"><title>Node68</title>
<a xlink:href="_setup__2007__07_8cc.html" target="_top" xlink:title="src/expconfig/setups\l/Setup_2007_07.cc">
<polygon fill="white" stroke="black" points="834.5,-1 834.5,-35 941.5,-35 941.5,-1 834.5,-1"/>
<text text-anchor="start" x="842.5" y="-22" font-family="Helvetica,sans-Serif" font-size="10.00">src/expconfig/setups</text>
<text text-anchor="middle" x="888" y="-9" font-family="Helvetica,sans-Serif" font-size="10.00">/Setup_2007_07.cc</text>
</a>
</g>
<!-- Node66&#45;&gt;Node68 -->
<g id="edge22" class="edge"><title>Node66&#45;&gt;Node68</title>
<path fill="none" stroke="midnightblue" d="M978.585,-73.6346C958.611,-61.3672 934.237,-46.3975 915.806,-35.0775"/>
<polygon fill="midnightblue" stroke="midnightblue" points="976.776,-76.6315 987.129,-78.8826 980.44,-70.6666 976.776,-76.6315"/>
</g>
<!-- Node66&#45;&gt;Node69 -->
<g id="edge24" class="edge"><title>Node66&#45;&gt;Node69</title>
<path fill="none" stroke="midnightblue" d="M1015,-68.6102C1015,-57.5188 1015,-45.0489 1015,-35.2623"/>
<polygon fill="midnightblue" stroke="midnightblue" points="1011.5,-68.6892 1015,-78.6893 1018.5,-68.6893 1011.5,-68.6892"/>
</g>
<!-- Node72 -->
<g id="node32" class="node"><title>Node72</title>
<a xlink:href="_setup__2014__07___e_p_t___prod_8cc.html" target="_top" xlink:title="src/expconfig/setups\l/Setup_2014_07_EPT_Prod.cc">
<polygon fill="white" stroke="black" points="1088.5,-1 1088.5,-35 1239.5,-35 1239.5,-1 1088.5,-1"/>
<text text-anchor="start" x="1096.5" y="-22" font-family="Helvetica,sans-Serif" font-size="10.00">src/expconfig/setups</text>
<text text-anchor="middle" x="1164" y="-9" font-family="Helvetica,sans-Serif" font-size="10.00">/Setup_2014_07_EPT_Prod.cc</text>
</a>
</g>
<!-- Node71&#45;&gt;Node72 -->
<g id="edge32" class="edge"><title>Node71&#45;&gt;Node72</title>
<path fill="none" stroke="midnightblue" d="M1292.85,-74.7816C1264.55,-62.3105 1229.25,-46.7529 1202.75,-35.0775"/>
<polygon fill="midnightblue" stroke="midnightblue" points="1291.59,-78.0527 1302.16,-78.8826 1294.42,-71.6471 1291.59,-78.0527"/>
</g>
<!-- Node73 -->
<g id="node34" class="node"><title>Node73</title>
<a xlink:href="_setup__2014__10___e_p_t___prod_8cc.html" target="_top" xlink:title="src/expconfig/setups\l/Setup_2014_10_EPT_Prod.cc">
<polygon fill="white" stroke="black" points="1256.5,-1 1256.5,-35 1407.5,-35 1407.5,-1 1256.5,-1"/>
<text text-anchor="start" x="1264.5" y="-22" font-family="Helvetica,sans-Serif" font-size="10.00">src/expconfig/setups</text>
<text text-anchor="middle" x="1332" y="-9" font-family="Helvetica,sans-Serif" font-size="10.00">/Setup_2014_10_EPT_Prod.cc</text>
</a>
</g>
<!-- Node71&#45;&gt;Node73 -->
<g id="edge34" class="edge"><title>Node71&#45;&gt;Node73</title>
<path fill="none" stroke="midnightblue" d="M1337.84,-68.6102C1336.56,-57.5188 1335.12,-45.0489 1333.99,-35.2623"/>
<polygon fill="midnightblue" stroke="midnightblue" points="1334.38,-69.1564 1339,-78.6893 1341.33,-68.354 1334.38,-69.1564"/>
</g>
<!-- Node74 -->
<g id="node36" class="node"><title>Node74</title>
<a xlink:href="_setup__2014__12___e_p_t___prod_8cc.html" target="_top" xlink:title="src/expconfig/setups\l/Setup_2014_12_EPT_Prod.cc">
<polygon fill="white" stroke="black" points="1424.5,-1 1424.5,-35 1575.5,-35 1575.5,-1 1424.5,-1"/>
<text text-anchor="start" x="1432.5" y="-22" font-family="Helvetica,sans-Serif" font-size="10.00">src/expconfig/setups</text>
<text text-anchor="middle" x="1500" y="-9" font-family="Helvetica,sans-Serif" font-size="10.00">/Setup_2014_12_EPT_Prod.cc</text>
</a>
</g>
<!-- Node71&#45;&gt;Node74 -->
<g id="edge36" class="edge"><title>Node71&#45;&gt;Node74</title>
<path fill="none" stroke="midnightblue" d="M1384.92,-74.4556C1410.23,-62.0403 1441.6,-46.6513 1465.19,-35.0775"/>
<polygon fill="midnightblue" stroke="midnightblue" points="1383.33,-71.336 1375.89,-78.8826 1386.41,-77.6205 1383.33,-71.336"/>
</g>
<!-- Node75 -->
<g id="node38" class="node"><title>Node75</title>
<a xlink:href="_setup__2014___e_p_t_8cc.html" target="_top" xlink:title="src/expconfig/setups\l/Setup_2014_EPT.cc">
<polygon fill="white" stroke="black" points="1593,-1 1593,-35 1703,-35 1703,-1 1593,-1"/>
<text text-anchor="start" x="1601" y="-22" font-family="Helvetica,sans-Serif" font-size="10.00">src/expconfig/setups</text>
<text text-anchor="middle" x="1648" y="-9" font-family="Helvetica,sans-Serif" font-size="10.00">/Setup_2014_EPT.cc</text>
</a>
</g>
<!-- Node71&#45;&gt;Node75 -->
<g id="edge38" class="edge"><title>Node71&#45;&gt;Node75</title>
<path fill="none" stroke="midnightblue" d="M1395.53,-75.7482C1399.73,-74.4099 1403.92,-73.1425 1408,-72 1484.89,-50.4832 1506.41,-54.8207 1584,-36 1586.92,-35.2926 1589.9,-34.5432 1592.91,-33.7677"/>
<polygon fill="midnightblue" stroke="midnightblue" points="1394.16,-72.5127 1385.77,-78.9741 1396.36,-79.1591 1394.16,-72.5127"/>
</g>
<!-- Node77&#45;&gt;Node76 -->
<g id="edge44" class="edge"><title>Node77&#45;&gt;Node76</title>
<path fill="none" stroke="midnightblue" d="M1566.89,-75.8337C1570.97,-74.5014 1575.04,-73.21 1579,-72 1605.19,-63.9919 1670.36,-46.921 1720.05,-34.1034"/>
<polygon fill="midnightblue" stroke="midnightblue" points="1565.74,-72.5252 1557.35,-78.998 1567.95,-79.1687 1565.74,-72.5252"/>
</g>
<!-- Node79 -->
<g id="node47" class="node"><title>Node79</title>
<a xlink:href="_setup__2017__03_8cc.html" target="_top" xlink:title="src/expconfig/setups\l/Setup_2017_03.cc">
<polygon fill="white" stroke="black" points="1862.5,-1 1862.5,-35 1969.5,-35 1969.5,-1 1862.5,-1"/>
<text text-anchor="start" x="1870.5" y="-22" font-family="Helvetica,sans-Serif" font-size="10.00">src/expconfig/setups</text>
<text text-anchor="middle" x="1916" y="-9" font-family="Helvetica,sans-Serif" font-size="10.00">/Setup_2017_03.cc</text>
</a>
</g>
<!-- Node78&#45;&gt;Node79 -->
<g id="edge48" class="edge"><title>Node78&#45;&gt;Node79</title>
<path fill="none" stroke="midnightblue" d="M1692.28,-75.5373C1695.89,-74.2862 1699.49,-73.0932 1703,-72 1768.88,-51.5003 1787.3,-53.623 1854,-36 1856.71,-35.2842 1859.48,-34.5366 1862.28,-33.7702"/>
<polygon fill="midnightblue" stroke="midnightblue" points="1690.98,-72.284 1682.75,-78.9557 1693.35,-78.8728 1690.98,-72.284"/>
</g>
</g>
</svg>
