<?xml version="1.0" encoding="UTF-8" standalone="no"?>
<!DOCTYPE svg PUBLIC "-//W3C//DTD SVG 1.1//EN"
 "http://www.w3.org/Graphics/SVG/1.1/DTD/svg11.dtd">
<!-- Generated by graphviz version 2.26.3 (20100126.1600)
 -->
<!-- Title: src/analysis/slowcontrol/variables/Variable.h Pages: 1 -->
<svg width="1580pt" height="272pt"
 viewBox="0.00 0.00 1580.00 272.00" xmlns="http://www.w3.org/2000/svg" xmlns:xlink="http://www.w3.org/1999/xlink">
<g id="graph1" class="graph" transform="scale(1 1) rotate(0) translate(4 268)">
<title>src/analysis/slowcontrol/variables/Variable.h</title>
<polygon fill="white" stroke="white" points="-4,5 -4,-268 1577,-268 1577,5 -4,5"/>
<!-- Node57 -->
<g id="node1" class="node"><title>Node57</title>
<polygon fill="#bfbfbf" stroke="black" points="785,-229 785,-263 907,-263 907,-229 785,-229"/>
<text text-anchor="start" x="793" y="-250" font-family="Helvetica,sans-Serif" font-size="10.00">src/analysis/slowcontrol</text>
<text text-anchor="middle" x="846" y="-237" font-family="Helvetica,sans-Serif" font-size="10.00">/variables/Variable.h</text>
</g>
<!-- Node58 -->
<g id="node3" class="node"><title>Node58</title>
<a xlink:href="_slow_control_variables_8h.html" target="_top" xlink:title="src/analysis/slowcontrol\l/SlowControlVariables.h">
<polygon fill="white" stroke="black" points="741,-85 741,-119 863,-119 863,-85 741,-85"/>
<text text-anchor="start" x="749" y="-106" font-family="Helvetica,sans-Serif" font-size="10.00">src/analysis/slowcontrol</text>
<text text-anchor="middle" x="802" y="-93" font-family="Helvetica,sans-Serif" font-size="10.00">/SlowControlVariables.h</text>
</a>
</g>
<!-- Node57&#45;&gt;Node58 -->
<g id="edge2" class="edge"><title>Node57&#45;&gt;Node58</title>
<path fill="none" stroke="midnightblue" d="M832.374,-219.691C828.287,-211.038 824.077,-201.26 821,-192 812.792,-167.298 807.333,-137.565 804.451,-119.223"/>
<polygon fill="midnightblue" stroke="midnightblue" points="829.337,-221.446 836.871,-228.895 835.626,-218.374 829.337,-221.446"/>
</g>
<!-- Node70 -->
<g id="node27" class="node"><title>Node70</title>
<a xlink:href="_tagger_scalers_8h.html" target="_top" xlink:title="src/analysis/slowcontrol\l/variables/TaggerScalers.h">
<polygon fill="white" stroke="black" points="501.5,-157 501.5,-191 634.5,-191 634.5,-157 501.5,-157"/>
<text text-anchor="start" x="509.5" y="-178" font-family="Helvetica,sans-Serif" font-size="10.00">src/analysis/slowcontrol</text>
<text text-anchor="middle" x="568" y="-165" font-family="Helvetica,sans-Serif" font-size="10.00">/variables/TaggerScalers.h</text>
</a>
</g>
<!-- Node57&#45;&gt;Node70 -->
<g id="edge26" class="edge"><title>Node57&#45;&gt;Node70</title>
<path fill="none" stroke="midnightblue" d="M775.051,-227.625C731.543,-216.357 676.227,-202.03 633.717,-191.02"/>
<polygon fill="midnightblue" stroke="midnightblue" points="774.434,-231.08 784.992,-230.199 776.189,-224.304 774.434,-231.08"/>
</g>
<!-- Node72 -->
<g id="node32" class="node"><title>Node72</title>
<a xlink:href="_clocks_8h.html" target="_top" xlink:title="src/analysis/slowcontrol\l/variables/Clocks.h">
<polygon fill="white" stroke="black" points="652,-157 652,-191 774,-191 774,-157 652,-157"/>
<text text-anchor="start" x="660" y="-178" font-family="Helvetica,sans-Serif" font-size="10.00">src/analysis/slowcontrol</text>
<text text-anchor="middle" x="713" y="-165" font-family="Helvetica,sans-Serif" font-size="10.00">/variables/Clocks.h</text>
</a>
</g>
<!-- Node57&#45;&gt;Node72 -->
<g id="edge32" class="edge"><title>Node57&#45;&gt;Node72</title>
<path fill="none" stroke="midnightblue" d="M805.515,-224.083C786.012,-213.525 762.966,-201.049 744.754,-191.19"/>
<polygon fill="midnightblue" stroke="midnightblue" points="804.021,-227.254 814.481,-228.937 807.353,-221.098 804.021,-227.254"/>
</g>
<!-- Node74 -->
<g id="node37" class="node"><title>Node74</title>
<a xlink:href="_beam_8h.html" target="_top" xlink:title="src/analysis/slowcontrol\l/variables/Beam.h">
<polygon fill="white" stroke="black" points="830,-157 830,-191 952,-191 952,-157 830,-157"/>
<text text-anchor="start" x="838" y="-178" font-family="Helvetica,sans-Serif" font-size="10.00">src/analysis/slowcontrol</text>
<text text-anchor="middle" x="891" y="-165" font-family="Helvetica,sans-Serif" font-size="10.00">/variables/Beam.h</text>
</a>
</g>
<!-- Node57&#45;&gt;Node74 -->
<g id="edge38" class="edge"><title>Node57&#45;&gt;Node74</title>
<path fill="none" stroke="midnightblue" d="M862.123,-220.203C868.089,-210.658 874.706,-200.07 880.1,-191.441"/>
<polygon fill="midnightblue" stroke="midnightblue" points="858.996,-218.602 856.664,-228.937 864.932,-222.312 858.996,-218.602"/>
</g>
<!-- Node76 -->
<g id="node42" class="node"><title>Node76</title>
<a xlink:href="variables_2_pair_spec_8h.html" target="_top" xlink:title="src/analysis/slowcontrol\l/variables/Pairspec.h">
<polygon fill="white" stroke="black" points="970,-157 970,-191 1092,-191 1092,-157 970,-157"/>
<text text-anchor="start" x="978" y="-178" font-family="Helvetica,sans-Serif" font-size="10.00">src/analysis/slowcontrol</text>
<text text-anchor="middle" x="1031" y="-165" font-family="Helvetica,sans-Serif" font-size="10.00">/variables/Pairspec.h</text>
</a>
</g>
<!-- Node57&#45;&gt;Node76 -->
<g id="edge44" class="edge"><title>Node57&#45;&gt;Node76</title>
<path fill="none" stroke="midnightblue" d="M899.424,-225.208C927.254,-214.377 960.866,-201.295 987.152,-191.065"/>
<polygon fill="midnightblue" stroke="midnightblue" points="897.892,-222.048 889.842,-228.937 900.431,-228.572 897.892,-222.048"/>
</g>
<!-- Node78 -->
<g id="node47" class="node"><title>Node78</title>
<a xlink:href="analysis_2slowcontrol_2variables_2_trigger_8h.html" target="_top" xlink:title="src/analysis/slowcontrol\l/variables/Trigger.h">
<polygon fill="white" stroke="black" points="1110,-157 1110,-191 1232,-191 1232,-157 1110,-157"/>
<text text-anchor="start" x="1118" y="-178" font-family="Helvetica,sans-Serif" font-size="10.00">src/analysis/slowcontrol</text>
<text text-anchor="middle" x="1171" y="-165" font-family="Helvetica,sans-Serif" font-size="10.00">/variables/Trigger.h</text>
</a>
</g>
<!-- Node57&#45;&gt;Node78 -->
<g id="edge50" class="edge"><title>Node57&#45;&gt;Node78</title>
<path fill="none" stroke="midnightblue" d="M917.2,-231.777C968.443,-221.332 1039.15,-206.495 1101,-192 1103.93,-191.313 1106.93,-190.596 1109.95,-189.862"/>
<polygon fill="midnightblue" stroke="midnightblue" points="916.322,-228.384 907.219,-233.806 917.716,-235.243 916.322,-228.384"/>
</g>
<!-- Node59 -->
<g id="node5" class="node"><title>Node59</title>
<a xlink:href="_debug_physics_8cc.html" target="_top" xlink:title="src/analysis/physics\l/common/DebugPhysics.cc">
<polygon fill="white" stroke="black" points="-0.5,-7 -0.5,-41 136.5,-41 136.5,-7 -0.5,-7"/>
<text text-anchor="start" x="7.5" y="-28" font-family="Helvetica,sans-Serif" font-size="10.00">src/analysis/physics</text>
<text text-anchor="middle" x="68" y="-15" font-family="Helvetica,sans-Serif" font-size="10.00">/common/DebugPhysics.cc</text>
</a>
</g>
<!-- Node58&#45;&gt;Node59 -->
<g id="edge4" class="edge"><title>Node58&#45;&gt;Node59</title>
<path fill="none" stroke="midnightblue" d="M730.608,-83.9631C471.963,-44.5718 398.813,-94.6317 145,-48 135.635,-46.2794 125.813,-43.7796 116.436,-41.0358"/>
<polygon fill="midnightblue" stroke="midnightblue" points="730.26,-87.4509 740.678,-85.5275 731.334,-80.5339 730.26,-87.4509"/>
</g>
<!-- Node60 -->
<g id="node7" class="node"><title>Node60</title>
<a xlink:href="_extract_scalers_8cc.html" target="_top" xlink:title="src/analysis/physics\l/common/ExtractScalers.cc">
<polygon fill="white" stroke="black" points="154,-7 154,-41 292,-41 292,-7 154,-7"/>
<text text-anchor="start" x="162" y="-28" font-family="Helvetica,sans-Serif" font-size="10.00">src/analysis/physics</text>
<text text-anchor="middle" x="223" y="-15" font-family="Helvetica,sans-Serif" font-size="10.00">/common/ExtractScalers.cc</text>
</a>
</g>
<!-- Node58&#45;&gt;Node60 -->
<g id="edge6" class="edge"><title>Node58&#45;&gt;Node60</title>
<path fill="none" stroke="midnightblue" d="M730.63,-83.9375C540.626,-53.0424 486.505,-83.8525 301,-48 291.819,-46.2256 282.187,-43.7709 272.948,-41.1046"/>
<polygon fill="midnightblue" stroke="midnightblue" points="730.227,-87.4184 740.666,-85.6056 731.375,-80.5131 730.227,-87.4184"/>
</g>
<!-- Node61 -->
<g id="node9" class="node"><title>Node61</title>
<a xlink:href="_process_tagg_eff_8cc.html" target="_top" xlink:title="src/analysis/physics\l/common/ProcessTaggEff.cc">
<polygon fill="white" stroke="black" points="310,-7 310,-41 454,-41 454,-7 310,-7"/>
<text text-anchor="start" x="318" y="-28" font-family="Helvetica,sans-Serif" font-size="10.00">src/analysis/physics</text>
<text text-anchor="middle" x="382" y="-15" font-family="Helvetica,sans-Serif" font-size="10.00">/common/ProcessTaggEff.cc</text>
</a>
</g>
<!-- Node58&#45;&gt;Node61 -->
<g id="edge8" class="edge"><title>Node58&#45;&gt;Node61</title>
<path fill="none" stroke="midnightblue" d="M730.779,-83.892C611.823,-61.5606 577.848,-72.5446 463,-48 453.964,-46.0689 444.47,-43.6347 435.29,-41.0621"/>
<polygon fill="midnightblue" stroke="midnightblue" points="730.153,-87.3358 740.634,-85.781 731.471,-80.4609 730.153,-87.3358"/>
</g>
<!-- Node62 -->
<g id="node11" class="node"><title>Node62</title>
<a xlink:href="debug_scalers_8cc.html" target="_top" xlink:title="src/analysis/physics\l/misc/debugScalers.cc">
<polygon fill="white" stroke="black" points="472,-7 472,-41 588,-41 588,-7 472,-7"/>
<text text-anchor="start" x="480" y="-28" font-family="Helvetica,sans-Serif" font-size="10.00">src/analysis/physics</text>
<text text-anchor="middle" x="530" y="-15" font-family="Helvetica,sans-Serif" font-size="10.00">/misc/debugScalers.cc</text>
</a>
</g>
<!-- Node58&#45;&gt;Node62 -->
<g id="edge10" class="edge"><title>Node58&#45;&gt;Node62</title>
<path fill="none" stroke="midnightblue" d="M731.081,-83.6407C677.159,-69.6273 610.072,-52.0545 597,-48 590.155,-45.877 582.973,-43.484 575.957,-41.0524"/>
<polygon fill="midnightblue" stroke="midnightblue" points="730.421,-87.0854 740.98,-86.2118 732.181,-80.3102 730.421,-87.0854"/>
</g>
<!-- Node63 -->
<g id="node13" class="node"><title>Node63</title>
<a xlink:href="debug_tagg_eff_8cc.html" target="_top" xlink:title="src/analysis/physics\l/misc/debugTaggEff.cc">
<polygon fill="white" stroke="black" points="606,-7 606,-41 724,-41 724,-7 606,-7"/>
<text text-anchor="start" x="614" y="-28" font-family="Helvetica,sans-Serif" font-size="10.00">src/analysis/physics</text>
<text text-anchor="middle" x="665" y="-15" font-family="Helvetica,sans-Serif" font-size="10.00">/misc/debugTaggEff.cc</text>
</a>
</g>
<!-- Node58&#45;&gt;Node63 -->
<g id="edge12" class="edge"><title>Node58&#45;&gt;Node63</title>
<path fill="none" stroke="midnightblue" d="M763.007,-79.7995C741.406,-67.5015 714.967,-52.4483 694.995,-41.0775"/>
<polygon fill="midnightblue" stroke="midnightblue" points="761.513,-82.9764 771.935,-84.8826 764.976,-76.8932 761.513,-82.9764"/>
</g>
<!-- Node64 -->
<g id="node15" class="node"><title>Node64</title>
<a xlink:href="single_pi0_8cc.html" target="_top" xlink:title="src/analysis/physics\l/production/singlePi0.cc">
<polygon fill="white" stroke="black" points="741.5,-7 741.5,-41 862.5,-41 862.5,-7 741.5,-7"/>
<text text-anchor="start" x="749.5" y="-28" font-family="Helvetica,sans-Serif" font-size="10.00">src/analysis/physics</text>
<text text-anchor="middle" x="802" y="-15" font-family="Helvetica,sans-Serif" font-size="10.00">/production/singlePi0.cc</text>
</a>
</g>
<!-- Node58&#45;&gt;Node64 -->
<g id="edge14" class="edge"><title>Node58&#45;&gt;Node64</title>
<path fill="none" stroke="midnightblue" d="M802,-74.6102C802,-63.5188 802,-51.0489 802,-41.2623"/>
<polygon fill="midnightblue" stroke="midnightblue" points="798.5,-74.6892 802,-84.6893 805.5,-74.6893 798.5,-74.6892"/>
</g>
<!-- Node65 -->
<g id="node17" class="node"><title>Node65</title>
<a xlink:href="cross__section_8cc.html" target="_top" xlink:title="src/analysis/physics\l/scratch/collicott/cross\l_section.cc">
<polygon fill="white" stroke="black" points="880,-0.5 880,-47.5 996,-47.5 996,-0.5 880,-0.5"/>
<text text-anchor="start" x="888" y="-34.5" font-family="Helvetica,sans-Serif" font-size="10.00">src/analysis/physics</text>
<text text-anchor="start" x="888" y="-21.5" font-family="Helvetica,sans-Serif" font-size="10.00">/scratch/collicott/cross</text>
<text text-anchor="middle" x="938" y="-8.5" font-family="Helvetica,sans-Serif" font-size="10.00">_section.cc</text>
</a>
</g>
<!-- Node58&#45;&gt;Node65 -->
<g id="edge16" class="edge"><title>Node58&#45;&gt;Node65</title>
<path fill="none" stroke="midnightblue" d="M840.701,-79.804C858.258,-69.7345 879.037,-57.817 896.876,-47.5861"/>
<polygon fill="midnightblue" stroke="midnightblue" points="838.779,-76.8713 831.846,-84.8826 842.262,-82.9435 838.779,-76.8713"/>
</g>
<!-- Node66 -->
<g id="node19" class="node"><title>Node66</title>
<a xlink:href="det__eff_8cc.html" target="_top" xlink:title="src/analysis/physics\l/scratch/collicott/det\l_eff.cc">
<polygon fill="white" stroke="black" points="1014,-0.5 1014,-47.5 1120,-47.5 1120,-0.5 1014,-0.5"/>
<text text-anchor="start" x="1022" y="-34.5" font-family="Helvetica,sans-Serif" font-size="10.00">src/analysis/physics</text>
<text text-anchor="start" x="1022" y="-21.5" font-family="Helvetica,sans-Serif" font-size="10.00">/scratch/collicott/det</text>
<text text-anchor="middle" x="1067" y="-8.5" font-family="Helvetica,sans-Serif" font-size="10.00">_eff.cc</text>
</a>
</g>
<!-- Node58&#45;&gt;Node66 -->
<g id="edge18" class="edge"><title>Node58&#45;&gt;Node66</title>
<path fill="none" stroke="midnightblue" d="M873.015,-83.5166C926.293,-69.5804 992.166,-52.1772 1005,-48 1007.85,-47.0712 1010.77,-46.0835 1013.7,-45.0585"/>
<polygon fill="midnightblue" stroke="midnightblue" points="872.018,-80.1594 863.229,-86.0745 873.789,-86.9318 872.018,-80.1594"/>
</g>
<!-- Node67 -->
<g id="node21" class="node"><title>Node67</title>
<a xlink:href="_slow_control_manager_8cc.html" target="_top" xlink:title="src/analysis/slowcontrol\l/SlowControlManager.cc">
<polygon fill="white" stroke="black" points="1138,-7 1138,-41 1262,-41 1262,-7 1138,-7"/>
<text text-anchor="start" x="1146" y="-28" font-family="Helvetica,sans-Serif" font-size="10.00">src/analysis/slowcontrol</text>
<text text-anchor="middle" x="1200" y="-15" font-family="Helvetica,sans-Serif" font-size="10.00">/SlowControlManager.cc</text>
</a>
</g>
<!-- Node58&#45;&gt;Node67 -->
<g id="edge20" class="edge"><title>Node58&#45;&gt;Node67</title>
<path fill="none" stroke="midnightblue" d="M873.503,-83.8342C986.998,-62.3062 1019.95,-73.8301 1129,-48 1137.1,-46.0807 1145.59,-43.621 1153.77,-41.0112"/>
<polygon fill="midnightblue" stroke="midnightblue" points="872.52,-80.4598 863.371,-85.8026 873.855,-87.3314 872.52,-80.4598"/>
</g>
<!-- Node68 -->
<g id="node23" class="node"><title>Node68</title>
<a xlink:href="_slow_control_variables_8cc.html" target="_top" xlink:title="src/analysis/slowcontrol\l/SlowControlVariables.cc">
<polygon fill="white" stroke="black" points="1279.5,-7 1279.5,-41 1406.5,-41 1406.5,-7 1279.5,-7"/>
<text text-anchor="start" x="1287.5" y="-28" font-family="Helvetica,sans-Serif" font-size="10.00">src/analysis/slowcontrol</text>
<text text-anchor="middle" x="1343" y="-15" font-family="Helvetica,sans-Serif" font-size="10.00">/SlowControlVariables.cc</text>
</a>
</g>
<!-- Node58&#45;&gt;Node68 -->
<g id="edge22" class="edge"><title>Node58&#45;&gt;Node68</title>
<path fill="none" stroke="midnightblue" d="M873.45,-83.9173C1049.33,-54.8447 1099.94,-83.7215 1271,-48 1279.51,-46.2224 1288.42,-43.7661 1296.96,-41.0993"/>
<polygon fill="midnightblue" stroke="midnightblue" points="872.614,-80.5089 863.339,-85.6291 873.782,-87.4107 872.614,-80.5089"/>
</g>
<!-- Node69 -->
<g id="node25" class="node"><title>Node69</title>
<a xlink:href="_test_slow_control_manager_8cc.html" target="_top" xlink:title="test/analysis/TestSlowControl\lManager.cc">
<polygon fill="white" stroke="black" points="1424,-7 1424,-41 1572,-41 1572,-7 1424,-7"/>
<text text-anchor="start" x="1432" y="-28" font-family="Helvetica,sans-Serif" font-size="10.00">test/analysis/TestSlowControl</text>
<text text-anchor="middle" x="1498" y="-15" font-family="Helvetica,sans-Serif" font-size="10.00">Manager.cc</text>
</a>
</g>
<!-- Node58&#45;&gt;Node69 -->
<g id="edge24" class="edge"><title>Node58&#45;&gt;Node69</title>
<path fill="none" stroke="midnightblue" d="M873.375,-83.9581C1112.65,-46.9088 1180.04,-89.2622 1415,-48 1424.9,-46.2617 1435.3,-43.7893 1445.27,-41.0863"/>
<polygon fill="midnightblue" stroke="midnightblue" points="872.656,-80.5281 863.325,-85.545 873.748,-87.4424 872.656,-80.5281"/>
</g>
<!-- Node70&#45;&gt;Node58 -->
<g id="edge28" class="edge"><title>Node70&#45;&gt;Node58</title>
<path fill="none" stroke="midnightblue" d="M633.279,-153.914C668.914,-142.949 712.565,-129.519 746.538,-119.065"/>
<polygon fill="midnightblue" stroke="midnightblue" points="631.983,-150.651 623.455,-156.937 634.042,-157.341 631.983,-150.651"/>
</g>
<!-- Node71 -->
<g id="node30" class="node"><title>Node71</title>
<a xlink:href="_tagger_scalers_8cc.html" target="_top" xlink:title="src/analysis/slowcontrol\l/variables/TaggerScalers.cc">
<polygon fill="white" stroke="black" points="445,-85 445,-119 583,-119 583,-85 445,-85"/>
<text text-anchor="start" x="453" y="-106" font-family="Helvetica,sans-Serif" font-size="10.00">src/analysis/slowcontrol</text>
<text text-anchor="middle" x="514" y="-93" font-family="Helvetica,sans-Serif" font-size="10.00">/variables/TaggerScalers.cc</text>
</a>
</g>
<!-- Node70&#45;&gt;Node71 -->
<g id="edge30" class="edge"><title>Node70&#45;&gt;Node71</title>
<path fill="none" stroke="midnightblue" d="M549.094,-148.792C541.822,-139.096 533.686,-128.248 527.081,-119.441"/>
<polygon fill="midnightblue" stroke="midnightblue" points="546.403,-151.037 555.203,-156.937 552.003,-146.837 546.403,-151.037"/>
</g>
<!-- Node72&#45;&gt;Node58 -->
<g id="edge34" class="edge"><title>Node72&#45;&gt;Node58</title>
<path fill="none" stroke="midnightblue" d="M742.057,-150.493C754.669,-140.29 769.171,-128.558 780.751,-119.19"/>
<polygon fill="midnightblue" stroke="midnightblue" points="739.665,-147.926 734.092,-156.937 744.068,-153.369 739.665,-147.926"/>
</g>
<!-- Node73 -->
<g id="node35" class="node"><title>Node73</title>
<a xlink:href="_clocks_8cc.html" target="_top" xlink:title="src/analysis/slowcontrol\l/variables/Clocks.cc">
<polygon fill="white" stroke="black" points="601,-85 601,-119 723,-119 723,-85 601,-85"/>
<text text-anchor="start" x="609" y="-106" font-family="Helvetica,sans-Serif" font-size="10.00">src/analysis/slowcontrol</text>
<text text-anchor="middle" x="662" y="-93" font-family="Helvetica,sans-Serif" font-size="10.00">/variables/Clocks.cc</text>
</a>
</g>
<!-- Node72&#45;&gt;Node73 -->
<g id="edge36" class="edge"><title>Node72&#45;&gt;Node73</title>
<path fill="none" stroke="midnightblue" d="M694.936,-148.498C688.121,-138.877 680.529,-128.159 674.354,-119.441"/>
<polygon fill="midnightblue" stroke="midnightblue" points="692.277,-150.8 700.914,-156.937 697.99,-146.754 692.277,-150.8"/>
</g>
<!-- Node74&#45;&gt;Node58 -->
<g id="edge40" class="edge"><title>Node74&#45;&gt;Node58</title>
<path fill="none" stroke="midnightblue" d="M861.943,-150.493C849.331,-140.29 834.829,-128.558 823.249,-119.19"/>
<polygon fill="midnightblue" stroke="midnightblue" points="859.932,-153.369 869.908,-156.937 864.335,-147.926 859.932,-153.369"/>
</g>
<!-- Node75 -->
<g id="node40" class="node"><title>Node75</title>
<a xlink:href="_beam_8cc.html" target="_top" xlink:title="src/analysis/slowcontrol\l/variables/Beam.cc">
<polygon fill="white" stroke="black" points="881,-85 881,-119 1003,-119 1003,-85 881,-85"/>
<text text-anchor="start" x="889" y="-106" font-family="Helvetica,sans-Serif" font-size="10.00">src/analysis/slowcontrol</text>
<text text-anchor="middle" x="942" y="-93" font-family="Helvetica,sans-Serif" font-size="10.00">/variables/Beam.cc</text>
</a>
</g>
<!-- Node74&#45;&gt;Node75 -->
<g id="edge42" class="edge"><title>Node74&#45;&gt;Node75</title>
<path fill="none" stroke="midnightblue" d="M909.064,-148.498C915.879,-138.877 923.471,-128.159 929.646,-119.441"/>
<polygon fill="midnightblue" stroke="midnightblue" points="906.01,-146.754 903.086,-156.937 911.723,-150.8 906.01,-146.754"/>
</g>
<!-- Node76&#45;&gt;Node58 -->
<g id="edge46" class="edge"><title>Node76&#45;&gt;Node58</title>
<path fill="none" stroke="midnightblue" d="M967.116,-153.914C932.242,-142.949 889.524,-129.519 856.277,-119.065"/>
<polygon fill="midnightblue" stroke="midnightblue" points="966.141,-157.276 976.73,-156.937 968.24,-150.599 966.141,-157.276"/>
</g>
<!-- Node77 -->
<g id="node45" class="node"><title>Node77</title>
<a xlink:href="variables_2_pair_spec_8cc.html" target="_top" xlink:title="src/analysis/slowcontrol\l/variables/Pairspec.cc">
<polygon fill="white" stroke="black" points="1021,-85 1021,-119 1143,-119 1143,-85 1021,-85"/>
<text text-anchor="start" x="1029" y="-106" font-family="Helvetica,sans-Serif" font-size="10.00">src/analysis/slowcontrol</text>
<text text-anchor="middle" x="1082" y="-93" font-family="Helvetica,sans-Serif" font-size="10.00">/variables/Pairspec.cc</text>
</a>
</g>
<!-- Node76&#45;&gt;Node77 -->
<g id="edge48" class="edge"><title>Node76&#45;&gt;Node77</title>
<path fill="none" stroke="midnightblue" d="M1049.06,-148.498C1055.88,-138.877 1063.47,-128.159 1069.65,-119.441"/>
<polygon fill="midnightblue" stroke="midnightblue" points="1046.01,-146.754 1043.09,-156.937 1051.72,-150.8 1046.01,-146.754"/>
</g>
<!-- Node78&#45;&gt;Node58 -->
<g id="edge52" class="edge"><title>Node78&#45;&gt;Node58</title>
<path fill="none" stroke="midnightblue" d="M1099.93,-155.891C998.332,-135.478 969.742,-140.201 872,-120 869.051,-119.39 866.039,-118.737 863.003,-118.053"/>
<polygon fill="midnightblue" stroke="midnightblue" points="1099.5,-159.375 1110,-157.947 1100.9,-152.516 1099.5,-159.375"/>
</g>
<!-- Node79 -->
<g id="node50" class="node"><title>Node79</title>
<a xlink:href="analysis_2slowcontrol_2variables_2_trigger_8cc.html" target="_top" xlink:title="src/analysis/slowcontrol\l/variables/Trigger.cc">
<polygon fill="white" stroke="black" points="1161,-85 1161,-119 1283,-119 1283,-85 1161,-85"/>
<text text-anchor="start" x="1169" y="-106" font-family="Helvetica,sans-Serif" font-size="10.00">src/analysis/slowcontrol</text>
<text text-anchor="middle" x="1222" y="-93" font-family="Helvetica,sans-Serif" font-size="10.00">/variables/Trigger.cc</text>
</a>
</g>
<!-- Node78&#45;&gt;Node79 -->
<g id="edge54" class="edge"><title>Node78&#45;&gt;Node79</title>
<path fill="none" stroke="midnightblue" d="M1189.06,-148.498C1195.88,-138.877 1203.47,-128.159 1209.65,-119.441"/>
<polygon fill="midnightblue" stroke="midnightblue" points="1186.01,-146.754 1183.09,-156.937 1191.72,-150.8 1186.01,-146.754"/>
</g>
</g>
</svg>
