<?xml version="1.0" encoding="UTF-8" standalone="no"?>
<!DOCTYPE svg PUBLIC "-//W3C//DTD SVG 1.1//EN"
 "http://www.w3.org/Graphics/SVG/1.1/DTD/svg11.dtd">
<!-- Generated by graphviz version 2.26.3 (20100126.1600)
 -->
<!-- Title: singlePi0_Efficiency Pages: 1 -->
<svg width="158pt" height="256pt"
 viewBox="0.00 0.00 158.00 256.00" xmlns="http://www.w3.org/2000/svg" xmlns:xlink="http://www.w3.org/1999/xlink">
<g id="graph1" class="graph" transform="scale(1 1) rotate(0) translate(4 252)">
<title>singlePi0_Efficiency</title>
<polygon fill="white" stroke="white" points="-4,5 -4,-252 155,-252 155,5 -4,5"/>
<!-- Node0 -->
<g id="node1" class="node"><title>Node0</title>
<polygon fill="#bfbfbf" stroke="black" points="22.5,-0.5 22.5,-21.5 127.5,-21.5 127.5,-0.5 22.5,-0.5"/>
<text text-anchor="middle" x="75" y="-8.5" font-family="Helvetica,sans-Serif" font-size="10.00">singlePi0_Efficiency</text>
</g>
<!-- Node1 -->
<g id="node2" class="node"><title>Node1</title>
<a xlink:href="classant_1_1analysis_1_1physics_1_1_detection_effciency_base__t.html" target="_top" xlink:title="ant::analysis::physics\l::DetectionEffciencyBase\l_t\&lt; singlePi0::PionProdTree \&gt;">
<polygon fill="white" stroke="black" points="1,-58.5 1,-105.5 149,-105.5 149,-58.5 1,-58.5"/>
<text text-anchor="start" x="9" y="-92.5" font-family="Helvetica,sans-Serif" font-size="10.00">ant::analysis::physics</text>
<text text-anchor="start" x="9" y="-79.5" font-family="Helvetica,sans-Serif" font-size="10.00">::DetectionEffciencyBase</text>
<text text-anchor="middle" x="75" y="-66.5" font-family="Helvetica,sans-Serif" font-size="10.00">_t&lt; singlePi0::PionProdTree &gt;</text>
</a>
</g>
<!-- Node1&#45;&gt;Node0 -->
<g id="edge2" class="edge"><title>Node1&#45;&gt;Node0</title>
<path fill="none" stroke="midnightblue" d="M75,-48.1273C75,-38.5183 75,-28.7499 75,-21.6462"/>
<polygon fill="midnightblue" stroke="midnightblue" points="71.5001,-48.358 75,-58.358 78.5001,-48.3581 71.5001,-48.358"/>
</g>
<!-- Node2 -->
<g id="node4" class="node"><title>Node2</title>
<a xlink:href="classant_1_1analysis_1_1physics_1_1_tree_plotter_base__t.html" target="_top" xlink:title="ant::analysis::physics\l::TreePlotterBase_t\&lt; singlePi0\l::PionProdTree \&gt;">
<polygon fill="white" stroke="black" points="0,-142.5 0,-189.5 150,-189.5 150,-142.5 0,-142.5"/>
<text text-anchor="start" x="8" y="-176.5" font-family="Helvetica,sans-Serif" font-size="10.00">ant::analysis::physics</text>
<text text-anchor="start" x="8" y="-163.5" font-family="Helvetica,sans-Serif" font-size="10.00">::TreePlotterBase_t&lt; singlePi0</text>
<text text-anchor="middle" x="75" y="-150.5" font-family="Helvetica,sans-Serif" font-size="10.00">::PionProdTree &gt;</text>
</a>
</g>
<!-- Node2&#45;&gt;Node1 -->
<g id="edge4" class="edge"><title>Node2&#45;&gt;Node1</title>
<path fill="none" stroke="midnightblue" d="M75,-132.066C75,-123.193 75,-113.821 75,-105.615"/>
<polygon fill="midnightblue" stroke="midnightblue" points="71.5001,-132.154 75,-142.154 78.5001,-132.154 71.5001,-132.154"/>
</g>
<!-- Node3 -->
<g id="node6" class="node"><title>Node3</title>
<a xlink:href="classant_1_1analysis_1_1_plotter.html" target="_top" xlink:title="ant::analysis::Plotter">
<polygon fill="white" stroke="black" points="21.5,-226.5 21.5,-247.5 128.5,-247.5 128.5,-226.5 21.5,-226.5"/>
<text text-anchor="middle" x="75" y="-234.5" font-family="Helvetica,sans-Serif" font-size="10.00">ant::analysis::Plotter</text>
</a>
</g>
<!-- Node3&#45;&gt;Node2 -->
<g id="edge6" class="edge"><title>Node3&#45;&gt;Node2</title>
<path fill="none" stroke="midnightblue" d="M75,-216.191C75,-207.835 75,-198.16 75,-189.548"/>
<polygon fill="midnightblue" stroke="midnightblue" points="71.5001,-216.217 75,-226.217 78.5001,-216.217 71.5001,-216.217"/>
</g>
</g>
</svg>
