<?xml version="1.0" encoding="UTF-8" standalone="no"?>
<!DOCTYPE svg PUBLIC "-//W3C//DTD SVG 1.1//EN"
 "http://www.w3.org/Graphics/SVG/1.1/DTD/svg11.dtd">
<!-- Generated by graphviz version 2.26.3 (20100126.1600)
 -->
<!-- Title: triplePi0_Plot Pages: 1 -->
<svg width="311pt" height="274pt"
 viewBox="0.00 0.00 311.00 274.00" xmlns="http://www.w3.org/2000/svg" xmlns:xlink="http://www.w3.org/1999/xlink">
<g id="graph1" class="graph" transform="scale(1 1) rotate(0) translate(4 270)">
<title>triplePi0_Plot</title>
<polygon fill="white" stroke="white" points="-4,5 -4,-270 308,-270 308,5 -4,5"/>
<!-- Node3 -->
<g id="node1" class="node"><title>Node3</title>
<polygon fill="#bfbfbf" stroke="black" points="178,-0.5 178,-21.5 252,-21.5 252,-0.5 178,-0.5"/>
<text text-anchor="middle" x="215" y="-8.5" font-family="Helvetica,sans-Serif" font-size="10.00">triplePi0_Plot</text>
</g>
<!-- Node4 -->
<g id="node2" class="node"><title>Node4</title>
<a xlink:href="classant_1_1analysis_1_1physics_1_1_tree_plotter_base__t.html" target="_top" xlink:title="triplePi0_PlotBase">
<polygon fill="white" stroke="black" points="111.5,-72.5 111.5,-93.5 208.5,-93.5 208.5,-72.5 111.5,-72.5"/>
<text text-anchor="middle" x="160" y="-80.5" font-family="Helvetica,sans-Serif" font-size="10.00">triplePi0_PlotBase</text>
</a>
</g>
<!-- Node4&#45;&gt;Node3 -->
<g id="edge2" class="edge"><title>Node4&#45;&gt;Node3</title>
<path fill="none" stroke="midnightblue" d="M174.363,-64.1981C184.713,-50.649 198.308,-32.8514 206.851,-21.6674"/>
<polygon fill="midnightblue" stroke="midnightblue" points="171.405,-62.3048 168.115,-72.3762 176.967,-66.5541 171.405,-62.3048"/>
</g>
<!-- Node5 -->
<g id="node4" class="node"><title>Node5</title>
<a xlink:href="classant_1_1analysis_1_1_plotter.html" target="_top" xlink:title="ant::analysis::Plotter">
<polygon fill="white" stroke="black" points="7.5,-151.5 7.5,-172.5 114.5,-172.5 114.5,-151.5 7.5,-151.5"/>
<text text-anchor="middle" x="61" y="-159.5" font-family="Helvetica,sans-Serif" font-size="10.00">ant::analysis::Plotter</text>
</a>
</g>
<!-- Node5&#45;&gt;Node4 -->
<g id="edge4" class="edge"><title>Node5&#45;&gt;Node4</title>
<path fill="none" stroke="midnightblue" d="M82.3627,-144.953C101.845,-129.406 130.035,-106.911 146.544,-93.7378"/>
<polygon fill="midnightblue" stroke="midnightblue" points="79.9849,-142.373 74.3516,-151.346 84.3511,-147.844 79.9849,-142.373"/>
</g>
<!-- Node6 -->
<g id="node6" class="node"><title>Node6</title>
<a xlink:href="classant_1_1analysis_1_1_histogram_factory.html" target="_top" xlink:title="ant::analysis::Histogram\lFactory">
<polygon fill="white" stroke="black" points="-0.5,-231 -0.5,-265 122.5,-265 122.5,-231 -0.5,-231"/>
<text text-anchor="start" x="7.5" y="-252" font-family="Helvetica,sans-Serif" font-size="10.00">ant::analysis::Histogram</text>
<text text-anchor="middle" x="61" y="-239" font-family="Helvetica,sans-Serif" font-size="10.00">Factory</text>
</a>
</g>
<!-- Node6&#45;&gt;Node5 -->
<g id="edge6" class="edge"><title>Node6&#45;&gt;Node5</title>
<path fill="none" stroke="#9a32cd" stroke-dasharray="5,2" d="M61,-220.56C61,-204.365 61,-184.766 61,-172.848"/>
<polygon fill="#9a32cd" stroke="#9a32cd" points="57.5001,-220.597 61,-230.597 64.5001,-220.597 57.5001,-220.597"/>
<text text-anchor="middle" x="80" y="-202.5" font-family="Helvetica,sans-Serif" font-size="10.00"> HistFac</text>
</g>
<!-- Node7 -->
<g id="node8" class="node"><title>Node7</title>
<polygon fill="white" stroke="#bfbfbf" points="131.5,-151.5 131.5,-172.5 190.5,-172.5 190.5,-151.5 131.5,-151.5"/>
<text text-anchor="middle" x="161" y="-159.5" font-family="Helvetica,sans-Serif" font-size="10.00">WrapTree</text>
</g>
<!-- Node7&#45;&gt;Node4 -->
<g id="edge8" class="edge"><title>Node7&#45;&gt;Node4</title>
<path fill="none" stroke="#9a32cd" stroke-dasharray="5,2" d="M160.738,-141.284C160.545,-126.031 160.29,-105.907 160.136,-93.7378"/>
<polygon fill="#9a32cd" stroke="#9a32cd" points="157.239,-141.391 160.865,-151.346 164.238,-141.302 157.239,-141.391"/>
<text text-anchor="middle" x="171" y="-116.5" font-family="Helvetica,sans-Serif" font-size="10.00"> tree</text>
</g>
<!-- Node8 -->
<g id="node10" class="node"><title>Node8</title>
<a xlink:title="STL class. ">
<polygon fill="white" stroke="#bfbfbf" points="226,-72.5 226,-93.5 286,-93.5 286,-72.5 226,-72.5"/>
<text text-anchor="middle" x="256" y="-80.5" font-family="Helvetica,sans-Serif" font-size="10.00">std::string</text>
</a>
</g>
<!-- Node8&#45;&gt;Node3 -->
<g id="edge10" class="edge"><title>Node8&#45;&gt;Node3</title>
<path fill="none" stroke="#9a32cd" stroke-dasharray="5,2" d="M244.85,-63.4193C237.193,-49.9734 227.322,-32.6384 221.075,-21.6674"/>
<polygon fill="#9a32cd" stroke="#9a32cd" points="241.96,-65.4182 249.95,-72.3762 248.043,-61.9543 241.96,-65.4182"/>
<text text-anchor="middle" x="265" y="-44.5" font-family="Helvetica,sans-Serif" font-size="10.00"> data_name</text>
</g>
<!-- Node9 -->
<g id="node12" class="node"><title>Node9</title>
<a xlink:title="STL class. ">
<polygon fill="white" stroke="#bfbfbf" points="208.5,-145 208.5,-179 303.5,-179 303.5,-145 208.5,-145"/>
<text text-anchor="start" x="216.5" y="-166" font-family="Helvetica,sans-Serif" font-size="10.00">std::basic_string&lt;</text>
<text text-anchor="middle" x="256" y="-153" font-family="Helvetica,sans-Serif" font-size="10.00"> char &gt;</text>
</a>
</g>
<!-- Node9&#45;&gt;Node8 -->
<g id="edge12" class="edge"><title>Node9&#45;&gt;Node8</title>
<path fill="none" stroke="midnightblue" d="M256,-134.623C256,-120.473 256,-104.024 256,-93.5672"/>
<polygon fill="midnightblue" stroke="midnightblue" points="252.5,-134.858 256,-144.858 259.5,-134.858 252.5,-134.858"/>
</g>
</g>
</svg>
