<?xml version="1.0" encoding="UTF-8" standalone="no"?>
<!DOCTYPE svg PUBLIC "-//W3C//DTD SVG 1.1//EN"
 "http://www.w3.org/Graphics/SVG/1.1/DTD/svg11.dtd">
<!-- Generated by graphviz version 2.26.3 (20100126.1600)
 -->
<!-- Title: ant::analysis::physics::TreePlotterBase_t&lt; WrapTree &gt; Pages: 1 -->
<svg width="478pt" height="176pt"
 viewBox="0.00 0.00 478.00 176.00" xmlns="http://www.w3.org/2000/svg" xmlns:xlink="http://www.w3.org/1999/xlink">
<g id="graph1" class="graph" transform="scale(1 1) rotate(0) translate(4 172)">
<title>ant::analysis::physics::TreePlotterBase_t&lt; WrapTree &gt;</title>
<polygon fill="white" stroke="white" points="-4,5 -4,-172 475,-172 475,5 -4,5"/>
<!-- Node0 -->
<g id="node1" class="node"><title>Node0</title>
<polygon fill="#bfbfbf" stroke="black" points="144,-54 144,-88 306,-88 306,-54 144,-54"/>
<text text-anchor="start" x="152" y="-75" font-family="Helvetica,sans-Serif" font-size="10.00">ant::analysis::physics</text>
<text text-anchor="middle" x="225" y="-62" font-family="Helvetica,sans-Serif" font-size="10.00">::TreePlotterBase_t&lt; WrapTree &gt;</text>
</g>
<!-- Node2 -->
<g id="node5" class="node"><title>Node2</title>
<a xlink:href="classant_1_1analysis_1_1physics_1_1_detection_effciency_base__t.html" target="_top" xlink:title="ant::analysis::physics\l::DetectionEffciencyBase\l_t\&lt; WrapTree \&gt;">
<polygon fill="white" stroke="black" points="342,-120.5 342,-167.5 470,-167.5 470,-120.5 342,-120.5"/>
<text text-anchor="start" x="350" y="-154.5" font-family="Helvetica,sans-Serif" font-size="10.00">ant::analysis::physics</text>
<text text-anchor="start" x="350" y="-141.5" font-family="Helvetica,sans-Serif" font-size="10.00">::DetectionEffciencyBase</text>
<text text-anchor="middle" x="406" y="-128.5" font-family="Helvetica,sans-Serif" font-size="10.00">_t&lt; WrapTree &gt;</text>
</a>
</g>
<!-- Node0&#45;&gt;Node2 -->
<g id="edge4" class="edge"><title>Node0&#45;&gt;Node2</title>
<path fill="none" stroke="midnightblue" d="M276.982,-91.9652C299.093,-100.883 324.974,-111.321 347.729,-120.499"/>
<polygon fill="midnightblue" stroke="midnightblue" points="278.02,-88.6098 267.436,-88.1153 275.401,-95.1017 278.02,-88.6098"/>
</g>
<!-- Node3 -->
<g id="node7" class="node"><title>Node3</title>
<a xlink:href="classsingle_pi0___plot.html" target="_top" xlink:title="singlePi0_Plot">
<polygon fill="white" stroke="black" points="366.5,-80.5 366.5,-101.5 445.5,-101.5 445.5,-80.5 366.5,-80.5"/>
<text text-anchor="middle" x="406" y="-88.5" font-family="Helvetica,sans-Serif" font-size="10.00">singlePi0_Plot</text>
</a>
</g>
<!-- Node0&#45;&gt;Node3 -->
<g id="edge6" class="edge"><title>Node0&#45;&gt;Node3</title>
<path fill="none" stroke="midnightblue" d="M316.537,-81.1146C334.058,-83.0507 351.528,-84.981 366.318,-86.6153"/>
<polygon fill="midnightblue" stroke="midnightblue" points="316.559,-77.5958 306.235,-79.9762 315.79,-84.5534 316.559,-77.5958"/>
</g>
<!-- Node4 -->
<g id="node9" class="node"><title>Node4</title>
<a xlink:href="classtriple_pi0___plot.html" target="_top" xlink:title="triplePi0_Plot">
<polygon fill="white" stroke="black" points="369,-40.5 369,-61.5 443,-61.5 443,-40.5 369,-40.5"/>
<text text-anchor="middle" x="406" y="-48.5" font-family="Helvetica,sans-Serif" font-size="10.00">triplePi0_Plot</text>
</a>
</g>
<!-- Node0&#45;&gt;Node4 -->
<g id="edge8" class="edge"><title>Node0&#45;&gt;Node4</title>
<path fill="none" stroke="midnightblue" d="M316.232,-60.9191C334.8,-58.8675 353.326,-56.8203 368.685,-55.1232"/>
<polygon fill="midnightblue" stroke="midnightblue" points="315.79,-57.4466 306.235,-62.0238 316.559,-64.4042 315.79,-57.4466"/>
</g>
<!-- Node5 -->
<g id="node11" class="node"><title>Node5</title>
<a xlink:href="classtriple_pi0___test.html" target="_top" xlink:title="triplePi0_Test">
<polygon fill="white" stroke="black" points="367.5,-0.5 367.5,-21.5 444.5,-21.5 444.5,-0.5 367.5,-0.5"/>
<text text-anchor="middle" x="406" y="-8.5" font-family="Helvetica,sans-Serif" font-size="10.00">triplePi0_Test</text>
</a>
</g>
<!-- Node0&#45;&gt;Node5 -->
<g id="edge10" class="edge"><title>Node0&#45;&gt;Node5</title>
<path fill="none" stroke="midnightblue" d="M283.416,-50.6885C302.098,-44.2841 322.888,-37.252 342,-31 351.626,-27.8512 362.101,-24.5327 371.736,-21.5235"/>
<polygon fill="midnightblue" stroke="midnightblue" points="282.179,-47.4128 273.859,-53.9729 284.454,-54.0328 282.179,-47.4128"/>
</g>
<!-- Node1 -->
<g id="node2" class="node"><title>Node1</title>
<a xlink:href="classant_1_1analysis_1_1_plotter.html" target="_top" xlink:title="ant::analysis::Plotter">
<polygon fill="white" stroke="black" points="0.5,-60.5 0.5,-81.5 107.5,-81.5 107.5,-60.5 0.5,-60.5"/>
<text text-anchor="middle" x="54" y="-68.5" font-family="Helvetica,sans-Serif" font-size="10.00">ant::analysis::Plotter</text>
</a>
</g>
<!-- Node1&#45;&gt;Node0 -->
<g id="edge2" class="edge"><title>Node1&#45;&gt;Node0</title>
<path fill="none" stroke="midnightblue" d="M117.861,-71C126.389,-71 135.225,-71 143.997,-71"/>
<polygon fill="midnightblue" stroke="midnightblue" points="117.636,-67.5001 107.636,-71 117.636,-74.5001 117.636,-67.5001"/>
</g>
</g>
</svg>
