<?xml version="1.0" encoding="UTF-8" standalone="no"?>
<!DOCTYPE svg PUBLIC "-//W3C//DTD SVG 1.1//EN"
 "http://www.w3.org/Graphics/SVG/1.1/DTD/svg11.dtd">
<!-- Generated by graphviz version 2.26.3 (20100126.1600)
 -->
<!-- Title: ant::reconstruct::CandidateBuilder Pages: 1 -->
<svg width="142pt" height="142pt"
 viewBox="0.00 0.00 142.00 142.00" xmlns="http://www.w3.org/2000/svg" xmlns:xlink="http://www.w3.org/1999/xlink">
<g id="graph1" class="graph" transform="scale(1 1) rotate(0) translate(4 138)">
<title>ant::reconstruct::CandidateBuilder</title>
<polygon fill="white" stroke="white" points="-4,5 -4,-138 139,-138 139,5 -4,5"/>
<!-- Node2 -->
<g id="node1" class="node"><title>Node2</title>
<polygon fill="#bfbfbf" stroke="black" points="-0.5,-1 -0.5,-35 134.5,-35 134.5,-1 -0.5,-1"/>
<text text-anchor="start" x="7.5" y="-22" font-family="Helvetica,sans-Serif" font-size="10.00">ant::reconstruct::Candidate</text>
<text text-anchor="middle" x="67" y="-9" font-family="Helvetica,sans-Serif" font-size="10.00">Builder</text>
</g>
<!-- Node3 -->
<g id="node2" class="node"><title>Node3</title>
<a xlink:href="structant_1_1expconfig_1_1_setup__traits_1_1candidatebuilder__config__t.html" target="_top" xlink:title="ant::expconfig::Setup\l_traits::candidatebuilder\l_config_t">
<polygon fill="white" stroke="black" points="7,-86.5 7,-133.5 127,-133.5 127,-86.5 7,-86.5"/>
<text text-anchor="start" x="15" y="-120.5" font-family="Helvetica,sans-Serif" font-size="10.00">ant::expconfig::Setup</text>
<text text-anchor="start" x="15" y="-107.5" font-family="Helvetica,sans-Serif" font-size="10.00">_traits::candidatebuilder</text>
<text text-anchor="middle" x="67" y="-94.5" font-family="Helvetica,sans-Serif" font-size="10.00">_config_t</text>
</a>
</g>
<!-- Node3&#45;&gt;Node2 -->
<g id="edge2" class="edge"><title>Node3&#45;&gt;Node2</title>
<path fill="none" stroke="#9a32cd" stroke-dasharray="5,2" d="M67,-76.0812C67,-62.1835 67,-46.7024 67,-35.2202"/>
<polygon fill="#9a32cd" stroke="#9a32cd" points="63.5001,-76.3077 67,-86.3077 70.5001,-76.3077 63.5001,-76.3077"/>
<text text-anchor="middle" x="82" y="-58.5" font-family="Helvetica,sans-Serif" font-size="10.00"> config</text>
</g>
</g>
</svg>
