<?xml version="1.0" encoding="UTF-8" standalone="no"?>
<!DOCTYPE svg PUBLIC "-//W3C//DTD SVG 1.1//EN"
 "http://www.w3.org/Graphics/SVG/1.1/DTD/svg11.dtd">
<!-- Generated by graphviz version 2.26.3 (20100126.1600)
 -->
<!-- Title: ant::analysis::physics::OmegaMCCrossSection Pages: 1 -->
<svg width="1250pt" height="220pt"
 viewBox="0.00 0.00 1250.00 219.81" xmlns="http://www.w3.org/2000/svg" xmlns:xlink="http://www.w3.org/1999/xlink">
<g id="graph1" class="graph" transform="scale(1 1) rotate(0) translate(4 215.807)">
<title>ant::analysis::physics::OmegaMCCrossSection</title>
<polygon fill="white" stroke="white" points="-4,5 -4,-215.807 1247,-215.807 1247,5 -4,5"/>
<!-- Node2 -->
<g id="node1" class="node"><title>Node2</title>
<polygon fill="#bfbfbf" stroke="black" points="1112.5,-143.807 1112.5,-177.807 1241.5,-177.807 1241.5,-143.807 1112.5,-143.807"/>
<text text-anchor="start" x="1120.5" y="-164.807" font-family="Helvetica,sans-Serif" font-size="10.00">ant::analysis::physics</text>
<text text-anchor="middle" x="1177" y="-151.807" font-family="Helvetica,sans-Serif" font-size="10.00">::OmegaMCCrossSection</text>
</g>
<!-- Node3 -->
<g id="node2" class="node"><title>Node3</title>
<a xlink:href="classant_1_1analysis_1_1_physics.html" target="_top" xlink:title="ant::analysis::Physics">
<polygon fill="white" stroke="black" points="904.5,-176.307 904.5,-197.307 1017.5,-197.307 1017.5,-176.307 904.5,-176.307"/>
<text text-anchor="middle" x="961" y="-184.307" font-family="Helvetica,sans-Serif" font-size="10.00">ant::analysis::Physics</text>
</a>
</g>
<!-- Node3&#45;&gt;Node2 -->
<g id="edge2" class="edge"><title>Node3&#45;&gt;Node2</title>
<path fill="none" stroke="midnightblue" d="M1027.84,-178.762C1054.71,-175.527 1085.57,-171.812 1112.23,-168.603"/>
<polygon fill="midnightblue" stroke="midnightblue" points="1027.26,-175.306 1017.75,-179.976 1028.1,-182.255 1027.26,-175.306"/>
</g>
<!-- Node4 -->
<g id="node4" class="node"><title>Node4</title>
<a xlink:href="classant_1_1analysis_1_1_histogram_factory.html" target="_top" xlink:title="ant::analysis::Histogram\lFactory">
<polygon fill="white" stroke="black" points="702.5,-177.807 702.5,-211.807 825.5,-211.807 825.5,-177.807 702.5,-177.807"/>
<text text-anchor="start" x="710.5" y="-198.807" font-family="Helvetica,sans-Serif" font-size="10.00">ant::analysis::Histogram</text>
<text text-anchor="middle" x="764" y="-185.807" font-family="Helvetica,sans-Serif" font-size="10.00">Factory</text>
</a>
</g>
<!-- Node4&#45;&gt;Node3 -->
<g id="edge4" class="edge"><title>Node4&#45;&gt;Node3</title>
<path fill="none" stroke="#9a32cd" stroke-dasharray="5,2" d="M835.733,-191.894C858.31,-190.977 882.917,-189.978 904.299,-189.109"/>
<polygon fill="#9a32cd" stroke="#9a32cd" points="835.371,-188.405 825.522,-192.308 835.656,-195.4 835.371,-188.405"/>
<text text-anchor="middle" x="865" y="-194.807" font-family="Helvetica,sans-Serif" font-size="10.00"> HistFac</text>
</g>
<!-- Node5 -->
<g id="node6" class="node"><title>Node5</title>
<a xlink:href="classant_1_1analysis_1_1utils_1_1_m_c_weighting.html" target="_top" xlink:title="ant::analysis::utils\l::MCWeighting">
<polygon fill="white" stroke="black" points="913,-110.807 913,-144.807 1009,-144.807 1009,-110.807 913,-110.807"/>
<text text-anchor="start" x="921" y="-131.807" font-family="Helvetica,sans-Serif" font-size="10.00">ant::analysis::utils</text>
<text text-anchor="middle" x="961" y="-118.807" font-family="Helvetica,sans-Serif" font-size="10.00">::MCWeighting</text>
</a>
</g>
<!-- Node4&#45;&gt;Node5 -->
<g id="edge32" class="edge"><title>Node4&#45;&gt;Node5</title>
<path fill="none" stroke="#9a32cd" stroke-dasharray="5,2" d="M823.694,-174.505C852.263,-164.788 886.017,-153.309 912.909,-144.163"/>
<polygon fill="#9a32cd" stroke="#9a32cd" points="822.562,-171.193 814.221,-177.726 824.816,-177.82 822.562,-171.193"/>
<text text-anchor="middle" x="865" y="-170.807" font-family="Helvetica,sans-Serif" font-size="10.00"> HistFac</text>
</g>
<!-- Node5&#45;&gt;Node2 -->
<g id="edge6" class="edge"><title>Node5&#45;&gt;Node2</title>
<path fill="none" stroke="#9a32cd" stroke-dasharray="5,2" d="M1019.09,-136.682C1047.81,-141.069 1082.56,-146.379 1112.14,-150.898"/>
<polygon fill="#9a32cd" stroke="#9a32cd" points="1019.62,-133.222 1009.21,-135.172 1018.56,-140.142 1019.62,-133.222"/>
<text text-anchor="middle" x="1065" y="-150.807" font-family="Helvetica,sans-Serif" font-size="10.00"> mcweighting</text>
</g>
<!-- Node6 -->
<g id="node8" class="node"><title>Node6</title>
<a xlink:href="structant_1_1analysis_1_1utils_1_1_m_c_weighting_1_1tree__t.html" target="_top" xlink:title="ant::analysis::utils\l::MCWeighting::tree_t">
<polygon fill="white" stroke="black" points="707.5,-115.807 707.5,-149.807 820.5,-149.807 820.5,-115.807 707.5,-115.807"/>
<text text-anchor="start" x="715.5" y="-136.807" font-family="Helvetica,sans-Serif" font-size="10.00">ant::analysis::utils</text>
<text text-anchor="middle" x="764" y="-123.807" font-family="Helvetica,sans-Serif" font-size="10.00">::MCWeighting::tree_t</text>
</a>
</g>
<!-- Node6&#45;&gt;Node5 -->
<g id="edge8" class="edge"><title>Node6&#45;&gt;Node5</title>
<path fill="none" stroke="#9a32cd" stroke-dasharray="5,2" d="M831.049,-129.25C835.431,-129.081 839.778,-128.93 844,-128.807 866.64,-128.144 891.753,-127.869 912.891,-127.77"/>
<polygon fill="#9a32cd" stroke="#9a32cd" points="830.649,-125.764 820.803,-129.676 830.939,-132.758 830.649,-125.764"/>
<text text-anchor="middle" x="865" y="-132.807" font-family="Helvetica,sans-Serif" font-size="10.00"> t</text>
</g>
<!-- Node7 -->
<g id="node10" class="node"><title>Node7</title>
<a xlink:href="classant_1_1_wrap_t_tree.html" target="_top" xlink:title="The WrapTTree struct simplifies TTree handling in physics classes. ">
<polygon fill="white" stroke="black" points="507.5,-149.307 507.5,-170.307 592.5,-170.307 592.5,-149.307 507.5,-149.307"/>
<text text-anchor="middle" x="550" y="-157.307" font-family="Helvetica,sans-Serif" font-size="10.00">ant::WrapTTree</text>
</a>
</g>
<!-- Node7&#45;&gt;Node6 -->
<g id="edge10" class="edge"><title>Node7&#45;&gt;Node6</title>
<path fill="none" stroke="midnightblue" d="M602.527,-153.18C634.314,-149.169 674.847,-144.055 707.351,-139.954"/>
<polygon fill="midnightblue" stroke="midnightblue" points="602.019,-149.716 592.535,-154.44 602.895,-156.661 602.019,-149.716"/>
</g>
<!-- Node8 -->
<g id="node12" class="node"><title>Node8</title>
<a xlink:href="structant_1_1analysis_1_1utils_1_1_m_c_weighting_1_1item__t.html" target="_top" xlink:title="ant::analysis::utils\l::MCWeighting::item_t">
<polygon fill="white" stroke="black" points="706.5,-35.8068 706.5,-69.8068 821.5,-69.8068 821.5,-35.8068 706.5,-35.8068"/>
<text text-anchor="start" x="714.5" y="-56.8068" font-family="Helvetica,sans-Serif" font-size="10.00">ant::analysis::utils</text>
<text text-anchor="middle" x="764" y="-43.8068" font-family="Helvetica,sans-Serif" font-size="10.00">::MCWeighting::item_t</text>
</a>
</g>
<!-- Node8&#45;&gt;Node5 -->
<g id="edge12" class="edge"><title>Node8&#45;&gt;Node5</title>
<path fill="none" stroke="#9a32cd" stroke-dasharray="5,2" d="M831.692,-57.3994C849.823,-60.2124 869.077,-64.6929 886,-71.8068 907.871,-81.0005 929.19,-97.922 943.472,-110.766"/>
<polygon fill="#9a32cd" stroke="#9a32cd" points="832.146,-53.929 821.756,-56.0021 831.171,-60.8607 832.146,-53.929"/>
<text text-anchor="middle" x="865" y="-114.807" font-family="Helvetica,sans-Serif" font-size="10.00"> Item</text>
<text text-anchor="middle" x="865" y="-101.807" font-family="Helvetica,sans-Serif" font-size="10.00">EtaPrime</text>
<text text-anchor="middle" x="865" y="-88.8068" font-family="Helvetica,sans-Serif" font-size="10.00">Pi0</text>
<text text-anchor="middle" x="865" y="-75.8068" font-family="Helvetica,sans-Serif" font-size="10.00">Omega</text>
</g>
<!-- Node9 -->
<g id="node14" class="node"><title>Node9</title>
<polygon fill="white" stroke="#bfbfbf" points="480,-109.307 480,-130.307 620,-130.307 620,-109.307 480,-109.307"/>
<text text-anchor="middle" x="550" y="-117.307" font-family="Helvetica,sans-Serif" font-size="10.00">std::vector&lt; coefficients_t &gt;</text>
</g>
<!-- Node9&#45;&gt;Node8 -->
<g id="edge14" class="edge"><title>Node9&#45;&gt;Node8</title>
<path fill="none" stroke="#9a32cd" stroke-dasharray="5,2" d="M597.591,-106.467C605.103,-104.287 612.773,-102.018 620,-99.8068 651.057,-90.3053 685.662,-79.0329 713.164,-69.9096"/>
<polygon fill="#9a32cd" stroke="#9a32cd" points="596.499,-103.139 587.858,-109.268 598.436,-109.866 596.499,-103.139"/>
<text text-anchor="middle" x="661" y="-96.8068" font-family="Helvetica,sans-Serif" font-size="10.00"> Database</text>
</g>
<!-- Node10 -->
<g id="node16" class="node"><title>Node10</title>
<polygon fill="white" stroke="#bfbfbf" points="246,-102.807 246,-136.807 392,-136.807 392,-102.807 246,-102.807"/>
<text text-anchor="start" x="254" y="-123.807" font-family="Helvetica,sans-Serif" font-size="10.00">ant::analysis::utils</text>
<text text-anchor="middle" x="319" y="-110.807" font-family="Helvetica,sans-Serif" font-size="10.00">::MCWeighting::coefficients_t</text>
</g>
<!-- Node10&#45;&gt;Node9 -->
<g id="edge16" class="edge"><title>Node10&#45;&gt;Node9</title>
<path fill="none" stroke="#9a32cd" stroke-dasharray="5,2" d="M402.426,-119.807C427.774,-119.807 455.362,-119.807 479.752,-119.807"/>
<polygon fill="#9a32cd" stroke="#9a32cd" points="402.09,-116.307 392.09,-119.807 402.09,-123.307 402.09,-116.307"/>
<text text-anchor="middle" x="436" y="-123.807" font-family="Helvetica,sans-Serif" font-size="10.00"> elements</text>
</g>
<!-- Node11 -->
<g id="node18" class="node"><title>Node11</title>
<a xlink:href="classant_1_1interval.html" target="_top" xlink:title="ant::interval\&lt; double \&gt;">
<polygon fill="white" stroke="black" points="0,-129.307 0,-150.307 114,-150.307 114,-129.307 0,-129.307"/>
<text text-anchor="middle" x="57" y="-137.307" font-family="Helvetica,sans-Serif" font-size="10.00">ant::interval&lt; double &gt;</text>
</a>
</g>
<!-- Node11&#45;&gt;Node10 -->
<g id="edge18" class="edge"><title>Node11&#45;&gt;Node10</title>
<path fill="none" stroke="#9a32cd" stroke-dasharray="5,2" d="M124.418,-134.66C161.641,-131.819 207.905,-128.287 245.982,-125.381"/>
<polygon fill="#9a32cd" stroke="#9a32cd" points="123.878,-131.191 114.173,-135.442 124.411,-138.171 123.878,-131.191"/>
<text text-anchor="middle" x="180" y="-137.807" font-family="Helvetica,sans-Serif" font-size="10.00"> BeamE</text>
</g>
<!-- Node12 -->
<g id="node20" class="node"><title>Node12</title>
<polygon fill="white" stroke="#bfbfbf" points="2,-89.3068 2,-110.307 112,-110.307 112,-89.3068 2,-89.3068"/>
<text text-anchor="middle" x="57" y="-97.3068" font-family="Helvetica,sans-Serif" font-size="10.00">std::vector&lt; double &gt;</text>
</g>
<!-- Node12&#45;&gt;Node10 -->
<g id="edge20" class="edge"><title>Node12&#45;&gt;Node10</title>
<path fill="none" stroke="#9a32cd" stroke-dasharray="5,2" d="M122.214,-102.837C154.131,-104.52 193.105,-106.871 228,-109.807 233.702,-110.286 239.599,-110.829 245.525,-111.407"/>
<polygon fill="#9a32cd" stroke="#9a32cd" points="122.281,-99.3363 112.114,-102.315 121.919,-106.327 122.281,-99.3363"/>
<text text-anchor="middle" x="180" y="-113.807" font-family="Helvetica,sans-Serif" font-size="10.00"> LegendreCoefficients</text>
</g>
<!-- Node13 -->
<g id="node22" class="node"><title>Node13</title>
<a xlink:href="classant_1_1_particle_type_database_1_1_type.html" target="_top" xlink:title="ant::ParticleTypeDatabase\l::Type">
<polygon fill="white" stroke="black" points="483.5,-25.8068 483.5,-59.8068 616.5,-59.8068 616.5,-25.8068 483.5,-25.8068"/>
<text text-anchor="start" x="491.5" y="-46.8068" font-family="Helvetica,sans-Serif" font-size="10.00">ant::ParticleTypeDatabase</text>
<text text-anchor="middle" x="550" y="-33.8068" font-family="Helvetica,sans-Serif" font-size="10.00">::Type</text>
</a>
</g>
<!-- Node13&#45;&gt;Node8 -->
<g id="edge22" class="edge"><title>Node13&#45;&gt;Node8</title>
<path fill="none" stroke="#9a32cd" stroke-dasharray="5,2" d="M626.803,-46.3957C652.969,-47.6184 681.759,-48.9638 706.181,-50.105"/>
<polygon fill="#9a32cd" stroke="#9a32cd" points="626.69,-42.8867 616.538,-45.916 626.364,-49.8791 626.69,-42.8867"/>
<text text-anchor="middle" x="661" y="-52.8068" font-family="Helvetica,sans-Serif" font-size="10.00"> Type</text>
</g>
<!-- Node13&#45;&gt;Node13 -->
<g id="edge28" class="edge"><title>Node13&#45;&gt;Node13</title>
<path fill="none" stroke="#9a32cd" stroke-dasharray="5,2" d="M530.844,-70.1244C533.534,-74.6713 539.919,-77.8068 550,-77.8068 566.543,-77.8068 573.134,-69.363 569.774,-60.0946"/>
<polygon fill="#9a32cd" stroke="#9a32cd" points="534.334,-69.8605 530.226,-60.0946 527.347,-70.2908 534.334,-69.8605"/>
<text text-anchor="middle" x="550" y="-81.8068" font-family="Helvetica,sans-Serif" font-size="10.00"> sametype</text>
</g>
<!-- Node14 -->
<g id="node24" class="node"><title>Node14</title>
<a xlink:title="STL class. ">
<polygon fill="white" stroke="#bfbfbf" points="289,-9.30678 289,-30.3068 349,-30.3068 349,-9.30678 289,-9.30678"/>
<text text-anchor="middle" x="319" y="-17.3068" font-family="Helvetica,sans-Serif" font-size="10.00">std::string</text>
</a>
</g>
<!-- Node14&#45;&gt;Node5 -->
<g id="edge30" class="edge"><title>Node14&#45;&gt;Node5</title>
<path fill="none" stroke="#9a32cd" stroke-dasharray="5,2" d="M359.017,-14.1301C445.762,-3.16607 656.928,16.2501 826,-26.8068 854.702,-34.1162 861.683,-38.8976 886,-55.8068 909.118,-71.8821 931.911,-95.1019 946.191,-110.79"/>
<polygon fill="#9a32cd" stroke="#9a32cd" points="358.533,-10.6634 349.066,-15.4205 359.433,-17.6053 358.533,-10.6634"/>
<text text-anchor="middle" x="661" y="-8.80678" font-family="Helvetica,sans-Serif" font-size="10.00"> treeName</text>
</g>
<!-- Node14&#45;&gt;Node13 -->
<g id="edge24" class="edge"><title>Node14&#45;&gt;Node13</title>
<path fill="none" stroke="#9a32cd" stroke-dasharray="5,2" d="M359.282,-23.8176C393.471,-27.2216 443.22,-32.175 483.335,-36.1692"/>
<polygon fill="#9a32cd" stroke="#9a32cd" points="359.497,-20.3217 349.199,-22.8136 358.803,-27.2873 359.497,-20.3217"/>
<text text-anchor="middle" x="436" y="-50.8068" font-family="Helvetica,sans-Serif" font-size="10.00"> print_name</text>
<text text-anchor="middle" x="436" y="-37.8068" font-family="Helvetica,sans-Serif" font-size="10.00">name</text>
</g>
<!-- Node15 -->
<g id="node26" class="node"><title>Node15</title>
<a xlink:title="STL class. ">
<polygon fill="white" stroke="#bfbfbf" points="9.5,-2.80678 9.5,-36.8068 104.5,-36.8068 104.5,-2.80678 9.5,-2.80678"/>
<text text-anchor="start" x="17.5" y="-23.8068" font-family="Helvetica,sans-Serif" font-size="10.00">std::basic_string&lt;</text>
<text text-anchor="middle" x="57" y="-10.8068" font-family="Helvetica,sans-Serif" font-size="10.00"> char &gt;</text>
</a>
</g>
<!-- Node15&#45;&gt;Node14 -->
<g id="edge26" class="edge"><title>Node15&#45;&gt;Node14</title>
<path fill="none" stroke="midnightblue" d="M114.815,-19.8068C168.51,-19.8068 246.36,-19.8068 288.739,-19.8068"/>
<polygon fill="midnightblue" stroke="midnightblue" points="114.75,-16.3069 104.75,-19.8068 114.75,-23.3069 114.75,-16.3069"/>
</g>
</g>
</svg>
