<?xml version="1.0" encoding="UTF-8" standalone="no"?>
<!DOCTYPE svg PUBLIC "-//W3C//DTD SVG 1.1//EN"
 "http://www.w3.org/Graphics/SVG/1.1/DTD/svg11.dtd">
<!-- Generated by graphviz version 2.26.3 (20100126.1600)
 -->
<!-- Title: OmegaEtaG_Plot Pages: 1 -->
<svg width="540pt" height="186pt"
 viewBox="0.00 0.00 540.00 186.00" xmlns="http://www.w3.org/2000/svg" xmlns:xlink="http://www.w3.org/1999/xlink">
<g id="graph1" class="graph" transform="scale(1 1) rotate(0) translate(4 182)">
<title>OmegaEtaG_Plot</title>
<polygon fill="white" stroke="white" points="-4,5 -4,-182 537,-182 537,5 -4,5"/>
<!-- Node2 -->
<g id="node1" class="node"><title>Node2</title>
<polygon fill="#bfbfbf" stroke="black" points="438.5,-78.5 438.5,-99.5 531.5,-99.5 531.5,-78.5 438.5,-78.5"/>
<text text-anchor="middle" x="485" y="-86.5" font-family="Helvetica,sans-Serif" font-size="10.00">OmegaEtaG_Plot</text>
</g>
<!-- Node3 -->
<g id="node2" class="node"><title>Node3</title>
<a xlink:href="classant_1_1analysis_1_1_plotter.html" target="_top" xlink:title="ant::analysis::Plotter">
<polygon fill="white" stroke="black" points="218.5,-150.5 218.5,-171.5 325.5,-171.5 325.5,-150.5 218.5,-150.5"/>
<text text-anchor="middle" x="272" y="-158.5" font-family="Helvetica,sans-Serif" font-size="10.00">ant::analysis::Plotter</text>
</a>
</g>
<!-- Node3&#45;&gt;Node2 -->
<g id="edge2" class="edge"><title>Node3&#45;&gt;Node2</title>
<path fill="none" stroke="midnightblue" d="M328.358,-147.946C356.306,-140.83 390.34,-131.19 420,-120 435.558,-114.13 452.494,-105.992 465.178,-99.5273"/>
<polygon fill="midnightblue" stroke="midnightblue" points="327.206,-144.626 318.357,-150.451 328.908,-151.416 327.206,-144.626"/>
</g>
<!-- Node4 -->
<g id="node4" class="node"><title>Node4</title>
<a xlink:href="classant_1_1analysis_1_1_histogram_factory.html" target="_top" xlink:title="ant::analysis::Histogram\lFactory">
<polygon fill="white" stroke="black" points="0.5,-144 0.5,-178 123.5,-178 123.5,-144 0.5,-144"/>
<text text-anchor="start" x="8.5" y="-165" font-family="Helvetica,sans-Serif" font-size="10.00">ant::analysis::Histogram</text>
<text text-anchor="middle" x="62" y="-152" font-family="Helvetica,sans-Serif" font-size="10.00">Factory</text>
</a>
</g>
<!-- Node4&#45;&gt;Node3 -->
<g id="edge4" class="edge"><title>Node4&#45;&gt;Node3</title>
<path fill="none" stroke="#9a32cd" stroke-dasharray="5,2" d="M133.626,-161C161.342,-161 192.521,-161 218.256,-161"/>
<polygon fill="#9a32cd" stroke="#9a32cd" points="133.588,-157.5 123.588,-161 133.588,-164.5 133.588,-157.5"/>
<text text-anchor="middle" x="161" y="-165" font-family="Helvetica,sans-Serif" font-size="10.00"> HistFac</text>
</g>
<!-- Node5 -->
<g id="node6" class="node"><title>Node5</title>
<a xlink:href="structant_1_1analysis_1_1physics_1_1_omega_eta_g2_1_1_omega_tree__t.html" target="_top" xlink:title="ant::analysis::physics\l::OmegaEtaG2::OmegaTree_t">
<polygon fill="white" stroke="black" points="198.5,-98 198.5,-132 345.5,-132 345.5,-98 198.5,-98"/>
<text text-anchor="start" x="206.5" y="-119" font-family="Helvetica,sans-Serif" font-size="10.00">ant::analysis::physics</text>
<text text-anchor="middle" x="272" y="-106" font-family="Helvetica,sans-Serif" font-size="10.00">::OmegaEtaG2::OmegaTree_t</text>
</a>
</g>
<!-- Node5&#45;&gt;Node2 -->
<g id="edge6" class="edge"><title>Node5&#45;&gt;Node2</title>
<path fill="none" stroke="#9a32cd" stroke-dasharray="5,2" d="M355.832,-104.767C383.915,-101.339 414.204,-97.6418 438.388,-94.6897"/>
<polygon fill="#9a32cd" stroke="#9a32cd" points="355.103,-101.33 345.601,-106.016 355.951,-108.278 355.103,-101.33"/>
<text text-anchor="middle" x="392" y="-107" font-family="Helvetica,sans-Serif" font-size="10.00"> tree</text>
</g>
<!-- Node6 -->
<g id="node8" class="node"><title>Node6</title>
<a xlink:href="classant_1_1_wrap_t_tree.html" target="_top" xlink:title="The WrapTTree struct simplifies TTree handling in physics classes. ">
<polygon fill="white" stroke="black" points="19.5,-78.5 19.5,-99.5 104.5,-99.5 104.5,-78.5 19.5,-78.5"/>
<text text-anchor="middle" x="62" y="-86.5" font-family="Helvetica,sans-Serif" font-size="10.00">ant::WrapTTree</text>
</a>
</g>
<!-- Node6&#45;&gt;Node5 -->
<g id="edge8" class="edge"><title>Node6&#45;&gt;Node5</title>
<path fill="none" stroke="midnightblue" d="M114.86,-95.5446C140.119,-98.6719 170.773,-102.467 198.276,-105.872"/>
<polygon fill="midnightblue" stroke="midnightblue" points="115.104,-92.0481 104.75,-94.2928 114.244,-98.9951 115.104,-92.0481"/>
</g>
<!-- Node7 -->
<g id="node10" class="node"><title>Node7</title>
<a xlink:href="structant_1_1analysis_1_1utils_1_1_m_c_weighting_1_1tree__t.html" target="_top" xlink:title="ant::analysis::utils\l::MCWeighting::tree_t">
<polygon fill="white" stroke="black" points="215.5,-46 215.5,-80 328.5,-80 328.5,-46 215.5,-46"/>
<text text-anchor="start" x="223.5" y="-67" font-family="Helvetica,sans-Serif" font-size="10.00">ant::analysis::utils</text>
<text text-anchor="middle" x="272" y="-54" font-family="Helvetica,sans-Serif" font-size="10.00">::MCWeighting::tree_t</text>
</a>
</g>
<!-- Node6&#45;&gt;Node7 -->
<g id="edge12" class="edge"><title>Node6&#45;&gt;Node7</title>
<path fill="none" stroke="midnightblue" d="M114.818,-82.4606C145.472,-78.6653 184.083,-73.885 215.364,-70.012"/>
<polygon fill="midnightblue" stroke="midnightblue" points="114.244,-79.0049 104.75,-83.7072 115.104,-85.9519 114.244,-79.0049"/>
</g>
<!-- Node7&#45;&gt;Node2 -->
<g id="edge10" class="edge"><title>Node7&#45;&gt;Node2</title>
<path fill="none" stroke="#9a32cd" stroke-dasharray="5,2" d="M338.884,-70.3492C364.298,-73.2293 393.502,-76.6442 420,-80 425.877,-80.7443 432.049,-81.5576 438.152,-82.3811"/>
<polygon fill="#9a32cd" stroke="#9a32cd" points="338.941,-66.8336 328.612,-69.1908 338.156,-73.7895 338.941,-66.8336"/>
<text text-anchor="middle" x="392" y="-84" font-family="Helvetica,sans-Serif" font-size="10.00"> MCWeights</text>
</g>
<!-- Node8 -->
<g id="node13" class="node"><title>Node8</title>
<a xlink:title="STL class. ">
<polygon fill="white" stroke="#bfbfbf" points="242,-6.5 242,-27.5 302,-27.5 302,-6.5 242,-6.5"/>
<text text-anchor="middle" x="272" y="-14.5" font-family="Helvetica,sans-Serif" font-size="10.00">std::string</text>
</a>
</g>
<!-- Node8&#45;&gt;Node2 -->
<g id="edge14" class="edge"><title>Node8&#45;&gt;Node2</title>
<path fill="none" stroke="#9a32cd" stroke-dasharray="5,2" d="M312.215,-25.169C342.396,-31.8789 384.457,-42.4705 420,-56 436.322,-62.2132 453.935,-71.3172 466.705,-78.3899"/>
<polygon fill="#9a32cd" stroke="#9a32cd" points="312.581,-21.6668 302.066,-22.9591 311.092,-28.5065 312.581,-21.6668"/>
<text text-anchor="middle" x="392" y="-60" font-family="Helvetica,sans-Serif" font-size="10.00"> data_name</text>
</g>
<!-- Node9 -->
<g id="node15" class="node"><title>Node9</title>
<a xlink:title="STL class. ">
<polygon fill="white" stroke="#bfbfbf" points="14.5,-0 14.5,-34 109.5,-34 109.5,-0 14.5,-0"/>
<text text-anchor="start" x="22.5" y="-21" font-family="Helvetica,sans-Serif" font-size="10.00">std::basic_string&lt;</text>
<text text-anchor="middle" x="62" y="-8" font-family="Helvetica,sans-Serif" font-size="10.00"> char &gt;</text>
</a>
</g>
<!-- Node9&#45;&gt;Node8 -->
<g id="edge16" class="edge"><title>Node9&#45;&gt;Node8</title>
<path fill="none" stroke="midnightblue" d="M119.688,-17C159.175,-17 209.951,-17 241.743,-17"/>
<polygon fill="midnightblue" stroke="midnightblue" points="119.652,-13.5001 109.652,-17 119.652,-20.5001 119.652,-13.5001"/>
</g>
</g>
</svg>
