<?xml version="1.0" encoding="UTF-8" standalone="no"?>
<!DOCTYPE svg PUBLIC "-//W3C//DTD SVG 1.1//EN"
 "http://www.w3.org/Graphics/SVG/1.1/DTD/svg11.dtd">
<!-- Generated by graphviz version 2.26.3 (20100126.1600)
 -->
<!-- Title: ant::analysis::physics::DetectionEffciencyBase_t&lt; WrapTree &gt; Pages: 1 -->
<svg width="225pt" height="288pt"
 viewBox="0.00 0.00 225.00 288.00" xmlns="http://www.w3.org/2000/svg" xmlns:xlink="http://www.w3.org/1999/xlink">
<g id="graph1" class="graph" transform="scale(1 1) rotate(0) translate(4 284)">
<title>ant::analysis::physics::DetectionEffciencyBase_t&lt; WrapTree &gt;</title>
<polygon fill="white" stroke="white" points="-4,5 -4,-284 222,-284 222,5 -4,5"/>
<!-- Node3 -->
<g id="node1" class="node"><title>Node3</title>
<polygon fill="#bfbfbf" stroke="black" points="72,-0.5 72,-47.5 200,-47.5 200,-0.5 72,-0.5"/>
<text text-anchor="start" x="80" y="-34.5" font-family="Helvetica,sans-Serif" font-size="10.00">ant::analysis::physics</text>
<text text-anchor="start" x="80" y="-21.5" font-family="Helvetica,sans-Serif" font-size="10.00">::DetectionEffciencyBase</text>
<text text-anchor="middle" x="136" y="-8.5" font-family="Helvetica,sans-Serif" font-size="10.00">_t&lt; WrapTree &gt;</text>
</g>
<!-- Node4 -->
<g id="node2" class="node"><title>Node4</title>
<a xlink:href="classant_1_1analysis_1_1physics_1_1_tree_plotter_base__t.html" target="_top" xlink:title="ant::analysis::physics\l::TreePlotterBase_t\&lt; WrapTree \&gt;">
<polygon fill="white" stroke="black" points="55,-87 55,-121 217,-121 217,-87 55,-87"/>
<text text-anchor="start" x="63" y="-108" font-family="Helvetica,sans-Serif" font-size="10.00">ant::analysis::physics</text>
<text text-anchor="middle" x="136" y="-95" font-family="Helvetica,sans-Serif" font-size="10.00">::TreePlotterBase_t&lt; WrapTree &gt;</text>
</a>
</g>
<!-- Node4&#45;&gt;Node3 -->
<g id="edge2" class="edge"><title>Node4&#45;&gt;Node3</title>
<path fill="none" stroke="midnightblue" d="M136,-76.5993C136,-67.2038 136,-56.7754 136,-47.6982"/>
<polygon fill="midnightblue" stroke="midnightblue" points="132.5,-76.6412 136,-86.6412 139.5,-76.6412 132.5,-76.6412"/>
</g>
<!-- Node5 -->
<g id="node4" class="node"><title>Node5</title>
<a xlink:href="classant_1_1analysis_1_1_plotter.html" target="_top" xlink:title="ant::analysis::Plotter">
<polygon fill="white" stroke="black" points="7.5,-172.5 7.5,-193.5 114.5,-193.5 114.5,-172.5 7.5,-172.5"/>
<text text-anchor="middle" x="61" y="-180.5" font-family="Helvetica,sans-Serif" font-size="10.00">ant::analysis::Plotter</text>
</a>
</g>
<!-- Node5&#45;&gt;Node4 -->
<g id="edge4" class="edge"><title>Node5&#45;&gt;Node4</title>
<path fill="none" stroke="midnightblue" d="M78.2566,-164.823C90.7399,-151.674 107.497,-134.023 119.743,-121.124"/>
<polygon fill="midnightblue" stroke="midnightblue" points="75.4616,-162.684 71.1148,-172.346 80.5383,-167.503 75.4616,-162.684"/>
</g>
<!-- Node6 -->
<g id="node6" class="node"><title>Node6</title>
<a xlink:href="classant_1_1analysis_1_1_histogram_factory.html" target="_top" xlink:title="ant::analysis::Histogram\lFactory">
<polygon fill="white" stroke="black" points="-0.5,-245 -0.5,-279 122.5,-279 122.5,-245 -0.5,-245"/>
<text text-anchor="start" x="7.5" y="-266" font-family="Helvetica,sans-Serif" font-size="10.00">ant::analysis::Histogram</text>
<text text-anchor="middle" x="61" y="-253" font-family="Helvetica,sans-Serif" font-size="10.00">Factory</text>
</a>
</g>
<!-- Node6&#45;&gt;Node5 -->
<g id="edge6" class="edge"><title>Node6&#45;&gt;Node5</title>
<path fill="none" stroke="#9a32cd" stroke-dasharray="5,2" d="M61,-234.623C61,-220.473 61,-204.024 61,-193.567"/>
<polygon fill="#9a32cd" stroke="#9a32cd" points="57.5001,-234.858 61,-244.858 64.5001,-234.858 57.5001,-234.858"/>
<text text-anchor="middle" x="80" y="-216.5" font-family="Helvetica,sans-Serif" font-size="10.00"> HistFac</text>
</g>
<!-- Node7 -->
<g id="node8" class="node"><title>Node7</title>
<polygon fill="white" stroke="#bfbfbf" points="131.5,-172.5 131.5,-193.5 190.5,-193.5 190.5,-172.5 131.5,-172.5"/>
<text text-anchor="middle" x="161" y="-180.5" font-family="Helvetica,sans-Serif" font-size="10.00">WrapTree</text>
</g>
<!-- Node7&#45;&gt;Node4 -->
<g id="edge8" class="edge"><title>Node7&#45;&gt;Node4</title>
<path fill="none" stroke="#9a32cd" stroke-dasharray="5,2" d="M154.528,-162.549C150.459,-149.691 145.27,-133.293 141.419,-121.124"/>
<polygon fill="#9a32cd" stroke="#9a32cd" points="151.274,-163.868 157.628,-172.346 157.948,-161.756 151.274,-163.868"/>
<text text-anchor="middle" x="161" y="-144.5" font-family="Helvetica,sans-Serif" font-size="10.00"> tree</text>
</g>
</g>
</svg>
