<?xml version="1.0" encoding="UTF-8" standalone="no"?>
<!DOCTYPE svg PUBLIC "-//W3C//DTD SVG 1.1//EN"
 "http://www.w3.org/Graphics/SVG/1.1/DTD/svg11.dtd">
<!-- Generated by graphviz version 2.26.3 (20100126.1600)
 -->
<!-- Title: ant::analysis::physics::Pi0EtaLostG Pages: 1 -->
<svg width="255pt" height="216pt"
 viewBox="0.00 0.00 255.00 216.00" xmlns="http://www.w3.org/2000/svg" xmlns:xlink="http://www.w3.org/1999/xlink">
<g id="graph1" class="graph" transform="scale(1 1) rotate(0) translate(4 212)">
<title>ant::analysis::physics::Pi0EtaLostG</title>
<polygon fill="white" stroke="white" points="-4,5 -4,-212 252,-212 252,5 -4,5"/>
<!-- Node2 -->
<g id="node1" class="node"><title>Node2</title>
<polygon fill="#bfbfbf" stroke="black" points="81,-1 81,-35 193,-35 193,-1 81,-1"/>
<text text-anchor="start" x="89" y="-22" font-family="Helvetica,sans-Serif" font-size="10.00">ant::analysis::physics</text>
<text text-anchor="middle" x="137" y="-9" font-family="Helvetica,sans-Serif" font-size="10.00">::Pi0EtaLostG</text>
</g>
<!-- Node3 -->
<g id="node2" class="node"><title>Node3</title>
<a xlink:href="classant_1_1analysis_1_1_physics.html" target="_top" xlink:title="ant::analysis::Physics">
<polygon fill="white" stroke="black" points="4.5,-93.5 4.5,-114.5 117.5,-114.5 117.5,-93.5 4.5,-93.5"/>
<text text-anchor="middle" x="61" y="-101.5" font-family="Helvetica,sans-Serif" font-size="10.00">ant::analysis::Physics</text>
</a>
</g>
<!-- Node3&#45;&gt;Node2 -->
<g id="edge2" class="edge"><title>Node3&#45;&gt;Node2</title>
<path fill="none" stroke="midnightblue" d="M77.0342,-85.856C90.2467,-70.9051 108.855,-49.8486 121.826,-35.1709"/>
<polygon fill="midnightblue" stroke="midnightblue" points="74.3184,-83.6437 70.3191,-93.4547 79.5638,-88.2791 74.3184,-83.6437"/>
</g>
<!-- Node4 -->
<g id="node4" class="node"><title>Node4</title>
<a xlink:href="classant_1_1analysis_1_1_histogram_factory.html" target="_top" xlink:title="ant::analysis::Histogram\lFactory">
<polygon fill="white" stroke="black" points="-0.5,-173 -0.5,-207 122.5,-207 122.5,-173 -0.5,-173"/>
<text text-anchor="start" x="7.5" y="-194" font-family="Helvetica,sans-Serif" font-size="10.00">ant::analysis::Histogram</text>
<text text-anchor="middle" x="61" y="-181" font-family="Helvetica,sans-Serif" font-size="10.00">Factory</text>
</a>
</g>
<!-- Node4&#45;&gt;Node3 -->
<g id="edge4" class="edge"><title>Node4&#45;&gt;Node3</title>
<path fill="none" stroke="#9a32cd" stroke-dasharray="5,2" d="M61,-162.56C61,-146.365 61,-126.766 61,-114.848"/>
<polygon fill="#9a32cd" stroke="#9a32cd" points="57.5001,-162.597 61,-172.597 64.5001,-162.597 57.5001,-162.597"/>
<text text-anchor="middle" x="80" y="-144.5" font-family="Helvetica,sans-Serif" font-size="10.00"> HistFac</text>
</g>
<!-- Node5 -->
<g id="node6" class="node"><title>Node5</title>
<a xlink:href="structant_1_1analysis_1_1physics_1_1_pi0_eta_lost_g_1_1_tree__t.html" target="_top" xlink:title="ant::analysis::physics\l::Pi0EtaLostG::Tree_t">
<polygon fill="white" stroke="black" points="135,-87 135,-121 247,-121 247,-87 135,-87"/>
<text text-anchor="start" x="143" y="-108" font-family="Helvetica,sans-Serif" font-size="10.00">ant::analysis::physics</text>
<text text-anchor="middle" x="191" y="-95" font-family="Helvetica,sans-Serif" font-size="10.00">::Pi0EtaLostG::Tree_t</text>
</a>
</g>
<!-- Node5&#45;&gt;Node2 -->
<g id="edge6" class="edge"><title>Node5&#45;&gt;Node2</title>
<path fill="none" stroke="#9a32cd" stroke-dasharray="5,2" d="M174.638,-77.9426C165.909,-64.041 155.415,-47.3271 147.727,-35.084"/>
<polygon fill="#9a32cd" stroke="#9a32cd" points="171.79,-79.9889 180.072,-86.5966 177.719,-76.2665 171.79,-79.9889"/>
<text text-anchor="middle" x="170.5" y="-58.5" font-family="Helvetica,sans-Serif" font-size="10.00"> t</text>
</g>
<!-- Node6 -->
<g id="node8" class="node"><title>Node6</title>
<a xlink:href="classant_1_1_wrap_t_tree.html" target="_top" xlink:title="The WrapTTree struct simplifies TTree handling in physics classes. ">
<polygon fill="white" stroke="black" points="148.5,-179.5 148.5,-200.5 233.5,-200.5 233.5,-179.5 148.5,-179.5"/>
<text text-anchor="middle" x="191" y="-187.5" font-family="Helvetica,sans-Serif" font-size="10.00">ant::WrapTTree</text>
</a>
</g>
<!-- Node6&#45;&gt;Node5 -->
<g id="edge8" class="edge"><title>Node6&#45;&gt;Node5</title>
<path fill="none" stroke="midnightblue" d="M191,-169.31C191,-154.585 191,-135.033 191,-121.171"/>
<polygon fill="midnightblue" stroke="midnightblue" points="187.5,-169.455 191,-179.455 194.5,-169.455 187.5,-169.455"/>
</g>
</g>
</svg>
