<?xml version="1.0" encoding="UTF-8" standalone="no"?>
<!DOCTYPE svg PUBLIC "-//W3C//DTD SVG 1.1//EN"
 "http://www.w3.org/Graphics/SVG/1.1/DTD/svg11.dtd">
<!-- Generated by graphviz version 2.26.3 (20100126.1600)
 -->
<!-- Title: ant::analysis::physics::IM_CB_TAPS_Plots Pages: 1 -->
<svg width="886pt" height="120pt"
 viewBox="0.00 0.00 886.00 120.00" xmlns="http://www.w3.org/2000/svg" xmlns:xlink="http://www.w3.org/1999/xlink">
<g id="graph1" class="graph" transform="scale(1 1) rotate(0) translate(4 116)">
<title>ant::analysis::physics::IM_CB_TAPS_Plots</title>
<polygon fill="white" stroke="white" points="-4,5 -4,-116 883,-116 883,5 -4,5"/>
<!-- Node2 -->
<g id="node1" class="node"><title>Node2</title>
<polygon fill="#bfbfbf" stroke="black" points="764.5,-54 764.5,-88 877.5,-88 877.5,-54 764.5,-54"/>
<text text-anchor="start" x="772.5" y="-75" font-family="Helvetica,sans-Serif" font-size="10.00">ant::analysis::physics</text>
<text text-anchor="middle" x="821" y="-62" font-family="Helvetica,sans-Serif" font-size="10.00">::IM_CB_TAPS_Plots</text>
</g>
<!-- Node3 -->
<g id="node2" class="node"><title>Node3</title>
<a xlink:href="classant_1_1analysis_1_1_physics.html" target="_top" xlink:title="ant::analysis::Physics">
<polygon fill="white" stroke="black" points="569.5,-84.5 569.5,-105.5 682.5,-105.5 682.5,-84.5 569.5,-84.5"/>
<text text-anchor="middle" x="626" y="-92.5" font-family="Helvetica,sans-Serif" font-size="10.00">ant::analysis::Physics</text>
</a>
</g>
<!-- Node3&#45;&gt;Node2 -->
<g id="edge2" class="edge"><title>Node3&#45;&gt;Node2</title>
<path fill="none" stroke="midnightblue" d="M692.788,-86.7799C716.022,-83.9204 741.846,-80.742 764.195,-77.9914"/>
<polygon fill="midnightblue" stroke="midnightblue" points="692.162,-83.3305 682.664,-88.026 693.017,-90.2781 692.162,-83.3305"/>
</g>
<!-- Node4 -->
<g id="node4" class="node"><title>Node4</title>
<a xlink:href="classant_1_1analysis_1_1_histogram_factory.html" target="_top" xlink:title="ant::analysis::Histogram\lFactory">
<polygon fill="white" stroke="black" points="336.5,-78 336.5,-112 459.5,-112 459.5,-78 336.5,-78"/>
<text text-anchor="start" x="344.5" y="-99" font-family="Helvetica,sans-Serif" font-size="10.00">ant::analysis::Histogram</text>
<text text-anchor="middle" x="398" y="-86" font-family="Helvetica,sans-Serif" font-size="10.00">Factory</text>
</a>
</g>
<!-- Node4&#45;&gt;Node3 -->
<g id="edge4" class="edge"><title>Node4&#45;&gt;Node3</title>
<path fill="none" stroke="#9a32cd" stroke-dasharray="5,2" d="M469.92,-95C502.006,-95 539.266,-95 569.333,-95"/>
<polygon fill="#9a32cd" stroke="#9a32cd" points="469.7,-91.5001 459.7,-95 469.7,-98.5001 469.7,-91.5001"/>
<text text-anchor="middle" x="510" y="-99" font-family="Helvetica,sans-Serif" font-size="10.00"> HistFac</text>
</g>
<!-- Node5 -->
<g id="node6" class="node"><title>Node5</title>
<polygon fill="white" stroke="#bfbfbf" points="550,-18.5 550,-65.5 702,-65.5 702,-18.5 550,-18.5"/>
<text text-anchor="start" x="558" y="-52.5" font-family="Helvetica,sans-Serif" font-size="10.00">std::vector&lt; ant::analysis</text>
<text text-anchor="start" x="558" y="-39.5" font-family="Helvetica,sans-Serif" font-size="10.00">::physics::IM_CB_TAPS_Plots</text>
<text text-anchor="middle" x="626" y="-26.5" font-family="Helvetica,sans-Serif" font-size="10.00">::hist_t &gt;</text>
</g>
<!-- Node5&#45;&gt;Node2 -->
<g id="edge6" class="edge"><title>Node5&#45;&gt;Node2</title>
<path fill="none" stroke="#9a32cd" stroke-dasharray="5,2" d="M712.521,-54.8672C730.124,-57.485 748.21,-60.1748 764.446,-62.5893"/>
<polygon fill="#9a32cd" stroke="#9a32cd" points="712.636,-51.3459 702.23,-53.3368 711.606,-58.2698 712.636,-51.3459"/>
<text text-anchor="middle" x="733" y="-63" font-family="Helvetica,sans-Serif" font-size="10.00"> hists</text>
</g>
<!-- Node6 -->
<g id="node8" class="node"><title>Node6</title>
<a xlink:href="structant_1_1analysis_1_1physics_1_1_i_m___c_b___t_a_p_s___plots_1_1hist__t.html" target="_top" xlink:title="ant::analysis::physics\l::IM_CB_TAPS_Plots::hist_t">
<polygon fill="white" stroke="black" points="326.5,-25 326.5,-59 469.5,-59 469.5,-25 326.5,-25"/>
<text text-anchor="start" x="334.5" y="-46" font-family="Helvetica,sans-Serif" font-size="10.00">ant::analysis::physics</text>
<text text-anchor="middle" x="398" y="-33" font-family="Helvetica,sans-Serif" font-size="10.00">::IM_CB_TAPS_Plots::hist_t</text>
</a>
</g>
<!-- Node6&#45;&gt;Node5 -->
<g id="edge8" class="edge"><title>Node6&#45;&gt;Node5</title>
<path fill="none" stroke="#9a32cd" stroke-dasharray="5,2" d="M479.822,-42C502.571,-42 527.182,-42 549.607,-42"/>
<polygon fill="#9a32cd" stroke="#9a32cd" points="479.515,-38.5001 469.515,-42 479.515,-45.5001 479.515,-38.5001"/>
<text text-anchor="middle" x="510" y="-46" font-family="Helvetica,sans-Serif" font-size="10.00"> elements</text>
</g>
<!-- Node7 -->
<g id="node10" class="node"><title>Node7</title>
<a xlink:title="STL class. ">
<polygon fill="white" stroke="#bfbfbf" points="176,-62.5 176,-83.5 236,-83.5 236,-62.5 176,-62.5"/>
<text text-anchor="middle" x="206" y="-70.5" font-family="Helvetica,sans-Serif" font-size="10.00">std::string</text>
</a>
</g>
<!-- Node7&#45;&gt;Node6 -->
<g id="edge10" class="edge"><title>Node7&#45;&gt;Node6</title>
<path fill="none" stroke="#9a32cd" stroke-dasharray="5,2" d="M246.555,-66.4521C269.679,-62.7185 299.334,-57.9304 326.263,-53.5825"/>
<polygon fill="#9a32cd" stroke="#9a32cd" points="245.737,-63.0387 236.423,-68.088 246.853,-69.9492 245.737,-63.0387"/>
<text text-anchor="middle" x="289" y="-66" font-family="Helvetica,sans-Serif" font-size="10.00"> prefix</text>
</g>
<!-- Node8 -->
<g id="node12" class="node"><title>Node8</title>
<a xlink:title="STL class. ">
<polygon fill="white" stroke="#bfbfbf" points="0.5,-56 0.5,-90 95.5,-90 95.5,-56 0.5,-56"/>
<text text-anchor="start" x="8.5" y="-77" font-family="Helvetica,sans-Serif" font-size="10.00">std::basic_string&lt;</text>
<text text-anchor="middle" x="48" y="-64" font-family="Helvetica,sans-Serif" font-size="10.00"> char &gt;</text>
</a>
</g>
<!-- Node8&#45;&gt;Node7 -->
<g id="edge12" class="edge"><title>Node8&#45;&gt;Node7</title>
<path fill="none" stroke="midnightblue" d="M106.116,-73C129.743,-73 156.054,-73 175.739,-73"/>
<polygon fill="midnightblue" stroke="midnightblue" points="105.834,-69.5001 95.834,-73 105.834,-76.5001 105.834,-69.5001"/>
</g>
<!-- Node9 -->
<g id="node14" class="node"><title>Node9</title>
<a xlink:href="classant_1_1interval.html" target="_top" xlink:title="Interval class template. ">
<polygon fill="white" stroke="black" points="160,-0.5 160,-21.5 252,-21.5 252,-0.5 160,-0.5"/>
<text text-anchor="middle" x="206" y="-8.5" font-family="Helvetica,sans-Serif" font-size="10.00">ant::interval&lt; T &gt;</text>
</a>
</g>
<!-- Node9&#45;&gt;Node6 -->
<g id="edge14" class="edge"><title>Node9&#45;&gt;Node6</title>
<path fill="none" stroke="#9a32cd" stroke-dasharray="5,2" d="M262.339,-9.17171C277.264,-9.48551 293.309,-10.5438 308,-13 323.22,-15.5447 339.397,-20.1306 353.776,-24.9156"/>
<polygon fill="#9a32cd" stroke="#9a32cd" points="262.252,-5.6707 252.215,-9.06538 262.178,-12.6703 262.252,-5.6707"/>
<text text-anchor="middle" x="289" y="-43" font-family="Helvetica,sans-Serif" font-size="10.00"> n_CB</text>
<text text-anchor="middle" x="289" y="-30" font-family="Helvetica,sans-Serif" font-size="10.00">n_TAPS</text>
<text text-anchor="middle" x="289" y="-17" font-family="Helvetica,sans-Serif" font-size="10.00">any</text>
</g>
<!-- Node10 -->
<g id="node16" class="node"><title>Node10</title>
<polygon fill="white" stroke="#bfbfbf" points="33.5,-0.5 33.5,-21.5 62.5,-21.5 62.5,-0.5 33.5,-0.5"/>
<text text-anchor="middle" x="48" y="-8.5" font-family="Helvetica,sans-Serif" font-size="10.00">T</text>
</g>
<!-- Node10&#45;&gt;Node9 -->
<g id="edge16" class="edge"><title>Node10&#45;&gt;Node9</title>
<path fill="none" stroke="#9a32cd" stroke-dasharray="5,2" d="M72.6462,-11C95.9275,-11 131.433,-11 159.955,-11"/>
<polygon fill="#9a32cd" stroke="#9a32cd" points="72.5811,-7.5001 62.5811,-11 72.581,-14.5001 72.5811,-7.5001"/>
<text text-anchor="middle" x="128" y="-28" font-family="Helvetica,sans-Serif" font-size="10.00"> _start</text>
<text text-anchor="middle" x="128" y="-15" font-family="Helvetica,sans-Serif" font-size="10.00">_stop</text>
</g>
</g>
</svg>
