<?xml version="1.0" encoding="UTF-8" standalone="no"?>
<!DOCTYPE svg PUBLIC "-//W3C//DTD SVG 1.1//EN"
 "http://www.w3.org/Graphics/SVG/1.1/DTD/svg11.dtd">
<!-- Generated by graphviz version 2.26.3 (20100126.1600)
 -->
<!-- Title: singlePi0_Efficiency Pages: 1 -->
<svg width="268pt" height="374pt"
 viewBox="0.00 0.00 268.00 374.00" xmlns="http://www.w3.org/2000/svg" xmlns:xlink="http://www.w3.org/1999/xlink">
<g id="graph1" class="graph" transform="scale(1 1) rotate(0) translate(4 370)">
<title>singlePi0_Efficiency</title>
<polygon fill="white" stroke="white" points="-4,5 -4,-370 265,-370 265,5 -4,5"/>
<!-- Node4 -->
<g id="node1" class="node"><title>Node4</title>
<polygon fill="#bfbfbf" stroke="black" points="88.5,-0.5 88.5,-21.5 193.5,-21.5 193.5,-0.5 88.5,-0.5"/>
<text text-anchor="middle" x="141" y="-8.5" font-family="Helvetica,sans-Serif" font-size="10.00">singlePi0_Efficiency</text>
</g>
<!-- Node5 -->
<g id="node2" class="node"><title>Node5</title>
<a xlink:href="classant_1_1analysis_1_1physics_1_1_detection_effciency_base__t.html" target="_top" xlink:title="ant::analysis::physics\l::DetectionEffciencyBase\l_t\&lt; singlePi0::PionProdTree \&gt;">
<polygon fill="white" stroke="black" points="67,-60.5 67,-107.5 215,-107.5 215,-60.5 67,-60.5"/>
<text text-anchor="start" x="75" y="-94.5" font-family="Helvetica,sans-Serif" font-size="10.00">ant::analysis::physics</text>
<text text-anchor="start" x="75" y="-81.5" font-family="Helvetica,sans-Serif" font-size="10.00">::DetectionEffciencyBase</text>
<text text-anchor="middle" x="141" y="-68.5" font-family="Helvetica,sans-Serif" font-size="10.00">_t&lt; singlePi0::PionProdTree &gt;</text>
</a>
</g>
<!-- Node5&#45;&gt;Node4 -->
<g id="edge2" class="edge"><title>Node5&#45;&gt;Node4</title>
<path fill="none" stroke="midnightblue" d="M141,-50.0345C141,-39.7609 141,-29.2182 141,-21.6832"/>
<polygon fill="midnightblue" stroke="midnightblue" points="137.5,-50.097 141,-60.0971 144.5,-50.0971 137.5,-50.097"/>
</g>
<!-- Node6 -->
<g id="node4" class="node"><title>Node6</title>
<a xlink:href="classant_1_1analysis_1_1physics_1_1_tree_plotter_base__t.html" target="_top" xlink:title="ant::analysis::physics\l::TreePlotterBase_t\&lt; singlePi0\l::PionProdTree \&gt;">
<polygon fill="white" stroke="black" points="66,-146.5 66,-193.5 216,-193.5 216,-146.5 66,-146.5"/>
<text text-anchor="start" x="74" y="-180.5" font-family="Helvetica,sans-Serif" font-size="10.00">ant::analysis::physics</text>
<text text-anchor="start" x="74" y="-167.5" font-family="Helvetica,sans-Serif" font-size="10.00">::TreePlotterBase_t&lt; singlePi0</text>
<text text-anchor="middle" x="141" y="-154.5" font-family="Helvetica,sans-Serif" font-size="10.00">::PionProdTree &gt;</text>
</a>
</g>
<!-- Node6&#45;&gt;Node5 -->
<g id="edge4" class="edge"><title>Node6&#45;&gt;Node5</title>
<path fill="none" stroke="midnightblue" d="M141,-136.027C141,-126.484 141,-116.319 141,-107.53"/>
<polygon fill="midnightblue" stroke="midnightblue" points="137.5,-136.044 141,-146.044 144.5,-136.044 137.5,-136.044"/>
</g>
<!-- Node7 -->
<g id="node6" class="node"><title>Node7</title>
<a xlink:href="classant_1_1analysis_1_1_plotter.html" target="_top" xlink:title="ant::analysis::Plotter">
<polygon fill="white" stroke="black" points="7.5,-251.5 7.5,-272.5 114.5,-272.5 114.5,-251.5 7.5,-251.5"/>
<text text-anchor="middle" x="61" y="-259.5" font-family="Helvetica,sans-Serif" font-size="10.00">ant::analysis::Plotter</text>
</a>
</g>
<!-- Node7&#45;&gt;Node6 -->
<g id="edge6" class="edge"><title>Node7&#45;&gt;Node6</title>
<path fill="none" stroke="midnightblue" d="M76.8664,-243.754C89.3199,-229.432 106.758,-209.379 120.307,-193.797"/>
<polygon fill="midnightblue" stroke="midnightblue" points="74.0977,-241.604 70.177,-251.446 79.38,-246.197 74.0977,-241.604"/>
</g>
<!-- Node8 -->
<g id="node8" class="node"><title>Node8</title>
<a xlink:href="classant_1_1analysis_1_1_histogram_factory.html" target="_top" xlink:title="ant::analysis::Histogram\lFactory">
<polygon fill="white" stroke="black" points="-0.5,-331 -0.5,-365 122.5,-365 122.5,-331 -0.5,-331"/>
<text text-anchor="start" x="7.5" y="-352" font-family="Helvetica,sans-Serif" font-size="10.00">ant::analysis::Histogram</text>
<text text-anchor="middle" x="61" y="-339" font-family="Helvetica,sans-Serif" font-size="10.00">Factory</text>
</a>
</g>
<!-- Node8&#45;&gt;Node7 -->
<g id="edge8" class="edge"><title>Node8&#45;&gt;Node7</title>
<path fill="none" stroke="#9a32cd" stroke-dasharray="5,2" d="M61,-320.56C61,-304.365 61,-284.766 61,-272.848"/>
<polygon fill="#9a32cd" stroke="#9a32cd" points="57.5001,-320.597 61,-330.597 64.5001,-320.597 57.5001,-320.597"/>
<text text-anchor="middle" x="80" y="-302.5" font-family="Helvetica,sans-Serif" font-size="10.00"> HistFac</text>
</g>
<!-- Node9 -->
<g id="node10" class="node"><title>Node9</title>
<a xlink:href="structant_1_1analysis_1_1physics_1_1single_pi0_1_1_pion_prod_tree.html" target="_top" xlink:title="ant::analysis::physics\l::singlePi0::PionProdTree">
<polygon fill="white" stroke="black" points="132,-245 132,-279 260,-279 260,-245 132,-245"/>
<text text-anchor="start" x="140" y="-266" font-family="Helvetica,sans-Serif" font-size="10.00">ant::analysis::physics</text>
<text text-anchor="middle" x="196" y="-253" font-family="Helvetica,sans-Serif" font-size="10.00">::singlePi0::PionProdTree</text>
</a>
</g>
<!-- Node9&#45;&gt;Node6 -->
<g id="edge10" class="edge"><title>Node9&#45;&gt;Node6</title>
<path fill="none" stroke="#9a32cd" stroke-dasharray="5,2" d="M180.475,-236.031C172.55,-222.775 162.976,-206.761 155.242,-193.823"/>
<polygon fill="#9a32cd" stroke="#9a32cd" points="177.52,-237.908 185.655,-244.696 183.528,-234.316 177.52,-237.908"/>
<text text-anchor="middle" x="183" y="-216.5" font-family="Helvetica,sans-Serif" font-size="10.00"> tree</text>
</g>
<!-- Node10 -->
<g id="node12" class="node"><title>Node10</title>
<a xlink:href="classant_1_1_wrap_t_tree.html" target="_top" xlink:title="The WrapTTree struct simplifies TTree handling in physics classes. ">
<polygon fill="white" stroke="black" points="153.5,-337.5 153.5,-358.5 238.5,-358.5 238.5,-337.5 153.5,-337.5"/>
<text text-anchor="middle" x="196" y="-345.5" font-family="Helvetica,sans-Serif" font-size="10.00">ant::WrapTTree</text>
</a>
</g>
<!-- Node10&#45;&gt;Node9 -->
<g id="edge12" class="edge"><title>Node10&#45;&gt;Node9</title>
<path fill="none" stroke="midnightblue" d="M196,-327.31C196,-312.585 196,-293.033 196,-279.171"/>
<polygon fill="midnightblue" stroke="midnightblue" points="192.5,-327.455 196,-337.455 199.5,-327.455 192.5,-327.455"/>
</g>
</g>
</svg>
