<?xml version="1.0" encoding="UTF-8" standalone="no"?>
<!DOCTYPE svg PUBLIC "-//W3C//DTD SVG 1.1//EN"
 "http://www.w3.org/Graphics/SVG/1.1/DTD/svg11.dtd">
<!-- Generated by graphviz version 2.26.3 (20100126.1600)
 -->
<!-- Title: singlePi0_Plot Pages: 1 -->
<svg width="198pt" height="248pt"
 viewBox="0.00 0.00 198.00 248.00" xmlns="http://www.w3.org/2000/svg" xmlns:xlink="http://www.w3.org/1999/xlink">
<g id="graph1" class="graph" transform="scale(1 1) rotate(0) translate(4 244)">
<title>singlePi0_Plot</title>
<polygon fill="white" stroke="white" points="-4,5 -4,-244 195,-244 195,5 -4,5"/>
<!-- Node3 -->
<g id="node1" class="node"><title>Node3</title>
<polygon fill="#bfbfbf" stroke="black" points="96.5,-0.5 96.5,-21.5 175.5,-21.5 175.5,-0.5 96.5,-0.5"/>
<text text-anchor="middle" x="136" y="-8.5" font-family="Helvetica,sans-Serif" font-size="10.00">singlePi0_Plot</text>
</g>
<!-- Node4 -->
<g id="node2" class="node"><title>Node4</title>
<a xlink:href="classant_1_1analysis_1_1physics_1_1_tree_plotter_base__t.html" target="_top" xlink:title="singlePi0_PlotBase">
<polygon fill="white" stroke="black" points="85.5,-60.5 85.5,-81.5 186.5,-81.5 186.5,-60.5 85.5,-60.5"/>
<text text-anchor="middle" x="136" y="-68.5" font-family="Helvetica,sans-Serif" font-size="10.00">singlePi0_PlotBase</text>
</a>
</g>
<!-- Node4&#45;&gt;Node3 -->
<g id="edge2" class="edge"><title>Node4&#45;&gt;Node3</title>
<path fill="none" stroke="midnightblue" d="M136,-50.2312C136,-40.5922 136,-29.5444 136,-21.6339"/>
<polygon fill="midnightblue" stroke="midnightblue" points="132.5,-50.2732 136,-60.2732 139.5,-50.2732 132.5,-50.2732"/>
</g>
<!-- Node5 -->
<g id="node4" class="node"><title>Node5</title>
<a xlink:href="classant_1_1analysis_1_1_plotter.html" target="_top" xlink:title="ant::analysis::Plotter">
<polygon fill="white" stroke="black" points="7.5,-132.5 7.5,-153.5 114.5,-153.5 114.5,-132.5 7.5,-132.5"/>
<text text-anchor="middle" x="61" y="-140.5" font-family="Helvetica,sans-Serif" font-size="10.00">ant::analysis::Plotter</text>
</a>
</g>
<!-- Node5&#45;&gt;Node4 -->
<g id="edge4" class="edge"><title>Node5&#45;&gt;Node4</title>
<path fill="none" stroke="midnightblue" d="M79.3866,-125.349C93.634,-111.671 112.905,-93.1709 124.888,-81.6674"/>
<polygon fill="midnightblue" stroke="midnightblue" points="76.8565,-122.926 72.0665,-132.376 81.7043,-127.976 76.8565,-122.926"/>
</g>
<!-- Node6 -->
<g id="node6" class="node"><title>Node6</title>
<a xlink:href="classant_1_1analysis_1_1_histogram_factory.html" target="_top" xlink:title="ant::analysis::Histogram\lFactory">
<polygon fill="white" stroke="black" points="-0.5,-205 -0.5,-239 122.5,-239 122.5,-205 -0.5,-205"/>
<text text-anchor="start" x="7.5" y="-226" font-family="Helvetica,sans-Serif" font-size="10.00">ant::analysis::Histogram</text>
<text text-anchor="middle" x="61" y="-213" font-family="Helvetica,sans-Serif" font-size="10.00">Factory</text>
</a>
</g>
<!-- Node6&#45;&gt;Node5 -->
<g id="edge6" class="edge"><title>Node6&#45;&gt;Node5</title>
<path fill="none" stroke="#9a32cd" stroke-dasharray="5,2" d="M61,-194.623C61,-180.473 61,-164.024 61,-153.567"/>
<polygon fill="#9a32cd" stroke="#9a32cd" points="57.5001,-194.858 61,-204.858 64.5001,-194.858 57.5001,-194.858"/>
<text text-anchor="middle" x="80" y="-176.5" font-family="Helvetica,sans-Serif" font-size="10.00"> HistFac</text>
</g>
<!-- Node7 -->
<g id="node8" class="node"><title>Node7</title>
<polygon fill="white" stroke="#bfbfbf" points="131.5,-132.5 131.5,-153.5 190.5,-153.5 190.5,-132.5 131.5,-132.5"/>
<text text-anchor="middle" x="161" y="-140.5" font-family="Helvetica,sans-Serif" font-size="10.00">WrapTree</text>
</g>
<!-- Node7&#45;&gt;Node4 -->
<g id="edge8" class="edge"><title>Node7&#45;&gt;Node4</title>
<path fill="none" stroke="#9a32cd" stroke-dasharray="5,2" d="M153.928,-122.632C149.3,-109.303 143.439,-92.4253 139.704,-81.6674"/>
<polygon fill="#9a32cd" stroke="#9a32cd" points="150.725,-124.077 157.311,-132.376 157.337,-121.781 150.725,-124.077"/>
<text text-anchor="middle" x="160" y="-104.5" font-family="Helvetica,sans-Serif" font-size="10.00"> tree</text>
</g>
</g>
</svg>
