<?xml version="1.0" encoding="UTF-8" standalone="no"?>
<!DOCTYPE svg PUBLIC "-//W3C//DTD SVG 1.1//EN"
 "http://www.w3.org/Graphics/SVG/1.1/DTD/svg11.dtd">
<!-- Generated by graphviz version 2.26.3 (20100126.1600)
 -->
<!-- Title: ant::analysis::physics::TreePlotterBase_t&lt; WrapTree &gt; Pages: 1 -->
<svg width="225pt" height="202pt"
 viewBox="0.00 0.00 225.00 202.00" xmlns="http://www.w3.org/2000/svg" xmlns:xlink="http://www.w3.org/1999/xlink">
<g id="graph1" class="graph" transform="scale(1 1) rotate(0) translate(4 198)">
<title>ant::analysis::physics::TreePlotterBase_t&lt; WrapTree &gt;</title>
<polygon fill="white" stroke="white" points="-4,5 -4,-198 222,-198 222,5 -4,5"/>
<!-- Node6 -->
<g id="node1" class="node"><title>Node6</title>
<polygon fill="#bfbfbf" stroke="black" points="55,-1 55,-35 217,-35 217,-1 55,-1"/>
<text text-anchor="start" x="63" y="-22" font-family="Helvetica,sans-Serif" font-size="10.00">ant::analysis::physics</text>
<text text-anchor="middle" x="136" y="-9" font-family="Helvetica,sans-Serif" font-size="10.00">::TreePlotterBase_t&lt; WrapTree &gt;</text>
</g>
<!-- Node7 -->
<g id="node2" class="node"><title>Node7</title>
<a xlink:href="classant_1_1analysis_1_1_plotter.html" target="_top" xlink:title="ant::analysis::Plotter">
<polygon fill="white" stroke="black" points="7.5,-86.5 7.5,-107.5 114.5,-107.5 114.5,-86.5 7.5,-86.5"/>
<text text-anchor="middle" x="61" y="-94.5" font-family="Helvetica,sans-Serif" font-size="10.00">ant::analysis::Plotter</text>
</a>
</g>
<!-- Node7&#45;&gt;Node6 -->
<g id="edge2" class="edge"><title>Node7&#45;&gt;Node6</title>
<path fill="none" stroke="midnightblue" d="M78.2566,-78.823C90.7399,-65.674 107.497,-48.0232 119.743,-35.1236"/>
<polygon fill="midnightblue" stroke="midnightblue" points="75.4616,-76.6836 71.1148,-86.3457 80.5383,-81.5032 75.4616,-76.6836"/>
</g>
<!-- Node8 -->
<g id="node4" class="node"><title>Node8</title>
<a xlink:href="classant_1_1analysis_1_1_histogram_factory.html" target="_top" xlink:title="ant::analysis::Histogram\lFactory">
<polygon fill="white" stroke="black" points="-0.5,-159 -0.5,-193 122.5,-193 122.5,-159 -0.5,-159"/>
<text text-anchor="start" x="7.5" y="-180" font-family="Helvetica,sans-Serif" font-size="10.00">ant::analysis::Histogram</text>
<text text-anchor="middle" x="61" y="-167" font-family="Helvetica,sans-Serif" font-size="10.00">Factory</text>
</a>
</g>
<!-- Node8&#45;&gt;Node7 -->
<g id="edge4" class="edge"><title>Node8&#45;&gt;Node7</title>
<path fill="none" stroke="#9a32cd" stroke-dasharray="5,2" d="M61,-148.623C61,-134.473 61,-118.024 61,-107.567"/>
<polygon fill="#9a32cd" stroke="#9a32cd" points="57.5001,-148.858 61,-158.858 64.5001,-148.858 57.5001,-148.858"/>
<text text-anchor="middle" x="80" y="-130.5" font-family="Helvetica,sans-Serif" font-size="10.00"> HistFac</text>
</g>
<!-- Node9 -->
<g id="node6" class="node"><title>Node9</title>
<polygon fill="white" stroke="#bfbfbf" points="131.5,-86.5 131.5,-107.5 190.5,-107.5 190.5,-86.5 131.5,-86.5"/>
<text text-anchor="middle" x="161" y="-94.5" font-family="Helvetica,sans-Serif" font-size="10.00">WrapTree</text>
</g>
<!-- Node9&#45;&gt;Node6 -->
<g id="edge6" class="edge"><title>Node9&#45;&gt;Node6</title>
<path fill="none" stroke="#9a32cd" stroke-dasharray="5,2" d="M154.528,-76.5486C150.459,-63.691 145.27,-47.293 141.419,-35.1236"/>
<polygon fill="#9a32cd" stroke="#9a32cd" points="151.274,-77.8677 157.628,-86.3457 157.948,-75.7557 151.274,-77.8677"/>
<text text-anchor="middle" x="161" y="-58.5" font-family="Helvetica,sans-Serif" font-size="10.00"> tree</text>
</g>
</g>
</svg>
