<?xml version="1.0" encoding="UTF-8" standalone="no"?>
<!DOCTYPE svg PUBLIC "-//W3C//DTD SVG 1.1//EN"
 "http://www.w3.org/Graphics/SVG/1.1/DTD/svg11.dtd">
<!-- Generated by graphviz version 2.26.3 (20100126.1600)
 -->
<!-- Title: src/analysis/physics/production Pages: 1 -->
<svg width="364pt" height="441pt"
 viewBox="0.00 0.00 364.00 441.00" xmlns="http://www.w3.org/2000/svg" xmlns:xlink="http://www.w3.org/1999/xlink">
<g id="graph1" class="graph" transform="scale(1 1) rotate(0) translate(4 437)">
<title>src/analysis/physics/production</title>
<polygon fill="white" stroke="white" points="-4,5 -4,-437 361,-437 361,5 -4,5"/>
<g id="graph2" class="cluster"><title>clusterdir_a21a804d6482c442bcd1b39e4dfcc179</title>
<a xlink:href="dir_a21a804d6482c442bcd1b39e4dfcc179.html" target="_top" xlink:title="physics">
<polygon fill="#ddddee" stroke="black" points="89,-352 89,-425 167,-425 167,-352 89,-352"/>
<text text-anchor="middle" x="128" y="-412" font-family="Helvetica,sans-Serif" font-size="10.00">physics</text>
</a>
</g>
<!-- dir_e884bea2662087624c49c4b98ba4353a -->
<g id="node2" class="node"><title>dir_e884bea2662087624c49c4b98ba4353a</title>
<a xlink:href="dir_e884bea2662087624c49c4b98ba4353a.html" target="_top" xlink:title="production">
<polygon fill="#eeeeff" stroke="black" points="159,-396 97,-396 97,-360 159,-360 159,-396"/>
<text text-anchor="middle" x="128" y="-375.5" font-family="Helvetica,sans-Serif" font-size="10.00">production</text>
</a>
</g>
<!-- dir_0a0aa297e888439a92fbcfd5e567f128 -->
<g id="node3" class="node"><title>dir_0a0aa297e888439a92fbcfd5e567f128</title>
<a xlink:href="dir_0a0aa297e888439a92fbcfd5e567f128.html" target="_top" xlink:title="utils">
<polygon fill="white" stroke="red" points="120,-252 66,-252 66,-216 120,-216 120,-252"/>
<text text-anchor="middle" x="93" y="-231.5" font-family="Helvetica,sans-Serif" font-size="10.00">utils</text>
</a>
</g>
<!-- dir_e884bea2662087624c49c4b98ba4353a&#45;&gt;dir_0a0aa297e888439a92fbcfd5e567f128 -->
<g id="edge25" class="edge"><title>dir_e884bea2662087624c49c4b98ba4353a&#45;&gt;dir_0a0aa297e888439a92fbcfd5e567f128</title>
<path fill="none" stroke="black" d="M123.567,-359.762C117.571,-335.093 106.82,-290.86 99.799,-261.973"/>
<polygon fill="black" stroke="black" points="103.16,-260.98 97.3968,-252.09 96.3577,-262.633 103.16,-260.98"/>
<a xlink:href="dir_000027_000033.html" target="_top" xlink:title="13">
<text text-anchor="middle" x="106.767" y="-261.302" font-family="Helvetica,sans-Serif" font-size="10.00">13</text>
</a>
</g>
<!-- dir_0af1587c8378955de40f48b4bd1869f0 -->
<g id="node4" class="node"><title>dir_0af1587c8378955de40f48b4bd1869f0</title>
<a xlink:href="dir_0af1587c8378955de40f48b4bd1869f0.html" target="_top" xlink:title="base">
<polygon fill="white" stroke="red" points="166,-36 112,-36 112,-1.77636e-14 166,-3.55271e-15 166,-36"/>
<text text-anchor="middle" x="139" y="-15.5" font-family="Helvetica,sans-Serif" font-size="10.00">base</text>
</a>
</g>
<!-- dir_e884bea2662087624c49c4b98ba4353a&#45;&gt;dir_0af1587c8378955de40f48b4bd1869f0 -->
<g id="edge27" class="edge"><title>dir_e884bea2662087624c49c4b98ba4353a&#45;&gt;dir_0af1587c8378955de40f48b4bd1869f0</title>
<path fill="none" stroke="black" d="M96.6877,-360.855C58.7935,-337.547 0,-292.034 0,-234 0,-234 0,-234 0,-162 0,-102.723 61.7278,-58.5015 102.913,-35.594"/>
<polygon fill="black" stroke="black" points="104.728,-38.5915 111.869,-30.7649 101.406,-32.4301 104.728,-38.5915"/>
<a xlink:href="dir_000027_000018.html" target="_top" xlink:title="7">
<text text-anchor="middle" x="102.912" y="-40.2966" font-family="Helvetica,sans-Serif" font-size="10.00">7</text>
</a>
</g>
<!-- dir_15cb7383784026d829002226dc1288d7 -->
<g id="node5" class="node"><title>dir_15cb7383784026d829002226dc1288d7</title>
<a xlink:href="dir_15cb7383784026d829002226dc1288d7.html" target="_top" xlink:title="scratch">
<polygon fill="white" stroke="red" points="240,-324 186,-324 186,-288 240,-288 240,-324"/>
<text text-anchor="middle" x="213" y="-303.5" font-family="Helvetica,sans-Serif" font-size="10.00">scratch</text>
</a>
</g>
<!-- dir_e884bea2662087624c49c4b98ba4353a&#45;&gt;dir_15cb7383784026d829002226dc1288d7 -->
<g id="edge29" class="edge"><title>dir_e884bea2662087624c49c4b98ba4353a&#45;&gt;dir_15cb7383784026d829002226dc1288d7</title>
<path fill="none" stroke="black" d="M149.449,-359.831C159.818,-351.048 172.423,-340.371 183.665,-330.849"/>
<polygon fill="black" stroke="black" points="186.19,-333.297 191.558,-324.163 181.665,-327.956 186.19,-333.297"/>
<a xlink:href="dir_000027_000005.html" target="_top" xlink:title="3">
<text text-anchor="middle" x="185.282" y="-335.287" font-family="Helvetica,sans-Serif" font-size="10.00">3</text>
</a>
</g>
<!-- dir_c4f4646ab0f4a2967be5b6215a500c22 -->
<g id="node6" class="node"><title>dir_c4f4646ab0f4a2967be5b6215a500c22</title>
<a xlink:href="dir_c4f4646ab0f4a2967be5b6215a500c22.html" target="_top" xlink:title="expconfig">
<polygon fill="white" stroke="red" points="206,-108 148,-108 148,-72 206,-72 206,-108"/>
<text text-anchor="middle" x="177" y="-87.5" font-family="Helvetica,sans-Serif" font-size="10.00">expconfig</text>
</a>
</g>
<!-- dir_e884bea2662087624c49c4b98ba4353a&#45;&gt;dir_c4f4646ab0f4a2967be5b6215a500c22 -->
<g id="edge31" class="edge"><title>dir_e884bea2662087624c49c4b98ba4353a&#45;&gt;dir_c4f4646ab0f4a2967be5b6215a500c22</title>
<path fill="none" stroke="black" d="M131.065,-359.984C139.349,-311.294 162.233,-176.796 172.226,-118.057"/>
<polygon fill="black" stroke="black" points="175.709,-118.454 173.936,-108.009 168.808,-117.28 175.709,-118.454"/>
<a xlink:href="dir_000027_000037.html" target="_top" xlink:title="4">
<text text-anchor="middle" x="177.905" y="-119.974" font-family="Helvetica,sans-Serif" font-size="10.00">4</text>
</a>
</g>
<!-- dir_8f68c37b22d514b4289e3a1255795d80 -->
<g id="node7" class="node"><title>dir_8f68c37b22d514b4289e3a1255795d80</title>
<a xlink:href="dir_8f68c37b22d514b4289e3a1255795d80.html" target="_top" xlink:title="plot">
<polygon fill="none" stroke="black" points="120,-180 66,-180 66,-144 120,-144 120,-180"/>
<text text-anchor="middle" x="93" y="-159.5" font-family="Helvetica,sans-Serif" font-size="10.00">plot</text>
</a>
</g>
<!-- dir_e884bea2662087624c49c4b98ba4353a&#45;&gt;dir_8f68c37b22d514b4289e3a1255795d80 -->
<g id="edge33" class="edge"><title>dir_e884bea2662087624c49c4b98ba4353a&#45;&gt;dir_8f68c37b22d514b4289e3a1255795d80</title>
<path fill="none" stroke="black" d="M113.624,-359.698C96.2427,-336.292 67.9594,-293.774 57,-252 52.9397,-236.524 52.3635,-231.313 57,-216 59.9564,-206.236 65.3252,-196.623 71.03,-188.276"/>
<polygon fill="black" stroke="black" points="73.9414,-190.224 77.0095,-180.083 68.2871,-186.097 73.9414,-190.224"/>
<a xlink:href="dir_000027_000034.html" target="_top" xlink:title="4">
<text text-anchor="middle" x="74.1158" y="-192.301" font-family="Helvetica,sans-Serif" font-size="10.00">4</text>
</a>
</g>
<!-- dir_f7cc278301683119f8719a92f4ffdd26 -->
<g id="node8" class="node"><title>dir_f7cc278301683119f8719a92f4ffdd26</title>
<a xlink:href="dir_f7cc278301683119f8719a92f4ffdd26.html" target="_top" xlink:title="slowcontrol">
<polygon fill="white" stroke="red" points="356,-252 290,-252 290,-216 356,-216 356,-252"/>
<text text-anchor="middle" x="323" y="-231.5" font-family="Helvetica,sans-Serif" font-size="10.00">slowcontrol</text>
</a>
</g>
<!-- dir_e884bea2662087624c49c4b98ba4353a&#45;&gt;dir_f7cc278301683119f8719a92f4ffdd26 -->
<g id="edge35" class="edge"><title>dir_e884bea2662087624c49c4b98ba4353a&#45;&gt;dir_f7cc278301683119f8719a92f4ffdd26</title>
<path fill="none" stroke="black" d="M159.198,-368.562C184.976,-359.76 221.647,-344.846 249,-324 272.16,-306.349 292.673,-280.091 306.192,-260.487"/>
<polygon fill="black" stroke="black" points="309.221,-262.254 311.895,-252.003 303.411,-258.349 309.221,-262.254"/>
<a xlink:href="dir_000027_000011.html" target="_top" xlink:title="1">
<text text-anchor="middle" x="309.572" y="-264.322" font-family="Helvetica,sans-Serif" font-size="10.00">1</text>
</a>
</g>
<!-- dir_0a0aa297e888439a92fbcfd5e567f128&#45;&gt;dir_0af1587c8378955de40f48b4bd1869f0 -->
<g id="edge3" class="edge"><title>dir_0a0aa297e888439a92fbcfd5e567f128&#45;&gt;dir_0af1587c8378955de40f48b4bd1869f0</title>
<path fill="none" stroke="black" d="M77.0095,-215.917C69.3462,-206.037 60.9834,-193.156 57,-180 52.3635,-164.687 52.4483,-159.339 57,-144 68.3574,-105.727 95.4186,-68.2057 115.362,-44.2028"/>
<polygon fill="black" stroke="black" points="118.272,-46.1834 122.082,-36.2973 112.939,-41.6497 118.272,-46.1834"/>
<a xlink:href="dir_000033_000018.html" target="_top" xlink:title="51">
<text text-anchor="middle" x="118.107" y="-48.2611" font-family="Helvetica,sans-Serif" font-size="10.00">51</text>
</a>
</g>
<!-- dir_0a0aa297e888439a92fbcfd5e567f128&#45;&gt;dir_c4f4646ab0f4a2967be5b6215a500c22 -->
<g id="edge5" class="edge"><title>dir_0a0aa297e888439a92fbcfd5e567f128&#45;&gt;dir_c4f4646ab0f4a2967be5b6215a500c22</title>
<path fill="none" stroke="black" d="M105.785,-215.793C112.879,-205.456 121.713,-192.184 129,-180 141.27,-159.483 153.948,-135.577 163.19,-117.561"/>
<polygon fill="black" stroke="black" points="166.529,-118.717 167.948,-108.218 160.291,-115.541 166.529,-118.717"/>
<a xlink:href="dir_000033_000037.html" target="_top" xlink:title="18">
<text text-anchor="middle" x="167.429" y="-120.709" font-family="Helvetica,sans-Serif" font-size="10.00">18</text>
</a>
</g>
<!-- dir_0a0aa297e888439a92fbcfd5e567f128&#45;&gt;dir_8f68c37b22d514b4289e3a1255795d80 -->
<g id="edge7" class="edge"><title>dir_0a0aa297e888439a92fbcfd5e567f128&#45;&gt;dir_8f68c37b22d514b4289e3a1255795d80</title>
<path fill="none" stroke="black" d="M93,-215.831C93,-208.131 93,-198.974 93,-190.417"/>
<polygon fill="black" stroke="black" points="96.5001,-190.413 93,-180.413 89.5001,-190.413 96.5001,-190.413"/>
<a xlink:href="dir_000033_000034.html" target="_top" xlink:title="2">
<text text-anchor="middle" x="99.3393" y="-191.508" font-family="Helvetica,sans-Serif" font-size="10.00">2</text>
</a>
</g>
<!-- dir_15cb7383784026d829002226dc1288d7&#45;&gt;dir_0a0aa297e888439a92fbcfd5e567f128 -->
<g id="edge9" class="edge"><title>dir_15cb7383784026d829002226dc1288d7&#45;&gt;dir_0a0aa297e888439a92fbcfd5e567f128</title>
<path fill="none" stroke="black" d="M185.77,-289.662C168.893,-279.536 147.026,-266.416 128.761,-255.457"/>
<polygon fill="black" stroke="black" points="130.498,-252.417 120.122,-250.273 126.896,-258.419 130.498,-252.417"/>
<a xlink:href="dir_000005_000033.html" target="_top" xlink:title="14">
<text text-anchor="middle" x="135.041" y="-249.332" font-family="Helvetica,sans-Serif" font-size="10.00">14</text>
</a>
</g>
<!-- dir_15cb7383784026d829002226dc1288d7&#45;&gt;dir_0af1587c8378955de40f48b4bd1869f0 -->
<g id="edge11" class="edge"><title>dir_15cb7383784026d829002226dc1288d7&#45;&gt;dir_0af1587c8378955de40f48b4bd1869f0</title>
<path fill="none" stroke="black" d="M218.895,-287.772C231.158,-246.281 255.094,-142.905 215,-72 206.027,-56.1319 190.24,-43.7742 175.37,-34.9095"/>
<polygon fill="black" stroke="black" points="176.737,-31.6637 166.3,-29.8412 173.322,-37.7745 176.737,-31.6637"/>
<a xlink:href="dir_000005_000018.html" target="_top" xlink:title="19">
<text text-anchor="middle" x="181.26" y="-28.4385" font-family="Helvetica,sans-Serif" font-size="10.00">19</text>
</a>
</g>
<!-- dir_15cb7383784026d829002226dc1288d7&#45;&gt;dir_c4f4646ab0f4a2967be5b6215a500c22 -->
<g id="edge13" class="edge"><title>dir_15cb7383784026d829002226dc1288d7&#45;&gt;dir_c4f4646ab0f4a2967be5b6215a500c22</title>
<path fill="none" stroke="black" d="M213.429,-287.717C213.723,-257.387 212.544,-194.959 200,-144 197.829,-135.181 194.382,-125.958 190.811,-117.681"/>
<polygon fill="black" stroke="black" points="193.953,-116.136 186.63,-108.479 187.58,-119.031 193.953,-116.136"/>
<a xlink:href="dir_000005_000037.html" target="_top" xlink:title="7">
<text text-anchor="middle" x="198.025" y="-115.734" font-family="Helvetica,sans-Serif" font-size="10.00">7</text>
</a>
</g>
<!-- dir_15cb7383784026d829002226dc1288d7&#45;&gt;dir_8f68c37b22d514b4289e3a1255795d80 -->
<g id="edge15" class="edge"><title>dir_15cb7383784026d829002226dc1288d7&#45;&gt;dir_8f68c37b22d514b4289e3a1255795d80</title>
<path fill="none" stroke="black" d="M197.802,-287.762C176.793,-262.552 138.759,-216.91 114.746,-188.095"/>
<polygon fill="black" stroke="black" points="117.165,-185.531 108.075,-180.09 111.788,-190.013 117.165,-185.531"/>
<a xlink:href="dir_000005_000034.html" target="_top" xlink:title="9">
<text text-anchor="middle" x="121.648" y="-183.975" font-family="Helvetica,sans-Serif" font-size="10.00">9</text>
</a>
</g>
<!-- dir_15cb7383784026d829002226dc1288d7&#45;&gt;dir_f7cc278301683119f8719a92f4ffdd26 -->
<g id="edge17" class="edge"><title>dir_15cb7383784026d829002226dc1288d7&#45;&gt;dir_f7cc278301683119f8719a92f4ffdd26</title>
<path fill="none" stroke="black" d="M240.191,-288.202C254.231,-279.012 271.553,-267.674 286.719,-257.748"/>
<polygon fill="black" stroke="black" points="288.908,-260.498 295.358,-252.093 285.074,-254.641 288.908,-260.498"/>
<a xlink:href="dir_000005_000011.html" target="_top" xlink:title="2">
<text text-anchor="middle" x="287.455" y="-262.342" font-family="Helvetica,sans-Serif" font-size="10.00">2</text>
</a>
</g>
<!-- dir_c4f4646ab0f4a2967be5b6215a500c22&#45;&gt;dir_0af1587c8378955de40f48b4bd1869f0 -->
<g id="edge19" class="edge"><title>dir_c4f4646ab0f4a2967be5b6215a500c22&#45;&gt;dir_0af1587c8378955de40f48b4bd1869f0</title>
<path fill="none" stroke="black" d="M167.411,-71.8314C163.168,-63.7925 158.088,-54.1666 153.404,-45.2918"/>
<polygon fill="black" stroke="black" points="156.481,-43.6235 148.718,-36.4133 150.29,-46.8908 156.481,-43.6235"/>
<a xlink:href="dir_000037_000018.html" target="_top" xlink:title="31">
<text text-anchor="middle" x="160.67" y="-42.9772" font-family="Helvetica,sans-Serif" font-size="10.00">31</text>
</a>
</g>
<!-- dir_8f68c37b22d514b4289e3a1255795d80&#45;&gt;dir_0af1587c8378955de40f48b4bd1869f0 -->
<g id="edge21" class="edge"><title>dir_8f68c37b22d514b4289e3a1255795d80&#45;&gt;dir_0af1587c8378955de40f48b4bd1869f0</title>
<path fill="none" stroke="black" d="M98.8259,-143.762C106.706,-119.093 120.836,-74.8598 130.064,-45.9731"/>
<polygon fill="black" stroke="black" points="133.512,-46.6805 133.221,-36.0896 126.844,-44.5503 133.512,-46.6805"/>
<a xlink:href="dir_000034_000018.html" target="_top" xlink:title="10">
<text text-anchor="middle" x="135.123" y="-48.4686" font-family="Helvetica,sans-Serif" font-size="10.00">10</text>
</a>
</g>
<!-- dir_8f68c37b22d514b4289e3a1255795d80&#45;&gt;dir_c4f4646ab0f4a2967be5b6215a500c22 -->
<g id="edge23" class="edge"><title>dir_8f68c37b22d514b4289e3a1255795d80&#45;&gt;dir_c4f4646ab0f4a2967be5b6215a500c22</title>
<path fill="none" stroke="black" d="M114.197,-143.831C124.443,-135.048 136.9,-124.371 148.01,-114.849"/>
<polygon fill="black" stroke="black" points="150.495,-117.328 155.81,-108.163 145.94,-112.013 150.495,-117.328"/>
<a xlink:href="dir_000034_000037.html" target="_top" xlink:title="1">
<text text-anchor="middle" x="149.614" y="-119.323" font-family="Helvetica,sans-Serif" font-size="10.00">1</text>
</a>
</g>
<!-- dir_f7cc278301683119f8719a92f4ffdd26&#45;&gt;dir_0af1587c8378955de40f48b4bd1869f0 -->
<g id="edge37" class="edge"><title>dir_f7cc278301683119f8719a92f4ffdd26&#45;&gt;dir_0af1587c8378955de40f48b4bd1869f0</title>
<path fill="none" stroke="black" d="M322.734,-215.969C321.291,-183.176 313.668,-113.349 276,-72 250.013,-43.474 207.045,-29.8139 176.154,-23.4063"/>
<polygon fill="black" stroke="black" points="176.662,-19.9402 166.182,-21.5004 175.347,-26.8157 176.662,-19.9402"/>
<a xlink:href="dir_000011_000018.html" target="_top" xlink:title="11">
<text text-anchor="middle" x="180.725" y="-15.3262" font-family="Helvetica,sans-Serif" font-size="10.00">11</text>
</a>
</g>
<!-- dir_f7cc278301683119f8719a92f4ffdd26&#45;&gt;dir_c4f4646ab0f4a2967be5b6215a500c22 -->
<g id="edge39" class="edge"><title>dir_f7cc278301683119f8719a92f4ffdd26&#45;&gt;dir_c4f4646ab0f4a2967be5b6215a500c22</title>
<path fill="none" stroke="black" d="M306.841,-215.961C290.069,-197.462 262.859,-168.07 238,-144 227.798,-134.121 216.215,-123.685 205.903,-114.648"/>
<polygon fill="black" stroke="black" points="208.152,-111.965 198.31,-108.042 203.558,-117.246 208.152,-111.965"/>
<a xlink:href="dir_000011_000037.html" target="_top" xlink:title="12">
<text text-anchor="middle" x="212.728" y="-109.682" font-family="Helvetica,sans-Serif" font-size="10.00">12</text>
</a>
</g>
</g>
</svg>
