<?xml version="1.0" encoding="UTF-8" standalone="no"?>
<!DOCTYPE svg PUBLIC "-//W3C//DTD SVG 1.1//EN"
 "http://www.w3.org/Graphics/SVG/1.1/DTD/svg11.dtd">
<!-- Generated by graphviz version 2.26.3 (20100126.1600)
 -->
<!-- Title: src/analysis/physics/scratch/wolfes Pages: 1 -->
<svg width="321pt" height="449pt"
 viewBox="0.00 0.00 321.00 449.00" xmlns="http://www.w3.org/2000/svg" xmlns:xlink="http://www.w3.org/1999/xlink">
<g id="graph1" class="graph" transform="scale(1 1) rotate(0) translate(4 445)">
<title>src/analysis/physics/scratch/wolfes</title>
<polygon fill="white" stroke="white" points="-4,5 -4,-445 318,-445 318,5 -4,5"/>
<g id="graph2" class="cluster"><title>clusterdir_15cb7383784026d829002226dc1288d7</title>
<a xlink:href="dir_15cb7383784026d829002226dc1288d7.html" target="_top" xlink:title="scratch">
<polygon fill="#ddddee" stroke="black" points="8,-272 8,-433 94,-433 94,-272 8,-272"/>
<text text-anchor="middle" x="51" y="-420" font-family="Helvetica,sans-Serif" font-size="10.00">scratch</text>
</a>
</g>
<g id="graph3" class="cluster"><title>clusterdir_dd6dc6d8f56905e70717c35413470cc3</title>
<a xlink:href="dir_dd6dc6d8f56905e70717c35413470cc3.html" target="_top">
<polygon fill="#eeeeff" stroke="black" points="16,-280 16,-404 86,-404 86,-280 16,-280"/>
</a>
</g>
<!-- dir_dd6dc6d8f56905e70717c35413470cc3 -->
<g id="node3" class="node"><title>dir_dd6dc6d8f56905e70717c35413470cc3</title>
<text text-anchor="middle" x="51" y="-375.5" font-family="Helvetica,sans-Serif" font-size="10.00">wolfes</text>
</g>
<!-- dir_b9e719fbe012e7a463603470f923e774 -->
<g id="node4" class="node"><title>dir_b9e719fbe012e7a463603470f923e774</title>
<a xlink:href="dir_b9e719fbe012e7a463603470f923e774.html" target="_top" xlink:title="tools">
<polygon fill="white" stroke="black" points="78,-324 24,-324 24,-288 78,-288 78,-324"/>
<text text-anchor="middle" x="51" y="-303.5" font-family="Helvetica,sans-Serif" font-size="10.00">tools</text>
</a>
</g>
<!-- dir_dd6dc6d8f56905e70717c35413470cc3&#45;&gt;dir_b9e719fbe012e7a463603470f923e774 -->
<g id="edge22" class="edge"><title>dir_dd6dc6d8f56905e70717c35413470cc3&#45;&gt;dir_b9e719fbe012e7a463603470f923e774</title>
<path fill="none" stroke="black" d="M51,-359.831C51,-352.131 51,-342.974 51,-334.417"/>
<polygon fill="black" stroke="black" points="54.5001,-334.413 51,-324.413 47.5001,-334.413 54.5001,-334.413"/>
<a xlink:href="dir_000006_000007.html" target="_top" xlink:title="1">
<text text-anchor="middle" x="57.3393" y="-335.508" font-family="Helvetica,sans-Serif" font-size="10.00">1</text>
</a>
</g>
<!-- dir_0a0aa297e888439a92fbcfd5e567f128 -->
<g id="node5" class="node"><title>dir_0a0aa297e888439a92fbcfd5e567f128</title>
<a xlink:href="dir_0a0aa297e888439a92fbcfd5e567f128.html" target="_top" xlink:title="utils">
<polygon fill="white" stroke="red" points="156,-324 102,-324 102,-288 156,-288 156,-324"/>
<text text-anchor="middle" x="129" y="-303.5" font-family="Helvetica,sans-Serif" font-size="10.00">utils</text>
</a>
</g>
<!-- dir_dd6dc6d8f56905e70717c35413470cc3&#45;&gt;dir_0a0aa297e888439a92fbcfd5e567f128 -->
<g id="edge20" class="edge"><title>dir_dd6dc6d8f56905e70717c35413470cc3&#45;&gt;dir_0a0aa297e888439a92fbcfd5e567f128</title>
<path fill="none" stroke="black" d="M70.6827,-359.831C80.1051,-351.134 91.5401,-340.578 101.78,-331.127"/>
<polygon fill="black" stroke="black" points="104.35,-333.517 109.324,-324.163 99.6016,-328.374 104.35,-333.517"/>
<a xlink:href="dir_000006_000033.html" target="_top" xlink:title="3">
<text text-anchor="middle" x="103.634" y="-335.542" font-family="Helvetica,sans-Serif" font-size="10.00">3</text>
</a>
</g>
<!-- dir_8f68c37b22d514b4289e3a1255795d80 -->
<g id="node9" class="node"><title>dir_8f68c37b22d514b4289e3a1255795d80</title>
<a xlink:href="dir_8f68c37b22d514b4289e3a1255795d80.html" target="_top" xlink:title="plot">
<polygon fill="none" stroke="black" points="247,-252 193,-252 193,-216 247,-216 247,-252"/>
<text text-anchor="middle" x="220" y="-231.5" font-family="Helvetica,sans-Serif" font-size="10.00">plot</text>
</a>
</g>
<!-- dir_dd6dc6d8f56905e70717c35413470cc3&#45;&gt;dir_8f68c37b22d514b4289e3a1255795d80 -->
<g id="edge24" class="edge"><title>dir_dd6dc6d8f56905e70717c35413470cc3&#45;&gt;dir_8f68c37b22d514b4289e3a1255795d80</title>
<path fill="none" stroke="black" d="M78.2892,-361.923C79.5368,-361.261 80.7779,-360.617 82,-360 117.892,-341.874 134.658,-350.385 165,-324 184.623,-306.937 199.399,-281.11 208.668,-261.493"/>
<polygon fill="black" stroke="black" points="211.96,-262.708 212.891,-252.154 205.582,-259.823 211.96,-262.708"/>
<a xlink:href="dir_000006_000034.html" target="_top" xlink:title="1">
<text text-anchor="middle" x="213.066" y="-264.653" font-family="Helvetica,sans-Serif" font-size="10.00">1</text>
</a>
</g>
<!-- dir_e884bea2662087624c49c4b98ba4353a -->
<g id="node10" class="node"><title>dir_e884bea2662087624c49c4b98ba4353a</title>
<a xlink:href="dir_e884bea2662087624c49c4b98ba4353a.html" target="_top" xlink:title="production">
<polygon fill="none" stroke="black" points="253,-396 191,-396 191,-360 253,-360 253,-396"/>
<text text-anchor="middle" x="222" y="-375.5" font-family="Helvetica,sans-Serif" font-size="10.00">production</text>
</a>
</g>
<!-- dir_dd6dc6d8f56905e70717c35413470cc3&#45;&gt;dir_e884bea2662087624c49c4b98ba4353a -->
<g id="edge26" class="edge"><title>dir_dd6dc6d8f56905e70717c35413470cc3&#45;&gt;dir_e884bea2662087624c49c4b98ba4353a</title>
<path fill="none" stroke="black" d="M78.0527,-378C112.256,-378 146.46,-378 180.664,-378"/>
<polygon fill="black" stroke="black" points="180.793,-381.5 190.793,-378 180.793,-374.5 180.793,-381.5"/>
<a xlink:href="dir_000006_000027.html" target="_top" xlink:title="1">
<text text-anchor="middle" x="177.198" y="-381.839" font-family="Helvetica,sans-Serif" font-size="10.00">1</text>
</a>
</g>
<!-- dir_0af1587c8378955de40f48b4bd1869f0 -->
<g id="node6" class="node"><title>dir_0af1587c8378955de40f48b4bd1869f0</title>
<a xlink:href="dir_0af1587c8378955de40f48b4bd1869f0.html" target="_top" xlink:title="base">
<polygon fill="white" stroke="red" points="178,-36 124,-36 124,-1.77636e-14 178,-3.55271e-15 178,-36"/>
<text text-anchor="middle" x="151" y="-15.5" font-family="Helvetica,sans-Serif" font-size="10.00">base</text>
</a>
</g>
<!-- dir_b9e719fbe012e7a463603470f923e774&#45;&gt;dir_0af1587c8378955de40f48b4bd1869f0 -->
<g id="edge12" class="edge"><title>dir_b9e719fbe012e7a463603470f923e774&#45;&gt;dir_0af1587c8378955de40f48b4bd1869f0</title>
<path fill="none" stroke="black" d="M43.1453,-287.802C26.3959,-245.932 -7.87167,-141.068 36,-72 53.0407,-45.1725 87.3315,-31.4374 114.055,-24.5557"/>
<polygon fill="black" stroke="black" points="114.945,-27.9419 123.875,-22.2407 113.338,-21.1287 114.945,-27.9419"/>
<a xlink:href="dir_000007_000018.html" target="_top" xlink:title="1">
<text text-anchor="middle" x="112.097" y="-29.0302" font-family="Helvetica,sans-Serif" font-size="10.00">1</text>
</a>
</g>
<!-- dir_c44c95bf3b41c3321c6014770d618ac8 -->
<g id="node7" class="node"><title>dir_c44c95bf3b41c3321c6014770d618ac8</title>
<a xlink:href="dir_c44c95bf3b41c3321c6014770d618ac8.html" target="_top" xlink:title="tree">
<polygon fill="none" stroke="black" points="99,-108 45,-108 45,-72 99,-72 99,-108"/>
<text text-anchor="middle" x="72" y="-87.5" font-family="Helvetica,sans-Serif" font-size="10.00">tree</text>
</a>
</g>
<!-- dir_b9e719fbe012e7a463603470f923e774&#45;&gt;dir_c44c95bf3b41c3321c6014770d618ac8 -->
<g id="edge14" class="edge"><title>dir_b9e719fbe012e7a463603470f923e774&#45;&gt;dir_c44c95bf3b41c3321c6014770d618ac8</title>
<path fill="none" stroke="black" d="M52.7543,-287.955C56.4139,-250.314 64.8846,-163.187 69.2657,-118.125"/>
<polygon fill="black" stroke="black" points="72.7517,-118.437 70.2359,-108.145 65.7846,-117.759 72.7517,-118.437"/>
<a xlink:href="dir_000007_000057.html" target="_top" xlink:title="2">
<text text-anchor="middle" x="75.2299" y="-119.789" font-family="Helvetica,sans-Serif" font-size="10.00">2</text>
</a>
</g>
<!-- dir_c4f4646ab0f4a2967be5b6215a500c22 -->
<g id="node8" class="node"><title>dir_c4f4646ab0f4a2967be5b6215a500c22</title>
<a xlink:href="dir_c4f4646ab0f4a2967be5b6215a500c22.html" target="_top" xlink:title="expconfig">
<polygon fill="white" stroke="red" points="213,-180 155,-180 155,-144 213,-144 213,-180"/>
<text text-anchor="middle" x="184" y="-159.5" font-family="Helvetica,sans-Serif" font-size="10.00">expconfig</text>
</a>
</g>
<!-- dir_b9e719fbe012e7a463603470f923e774&#45;&gt;dir_c4f4646ab0f4a2967be5b6215a500c22 -->
<g id="edge16" class="edge"><title>dir_b9e719fbe012e7a463603470f923e774&#45;&gt;dir_c4f4646ab0f4a2967be5b6215a500c22</title>
<path fill="none" stroke="black" d="M67.382,-287.976C72.0922,-282.809 77.2421,-277.174 82,-272 108.649,-243.017 139.394,-209.905 160.104,-187.648"/>
<polygon fill="black" stroke="black" points="162.737,-189.957 166.988,-180.252 157.613,-185.187 162.737,-189.957"/>
<a xlink:href="dir_000007_000037.html" target="_top" xlink:title="3">
<text text-anchor="middle" x="162.366" y="-192.022" font-family="Helvetica,sans-Serif" font-size="10.00">3</text>
</a>
</g>
<!-- dir_0a0aa297e888439a92fbcfd5e567f128&#45;&gt;dir_0af1587c8378955de40f48b4bd1869f0 -->
<g id="edge4" class="edge"><title>dir_0a0aa297e888439a92fbcfd5e567f128&#45;&gt;dir_0af1587c8378955de40f48b4bd1869f0</title>
<path fill="none" stroke="black" d="M130.376,-287.984C134.096,-239.294 144.37,-104.796 148.857,-46.0573"/>
<polygon fill="black" stroke="black" points="152.352,-46.2464 149.624,-36.0089 145.373,-45.7132 152.352,-46.2464"/>
<a xlink:href="dir_000033_000018.html" target="_top" xlink:title="51">
<text text-anchor="middle" x="154.91" y="-47.5468" font-family="Helvetica,sans-Serif" font-size="10.00">51</text>
</a>
</g>
<!-- dir_0a0aa297e888439a92fbcfd5e567f128&#45;&gt;dir_c44c95bf3b41c3321c6014770d618ac8 -->
<g id="edge6" class="edge"><title>dir_0a0aa297e888439a92fbcfd5e567f128&#45;&gt;dir_c44c95bf3b41c3321c6014770d618ac8</title>
<path fill="none" stroke="black" d="M123.336,-287.558C120.189,-277.147 116.262,-263.88 113,-252 100.163,-205.249 86.615,-150.503 78.7539,-118.122"/>
<polygon fill="black" stroke="black" points="82.0686,-116.938 76.3153,-108.041 75.2648,-118.584 82.0686,-116.938"/>
<a xlink:href="dir_000033_000057.html" target="_top" xlink:title="19">
<text text-anchor="middle" x="85.6734" y="-117.264" font-family="Helvetica,sans-Serif" font-size="10.00">19</text>
</a>
</g>
<!-- dir_0a0aa297e888439a92fbcfd5e567f128&#45;&gt;dir_c4f4646ab0f4a2967be5b6215a500c22 -->
<g id="edge8" class="edge"><title>dir_0a0aa297e888439a92fbcfd5e567f128&#45;&gt;dir_c4f4646ab0f4a2967be5b6215a500c22</title>
<path fill="none" stroke="black" d="M135.966,-287.762C145.429,-262.985 162.431,-218.471 173.461,-189.594"/>
<polygon fill="black" stroke="black" points="176.792,-190.68 177.091,-180.09 170.253,-188.183 176.792,-190.68"/>
<a xlink:href="dir_000033_000037.html" target="_top" xlink:title="18">
<text text-anchor="middle" x="178.162" y="-192.551" font-family="Helvetica,sans-Serif" font-size="10.00">18</text>
</a>
</g>
<!-- dir_0a0aa297e888439a92fbcfd5e567f128&#45;&gt;dir_8f68c37b22d514b4289e3a1255795d80 -->
<g id="edge10" class="edge"><title>dir_0a0aa297e888439a92fbcfd5e567f128&#45;&gt;dir_8f68c37b22d514b4289e3a1255795d80</title>
<path fill="none" stroke="black" d="M150.563,-287.829C156.791,-282.659 163.627,-277.06 170,-272 175.565,-267.581 181.537,-262.95 187.348,-258.5"/>
<polygon fill="black" stroke="black" points="189.844,-260.999 195.681,-252.156 185.604,-255.429 189.844,-260.999"/>
<a xlink:href="dir_000033_000034.html" target="_top" xlink:title="2">
<text text-anchor="middle" x="188.703" y="-262.935" font-family="Helvetica,sans-Serif" font-size="10.00">2</text>
</a>
</g>
<!-- dir_c44c95bf3b41c3321c6014770d618ac8&#45;&gt;dir_0af1587c8378955de40f48b4bd1869f0 -->
<g id="edge18" class="edge"><title>dir_c44c95bf3b41c3321c6014770d618ac8&#45;&gt;dir_0af1587c8378955de40f48b4bd1869f0</title>
<path fill="none" stroke="black" d="M91.935,-71.8314C101.478,-63.1337 113.06,-52.5783 123.431,-43.1265"/>
<polygon fill="black" stroke="black" points="126.038,-45.4857 131.071,-36.1628 121.323,-40.3121 126.038,-45.4857"/>
<a xlink:href="dir_000057_000018.html" target="_top" xlink:title="24">
<text text-anchor="middle" x="125.294" y="-47.5055" font-family="Helvetica,sans-Serif" font-size="10.00">24</text>
</a>
</g>
<!-- dir_c4f4646ab0f4a2967be5b6215a500c22&#45;&gt;dir_0af1587c8378955de40f48b4bd1869f0 -->
<g id="edge28" class="edge"><title>dir_c4f4646ab0f4a2967be5b6215a500c22&#45;&gt;dir_0af1587c8378955de40f48b4bd1869f0</title>
<path fill="none" stroke="black" d="M179.821,-143.762C174.167,-119.093 164.03,-74.8598 157.41,-45.9731"/>
<polygon fill="black" stroke="black" points="160.791,-45.0551 155.146,-36.0896 153.968,-46.6188 160.791,-45.0551"/>
<a xlink:href="dir_000037_000018.html" target="_top" xlink:title="31">
<text text-anchor="middle" x="164.361" y="-45.4247" font-family="Helvetica,sans-Serif" font-size="10.00">31</text>
</a>
</g>
<!-- dir_c4f4646ab0f4a2967be5b6215a500c22&#45;&gt;dir_c44c95bf3b41c3321c6014770d618ac8 -->
<g id="edge30" class="edge"><title>dir_c4f4646ab0f4a2967be5b6215a500c22&#45;&gt;dir_c44c95bf3b41c3321c6014770d618ac8</title>
<path fill="none" stroke="black" d="M155.738,-143.831C141.22,-134.498 123.374,-123.026 107.893,-113.074"/>
<polygon fill="black" stroke="black" points="109.399,-109.881 99.0942,-107.418 105.613,-115.769 109.399,-109.881"/>
<a xlink:href="dir_000037_000057.html" target="_top" xlink:title="10">
<text text-anchor="middle" x="113.958" y="-106.937" font-family="Helvetica,sans-Serif" font-size="10.00">10</text>
</a>
</g>
<!-- dir_8f68c37b22d514b4289e3a1255795d80&#45;&gt;dir_0af1587c8378955de40f48b4bd1869f0 -->
<g id="edge32" class="edge"><title>dir_8f68c37b22d514b4289e3a1255795d80&#45;&gt;dir_0af1587c8378955de40f48b4bd1869f0</title>
<path fill="none" stroke="black" d="M223.279,-215.736C225.923,-197.311 228.273,-168.207 222,-144 212.352,-106.766 188.827,-68.9762 171.488,-44.628"/>
<polygon fill="black" stroke="black" points="174.133,-42.3148 165.417,-36.2917 168.475,-46.4357 174.133,-42.3148"/>
<a xlink:href="dir_000034_000018.html" target="_top" xlink:title="10">
<text text-anchor="middle" x="178.545" y="-41.049" font-family="Helvetica,sans-Serif" font-size="10.00">10</text>
</a>
</g>
<!-- dir_8f68c37b22d514b4289e3a1255795d80&#45;&gt;dir_c4f4646ab0f4a2967be5b6215a500c22 -->
<g id="edge34" class="edge"><title>dir_8f68c37b22d514b4289e3a1255795d80&#45;&gt;dir_c4f4646ab0f4a2967be5b6215a500c22</title>
<path fill="none" stroke="black" d="M210.916,-215.831C206.939,-207.877 202.185,-198.369 197.786,-189.572"/>
<polygon fill="black" stroke="black" points="200.809,-187.792 193.207,-180.413 194.548,-190.923 200.809,-187.792"/>
<a xlink:href="dir_000034_000037.html" target="_top" xlink:title="1">
<text text-anchor="middle" x="204.956" y="-187.238" font-family="Helvetica,sans-Serif" font-size="10.00">1</text>
</a>
</g>
<!-- dir_e884bea2662087624c49c4b98ba4353a&#45;&gt;dir_dd6dc6d8f56905e70717c35413470cc3 -->
<g id="edge42" class="edge"><title>dir_e884bea2662087624c49c4b98ba4353a&#45;&gt;dir_dd6dc6d8f56905e70717c35413470cc3</title>
<path fill="none" stroke="black" d="M190.793,-378C156.589,-378 122.385,-378 88.1817,-378"/>
<polygon fill="black" stroke="black" points="88.0528,-374.5 78.0527,-378 88.0527,-381.5 88.0528,-374.5"/>
<a xlink:href="dir_000027_000006.html" target="_top" xlink:title="3">
<text text-anchor="middle" x="91.6474" y="-369.161" font-family="Helvetica,sans-Serif" font-size="10.00">3</text>
</a>
</g>
<!-- dir_e884bea2662087624c49c4b98ba4353a&#45;&gt;dir_b9e719fbe012e7a463603470f923e774 -->
<g id="edge38" class="edge"><title>dir_e884bea2662087624c49c4b98ba4353a&#45;&gt;dir_b9e719fbe012e7a463603470f923e774</title>
<path fill="none" stroke="black" d="M190.822,-367.568C164.3,-358.352 125.138,-343.938 87.7238,-326.608"/>
<polygon fill="black" stroke="black" points="88.7953,-323.243 78.258,-322.14 85.8075,-329.574 88.7953,-323.243"/>
<a xlink:href="dir_000027_000007.html" target="_top" xlink:title="3">
<text text-anchor="middle" x="93.2579" y="-319.71" font-family="Helvetica,sans-Serif" font-size="10.00">3</text>
</a>
</g>
<!-- dir_e884bea2662087624c49c4b98ba4353a&#45;&gt;dir_0a0aa297e888439a92fbcfd5e567f128 -->
<g id="edge36" class="edge"><title>dir_e884bea2662087624c49c4b98ba4353a&#45;&gt;dir_0a0aa297e888439a92fbcfd5e567f128</title>
<path fill="none" stroke="black" d="M198.532,-359.831C186.967,-350.878 172.86,-339.956 160.382,-330.295"/>
<polygon fill="black" stroke="black" points="162.51,-327.517 152.46,-324.163 158.225,-333.052 162.51,-327.517"/>
<a xlink:href="dir_000027_000033.html" target="_top" xlink:title="13">
<text text-anchor="middle" x="167.091" y="-324.972" font-family="Helvetica,sans-Serif" font-size="10.00">13</text>
</a>
</g>
<!-- dir_e884bea2662087624c49c4b98ba4353a&#45;&gt;dir_0af1587c8378955de40f48b4bd1869f0 -->
<g id="edge40" class="edge"><title>dir_e884bea2662087624c49c4b98ba4353a&#45;&gt;dir_0af1587c8378955de40f48b4bd1869f0</title>
<path fill="none" stroke="black" d="M243.106,-359.85C269.988,-334.593 313,-286.049 313,-234 313,-234 313,-234 313,-162 313,-95.2873 235.307,-51.914 187.529,-31.5486"/>
<polygon fill="black" stroke="black" points="188.694,-28.2434 178.115,-27.667 186.026,-34.7148 188.694,-28.2434"/>
<a xlink:href="dir_000027_000018.html" target="_top" xlink:title="7">
<text text-anchor="middle" x="193.1" y="-24.4888" font-family="Helvetica,sans-Serif" font-size="10.00">7</text>
</a>
</g>
<!-- dir_e884bea2662087624c49c4b98ba4353a&#45;&gt;dir_c4f4646ab0f4a2967be5b6215a500c22 -->
<g id="edge44" class="edge"><title>dir_e884bea2662087624c49c4b98ba4353a&#45;&gt;dir_c4f4646ab0f4a2967be5b6215a500c22</title>
<path fill="none" stroke="black" d="M233.176,-359.762C250.657,-328.695 280.097,-264.195 256,-216 248.663,-201.326 235.232,-189.605 221.941,-180.883"/>
<polygon fill="black" stroke="black" points="223.647,-177.824 213.292,-175.584 219.99,-183.792 223.647,-177.824"/>
<a xlink:href="dir_000027_000037.html" target="_top" xlink:title="4">
<text text-anchor="middle" x="228.195" y="-174.781" font-family="Helvetica,sans-Serif" font-size="10.00">4</text>
</a>
</g>
<!-- dir_e884bea2662087624c49c4b98ba4353a&#45;&gt;dir_8f68c37b22d514b4289e3a1255795d80 -->
<g id="edge46" class="edge"><title>dir_e884bea2662087624c49c4b98ba4353a&#45;&gt;dir_8f68c37b22d514b4289e3a1255795d80</title>
<path fill="none" stroke="black" d="M221.747,-359.762C221.406,-335.201 220.795,-291.247 220.394,-262.354"/>
<polygon fill="black" stroke="black" points="223.89,-262.04 220.251,-252.09 216.891,-262.137 223.89,-262.04"/>
<a xlink:href="dir_000027_000034.html" target="_top" xlink:title="4">
<text text-anchor="middle" x="226.779" y="-263.095" font-family="Helvetica,sans-Serif" font-size="10.00">4</text>
</a>
</g>
</g>
</svg>
