<?xml version="1.0" encoding="UTF-8" standalone="no"?>
<!DOCTYPE svg PUBLIC "-//W3C//DTD SVG 1.1//EN"
 "http://www.w3.org/Graphics/SVG/1.1/DTD/svg11.dtd">
<!-- Generated by graphviz version 2.26.3 (20100126.1600)
 -->
<!-- Title: src/analysis/physics/scratch Pages: 1 -->
<svg width="669pt" height="557pt"
 viewBox="0.00 0.00 669.00 557.00" xmlns="http://www.w3.org/2000/svg" xmlns:xlink="http://www.w3.org/1999/xlink">
<g id="graph1" class="graph" transform="scale(1 1) rotate(0) translate(4 553)">
<title>src/analysis/physics/scratch</title>
<polygon fill="white" stroke="white" points="-4,5 -4,-553 666,-553 666,5 -4,5"/>
<g id="graph2" class="cluster"><title>clusterdir_a21a804d6482c442bcd1b39e4dfcc179</title>
<a xlink:href="dir_a21a804d6482c442bcd1b39e4dfcc179.html" target="_top" xlink:title="physics">
<polygon fill="#ddddee" stroke="black" points="180,-416 180,-505 482,-505 482,-416 180,-416"/>
<text text-anchor="middle" x="331" y="-492" font-family="Helvetica,sans-Serif" font-size="10.00">physics</text>
</a>
</g>
<g id="graph3" class="cluster"><title>clusterdir_15cb7383784026d829002226dc1288d7</title>
<a xlink:href="dir_15cb7383784026d829002226dc1288d7.html" target="_top">
<polygon fill="#eeeeff" stroke="black" points="188,-424 188,-476 474,-476 474,-424 188,-424"/>
</a>
</g>
<!-- dir_15cb7383784026d829002226dc1288d7 -->
<g id="node3" class="node"><title>dir_15cb7383784026d829002226dc1288d7</title>
<text text-anchor="middle" x="439" y="-447.5" font-family="Helvetica,sans-Serif" font-size="10.00">scratch</text>
</g>
<!-- dir_c0012d398dc023eb3dc9a68dc92160cd -->
<g id="node4" class="node"><title>dir_c0012d398dc023eb3dc9a68dc92160cd</title>
<a xlink:href="dir_c0012d398dc023eb3dc9a68dc92160cd.html" target="_top" xlink:title="collicott">
<polygon fill="white" stroke="black" points="394,-468 340,-468 340,-432 394,-432 394,-468"/>
<text text-anchor="middle" x="367" y="-447.5" font-family="Helvetica,sans-Serif" font-size="10.00">collicott</text>
</a>
</g>
<!-- dir_0a0aa297e888439a92fbcfd5e567f128 -->
<g id="node7" class="node"><title>dir_0a0aa297e888439a92fbcfd5e567f128</title>
<a xlink:href="dir_0a0aa297e888439a92fbcfd5e567f128.html" target="_top" xlink:title="utils">
<polygon fill="white" stroke="red" points="177,-396 123,-396 123,-360 177,-360 177,-396"/>
<text text-anchor="middle" x="150" y="-375.5" font-family="Helvetica,sans-Serif" font-size="10.00">utils</text>
</a>
</g>
<!-- dir_c0012d398dc023eb3dc9a68dc92160cd&#45;&gt;dir_0a0aa297e888439a92fbcfd5e567f128 -->
<g id="edge74" class="edge"><title>dir_c0012d398dc023eb3dc9a68dc92160cd&#45;&gt;dir_0a0aa297e888439a92fbcfd5e567f128</title>
<path fill="none" stroke="black" d="M351.674,-431.949C345.777,-426.044 338.618,-419.984 331,-416 306.452,-403.161 232.759,-390.365 187.328,-383.387"/>
<polygon fill="black" stroke="black" points="187.674,-379.9 177.263,-381.866 186.627,-386.821 187.674,-379.9"/>
<a xlink:href="dir_000028_000033.html" target="_top" xlink:title="8">
<text text-anchor="middle" x="191.653" y="-375.13" font-family="Helvetica,sans-Serif" font-size="10.00">8</text>
</a>
</g>
<!-- dir_0af1587c8378955de40f48b4bd1869f0 -->
<g id="node8" class="node"><title>dir_0af1587c8378955de40f48b4bd1869f0</title>
<a xlink:href="dir_0af1587c8378955de40f48b4bd1869f0.html" target="_top" xlink:title="base">
<polygon fill="white" stroke="red" points="318,-36 264,-36 264,-1.77636e-14 318,-3.55271e-15 318,-36"/>
<text text-anchor="middle" x="291" y="-15.5" font-family="Helvetica,sans-Serif" font-size="10.00">base</text>
</a>
</g>
<!-- dir_c0012d398dc023eb3dc9a68dc92160cd&#45;&gt;dir_0af1587c8378955de40f48b4bd1869f0 -->
<g id="edge76" class="edge"><title>dir_c0012d398dc023eb3dc9a68dc92160cd&#45;&gt;dir_0af1587c8378955de40f48b4bd1869f0</title>
<path fill="none" stroke="black" d="M382.82,-431.851C388.659,-426.079 395.656,-420.128 403,-416 432.324,-399.515 448.357,-415.171 476,-396 548.981,-345.386 593,-322.814 593,-234 593,-234 593,-234 593,-162 593,-103.86 408.327,-48.593 327.804,-27.2585"/>
<polygon fill="black" stroke="black" points="328.627,-23.856 318.066,-24.7098 326.854,-30.6279 328.627,-23.856"/>
<a xlink:href="dir_000028_000018.html" target="_top" xlink:title="11">
<text text-anchor="middle" x="332.823" y="-19.5194" font-family="Helvetica,sans-Serif" font-size="10.00">11</text>
</a>
</g>
<!-- dir_c4f4646ab0f4a2967be5b6215a500c22 -->
<g id="node11" class="node"><title>dir_c4f4646ab0f4a2967be5b6215a500c22</title>
<a xlink:href="dir_c4f4646ab0f4a2967be5b6215a500c22.html" target="_top" xlink:title="expconfig">
<polygon fill="white" stroke="red" points="405,-180 347,-180 347,-144 405,-144 405,-180"/>
<text text-anchor="middle" x="376" y="-159.5" font-family="Helvetica,sans-Serif" font-size="10.00">expconfig</text>
</a>
</g>
<!-- dir_c0012d398dc023eb3dc9a68dc92160cd&#45;&gt;dir_c4f4646ab0f4a2967be5b6215a500c22 -->
<g id="edge78" class="edge"><title>dir_c0012d398dc023eb3dc9a68dc92160cd&#45;&gt;dir_c4f4646ab0f4a2967be5b6215a500c22</title>
<path fill="none" stroke="black" d="M367.563,-431.984C369.085,-383.294 373.288,-248.796 375.123,-190.057"/>
<polygon fill="black" stroke="black" points="378.623,-190.113 375.437,-180.009 371.626,-189.895 378.623,-190.113"/>
<a xlink:href="dir_000028_000037.html" target="_top" xlink:title="3">
<text text-anchor="middle" x="381.349" y="-191.295" font-family="Helvetica,sans-Serif" font-size="10.00">3</text>
</a>
</g>
<!-- dir_8f68c37b22d514b4289e3a1255795d80 -->
<g id="node12" class="node"><title>dir_8f68c37b22d514b4289e3a1255795d80</title>
<a xlink:href="dir_8f68c37b22d514b4289e3a1255795d80.html" target="_top" xlink:title="plot">
<polygon fill="none" stroke="black" points="348,-324 294,-324 294,-288 348,-288 348,-324"/>
<text text-anchor="middle" x="321" y="-303.5" font-family="Helvetica,sans-Serif" font-size="10.00">plot</text>
</a>
</g>
<!-- dir_c0012d398dc023eb3dc9a68dc92160cd&#45;&gt;dir_8f68c37b22d514b4289e3a1255795d80 -->
<g id="edge80" class="edge"><title>dir_c0012d398dc023eb3dc9a68dc92160cd&#45;&gt;dir_8f68c37b22d514b4289e3a1255795d80</title>
<path fill="none" stroke="black" d="M361.174,-431.762C353.294,-407.093 339.164,-362.86 329.936,-333.973"/>
<polygon fill="black" stroke="black" points="333.156,-332.55 326.779,-324.09 326.488,-334.68 333.156,-332.55"/>
<a xlink:href="dir_000028_000034.html" target="_top" xlink:title="7">
<text text-anchor="middle" x="336.954" y="-332.611" font-family="Helvetica,sans-Serif" font-size="10.00">7</text>
</a>
</g>
<!-- dir_f7cc278301683119f8719a92f4ffdd26 -->
<g id="node14" class="node"><title>dir_f7cc278301683119f8719a92f4ffdd26</title>
<a xlink:href="dir_f7cc278301683119f8719a92f4ffdd26.html" target="_top" xlink:title="slowcontrol">
<polygon fill="white" stroke="red" points="565,-252 499,-252 499,-216 565,-216 565,-252"/>
<text text-anchor="middle" x="532" y="-231.5" font-family="Helvetica,sans-Serif" font-size="10.00">slowcontrol</text>
</a>
</g>
<!-- dir_c0012d398dc023eb3dc9a68dc92160cd&#45;&gt;dir_f7cc278301683119f8719a92f4ffdd26 -->
<g id="edge82" class="edge"><title>dir_c0012d398dc023eb3dc9a68dc92160cd&#45;&gt;dir_f7cc278301683119f8719a92f4ffdd26</title>
<path fill="none" stroke="black" d="M383.946,-431.801C389.658,-426.289 396.293,-420.508 403,-416 420.829,-404.018 431.387,-410.754 447,-396 487.026,-358.177 511.825,-297.276 523.662,-261.908"/>
<polygon fill="black" stroke="black" points="527.046,-262.819 526.791,-252.227 520.385,-260.666 527.046,-262.819"/>
<a xlink:href="dir_000028_000011.html" target="_top" xlink:title="2">
<text text-anchor="middle" x="528.642" y="-264.613" font-family="Helvetica,sans-Serif" font-size="10.00">2</text>
</a>
</g>
<!-- dir_374139fad1b6159fdced03a3e933469f -->
<g id="node5" class="node"><title>dir_374139fad1b6159fdced03a3e933469f</title>
<a xlink:href="dir_374139fad1b6159fdced03a3e933469f.html" target="_top" xlink:title="sobotzik">
<polygon fill="white" stroke="black" points="250,-468 196,-468 196,-432 250,-432 250,-468"/>
<text text-anchor="middle" x="223" y="-447.5" font-family="Helvetica,sans-Serif" font-size="10.00">sobotzik</text>
</a>
</g>
<!-- dir_374139fad1b6159fdced03a3e933469f&#45;&gt;dir_0a0aa297e888439a92fbcfd5e567f128 -->
<g id="edge4" class="edge"><title>dir_374139fad1b6159fdced03a3e933469f&#45;&gt;dir_0a0aa297e888439a92fbcfd5e567f128</title>
<path fill="none" stroke="black" d="M206.905,-431.7C202.199,-426.529 196.98,-420.961 192,-416 187.716,-411.732 183.066,-407.322 178.473,-403.084"/>
<polygon fill="black" stroke="black" points="180.626,-400.31 170.874,-396.169 175.915,-405.488 180.626,-400.31"/>
<a xlink:href="dir_000029_000033.html" target="_top" xlink:title="3">
<text text-anchor="middle" x="185.195" y="-398.129" font-family="Helvetica,sans-Serif" font-size="10.00">3</text>
</a>
</g>
<!-- dir_374139fad1b6159fdced03a3e933469f&#45;&gt;dir_0af1587c8378955de40f48b4bd1869f0 -->
<g id="edge6" class="edge"><title>dir_374139fad1b6159fdced03a3e933469f&#45;&gt;dir_0af1587c8378955de40f48b4bd1869f0</title>
<path fill="none" stroke="black" d="M195.841,-447.159C160.17,-442.213 97.1357,-429.151 55,-396 18.158,-367.014 0,-352.878 0,-306 0,-306 0,-306 0,-162 0,-116.456 12.6299,-99.4133 49,-72 80.9425,-47.9239 194.041,-30.3459 253.632,-22.5194"/>
<polygon fill="black" stroke="black" points="254.287,-25.9641 263.758,-21.2159 253.393,-19.0214 254.287,-25.9641"/>
<a xlink:href="dir_000029_000018.html" target="_top" xlink:title="2">
<text text-anchor="middle" x="251.084" y="-26.739" font-family="Helvetica,sans-Serif" font-size="10.00">2</text>
</a>
</g>
<!-- dir_ebac6f698c8ed4b70faacb8ef35cbe0d -->
<g id="node10" class="node"><title>dir_ebac6f698c8ed4b70faacb8ef35cbe0d</title>
<a xlink:href="dir_ebac6f698c8ed4b70faacb8ef35cbe0d.html" target="_top" xlink:title="root&#45;addons">
<polygon fill="white" stroke="red" points="251,-252 183,-252 183,-216 251,-216 251,-252"/>
<text text-anchor="middle" x="217" y="-231.5" font-family="Helvetica,sans-Serif" font-size="10.00">root&#45;addons</text>
</a>
</g>
<!-- dir_374139fad1b6159fdced03a3e933469f&#45;&gt;dir_ebac6f698c8ed4b70faacb8ef35cbe0d -->
<g id="edge8" class="edge"><title>dir_374139fad1b6159fdced03a3e933469f&#45;&gt;dir_ebac6f698c8ed4b70faacb8ef35cbe0d</title>
<path fill="none" stroke="black" d="M222.499,-431.955C221.455,-394.394 219.043,-307.554 217.789,-262.41"/>
<polygon fill="black" stroke="black" points="221.28,-262.044 217.504,-252.145 214.283,-262.238 221.28,-262.044"/>
<a xlink:href="dir_000029_000022.html" target="_top" xlink:title="1">
<text text-anchor="middle" x="224.218" y="-263.058" font-family="Helvetica,sans-Serif" font-size="10.00">1</text>
</a>
</g>
<!-- dir_374139fad1b6159fdced03a3e933469f&#45;&gt;dir_8f68c37b22d514b4289e3a1255795d80 -->
<g id="edge10" class="edge"><title>dir_374139fad1b6159fdced03a3e933469f&#45;&gt;dir_8f68c37b22d514b4289e3a1255795d80</title>
<path fill="none" stroke="black" d="M235.412,-431.762C252.495,-406.66 283.364,-361.302 302.988,-332.467"/>
<polygon fill="black" stroke="black" points="305.956,-334.326 308.689,-324.09 300.169,-330.388 305.956,-334.326"/>
<a xlink:href="dir_000029_000034.html" target="_top" xlink:title="1">
<text text-anchor="middle" x="306.281" y="-336.395" font-family="Helvetica,sans-Serif" font-size="10.00">1</text>
</a>
</g>
<!-- dir_dd6dc6d8f56905e70717c35413470cc3 -->
<g id="node6" class="node"><title>dir_dd6dc6d8f56905e70717c35413470cc3</title>
<a xlink:href="dir_dd6dc6d8f56905e70717c35413470cc3.html" target="_top" xlink:title="wolfes">
<polygon fill="white" stroke="red" points="322,-468 268,-468 268,-432 322,-432 322,-468"/>
<text text-anchor="middle" x="295" y="-447.5" font-family="Helvetica,sans-Serif" font-size="10.00">wolfes</text>
</a>
</g>
<!-- dir_dd6dc6d8f56905e70717c35413470cc3&#45;&gt;dir_0a0aa297e888439a92fbcfd5e567f128 -->
<g id="edge22" class="edge"><title>dir_dd6dc6d8f56905e70717c35413470cc3&#45;&gt;dir_0a0aa297e888439a92fbcfd5e567f128</title>
<path fill="none" stroke="black" d="M278.655,-431.781C272.878,-426.139 266.052,-420.287 259,-416 236.824,-402.521 209.193,-392.956 187.3,-386.793"/>
<polygon fill="black" stroke="black" points="187.941,-383.341 177.375,-384.119 186.12,-390.1 187.941,-383.341"/>
<a xlink:href="dir_000006_000033.html" target="_top" xlink:title="3">
<text text-anchor="middle" x="192.151" y="-379.034" font-family="Helvetica,sans-Serif" font-size="10.00">3</text>
</a>
</g>
<!-- dir_dd6dc6d8f56905e70717c35413470cc3&#45;&gt;dir_0af1587c8378955de40f48b4bd1869f0 -->
<g id="edge24" class="edge"><title>dir_dd6dc6d8f56905e70717c35413470cc3&#45;&gt;dir_0af1587c8378955de40f48b4bd1869f0</title>
<path fill="none" stroke="black" d="M279.824,-431.65C273.941,-425.716 266.752,-419.716 259,-416 200.336,-387.882 170.987,-427.377 114,-396 68.1382,-370.749 38,-358.354 38,-306 38,-306 38,-306 38,-162 38,-115.579 54.0777,-100.136 91,-72 116.492,-52.5749 203.423,-34.0246 253.893,-24.5457"/>
<polygon fill="black" stroke="black" points="254.576,-27.9788 263.773,-22.7185 253.303,-21.0955 254.576,-27.9788"/>
<a xlink:href="dir_000006_000018.html" target="_top" xlink:title="6">
<text text-anchor="middle" x="251.558" y="-28.9244" font-family="Helvetica,sans-Serif" font-size="10.00">6</text>
</a>
</g>
<!-- dir_c44c95bf3b41c3321c6014770d618ac8 -->
<g id="node9" class="node"><title>dir_c44c95bf3b41c3321c6014770d618ac8</title>
<a xlink:href="dir_c44c95bf3b41c3321c6014770d618ac8.html" target="_top" xlink:title="tree">
<polygon fill="none" stroke="black" points="291,-108 237,-108 237,-72 291,-72 291,-108"/>
<text text-anchor="middle" x="264" y="-87.5" font-family="Helvetica,sans-Serif" font-size="10.00">tree</text>
</a>
</g>
<!-- dir_dd6dc6d8f56905e70717c35413470cc3&#45;&gt;dir_c44c95bf3b41c3321c6014770d618ac8 -->
<g id="edge26" class="edge"><title>dir_dd6dc6d8f56905e70717c35413470cc3&#45;&gt;dir_c44c95bf3b41c3321c6014770d618ac8</title>
<path fill="none" stroke="black" d="M293.42,-431.653C288.362,-372.913 272.542,-189.201 266.437,-118.305"/>
<polygon fill="black" stroke="black" points="269.922,-117.973 265.577,-108.31 262.948,-118.574 269.922,-117.973"/>
<a xlink:href="dir_000006_000057.html" target="_top" xlink:title="2">
<text text-anchor="middle" x="273.059" y="-118.811" font-family="Helvetica,sans-Serif" font-size="10.00">2</text>
</a>
</g>
<!-- dir_dd6dc6d8f56905e70717c35413470cc3&#45;&gt;dir_c4f4646ab0f4a2967be5b6215a500c22 -->
<g id="edge28" class="edge"><title>dir_dd6dc6d8f56905e70717c35413470cc3&#45;&gt;dir_c4f4646ab0f4a2967be5b6215a500c22</title>
<path fill="none" stroke="black" d="M307.11,-431.928C328.794,-398.295 373.356,-323.044 388,-252 392.256,-231.351 388.79,-207.711 384.508,-189.843"/>
<polygon fill="black" stroke="black" points="387.864,-188.843 381.945,-180.055 381.092,-190.616 387.864,-188.843"/>
<a xlink:href="dir_000006_000037.html" target="_top" xlink:title="4">
<text text-anchor="middle" x="391.521" y="-189.101" font-family="Helvetica,sans-Serif" font-size="10.00">4</text>
</a>
</g>
<!-- dir_dd6dc6d8f56905e70717c35413470cc3&#45;&gt;dir_8f68c37b22d514b4289e3a1255795d80 -->
<g id="edge30" class="edge"><title>dir_dd6dc6d8f56905e70717c35413470cc3&#45;&gt;dir_8f68c37b22d514b4289e3a1255795d80</title>
<path fill="none" stroke="black" d="M298.293,-431.762C302.747,-407.093 310.734,-362.86 315.949,-333.973"/>
<polygon fill="black" stroke="black" points="319.401,-334.552 317.734,-324.09 312.513,-333.309 319.401,-334.552"/>
<a xlink:href="dir_000006_000034.html" target="_top" xlink:title="1">
<text text-anchor="middle" x="321.557" y="-336.094" font-family="Helvetica,sans-Serif" font-size="10.00">1</text>
</a>
</g>
<!-- dir_e884bea2662087624c49c4b98ba4353a -->
<g id="node13" class="node"><title>dir_e884bea2662087624c49c4b98ba4353a</title>
<a xlink:href="dir_e884bea2662087624c49c4b98ba4353a.html" target="_top" xlink:title="production">
<polygon fill="none" stroke="black" points="540,-549 478,-549 478,-513 540,-513 540,-549"/>
<text text-anchor="middle" x="509" y="-528.5" font-family="Helvetica,sans-Serif" font-size="10.00">production</text>
</a>
</g>
<!-- dir_dd6dc6d8f56905e70717c35413470cc3&#45;&gt;dir_e884bea2662087624c49c4b98ba4353a -->
<g id="edge32" class="edge"><title>dir_dd6dc6d8f56905e70717c35413470cc3&#45;&gt;dir_e884bea2662087624c49c4b98ba4353a</title>
<path fill="none" stroke="black" d="M294.56,-468.083C298.893,-480.536 308.437,-496.342 322,-505 345.053,-519.716 419.882,-526.466 467.731,-529.262"/>
<polygon fill="black" stroke="black" points="467.62,-532.761 477.797,-529.815 468.004,-525.771 467.62,-532.761"/>
<a xlink:href="dir_000006_000027.html" target="_top" xlink:title="1">
<text text-anchor="middle" x="463.875" y="-532.898" font-family="Helvetica,sans-Serif" font-size="10.00">1</text>
</a>
</g>
<!-- dir_0a0aa297e888439a92fbcfd5e567f128&#45;&gt;dir_0af1587c8378955de40f48b4bd1869f0 -->
<g id="edge12" class="edge"><title>dir_0a0aa297e888439a92fbcfd5e567f128&#45;&gt;dir_0af1587c8378955de40f48b4bd1869f0</title>
<path fill="none" stroke="black" d="M133.577,-359.976C111.776,-334.106 76,-284.032 76,-234 76,-234 76,-234 76,-162 76,-77.4883 192.096,-39.4235 253.665,-25.1788"/>
<polygon fill="black" stroke="black" points="254.763,-28.5205 263.77,-22.9413 253.25,-21.686 254.763,-28.5205"/>
<a xlink:href="dir_000033_000018.html" target="_top" xlink:title="51">
<text text-anchor="middle" x="251.867" y="-29.5696" font-family="Helvetica,sans-Serif" font-size="10.00">51</text>
</a>
</g>
<!-- dir_0a0aa297e888439a92fbcfd5e567f128&#45;&gt;dir_c44c95bf3b41c3321c6014770d618ac8 -->
<g id="edge14" class="edge"><title>dir_0a0aa297e888439a92fbcfd5e567f128&#45;&gt;dir_c44c95bf3b41c3321c6014770d618ac8</title>
<path fill="none" stroke="black" d="M145.266,-359.923C138.119,-328.821 127.635,-263.912 150,-216 169.11,-175.06 206.158,-138.008 232.84,-114.845"/>
<polygon fill="black" stroke="black" points="235.405,-117.258 240.756,-108.113 230.871,-111.925 235.405,-117.258"/>
<a xlink:href="dir_000033_000057.html" target="_top" xlink:title="19">
<text text-anchor="middle" x="234.506" y="-119.249" font-family="Helvetica,sans-Serif" font-size="10.00">19</text>
</a>
</g>
<!-- dir_0a0aa297e888439a92fbcfd5e567f128&#45;&gt;dir_c4f4646ab0f4a2967be5b6215a500c22 -->
<g id="edge16" class="edge"><title>dir_0a0aa297e888439a92fbcfd5e567f128&#45;&gt;dir_c4f4646ab0f4a2967be5b6215a500c22</title>
<path fill="none" stroke="black" d="M146.865,-359.81C142.285,-326.758 137.853,-256.527 174,-216 195.463,-191.936 284.419,-175.265 336.855,-167.315"/>
<polygon fill="black" stroke="black" points="337.443,-170.767 346.824,-165.842 336.42,-163.842 337.443,-170.767"/>
<a xlink:href="dir_000033_000037.html" target="_top" xlink:title="18">
<text text-anchor="middle" x="334.302" y="-171.601" font-family="Helvetica,sans-Serif" font-size="10.00">18</text>
</a>
</g>
<!-- dir_0a0aa297e888439a92fbcfd5e567f128&#45;&gt;dir_8f68c37b22d514b4289e3a1255795d80 -->
<g id="edge18" class="edge"><title>dir_0a0aa297e888439a92fbcfd5e567f128&#45;&gt;dir_8f68c37b22d514b4289e3a1255795d80</title>
<path fill="none" stroke="black" d="M177.095,-366.591C206.028,-354.409 252.051,-335.031 284.238,-321.479"/>
<polygon fill="black" stroke="black" points="285.891,-324.581 293.749,-317.474 283.174,-318.129 285.891,-324.581"/>
<a xlink:href="dir_000033_000034.html" target="_top" xlink:title="2">
<text text-anchor="middle" x="283.679" y="-326.092" font-family="Helvetica,sans-Serif" font-size="10.00">2</text>
</a>
</g>
<!-- dir_c44c95bf3b41c3321c6014770d618ac8&#45;&gt;dir_0af1587c8378955de40f48b4bd1869f0 -->
<g id="edge20" class="edge"><title>dir_c44c95bf3b41c3321c6014770d618ac8&#45;&gt;dir_0af1587c8378955de40f48b4bd1869f0</title>
<path fill="none" stroke="black" d="M270.813,-71.8314C273.764,-63.9617 277.286,-54.5712 280.555,-45.8533"/>
<polygon fill="black" stroke="black" points="283.861,-47.0055 284.095,-36.4133 277.307,-44.5476 283.861,-47.0055"/>
<a xlink:href="dir_000057_000018.html" target="_top" xlink:title="24">
<text text-anchor="middle" x="285.257" y="-48.8682" font-family="Helvetica,sans-Serif" font-size="10.00">24</text>
</a>
</g>
<!-- dir_ebac6f698c8ed4b70faacb8ef35cbe0d&#45;&gt;dir_0a0aa297e888439a92fbcfd5e567f128 -->
<g id="edge34" class="edge"><title>dir_ebac6f698c8ed4b70faacb8ef35cbe0d&#45;&gt;dir_0a0aa297e888439a92fbcfd5e567f128</title>
<path fill="none" stroke="black" d="M208.583,-252.09C197.041,-276.896 176.203,-321.682 162.743,-350.611"/>
<polygon fill="black" stroke="black" points="159.531,-349.219 158.486,-359.762 165.877,-352.172 159.531,-349.219"/>
<a xlink:href="dir_000022_000033.html" target="_top" xlink:title="5">
<text text-anchor="middle" x="158.473" y="-342.262" font-family="Helvetica,sans-Serif" font-size="10.00">5</text>
</a>
</g>
<!-- dir_ebac6f698c8ed4b70faacb8ef35cbe0d&#45;&gt;dir_0af1587c8378955de40f48b4bd1869f0 -->
<g id="edge36" class="edge"><title>dir_ebac6f698c8ed4b70faacb8ef35cbe0d&#45;&gt;dir_0af1587c8378955de40f48b4bd1869f0</title>
<path fill="none" stroke="black" d="M213.886,-215.809C209.443,-184.533 204.236,-119.37 228,-72 234.28,-59.482 244.876,-48.6839 255.604,-40.1048"/>
<polygon fill="black" stroke="black" points="257.864,-42.7848 263.764,-33.985 253.664,-37.1846 257.864,-42.7848"/>
<a xlink:href="dir_000022_000018.html" target="_top" xlink:title="44">
<text text-anchor="middle" x="256.692" y="-44.7129" font-family="Helvetica,sans-Serif" font-size="10.00">44</text>
</a>
</g>
<!-- dir_ebac6f698c8ed4b70faacb8ef35cbe0d&#45;&gt;dir_c44c95bf3b41c3321c6014770d618ac8 -->
<g id="edge38" class="edge"><title>dir_ebac6f698c8ed4b70faacb8ef35cbe0d&#45;&gt;dir_c44c95bf3b41c3321c6014770d618ac8</title>
<path fill="none" stroke="black" d="M222.953,-215.762C231.004,-191.093 245.442,-146.86 254.87,-117.973"/>
<polygon fill="black" stroke="black" points="258.32,-118.682 258.096,-108.09 251.666,-116.51 258.32,-118.682"/>
<a xlink:href="dir_000022_000057.html" target="_top" xlink:title="9">
<text text-anchor="middle" x="259.904" y="-120.48" font-family="Helvetica,sans-Serif" font-size="10.00">9</text>
</a>
</g>
<!-- dir_ebac6f698c8ed4b70faacb8ef35cbe0d&#45;&gt;dir_c4f4646ab0f4a2967be5b6215a500c22 -->
<g id="edge40" class="edge"><title>dir_ebac6f698c8ed4b70faacb8ef35cbe0d&#45;&gt;dir_c4f4646ab0f4a2967be5b6215a500c22</title>
<path fill="none" stroke="black" d="M251.109,-218.554C276.465,-207.072 311.085,-191.395 337.445,-179.459"/>
<polygon fill="black" stroke="black" points="339.084,-182.559 346.75,-175.245 336.197,-176.182 339.084,-182.559"/>
<a xlink:href="dir_000022_000037.html" target="_top" xlink:title="6">
<text text-anchor="middle" x="336.981" y="-184.128" font-family="Helvetica,sans-Serif" font-size="10.00">6</text>
</a>
</g>
<!-- dir_ebac6f698c8ed4b70faacb8ef35cbe0d&#45;&gt;dir_8f68c37b22d514b4289e3a1255795d80 -->
<g id="edge42" class="edge"><title>dir_ebac6f698c8ed4b70faacb8ef35cbe0d&#45;&gt;dir_8f68c37b22d514b4289e3a1255795d80</title>
<path fill="none" stroke="black" d="M249.187,-252.163C262.991,-261.115 278.924,-272.037 292.32,-281.698"/>
<polygon fill="black" stroke="black" points="290.571,-284.755 300.709,-287.831 294.702,-279.104 290.571,-284.755"/>
<a xlink:href="dir_000022_000034.html" target="_top" xlink:title="18">
<text text-anchor="middle" x="285.993" y="-282.425" font-family="Helvetica,sans-Serif" font-size="10.00">18</text>
</a>
</g>
<!-- dir_c4f4646ab0f4a2967be5b6215a500c22&#45;&gt;dir_0af1587c8378955de40f48b4bd1869f0 -->
<g id="edge44" class="edge"><title>dir_c4f4646ab0f4a2967be5b6215a500c22&#45;&gt;dir_0af1587c8378955de40f48b4bd1869f0</title>
<path fill="none" stroke="black" d="M368.684,-143.816C360.883,-125.201 347.653,-95.719 333,-72 327.134,-62.5052 319.916,-52.705 313.128,-44.1029"/>
<polygon fill="black" stroke="black" points="315.813,-41.8572 306.81,-36.2718 310.365,-46.2524 315.813,-41.8572"/>
<a xlink:href="dir_000037_000018.html" target="_top" xlink:title="31">
<text text-anchor="middle" x="320.28" y="-40.3721" font-family="Helvetica,sans-Serif" font-size="10.00">31</text>
</a>
</g>
<!-- dir_c4f4646ab0f4a2967be5b6215a500c22&#45;&gt;dir_c44c95bf3b41c3321c6014770d618ac8 -->
<g id="edge46" class="edge"><title>dir_c4f4646ab0f4a2967be5b6215a500c22&#45;&gt;dir_c44c95bf3b41c3321c6014770d618ac8</title>
<path fill="none" stroke="black" d="M347.738,-143.831C333.22,-134.498 315.374,-123.026 299.893,-113.074"/>
<polygon fill="black" stroke="black" points="301.399,-109.881 291.094,-107.418 297.613,-115.769 301.399,-109.881"/>
<a xlink:href="dir_000037_000057.html" target="_top" xlink:title="10">
<text text-anchor="middle" x="305.958" y="-106.937" font-family="Helvetica,sans-Serif" font-size="10.00">10</text>
</a>
</g>
<!-- dir_8f68c37b22d514b4289e3a1255795d80&#45;&gt;dir_0af1587c8378955de40f48b4bd1869f0 -->
<g id="edge48" class="edge"><title>dir_8f68c37b22d514b4289e3a1255795d80&#45;&gt;dir_0af1587c8378955de40f48b4bd1869f0</title>
<path fill="none" stroke="black" d="M319.834,-287.744C317.209,-248.279 310.255,-152.107 300,-72 298.931,-63.6479 297.524,-54.6094 296.141,-46.3598"/>
<polygon fill="black" stroke="black" points="299.579,-45.7022 294.429,-36.4433 292.681,-46.893 299.579,-45.7022"/>
<a xlink:href="dir_000034_000018.html" target="_top" xlink:title="10">
<text text-anchor="middle" x="302.988" y="-46.2615" font-family="Helvetica,sans-Serif" font-size="10.00">10</text>
</a>
</g>
<!-- dir_8f68c37b22d514b4289e3a1255795d80&#45;&gt;dir_ebac6f698c8ed4b70faacb8ef35cbe0d -->
<g id="edge50" class="edge"><title>dir_8f68c37b22d514b4289e3a1255795d80&#45;&gt;dir_ebac6f698c8ed4b70faacb8ef35cbe0d</title>
<path fill="none" stroke="black" d="M293.858,-291.082C279.052,-281.647 260.838,-269.23 245.798,-258.387"/>
<polygon fill="black" stroke="black" points="247.499,-255.295 237.36,-252.22 243.368,-260.946 247.499,-255.295"/>
<a xlink:href="dir_000034_000022.html" target="_top" xlink:title="1">
<text text-anchor="middle" x="252.076" y="-252.623" font-family="Helvetica,sans-Serif" font-size="10.00">1</text>
</a>
</g>
<!-- dir_8f68c37b22d514b4289e3a1255795d80&#45;&gt;dir_c4f4646ab0f4a2967be5b6215a500c22 -->
<g id="edge52" class="edge"><title>dir_8f68c37b22d514b4289e3a1255795d80&#45;&gt;dir_c4f4646ab0f4a2967be5b6215a500c22</title>
<path fill="none" stroke="black" d="M327.966,-287.762C337.429,-262.985 354.431,-218.471 365.461,-189.594"/>
<polygon fill="black" stroke="black" points="368.792,-190.68 369.091,-180.09 362.253,-188.183 368.792,-190.68"/>
<a xlink:href="dir_000034_000037.html" target="_top" xlink:title="1">
<text text-anchor="middle" x="370.162" y="-192.551" font-family="Helvetica,sans-Serif" font-size="10.00">1</text>
</a>
</g>
<!-- dir_e884bea2662087624c49c4b98ba4353a&#45;&gt;dir_15cb7383784026d829002226dc1288d7 -->
<g id="edge58" class="edge"><title>dir_e884bea2662087624c49c4b98ba4353a&#45;&gt;dir_15cb7383784026d829002226dc1288d7</title>
<path fill="none" stroke="black" d="M478.465,-512.756C475.436,-510.341 472.546,-507.744 470,-505 462.507,-496.925 456.12,-486.714 451.125,-477.288"/>
<polygon fill="black" stroke="black" points="454.202,-475.616 446.604,-468.232 447.939,-478.743 454.202,-475.616"/>
<a xlink:href="dir_000027_000005.html" target="_top" xlink:title="3">
<text text-anchor="middle" x="458.348" y="-475.064" font-family="Helvetica,sans-Serif" font-size="10.00">3</text>
</a>
</g>
<!-- dir_e884bea2662087624c49c4b98ba4353a&#45;&gt;dir_dd6dc6d8f56905e70717c35413470cc3 -->
<g id="edge60" class="edge"><title>dir_e884bea2662087624c49c4b98ba4353a&#45;&gt;dir_dd6dc6d8f56905e70717c35413470cc3</title>
<path fill="none" stroke="black" d="M477.666,-529.107C435.209,-526.221 362.639,-519.452 340,-505 329.51,-498.304 321.424,-487.331 314.902,-476.942"/>
<polygon fill="black" stroke="black" points="317.718,-474.834 309.552,-468.083 311.726,-478.453 317.718,-474.834"/>
<a xlink:href="dir_000027_000006.html" target="_top" xlink:title="3">
<text text-anchor="middle" x="322.007" y="-473.943" font-family="Helvetica,sans-Serif" font-size="10.00">3</text>
</a>
</g>
<!-- dir_e884bea2662087624c49c4b98ba4353a&#45;&gt;dir_0a0aa297e888439a92fbcfd5e567f128 -->
<g id="edge54" class="edge"><title>dir_e884bea2662087624c49c4b98ba4353a&#45;&gt;dir_0a0aa297e888439a92fbcfd5e567f128</title>
<path fill="none" stroke="black" d="M477.816,-530.521C400.812,-529.057 206.263,-523.544 184,-505 155.26,-481.06 149.383,-435.729 148.874,-406.202"/>
<polygon fill="black" stroke="black" points="152.375,-406.116 148.898,-396.108 145.375,-406.1 152.375,-406.116"/>
<a xlink:href="dir_000027_000033.html" target="_top" xlink:title="13">
<text text-anchor="middle" x="155.206" y="-407.217" font-family="Helvetica,sans-Serif" font-size="10.00">13</text>
</a>
</g>
<!-- dir_e884bea2662087624c49c4b98ba4353a&#45;&gt;dir_0af1587c8378955de40f48b4bd1869f0 -->
<g id="edge56" class="edge"><title>dir_e884bea2662087624c49c4b98ba4353a&#45;&gt;dir_0af1587c8378955de40f48b4bd1869f0</title>
<path fill="none" stroke="black" d="M540.014,-526.023C555.438,-522.298 573.597,-515.894 587,-505 637.695,-463.797 661,-443.327 661,-378 661,-378 661,-378 661,-162 661,-91.0765 421.915,-41.1275 328.122,-24.2613"/>
<polygon fill="black" stroke="black" points="328.664,-20.8029 318.207,-22.5046 327.443,-27.6956 328.664,-20.8029"/>
<a xlink:href="dir_000027_000018.html" target="_top" xlink:title="7">
<text text-anchor="middle" x="332.699" y="-16.1342" font-family="Helvetica,sans-Serif" font-size="10.00">7</text>
</a>
</g>
<!-- dir_e884bea2662087624c49c4b98ba4353a&#45;&gt;dir_c4f4646ab0f4a2967be5b6215a500c22 -->
<g id="edge62" class="edge"><title>dir_e884bea2662087624c49c4b98ba4353a&#45;&gt;dir_c4f4646ab0f4a2967be5b6215a500c22</title>
<path fill="none" stroke="black" d="M511.205,-512.738C513.409,-489.769 515.39,-449.305 507,-416 484.445,-326.464 425.458,-232.88 394.925,-188.447"/>
<polygon fill="black" stroke="black" points="397.797,-186.447 389.216,-180.232 392.048,-190.441 397.797,-186.447"/>
<a xlink:href="dir_000027_000037.html" target="_top" xlink:title="4">
<text text-anchor="middle" x="402.179" y="-185.279" font-family="Helvetica,sans-Serif" font-size="10.00">4</text>
</a>
</g>
<!-- dir_e884bea2662087624c49c4b98ba4353a&#45;&gt;dir_8f68c37b22d514b4289e3a1255795d80 -->
<g id="edge64" class="edge"><title>dir_e884bea2662087624c49c4b98ba4353a&#45;&gt;dir_8f68c37b22d514b4289e3a1255795d80</title>
<path fill="none" stroke="black" d="M507.893,-512.645C505.632,-488.489 498.774,-445.63 478,-416 447.307,-372.223 393.312,-340.072 357.345,-322.195"/>
<polygon fill="black" stroke="black" points="358.69,-318.957 348.165,-317.746 355.638,-325.256 358.69,-318.957"/>
<a xlink:href="dir_000027_000034.html" target="_top" xlink:title="4">
<text text-anchor="middle" x="363.163" y="-315.469" font-family="Helvetica,sans-Serif" font-size="10.00">4</text>
</a>
</g>
<!-- dir_e884bea2662087624c49c4b98ba4353a&#45;&gt;dir_f7cc278301683119f8719a92f4ffdd26 -->
<g id="edge66" class="edge"><title>dir_e884bea2662087624c49c4b98ba4353a&#45;&gt;dir_f7cc278301683119f8719a92f4ffdd26</title>
<path fill="none" stroke="black" d="M540.214,-522.128C548.379,-518.235 556.224,-512.727 561,-505 608.908,-427.483 568.322,-313.225 545.275,-261.377"/>
<polygon fill="black" stroke="black" points="548.403,-259.8 541.066,-252.157 542.035,-262.707 548.403,-259.8"/>
<a xlink:href="dir_000027_000011.html" target="_top" xlink:title="1">
<text text-anchor="middle" x="552.478" y="-259.391" font-family="Helvetica,sans-Serif" font-size="10.00">1</text>
</a>
</g>
<!-- dir_f7cc278301683119f8719a92f4ffdd26&#45;&gt;dir_0af1587c8378955de40f48b4bd1869f0 -->
<g id="edge68" class="edge"><title>dir_f7cc278301683119f8719a92f4ffdd26&#45;&gt;dir_0af1587c8378955de40f48b4bd1869f0</title>
<path fill="none" stroke="black" d="M518.49,-215.748C504.055,-196.817 479.994,-166.845 456,-144 414.609,-104.592 361.192,-65.6633 326.525,-41.7383"/>
<polygon fill="black" stroke="black" points="328.362,-38.7539 318.134,-35.9878 324.404,-44.5281 328.362,-38.7539"/>
<a xlink:href="dir_000011_000018.html" target="_top" xlink:title="11">
<text text-anchor="middle" x="332.932" y="-35.944" font-family="Helvetica,sans-Serif" font-size="10.00">11</text>
</a>
</g>
<!-- dir_f7cc278301683119f8719a92f4ffdd26&#45;&gt;dir_c44c95bf3b41c3321c6014770d618ac8 -->
<g id="edge70" class="edge"><title>dir_f7cc278301683119f8719a92f4ffdd26&#45;&gt;dir_c44c95bf3b41c3321c6014770d618ac8</title>
<path fill="none" stroke="black" d="M512.023,-215.674C489.564,-195.84 451.337,-164.328 414,-144 377.528,-124.143 332.282,-109.013 301.076,-99.8897"/>
<polygon fill="black" stroke="black" points="301.641,-96.4111 291.064,-97.028 299.717,-103.142 301.641,-96.4111"/>
<a xlink:href="dir_000011_000057.html" target="_top" xlink:title="5">
<text text-anchor="middle" x="305.877" y="-92.1689" font-family="Helvetica,sans-Serif" font-size="10.00">5</text>
</a>
</g>
<!-- dir_f7cc278301683119f8719a92f4ffdd26&#45;&gt;dir_c4f4646ab0f4a2967be5b6215a500c22 -->
<g id="edge72" class="edge"><title>dir_f7cc278301683119f8719a92f4ffdd26&#45;&gt;dir_c4f4646ab0f4a2967be5b6215a500c22</title>
<path fill="none" stroke="black" d="M498.916,-218.731C474.143,-207.297 440.201,-191.631 414.26,-179.658"/>
<polygon fill="black" stroke="black" points="415.643,-176.442 405.097,-175.429 412.709,-182.798 415.643,-176.442"/>
<a xlink:href="dir_000011_000037.html" target="_top" xlink:title="12">
<text text-anchor="middle" x="420.096" y="-172.87" font-family="Helvetica,sans-Serif" font-size="10.00">12</text>
</a>
</g>
</g>
</svg>
