<?xml version="1.0" encoding="UTF-8" standalone="no"?>
<!DOCTYPE svg PUBLIC "-//W3C//DTD SVG 1.1//EN"
 "http://www.w3.org/Graphics/SVG/1.1/DTD/svg11.dtd">
<!-- Generated by graphviz version 2.26.3 (20100126.1600)
 -->
<!-- Title: src/analysis/physics/etaprime Pages: 1 -->
<svg width="225pt" height="441pt"
 viewBox="0.00 0.00 224.94 441.00" xmlns="http://www.w3.org/2000/svg" xmlns:xlink="http://www.w3.org/1999/xlink">
<g id="graph1" class="graph" transform="scale(1 1) rotate(0) translate(4 437)">
<title>src/analysis/physics/etaprime</title>
<polygon fill="white" stroke="white" points="-4,5 -4,-437 221.941,-437 221.941,5 -4,5"/>
<g id="graph2" class="cluster"><title>clusterdir_a21a804d6482c442bcd1b39e4dfcc179</title>
<a xlink:href="dir_a21a804d6482c442bcd1b39e4dfcc179.html" target="_top" xlink:title="physics">
<polygon fill="#ddddee" stroke="black" points="77.9407,-352 77.9407,-425 147.941,-425 147.941,-352 77.9407,-352"/>
<text text-anchor="middle" x="112.941" y="-412" font-family="Helvetica,sans-Serif" font-size="10.00">physics</text>
</a>
</g>
<!-- dir_d0c81f0be4ede6821f28dcbf18b5df0f -->
<g id="node2" class="node"><title>dir_d0c81f0be4ede6821f28dcbf18b5df0f</title>
<a xlink:href="dir_d0c81f0be4ede6821f28dcbf18b5df0f.html" target="_top" xlink:title="etaprime">
<polygon fill="#eeeeff" stroke="black" points="139.941,-396 85.9407,-396 85.9407,-360 139.941,-360 139.941,-396"/>
<text text-anchor="middle" x="112.941" y="-375.5" font-family="Helvetica,sans-Serif" font-size="10.00">etaprime</text>
</a>
</g>
<!-- dir_0a0aa297e888439a92fbcfd5e567f128 -->
<g id="node3" class="node"><title>dir_0a0aa297e888439a92fbcfd5e567f128</title>
<a xlink:href="dir_0a0aa297e888439a92fbcfd5e567f128.html" target="_top" xlink:title="utils">
<polygon fill="white" stroke="red" points="84.9407,-324 30.9407,-324 30.9407,-288 84.9407,-288 84.9407,-324"/>
<text text-anchor="middle" x="57.9407" y="-303.5" font-family="Helvetica,sans-Serif" font-size="10.00">utils</text>
</a>
</g>
<!-- dir_d0c81f0be4ede6821f28dcbf18b5df0f&#45;&gt;dir_0a0aa297e888439a92fbcfd5e567f128 -->
<g id="edge25" class="edge"><title>dir_d0c81f0be4ede6821f28dcbf18b5df0f&#45;&gt;dir_0a0aa297e888439a92fbcfd5e567f128</title>
<path fill="none" stroke="black" d="M99.0619,-359.831C92.7272,-351.539 85.1023,-341.557 78.1481,-332.453"/>
<polygon fill="black" stroke="black" points="80.8582,-330.235 72.0064,-324.413 75.2955,-334.485 80.8582,-330.235"/>
<a xlink:href="dir_000024_000033.html" target="_top" xlink:title="30">
<text text-anchor="middle" x="85.2965" y="-328.868" font-family="Helvetica,sans-Serif" font-size="10.00">30</text>
</a>
</g>
<!-- dir_0af1587c8378955de40f48b4bd1869f0 -->
<g id="node4" class="node"><title>dir_0af1587c8378955de40f48b4bd1869f0</title>
<a xlink:href="dir_0af1587c8378955de40f48b4bd1869f0.html" target="_top" xlink:title="base">
<polygon fill="white" stroke="red" points="143.941,-36 89.9407,-36 89.9407,-1.77636e-14 143.941,-3.55271e-15 143.941,-36"/>
<text text-anchor="middle" x="116.941" y="-15.5" font-family="Helvetica,sans-Serif" font-size="10.00">base</text>
</a>
</g>
<!-- dir_d0c81f0be4ede6821f28dcbf18b5df0f&#45;&gt;dir_0af1587c8378955de40f48b4bd1869f0 -->
<g id="edge27" class="edge"><title>dir_d0c81f0be4ede6821f28dcbf18b5df0f&#45;&gt;dir_0af1587c8378955de40f48b4bd1869f0</title>
<path fill="none" stroke="black" d="M137.851,-359.871C168.619,-335.171 216.941,-287.813 216.941,-234 216.941,-234 216.941,-234 216.941,-162 216.941,-113.105 177.563,-68.8706 148.228,-42.7017"/>
<polygon fill="black" stroke="black" points="150.49,-40.0304 140.639,-36.1285 145.906,-45.3214 150.49,-40.0304"/>
<a xlink:href="dir_000024_000018.html" target="_top" xlink:title="18">
<text text-anchor="middle" x="155.065" y="-37.7378" font-family="Helvetica,sans-Serif" font-size="10.00">18</text>
</a>
</g>
<!-- dir_ebac6f698c8ed4b70faacb8ef35cbe0d -->
<g id="node5" class="node"><title>dir_ebac6f698c8ed4b70faacb8ef35cbe0d</title>
<a xlink:href="dir_ebac6f698c8ed4b70faacb8ef35cbe0d.html" target="_top" xlink:title="root&#45;addons">
<polygon fill="white" stroke="red" points="150.941,-180 82.9407,-180 82.9407,-144 150.941,-144 150.941,-180"/>
<text text-anchor="middle" x="116.941" y="-159.5" font-family="Helvetica,sans-Serif" font-size="10.00">root&#45;addons</text>
</a>
</g>
<!-- dir_d0c81f0be4ede6821f28dcbf18b5df0f&#45;&gt;dir_ebac6f698c8ed4b70faacb8ef35cbe0d -->
<g id="edge29" class="edge"><title>dir_d0c81f0be4ede6821f28dcbf18b5df0f&#45;&gt;dir_ebac6f698c8ed4b70faacb8ef35cbe0d</title>
<path fill="none" stroke="black" d="M122.721,-359.879C137.682,-329.783 163.104,-267.683 148.941,-216 146.36,-206.584 141.667,-197.144 136.655,-188.851"/>
<polygon fill="black" stroke="black" points="139.538,-186.864 131.177,-180.358 133.656,-190.659 139.538,-186.864"/>
<a xlink:href="dir_000024_000022.html" target="_top" xlink:title="1">
<text text-anchor="middle" x="143.872" y="-185.846" font-family="Helvetica,sans-Serif" font-size="10.00">1</text>
</a>
</g>
<!-- dir_c4f4646ab0f4a2967be5b6215a500c22 -->
<g id="node6" class="node"><title>dir_c4f4646ab0f4a2967be5b6215a500c22</title>
<a xlink:href="dir_c4f4646ab0f4a2967be5b6215a500c22.html" target="_top" xlink:title="expconfig">
<polygon fill="white" stroke="red" points="83.9407,-108 25.9407,-108 25.9407,-72 83.9407,-72 83.9407,-108"/>
<text text-anchor="middle" x="54.9407" y="-87.5" font-family="Helvetica,sans-Serif" font-size="10.00">expconfig</text>
</a>
</g>
<!-- dir_d0c81f0be4ede6821f28dcbf18b5df0f&#45;&gt;dir_c4f4646ab0f4a2967be5b6215a500c22 -->
<g id="edge31" class="edge"><title>dir_d0c81f0be4ede6821f28dcbf18b5df0f&#45;&gt;dir_c4f4646ab0f4a2967be5b6215a500c22</title>
<path fill="none" stroke="black" d="M85.636,-370.051C64.0901,-362.177 35.485,-347.787 21.9407,-324 -16.0592,-257.264 19.1547,-163.015 40.8319,-117.168"/>
<polygon fill="black" stroke="black" points="43.9933,-118.67 45.2209,-108.147 37.6987,-115.608 43.9933,-118.67"/>
<a xlink:href="dir_000024_000037.html" target="_top" xlink:title="8">
<text text-anchor="middle" x="44.9739" y="-120.645" font-family="Helvetica,sans-Serif" font-size="10.00">8</text>
</a>
</g>
<!-- dir_8f68c37b22d514b4289e3a1255795d80 -->
<g id="node7" class="node"><title>dir_8f68c37b22d514b4289e3a1255795d80</title>
<a xlink:href="dir_8f68c37b22d514b4289e3a1255795d80.html" target="_top" xlink:title="plot">
<polygon fill="none" stroke="black" points="139.941,-252 85.9407,-252 85.9407,-216 139.941,-216 139.941,-252"/>
<text text-anchor="middle" x="112.941" y="-231.5" font-family="Helvetica,sans-Serif" font-size="10.00">plot</text>
</a>
</g>
<!-- dir_d0c81f0be4ede6821f28dcbf18b5df0f&#45;&gt;dir_8f68c37b22d514b4289e3a1255795d80 -->
<g id="edge33" class="edge"><title>dir_d0c81f0be4ede6821f28dcbf18b5df0f&#45;&gt;dir_8f68c37b22d514b4289e3a1255795d80</title>
<path fill="none" stroke="black" d="M112.941,-359.762C112.941,-335.201 112.941,-291.247 112.941,-262.354"/>
<polygon fill="black" stroke="black" points="116.441,-262.09 112.941,-252.09 109.441,-262.09 116.441,-262.09"/>
<a xlink:href="dir_000024_000034.html" target="_top" xlink:title="6">
<text text-anchor="middle" x="119.28" y="-263.184" font-family="Helvetica,sans-Serif" font-size="10.00">6</text>
</a>
</g>
<!-- dir_0a0aa297e888439a92fbcfd5e567f128&#45;&gt;dir_0af1587c8378955de40f48b4bd1869f0 -->
<g id="edge3" class="edge"><title>dir_0a0aa297e888439a92fbcfd5e567f128&#45;&gt;dir_0af1587c8378955de40f48b4bd1869f0</title>
<path fill="none" stroke="black" d="M47.022,-287.788C23.7225,-246.331 -25.4213,-143.019 16.9407,-72 30.5878,-49.1208 57.6566,-35.3542 80.1931,-27.4522"/>
<polygon fill="black" stroke="black" points="81.4121,-30.7364 89.8422,-24.3189 79.2501,-24.0786 81.4121,-30.7364"/>
<a xlink:href="dir_000033_000018.html" target="_top" xlink:title="51">
<text text-anchor="middle" x="78.8701" y="-32.047" font-family="Helvetica,sans-Serif" font-size="10.00">51</text>
</a>
</g>
<!-- dir_0a0aa297e888439a92fbcfd5e567f128&#45;&gt;dir_c4f4646ab0f4a2967be5b6215a500c22 -->
<g id="edge5" class="edge"><title>dir_0a0aa297e888439a92fbcfd5e567f128&#45;&gt;dir_c4f4646ab0f4a2967be5b6215a500c22</title>
<path fill="none" stroke="black" d="M57.6901,-287.955C57.1684,-250.394 55.9623,-163.554 55.3353,-118.41"/>
<polygon fill="black" stroke="black" points="58.8314,-118.095 55.1927,-108.145 51.832,-118.193 58.8314,-118.095"/>
<a xlink:href="dir_000033_000037.html" target="_top" xlink:title="18">
<text text-anchor="middle" x="61.7202" y="-119.15" font-family="Helvetica,sans-Serif" font-size="10.00">18</text>
</a>
</g>
<!-- dir_0a0aa297e888439a92fbcfd5e567f128&#45;&gt;dir_8f68c37b22d514b4289e3a1255795d80 -->
<g id="edge7" class="edge"><title>dir_0a0aa297e888439a92fbcfd5e567f128&#45;&gt;dir_8f68c37b22d514b4289e3a1255795d80</title>
<path fill="none" stroke="black" d="M71.8195,-287.831C78.1543,-279.539 85.7791,-269.557 92.7333,-260.453"/>
<polygon fill="black" stroke="black" points="95.5859,-262.485 98.875,-252.413 90.0232,-258.235 95.5859,-262.485"/>
<a xlink:href="dir_000033_000034.html" target="_top" xlink:title="2">
<text text-anchor="middle" x="95.6602" y="-264.565" font-family="Helvetica,sans-Serif" font-size="10.00">2</text>
</a>
</g>
<!-- dir_ebac6f698c8ed4b70faacb8ef35cbe0d&#45;&gt;dir_0a0aa297e888439a92fbcfd5e567f128 -->
<g id="edge9" class="edge"><title>dir_ebac6f698c8ed4b70faacb8ef35cbe0d&#45;&gt;dir_0a0aa297e888439a92fbcfd5e567f128</title>
<path fill="none" stroke="black" d="M100.336,-180.228C92.1392,-190.147 82.781,-203.02 76.9407,-216 68.1219,-235.6 63.3243,-259.466 60.7572,-277.696"/>
<polygon fill="black" stroke="black" points="57.2741,-277.343 59.4899,-287.703 64.2186,-278.222 57.2741,-277.343"/>
<a xlink:href="dir_000022_000033.html" target="_top" xlink:title="5">
<text text-anchor="middle" x="54.9088" y="-270.92" font-family="Helvetica,sans-Serif" font-size="10.00">5</text>
</a>
</g>
<!-- dir_ebac6f698c8ed4b70faacb8ef35cbe0d&#45;&gt;dir_0af1587c8378955de40f48b4bd1869f0 -->
<g id="edge11" class="edge"><title>dir_ebac6f698c8ed4b70faacb8ef35cbe0d&#45;&gt;dir_0af1587c8378955de40f48b4bd1869f0</title>
<path fill="none" stroke="black" d="M116.941,-143.762C116.941,-119.201 116.941,-75.2474 116.941,-46.3541"/>
<polygon fill="black" stroke="black" points="120.441,-46.0896 116.941,-36.0896 113.441,-46.0897 120.441,-46.0896"/>
<a xlink:href="dir_000022_000018.html" target="_top" xlink:title="44">
<text text-anchor="middle" x="123.28" y="-47.1842" font-family="Helvetica,sans-Serif" font-size="10.00">44</text>
</a>
</g>
<!-- dir_ebac6f698c8ed4b70faacb8ef35cbe0d&#45;&gt;dir_c4f4646ab0f4a2967be5b6215a500c22 -->
<g id="edge13" class="edge"><title>dir_ebac6f698c8ed4b70faacb8ef35cbe0d&#45;&gt;dir_c4f4646ab0f4a2967be5b6215a500c22</title>
<path fill="none" stroke="black" d="M101.295,-143.831C94.0817,-135.454 85.3837,-125.353 77.4802,-116.175"/>
<polygon fill="black" stroke="black" points="79.9741,-113.707 70.7966,-108.413 74.6697,-118.275 79.9741,-113.707"/>
<a xlink:href="dir_000022_000037.html" target="_top" xlink:title="6">
<text text-anchor="middle" x="84.4711" y="-112.078" font-family="Helvetica,sans-Serif" font-size="10.00">6</text>
</a>
</g>
<!-- dir_ebac6f698c8ed4b70faacb8ef35cbe0d&#45;&gt;dir_8f68c37b22d514b4289e3a1255795d80 -->
<g id="edge15" class="edge"><title>dir_ebac6f698c8ed4b70faacb8ef35cbe0d&#45;&gt;dir_8f68c37b22d514b4289e3a1255795d80</title>
<path fill="none" stroke="black" d="M121.894,-180.413C122.204,-188.144 121.904,-197.31 121.109,-205.854"/>
<polygon fill="black" stroke="black" points="117.629,-205.483 119.902,-215.831 124.578,-206.324 117.629,-205.483"/>
<a xlink:href="dir_000022_000034.html" target="_top" xlink:title="18">
<text text-anchor="middle" x="115.242" y="-199.074" font-family="Helvetica,sans-Serif" font-size="10.00">18</text>
</a>
</g>
<!-- dir_c4f4646ab0f4a2967be5b6215a500c22&#45;&gt;dir_0af1587c8378955de40f48b4bd1869f0 -->
<g id="edge17" class="edge"><title>dir_c4f4646ab0f4a2967be5b6215a500c22&#45;&gt;dir_0af1587c8378955de40f48b4bd1869f0</title>
<path fill="none" stroke="black" d="M70.5859,-71.8314C77.7998,-63.454 86.4977,-53.3531 94.4012,-44.1749"/>
<polygon fill="black" stroke="black" points="97.2118,-46.2748 101.085,-36.4133 91.9074,-41.7071 97.2118,-46.2748"/>
<a xlink:href="dir_000037_000018.html" target="_top" xlink:title="31">
<text text-anchor="middle" x="97.0178" y="-48.3514" font-family="Helvetica,sans-Serif" font-size="10.00">31</text>
</a>
</g>
<!-- dir_8f68c37b22d514b4289e3a1255795d80&#45;&gt;dir_0af1587c8378955de40f48b4bd1869f0 -->
<g id="edge19" class="edge"><title>dir_8f68c37b22d514b4289e3a1255795d80&#45;&gt;dir_0af1587c8378955de40f48b4bd1869f0</title>
<path fill="none" stroke="black" d="M134.708,-215.816C144.413,-206.282 154.8,-193.735 159.941,-180 177.207,-133.864 152.833,-77.9036 134.341,-45.2877"/>
<polygon fill="black" stroke="black" points="137.168,-43.1899 129.083,-36.3432 131.134,-46.7376 137.168,-43.1899"/>
<a xlink:href="dir_000034_000018.html" target="_top" xlink:title="10">
<text text-anchor="middle" x="141.437" y="-42.3497" font-family="Helvetica,sans-Serif" font-size="10.00">10</text>
</a>
</g>
<!-- dir_8f68c37b22d514b4289e3a1255795d80&#45;&gt;dir_ebac6f698c8ed4b70faacb8ef35cbe0d -->
<g id="edge21" class="edge"><title>dir_8f68c37b22d514b4289e3a1255795d80&#45;&gt;dir_ebac6f698c8ed4b70faacb8ef35cbe0d</title>
<path fill="none" stroke="black" d="M107.998,-215.831C107.675,-208.131 107.963,-198.974 108.747,-190.417"/>
<polygon fill="black" stroke="black" points="112.231,-190.758 109.942,-180.413 105.28,-189.928 112.231,-190.758"/>
<a xlink:href="dir_000034_000022.html" target="_top" xlink:title="1">
<text text-anchor="middle" x="114.624" y="-192.164" font-family="Helvetica,sans-Serif" font-size="10.00">1</text>
</a>
</g>
<!-- dir_8f68c37b22d514b4289e3a1255795d80&#45;&gt;dir_c4f4646ab0f4a2967be5b6215a500c22 -->
<g id="edge23" class="edge"><title>dir_8f68c37b22d514b4289e3a1255795d80&#45;&gt;dir_c4f4646ab0f4a2967be5b6215a500c22</title>
<path fill="none" stroke="black" d="M96.7651,-215.707C88.7771,-205.77 79.652,-192.901 73.9407,-180 65.2403,-160.347 60.4366,-136.483 57.8371,-118.268"/>
<polygon fill="black" stroke="black" points="61.2982,-117.741 56.5484,-108.271 54.3556,-118.636 61.2982,-117.741"/>
<a xlink:href="dir_000034_000037.html" target="_top" xlink:title="1">
<text text-anchor="middle" x="64.5736" y="-118.443" font-family="Helvetica,sans-Serif" font-size="10.00">1</text>
</a>
</g>
</g>
</svg>
