<?xml version="1.0" encoding="UTF-8" standalone="no"?>
<!DOCTYPE svg PUBLIC "-//W3C//DTD SVG 1.1//EN"
 "http://www.w3.org/Graphics/SVG/1.1/DTD/svg11.dtd">
<!-- Generated by graphviz version 2.26.3 (20100126.1600)
 -->
<!-- Title: src/root&#45;addons/analysis_codes/hstack.h Pages: 1 -->
<svg width="1710pt" height="200pt"
 viewBox="0.00 0.00 1710.00 200.00" xmlns="http://www.w3.org/2000/svg" xmlns:xlink="http://www.w3.org/1999/xlink">
<g id="graph1" class="graph" transform="scale(1 1) rotate(0) translate(4 196)">
<title>src/root&#45;addons/analysis_codes/hstack.h</title>
<polygon fill="white" stroke="white" points="-4,5 -4,-196 1707,-196 1707,5 -4,5"/>
<!-- Node22 -->
<g id="node1" class="node"><title>Node22</title>
<polygon fill="#bfbfbf" stroke="black" points="576.5,-157 576.5,-191 699.5,-191 699.5,-157 576.5,-157"/>
<text text-anchor="start" x="584.5" y="-178" font-family="Helvetica,sans-Serif" font-size="10.00">src/root&#45;addons/analysis</text>
<text text-anchor="middle" x="638" y="-165" font-family="Helvetica,sans-Serif" font-size="10.00">_codes/hstack.h</text>
</g>
<!-- Node23 -->
<g id="node3" class="node"><title>Node23</title>
<a xlink:href="_ant-hadd_8cc.html" target="_top" xlink:title="progs/Ant&#45;hadd.cc">
<polygon fill="white" stroke="black" points="0,-91.5 0,-112.5 96,-112.5 96,-91.5 0,-91.5"/>
<text text-anchor="middle" x="48" y="-99.5" font-family="Helvetica,sans-Serif" font-size="10.00">progs/Ant&#45;hadd.cc</text>
</a>
</g>
<!-- Node22&#45;&gt;Node23 -->
<g id="edge2" class="edge"><title>Node22&#45;&gt;Node23</title>
<path fill="none" stroke="midnightblue" d="M565.936,-171.38C462.834,-166.578 267.702,-153.562 105,-120 95.8528,-118.113 86.0922,-115.328 77.2802,-112.51"/>
<polygon fill="midnightblue" stroke="midnightblue" points="566.08,-174.89 576.228,-171.847 566.397,-167.898 566.08,-174.89"/>
</g>
<!-- Node24 -->
<g id="node5" class="node"><title>Node24</title>
<a xlink:href="_ant-mcdatabase-viewer_8cc.html" target="_top" xlink:title="progs/Ant&#45;mcdatabase\l&#45;viewer.cc">
<polygon fill="white" stroke="black" points="113.5,-85 113.5,-119 228.5,-119 228.5,-85 113.5,-85"/>
<text text-anchor="start" x="121.5" y="-106" font-family="Helvetica,sans-Serif" font-size="10.00">progs/Ant&#45;mcdatabase</text>
<text text-anchor="middle" x="171" y="-93" font-family="Helvetica,sans-Serif" font-size="10.00">&#45;viewer.cc</text>
</a>
</g>
<!-- Node22&#45;&gt;Node24 -->
<g id="edge4" class="edge"><title>Node22&#45;&gt;Node24</title>
<path fill="none" stroke="midnightblue" d="M566.398,-167.248C485.809,-158.981 351.218,-143.16 237,-120 234.323,-119.457 231.594,-118.867 228.844,-118.241"/>
<polygon fill="midnightblue" stroke="midnightblue" points="566.133,-170.739 576.436,-168.268 566.841,-163.775 566.133,-170.739"/>
</g>
<!-- Node25 -->
<g id="node7" class="node"><title>Node25</title>
<a xlink:href="process_etap_tree_8cc.html" target="_top" xlink:title="progs/processEtapTree.cc">
<polygon fill="white" stroke="black" points="245.5,-91.5 245.5,-112.5 376.5,-112.5 376.5,-91.5 245.5,-91.5"/>
<text text-anchor="middle" x="311" y="-99.5" font-family="Helvetica,sans-Serif" font-size="10.00">progs/processEtapTree.cc</text>
</a>
</g>
<!-- Node22&#45;&gt;Node25 -->
<g id="edge6" class="edge"><title>Node22&#45;&gt;Node25</title>
<path fill="none" stroke="midnightblue" d="M566.4,-159.282C515.673,-148.717 446.062,-133.94 385,-120 374.817,-117.675 363.871,-115.071 353.604,-112.582"/>
<polygon fill="midnightblue" stroke="midnightblue" points="565.783,-162.728 576.286,-161.337 567.208,-155.875 565.783,-162.728"/>
</g>
<!-- Node26 -->
<g id="node9" class="node"><title>Node26</title>
<a xlink:href="_m_c_clustering_check_8h.html" target="_top" xlink:title="src/analysis/physics\l/check/MCClusteringCheck.h">
<polygon fill="white" stroke="black" points="394,-85 394,-119 540,-119 540,-85 394,-85"/>
<text text-anchor="start" x="402" y="-106" font-family="Helvetica,sans-Serif" font-size="10.00">src/analysis/physics</text>
<text text-anchor="middle" x="467" y="-93" font-family="Helvetica,sans-Serif" font-size="10.00">/check/MCClusteringCheck.h</text>
</a>
</g>
<!-- Node22&#45;&gt;Node26 -->
<g id="edge8" class="edge"><title>Node22&#45;&gt;Node26</title>
<path fill="none" stroke="midnightblue" d="M587.944,-152.924C562.353,-142.149 531.614,-129.206 507.53,-119.065"/>
<polygon fill="midnightblue" stroke="midnightblue" points="586.901,-156.282 597.475,-156.937 589.617,-149.831 586.901,-156.282"/>
</g>
<!-- Node28 -->
<g id="node13" class="node"><title>Node28</title>
<a xlink:href="_m_c_reconstruct_check_8cc.html" target="_top" xlink:title="src/analysis/physics\l/check/MCReconstructCheck.cc">
<polygon fill="white" stroke="black" points="558,-85 558,-119 718,-119 718,-85 558,-85"/>
<text text-anchor="start" x="566" y="-106" font-family="Helvetica,sans-Serif" font-size="10.00">src/analysis/physics</text>
<text text-anchor="middle" x="638" y="-93" font-family="Helvetica,sans-Serif" font-size="10.00">/check/MCReconstructCheck.cc</text>
</a>
</g>
<!-- Node22&#45;&gt;Node28 -->
<g id="edge12" class="edge"><title>Node22&#45;&gt;Node28</title>
<path fill="none" stroke="midnightblue" d="M638,-146.719C638,-137.572 638,-127.625 638,-119.441"/>
<polygon fill="midnightblue" stroke="midnightblue" points="634.5,-146.937 638,-156.937 641.5,-146.937 634.5,-146.937"/>
</g>
<!-- Node29 -->
<g id="node15" class="node"><title>Node29</title>
<a xlink:href="_omega___eta_g_8cc.html" target="_top" xlink:title="src/analysis/physics\l/omega/Omega_EtaG.cc">
<polygon fill="white" stroke="black" points="527.5,-7 527.5,-41 652.5,-41 652.5,-7 527.5,-7"/>
<text text-anchor="start" x="535.5" y="-28" font-family="Helvetica,sans-Serif" font-size="10.00">src/analysis/physics</text>
<text text-anchor="middle" x="590" y="-15" font-family="Helvetica,sans-Serif" font-size="10.00">/omega/Omega_EtaG.cc</text>
</a>
</g>
<!-- Node22&#45;&gt;Node29 -->
<g id="edge14" class="edge"><title>Node22&#45;&gt;Node29</title>
<path fill="none" stroke="midnightblue" d="M693.848,-151.913C707.03,-143.914 719.436,-133.436 727,-120 734.849,-106.057 735.755,-97.3922 727,-84 721.53,-75.6326 673.064,-55.6196 635.311,-41"/>
<polygon fill="midnightblue" stroke="midnightblue" points="692.122,-148.869 685.117,-156.818 695.55,-154.972 692.122,-148.869"/>
</g>
<!-- Node30 -->
<g id="node17" class="node"><title>Node30</title>
<a xlink:href="pi0eta_8cc.html" target="_top" xlink:title="src/analysis/physics\l/omega/pi0eta.cc">
<polygon fill="white" stroke="black" points="774,-85 774,-119 880,-119 880,-85 774,-85"/>
<text text-anchor="start" x="782" y="-106" font-family="Helvetica,sans-Serif" font-size="10.00">src/analysis/physics</text>
<text text-anchor="middle" x="827" y="-93" font-family="Helvetica,sans-Serif" font-size="10.00">/omega/pi0eta.cc</text>
</a>
</g>
<!-- Node22&#45;&gt;Node30 -->
<g id="edge16" class="edge"><title>Node22&#45;&gt;Node30</title>
<path fill="none" stroke="midnightblue" d="M692.207,-153.35C720.711,-142.491 755.233,-129.34 782.204,-119.065"/>
<polygon fill="midnightblue" stroke="midnightblue" points="690.889,-150.106 682.79,-156.937 693.381,-156.648 690.889,-150.106"/>
</g>
<!-- Node31 -->
<g id="node19" class="node"><title>Node31</title>
<a xlink:href="_cut_tree_8h.html" target="_top" xlink:title="src/analysis/plot/CutTree.h">
<polygon fill="white" stroke="black" points="961,-91.5 961,-112.5 1095,-112.5 1095,-91.5 961,-91.5"/>
<text text-anchor="middle" x="1028" y="-99.5" font-family="Helvetica,sans-Serif" font-size="10.00">src/analysis/plot/CutTree.h</text>
</a>
</g>
<!-- Node22&#45;&gt;Node31 -->
<g id="edge18" class="edge"><title>Node22&#45;&gt;Node31</title>
<path fill="none" stroke="midnightblue" d="M709.671,-160.768C784.909,-146.878 901.694,-125.318 970.933,-112.535"/>
<polygon fill="midnightblue" stroke="midnightblue" points="708.995,-157.334 699.797,-162.591 710.266,-164.218 708.995,-157.334"/>
</g>
<!-- Node39 -->
<g id="node36" class="node"><title>Node39</title>
<a xlink:href="hstack_8cc.html" target="_top" xlink:title="src/root&#45;addons/analysis\l_codes/hstack.cc">
<polygon fill="white" stroke="black" points="1112.5,-85 1112.5,-119 1235.5,-119 1235.5,-85 1112.5,-85"/>
<text text-anchor="start" x="1120.5" y="-106" font-family="Helvetica,sans-Serif" font-size="10.00">src/root&#45;addons/analysis</text>
<text text-anchor="middle" x="1174" y="-93" font-family="Helvetica,sans-Serif" font-size="10.00">_codes/hstack.cc</text>
</a>
</g>
<!-- Node22&#45;&gt;Node39 -->
<g id="edge36" class="edge"><title>Node22&#45;&gt;Node39</title>
<path fill="none" stroke="midnightblue" d="M709.866,-168.731C801.788,-161.294 965.649,-145.68 1104,-120 1106.71,-119.496 1109.48,-118.946 1112.27,-118.361"/>
<polygon fill="midnightblue" stroke="midnightblue" points="709.526,-165.247 699.837,-169.533 710.084,-172.225 709.526,-165.247"/>
</g>
<!-- Node27 -->
<g id="node11" class="node"><title>Node27</title>
<a xlink:href="_m_c_clustering_check_8cc.html" target="_top" xlink:title="src/analysis/physics\l/check/MCClusteringCheck.cc">
<polygon fill="white" stroke="black" points="359.5,-7 359.5,-41 510.5,-41 510.5,-7 359.5,-7"/>
<text text-anchor="start" x="367.5" y="-28" font-family="Helvetica,sans-Serif" font-size="10.00">src/analysis/physics</text>
<text text-anchor="middle" x="435" y="-15" font-family="Helvetica,sans-Serif" font-size="10.00">/check/MCClusteringCheck.cc</text>
</a>
</g>
<!-- Node26&#45;&gt;Node27 -->
<g id="edge10" class="edge"><title>Node26&#45;&gt;Node27</title>
<path fill="none" stroke="midnightblue" d="M456.044,-75.2945C451.424,-64.0342 446.18,-51.2507 442.082,-41.2623"/>
<polygon fill="midnightblue" stroke="midnightblue" points="452.864,-76.766 459.898,-84.6893 459.341,-74.1091 452.864,-76.766"/>
</g>
<!-- Node31&#45;&gt;Node29 -->
<g id="edge28" class="edge"><title>Node31&#45;&gt;Node29</title>
<path fill="none" stroke="midnightblue" d="M950.879,-91.4068C851.605,-77.6537 688.544,-54.6247 661,-48 653.03,-46.0831 644.683,-43.6562 636.627,-41.0864"/>
<polygon fill="midnightblue" stroke="midnightblue" points="950.488,-94.886 960.874,-92.79 951.448,-87.9521 950.488,-94.886"/>
</g>
<!-- Node32 -->
<g id="node21" class="node"><title>Node32</title>
<a xlink:href="_p_i_d_efficiency_check_8cc.html" target="_top" xlink:title="src/analysis/physics\l/check/PIDEfficiencyCheck.cc">
<polygon fill="white" stroke="black" points="670,-7 670,-41 822,-41 822,-7 670,-7"/>
<text text-anchor="start" x="678" y="-28" font-family="Helvetica,sans-Serif" font-size="10.00">src/analysis/physics</text>
<text text-anchor="middle" x="746" y="-15" font-family="Helvetica,sans-Serif" font-size="10.00">/check/PIDEfficiencyCheck.cc</text>
</a>
</g>
<!-- Node31&#45;&gt;Node32 -->
<g id="edge20" class="edge"><title>Node31&#45;&gt;Node32</title>
<path fill="none" stroke="midnightblue" d="M979.365,-88.7797C939.476,-77.9103 881.551,-62.0648 831,-48 823.023,-45.7805 814.629,-43.4295 806.349,-41.1012"/>
<polygon fill="midnightblue" stroke="midnightblue" points="978.533,-92.1807 989.102,-91.4318 980.373,-85.4267 978.533,-92.1807"/>
</g>
<!-- Node33 -->
<g id="node23" class="node"><title>Node33</title>
<a xlink:href="_meson_dalitz_decays__plot_8cc.html" target="_top" xlink:title="src/analysis/physics\l/common/MesonDalitzDecays\l_plot.cc">
<polygon fill="white" stroke="black" points="839.5,-0.5 839.5,-47.5 988.5,-47.5 988.5,-0.5 839.5,-0.5"/>
<text text-anchor="start" x="847.5" y="-34.5" font-family="Helvetica,sans-Serif" font-size="10.00">src/analysis/physics</text>
<text text-anchor="start" x="847.5" y="-21.5" font-family="Helvetica,sans-Serif" font-size="10.00">/common/MesonDalitzDecays</text>
<text text-anchor="middle" x="914" y="-8.5" font-family="Helvetica,sans-Serif" font-size="10.00">_plot.cc</text>
</a>
</g>
<!-- Node31&#45;&gt;Node33 -->
<g id="edge22" class="edge"><title>Node31&#45;&gt;Node33</title>
<path fill="none" stroke="midnightblue" d="M1004.32,-85.7959C988.252,-74.8041 966.746,-60.0897 948.75,-47.7766"/>
<polygon fill="midnightblue" stroke="midnightblue" points="1002.4,-88.7223 1012.63,-91.4806 1006.35,-82.9451 1002.4,-88.7223"/>
</g>
<!-- Node34 -->
<g id="node25" class="node"><title>Node34</title>
<a xlink:href="_etap_dalitz__plot_8cc.html" target="_top" xlink:title="src/analysis/physics\l/etaprime/EtapDalitz\l_plot.cc">
<polygon fill="white" stroke="black" points="1006,-0.5 1006,-47.5 1112,-47.5 1112,-0.5 1006,-0.5"/>
<text text-anchor="start" x="1014" y="-34.5" font-family="Helvetica,sans-Serif" font-size="10.00">src/analysis/physics</text>
<text text-anchor="start" x="1014" y="-21.5" font-family="Helvetica,sans-Serif" font-size="10.00">/etaprime/EtapDalitz</text>
<text text-anchor="middle" x="1059" y="-8.5" font-family="Helvetica,sans-Serif" font-size="10.00">_plot.cc</text>
</a>
</g>
<!-- Node31&#45;&gt;Node34 -->
<g id="edge24" class="edge"><title>Node31&#45;&gt;Node34</title>
<path fill="none" stroke="midnightblue" d="M1035.95,-82.0025C1040.1,-71.5639 1045.2,-58.7215 1049.55,-47.7766"/>
<polygon fill="midnightblue" stroke="midnightblue" points="1032.62,-80.8949 1032.18,-91.4806 1039.13,-83.4803 1032.62,-80.8949"/>
</g>
<!-- Node35 -->
<g id="node27" class="node"><title>Node35</title>
<a xlink:href="_etap_omega_g__plot_8cc.html" target="_top" xlink:title="src/analysis/physics\l/etaprime/EtapOmegaG\l_plot.cc">
<polygon fill="white" stroke="black" points="1129.5,-0.5 1129.5,-47.5 1248.5,-47.5 1248.5,-0.5 1129.5,-0.5"/>
<text text-anchor="start" x="1137.5" y="-34.5" font-family="Helvetica,sans-Serif" font-size="10.00">src/analysis/physics</text>
<text text-anchor="start" x="1137.5" y="-21.5" font-family="Helvetica,sans-Serif" font-size="10.00">/etaprime/EtapOmegaG</text>
<text text-anchor="middle" x="1189" y="-8.5" font-family="Helvetica,sans-Serif" font-size="10.00">_plot.cc</text>
</a>
</g>
<!-- Node31&#45;&gt;Node35 -->
<g id="edge26" class="edge"><title>Node31&#45;&gt;Node35</title>
<path fill="none" stroke="midnightblue" d="M1058.99,-86.9838C1082.01,-75.8336 1113.85,-60.4079 1140.26,-47.6134"/>
<polygon fill="midnightblue" stroke="midnightblue" points="1057.19,-83.9707 1049.71,-91.4806 1060.24,-90.2703 1057.19,-83.9707"/>
</g>
<!-- Node36 -->
<g id="node30" class="node"><title>Node36</title>
<a xlink:href="single_pi0_plots_8cc.html" target="_top" xlink:title="src/analysis/physics\l/production/singlePi0Plots.cc">
<polygon fill="white" stroke="black" points="1265.5,-7 1265.5,-41 1408.5,-41 1408.5,-7 1265.5,-7"/>
<text text-anchor="start" x="1273.5" y="-28" font-family="Helvetica,sans-Serif" font-size="10.00">src/analysis/physics</text>
<text text-anchor="middle" x="1337" y="-15" font-family="Helvetica,sans-Serif" font-size="10.00">/production/singlePi0Plots.cc</text>
</a>
</g>
<!-- Node31&#45;&gt;Node36 -->
<g id="edge30" class="edge"><title>Node31&#45;&gt;Node36</title>
<path fill="none" stroke="midnightblue" d="M1082.41,-89.1037C1089.67,-87.386 1097.01,-85.6492 1104,-84 1171.99,-67.9502 1189.51,-66.0448 1257,-48 1264.98,-45.865 1273.38,-43.4909 1281.61,-41.0901"/>
<polygon fill="midnightblue" stroke="midnightblue" points="1081.53,-85.7147 1072.61,-91.4241 1083.14,-92.5265 1081.53,-85.7147"/>
</g>
<!-- Node37 -->
<g id="node32" class="node"><title>Node37</title>
<a xlink:href="triple_pi0_8cc.html" target="_top" xlink:title="src/analysis/physics\l/production/triplePi0.cc">
<polygon fill="white" stroke="black" points="1426,-7 1426,-41 1542,-41 1542,-7 1426,-7"/>
<text text-anchor="start" x="1434" y="-28" font-family="Helvetica,sans-Serif" font-size="10.00">src/analysis/physics</text>
<text text-anchor="middle" x="1484" y="-15" font-family="Helvetica,sans-Serif" font-size="10.00">/production/triplePi0.cc</text>
</a>
</g>
<!-- Node31&#45;&gt;Node37 -->
<g id="edge32" class="edge"><title>Node31&#45;&gt;Node37</title>
<path fill="none" stroke="midnightblue" d="M1078.3,-89.2057C1086.84,-87.2868 1095.65,-85.464 1104,-84 1241.93,-59.822 1280.64,-79.8198 1417,-48 1424.82,-46.175 1432.99,-43.7295 1440.83,-41.0963"/>
<polygon fill="midnightblue" stroke="midnightblue" points="1077.4,-85.8229 1068.44,-91.4867 1078.97,-92.6427 1077.4,-85.8229"/>
</g>
<!-- Node38 -->
<g id="node34" class="node"><title>Node38</title>
<a xlink:href="physics_2tunings_2_trigger_simulation_8cc.html" target="_top" xlink:title="src/analysis/physics\l/tunings/TriggerSimulation.cc">
<polygon fill="white" stroke="black" points="1559.5,-7 1559.5,-41 1702.5,-41 1702.5,-7 1559.5,-7"/>
<text text-anchor="start" x="1567.5" y="-28" font-family="Helvetica,sans-Serif" font-size="10.00">src/analysis/physics</text>
<text text-anchor="middle" x="1631" y="-15" font-family="Helvetica,sans-Serif" font-size="10.00">/tunings/TriggerSimulation.cc</text>
</a>
</g>
<!-- Node31&#45;&gt;Node38 -->
<g id="edge34" class="edge"><title>Node31&#45;&gt;Node38</title>
<path fill="none" stroke="midnightblue" d="M1077.39,-89.1549C1086.2,-87.1908 1095.34,-85.3663 1104,-84 1300.88,-52.943 1355.12,-84.8407 1551,-48 1560.41,-46.231 1570.28,-43.779 1579.75,-41.1136"/>
<polygon fill="midnightblue" stroke="midnightblue" points="1076.57,-85.7524 1067.61,-91.4147 1078.14,-92.5726 1076.57,-85.7524"/>
</g>
</g>
</svg>
