<?xml version="1.0" encoding="UTF-8" standalone="no"?>
<!DOCTYPE svg PUBLIC "-//W3C//DTD SVG 1.1//EN"
 "http://www.w3.org/Graphics/SVG/1.1/DTD/svg11.dtd">
<!-- Generated by graphviz version 2.26.3 (20100126.1600)
 -->
<!-- Title: Graphical Class Hierarchy Pages: 1 -->
<svg width="640pt" height="446pt"
 viewBox="0.00 0.00 640.00 446.00" xmlns="http://www.w3.org/2000/svg" xmlns:xlink="http://www.w3.org/1999/xlink">
<g id="graph1" class="graph" transform="scale(1 1) rotate(0) translate(4 442)">
<title>Graphical Class Hierarchy</title>
<polygon fill="white" stroke="white" points="-4,5 -4,-442 637,-442 637,5 -4,5"/>
<!-- Node0 -->
<g id="node1" class="node"><title>Node0</title>
<a xlink:href="classant_1_1analysis_1_1_plotter.html" target="_top" xlink:title="ant::analysis::Plotter">
<polygon fill="white" stroke="black" points="0.5,-166.5 0.5,-187.5 107.5,-187.5 107.5,-166.5 0.5,-166.5"/>
<text text-anchor="middle" x="54" y="-174.5" font-family="Helvetica,sans-Serif" font-size="10.00">ant::analysis::Plotter</text>
</a>
</g>
<!-- Node1 -->
<g id="node3" class="node"><title>Node1</title>
<a xlink:href="classant_1_1analysis_1_1physics_1_1_tree_plotter_base__t.html" target="_top" xlink:title="ant::analysis::physics\l::TreePlotterBase_t\&lt; WrapTree \&gt;">
<polygon fill="white" stroke="black" points="144,-306 144,-340 306,-340 306,-306 144,-306"/>
<text text-anchor="start" x="152" y="-327" font-family="Helvetica,sans-Serif" font-size="10.00">ant::analysis::physics</text>
<text text-anchor="middle" x="225" y="-314" font-family="Helvetica,sans-Serif" font-size="10.00">::TreePlotterBase_t&lt; WrapTree &gt;</text>
</a>
</g>
<!-- Node0&#45;&gt;Node1 -->
<g id="edge2" class="edge"><title>Node0&#45;&gt;Node1</title>
<path fill="none" stroke="midnightblue" d="M63.827,-196.835C77.981,-223.419 106.572,-270.339 144,-297 148.691,-300.342 153.833,-303.269 159.18,-305.83"/>
<polygon fill="midnightblue" stroke="midnightblue" points="66.8208,-195.004 59.1209,-187.726 60.6018,-198.217 66.8208,-195.004"/>
</g>
<!-- Node6 -->
<g id="node13" class="node"><title>Node6</title>
<a xlink:href="struct_etap_dalitz__plot.html" target="_top" xlink:title="EtapDalitz_plot\&lt; Hist_t \&gt;">
<polygon fill="white" stroke="black" points="161,-266.5 161,-287.5 289,-287.5 289,-266.5 161,-266.5"/>
<text text-anchor="middle" x="225" y="-274.5" font-family="Helvetica,sans-Serif" font-size="10.00">EtapDalitz_plot&lt; Hist_t &gt;</text>
</a>
</g>
<!-- Node0&#45;&gt;Node6 -->
<g id="edge12" class="edge"><title>Node0&#45;&gt;Node6</title>
<path fill="none" stroke="midnightblue" d="M69.5857,-195.298C86.1929,-213.624 114.159,-241.299 144,-257 151.178,-260.777 159.092,-263.859 167.076,-266.368"/>
<polygon fill="midnightblue" stroke="midnightblue" points="72.0352,-192.784 62.7887,-187.612 66.7915,-197.422 72.0352,-192.784"/>
</g>
<!-- Node7 -->
<g id="node15" class="node"><title>Node7</title>
<a xlink:href="struct_etap_omega_g__plot.html" target="_top" xlink:title="EtapOmegaG_plot">
<polygon fill="white" stroke="black" points="176.5,-226.5 176.5,-247.5 273.5,-247.5 273.5,-226.5 176.5,-226.5"/>
<text text-anchor="middle" x="225" y="-234.5" font-family="Helvetica,sans-Serif" font-size="10.00">EtapOmegaG_plot</text>
</a>
</g>
<!-- Node0&#45;&gt;Node7 -->
<g id="edge14" class="edge"><title>Node0&#45;&gt;Node7</title>
<path fill="none" stroke="midnightblue" d="M84.0573,-191.956C101.301,-200.129 123.528,-209.984 144,-217 154.277,-220.522 165.484,-223.697 176.195,-226.426"/>
<polygon fill="midnightblue" stroke="midnightblue" points="85.5623,-188.797 75.0332,-187.618 82.5292,-195.105 85.5623,-188.797"/>
</g>
<!-- Node10 -->
<g id="node21" class="node"><title>Node10</title>
<a xlink:href="struct_meson_dalitz_decays__plot.html" target="_top" xlink:title="MesonDalitzDecays_plot">
<polygon fill="white" stroke="black" points="162,-186.5 162,-207.5 288,-207.5 288,-186.5 162,-186.5"/>
<text text-anchor="middle" x="225" y="-194.5" font-family="Helvetica,sans-Serif" font-size="10.00">MesonDalitzDecays_plot</text>
</a>
</g>
<!-- Node0&#45;&gt;Node10 -->
<g id="edge20" class="edge"><title>Node0&#45;&gt;Node10</title>
<path fill="none" stroke="midnightblue" d="M117.942,-184.479C132.343,-186.163 147.616,-187.949 161.979,-189.629"/>
<polygon fill="midnightblue" stroke="midnightblue" points="117.975,-180.959 107.636,-183.273 117.162,-187.911 117.975,-180.959"/>
</g>
<!-- Node11 -->
<g id="node23" class="node"><title>Node11</title>
<a xlink:href="class_omega_eta_g___plot.html" target="_top" xlink:title="Plot Class for the Omega_EtaG analysis. ">
<polygon fill="white" stroke="black" points="178.5,-146.5 178.5,-167.5 271.5,-167.5 271.5,-146.5 178.5,-146.5"/>
<text text-anchor="middle" x="225" y="-154.5" font-family="Helvetica,sans-Serif" font-size="10.00">OmegaEtaG_Plot</text>
</a>
</g>
<!-- Node0&#45;&gt;Node11 -->
<g id="edge22" class="edge"><title>Node0&#45;&gt;Node11</title>
<path fill="none" stroke="midnightblue" d="M117.685,-169.551C137.851,-167.193 159.752,-164.631 178.478,-162.441"/>
<polygon fill="midnightblue" stroke="midnightblue" points="117.162,-166.089 107.636,-170.727 117.975,-173.041 117.162,-166.089"/>
</g>
<!-- Node12 -->
<g id="node25" class="node"><title>Node12</title>
<a xlink:href="struct_p_i_d_efficiency_check__plot.html" target="_top" xlink:title="PIDEfficiencyCheck_plot">
<polygon fill="white" stroke="black" points="161.5,-106.5 161.5,-127.5 288.5,-127.5 288.5,-106.5 161.5,-106.5"/>
<text text-anchor="middle" x="225" y="-114.5" font-family="Helvetica,sans-Serif" font-size="10.00">PIDEfficiencyCheck_plot</text>
</a>
</g>
<!-- Node0&#45;&gt;Node12 -->
<g id="edge24" class="edge"><title>Node0&#45;&gt;Node12</title>
<path fill="none" stroke="midnightblue" d="M84.0573,-162.044C101.301,-153.871 123.528,-144.016 144,-137 154.277,-133.478 165.484,-130.303 176.195,-127.574"/>
<polygon fill="midnightblue" stroke="midnightblue" points="82.5292,-158.895 75.0332,-166.382 85.5623,-165.203 82.5292,-158.895"/>
</g>
<!-- Node13 -->
<g id="node27" class="node"><title>Node13</title>
<a xlink:href="classant_1_1analysis_1_1physics_1_1_tree_plotter_base__t.html" target="_top" xlink:title="ant::analysis::physics\l::TreePlotterBase_t\&lt; singlePi0\l::PionProdTree \&gt;">
<polygon fill="white" stroke="black" points="150,-40.5 150,-87.5 300,-87.5 300,-40.5 150,-40.5"/>
<text text-anchor="start" x="158" y="-74.5" font-family="Helvetica,sans-Serif" font-size="10.00">ant::analysis::physics</text>
<text text-anchor="start" x="158" y="-61.5" font-family="Helvetica,sans-Serif" font-size="10.00">::TreePlotterBase_t&lt; singlePi0</text>
<text text-anchor="middle" x="225" y="-48.5" font-family="Helvetica,sans-Serif" font-size="10.00">::PionProdTree &gt;</text>
</a>
</g>
<!-- Node0&#45;&gt;Node13 -->
<g id="edge26" class="edge"><title>Node0&#45;&gt;Node13</title>
<path fill="none" stroke="midnightblue" d="M70.6366,-159C87.6993,-141.36 115.68,-114.627 144,-97 149.414,-93.6298 155.232,-90.4773 161.176,-87.5616"/>
<polygon fill="midnightblue" stroke="midnightblue" points="67.956,-156.739 63.6033,-166.399 73.0297,-161.562 67.956,-156.739"/>
</g>
<!-- Node17 -->
<g id="node35" class="node"><title>Node17</title>
<a xlink:href="struct_trigger_simulation__plot.html" target="_top" xlink:title="TriggerSimulation_plot">
<polygon fill="white" stroke="black" points="168.5,-0.5 168.5,-21.5 281.5,-21.5 281.5,-0.5 168.5,-0.5"/>
<text text-anchor="middle" x="225" y="-8.5" font-family="Helvetica,sans-Serif" font-size="10.00">TriggerSimulation_plot</text>
</a>
</g>
<!-- Node0&#45;&gt;Node17 -->
<g id="edge34" class="edge"><title>Node0&#45;&gt;Node17</title>
<path fill="none" stroke="midnightblue" d="M60.8147,-156.605C72.5549,-124.706 99.6936,-63.3197 144,-31 151.255,-25.7075 159.747,-21.8055 168.452,-18.9308"/>
<polygon fill="midnightblue" stroke="midnightblue" points="57.453,-155.614 57.421,-166.208 64.053,-157.946 57.453,-155.614"/>
</g>
<!-- Node2 -->
<g id="node5" class="node"><title>Node2</title>
<a xlink:href="classant_1_1analysis_1_1physics_1_1_detection_effciency_base__t.html" target="_top" xlink:title="ant::analysis::physics\l::DetectionEffciencyBase\l_t\&lt; WrapTree \&gt;">
<polygon fill="white" stroke="black" points="352,-390.5 352,-437.5 480,-437.5 480,-390.5 352,-390.5"/>
<text text-anchor="start" x="360" y="-424.5" font-family="Helvetica,sans-Serif" font-size="10.00">ant::analysis::physics</text>
<text text-anchor="start" x="360" y="-411.5" font-family="Helvetica,sans-Serif" font-size="10.00">::DetectionEffciencyBase</text>
<text text-anchor="middle" x="416" y="-398.5" font-family="Helvetica,sans-Serif" font-size="10.00">_t&lt; WrapTree &gt;</text>
</a>
</g>
<!-- Node1&#45;&gt;Node2 -->
<g id="edge4" class="edge"><title>Node1&#45;&gt;Node2</title>
<path fill="none" stroke="midnightblue" d="M267.723,-344.7C289.797,-355.779 317.23,-369.343 342,-381 348.618,-384.115 355.601,-387.326 362.528,-390.465"/>
<polygon fill="midnightblue" stroke="midnightblue" points="269.121,-341.486 258.615,-340.117 265.975,-347.739 269.121,-341.486"/>
</g>
<!-- Node3 -->
<g id="node7" class="node"><title>Node3</title>
<a xlink:href="classsingle_pi0___plot.html" target="_top" xlink:title="singlePi0_Plot">
<polygon fill="white" stroke="black" points="376.5,-350.5 376.5,-371.5 455.5,-371.5 455.5,-350.5 376.5,-350.5"/>
<text text-anchor="middle" x="416" y="-358.5" font-family="Helvetica,sans-Serif" font-size="10.00">singlePi0_Plot</text>
</a>
</g>
<!-- Node1&#45;&gt;Node3 -->
<g id="edge6" class="edge"><title>Node1&#45;&gt;Node3</title>
<path fill="none" stroke="midnightblue" d="M316.023,-341.109C337.199,-345.322 358.669,-349.594 376.256,-353.093"/>
<polygon fill="midnightblue" stroke="midnightblue" points="316.492,-337.634 306.001,-339.115 315.126,-344.5 316.492,-337.634"/>
</g>
<!-- Node4 -->
<g id="node9" class="node"><title>Node4</title>
<a xlink:href="classtriple_pi0___plot.html" target="_top" xlink:title="triplePi0_Plot">
<polygon fill="white" stroke="black" points="379,-310.5 379,-331.5 453,-331.5 453,-310.5 379,-310.5"/>
<text text-anchor="middle" x="416" y="-318.5" font-family="Helvetica,sans-Serif" font-size="10.00">triplePi0_Plot</text>
</a>
</g>
<!-- Node1&#45;&gt;Node4 -->
<g id="edge8" class="edge"><title>Node1&#45;&gt;Node4</title>
<path fill="none" stroke="midnightblue" d="M316.104,-322.046C338.177,-321.815 360.564,-321.58 378.535,-321.392"/>
<polygon fill="midnightblue" stroke="midnightblue" points="315.964,-318.547 306.001,-322.152 316.037,-325.547 315.964,-318.547"/>
</g>
<!-- Node5 -->
<g id="node11" class="node"><title>Node5</title>
<a xlink:href="classtriple_pi0___test.html" target="_top" xlink:title="triplePi0_Test">
<polygon fill="white" stroke="black" points="377.5,-270.5 377.5,-291.5 454.5,-291.5 454.5,-270.5 377.5,-270.5"/>
<text text-anchor="middle" x="416" y="-278.5" font-family="Helvetica,sans-Serif" font-size="10.00">triplePi0_Test</text>
</a>
</g>
<!-- Node1&#45;&gt;Node5 -->
<g id="edge10" class="edge"><title>Node1&#45;&gt;Node5</title>
<path fill="none" stroke="midnightblue" d="M312.443,-303.772C335.168,-298.775 358.505,-293.643 377.259,-289.519"/>
<polygon fill="midnightblue" stroke="midnightblue" points="311.427,-300.411 302.412,-305.978 312.93,-307.248 311.427,-300.411"/>
</g>
<!-- Node8 -->
<g id="node17" class="node"><title>Node8</title>
<a xlink:href="struct_etap_omega_g__plot___ref.html" target="_top" xlink:title="EtapOmegaG_plot_Ref">
<polygon fill="white" stroke="black" points="357,-227.5 357,-248.5 475,-248.5 475,-227.5 357,-227.5"/>
<text text-anchor="middle" x="416" y="-235.5" font-family="Helvetica,sans-Serif" font-size="10.00">EtapOmegaG_plot_Ref</text>
</a>
</g>
<!-- Node7&#45;&gt;Node8 -->
<g id="edge16" class="edge"><title>Node7&#45;&gt;Node8</title>
<path fill="none" stroke="midnightblue" d="M283.748,-237.308C306.955,-237.429 333.58,-237.568 356.829,-237.69"/>
<polygon fill="midnightblue" stroke="midnightblue" points="283.71,-233.807 273.692,-237.255 283.673,-240.807 283.71,-233.807"/>
</g>
<!-- Node9 -->
<g id="node19" class="node"><title>Node9</title>
<a xlink:href="struct_etap_omega_g__plot___sig.html" target="_top" xlink:title="EtapOmegaG_plot_Sig">
<polygon fill="white" stroke="black" points="358,-187.5 358,-208.5 474,-208.5 474,-187.5 358,-187.5"/>
<text text-anchor="middle" x="416" y="-195.5" font-family="Helvetica,sans-Serif" font-size="10.00">EtapOmegaG_plot_Sig</text>
</a>
</g>
<!-- Node7&#45;&gt;Node9 -->
<g id="edge18" class="edge"><title>Node7&#45;&gt;Node9</title>
<path fill="none" stroke="midnightblue" d="M283.711,-225.012C309.486,-219.749 339.482,-213.624 364.388,-208.539"/>
<polygon fill="midnightblue" stroke="midnightblue" points="282.789,-221.628 273.692,-227.058 284.19,-228.486 282.789,-221.628"/>
</g>
<!-- Node14 -->
<g id="node29" class="node"><title>Node14</title>
<a xlink:href="classant_1_1analysis_1_1physics_1_1_detection_effciency_base__t.html" target="_top" xlink:title="ant::analysis::physics\l::DetectionEffciencyBase\l_t\&lt; singlePi0::PionProdTree \&gt;">
<polygon fill="white" stroke="black" points="342,-66.5 342,-113.5 490,-113.5 490,-66.5 342,-66.5"/>
<text text-anchor="start" x="350" y="-100.5" font-family="Helvetica,sans-Serif" font-size="10.00">ant::analysis::physics</text>
<text text-anchor="start" x="350" y="-87.5" font-family="Helvetica,sans-Serif" font-size="10.00">::DetectionEffciencyBase</text>
<text text-anchor="middle" x="416" y="-74.5" font-family="Helvetica,sans-Serif" font-size="10.00">_t&lt; singlePi0::PionProdTree &gt;</text>
</a>
</g>
<!-- Node13&#45;&gt;Node14 -->
<g id="edge28" class="edge"><title>Node13&#45;&gt;Node14</title>
<path fill="none" stroke="midnightblue" d="M310.236,-75.6027C320.76,-77.0353 331.452,-78.4908 341.793,-79.8985"/>
<polygon fill="midnightblue" stroke="midnightblue" points="310.595,-72.1195 300.214,-74.2386 309.651,-79.0555 310.595,-72.1195"/>
</g>
<!-- Node16 -->
<g id="node33" class="node"><title>Node16</title>
<a xlink:href="classsingle_pi0___test.html" target="_top" xlink:title="singlePi0_Test">
<polygon fill="white" stroke="black" points="375.5,-26.5 375.5,-47.5 456.5,-47.5 456.5,-26.5 375.5,-26.5"/>
<text text-anchor="middle" x="416" y="-34.5" font-family="Helvetica,sans-Serif" font-size="10.00">singlePi0_Test</text>
</a>
</g>
<!-- Node13&#45;&gt;Node16 -->
<g id="edge32" class="edge"><title>Node13&#45;&gt;Node16</title>
<path fill="none" stroke="midnightblue" d="M310.19,-51.9575C332.813,-48.7594 356.217,-45.451 375.244,-42.7613"/>
<polygon fill="midnightblue" stroke="midnightblue" points="309.626,-48.5023 300.214,-53.3676 310.606,-55.4334 309.626,-48.5023"/>
</g>
<!-- Node15 -->
<g id="node31" class="node"><title>Node15</title>
<a xlink:href="classsingle_pi0___efficiency.html" target="_top" xlink:title="singlePi0_Efficiency">
<polygon fill="white" stroke="black" points="526.5,-79.5 526.5,-100.5 631.5,-100.5 631.5,-79.5 526.5,-79.5"/>
<text text-anchor="middle" x="579" y="-87.5" font-family="Helvetica,sans-Serif" font-size="10.00">singlePi0_Efficiency</text>
</a>
</g>
<!-- Node14&#45;&gt;Node15 -->
<g id="edge30" class="edge"><title>Node14&#45;&gt;Node15</title>
<path fill="none" stroke="midnightblue" d="M500.573,-90C509.288,-90 517.956,-90 526.177,-90"/>
<polygon fill="midnightblue" stroke="midnightblue" points="500.345,-86.5001 490.345,-90 500.345,-93.5001 500.345,-86.5001"/>
</g>
</g>
</svg>
