<?xml version="1.0" encoding="UTF-8" standalone="no"?>
<!DOCTYPE svg PUBLIC "-//W3C//DTD SVG 1.1//EN"
 "http://www.w3.org/Graphics/SVG/1.1/DTD/svg11.dtd">
<!-- Generated by graphviz version 2.26.3 (20100126.1600)
 -->
<!-- Title: Graphical Class Hierarchy Pages: 1 -->
<svg width="380pt" height="70pt"
 viewBox="0.00 0.00 380.00 70.00" xmlns="http://www.w3.org/2000/svg" xmlns:xlink="http://www.w3.org/1999/xlink">
<g id="graph1" class="graph" transform="scale(1 1) rotate(0) translate(4 66)">
<title>Graphical Class Hierarchy</title>
<polygon fill="white" stroke="white" points="-4,5 -4,-66 377,-66 377,5 -4,5"/>
<!-- Node0 -->
<g id="node1" class="node"><title>Node0</title>
<a xlink:href="classant_1_1interval.html" target="_top" xlink:title="ant::interval\&lt; double \&gt;">
<polygon fill="white" stroke="black" points="0,-20.5 0,-41.5 114,-41.5 114,-20.5 0,-20.5"/>
<text text-anchor="middle" x="57" y="-28.5" font-family="Helvetica,sans-Serif" font-size="10.00">ant::interval&lt; double &gt;</text>
</a>
</g>
<!-- Node1 -->
<g id="node3" class="node"><title>Node1</title>
<a xlink:href="classant_1_1_bin_settings.html" target="_top" xlink:title="ant::BinSettings">
<polygon fill="white" stroke="black" points="150,-20.5 150,-41.5 236,-41.5 236,-20.5 150,-20.5"/>
<text text-anchor="middle" x="193" y="-28.5" font-family="Helvetica,sans-Serif" font-size="10.00">ant::BinSettings</text>
</a>
</g>
<!-- Node0&#45;&gt;Node1 -->
<g id="edge2" class="edge"><title>Node0&#45;&gt;Node1</title>
<path fill="none" stroke="midnightblue" d="M124.4,-31C133.053,-31 141.719,-31 149.837,-31"/>
<polygon fill="midnightblue" stroke="midnightblue" points="124.282,-27.5001 114.282,-31 124.282,-34.5001 124.282,-27.5001"/>
</g>
<!-- Node2 -->
<g id="node5" class="node"><title>Node2</title>
<a xlink:href="classant_1_1_axis_settings.html" target="_top" xlink:title="ant::AxisSettings">
<polygon fill="white" stroke="black" points="276,-40.5 276,-61.5 368,-61.5 368,-40.5 276,-40.5"/>
<text text-anchor="middle" x="322" y="-48.5" font-family="Helvetica,sans-Serif" font-size="10.00">ant::AxisSettings</text>
</a>
</g>
<!-- Node1&#45;&gt;Node2 -->
<g id="edge4" class="edge"><title>Node1&#45;&gt;Node2</title>
<path fill="none" stroke="midnightblue" d="M246.372,-39.2747C256.185,-40.7961 266.352,-42.3724 275.927,-43.857"/>
<polygon fill="midnightblue" stroke="midnightblue" points="246.732,-35.7888 236.314,-37.7153 245.66,-42.7062 246.732,-35.7888"/>
</g>
<!-- Node3 -->
<g id="node7" class="node"><title>Node3</title>
<a xlink:href="struct_t_c_l_a_p_bin_settings.html" target="_top" xlink:title="TCLAPBinSettings">
<polygon fill="white" stroke="black" points="272.5,-0.5 272.5,-21.5 371.5,-21.5 371.5,-0.5 272.5,-0.5"/>
<text text-anchor="middle" x="322" y="-8.5" font-family="Helvetica,sans-Serif" font-size="10.00">TCLAPBinSettings</text>
</a>
</g>
<!-- Node1&#45;&gt;Node3 -->
<g id="edge6" class="edge"><title>Node1&#45;&gt;Node3</title>
<path fill="none" stroke="midnightblue" d="M246.276,-22.7402C254.903,-21.4027 263.806,-20.0223 272.343,-18.6988"/>
<polygon fill="midnightblue" stroke="midnightblue" points="245.66,-19.2938 236.314,-24.2847 246.732,-26.2112 245.66,-19.2938"/>
</g>
</g>
</svg>
