<?xml version="1.0" encoding="UTF-8" standalone="no"?>
<!DOCTYPE svg PUBLIC "-//W3C//DTD SVG 1.1//EN"
 "http://www.w3.org/Graphics/SVG/1.1/DTD/svg11.dtd">
<!-- Generated by graphviz version 2.26.3 (20100126.1600)
 -->
<!-- Title: Graphical Class Hierarchy Pages: 1 -->
<svg width="618pt" height="406pt"
 viewBox="0.00 0.00 618.00 406.00" xmlns="http://www.w3.org/2000/svg" xmlns:xlink="http://www.w3.org/1999/xlink">
<g id="graph1" class="graph" transform="scale(1 1) rotate(0) translate(4 402)">
<title>Graphical Class Hierarchy</title>
<polygon fill="white" stroke="white" points="-4,5 -4,-402 615,-402 615,5 -4,5"/>
<!-- Node0 -->
<g id="node1" class="node"><title>Node0</title>
<a xlink:href="classant_1_1calibration_1_1gui_1_1_calib_module__traits.html" target="_top" xlink:title="ant::calibration::gui\l::CalibModule_traits">
<polygon fill="white" stroke="black" points="0,-156 0,-190 104,-190 104,-156 0,-156"/>
<text text-anchor="start" x="8" y="-177" font-family="Helvetica,sans-Serif" font-size="10.00">ant::calibration::gui</text>
<text text-anchor="middle" x="52" y="-164" font-family="Helvetica,sans-Serif" font-size="10.00">::CalibModule_traits</text>
</a>
</g>
<!-- Node1 -->
<g id="node3" class="node"><title>Node1</title>
<a xlink:href="classant_1_1calibration_1_1_c_b___source_calib_1_1_the_g_u_i.html" target="_top" xlink:title="ant::calibration::CB\l_SourceCalib::TheGUI">
<polygon fill="white" stroke="black" points="140,-286 140,-320 256,-320 256,-286 140,-286"/>
<text text-anchor="start" x="148" y="-307" font-family="Helvetica,sans-Serif" font-size="10.00">ant::calibration::CB</text>
<text text-anchor="middle" x="198" y="-294" font-family="Helvetica,sans-Serif" font-size="10.00">_SourceCalib::TheGUI</text>
</a>
</g>
<!-- Node0&#45;&gt;Node1 -->
<g id="edge2" class="edge"><title>Node0&#45;&gt;Node1</title>
<path fill="none" stroke="midnightblue" d="M68.7623,-198.725C84.7945,-221.703 110.8,-255.033 140,-277 144.321,-280.251 149.113,-283.209 154.037,-285.869"/>
<polygon fill="midnightblue" stroke="midnightblue" points="71.4512,-196.457 62.9208,-190.173 65.6708,-200.405 71.4512,-196.457"/>
</g>
<!-- Node2 -->
<g id="node5" class="node"><title>Node2</title>
<a xlink:href="classant_1_1calibration_1_1_c_b___time_walk_1_1_the_g_u_i.html" target="_top" xlink:title="ant::calibration::CB\l_TimeWalk::TheGUI">
<polygon fill="white" stroke="black" points="144.5,-234 144.5,-268 251.5,-268 251.5,-234 144.5,-234"/>
<text text-anchor="start" x="152.5" y="-255" font-family="Helvetica,sans-Serif" font-size="10.00">ant::calibration::CB</text>
<text text-anchor="middle" x="198" y="-242" font-family="Helvetica,sans-Serif" font-size="10.00">_TimeWalk::TheGUI</text>
</a>
</g>
<!-- Node0&#45;&gt;Node2 -->
<g id="edge4" class="edge"><title>Node0&#45;&gt;Node2</title>
<path fill="none" stroke="midnightblue" d="M88.157,-195.605C103.861,-205.098 122.609,-216 140,-225 145.88,-228.043 152.19,-231.088 158.405,-233.967"/>
<polygon fill="midnightblue" stroke="midnightblue" points="89.6559,-192.42 79.2954,-190.204 86.0127,-198.397 89.6559,-192.42"/>
</g>
<!-- Node3 -->
<g id="node7" class="node"><title>Node3</title>
<a xlink:href="structant_1_1calibration_1_1_g_u_i___calib_type.html" target="_top" xlink:title="The GUI_CalibType struct is an abstract base class for handling the data storage for a provided Calib...">
<polygon fill="white" stroke="black" points="146,-182 146,-216 250,-216 250,-182 146,-182"/>
<text text-anchor="start" x="154" y="-203" font-family="Helvetica,sans-Serif" font-size="10.00">ant::calibration::GUI</text>
<text text-anchor="middle" x="198" y="-190" font-family="Helvetica,sans-Serif" font-size="10.00">_CalibType</text>
</a>
</g>
<!-- Node0&#45;&gt;Node3 -->
<g id="edge6" class="edge"><title>Node0&#45;&gt;Node3</title>
<path fill="none" stroke="midnightblue" d="M114.197,-184.076C124.649,-185.938 135.404,-187.853 145.577,-189.664"/>
<polygon fill="midnightblue" stroke="midnightblue" points="114.756,-180.621 104.297,-182.313 113.528,-187.512 114.756,-180.621"/>
</g>
<!-- Node13 -->
<g id="node27" class="node"><title>Node13</title>
<a xlink:href="classant_1_1calibration_1_1_p_i_d___phi_angle_1_1_the_g_u_i.html" target="_top" xlink:title="ant::calibration::PID\l_PhiAngle::TheGUI">
<polygon fill="white" stroke="black" points="146,-130 146,-164 250,-164 250,-130 146,-130"/>
<text text-anchor="start" x="154" y="-151" font-family="Helvetica,sans-Serif" font-size="10.00">ant::calibration::PID</text>
<text text-anchor="middle" x="198" y="-138" font-family="Helvetica,sans-Serif" font-size="10.00">_PhiAngle::TheGUI</text>
</a>
</g>
<!-- Node0&#45;&gt;Node13 -->
<g id="edge26" class="edge"><title>Node0&#45;&gt;Node13</title>
<path fill="none" stroke="midnightblue" d="M114.197,-161.924C124.649,-160.062 135.404,-158.147 145.577,-156.336"/>
<polygon fill="midnightblue" stroke="midnightblue" points="113.528,-158.488 104.297,-163.687 114.756,-165.379 113.528,-158.488"/>
</g>
<!-- Node14 -->
<g id="node29" class="node"><title>Node14</title>
<a xlink:href="classant_1_1calibration_1_1_t_a_p_s___to_f_1_1_the_g_u_i.html" target="_top" xlink:title="ant::calibration::TAPS\l_ToF::TheGUI">
<polygon fill="white" stroke="black" points="141.5,-78 141.5,-112 254.5,-112 254.5,-78 141.5,-78"/>
<text text-anchor="start" x="149.5" y="-99" font-family="Helvetica,sans-Serif" font-size="10.00">ant::calibration::TAPS</text>
<text text-anchor="middle" x="198" y="-86" font-family="Helvetica,sans-Serif" font-size="10.00">_ToF::TheGUI</text>
</a>
</g>
<!-- Node0&#45;&gt;Node14 -->
<g id="edge28" class="edge"><title>Node0&#45;&gt;Node14</title>
<path fill="none" stroke="midnightblue" d="M88.157,-150.395C103.861,-140.902 122.609,-130 140,-121 145.88,-117.957 152.19,-114.912 158.405,-112.033"/>
<polygon fill="midnightblue" stroke="midnightblue" points="86.0127,-147.603 79.2954,-155.796 89.6559,-153.58 86.0127,-147.603"/>
</g>
<!-- Node15 -->
<g id="node31" class="node"><title>Node15</title>
<a xlink:href="classant_1_1calibration_1_1_time_1_1_the_g_u_i.html" target="_top" xlink:title="ant::calibration::Time\l::TheGUI">
<polygon fill="white" stroke="black" points="144,-26 144,-60 252,-60 252,-26 144,-26"/>
<text text-anchor="start" x="152" y="-47" font-family="Helvetica,sans-Serif" font-size="10.00">ant::calibration::Time</text>
<text text-anchor="middle" x="198" y="-34" font-family="Helvetica,sans-Serif" font-size="10.00">::TheGUI</text>
</a>
</g>
<!-- Node0&#45;&gt;Node15 -->
<g id="edge30" class="edge"><title>Node0&#45;&gt;Node15</title>
<path fill="none" stroke="midnightblue" d="M68.7623,-147.275C84.7945,-124.297 110.8,-90.9674 140,-69 144.321,-65.7494 149.113,-62.7905 154.037,-60.131"/>
<polygon fill="midnightblue" stroke="midnightblue" points="65.6708,-145.595 62.9208,-155.827 71.4512,-149.543 65.6708,-145.595"/>
</g>
<!-- Node4 -->
<g id="node9" class="node"><title>Node4</title>
<a xlink:href="structant_1_1calibration_1_1_c_b___energy_1_1_g_u_i___gains.html" target="_top" xlink:title="ant::calibration::CB\l_Energy::GUI_Gains">
<polygon fill="white" stroke="black" points="304.5,-364 304.5,-398 411.5,-398 411.5,-364 304.5,-364"/>
<text text-anchor="start" x="312.5" y="-385" font-family="Helvetica,sans-Serif" font-size="10.00">ant::calibration::CB</text>
<text text-anchor="middle" x="358" y="-372" font-family="Helvetica,sans-Serif" font-size="10.00">_Energy::GUI_Gains</text>
</a>
</g>
<!-- Node3&#45;&gt;Node4 -->
<g id="edge8" class="edge"><title>Node3&#45;&gt;Node4</title>
<path fill="none" stroke="midnightblue" d="M253.749,-222.565C254.529,-223.352 255.281,-224.163 256,-225 295.068,-270.475 251.893,-310.439 292,-355 295.543,-358.936 299.757,-362.283 304.318,-365.129"/>
<polygon fill="midnightblue" stroke="midnightblue" points="255.972,-219.862 246.051,-216.143 251.488,-225.237 255.972,-219.862"/>
</g>
<!-- Node5 -->
<g id="node11" class="node"><title>Node5</title>
<a xlink:href="structant_1_1calibration_1_1energy_1_1_g_u_i___banana.html" target="_top" xlink:title="ant::calibration::energy\l::GUI_Banana">
<polygon fill="white" stroke="black" points="300,-312 300,-346 416,-346 416,-312 300,-312"/>
<text text-anchor="start" x="308" y="-333" font-family="Helvetica,sans-Serif" font-size="10.00">ant::calibration::energy</text>
<text text-anchor="middle" x="358" y="-320" font-family="Helvetica,sans-Serif" font-size="10.00">::GUI_Banana</text>
</a>
</g>
<!-- Node3&#45;&gt;Node5 -->
<g id="edge10" class="edge"><title>Node3&#45;&gt;Node5</title>
<path fill="none" stroke="midnightblue" d="M253.04,-222.276C254.063,-223.154 255.051,-224.062 256,-225 283.146,-251.849 264.242,-276.784 292,-303 295.581,-306.382 299.655,-309.343 303.979,-311.93"/>
<polygon fill="midnightblue" stroke="midnightblue" points="254.769,-219.204 244.634,-216.116 250.631,-224.85 254.769,-219.204"/>
</g>
<!-- Node6 -->
<g id="node13" class="node"><title>Node6</title>
<a xlink:href="structant_1_1calibration_1_1energy_1_1_g_u_i___banana_slices.html" target="_top" xlink:title="fits slices of the PID energy along the energy axis to fit the shape of the PID banana ...">
<polygon fill="white" stroke="black" points="300,-260 300,-294 416,-294 416,-260 300,-260"/>
<text text-anchor="start" x="308" y="-281" font-family="Helvetica,sans-Serif" font-size="10.00">ant::calibration::energy</text>
<text text-anchor="middle" x="358" y="-268" font-family="Helvetica,sans-Serif" font-size="10.00">::GUI_BananaSlices</text>
</a>
</g>
<!-- Node3&#45;&gt;Node6 -->
<g id="edge12" class="edge"><title>Node3&#45;&gt;Node6</title>
<path fill="none" stroke="midnightblue" d="M247.821,-220.521C250.617,-221.98 253.361,-223.477 256,-225 273.094,-234.866 274.683,-241.531 292,-251 297.835,-254.191 304.145,-257.192 310.47,-259.942"/>
<polygon fill="midnightblue" stroke="midnightblue" points="249.289,-217.343 238.779,-216.007 246.163,-223.606 249.289,-217.343"/>
</g>
<!-- Node7 -->
<g id="node15" class="node"><title>Node7</title>
<a xlink:href="structant_1_1calibration_1_1energy_1_1_g_u_i___h_e_p.html" target="_top" xlink:title="HEP stands for High Energy Protons and uses the high energy proton tail to calibrate the PID energy...">
<polygon fill="white" stroke="black" points="300,-208 300,-242 416,-242 416,-208 300,-208"/>
<text text-anchor="start" x="308" y="-229" font-family="Helvetica,sans-Serif" font-size="10.00">ant::calibration::energy</text>
<text text-anchor="middle" x="358" y="-216" font-family="Helvetica,sans-Serif" font-size="10.00">::GUI_HEP</text>
</a>
</g>
<!-- Node3&#45;&gt;Node7 -->
<g id="edge14" class="edge"><title>Node3&#45;&gt;Node7</title>
<path fill="none" stroke="midnightblue" d="M260.618,-209.175C273.576,-211.281 287.174,-213.491 299.961,-215.569"/>
<polygon fill="midnightblue" stroke="midnightblue" points="260.822,-205.663 250.39,-207.513 259.699,-212.572 260.822,-205.663"/>
</g>
<!-- Node8 -->
<g id="node17" class="node"><title>Node8</title>
<a xlink:href="structant_1_1calibration_1_1energy_1_1_g_u_i___m_i_p.html" target="_top" xlink:title="MIP stands for Minimum Ionizing Particle and uses electron and positron energy deposits in the PID...">
<polygon fill="white" stroke="black" points="300,-156 300,-190 416,-190 416,-156 300,-156"/>
<text text-anchor="start" x="308" y="-177" font-family="Helvetica,sans-Serif" font-size="10.00">ant::calibration::energy</text>
<text text-anchor="middle" x="358" y="-164" font-family="Helvetica,sans-Serif" font-size="10.00">::GUI_MIP</text>
</a>
</g>
<!-- Node3&#45;&gt;Node8 -->
<g id="edge16" class="edge"><title>Node3&#45;&gt;Node8</title>
<path fill="none" stroke="midnightblue" d="M260.618,-188.825C273.576,-186.719 287.174,-184.509 299.961,-182.431"/>
<polygon fill="midnightblue" stroke="midnightblue" points="259.699,-185.428 250.39,-190.487 260.822,-192.337 259.699,-185.428"/>
</g>
<!-- Node9 -->
<g id="node19" class="node"><title>Node9</title>
<a xlink:href="structant_1_1calibration_1_1energy_1_1_g_u_i___pedestals.html" target="_top" xlink:title="ant::calibration::energy\l::GUI_Pedestals">
<polygon fill="white" stroke="black" points="300,-104 300,-138 416,-138 416,-104 300,-104"/>
<text text-anchor="start" x="308" y="-125" font-family="Helvetica,sans-Serif" font-size="10.00">ant::calibration::energy</text>
<text text-anchor="middle" x="358" y="-112" font-family="Helvetica,sans-Serif" font-size="10.00">::GUI_Pedestals</text>
</a>
</g>
<!-- Node3&#45;&gt;Node9 -->
<g id="edge18" class="edge"><title>Node3&#45;&gt;Node9</title>
<path fill="none" stroke="midnightblue" d="M247.821,-177.479C250.617,-176.02 253.361,-174.523 256,-173 273.094,-163.134 274.683,-156.469 292,-147 297.835,-143.809 304.145,-140.808 310.47,-138.058"/>
<polygon fill="midnightblue" stroke="midnightblue" points="246.163,-174.394 238.779,-181.993 249.289,-180.657 246.163,-174.394"/>
</g>
<!-- Node11 -->
<g id="node23" class="node"><title>Node11</title>
<a xlink:href="structant_1_1calibration_1_1_t_a_p_s___energy_1_1_g_u_i___gains.html" target="_top" xlink:title="ant::calibration::TAPS\l_Energy::GUI_Gains">
<polygon fill="white" stroke="black" points="301.5,-52 301.5,-86 414.5,-86 414.5,-52 301.5,-52"/>
<text text-anchor="start" x="309.5" y="-73" font-family="Helvetica,sans-Serif" font-size="10.00">ant::calibration::TAPS</text>
<text text-anchor="middle" x="358" y="-60" font-family="Helvetica,sans-Serif" font-size="10.00">_Energy::GUI_Gains</text>
</a>
</g>
<!-- Node3&#45;&gt;Node11 -->
<g id="edge22" class="edge"><title>Node3&#45;&gt;Node11</title>
<path fill="none" stroke="midnightblue" d="M253.04,-175.724C254.063,-174.846 255.051,-173.938 256,-173 283.146,-146.151 264.242,-121.216 292,-95 295.581,-91.6176 299.655,-88.6574 303.979,-86.0701"/>
<polygon fill="midnightblue" stroke="midnightblue" points="250.631,-173.15 244.634,-181.884 254.769,-178.796 250.631,-173.15"/>
</g>
<!-- Node12 -->
<g id="node25" class="node"><title>Node12</title>
<a xlink:href="structant_1_1calibration_1_1_t_a_p_s___short_energy_1_1_g_u_i___gains.html" target="_top" xlink:title="ant::calibration::TAPS\l_ShortEnergy::GUI_Gains">
<polygon fill="white" stroke="black" points="292.5,-0 292.5,-34 423.5,-34 423.5,-0 292.5,-0"/>
<text text-anchor="start" x="300.5" y="-21" font-family="Helvetica,sans-Serif" font-size="10.00">ant::calibration::TAPS</text>
<text text-anchor="middle" x="358" y="-8" font-family="Helvetica,sans-Serif" font-size="10.00">_ShortEnergy::GUI_Gains</text>
</a>
</g>
<!-- Node3&#45;&gt;Node12 -->
<g id="edge24" class="edge"><title>Node3&#45;&gt;Node12</title>
<path fill="none" stroke="midnightblue" d="M253.749,-175.435C254.529,-174.648 255.281,-173.837 256,-173 295.068,-127.525 251.893,-87.5612 292,-43 295.048,-39.6131 298.594,-36.6621 302.43,-34.0918"/>
<polygon fill="midnightblue" stroke="midnightblue" points="251.488,-172.763 246.051,-181.857 255.972,-178.138 251.488,-172.763"/>
</g>
<!-- Node10 -->
<g id="node21" class="node"><title>Node10</title>
<a xlink:href="structant_1_1calibration_1_1_t_a_p_s___short_energy_1_1_g_u_i___pedestals.html" target="_top" xlink:title="ant::calibration::TAPS\l_ShortEnergy::GUI_Pedestals">
<polygon fill="white" stroke="black" points="460.5,-104 460.5,-138 609.5,-138 609.5,-104 460.5,-104"/>
<text text-anchor="start" x="468.5" y="-125" font-family="Helvetica,sans-Serif" font-size="10.00">ant::calibration::TAPS</text>
<text text-anchor="middle" x="535" y="-112" font-family="Helvetica,sans-Serif" font-size="10.00">_ShortEnergy::GUI_Pedestals</text>
</a>
</g>
<!-- Node9&#45;&gt;Node10 -->
<g id="edge20" class="edge"><title>Node9&#45;&gt;Node10</title>
<path fill="none" stroke="midnightblue" d="M426.455,-121C437.51,-121 449.006,-121 460.202,-121"/>
<polygon fill="midnightblue" stroke="midnightblue" points="426.447,-117.5 416.447,-121 426.447,-124.5 426.447,-117.5"/>
</g>
</g>
</svg>
