<?xml version="1.0" encoding="UTF-8" standalone="no"?>
<!DOCTYPE svg PUBLIC "-//W3C//DTD SVG 1.1//EN"
 "http://www.w3.org/Graphics/SVG/1.1/DTD/svg11.dtd">
<!-- Generated by graphviz version 2.26.3 (20100126.1600)
 -->
<!-- Title: src/root&#45;addons/analysis_codes/Math.h Pages: 1 -->
<svg width="860pt" height="128pt"
 viewBox="0.00 0.00 860.00 128.00" xmlns="http://www.w3.org/2000/svg" xmlns:xlink="http://www.w3.org/1999/xlink">
<g id="graph1" class="graph" transform="scale(1 1) rotate(0) translate(4 124)">
<title>src/root&#45;addons/analysis_codes/Math.h</title>
<polygon fill="white" stroke="white" points="-4,5 -4,-124 857,-124 857,5 -4,5"/>
<!-- Node19 -->
<g id="node1" class="node"><title>Node19</title>
<polygon fill="#bfbfbf" stroke="black" points="355.5,-85 355.5,-119 478.5,-119 478.5,-85 355.5,-85"/>
<text text-anchor="start" x="363.5" y="-106" font-family="Helvetica,sans-Serif" font-size="10.00">src/root&#45;addons/analysis</text>
<text text-anchor="middle" x="417" y="-93" font-family="Helvetica,sans-Serif" font-size="10.00">_codes/Math.h</text>
</g>
<!-- Node20 -->
<g id="node3" class="node"><title>Node20</title>
<a xlink:href="_ant-mc-pi0gun_8cc.html" target="_top" xlink:title="progs/Ant&#45;mc&#45;pi0gun.cc">
<polygon fill="white" stroke="black" points="0,-13.5 0,-34.5 120,-34.5 120,-13.5 0,-13.5"/>
<text text-anchor="middle" x="60" y="-21.5" font-family="Helvetica,sans-Serif" font-size="10.00">progs/Ant&#45;mc&#45;pi0gun.cc</text>
</a>
</g>
<!-- Node19&#45;&gt;Node20 -->
<g id="edge2" class="edge"><title>Node19&#45;&gt;Node20</title>
<path fill="none" stroke="midnightblue" d="M345.535,-91.6461C286.851,-82.4182 201.846,-67.3818 129,-48 115.027,-44.2823 99.8162,-39.1164 87.2404,-34.5294"/>
<polygon fill="midnightblue" stroke="midnightblue" points="345.028,-95.1093 355.448,-93.189 346.105,-88.1926 345.028,-95.1093"/>
</g>
<!-- Node21 -->
<g id="node5" class="node"><title>Node21</title>
<a xlink:href="_etap_omega_g__fit_8cc.html" target="_top" xlink:title="progs/EtapOmegaG_fit.cc">
<polygon fill="white" stroke="black" points="138,-13.5 138,-34.5 268,-34.5 268,-13.5 138,-13.5"/>
<text text-anchor="middle" x="203" y="-21.5" font-family="Helvetica,sans-Serif" font-size="10.00">progs/EtapOmegaG_fit.cc</text>
</a>
</g>
<!-- Node19&#45;&gt;Node21 -->
<g id="edge4" class="edge"><title>Node19&#45;&gt;Node21</title>
<path fill="none" stroke="midnightblue" d="M360.882,-81.5457C319.47,-66.4516 264.804,-46.5266 231.862,-34.5199"/>
<polygon fill="midnightblue" stroke="midnightblue" points="359.707,-84.8428 370.301,-84.979 362.104,-78.266 359.707,-84.8428"/>
</g>
<!-- Node22 -->
<g id="node7" class="node"><title>Node22</title>
<a xlink:href="_fits_8cc.html" target="_top" xlink:title="src/root&#45;addons/analysis\l_codes/Fits.cc">
<polygon fill="white" stroke="black" points="285.5,-7 285.5,-41 408.5,-41 408.5,-7 285.5,-7"/>
<text text-anchor="start" x="293.5" y="-28" font-family="Helvetica,sans-Serif" font-size="10.00">src/root&#45;addons/analysis</text>
<text text-anchor="middle" x="347" y="-15" font-family="Helvetica,sans-Serif" font-size="10.00">_codes/Fits.cc</text>
</a>
</g>
<!-- Node19&#45;&gt;Node22 -->
<g id="edge6" class="edge"><title>Node19&#45;&gt;Node22</title>
<path fill="none" stroke="midnightblue" d="M394.554,-76.9884C384.093,-65.3326 371.909,-51.7552 362.492,-41.2623"/>
<polygon fill="midnightblue" stroke="midnightblue" points="392.181,-79.5845 401.465,-84.6893 397.39,-74.9091 392.181,-79.5845"/>
</g>
<!-- Node23 -->
<g id="node9" class="node"><title>Node23</title>
<a xlink:href="root-addons_2analysis__codes_2math_8cc.html" target="_top" xlink:title="src/root&#45;addons/analysis\l_codes/Math.cc">
<polygon fill="white" stroke="black" points="425.5,-7 425.5,-41 548.5,-41 548.5,-7 425.5,-7"/>
<text text-anchor="start" x="433.5" y="-28" font-family="Helvetica,sans-Serif" font-size="10.00">src/root&#45;addons/analysis</text>
<text text-anchor="middle" x="487" y="-15" font-family="Helvetica,sans-Serif" font-size="10.00">_codes/Math.cc</text>
</a>
</g>
<!-- Node19&#45;&gt;Node23 -->
<g id="edge8" class="edge"><title>Node19&#45;&gt;Node23</title>
<path fill="none" stroke="midnightblue" d="M439.446,-76.9884C449.907,-65.3326 462.091,-51.7552 471.508,-41.2623"/>
<polygon fill="midnightblue" stroke="midnightblue" points="436.61,-74.9091 432.535,-84.6893 441.819,-79.5845 436.61,-74.9091"/>
</g>
<!-- Node24 -->
<g id="node11" class="node"><title>Node24</title>
<a xlink:href="_omega_8cc.html" target="_top" xlink:title="src/root&#45;addons/analysis\l_codes/Omega.cc">
<polygon fill="white" stroke="black" points="565.5,-7 565.5,-41 688.5,-41 688.5,-7 565.5,-7"/>
<text text-anchor="start" x="573.5" y="-28" font-family="Helvetica,sans-Serif" font-size="10.00">src/root&#45;addons/analysis</text>
<text text-anchor="middle" x="627" y="-15" font-family="Helvetica,sans-Serif" font-size="10.00">_codes/Omega.cc</text>
</a>
</g>
<!-- Node19&#45;&gt;Node24 -->
<g id="edge10" class="edge"><title>Node19&#45;&gt;Node24</title>
<path fill="none" stroke="midnightblue" d="M472.556,-81.3651C506.349,-68.8134 548.996,-52.9729 580.91,-41.1193"/>
<polygon fill="midnightblue" stroke="midnightblue" points="470.981,-78.216 462.826,-84.979 473.419,-84.778 470.981,-78.216"/>
</g>
<!-- Node25 -->
<g id="node13" class="node"><title>Node25</title>
<a xlink:href="_two_pi0___m_c_smearing__tools_8cc.html" target="_top" xlink:title="src/root&#45;addons/analysis\l_codes/TwoPi0_MCSmearing\l_tools.cc">
<polygon fill="white" stroke="black" points="706,-0.5 706,-47.5 852,-47.5 852,-0.5 706,-0.5"/>
<text text-anchor="start" x="714" y="-34.5" font-family="Helvetica,sans-Serif" font-size="10.00">src/root&#45;addons/analysis</text>
<text text-anchor="start" x="714" y="-21.5" font-family="Helvetica,sans-Serif" font-size="10.00">_codes/TwoPi0_MCSmearing</text>
<text text-anchor="middle" x="779" y="-8.5" font-family="Helvetica,sans-Serif" font-size="10.00">_tools.cc</text>
</a>
</g>
<!-- Node19&#45;&gt;Node25 -->
<g id="edge12" class="edge"><title>Node19&#45;&gt;Node25</title>
<path fill="none" stroke="midnightblue" d="M488.495,-90.1267C545.313,-80.2314 626.645,-65.04 697,-48 699.883,-47.3017 702.817,-46.566 705.774,-45.803"/>
<polygon fill="midnightblue" stroke="midnightblue" points="487.791,-86.6966 478.534,-91.8511 488.985,-93.594 487.791,-86.6966"/>
</g>
</g>
</svg>
