<?xml version="1.0" encoding="UTF-8" standalone="no"?>
<!DOCTYPE svg PUBLIC "-//W3C//DTD SVG 1.1//EN"
 "http://www.w3.org/Graphics/SVG/1.1/DTD/svg11.dtd">
<!-- Generated by graphviz version 2.26.3 (20100126.1600)
 -->
<!-- Title: src/root&#45;addons/analysis_codes/Math.cc Pages: 1 -->
<svg width="746pt" height="348pt"
 viewBox="0.00 0.00 746.00 348.00" xmlns="http://www.w3.org/2000/svg" xmlns:xlink="http://www.w3.org/1999/xlink">
<g id="graph1" class="graph" transform="scale(1 1) rotate(0) translate(4 344)">
<title>src/root&#45;addons/analysis_codes/Math.cc</title>
<polygon fill="white" stroke="white" points="-4,5 -4,-344 743,-344 743,5 -4,5"/>
<!-- Node0 -->
<g id="node1" class="node"><title>Node0</title>
<polygon fill="#bfbfbf" stroke="black" points="499.5,-305 499.5,-339 622.5,-339 622.5,-305 499.5,-305"/>
<text text-anchor="start" x="507.5" y="-326" font-family="Helvetica,sans-Serif" font-size="10.00">src/root&#45;addons/analysis</text>
<text text-anchor="middle" x="561" y="-313" font-family="Helvetica,sans-Serif" font-size="10.00">_codes/Math.cc</text>
</g>
<!-- Node1 -->
<g id="node3" class="node"><title>Node1</title>
<a xlink:href="root-addons_2analysis__codes_2math_8h.html" target="_top" xlink:title="Math.h">
<polygon fill="white" stroke="black" points="381.5,-239.5 381.5,-260.5 428.5,-260.5 428.5,-239.5 381.5,-239.5"/>
<text text-anchor="middle" x="405" y="-247.5" font-family="Helvetica,sans-Serif" font-size="10.00">Math.h</text>
</a>
</g>
<!-- Node0&#45;&gt;Node1 -->
<g id="edge2" class="edge"><title>Node0&#45;&gt;Node1</title>
<path fill="none" stroke="midnightblue" d="M518.898,-304.919C494.668,-294.779 463.805,-281.332 437,-268 435.431,-267.219 433.829,-266.399 432.22,-265.556"/>
<polygon fill="midnightblue" stroke="midnightblue" points="433.562,-262.302 423.104,-260.605 430.222,-268.453 433.562,-262.302"/>
</g>
<!-- Node20 -->
<g id="node44" class="node"><title>Node20</title>
<a xlink:href="_asym_gaus_8h.html" target="_top" xlink:title="base/math_functions\l/AsymGaus.h">
<polygon fill="white" stroke="black" points="445.5,-233 445.5,-267 552.5,-267 552.5,-233 445.5,-233"/>
<text text-anchor="start" x="453.5" y="-254" font-family="Helvetica,sans-Serif" font-size="10.00">base/math_functions</text>
<text text-anchor="middle" x="499" y="-241" font-family="Helvetica,sans-Serif" font-size="10.00">/AsymGaus.h</text>
</a>
</g>
<!-- Node0&#45;&gt;Node20 -->
<g id="edge46" class="edge"><title>Node0&#45;&gt;Node20</title>
<path fill="none" stroke="midnightblue" d="M546.307,-304.937C538.621,-296.012 529.066,-284.916 520.56,-275.037"/>
<polygon fill="midnightblue" stroke="midnightblue" points="523.196,-272.735 514.018,-267.441 517.891,-277.302 523.196,-272.735"/>
</g>
<!-- Node21 -->
<g id="node46" class="node"><title>Node21</title>
<a xlink:href="_crystal_ball_8h.html" target="_top" xlink:title="base/math_functions\l/CrystalBall.h">
<polygon fill="white" stroke="black" points="569.5,-233 569.5,-267 676.5,-267 676.5,-233 569.5,-233"/>
<text text-anchor="start" x="577.5" y="-254" font-family="Helvetica,sans-Serif" font-size="10.00">base/math_functions</text>
<text text-anchor="middle" x="623" y="-241" font-family="Helvetica,sans-Serif" font-size="10.00">/CrystalBall.h</text>
</a>
</g>
<!-- Node0&#45;&gt;Node21 -->
<g id="edge48" class="edge"><title>Node0&#45;&gt;Node21</title>
<path fill="none" stroke="midnightblue" d="M575.693,-304.937C583.379,-296.012 592.934,-284.916 601.44,-275.037"/>
<polygon fill="midnightblue" stroke="midnightblue" points="604.109,-277.302 607.982,-267.441 598.804,-272.735 604.109,-277.302"/>
</g>
<!-- Node22 -->
<g id="node48" class="node"><title>Node22</title>
<polygon fill="white" stroke="#bfbfbf" points="694,-239.5 694,-260.5 738,-260.5 738,-239.5 694,-239.5"/>
<text text-anchor="middle" x="716" y="-247.5" font-family="Helvetica,sans-Serif" font-size="10.00">TH1.h</text>
</g>
<!-- Node0&#45;&gt;Node22 -->
<g id="edge50" class="edge"><title>Node0&#45;&gt;Node22</title>
<path fill="none" stroke="midnightblue" d="M603.457,-304.939C627.666,-294.857 658.391,-281.462 685,-268 686.527,-267.227 688.084,-266.413 689.646,-265.575"/>
<polygon fill="midnightblue" stroke="midnightblue" points="691.464,-268.569 698.489,-260.638 688.052,-262.457 691.464,-268.569"/>
</g>
<!-- Node2 -->
<g id="node5" class="node"><title>Node2</title>
<polygon fill="white" stroke="#bfbfbf" points="302.5,-174.5 302.5,-195.5 331.5,-195.5 331.5,-174.5 302.5,-174.5"/>
<text text-anchor="middle" x="317" y="-182.5" font-family="Helvetica,sans-Serif" font-size="10.00">list</text>
</g>
<!-- Node1&#45;&gt;Node2 -->
<g id="edge4" class="edge"><title>Node1&#45;&gt;Node2</title>
<path fill="none" stroke="midnightblue" d="M390.469,-239.267C376.629,-229.044 355.59,-213.504 339.568,-201.67"/>
<polygon fill="midnightblue" stroke="midnightblue" points="341.384,-198.66 331.261,-195.534 337.225,-204.29 341.384,-198.66"/>
</g>
<!-- Node3 -->
<g id="node7" class="node"><title>Node3</title>
<a xlink:href="interval_8h.html" target="_top" xlink:title="base/interval.h">
<polygon fill="white" stroke="black" points="222,-116.5 222,-137.5 302,-137.5 302,-116.5 222,-116.5"/>
<text text-anchor="middle" x="262" y="-124.5" font-family="Helvetica,sans-Serif" font-size="10.00">base/interval.h</text>
</a>
</g>
<!-- Node1&#45;&gt;Node3 -->
<g id="edge6" class="edge"><title>Node1&#45;&gt;Node3</title>
<path fill="none" stroke="midnightblue" d="M397.706,-239.483C386.543,-223.893 363.979,-194.311 340,-174 325.614,-161.814 307.705,-150.783 292.678,-142.474"/>
<polygon fill="midnightblue" stroke="midnightblue" points="294.214,-139.327 283.75,-137.667 290.896,-145.49 294.214,-139.327"/>
</g>
<!-- Node11 -->
<g id="node23" class="node"><title>Node11</title>
<a xlink:href="piecewise__interval_8h.html" target="_top" xlink:title="base/piecewise_interval.h">
<polygon fill="white" stroke="black" points="386.5,-174.5 386.5,-195.5 515.5,-195.5 515.5,-174.5 386.5,-174.5"/>
<text text-anchor="middle" x="451" y="-182.5" font-family="Helvetica,sans-Serif" font-size="10.00">base/piecewise_interval.h</text>
</a>
</g>
<!-- Node1&#45;&gt;Node11 -->
<g id="edge22" class="edge"><title>Node1&#45;&gt;Node11</title>
<path fill="none" stroke="midnightblue" d="M412.596,-239.267C419.361,-229.707 429.418,-215.496 437.543,-204.015"/>
<polygon fill="midnightblue" stroke="midnightblue" points="440.626,-205.718 443.545,-195.534 434.912,-201.675 440.626,-205.718"/>
</g>
<!-- Node19 -->
<g id="node42" class="node"><title>Node19</title>
<polygon fill="white" stroke="#bfbfbf" points="533,-174.5 533,-195.5 575,-195.5 575,-174.5 533,-174.5"/>
<text text-anchor="middle" x="554" y="-182.5" font-family="Helvetica,sans-Serif" font-size="10.00">TF1.h</text>
</g>
<!-- Node1&#45;&gt;Node19 -->
<g id="edge44" class="edge"><title>Node1&#45;&gt;Node19</title>
<path fill="none" stroke="midnightblue" d="M422.722,-239.49C427.31,-236.919 432.287,-234.26 437,-232 452.782,-224.431 494.505,-207.977 523.599,-196.693"/>
<polygon fill="midnightblue" stroke="midnightblue" points="524.863,-199.957 532.926,-193.085 522.337,-193.428 524.863,-199.957"/>
</g>
<!-- Node4 -->
<g id="node9" class="node"><title>Node4</title>
<a xlink:href="types_8h.html" target="_top" xlink:title="types.h">
<polygon fill="white" stroke="black" points="-0.5,-58.5 -0.5,-79.5 48.5,-79.5 48.5,-58.5 -0.5,-58.5"/>
<text text-anchor="middle" x="24" y="-66.5" font-family="Helvetica,sans-Serif" font-size="10.00">types.h</text>
</a>
</g>
<!-- Node3&#45;&gt;Node4 -->
<g id="edge8" class="edge"><title>Node3&#45;&gt;Node4</title>
<path fill="none" stroke="midnightblue" d="M221.628,-118.147C181.127,-109.117 117.032,-94.4215 62,-80 60.937,-79.7214 59.8584,-79.4347 58.7704,-79.142"/>
<polygon fill="midnightblue" stroke="midnightblue" points="59.4589,-75.7009 48.8873,-76.4009 57.5881,-82.4463 59.4589,-75.7009"/>
</g>
<!-- Node5 -->
<g id="node11" class="node"><title>Node5</title>
<polygon fill="white" stroke="#bfbfbf" points="208,-0.5 208,-21.5 264,-21.5 264,-0.5 208,-0.5"/>
<text text-anchor="middle" x="236" y="-8.5" font-family="Helvetica,sans-Serif" font-size="10.00">algorithm</text>
</g>
<!-- Node3&#45;&gt;Node5 -->
<g id="edge10" class="edge"><title>Node3&#45;&gt;Node5</title>
<path fill="none" stroke="midnightblue" d="M221.782,-121.307C177.423,-114.107 110.276,-100.168 95,-80 65.5202,-41.0782 146.359,-22.8401 197.546,-15.3979"/>
<polygon fill="midnightblue" stroke="midnightblue" points="198.226,-18.8375 207.657,-14.0103 197.274,-11.9025 198.226,-18.8375"/>
</g>
<!-- Node6 -->
<g id="node13" class="node"><title>Node6</title>
<polygon fill="white" stroke="#bfbfbf" points="103.5,-58.5 103.5,-79.5 162.5,-79.5 162.5,-58.5 103.5,-58.5"/>
<text text-anchor="middle" x="133" y="-66.5" font-family="Helvetica,sans-Serif" font-size="10.00">stdexcept</text>
</g>
<!-- Node3&#45;&gt;Node6 -->
<g id="edge12" class="edge"><title>Node3&#45;&gt;Node6</title>
<path fill="none" stroke="midnightblue" d="M238.639,-116.497C218.309,-107.356 188.622,-94.0082 165.891,-83.7883"/>
<polygon fill="midnightblue" stroke="midnightblue" points="167.179,-80.5298 156.623,-79.6212 164.308,-86.9142 167.179,-80.5298"/>
</g>
<!-- Node7 -->
<g id="node15" class="node"><title>Node7</title>
<polygon fill="white" stroke="#bfbfbf" points="180,-58.5 180,-79.5 220,-79.5 220,-58.5 180,-58.5"/>
<text text-anchor="middle" x="200" y="-66.5" font-family="Helvetica,sans-Serif" font-size="10.00">limits</text>
</g>
<!-- Node3&#45;&gt;Node7 -->
<g id="edge14" class="edge"><title>Node3&#45;&gt;Node7</title>
<path fill="none" stroke="midnightblue" d="M250.628,-116.362C241.714,-108.023 229.121,-96.2418 218.724,-86.5162"/>
<polygon fill="midnightblue" stroke="midnightblue" points="220.993,-83.8463 211.3,-79.5707 216.211,-88.9582 220.993,-83.8463"/>
</g>
<!-- Node8 -->
<g id="node17" class="node"><title>Node8</title>
<polygon fill="white" stroke="#bfbfbf" points="237.5,-58.5 237.5,-79.5 286.5,-79.5 286.5,-58.5 237.5,-58.5"/>
<text text-anchor="middle" x="262" y="-66.5" font-family="Helvetica,sans-Serif" font-size="10.00">istream</text>
</g>
<!-- Node3&#45;&gt;Node8 -->
<g id="edge16" class="edge"><title>Node3&#45;&gt;Node8</title>
<path fill="none" stroke="midnightblue" d="M262,-116.362C262,-108.922 262,-98.7427 262,-89.7276"/>
<polygon fill="midnightblue" stroke="midnightblue" points="265.5,-89.5706 262,-79.5707 258.5,-89.5707 265.5,-89.5706"/>
</g>
<!-- Node9 -->
<g id="node19" class="node"><title>Node9</title>
<polygon fill="white" stroke="#bfbfbf" points="304,-58.5 304,-79.5 356,-79.5 356,-58.5 304,-58.5"/>
<text text-anchor="middle" x="330" y="-66.5" font-family="Helvetica,sans-Serif" font-size="10.00">sstream</text>
</g>
<!-- Node3&#45;&gt;Node9 -->
<g id="edge18" class="edge"><title>Node3&#45;&gt;Node9</title>
<path fill="none" stroke="midnightblue" d="M274.472,-116.362C284.345,-107.941 298.333,-96.0105 309.798,-86.2308"/>
<polygon fill="midnightblue" stroke="midnightblue" points="312.27,-88.7231 317.607,-79.5707 307.727,-83.3972 312.27,-88.7231"/>
</g>
<!-- Node10 -->
<g id="node21" class="node"><title>Node10</title>
<polygon fill="white" stroke="#bfbfbf" points="374,-58.5 374,-79.5 418,-79.5 418,-58.5 374,-58.5"/>
<text text-anchor="middle" x="396" y="-66.5" font-family="Helvetica,sans-Serif" font-size="10.00">cmath</text>
</g>
<!-- Node3&#45;&gt;Node10 -->
<g id="edge20" class="edge"><title>Node3&#45;&gt;Node10</title>
<path fill="none" stroke="midnightblue" d="M286.266,-116.497C308.141,-107.028 340.446,-93.0456 364.345,-82.7014"/>
<polygon fill="midnightblue" stroke="midnightblue" points="365.908,-85.8387 373.695,-78.6543 363.128,-79.4146 365.908,-85.8387"/>
</g>
<!-- Node11&#45;&gt;Node3 -->
<g id="edge24" class="edge"><title>Node11&#45;&gt;Node3</title>
<path fill="none" stroke="midnightblue" d="M416.774,-174.497C385.695,-164.959 339.688,-150.841 305.91,-140.475"/>
<polygon fill="midnightblue" stroke="midnightblue" points="306.877,-137.111 296.291,-137.523 304.824,-143.803 306.877,-137.111"/>
</g>
<!-- Node12 -->
<g id="node26" class="node"><title>Node12</title>
<a xlink:href="printable_8h.html" target="_top" xlink:title="base/std_ext/printable.h">
<polygon fill="white" stroke="black" points="447.5,-116.5 447.5,-137.5 568.5,-137.5 568.5,-116.5 447.5,-116.5"/>
<text text-anchor="middle" x="508" y="-124.5" font-family="Helvetica,sans-Serif" font-size="10.00">base/std_ext/printable.h</text>
</a>
</g>
<!-- Node11&#45;&gt;Node12 -->
<g id="edge26" class="edge"><title>Node11&#45;&gt;Node12</title>
<path fill="none" stroke="midnightblue" d="M461.455,-174.362C469.57,-166.104 481.001,-154.472 490.504,-144.803"/>
<polygon fill="midnightblue" stroke="midnightblue" points="493.099,-147.156 497.612,-137.571 488.106,-142.25 493.099,-147.156"/>
</g>
<!-- Node14 -->
<g id="node30" class="node"><title>Node14</title>
<polygon fill="white" stroke="#bfbfbf" points="612,-0.5 612,-21.5 656,-21.5 656,-0.5 612,-0.5"/>
<text text-anchor="middle" x="634" y="-8.5" font-family="Helvetica,sans-Serif" font-size="10.00">vector</text>
</g>
<!-- Node11&#45;&gt;Node14 -->
<g id="edge42" class="edge"><title>Node11&#45;&gt;Node14</title>
<path fill="none" stroke="midnightblue" d="M511.103,-174.379C561.813,-161.735 630.553,-134.965 659,-80 667.359,-63.8488 658.625,-44.2581 649.26,-30.0842"/>
<polygon fill="midnightblue" stroke="midnightblue" points="651.869,-27.717 643.188,-21.6427 646.186,-31.8045 651.869,-27.717"/>
</g>
<!-- Node13 -->
<g id="node28" class="node"><title>Node13</title>
<a xlink:href="container_8h.html" target="_top" xlink:title="container.h">
<polygon fill="white" stroke="black" points="435.5,-58.5 435.5,-79.5 500.5,-79.5 500.5,-58.5 435.5,-58.5"/>
<text text-anchor="middle" x="468" y="-66.5" font-family="Helvetica,sans-Serif" font-size="10.00">container.h</text>
</a>
</g>
<!-- Node12&#45;&gt;Node13 -->
<g id="edge28" class="edge"><title>Node12&#45;&gt;Node13</title>
<path fill="none" stroke="midnightblue" d="M500.663,-116.362C495.194,-108.431 487.578,-97.3885 481.076,-87.9606"/>
<polygon fill="midnightblue" stroke="midnightblue" points="483.849,-85.8157 475.29,-79.5707 478.086,-89.7899 483.849,-85.8157"/>
</g>
<!-- Node17 -->
<g id="node37" class="node"><title>Node17</title>
<polygon fill="white" stroke="#bfbfbf" points="518,-58.5 518,-79.5 580,-79.5 580,-58.5 518,-58.5"/>
<text text-anchor="middle" x="549" y="-66.5" font-family="Helvetica,sans-Serif" font-size="10.00">type_traits</text>
</g>
<!-- Node12&#45;&gt;Node17 -->
<g id="edge38" class="edge"><title>Node12&#45;&gt;Node17</title>
<path fill="none" stroke="midnightblue" d="M515.52,-116.362C521.126,-108.431 528.932,-97.3885 535.597,-87.9606"/>
<polygon fill="midnightblue" stroke="midnightblue" points="538.613,-89.7568 541.528,-79.5707 532.897,-85.7161 538.613,-89.7568"/>
</g>
<!-- Node18 -->
<g id="node39" class="node"><title>Node18</title>
<polygon fill="white" stroke="#bfbfbf" points="598,-58.5 598,-79.5 650,-79.5 650,-58.5 598,-58.5"/>
<text text-anchor="middle" x="624" y="-66.5" font-family="Helvetica,sans-Serif" font-size="10.00">ostream</text>
</g>
<!-- Node12&#45;&gt;Node18 -->
<g id="edge40" class="edge"><title>Node12&#45;&gt;Node18</title>
<path fill="none" stroke="midnightblue" d="M529.007,-116.497C547.043,-107.479 573.27,-94.3649 593.599,-84.2006"/>
<polygon fill="midnightblue" stroke="midnightblue" points="595.379,-87.2239 602.758,-79.6212 592.248,-80.9629 595.379,-87.2239"/>
</g>
<!-- Node13&#45;&gt;Node5 -->
<g id="edge32" class="edge"><title>Node13&#45;&gt;Node5</title>
<path fill="none" stroke="midnightblue" d="M435.342,-60.1725C432.523,-59.4303 429.712,-58.6975 427,-58 374.022,-44.3765 312.561,-29.4002 273.975,-20.098"/>
<polygon fill="midnightblue" stroke="midnightblue" points="274.743,-16.6829 264.201,-17.7452 273.104,-23.4885 274.743,-16.6829"/>
</g>
<!-- Node13&#45;&gt;Node14 -->
<g id="edge30" class="edge"><title>Node13&#45;&gt;Node14</title>
<path fill="none" stroke="midnightblue" d="M498.061,-58.4966C527.525,-48.2021 572.264,-32.5706 602.284,-22.0817"/>
<polygon fill="midnightblue" stroke="midnightblue" points="603.571,-25.3395 611.857,-18.7369 601.262,-18.7312 603.571,-25.3395"/>
</g>
<!-- Node15 -->
<g id="node33" class="node"><title>Node15</title>
<polygon fill="white" stroke="#bfbfbf" points="410.5,-0.5 410.5,-21.5 461.5,-21.5 461.5,-0.5 410.5,-0.5"/>
<text text-anchor="middle" x="436" y="-8.5" font-family="Helvetica,sans-Serif" font-size="10.00">numeric</text>
</g>
<!-- Node13&#45;&gt;Node15 -->
<g id="edge34" class="edge"><title>Node13&#45;&gt;Node15</title>
<path fill="none" stroke="midnightblue" d="M462.131,-58.3619C457.845,-50.5949 451.913,-39.8426 446.784,-30.5458"/>
<polygon fill="midnightblue" stroke="midnightblue" points="449.727,-28.6357 441.832,-21.5707 443.598,-32.0172 449.727,-28.6357"/>
</g>
<!-- Node16 -->
<g id="node35" class="node"><title>Node16</title>
<polygon fill="white" stroke="#bfbfbf" points="478.5,-0.5 478.5,-21.5 519.5,-21.5 519.5,-0.5 478.5,-0.5"/>
<text text-anchor="middle" x="499" y="-8.5" font-family="Helvetica,sans-Serif" font-size="10.00">string</text>
</g>
<!-- Node13&#45;&gt;Node16 -->
<g id="edge36" class="edge"><title>Node13&#45;&gt;Node16</title>
<path fill="none" stroke="midnightblue" d="M473.686,-58.3619C477.837,-50.5949 483.584,-39.8426 488.553,-30.5458"/>
<polygon fill="midnightblue" stroke="midnightblue" points="491.723,-32.0398 493.35,-21.5707 485.55,-28.7401 491.723,-32.0398"/>
</g>
</g>
</svg>
