<?xml version="1.0" encoding="UTF-8" standalone="no"?>
<!DOCTYPE svg PUBLIC "-//W3C//DTD SVG 1.1//EN"
 "http://www.w3.org/Graphics/SVG/1.1/DTD/svg11.dtd">
<!-- Generated by graphviz version 2.26.3 (20100126.1600)
 -->
<!-- Title: src/analysis/physics/scratch/wolfes/tools/tools.h Pages: 1 -->
<svg width="592pt" height="224pt"
 viewBox="0.00 0.00 592.00 224.00" xmlns="http://www.w3.org/2000/svg" xmlns:xlink="http://www.w3.org/1999/xlink">
<g id="graph1" class="graph" transform="scale(1 1) rotate(0) translate(4 220)">
<title>src/analysis/physics/scratch/wolfes/tools/tools.h</title>
<polygon fill="white" stroke="white" points="-4,5 -4,-220 589,-220 589,5 -4,5"/>
<!-- Node85 -->
<g id="node1" class="node"><title>Node85</title>
<polygon fill="#bfbfbf" stroke="black" points="313.5,-168.5 313.5,-215.5 420.5,-215.5 420.5,-168.5 313.5,-168.5"/>
<text text-anchor="start" x="321.5" y="-202.5" font-family="Helvetica,sans-Serif" font-size="10.00">src/analysis/physics</text>
<text text-anchor="start" x="321.5" y="-189.5" font-family="Helvetica,sans-Serif" font-size="10.00">/scratch/wolfes/tools</text>
<text text-anchor="middle" x="367" y="-176.5" font-family="Helvetica,sans-Serif" font-size="10.00">/tools.h</text>
</g>
<!-- Node86 -->
<g id="node3" class="node"><title>Node86</title>
<a xlink:href="single_pi0_8h.html" target="_top" xlink:title="src/analysis/physics\l/production/singlePi0.h">
<polygon fill="white" stroke="black" points="140,-91 140,-125 256,-125 256,-91 140,-91"/>
<text text-anchor="start" x="148" y="-112" font-family="Helvetica,sans-Serif" font-size="10.00">src/analysis/physics</text>
<text text-anchor="middle" x="198" y="-99" font-family="Helvetica,sans-Serif" font-size="10.00">/production/singlePi0.h</text>
</a>
</g>
<!-- Node85&#45;&gt;Node86 -->
<g id="edge2" class="edge"><title>Node85&#45;&gt;Node86</title>
<path fill="none" stroke="midnightblue" d="M310.499,-163.917C284.607,-151.047 254.759,-136.212 232.317,-125.057"/>
<polygon fill="midnightblue" stroke="midnightblue" points="308.962,-167.061 319.474,-168.378 312.077,-160.793 308.962,-167.061"/>
</g>
<!-- Node88 -->
<g id="node7" class="node"><title>Node88</title>
<a xlink:href="single_pi0_plots_8cc.html" target="_top" xlink:title="src/analysis/physics\l/production/singlePi0Plots.cc">
<polygon fill="white" stroke="black" points="137.5,-7 137.5,-41 280.5,-41 280.5,-7 137.5,-7"/>
<text text-anchor="start" x="145.5" y="-28" font-family="Helvetica,sans-Serif" font-size="10.00">src/analysis/physics</text>
<text text-anchor="middle" x="209" y="-15" font-family="Helvetica,sans-Serif" font-size="10.00">/production/singlePi0Plots.cc</text>
</a>
</g>
<!-- Node85&#45;&gt;Node88 -->
<g id="edge8" class="edge"><title>Node85&#45;&gt;Node88</title>
<path fill="none" stroke="midnightblue" d="M332.626,-161.527C322.767,-152.326 312.202,-142.005 303,-132 284.58,-111.974 282.742,-104.629 265,-84 252.271,-69.1997 237.128,-53.0568 225.801,-41.247"/>
<polygon fill="midnightblue" stroke="midnightblue" points="330.269,-164.115 339.993,-168.322 335.014,-158.969 330.269,-164.115"/>
</g>
<!-- Node89 -->
<g id="node10" class="node"><title>Node89</title>
<a xlink:href="triple_pi0_8h.html" target="_top" xlink:title="src/analysis/physics\l/production/triplePi0.h">
<polygon fill="white" stroke="black" points="311.5,-91 311.5,-125 422.5,-125 422.5,-91 311.5,-91"/>
<text text-anchor="start" x="319.5" y="-112" font-family="Helvetica,sans-Serif" font-size="10.00">src/analysis/physics</text>
<text text-anchor="middle" x="367" y="-99" font-family="Helvetica,sans-Serif" font-size="10.00">/production/triplePi0.h</text>
</a>
</g>
<!-- Node85&#45;&gt;Node89 -->
<g id="edge10" class="edge"><title>Node85&#45;&gt;Node89</title>
<path fill="none" stroke="midnightblue" d="M367,-158.111C367,-146.819 367,-134.713 367,-125.23"/>
<polygon fill="midnightblue" stroke="midnightblue" points="363.5,-158.154 367,-168.154 370.5,-158.154 363.5,-158.154"/>
</g>
<!-- Node91 -->
<g id="node14" class="node"><title>Node91</title>
<a xlink:href="_proton_vertex_test_8cc.html" target="_top" xlink:title="src/analysis/physics\l/scratch/wolfes/ProtonVertex\lTest.cc">
<polygon fill="white" stroke="black" points="431.5,-0.5 431.5,-47.5 574.5,-47.5 574.5,-0.5 431.5,-0.5"/>
<text text-anchor="start" x="439.5" y="-34.5" font-family="Helvetica,sans-Serif" font-size="10.00">src/analysis/physics</text>
<text text-anchor="start" x="439.5" y="-21.5" font-family="Helvetica,sans-Serif" font-size="10.00">/scratch/wolfes/ProtonVertex</text>
<text text-anchor="middle" x="503" y="-8.5" font-family="Helvetica,sans-Serif" font-size="10.00">Test.cc</text>
</a>
</g>
<!-- Node85&#45;&gt;Node91 -->
<g id="edge16" class="edge"><title>Node85&#45;&gt;Node91</title>
<path fill="none" stroke="midnightblue" d="M402.457,-161.479C412.164,-152.415 422.378,-142.178 431,-132 453.868,-105.005 475.767,-70.5006 489.285,-47.8509"/>
<polygon fill="midnightblue" stroke="midnightblue" points="399.831,-159.138 394.82,-168.474 404.559,-164.3 399.831,-159.138"/>
</g>
<!-- Node92 -->
<g id="node17" class="node"><title>Node92</title>
<a xlink:href="tools_8cc.html" target="_top" xlink:title="src/analysis/physics\l/scratch/wolfes/tools\l/tools.cc">
<polygon fill="white" stroke="black" points="477.5,-84.5 477.5,-131.5 584.5,-131.5 584.5,-84.5 477.5,-84.5"/>
<text text-anchor="start" x="485.5" y="-118.5" font-family="Helvetica,sans-Serif" font-size="10.00">src/analysis/physics</text>
<text text-anchor="start" x="485.5" y="-105.5" font-family="Helvetica,sans-Serif" font-size="10.00">/scratch/wolfes/tools</text>
<text text-anchor="middle" x="531" y="-92.5" font-family="Helvetica,sans-Serif" font-size="10.00">/tools.cc</text>
</a>
</g>
<!-- Node85&#45;&gt;Node92 -->
<g id="edge18" class="edge"><title>Node85&#45;&gt;Node92</title>
<path fill="none" stroke="midnightblue" d="M422.282,-163.685C442.646,-153.255 465.479,-141.56 484.943,-131.59"/>
<polygon fill="midnightblue" stroke="midnightblue" points="420.424,-160.704 413.12,-168.378 423.616,-166.934 420.424,-160.704"/>
</g>
<!-- Node87 -->
<g id="node5" class="node"><title>Node87</title>
<a xlink:href="single_pi0_8cc.html" target="_top" xlink:title="src/analysis/physics\l/production/singlePi0.cc">
<polygon fill="white" stroke="black" points="-0.5,-7 -0.5,-41 120.5,-41 120.5,-7 -0.5,-7"/>
<text text-anchor="start" x="7.5" y="-28" font-family="Helvetica,sans-Serif" font-size="10.00">src/analysis/physics</text>
<text text-anchor="middle" x="60" y="-15" font-family="Helvetica,sans-Serif" font-size="10.00">/production/singlePi0.cc</text>
</a>
</g>
<!-- Node86&#45;&gt;Node87 -->
<g id="edge4" class="edge"><title>Node86&#45;&gt;Node87</title>
<path fill="none" stroke="midnightblue" d="M160.985,-85.4694C138.119,-71.551 109.236,-53.9695 88.2216,-41.1783"/>
<polygon fill="midnightblue" stroke="midnightblue" points="159.379,-88.5888 169.741,-90.7986 163.018,-82.6094 159.379,-88.5888"/>
</g>
<!-- Node86&#45;&gt;Node88 -->
<g id="edge6" class="edge"><title>Node86&#45;&gt;Node88</title>
<path fill="none" stroke="midnightblue" d="M201.623,-80.3304C203.319,-67.3804 205.286,-52.3652 206.761,-41.0952"/>
<polygon fill="midnightblue" stroke="midnightblue" points="198.107,-80.2253 200.279,-90.5951 205.048,-81.1343 198.107,-80.2253"/>
</g>
<!-- Node90 -->
<g id="node12" class="node"><title>Node90</title>
<a xlink:href="triple_pi0_8cc.html" target="_top" xlink:title="src/analysis/physics\l/production/triplePi0.cc">
<polygon fill="white" stroke="black" points="298,-7 298,-41 414,-41 414,-7 298,-7"/>
<text text-anchor="start" x="306" y="-28" font-family="Helvetica,sans-Serif" font-size="10.00">src/analysis/physics</text>
<text text-anchor="middle" x="356" y="-15" font-family="Helvetica,sans-Serif" font-size="10.00">/production/triplePi0.cc</text>
</a>
</g>
<!-- Node89&#45;&gt;Node90 -->
<g id="edge12" class="edge"><title>Node89&#45;&gt;Node90</title>
<path fill="none" stroke="midnightblue" d="M363.377,-80.3304C361.681,-67.3804 359.714,-52.3652 358.239,-41.0952"/>
<polygon fill="midnightblue" stroke="midnightblue" points="359.952,-81.1343 364.721,-90.5951 366.893,-80.2253 359.952,-81.1343"/>
</g>
<!-- Node89&#45;&gt;Node91 -->
<g id="edge14" class="edge"><title>Node89&#45;&gt;Node91</title>
<path fill="none" stroke="midnightblue" d="M403.518,-85.4449C422.495,-73.7237 445.67,-59.4097 464.876,-47.5471"/>
<polygon fill="midnightblue" stroke="midnightblue" points="401.519,-82.5659 394.85,-90.7986 405.197,-88.5215 401.519,-82.5659"/>
</g>
</g>
</svg>
