<?xml version="1.0" encoding="UTF-8" standalone="no"?>
<!DOCTYPE svg PUBLIC "-//W3C//DTD SVG 1.1//EN"
 "http://www.w3.org/Graphics/SVG/1.1/DTD/svg11.dtd">
<!-- Generated by graphviz version 2.26.3 (20100126.1600)
 -->
<!-- Title: ant::analysis::physics::EtapOmegaG::Sig_t Pages: 1 -->
<svg width="2228pt" height="722pt"
 viewBox="0.00 0.00 2228.00 722.00" xmlns="http://www.w3.org/2000/svg" xmlns:xlink="http://www.w3.org/1999/xlink">
<g id="graph1" class="graph" transform="scale(1 1) rotate(0) translate(4 718)">
<title>ant::analysis::physics::EtapOmegaG::Sig_t</title>
<polygon fill="white" stroke="white" points="-4,5 -4,-718 2225,-718 2225,5 -4,5"/>
<!-- Node1 -->
<g id="node1" class="node"><title>Node1</title>
<polygon fill="#bfbfbf" stroke="black" points="2108,-358 2108,-392 2220,-392 2220,-358 2108,-358"/>
<text text-anchor="start" x="2116" y="-379" font-family="Helvetica,sans-Serif" font-size="10.00">ant::analysis::physics</text>
<text text-anchor="middle" x="2164" y="-366" font-family="Helvetica,sans-Serif" font-size="10.00">::EtapOmegaG::Sig_t</text>
</g>
<!-- Node2 -->
<g id="node2" class="node"><title>Node2</title>
<a xlink:href="structant_1_1analysis_1_1physics_1_1_etap_omega_g_1_1_sig__t_1_1_pi0__t.html" target="_top" xlink:title="ant::analysis::physics\l::EtapOmegaG::Sig_t::Pi0_t">
<polygon fill="white" stroke="black" points="1815.5,-396 1815.5,-430 1954.5,-430 1954.5,-396 1815.5,-396"/>
<text text-anchor="start" x="1823.5" y="-417" font-family="Helvetica,sans-Serif" font-size="10.00">ant::analysis::physics</text>
<text text-anchor="middle" x="1885" y="-404" font-family="Helvetica,sans-Serif" font-size="10.00">::EtapOmegaG::Sig_t::Pi0_t</text>
</a>
</g>
<!-- Node2&#45;&gt;Node1 -->
<g id="edge2" class="edge"><title>Node2&#45;&gt;Node1</title>
<path fill="none" stroke="#9a32cd" stroke-dasharray="5,2" d="M1964.86,-402.123C2010.57,-395.898 2066.79,-388.24 2107.83,-382.65"/>
<polygon fill="#9a32cd" stroke="#9a32cd" points="1964.12,-398.691 1954.68,-403.509 1965.06,-405.627 1964.12,-398.691"/>
<text text-anchor="middle" x="2039" y="-402" font-family="Helvetica,sans-Serif" font-size="10.00"> Pi0</text>
</g>
<!-- Node3 -->
<g id="node4" class="node"><title>Node3</title>
<a xlink:href="structant_1_1analysis_1_1physics_1_1_etap_omega_g_1_1_sig__t_1_1_fit__t.html" target="_top" xlink:title="ant::analysis::physics\l::EtapOmegaG::Sig_t::Fit_t">
<polygon fill="white" stroke="black" points="1541,-401 1541,-435 1677,-435 1677,-401 1541,-401"/>
<text text-anchor="start" x="1549" y="-422" font-family="Helvetica,sans-Serif" font-size="10.00">ant::analysis::physics</text>
<text text-anchor="middle" x="1609" y="-409" font-family="Helvetica,sans-Serif" font-size="10.00">::EtapOmegaG::Sig_t::Fit_t</text>
</a>
</g>
<!-- Node3&#45;&gt;Node2 -->
<g id="edge4" class="edge"><title>Node3&#45;&gt;Node2</title>
<path fill="none" stroke="midnightblue" d="M1687.33,-425.781C1694.31,-426.275 1701.28,-426.695 1708,-427 1740.86,-428.49 1749.19,-429.22 1782,-427 1792.8,-426.269 1804.2,-425.112 1815.32,-423.768"/>
<polygon fill="midnightblue" stroke="midnightblue" points="1687.35,-422.272 1677.11,-425.009 1686.82,-429.252 1687.35,-422.272"/>
</g>
<!-- Node42 -->
<g id="node91" class="node"><title>Node42</title>
<a xlink:href="structant_1_1analysis_1_1physics_1_1_etap_omega_g_1_1_sig__t_1_1_omega_pi0__t.html" target="_top" xlink:title="ant::analysis::physics\l::EtapOmegaG::Sig_t::OmegaPi0_t">
<polygon fill="white" stroke="black" points="1800,-290 1800,-324 1970,-324 1970,-290 1800,-290"/>
<text text-anchor="start" x="1808" y="-311" font-family="Helvetica,sans-Serif" font-size="10.00">ant::analysis::physics</text>
<text text-anchor="middle" x="1885" y="-298" font-family="Helvetica,sans-Serif" font-size="10.00">::EtapOmegaG::Sig_t::OmegaPi0_t</text>
</a>
</g>
<!-- Node3&#45;&gt;Node42 -->
<g id="edge102" class="edge"><title>Node3&#45;&gt;Node42</title>
<path fill="none" stroke="midnightblue" d="M1686.88,-398.675C1717.13,-390.119 1751.71,-379.023 1782,-366 1809.45,-354.196 1838.85,-336.836 1859.18,-324"/>
<polygon fill="midnightblue" stroke="midnightblue" points="1685.92,-395.309 1677.23,-401.363 1687.8,-402.053 1685.92,-395.309"/>
</g>
<!-- Node4 -->
<g id="node6" class="node"><title>Node4</title>
<a xlink:href="classant_1_1_tree.html" target="_top" xlink:title="ant::Tree\&lt; node_t \&gt;">
<polygon fill="white" stroke="black" points="1194.5,-330.5 1194.5,-351.5 1297.5,-351.5 1297.5,-330.5 1194.5,-330.5"/>
<text text-anchor="middle" x="1246" y="-338.5" font-family="Helvetica,sans-Serif" font-size="10.00">ant::Tree&lt; node_t &gt;</text>
</a>
</g>
<!-- Node4&#45;&gt;Node3 -->
<g id="edge6" class="edge"><title>Node4&#45;&gt;Node3</title>
<path fill="none" stroke="#9a32cd" stroke-dasharray="5,2" d="M1307.73,-333.476C1374.67,-326.499 1476.47,-319.694 1510,-338 1522.98,-345.089 1517.54,-355.542 1528,-366 1541.83,-379.821 1559.94,-391.87 1575.52,-400.88"/>
<polygon fill="#9a32cd" stroke="#9a32cd" points="1307.28,-330.004 1297.71,-334.548 1308.02,-336.964 1307.28,-330.004"/>
<text text-anchor="middle" x="1422" y="-420" font-family="Helvetica,sans-Serif" font-size="10.00"> fitted_g_EtaPrime</text>
<text text-anchor="middle" x="1422" y="-407" font-family="Helvetica,sans-Serif" font-size="10.00">fitted_EtaPrime</text>
<text text-anchor="middle" x="1422" y="-394" font-family="Helvetica,sans-Serif" font-size="10.00">fitted_Omega</text>
<text text-anchor="middle" x="1422" y="-381" font-family="Helvetica,sans-Serif" font-size="10.00">fitted_Pi0</text>
<text text-anchor="middle" x="1422" y="-368" font-family="Helvetica,sans-Serif" font-size="10.00">fitted_g_Omega</text>
<text text-anchor="middle" x="1422" y="-355" font-family="Helvetica,sans-Serif" font-size="10.00">fitted_g2_Pi0</text>
<text text-anchor="middle" x="1422" y="-342" font-family="Helvetica,sans-Serif" font-size="10.00">fitted_g1_Pi0</text>
</g>
<!-- Node5 -->
<g id="node8" class="node"><title>Node5</title>
<polygon fill="white" stroke="#bfbfbf" points="397,-348.5 397,-369.5 493,-369.5 493,-348.5 397,-348.5"/>
<text text-anchor="middle" x="445" y="-356.5" font-family="Helvetica,sans-Serif" font-size="10.00">std::list&lt; node_t &gt;</text>
</g>
<!-- Node5&#45;&gt;Node4 -->
<g id="edge8" class="edge"><title>Node5&#45;&gt;Node4</title>
<path fill="none" stroke="#9a32cd" stroke-dasharray="5,2" d="M503.263,-353.035C561.954,-347.348 655.148,-339.19 736,-336 903.443,-329.393 1102.03,-335.287 1194.21,-338.81"/>
<polygon fill="#9a32cd" stroke="#9a32cd" points="502.687,-349.575 493.075,-354.032 503.368,-356.542 502.687,-349.575"/>
<text text-anchor="middle" x="784" y="-340" font-family="Helvetica,sans-Serif" font-size="10.00"> daughters</text>
</g>
<!-- Node7 -->
<g id="node12" class="node"><title>Node7</title>
<a xlink:href="classant_1_1_tree.html" target="_top" xlink:title="ant::Tree\&lt; T \&gt;">
<polygon fill="white" stroke="black" points="615,-370.5 615,-391.5 695,-391.5 695,-370.5 615,-370.5"/>
<text text-anchor="middle" x="655" y="-378.5" font-family="Helvetica,sans-Serif" font-size="10.00">ant::Tree&lt; T &gt;</text>
</a>
</g>
<!-- Node5&#45;&gt;Node7 -->
<g id="edge14" class="edge"><title>Node5&#45;&gt;Node7</title>
<path fill="none" stroke="#9a32cd" stroke-dasharray="5,2" d="M503.346,-364.752C525.479,-366.968 550.908,-369.554 574,-372 587.226,-373.401 601.66,-374.987 614.632,-376.433"/>
<polygon fill="#9a32cd" stroke="#9a32cd" points="503.399,-361.24 493.101,-363.73 502.704,-368.206 503.399,-361.24"/>
<text text-anchor="middle" x="551" y="-376" font-family="Helvetica,sans-Serif" font-size="10.00"> daughters</text>
</g>
<!-- Node6 -->
<g id="node10" class="node"><title>Node6</title>
<polygon fill="white" stroke="#bfbfbf" points="881.5,-352.5 881.5,-373.5 994.5,-373.5 994.5,-352.5 881.5,-352.5"/>
<text text-anchor="middle" x="938" y="-360.5" font-family="Helvetica,sans-Serif" font-size="10.00">std::weak_ptr&lt; Tree &gt;</text>
</g>
<!-- Node6&#45;&gt;Node4 -->
<g id="edge10" class="edge"><title>Node6&#45;&gt;Node4</title>
<path fill="none" stroke="#9a32cd" stroke-dasharray="5,2" d="M1004.83,-358.226C1061.73,-354.162 1142.29,-348.408 1194.35,-344.689"/>
<polygon fill="#9a32cd" stroke="#9a32cd" points="1004.58,-354.736 994.851,-358.939 1005.07,-361.718 1004.58,-354.736"/>
<text text-anchor="middle" x="1101" y="-373" font-family="Helvetica,sans-Serif" font-size="10.00"> parent</text>
<text text-anchor="middle" x="1101" y="-360" font-family="Helvetica,sans-Serif" font-size="10.00">self</text>
</g>
<!-- Node6&#45;&gt;Node7 -->
<g id="edge16" class="edge"><title>Node6&#45;&gt;Node7</title>
<path fill="none" stroke="#9a32cd" stroke-dasharray="5,2" d="M871.06,-355.223C831.567,-352.073 780.718,-350.515 736,-357 718.147,-359.589 698.75,-365.231 683.415,-370.394"/>
<polygon fill="#9a32cd" stroke="#9a32cd" points="870.843,-358.718 881.104,-356.078 871.437,-351.743 870.843,-358.718"/>
<text text-anchor="middle" x="784" y="-374" font-family="Helvetica,sans-Serif" font-size="10.00"> parent</text>
<text text-anchor="middle" x="784" y="-361" font-family="Helvetica,sans-Serif" font-size="10.00">self</text>
</g>
<!-- Node7&#45;&gt;Node6 -->
<g id="edge12" class="edge"><title>Node7&#45;&gt;Node6</title>
<path fill="none" stroke="#9a32cd" stroke-dasharray="5,2" d="M705.623,-385.329C715.681,-386.025 726.169,-386.636 736,-387 778.638,-388.577 789.597,-391.74 832,-387 832.809,-386.91 863.548,-379.943 891.714,-373.539"/>
<polygon fill="#9a32cd" stroke="#9a32cd" points="705.572,-381.816 695.344,-384.579 705.063,-388.797 705.572,-381.816"/>
<text text-anchor="middle" x="784" y="-393" font-family="Helvetica,sans-Serif" font-size="10.00"> ptr</text>
</g>
<!-- Node8 -->
<g id="node16" class="node"><title>Node8</title>
<polygon fill="white" stroke="#bfbfbf" points="430.5,-390.5 430.5,-411.5 459.5,-411.5 459.5,-390.5 430.5,-390.5"/>
<text text-anchor="middle" x="445" y="-398.5" font-family="Helvetica,sans-Serif" font-size="10.00">T</text>
</g>
<!-- Node8&#45;&gt;Node7 -->
<g id="edge18" class="edge"><title>Node8&#45;&gt;Node7</title>
<path fill="none" stroke="#9a32cd" stroke-dasharray="5,2" d="M469.826,-398.636C505.605,-395.228 572.061,-388.899 614.868,-384.822"/>
<polygon fill="#9a32cd" stroke="#9a32cd" points="469.39,-395.161 459.767,-399.594 470.054,-402.13 469.39,-395.161"/>
<text text-anchor="middle" x="551" y="-396" font-family="Helvetica,sans-Serif" font-size="10.00"> data</text>
</g>
<!-- Node24 -->
<g id="node48" class="node"><title>Node24</title>
<a xlink:title="STL class. ">
<polygon fill="white" stroke="#bfbfbf" points="611.5,-428.5 611.5,-449.5 698.5,-449.5 698.5,-428.5 611.5,-428.5"/>
<text text-anchor="middle" x="655" y="-436.5" font-family="Helvetica,sans-Serif" font-size="10.00">std::vector&lt; T &gt;</text>
</a>
</g>
<!-- Node8&#45;&gt;Node24 -->
<g id="edge52" class="edge"><title>Node8&#45;&gt;Node24</title>
<path fill="none" stroke="#9a32cd" stroke-dasharray="5,2" d="M470.017,-405.527C504.913,-411.841 568.72,-423.387 611.497,-431.128"/>
<polygon fill="#9a32cd" stroke="#9a32cd" points="470.23,-402.009 459.767,-403.672 468.984,-408.897 470.23,-402.009"/>
<text text-anchor="middle" x="551" y="-427" font-family="Helvetica,sans-Serif" font-size="10.00"> elements</text>
</g>
<!-- Node9 -->
<g id="node18" class="node"><title>Node9</title>
<a xlink:href="classant_1_1analysis_1_1utils_1_1_tree_fitter.html" target="_top" xlink:title="ant::analysis::utils\l::TreeFitter">
<polygon fill="white" stroke="black" points="1198,-466 1198,-500 1294,-500 1294,-466 1198,-466"/>
<text text-anchor="start" x="1206" y="-487" font-family="Helvetica,sans-Serif" font-size="10.00">ant::analysis::utils</text>
<text text-anchor="middle" x="1246" y="-474" font-family="Helvetica,sans-Serif" font-size="10.00">::TreeFitter</text>
</a>
</g>
<!-- Node9&#45;&gt;Node1 -->
<g id="edge92" class="edge"><title>Node9&#45;&gt;Node1</title>
<path fill="none" stroke="#9a32cd" stroke-dasharray="5,2" d="M1304.44,-482.24C1427.88,-480.023 1724.05,-471.47 1970,-439 2023.92,-431.881 2038.84,-433.47 2090,-415 2106.35,-409.098 2123.49,-400.04 2137.15,-392.035"/>
<polygon fill="#9a32cd" stroke="#9a32cd" points="1304.03,-478.747 1294.09,-482.418 1304.15,-485.745 1304.03,-478.747"/>
<text text-anchor="middle" x="1745" y="-481" font-family="Helvetica,sans-Serif" font-size="10.00"> treefitter_Pi0Eta</text>
<text text-anchor="middle" x="1745" y="-468" font-family="Helvetica,sans-Serif" font-size="10.00">treefitter_Pi0Pi0</text>
</g>
<!-- Node9&#45;&gt;Node3 -->
<g id="edge20" class="edge"><title>Node9&#45;&gt;Node3</title>
<path fill="none" stroke="#9a32cd" stroke-dasharray="5,2" d="M1303.86,-463.743C1313.84,-460.856 1324.16,-458.136 1334,-456 1411.09,-439.26 1431.89,-444.021 1510,-433 1519.98,-431.591 1530.53,-430.051 1540.86,-428.511"/>
<polygon fill="#9a32cd" stroke="#9a32cd" points="1302.61,-460.462 1294.03,-466.671 1304.61,-467.171 1302.61,-460.462"/>
<text text-anchor="middle" x="1422" y="-460" font-family="Helvetica,sans-Serif" font-size="10.00"> treefitter</text>
</g>
<!-- Node10 -->
<g id="node20" class="node"><title>Node10</title>
<a xlink:href="classant_1_1analysis_1_1utils_1_1_kin_fitter.html" target="_top" xlink:title="ant::analysis::utils\l::KinFitter">
<polygon fill="white" stroke="black" points="890,-616 890,-650 986,-650 986,-616 890,-616"/>
<text text-anchor="start" x="898" y="-637" font-family="Helvetica,sans-Serif" font-size="10.00">ant::analysis::utils</text>
<text text-anchor="middle" x="938" y="-624" font-family="Helvetica,sans-Serif" font-size="10.00">::KinFitter</text>
</a>
</g>
<!-- Node10&#45;&gt;Node1 -->
<g id="edge94" class="edge"><title>Node10&#45;&gt;Node1</title>
<path fill="none" stroke="#9a32cd" stroke-dasharray="5,2" d="M996.365,-632.396C1058.31,-631.807 1159.06,-631 1246,-631 1246,-631 1246,-631 1885,-631 2026.67,-631 2127.53,-449.593 2155.9,-392.194"/>
<polygon fill="#9a32cd" stroke="#9a32cd" points="995.98,-628.899 986.014,-632.495 996.047,-635.899 995.98,-628.899"/>
<text text-anchor="middle" x="1609" y="-635" font-family="Helvetica,sans-Serif" font-size="10.00"> kinfitter</text>
</g>
<!-- Node10&#45;&gt;Node9 -->
<g id="edge22" class="edge"><title>Node10&#45;&gt;Node9</title>
<path fill="none" stroke="midnightblue" d="M996.178,-623.314C1051.77,-613.339 1130.99,-597.028 1158,-581 1192.41,-560.577 1220.9,-522.281 1235.48,-500.091"/>
<polygon fill="midnightblue" stroke="midnightblue" points="995.326,-619.911 986.09,-625.102 996.547,-626.803 995.326,-619.911"/>
</g>
<!-- Node11 -->
<g id="node22" class="node"><title>Node11</title>
<a xlink:href="classant_1_1analysis_1_1utils_1_1_fitter.html" target="_top" xlink:title="ant::analysis::utils\l::Fitter">
<polygon fill="white" stroke="black" points="607,-588 607,-622 703,-622 703,-588 607,-588"/>
<text text-anchor="start" x="615" y="-609" font-family="Helvetica,sans-Serif" font-size="10.00">ant::analysis::utils</text>
<text text-anchor="middle" x="655" y="-596" font-family="Helvetica,sans-Serif" font-size="10.00">::Fitter</text>
</a>
</g>
<!-- Node11&#45;&gt;Node10 -->
<g id="edge24" class="edge"><title>Node11&#45;&gt;Node10</title>
<path fill="none" stroke="midnightblue" d="M713.108,-610.749C765.251,-615.908 840.884,-623.391 889.757,-628.227"/>
<polygon fill="midnightblue" stroke="midnightblue" points="713.303,-607.252 703.007,-609.75 712.614,-614.217 713.303,-607.252"/>
</g>
<!-- Node12 -->
<g id="node24" class="node"><title>Node12</title>
<a xlink:href="structant_1_1analysis_1_1utils_1_1_kin_fitter_1_1_beam_e__t.html" target="_top" xlink:title="ant::analysis::utils\l::KinFitter::BeamE_t">
<polygon fill="white" stroke="black" points="602,-640 602,-674 708,-674 708,-640 602,-640"/>
<text text-anchor="start" x="610" y="-661" font-family="Helvetica,sans-Serif" font-size="10.00">ant::analysis::utils</text>
<text text-anchor="middle" x="655" y="-648" font-family="Helvetica,sans-Serif" font-size="10.00">::KinFitter::BeamE_t</text>
</a>
</g>
<!-- Node12&#45;&gt;Node10 -->
<g id="edge26" class="edge"><title>Node12&#45;&gt;Node10</title>
<path fill="none" stroke="#9a32cd" stroke-dasharray="5,2" d="M718.316,-651.63C770.176,-647.232 842.457,-641.103 889.727,-637.094"/>
<polygon fill="#9a32cd" stroke="#9a32cd" points="717.899,-648.153 708.23,-652.486 718.49,-655.128 717.899,-648.153"/>
<text text-anchor="middle" x="784" y="-653" font-family="Helvetica,sans-Serif" font-size="10.00"> BeamE</text>
</g>
<!-- Node13 -->
<g id="node26" class="node"><title>Node13</title>
<a xlink:href="structant_1_1analysis_1_1utils_1_1_fitter_1_1_v___s___p__t.html" target="_top" xlink:title="ant::analysis::utils\l::Fitter::V_S_P_t">
<polygon fill="white" stroke="black" points="397,-640 397,-674 493,-674 493,-640 397,-640"/>
<text text-anchor="start" x="405" y="-661" font-family="Helvetica,sans-Serif" font-size="10.00">ant::analysis::utils</text>
<text text-anchor="middle" x="445" y="-648" font-family="Helvetica,sans-Serif" font-size="10.00">::Fitter::V_S_P_t</text>
</a>
</g>
<!-- Node13&#45;&gt;Node12 -->
<g id="edge28" class="edge"><title>Node13&#45;&gt;Node12</title>
<path fill="none" stroke="midnightblue" d="M503.366,-657C534.231,-657 571.843,-657 601.885,-657"/>
<polygon fill="midnightblue" stroke="midnightblue" points="503.178,-653.5 493.178,-657 503.178,-660.5 503.178,-653.5"/>
</g>
<!-- Node14 -->
<g id="node28" class="node"><title>Node14</title>
<a xlink:href="structant_1_1analysis_1_1utils_1_1_fitter_1_1_v___s__t.html" target="_top" xlink:title="ant::analysis::utils\l::Fitter::V_S_t">
<polygon fill="white" stroke="black" points="199,-640 199,-674 295,-674 295,-640 199,-640"/>
<text text-anchor="start" x="207" y="-661" font-family="Helvetica,sans-Serif" font-size="10.00">ant::analysis::utils</text>
<text text-anchor="middle" x="247" y="-648" font-family="Helvetica,sans-Serif" font-size="10.00">::Fitter::V_S_t</text>
</a>
</g>
<!-- Node14&#45;&gt;Node13 -->
<g id="edge30" class="edge"><title>Node14&#45;&gt;Node13</title>
<path fill="none" stroke="midnightblue" d="M305.243,-657C334.42,-657 369.32,-657 396.944,-657"/>
<polygon fill="midnightblue" stroke="midnightblue" points="305.183,-653.5 295.183,-657 305.183,-660.5 305.183,-653.5"/>
</g>
<!-- Node15 -->
<g id="node30" class="node"><title>Node15</title>
<polygon fill="white" stroke="#bfbfbf" points="592.5,-692.5 592.5,-713.5 717.5,-713.5 717.5,-692.5 592.5,-692.5"/>
<text text-anchor="middle" x="655" y="-700.5" font-family="Helvetica,sans-Serif" font-size="10.00">std::vector&lt; FitParticle &gt;</text>
</g>
<!-- Node15&#45;&gt;Node10 -->
<g id="edge32" class="edge"><title>Node15&#45;&gt;Node10</title>
<path fill="none" stroke="#9a32cd" stroke-dasharray="5,2" d="M722.368,-690.494C755.555,-683.933 796.063,-675.327 832,-666 851.122,-661.037 871.925,-654.758 889.997,-649.012"/>
<polygon fill="#9a32cd" stroke="#9a32cd" points="721.458,-687.105 712.317,-692.462 722.803,-693.975 721.458,-687.105"/>
<text text-anchor="middle" x="784" y="-691" font-family="Helvetica,sans-Serif" font-size="10.00"> Photons</text>
</g>
<!-- Node16 -->
<g id="node32" class="node"><title>Node16</title>
<polygon fill="white" stroke="#bfbfbf" points="885,-472.5 885,-493.5 991,-493.5 991,-472.5 885,-472.5"/>
<text text-anchor="middle" x="938" y="-480.5" font-family="Helvetica,sans-Serif" font-size="10.00">std::vector&lt; tree_t &gt;</text>
</g>
<!-- Node16&#45;&gt;Node9 -->
<g id="edge34" class="edge"><title>Node16&#45;&gt;Node9</title>
<path fill="none" stroke="#9a32cd" stroke-dasharray="5,2" d="M1001.5,-483C1059.84,-483 1145.03,-483 1197.91,-483"/>
<polygon fill="#9a32cd" stroke="#9a32cd" points="1001.3,-479.5 991.298,-483 1001.3,-486.5 1001.3,-479.5"/>
<text text-anchor="middle" x="1101" y="-487" font-family="Helvetica,sans-Serif" font-size="10.00"> tree_leaves</text>
</g>
<!-- Node17 -->
<g id="node34" class="node"><title>Node17</title>
<polygon fill="white" stroke="#bfbfbf" points="865,-564 865,-598 1011,-598 1011,-564 865,-564"/>
<text text-anchor="start" x="873" y="-585" font-family="Helvetica,sans-Serif" font-size="10.00">std::list&lt; ant::analysis</text>
<text text-anchor="middle" x="938" y="-572" font-family="Helvetica,sans-Serif" font-size="10.00">::utils::TreeFitter::iteration_t &gt;</text>
</g>
<!-- Node17&#45;&gt;Node9 -->
<g id="edge36" class="edge"><title>Node17&#45;&gt;Node9</title>
<path fill="none" stroke="#9a32cd" stroke-dasharray="5,2" d="M1021.08,-568.981C1063.01,-561.397 1114.15,-549.795 1158,-533 1180.32,-524.453 1203.76,-510.876 1220.83,-500.025"/>
<polygon fill="#9a32cd" stroke="#9a32cd" points="1020.42,-565.544 1011.18,-570.729 1021.64,-572.437 1020.42,-565.544"/>
<text text-anchor="middle" x="1101" y="-568" font-family="Helvetica,sans-Serif" font-size="10.00"> iterations</text>
</g>
<!-- Node18 -->
<g id="node36" class="node"><title>Node18</title>
<a xlink:href="structant_1_1analysis_1_1utils_1_1_tree_fitter_1_1iteration__t.html" target="_top" xlink:title="ant::analysis::utils\l::TreeFitter::iteration_t">
<polygon fill="white" stroke="black" points="598.5,-536 598.5,-570 711.5,-570 711.5,-536 598.5,-536"/>
<text text-anchor="start" x="606.5" y="-557" font-family="Helvetica,sans-Serif" font-size="10.00">ant::analysis::utils</text>
<text text-anchor="middle" x="655" y="-544" font-family="Helvetica,sans-Serif" font-size="10.00">::TreeFitter::iteration_t</text>
</a>
</g>
<!-- Node18&#45;&gt;Node17 -->
<g id="edge38" class="edge"><title>Node18&#45;&gt;Node17</title>
<path fill="none" stroke="#9a32cd" stroke-dasharray="5,2" d="M721.669,-559.596C764.67,-563.851 820.616,-569.386 864.84,-573.762"/>
<polygon fill="#9a32cd" stroke="#9a32cd" points="721.885,-556.101 711.589,-558.599 721.196,-563.067 721.885,-556.101"/>
<text text-anchor="middle" x="784" y="-574" font-family="Helvetica,sans-Serif" font-size="10.00"> elements</text>
</g>
<!-- Node19 -->
<g id="node38" class="node"><title>Node19</title>
<polygon fill="white" stroke="#bfbfbf" points="380.5,-529.5 380.5,-576.5 509.5,-576.5 509.5,-529.5 380.5,-529.5"/>
<text text-anchor="start" x="388.5" y="-563.5" font-family="Helvetica,sans-Serif" font-size="10.00">std::vector&lt; ant::analysis</text>
<text text-anchor="start" x="388.5" y="-550.5" font-family="Helvetica,sans-Serif" font-size="10.00">::utils::TreeFitter::iteration</text>
<text text-anchor="middle" x="445" y="-537.5" font-family="Helvetica,sans-Serif" font-size="10.00">_t::photon_t &gt;</text>
</g>
<!-- Node19&#45;&gt;Node18 -->
<g id="edge40" class="edge"><title>Node19&#45;&gt;Node18</title>
<path fill="none" stroke="#9a32cd" stroke-dasharray="5,2" d="M519.85,-553C545.682,-553 574.174,-553 598.31,-553"/>
<polygon fill="#9a32cd" stroke="#9a32cd" points="519.72,-549.5 509.72,-553 519.72,-556.5 519.72,-549.5"/>
<text text-anchor="middle" x="551" y="-557" font-family="Helvetica,sans-Serif" font-size="10.00"> Photons</text>
</g>
<!-- Node20 -->
<g id="node40" class="node"><title>Node20</title>
<a xlink:href="structant_1_1analysis_1_1utils_1_1_tree_fitter_1_1iteration__t_1_1photon__t.html" target="_top" xlink:title="ant::analysis::utils\l::TreeFitter::iteration\l_t::photon_t">
<polygon fill="white" stroke="black" points="194.5,-529.5 194.5,-576.5 299.5,-576.5 299.5,-529.5 194.5,-529.5"/>
<text text-anchor="start" x="202.5" y="-563.5" font-family="Helvetica,sans-Serif" font-size="10.00">ant::analysis::utils</text>
<text text-anchor="start" x="202.5" y="-550.5" font-family="Helvetica,sans-Serif" font-size="10.00">::TreeFitter::iteration</text>
<text text-anchor="middle" x="247" y="-537.5" font-family="Helvetica,sans-Serif" font-size="10.00">_t::photon_t</text>
</a>
</g>
<!-- Node20&#45;&gt;Node19 -->
<g id="edge42" class="edge"><title>Node20&#45;&gt;Node19</title>
<path fill="none" stroke="#9a32cd" stroke-dasharray="5,2" d="M309.645,-553C332.127,-553 357.513,-553 380.176,-553"/>
<polygon fill="#9a32cd" stroke="#9a32cd" points="309.541,-549.5 299.541,-553 309.54,-556.5 309.541,-549.5"/>
<text text-anchor="middle" x="340" y="-557" font-family="Helvetica,sans-Serif" font-size="10.00"> elements</text>
</g>
<!-- Node21 -->
<g id="node42" class="node"><title>Node21</title>
<a xlink:href="structant_1_1std__ext_1_1cc__shared__ptr.html" target="_top" xlink:title="ant::std_ext::cc_shared\l_ptr\&lt; TParticle \&gt;">
<polygon fill="white" stroke="black" points="0.5,-536 0.5,-570 119.5,-570 119.5,-536 0.5,-536"/>
<text text-anchor="start" x="8.5" y="-557" font-family="Helvetica,sans-Serif" font-size="10.00">ant::std_ext::cc_shared</text>
<text text-anchor="middle" x="60" y="-544" font-family="Helvetica,sans-Serif" font-size="10.00">_ptr&lt; TParticle &gt;</text>
</a>
</g>
<!-- Node21&#45;&gt;Node20 -->
<g id="edge44" class="edge"><title>Node21&#45;&gt;Node20</title>
<path fill="none" stroke="#9a32cd" stroke-dasharray="5,2" d="M129.965,-553C151.239,-553 174.251,-553 194.194,-553"/>
<polygon fill="#9a32cd" stroke="#9a32cd" points="129.682,-549.5 119.682,-553 129.682,-556.5 129.682,-549.5"/>
<text text-anchor="middle" x="157" y="-557" font-family="Helvetica,sans-Serif" font-size="10.00"> Particle</text>
</g>
<!-- Node22 -->
<g id="node44" class="node"><title>Node22</title>
<polygon fill="white" stroke="#bfbfbf" points="875,-512 875,-546 1001,-546 1001,-512 875,-512"/>
<text text-anchor="start" x="883" y="-533" font-family="Helvetica,sans-Serif" font-size="10.00">std::vector&lt; std::function</text>
<text text-anchor="middle" x="938" y="-520" font-family="Helvetica,sans-Serif" font-size="10.00">&lt; void()&gt; &gt;</text>
</g>
<!-- Node22&#45;&gt;Node9 -->
<g id="edge46" class="edge"><title>Node22&#45;&gt;Node9</title>
<path fill="none" stroke="#9a32cd" stroke-dasharray="5,2" d="M1011.27,-520.454C1054.14,-515.177 1109.24,-507.916 1158,-500 1170.9,-497.905 1184.81,-495.355 1197.68,-492.874"/>
<polygon fill="#9a32cd" stroke="#9a32cd" points="1010.71,-516.997 1001.21,-521.684 1011.56,-523.945 1010.71,-516.997"/>
<text text-anchor="middle" x="1101" y="-520" font-family="Helvetica,sans-Serif" font-size="10.00"> sum_daughters</text>
</g>
<!-- Node23 -->
<g id="node46" class="node"><title>Node23</title>
<polygon fill="white" stroke="#bfbfbf" points="868,-392.5 868,-413.5 1008,-413.5 1008,-392.5 868,-392.5"/>
<text text-anchor="middle" x="938" y="-400.5" font-family="Helvetica,sans-Serif" font-size="10.00">std::vector&lt; permutation_t &gt;</text>
</g>
<!-- Node23&#45;&gt;Node9 -->
<g id="edge48" class="edge"><title>Node23&#45;&gt;Node9</title>
<path fill="none" stroke="#9a32cd" stroke-dasharray="5,2" d="M1018.32,-407.81C1060.7,-412.051 1113.09,-420.022 1158,-435 1180.29,-442.433 1203.54,-455.374 1220.54,-465.948"/>
<polygon fill="#9a32cd" stroke="#9a32cd" points="1018.62,-404.323 1008.33,-406.861 1017.95,-411.291 1018.62,-404.323"/>
<text text-anchor="middle" x="1101" y="-439" font-family="Helvetica,sans-Serif" font-size="10.00"> permutations</text>
</g>
<!-- Node24&#45;&gt;Node23 -->
<g id="edge50" class="edge"><title>Node24&#45;&gt;Node23</title>
<path fill="none" stroke="#9a32cd" stroke-dasharray="5,2" d="M708.772,-432.16C753.908,-426.418 818.715,-418.174 867.913,-411.916"/>
<polygon fill="#9a32cd" stroke="#9a32cd" points="708.077,-428.72 698.599,-433.454 708.96,-435.664 708.077,-428.72"/>
<text text-anchor="middle" x="784" y="-432" font-family="Helvetica,sans-Serif" font-size="10.00"> elements</text>
</g>
<!-- Node25 -->
<g id="node51" class="node"><title>Node25</title>
<polygon fill="white" stroke="#bfbfbf" points="859,-432.5 859,-453.5 1017,-453.5 1017,-432.5 859,-432.5"/>
<text text-anchor="middle" x="938" y="-440.5" font-family="Helvetica,sans-Serif" font-size="10.00">std::vector&lt; node_constraint_t &gt;</text>
</g>
<!-- Node25&#45;&gt;Node9 -->
<g id="edge54" class="edge"><title>Node25&#45;&gt;Node9</title>
<path fill="none" stroke="#9a32cd" stroke-dasharray="5,2" d="M1027.14,-450.55C1067.24,-454.4 1115.1,-459.626 1158,-466 1170.93,-467.921 1184.85,-470.412 1197.71,-472.891"/>
<polygon fill="#9a32cd" stroke="#9a32cd" points="1027.41,-447.059 1017.12,-449.6 1026.75,-454.028 1027.41,-447.059"/>
<text text-anchor="middle" x="1101" y="-470" font-family="Helvetica,sans-Serif" font-size="10.00"> node_constraints</text>
</g>
<!-- Node26 -->
<g id="node53" class="node"><title>Node26</title>
<a xlink:href="structant_1_1analysis_1_1physics_1_1_etap_omega_g_1_1_sig__t_1_1_pi0__t_1_1_tree__t.html" target="_top" xlink:title="ant::analysis::physics\l::EtapOmegaG::Sig_t::Pi0\l_t::Tree_t">
<polygon fill="white" stroke="black" points="1543.5,-276.5 1543.5,-323.5 1674.5,-323.5 1674.5,-276.5 1543.5,-276.5"/>
<text text-anchor="start" x="1551.5" y="-310.5" font-family="Helvetica,sans-Serif" font-size="10.00">ant::analysis::physics</text>
<text text-anchor="start" x="1551.5" y="-297.5" font-family="Helvetica,sans-Serif" font-size="10.00">::EtapOmegaG::Sig_t::Pi0</text>
<text text-anchor="middle" x="1609" y="-284.5" font-family="Helvetica,sans-Serif" font-size="10.00">_t::Tree_t</text>
</a>
</g>
<!-- Node26&#45;&gt;Node2 -->
<g id="edge56" class="edge"><title>Node26&#45;&gt;Node2</title>
<path fill="none" stroke="#9a32cd" stroke-dasharray="5,2" d="M1644.69,-329.648C1662.72,-343.339 1685.5,-358.786 1708,-369 1741.88,-384.38 1781.94,-394.911 1815.38,-401.804"/>
<polygon fill="#9a32cd" stroke="#9a32cd" points="1646.81,-326.862 1636.76,-323.506 1642.53,-332.396 1646.81,-326.862"/>
<text text-anchor="middle" x="1745" y="-397" font-family="Helvetica,sans-Serif" font-size="10.00"> t</text>
</g>
<!-- Node27 -->
<g id="node55" class="node"><title>Node27</title>
<a xlink:href="structant_1_1analysis_1_1physics_1_1_etap_omega_g_1_1_sig__t_1_1_fit__t_1_1_base_tree__t.html" target="_top" xlink:title="ant::analysis::physics\l::EtapOmegaG::Sig_t::Fit\l_t::BaseTree_t">
<polygon fill="white" stroke="black" points="1182,-210.5 1182,-257.5 1310,-257.5 1310,-210.5 1182,-210.5"/>
<text text-anchor="start" x="1190" y="-244.5" font-family="Helvetica,sans-Serif" font-size="10.00">ant::analysis::physics</text>
<text text-anchor="start" x="1190" y="-231.5" font-family="Helvetica,sans-Serif" font-size="10.00">::EtapOmegaG::Sig_t::Fit</text>
<text text-anchor="middle" x="1246" y="-218.5" font-family="Helvetica,sans-Serif" font-size="10.00">_t::BaseTree_t</text>
</a>
</g>
<!-- Node27&#45;&gt;Node26 -->
<g id="edge58" class="edge"><title>Node27&#45;&gt;Node26</title>
<path fill="none" stroke="midnightblue" d="M1320.4,-245.943C1385.37,-256.458 1474.66,-271.133 1510,-278 1520.8,-280.099 1532.23,-282.484 1543.34,-284.891"/>
<polygon fill="midnightblue" stroke="midnightblue" points="1320.62,-242.434 1310.19,-244.293 1319.5,-249.344 1320.62,-242.434"/>
</g>
<!-- Node43 -->
<g id="node94" class="node"><title>Node43</title>
<a xlink:href="structant_1_1analysis_1_1physics_1_1_etap_omega_g_1_1_sig__t_1_1_omega_pi0__t_1_1_tree__t.html" target="_top" xlink:title="ant::analysis::physics\l::EtapOmegaG::Sig_t::OmegaPi0\l_t::Tree_t">
<polygon fill="white" stroke="black" points="1528,-210.5 1528,-257.5 1690,-257.5 1690,-210.5 1528,-210.5"/>
<text text-anchor="start" x="1536" y="-244.5" font-family="Helvetica,sans-Serif" font-size="10.00">ant::analysis::physics</text>
<text text-anchor="start" x="1536" y="-231.5" font-family="Helvetica,sans-Serif" font-size="10.00">::EtapOmegaG::Sig_t::OmegaPi0</text>
<text text-anchor="middle" x="1609" y="-218.5" font-family="Helvetica,sans-Serif" font-size="10.00">_t::Tree_t</text>
</a>
</g>
<!-- Node27&#45;&gt;Node43 -->
<g id="edge106" class="edge"><title>Node27&#45;&gt;Node43</title>
<path fill="none" stroke="midnightblue" d="M1320.28,-234C1380.63,-234 1465.63,-234 1527.77,-234"/>
<polygon fill="midnightblue" stroke="midnightblue" points="1320.06,-230.5 1310.06,-234 1320.06,-237.5 1320.06,-230.5"/>
</g>
<!-- Node28 -->
<g id="node57" class="node"><title>Node28</title>
<a xlink:href="structant_1_1analysis_1_1physics_1_1_etap_omega_g_1_1_proton_photon_tree__t.html" target="_top" xlink:title="ant::analysis::physics\l::EtapOmegaG::ProtonPhotonTree_t">
<polygon fill="white" stroke="black" points="850.5,-217 850.5,-251 1025.5,-251 1025.5,-217 850.5,-217"/>
<text text-anchor="start" x="858.5" y="-238" font-family="Helvetica,sans-Serif" font-size="10.00">ant::analysis::physics</text>
<text text-anchor="middle" x="938" y="-225" font-family="Helvetica,sans-Serif" font-size="10.00">::EtapOmegaG::ProtonPhotonTree_t</text>
</a>
</g>
<!-- Node28&#45;&gt;Node27 -->
<g id="edge60" class="edge"><title>Node28&#45;&gt;Node27</title>
<path fill="none" stroke="midnightblue" d="M1035.87,-234C1083.48,-234 1139.37,-234 1181.54,-234"/>
<polygon fill="midnightblue" stroke="midnightblue" points="1035.85,-230.5 1025.85,-234 1035.85,-237.5 1035.85,-230.5"/>
</g>
<!-- Node29 -->
<g id="node59" class="node"><title>Node29</title>
<a xlink:href="classant_1_1_wrap_t_tree.html" target="_top" xlink:title="The WrapTTree struct simplifies TTree handling in physics classes. ">
<polygon fill="white" stroke="black" points="612.5,-223.5 612.5,-244.5 697.5,-244.5 697.5,-223.5 612.5,-223.5"/>
<text text-anchor="middle" x="655" y="-231.5" font-family="Helvetica,sans-Serif" font-size="10.00">ant::WrapTTree</text>
</a>
</g>
<!-- Node29&#45;&gt;Node28 -->
<g id="edge62" class="edge"><title>Node29&#45;&gt;Node28</title>
<path fill="none" stroke="midnightblue" d="M707.751,-234C747.782,-234 803.706,-234 850.414,-234"/>
<polygon fill="midnightblue" stroke="midnightblue" points="707.674,-230.5 697.674,-234 707.674,-237.5 707.674,-230.5"/>
</g>
<!-- Node31 -->
<g id="node63" class="node"><title>Node31</title>
<a xlink:href="structant_1_1analysis_1_1utils_1_1_m_c_weighting_1_1tree__t.html" target="_top" xlink:title="ant::analysis::utils\l::MCWeighting::tree_t">
<polygon fill="white" stroke="black" points="1044.5,-167 1044.5,-201 1157.5,-201 1157.5,-167 1044.5,-167"/>
<text text-anchor="start" x="1052.5" y="-188" font-family="Helvetica,sans-Serif" font-size="10.00">ant::analysis::utils</text>
<text text-anchor="middle" x="1101" y="-175" font-family="Helvetica,sans-Serif" font-size="10.00">::MCWeighting::tree_t</text>
</a>
</g>
<!-- Node29&#45;&gt;Node31 -->
<g id="edge68" class="edge"><title>Node29&#45;&gt;Node31</title>
<path fill="none" stroke="midnightblue" d="M707.667,-226.438C746.869,-220.94 801.719,-213.525 850,-208 916.542,-200.385 993.201,-193.3 1044.12,-188.831"/>
<polygon fill="midnightblue" stroke="midnightblue" points="706.962,-223.002 697.548,-227.863 707.938,-229.934 706.962,-223.002"/>
</g>
<!-- Node41 -->
<g id="node88" class="node"><title>Node41</title>
<a xlink:href="structant_1_1analysis_1_1physics_1_1_etap_omega_g_1_1_sig__t_1_1_shared_tree__t.html" target="_top" xlink:title="ant::analysis::physics\l::EtapOmegaG::Sig_t::SharedTree_t">
<polygon fill="white" stroke="black" points="1334.5,-281 1334.5,-315 1509.5,-315 1509.5,-281 1334.5,-281"/>
<text text-anchor="start" x="1342.5" y="-302" font-family="Helvetica,sans-Serif" font-size="10.00">ant::analysis::physics</text>
<text text-anchor="middle" x="1422" y="-289" font-family="Helvetica,sans-Serif" font-size="10.00">::EtapOmegaG::Sig_t::SharedTree_t</text>
</a>
</g>
<!-- Node29&#45;&gt;Node41 -->
<g id="edge98" class="edge"><title>Node29&#45;&gt;Node41</title>
<path fill="none" stroke="midnightblue" d="M707.806,-243.647C717.18,-245.211 726.865,-246.731 736,-248 786.462,-255.009 799.24,-255.644 850,-260 1021.3,-274.7 1221.88,-286.865 1334.22,-293.222"/>
<polygon fill="midnightblue" stroke="midnightblue" points="708.241,-240.171 697.795,-241.942 707.066,-247.071 708.241,-240.171"/>
</g>
<!-- Node30 -->
<g id="node61" class="node"><title>Node30</title>
<a xlink:href="classant_1_1analysis_1_1utils_1_1_m_c_weighting.html" target="_top" xlink:title="ant::analysis::utils\l::MCWeighting">
<polygon fill="white" stroke="black" points="1837,-127 1837,-161 1933,-161 1933,-127 1837,-127"/>
<text text-anchor="start" x="1845" y="-148" font-family="Helvetica,sans-Serif" font-size="10.00">ant::analysis::utils</text>
<text text-anchor="middle" x="1885" y="-135" font-family="Helvetica,sans-Serif" font-size="10.00">::MCWeighting</text>
</a>
</g>
<!-- Node30&#45;&gt;Node1 -->
<g id="edge64" class="edge"><title>Node30&#45;&gt;Node1</title>
<path fill="none" stroke="#9a32cd" stroke-dasharray="5,2" d="M1922.06,-166.615C1964.69,-193.456 2035.76,-240.808 2090,-290 2113.62,-311.426 2137.16,-340.027 2151.15,-357.98"/>
<polygon fill="#9a32cd" stroke="#9a32cd" points="1923.75,-163.541 1913.41,-161.205 1920.04,-169.476 1923.75,-163.541"/>
<text text-anchor="middle" x="2039" y="-294" font-family="Helvetica,sans-Serif" font-size="10.00"> mcWeightingEtaPrime</text>
</g>
<!-- Node31&#45;&gt;Node30 -->
<g id="edge66" class="edge"><title>Node31&#45;&gt;Node30</title>
<path fill="none" stroke="#9a32cd" stroke-dasharray="5,2" d="M1167.93,-183.594C1290.14,-182.374 1557.51,-177.495 1782,-158 1799.98,-156.439 1819.63,-153.961 1836.9,-151.521"/>
<polygon fill="#9a32cd" stroke="#9a32cd" points="1167.58,-180.097 1157.62,-183.691 1167.65,-187.096 1167.58,-180.097"/>
<text text-anchor="middle" x="1422" y="-185" font-family="Helvetica,sans-Serif" font-size="10.00"> t</text>
</g>
<!-- Node32 -->
<g id="node66" class="node"><title>Node32</title>
<a xlink:href="structant_1_1analysis_1_1utils_1_1_m_c_weighting_1_1item__t.html" target="_top" xlink:title="ant::analysis::utils\l::MCWeighting::item_t">
<polygon fill="white" stroke="black" points="1551.5,-54 1551.5,-88 1666.5,-88 1666.5,-54 1551.5,-54"/>
<text text-anchor="start" x="1559.5" y="-75" font-family="Helvetica,sans-Serif" font-size="10.00">ant::analysis::utils</text>
<text text-anchor="middle" x="1609" y="-62" font-family="Helvetica,sans-Serif" font-size="10.00">::MCWeighting::item_t</text>
</a>
</g>
<!-- Node32&#45;&gt;Node30 -->
<g id="edge70" class="edge"><title>Node32&#45;&gt;Node30</title>
<path fill="none" stroke="#9a32cd" stroke-dasharray="5,2" d="M1677.08,-65.6028C1709.53,-65.0695 1748.5,-67.447 1782,-78 1814.01,-88.0816 1845.74,-110.859 1865.34,-126.821"/>
<polygon fill="#9a32cd" stroke="#9a32cd" points="1676.69,-62.1117 1666.78,-65.8715 1676.87,-69.1093 1676.69,-62.1117"/>
<text text-anchor="middle" x="1745" y="-121" font-family="Helvetica,sans-Serif" font-size="10.00"> Item</text>
<text text-anchor="middle" x="1745" y="-108" font-family="Helvetica,sans-Serif" font-size="10.00">EtaPrime</text>
<text text-anchor="middle" x="1745" y="-95" font-family="Helvetica,sans-Serif" font-size="10.00">Pi0</text>
<text text-anchor="middle" x="1745" y="-82" font-family="Helvetica,sans-Serif" font-size="10.00">Omega</text>
</g>
<!-- Node33 -->
<g id="node68" class="node"><title>Node33</title>
<polygon fill="white" stroke="#bfbfbf" points="1176,-11.5 1176,-32.5 1316,-32.5 1316,-11.5 1176,-11.5"/>
<text text-anchor="middle" x="1246" y="-19.5" font-family="Helvetica,sans-Serif" font-size="10.00">std::vector&lt; coefficients_t &gt;</text>
</g>
<!-- Node33&#45;&gt;Node32 -->
<g id="edge72" class="edge"><title>Node33&#45;&gt;Node32</title>
<path fill="none" stroke="#9a32cd" stroke-dasharray="5,2" d="M1326.47,-29.5321C1378.88,-34.8341 1448.65,-42.6415 1510,-52 1523.41,-54.0454 1537.77,-56.5937 1551.28,-59.153"/>
<polygon fill="#9a32cd" stroke="#9a32cd" points="1326.53,-26.0204 1316.23,-28.5053 1325.83,-32.9855 1326.53,-26.0204"/>
<text text-anchor="middle" x="1422" y="-56" font-family="Helvetica,sans-Serif" font-size="10.00"> Database</text>
</g>
<!-- Node34 -->
<g id="node70" class="node"><title>Node34</title>
<polygon fill="white" stroke="#bfbfbf" points="865,-5 865,-39 1011,-39 1011,-5 865,-5"/>
<text text-anchor="start" x="873" y="-26" font-family="Helvetica,sans-Serif" font-size="10.00">ant::analysis::utils</text>
<text text-anchor="middle" x="938" y="-13" font-family="Helvetica,sans-Serif" font-size="10.00">::MCWeighting::coefficients_t</text>
</g>
<!-- Node34&#45;&gt;Node33 -->
<g id="edge74" class="edge"><title>Node34&#45;&gt;Node33</title>
<path fill="none" stroke="#9a32cd" stroke-dasharray="5,2" d="M1021.51,-22C1069.83,-22 1129.96,-22 1175.83,-22"/>
<polygon fill="#9a32cd" stroke="#9a32cd" points="1021.38,-18.5001 1011.38,-22 1021.38,-25.5001 1021.38,-18.5001"/>
<text text-anchor="middle" x="1101" y="-26" font-family="Helvetica,sans-Serif" font-size="10.00"> elements</text>
</g>
<!-- Node35 -->
<g id="node72" class="node"><title>Node35</title>
<a xlink:href="classant_1_1interval.html" target="_top" xlink:title="ant::interval\&lt; double \&gt;">
<polygon fill="white" stroke="black" points="598,-40.5 598,-61.5 712,-61.5 712,-40.5 598,-40.5"/>
<text text-anchor="middle" x="655" y="-48.5" font-family="Helvetica,sans-Serif" font-size="10.00">ant::interval&lt; double &gt;</text>
</a>
</g>
<!-- Node35&#45;&gt;Node34 -->
<g id="edge76" class="edge"><title>Node35&#45;&gt;Node34</title>
<path fill="none" stroke="#9a32cd" stroke-dasharray="5,2" d="M722.339,-44.0996C765.276,-39.6996 820.914,-33.9982 864.922,-29.4885"/>
<polygon fill="#9a32cd" stroke="#9a32cd" points="721.86,-40.6302 712.269,-45.1314 722.574,-47.5937 721.86,-40.6302"/>
<text text-anchor="middle" x="784" y="-47" font-family="Helvetica,sans-Serif" font-size="10.00"> BeamE</text>
</g>
<!-- Node36 -->
<g id="node74" class="node"><title>Node36</title>
<polygon fill="white" stroke="#bfbfbf" points="600,-0.5 600,-21.5 710,-21.5 710,-0.5 600,-0.5"/>
<text text-anchor="middle" x="655" y="-8.5" font-family="Helvetica,sans-Serif" font-size="10.00">std::vector&lt; double &gt;</text>
</g>
<!-- Node36&#45;&gt;Node34 -->
<g id="edge78" class="edge"><title>Node36&#45;&gt;Node34</title>
<path fill="none" stroke="#9a32cd" stroke-dasharray="5,2" d="M720.138,-12.3994C753.583,-13.2297 794.98,-14.4297 832,-16 842.589,-16.4492 853.769,-16.9992 864.74,-17.5823"/>
<polygon fill="#9a32cd" stroke="#9a32cd" points="720.109,-8.89776 710.027,-12.1536 719.939,-15.8957 720.109,-8.89776"/>
<text text-anchor="middle" x="784" y="-20" font-family="Helvetica,sans-Serif" font-size="10.00"> LegendreCoefficients</text>
</g>
<!-- Node37 -->
<g id="node76" class="node"><title>Node37</title>
<a xlink:href="classant_1_1_particle_type_database_1_1_type.html" target="_top" xlink:title="ant::ParticleTypeDatabase\l::Type">
<polygon fill="white" stroke="black" points="1179.5,-51 1179.5,-85 1312.5,-85 1312.5,-51 1179.5,-51"/>
<text text-anchor="start" x="1187.5" y="-72" font-family="Helvetica,sans-Serif" font-size="10.00">ant::ParticleTypeDatabase</text>
<text text-anchor="middle" x="1246" y="-59" font-family="Helvetica,sans-Serif" font-size="10.00">::Type</text>
</a>
</g>
<!-- Node37&#45;&gt;Node32 -->
<g id="edge80" class="edge"><title>Node37&#45;&gt;Node32</title>
<path fill="none" stroke="#9a32cd" stroke-dasharray="5,2" d="M1322.85,-68.6351C1391.13,-69.1994 1489.43,-70.0118 1551.22,-70.5225"/>
<polygon fill="#9a32cd" stroke="#9a32cd" points="1322.61,-65.1331 1312.58,-68.5502 1322.55,-72.1329 1322.61,-65.1331"/>
<text text-anchor="middle" x="1422" y="-75" font-family="Helvetica,sans-Serif" font-size="10.00"> Type</text>
</g>
<!-- Node37&#45;&gt;Node37 -->
<g id="edge86" class="edge"><title>Node37&#45;&gt;Node37</title>
<path fill="none" stroke="#9a32cd" stroke-dasharray="5,2" d="M1220.92,-95.3176C1224.44,-99.8645 1232.8,-103 1246,-103 1267.66,-103 1276.28,-94.5562 1271.89,-85.2878"/>
<polygon fill="#9a32cd" stroke="#9a32cd" points="1224.41,-94.9742 1220.11,-85.2878 1217.43,-95.5367 1224.41,-94.9742"/>
<text text-anchor="middle" x="1246" y="-107" font-family="Helvetica,sans-Serif" font-size="10.00"> sametype</text>
</g>
<!-- Node38 -->
<g id="node78" class="node"><title>Node38</title>
<a xlink:title="STL class. ">
<polygon fill="white" stroke="#bfbfbf" points="908,-109.5 908,-130.5 968,-130.5 968,-109.5 908,-109.5"/>
<text text-anchor="middle" x="938" y="-117.5" font-family="Helvetica,sans-Serif" font-size="10.00">std::string</text>
</a>
</g>
<!-- Node38&#45;&gt;Node30 -->
<g id="edge88" class="edge"><title>Node38&#45;&gt;Node30</title>
<path fill="none" stroke="#9a32cd" stroke-dasharray="5,2" d="M978.301,-124.542C998.071,-126.581 1022.25,-128.795 1044,-130 1345.08,-146.683 1707.65,-145.561 1836.6,-144.503"/>
<polygon fill="#9a32cd" stroke="#9a32cd" points="978.421,-121.035 968.109,-123.466 977.687,-127.997 978.421,-121.035"/>
<text text-anchor="middle" x="1422" y="-148" font-family="Helvetica,sans-Serif" font-size="10.00"> treeName</text>
</g>
<!-- Node38&#45;&gt;Node37 -->
<g id="edge82" class="edge"><title>Node38&#45;&gt;Node37</title>
<path fill="none" stroke="#9a32cd" stroke-dasharray="5,2" d="M978.085,-113.232C1029.15,-104.612 1118.11,-89.5921 1179.42,-79.2403"/>
<polygon fill="#9a32cd" stroke="#9a32cd" points="977.371,-109.803 968.093,-114.919 978.536,-116.706 977.371,-109.803"/>
<text text-anchor="middle" x="1101" y="-119" font-family="Helvetica,sans-Serif" font-size="10.00"> print_name</text>
<text text-anchor="middle" x="1101" y="-106" font-family="Helvetica,sans-Serif" font-size="10.00">name</text>
</g>
<!-- Node39 -->
<g id="node80" class="node"><title>Node39</title>
<a xlink:title="STL class. ">
<polygon fill="white" stroke="#bfbfbf" points="607.5,-103 607.5,-137 702.5,-137 702.5,-103 607.5,-103"/>
<text text-anchor="start" x="615.5" y="-124" font-family="Helvetica,sans-Serif" font-size="10.00">std::basic_string&lt;</text>
<text text-anchor="middle" x="655" y="-111" font-family="Helvetica,sans-Serif" font-size="10.00"> char &gt;</text>
</a>
</g>
<!-- Node39&#45;&gt;Node38 -->
<g id="edge84" class="edge"><title>Node39&#45;&gt;Node38</title>
<path fill="none" stroke="midnightblue" d="M713.004,-120C772.194,-120 861.731,-120 907.984,-120"/>
<polygon fill="midnightblue" stroke="midnightblue" points="712.687,-116.5 702.687,-120 712.687,-123.5 712.687,-116.5"/>
</g>
<!-- Node40 -->
<g id="node84" class="node"><title>Node40</title>
<a xlink:href="classant_1_1analysis_1_1_histogram_factory.html" target="_top" xlink:title="ant::analysis::Histogram\lFactory">
<polygon fill="white" stroke="black" points="1547.5,-2 1547.5,-36 1670.5,-36 1670.5,-2 1547.5,-2"/>
<text text-anchor="start" x="1555.5" y="-23" font-family="Helvetica,sans-Serif" font-size="10.00">ant::analysis::Histogram</text>
<text text-anchor="middle" x="1609" y="-10" font-family="Helvetica,sans-Serif" font-size="10.00">Factory</text>
</a>
</g>
<!-- Node40&#45;&gt;Node30 -->
<g id="edge90" class="edge"><title>Node40&#45;&gt;Node30</title>
<path fill="none" stroke="#9a32cd" stroke-dasharray="5,2" d="M1681.1,-22.8528C1713.29,-26.8137 1750.89,-34.6444 1782,-50 1819.77,-68.6453 1853.78,-105.37 1871.69,-126.984"/>
<polygon fill="#9a32cd" stroke="#9a32cd" points="1681.19,-19.3401 1670.86,-21.6982 1680.4,-26.2961 1681.19,-19.3401"/>
<text text-anchor="middle" x="1745" y="-54" font-family="Helvetica,sans-Serif" font-size="10.00"> HistFac</text>
</g>
<!-- Node41&#45;&gt;Node1 -->
<g id="edge96" class="edge"><title>Node41&#45;&gt;Node1</title>
<path fill="none" stroke="#9a32cd" stroke-dasharray="5,2" d="M1498.02,-318.386C1502.1,-319.857 1506.12,-321.396 1510,-323 1518.46,-326.496 1519.22,-330.414 1528,-333 1541.83,-337.075 1955.01,-362.372 2107.87,-371.62"/>
<polygon fill="#9a32cd" stroke="#9a32cd" points="1498.99,-315.02 1488.4,-315.08 1496.72,-321.64 1498.99,-315.02"/>
<text text-anchor="middle" x="1745" y="-356" font-family="Helvetica,sans-Serif" font-size="10.00"> t</text>
</g>
<!-- Node42&#45;&gt;Node1 -->
<g id="edge100" class="edge"><title>Node42&#45;&gt;Node1</title>
<path fill="none" stroke="#9a32cd" stroke-dasharray="5,2" d="M1980.38,-305.441C2015.65,-307.419 2055.45,-312.742 2090,-325 2110.46,-332.257 2130.67,-346.531 2144.79,-357.976"/>
<polygon fill="#9a32cd" stroke="#9a32cd" points="1980.22,-301.93 1970.07,-304.95 1979.89,-308.922 1980.22,-301.93"/>
<text text-anchor="middle" x="2039" y="-329" font-family="Helvetica,sans-Serif" font-size="10.00"> OmegaPi0</text>
</g>
<!-- Node43&#45;&gt;Node42 -->
<g id="edge104" class="edge"><title>Node43&#45;&gt;Node42</title>
<path fill="none" stroke="#9a32cd" stroke-dasharray="5,2" d="M1700.19,-258.118C1739.53,-268.524 1784.63,-280.453 1820.43,-289.922"/>
<polygon fill="#9a32cd" stroke="#9a32cd" points="1700.88,-254.681 1690.32,-255.508 1699.09,-261.448 1700.88,-254.681"/>
<text text-anchor="middle" x="1745" y="-284" font-family="Helvetica,sans-Serif" font-size="10.00"> t</text>
</g>
</g>
</svg>
