<?xml version="1.0" encoding="UTF-8" standalone="no"?>
<!DOCTYPE svg PUBLIC "-//W3C//DTD SVG 1.1//EN"
 "http://www.w3.org/Graphics/SVG/1.1/DTD/svg11.dtd">
<!-- Generated by graphviz version 2.26.3 (20100126.1600)
 -->
<!-- Title: ant::analysis::physics::singlePi0 Pages: 1 -->
<svg width="1086pt" height="519pt"
 viewBox="0.00 0.00 1086.00 519.00" xmlns="http://www.w3.org/2000/svg" xmlns:xlink="http://www.w3.org/1999/xlink">
<g id="graph1" class="graph" transform="scale(1 1) rotate(0) translate(4 515)">
<title>ant::analysis::physics::singlePi0</title>
<polygon fill="white" stroke="white" points="-4,5 -4,-515 1083,-515 1083,5 -4,5"/>
<!-- Node2 -->
<g id="node1" class="node"><title>Node2</title>
<polygon fill="#bfbfbf" stroke="black" points="966,-195 966,-229 1078,-229 1078,-195 966,-195"/>
<text text-anchor="start" x="974" y="-216" font-family="Helvetica,sans-Serif" font-size="10.00">ant::analysis::physics</text>
<text text-anchor="middle" x="1022" y="-203" font-family="Helvetica,sans-Serif" font-size="10.00">::singlePi0</text>
</g>
<!-- Node3 -->
<g id="node2" class="node"><title>Node3</title>
<a xlink:href="classant_1_1analysis_1_1_physics.html" target="_top" xlink:title="ant::analysis::Physics">
<polygon fill="white" stroke="black" points="718.5,-458.5 718.5,-479.5 831.5,-479.5 831.5,-458.5 718.5,-458.5"/>
<text text-anchor="middle" x="775" y="-466.5" font-family="Helvetica,sans-Serif" font-size="10.00">ant::analysis::Physics</text>
</a>
</g>
<!-- Node3&#45;&gt;Node2 -->
<g id="edge2" class="edge"><title>Node3&#45;&gt;Node2</title>
<path fill="none" stroke="midnightblue" d="M836.904,-455.605C873.346,-444.9 918.021,-426.49 948,-396 995.555,-347.634 1013.74,-264.745 1019.6,-229.108"/>
<polygon fill="midnightblue" stroke="midnightblue" points="835.546,-452.351 826.864,-458.423 837.437,-459.09 835.546,-452.351"/>
</g>
<!-- Node4 -->
<g id="node4" class="node"><title>Node4</title>
<a xlink:href="classant_1_1analysis_1_1_histogram_factory.html" target="_top" xlink:title="ant::analysis::Histogram\lFactory">
<polygon fill="white" stroke="black" points="487.5,-477 487.5,-511 610.5,-511 610.5,-477 487.5,-477"/>
<text text-anchor="start" x="495.5" y="-498" font-family="Helvetica,sans-Serif" font-size="10.00">ant::analysis::Histogram</text>
<text text-anchor="middle" x="549" y="-485" font-family="Helvetica,sans-Serif" font-size="10.00">Factory</text>
</a>
</g>
<!-- Node4&#45;&gt;Node3 -->
<g id="edge4" class="edge"><title>Node4&#45;&gt;Node3</title>
<path fill="none" stroke="#9a32cd" stroke-dasharray="5,2" d="M620.8,-486.058C652.319,-482.571 688.794,-478.536 718.353,-475.266"/>
<polygon fill="#9a32cd" stroke="#9a32cd" points="620.31,-482.59 610.755,-487.169 621.08,-489.548 620.31,-482.59"/>
<text text-anchor="middle" x="662" y="-487" font-family="Helvetica,sans-Serif" font-size="10.00"> HistFac</text>
</g>
<!-- Node5 -->
<g id="node6" class="node"><title>Node5</title>
<a xlink:href="classant_1_1analysis_1_1utils_1_1_a2_simple_geometry.html" target="_top" xlink:title="ant::analysis::utils\l::A2SimpleGeometry">
<polygon fill="white" stroke="black" points="350.5,-45 350.5,-79 457.5,-79 457.5,-45 350.5,-45"/>
<text text-anchor="start" x="358.5" y="-66" font-family="Helvetica,sans-Serif" font-size="10.00">ant::analysis::utils</text>
<text text-anchor="middle" x="404" y="-53" font-family="Helvetica,sans-Serif" font-size="10.00">::A2SimpleGeometry</text>
</a>
</g>
<!-- Node5&#45;&gt;Node2 -->
<g id="edge6" class="edge"><title>Node5&#45;&gt;Node2</title>
<path fill="none" stroke="#9a32cd" stroke-dasharray="5,2" d="M467.912,-58.2241C554.922,-54.5525 715.047,-53.0356 848,-81 894.683,-90.8191 909.527,-91.7935 948,-120 976.103,-140.604 999.514,-174.413 1012.07,-194.804"/>
<polygon fill="#9a32cd" stroke="#9a32cd" points="467.504,-54.7387 457.67,-58.6807 467.816,-61.7317 467.504,-54.7387"/>
<text text-anchor="middle" x="662" y="-64" font-family="Helvetica,sans-Serif" font-size="10.00"> geometry</text>
</g>
<!-- Node6 -->
<g id="node8" class="node"><title>Node6</title>
<a xlink:href="classant_1_1interval.html" target="_top" xlink:title="ant::interval\&lt; double \&gt;">
<polygon fill="white" stroke="black" points="0,-113.5 0,-134.5 114,-134.5 114,-113.5 0,-113.5"/>
<text text-anchor="middle" x="57" y="-121.5" font-family="Helvetica,sans-Serif" font-size="10.00">ant::interval&lt; double &gt;</text>
</a>
</g>
<!-- Node6&#45;&gt;Node5 -->
<g id="edge8" class="edge"><title>Node6&#45;&gt;Node5</title>
<path fill="none" stroke="#9a32cd" stroke-dasharray="5,2" d="M78.3123,-107.419C92.643,-97.2643 112.427,-85.0851 132,-79 205.081,-56.2798 294.398,-55.4838 350.26,-57.9773"/>
<polygon fill="#9a32cd" stroke="#9a32cd" points="76.1397,-104.672 70.1448,-113.408 80.2789,-110.317 76.1397,-104.672"/>
<text text-anchor="middle" x="167" y="-109" font-family="Helvetica,sans-Serif" font-size="10.00"> cb_phi_hem1</text>
<text text-anchor="middle" x="167" y="-96" font-family="Helvetica,sans-Serif" font-size="10.00">cb_theta_region</text>
<text text-anchor="middle" x="167" y="-83" font-family="Helvetica,sans-Serif" font-size="10.00">taps_region</text>
</g>
<!-- Node16 -->
<g id="node28" class="node"><title>Node16</title>
<a xlink:href="structant_1_1analysis_1_1physics_1_1single_pi0_1_1settings__t.html" target="_top" xlink:title="ant::analysis::physics\l::singlePi0::settings_t">
<polygon fill="white" stroke="black" points="493,-195 493,-229 605,-229 605,-195 493,-195"/>
<text text-anchor="start" x="501" y="-216" font-family="Helvetica,sans-Serif" font-size="10.00">ant::analysis::physics</text>
<text text-anchor="middle" x="549" y="-203" font-family="Helvetica,sans-Serif" font-size="10.00">::singlePi0::settings_t</text>
</a>
</g>
<!-- Node6&#45;&gt;Node16 -->
<g id="edge34" class="edge"><title>Node6&#45;&gt;Node16</title>
<path fill="none" stroke="#9a32cd" stroke-dasharray="5,2" d="M87.5661,-138.94C119.72,-153.948 172.194,-176.458 220,-188 313.804,-210.648 426.657,-213.88 492.844,-213.443"/>
<polygon fill="#9a32cd" stroke="#9a32cd" points="88.8039,-135.653 78.2673,-134.543 85.8118,-141.982 88.8039,-135.653"/>
<text text-anchor="middle" x="276" y="-262" font-family="Helvetica,sans-Serif" font-size="10.00"> Range_Prompt</text>
<text text-anchor="middle" x="276" y="-249" font-family="Helvetica,sans-Serif" font-size="10.00">Cut_EMB_prob</text>
<text text-anchor="middle" x="276" y="-236" font-family="Helvetica,sans-Serif" font-size="10.00">Cut_MMAngle</text>
<text text-anchor="middle" x="276" y="-223" font-family="Helvetica,sans-Serif" font-size="10.00">Cut_MM</text>
<text text-anchor="middle" x="276" y="-210" font-family="Helvetica,sans-Serif" font-size="10.00">Cut_ProtonCopl</text>
</g>
<!-- Node17 -->
<g id="node30" class="node"><title>Node17</title>
<polygon fill="white" stroke="#bfbfbf" points="224,-105 224,-139 328,-139 328,-105 224,-105"/>
<text text-anchor="start" x="232" y="-126" font-family="Helvetica,sans-Serif" font-size="10.00">std::vector&lt; interval</text>
<text text-anchor="middle" x="276" y="-113" font-family="Helvetica,sans-Serif" font-size="10.00">&lt; double &gt; &gt;</text>
</g>
<!-- Node6&#45;&gt;Node17 -->
<g id="edge32" class="edge"><title>Node6&#45;&gt;Node17</title>
<path fill="none" stroke="#9a32cd" stroke-dasharray="5,2" d="M124.438,-123.384C156.47,-123.092 194.166,-122.747 223.95,-122.475"/>
<polygon fill="#9a32cd" stroke="#9a32cd" points="124.221,-119.886 114.254,-123.477 124.285,-126.886 124.221,-119.886"/>
<text text-anchor="middle" x="167" y="-127" font-family="Helvetica,sans-Serif" font-size="10.00"> elements</text>
</g>
<!-- Node7 -->
<g id="node10" class="node"><title>Node7</title>
<a xlink:href="classant_1_1analysis_1_1utils_1_1_kin_fitter.html" target="_top" xlink:title="ant::analysis::utils\l::KinFitter">
<polygon fill="white" stroke="black" points="727,-379 727,-413 823,-413 823,-379 727,-379"/>
<text text-anchor="start" x="735" y="-400" font-family="Helvetica,sans-Serif" font-size="10.00">ant::analysis::utils</text>
<text text-anchor="middle" x="775" y="-387" font-family="Helvetica,sans-Serif" font-size="10.00">::KinFitter</text>
</a>
</g>
<!-- Node7&#45;&gt;Node2 -->
<g id="edge10" class="edge"><title>Node7&#45;&gt;Node2</title>
<path fill="none" stroke="#9a32cd" stroke-dasharray="5,2" d="M833.102,-388.486C869.335,-381.326 915.155,-367.501 948,-341 985.174,-311.006 1007.27,-256.995 1016.66,-229.343"/>
<polygon fill="#9a32cd" stroke="#9a32cd" points="832.348,-385.066 823.155,-390.333 833.626,-391.948 832.348,-385.066"/>
<text text-anchor="middle" x="907" y="-383" font-family="Helvetica,sans-Serif" font-size="10.00"> fitterEMB</text>
</g>
<!-- Node8 -->
<g id="node12" class="node"><title>Node8</title>
<a xlink:href="classant_1_1analysis_1_1utils_1_1_fitter.html" target="_top" xlink:title="ant::analysis::utils\l::Fitter">
<polygon fill="white" stroke="black" points="501,-333 501,-367 597,-367 597,-333 501,-333"/>
<text text-anchor="start" x="509" y="-354" font-family="Helvetica,sans-Serif" font-size="10.00">ant::analysis::utils</text>
<text text-anchor="middle" x="549" y="-341" font-family="Helvetica,sans-Serif" font-size="10.00">::Fitter</text>
</a>
</g>
<!-- Node8&#45;&gt;Node7 -->
<g id="edge12" class="edge"><title>Node8&#45;&gt;Node7</title>
<path fill="none" stroke="midnightblue" d="M607.377,-361.882C644.481,-369.434 691.93,-379.092 726.869,-386.203"/>
<polygon fill="midnightblue" stroke="midnightblue" points="607.703,-358.377 597.205,-359.812 606.306,-365.236 607.703,-358.377"/>
</g>
<!-- Node9 -->
<g id="node14" class="node"><title>Node9</title>
<a xlink:href="structant_1_1analysis_1_1utils_1_1_kin_fitter_1_1_beam_e__t.html" target="_top" xlink:title="ant::analysis::utils\l::KinFitter::BeamE_t">
<polygon fill="white" stroke="black" points="496,-385 496,-419 602,-419 602,-385 496,-385"/>
<text text-anchor="start" x="504" y="-406" font-family="Helvetica,sans-Serif" font-size="10.00">ant::analysis::utils</text>
<text text-anchor="middle" x="549" y="-393" font-family="Helvetica,sans-Serif" font-size="10.00">::KinFitter::BeamE_t</text>
</a>
</g>
<!-- Node9&#45;&gt;Node7 -->
<g id="edge14" class="edge"><title>Node9&#45;&gt;Node7</title>
<path fill="none" stroke="#9a32cd" stroke-dasharray="5,2" d="M612.721,-400.308C648.892,-399.348 693.441,-398.165 726.706,-397.282"/>
<polygon fill="#9a32cd" stroke="#9a32cd" points="612.176,-396.821 602.273,-400.586 612.362,-403.819 612.176,-396.821"/>
<text text-anchor="middle" x="662" y="-403" font-family="Helvetica,sans-Serif" font-size="10.00"> BeamE</text>
</g>
<!-- Node10 -->
<g id="node16" class="node"><title>Node10</title>
<a xlink:href="structant_1_1analysis_1_1utils_1_1_fitter_1_1_v___s___p__t.html" target="_top" xlink:title="ant::analysis::utils\l::Fitter::V_S_P_t">
<polygon fill="white" stroke="black" points="228,-385 228,-419 324,-419 324,-385 228,-385"/>
<text text-anchor="start" x="236" y="-406" font-family="Helvetica,sans-Serif" font-size="10.00">ant::analysis::utils</text>
<text text-anchor="middle" x="276" y="-393" font-family="Helvetica,sans-Serif" font-size="10.00">::Fitter::V_S_P_t</text>
</a>
</g>
<!-- Node10&#45;&gt;Node9 -->
<g id="edge16" class="edge"><title>Node10&#45;&gt;Node9</title>
<path fill="none" stroke="midnightblue" d="M334.379,-402C382.203,-402 449.316,-402 495.702,-402"/>
<polygon fill="midnightblue" stroke="midnightblue" points="334.179,-398.5 324.178,-402 334.178,-405.5 334.179,-398.5"/>
</g>
<!-- Node11 -->
<g id="node18" class="node"><title>Node11</title>
<a xlink:href="structant_1_1analysis_1_1utils_1_1_fitter_1_1_v___s__t.html" target="_top" xlink:title="ant::analysis::utils\l::Fitter::V_S_t">
<polygon fill="white" stroke="black" points="9,-385 9,-419 105,-419 105,-385 9,-385"/>
<text text-anchor="start" x="17" y="-406" font-family="Helvetica,sans-Serif" font-size="10.00">ant::analysis::utils</text>
<text text-anchor="middle" x="57" y="-393" font-family="Helvetica,sans-Serif" font-size="10.00">::Fitter::V_S_t</text>
</a>
</g>
<!-- Node11&#45;&gt;Node10 -->
<g id="edge18" class="edge"><title>Node11&#45;&gt;Node10</title>
<path fill="none" stroke="midnightblue" d="M115.173,-402C150.285,-402 194.496,-402 227.674,-402"/>
<polygon fill="midnightblue" stroke="midnightblue" points="115.061,-398.5 105.06,-402 115.06,-405.5 115.061,-398.5"/>
</g>
<!-- Node12 -->
<g id="node20" class="node"><title>Node12</title>
<polygon fill="white" stroke="#bfbfbf" points="486.5,-437.5 486.5,-458.5 611.5,-458.5 611.5,-437.5 486.5,-437.5"/>
<text text-anchor="middle" x="549" y="-445.5" font-family="Helvetica,sans-Serif" font-size="10.00">std::vector&lt; FitParticle &gt;</text>
</g>
<!-- Node12&#45;&gt;Node7 -->
<g id="edge20" class="edge"><title>Node12&#45;&gt;Node7</title>
<path fill="none" stroke="#9a32cd" stroke-dasharray="5,2" d="M604.505,-435.229C642.049,-426.59 691.136,-415.296 726.993,-407.046"/>
<polygon fill="#9a32cd" stroke="#9a32cd" points="603.695,-431.824 594.734,-437.477 605.265,-438.646 603.695,-431.824"/>
<text text-anchor="middle" x="662" y="-430" font-family="Helvetica,sans-Serif" font-size="10.00"> Photons</text>
</g>
<!-- Node13 -->
<g id="node22" class="node"><title>Node13</title>
<a xlink:href="structant_1_1analysis_1_1physics_1_1single_pi0_1_1named__channel__t.html" target="_top" xlink:title="ant::analysis::physics\l::singlePi0::named_channel_t">
<polygon fill="white" stroke="black" points="476.5,-281 476.5,-315 621.5,-315 621.5,-281 476.5,-281"/>
<text text-anchor="start" x="484.5" y="-302" font-family="Helvetica,sans-Serif" font-size="10.00">ant::analysis::physics</text>
<text text-anchor="middle" x="549" y="-289" font-family="Helvetica,sans-Serif" font-size="10.00">::singlePi0::named_channel_t</text>
</a>
</g>
<!-- Node13&#45;&gt;Node2 -->
<g id="edge22" class="edge"><title>Node13&#45;&gt;Node2</title>
<path fill="none" stroke="#9a32cd" stroke-dasharray="5,2" d="M631.818,-306.894C692.253,-311.37 775.866,-313.371 848,-300 894.595,-291.363 905.942,-284.837 948,-263 966.556,-253.366 985.961,-239.844 1000.24,-229.144"/>
<polygon fill="#9a32cd" stroke="#9a32cd" points="631.81,-303.383 621.568,-306.095 631.266,-310.361 631.81,-303.383"/>
<text text-anchor="middle" x="775" y="-327" font-family="Helvetica,sans-Serif" font-size="10.00"> signal</text>
<text text-anchor="middle" x="775" y="-314" font-family="Helvetica,sans-Serif" font-size="10.00">mainBackground</text>
</g>
<!-- Node19 -->
<g id="node37" class="node"><title>Node19</title>
<polygon fill="white" stroke="#bfbfbf" points="706.5,-243.5 706.5,-290.5 843.5,-290.5 843.5,-243.5 706.5,-243.5"/>
<text text-anchor="start" x="714.5" y="-277.5" font-family="Helvetica,sans-Serif" font-size="10.00">std::vector&lt; ant::analysis</text>
<text text-anchor="start" x="714.5" y="-264.5" font-family="Helvetica,sans-Serif" font-size="10.00">::physics::singlePi0::named</text>
<text text-anchor="middle" x="775" y="-251.5" font-family="Helvetica,sans-Serif" font-size="10.00">_channel_t &gt;</text>
</g>
<!-- Node13&#45;&gt;Node19 -->
<g id="edge42" class="edge"><title>Node13&#45;&gt;Node19</title>
<path fill="none" stroke="#9a32cd" stroke-dasharray="5,2" d="M631.739,-286.651C656.215,-283.294 682.736,-279.656 706.229,-276.433"/>
<polygon fill="#9a32cd" stroke="#9a32cd" points="631.183,-283.194 621.752,-288.021 632.135,-290.129 631.183,-283.194"/>
<text text-anchor="middle" x="662" y="-289" font-family="Helvetica,sans-Serif" font-size="10.00"> elements</text>
</g>
<!-- Node14 -->
<g id="node24" class="node"><title>Node14</title>
<a xlink:title="STL class. ">
<polygon fill="white" stroke="#bfbfbf" points="246,-298.5 246,-319.5 306,-319.5 306,-298.5 246,-298.5"/>
<text text-anchor="middle" x="276" y="-306.5" font-family="Helvetica,sans-Serif" font-size="10.00">std::string</text>
</a>
</g>
<!-- Node14&#45;&gt;Node13 -->
<g id="edge24" class="edge"><title>Node14&#45;&gt;Node13</title>
<path fill="none" stroke="#9a32cd" stroke-dasharray="5,2" d="M316.389,-307.373C358.424,-305.679 425.143,-302.991 476.369,-300.927"/>
<polygon fill="#9a32cd" stroke="#9a32cd" points="316.11,-303.881 306.259,-307.781 316.392,-310.875 316.11,-303.881"/>
<text text-anchor="middle" x="404" y="-309" font-family="Helvetica,sans-Serif" font-size="10.00"> Name</text>
</g>
<!-- Node14&#45;&gt;Node16 -->
<g id="edge36" class="edge"><title>Node14&#45;&gt;Node16</title>
<path fill="none" stroke="#9a32cd" stroke-dasharray="5,2" d="M315.358,-295.016C364.415,-277.585 448.215,-247.81 500.993,-229.057"/>
<polygon fill="#9a32cd" stroke="#9a32cd" points="313.987,-291.789 305.735,-298.435 316.33,-298.385 313.987,-291.789"/>
<text text-anchor="middle" x="404" y="-284" font-family="Helvetica,sans-Serif" font-size="10.00"> Tree_Name</text>
</g>
<!-- Node15 -->
<g id="node26" class="node"><title>Node15</title>
<a xlink:title="STL class. ">
<polygon fill="white" stroke="#bfbfbf" points="9.5,-292 9.5,-326 104.5,-326 104.5,-292 9.5,-292"/>
<text text-anchor="start" x="17.5" y="-313" font-family="Helvetica,sans-Serif" font-size="10.00">std::basic_string&lt;</text>
<text text-anchor="middle" x="57" y="-300" font-family="Helvetica,sans-Serif" font-size="10.00"> char &gt;</text>
</a>
</g>
<!-- Node15&#45;&gt;Node14 -->
<g id="edge26" class="edge"><title>Node15&#45;&gt;Node14</title>
<path fill="none" stroke="midnightblue" d="M114.632,-309C156.689,-309 212.02,-309 245.748,-309"/>
<polygon fill="midnightblue" stroke="midnightblue" points="114.52,-305.5 104.52,-309 114.52,-312.5 114.52,-305.5"/>
</g>
<!-- Node16&#45;&gt;Node2 -->
<g id="edge28" class="edge"><title>Node16&#45;&gt;Node2</title>
<path fill="none" stroke="#9a32cd" stroke-dasharray="5,2" d="M615.32,-212C708.958,-212 878.258,-212 965.956,-212"/>
<polygon fill="#9a32cd" stroke="#9a32cd" points="615.117,-208.5 605.117,-212 615.117,-215.5 615.117,-208.5"/>
<text text-anchor="middle" x="775" y="-216" font-family="Helvetica,sans-Serif" font-size="10.00"> phSettings</text>
</g>
<!-- Node17&#45;&gt;Node16 -->
<g id="edge30" class="edge"><title>Node17&#45;&gt;Node16</title>
<path fill="none" stroke="#9a32cd" stroke-dasharray="5,2" d="M338.564,-128.674C383.117,-134.354 438.427,-143.572 458,-156 469.558,-163.339 465.304,-172.453 476,-181 482.777,-186.415 490.639,-191.042 498.642,-194.942"/>
<polygon fill="#9a32cd" stroke="#9a32cd" points="338.725,-125.168 328.37,-127.412 337.864,-132.115 338.725,-125.168"/>
<text text-anchor="middle" x="404" y="-160" font-family="Helvetica,sans-Serif" font-size="10.00"> Ranges_Random</text>
</g>
<!-- Node23 -->
<g id="node46" class="node"><title>Node23</title>
<a xlink:href="classant_1_1_piecewise_interval.html" target="_top" xlink:title="ant::PiecewiseInterval\l\&lt; double \&gt;">
<polygon fill="white" stroke="black" points="492.5,-138 492.5,-172 605.5,-172 605.5,-138 492.5,-138"/>
<text text-anchor="start" x="500.5" y="-159" font-family="Helvetica,sans-Serif" font-size="10.00">ant::PiecewiseInterval</text>
<text text-anchor="middle" x="549" y="-146" font-family="Helvetica,sans-Serif" font-size="10.00">&lt; double &gt;</text>
</a>
</g>
<!-- Node17&#45;&gt;Node23 -->
<g id="edge52" class="edge"><title>Node17&#45;&gt;Node23</title>
<path fill="none" stroke="midnightblue" d="M338.21,-122.458C373.514,-123.456 418.422,-125.969 458,-132 469.116,-133.694 480.85,-136.146 492.062,-138.823"/>
<polygon fill="midnightblue" stroke="midnightblue" points="338.134,-118.955 328.05,-122.205 337.959,-125.953 338.134,-118.955"/>
</g>
<!-- Node18 -->
<g id="node35" class="node"><title>Node18</title>
<a xlink:href="classant_1_1interval.html" target="_top" xlink:title="ant::interval\&lt; size_t \&gt;">
<polygon fill="white" stroke="black" points="220,-157.5 220,-178.5 332,-178.5 332,-157.5 220,-157.5"/>
<text text-anchor="middle" x="276" y="-165.5" font-family="Helvetica,sans-Serif" font-size="10.00">ant::interval&lt; size_t &gt;</text>
</a>
</g>
<!-- Node18&#45;&gt;Node16 -->
<g id="edge38" class="edge"><title>Node18&#45;&gt;Node16</title>
<path fill="none" stroke="#9a32cd" stroke-dasharray="5,2" d="M342.087,-172.884C376.778,-176.047 419.884,-180.92 458,-188 469.405,-190.119 481.484,-192.908 492.985,-195.833"/>
<polygon fill="#9a32cd" stroke="#9a32cd" points="342.343,-169.393 332.073,-171.997 341.725,-176.366 342.343,-169.393"/>
<text text-anchor="middle" x="404" y="-192" font-family="Helvetica,sans-Serif" font-size="10.00"> Cut_NCands</text>
</g>
<!-- Node19&#45;&gt;Node2 -->
<g id="edge40" class="edge"><title>Node19&#45;&gt;Node2</title>
<path fill="none" stroke="#9a32cd" stroke-dasharray="5,2" d="M853.886,-249.434C890.239,-241.339 932.55,-231.918 965.631,-224.552"/>
<polygon fill="#9a32cd" stroke="#9a32cd" points="852.803,-246.09 843.803,-251.679 854.325,-252.922 852.803,-246.09"/>
<text text-anchor="middle" x="907" y="-250" font-family="Helvetica,sans-Serif" font-size="10.00"> otherBackgrounds</text>
</g>
<!-- Node20 -->
<g id="node40" class="node"><title>Node20</title>
<a xlink:href="structant_1_1analysis_1_1physics_1_1single_pi0_1_1_pion_prod_tree.html" target="_top" xlink:title="ant::analysis::physics\l::singlePi0::PionProdTree">
<polygon fill="white" stroke="black" points="711,-90 711,-124 839,-124 839,-90 711,-90"/>
<text text-anchor="start" x="719" y="-111" font-family="Helvetica,sans-Serif" font-size="10.00">ant::analysis::physics</text>
<text text-anchor="middle" x="775" y="-98" font-family="Helvetica,sans-Serif" font-size="10.00">::singlePi0::PionProdTree</text>
</a>
</g>
<!-- Node20&#45;&gt;Node2 -->
<g id="edge44" class="edge"><title>Node20&#45;&gt;Node2</title>
<path fill="none" stroke="#9a32cd" stroke-dasharray="5,2" d="M849.436,-119.09C880.952,-126.028 917.383,-136.529 948,-152 969.848,-163.04 991.167,-181.369 1005.27,-194.869"/>
<polygon fill="#9a32cd" stroke="#9a32cd" points="849.898,-115.611 839.39,-116.961 848.447,-122.459 849.898,-115.611"/>
<text text-anchor="middle" x="907" y="-156" font-family="Helvetica,sans-Serif" font-size="10.00"> tree</text>
</g>
<!-- Node21 -->
<g id="node42" class="node"><title>Node21</title>
<a xlink:href="classant_1_1_wrap_t_tree.html" target="_top" xlink:title="The WrapTTree struct simplifies TTree handling in physics classes. ">
<polygon fill="white" stroke="black" points="506.5,-96.5 506.5,-117.5 591.5,-117.5 591.5,-96.5 506.5,-96.5"/>
<text text-anchor="middle" x="549" y="-104.5" font-family="Helvetica,sans-Serif" font-size="10.00">ant::WrapTTree</text>
</a>
</g>
<!-- Node21&#45;&gt;Node20 -->
<g id="edge46" class="edge"><title>Node21&#45;&gt;Node20</title>
<path fill="none" stroke="midnightblue" d="M601.736,-107C634.326,-107 676.368,-107 710.877,-107"/>
<polygon fill="midnightblue" stroke="midnightblue" points="601.509,-103.5 591.509,-107 601.509,-110.5 601.509,-103.5"/>
</g>
<!-- Node22 -->
<g id="node44" class="node"><title>Node22</title>
<a xlink:href="classant_1_1analysis_1_1_prompt_random_1_1_switch.html" target="_top" xlink:title="ant::analysis::PromptRandom\l::Switch">
<polygon fill="white" stroke="black" points="702,-142 702,-176 848,-176 848,-142 702,-142"/>
<text text-anchor="start" x="710" y="-163" font-family="Helvetica,sans-Serif" font-size="10.00">ant::analysis::PromptRandom</text>
<text text-anchor="middle" x="775" y="-150" font-family="Helvetica,sans-Serif" font-size="10.00">::Switch</text>
</a>
</g>
<!-- Node22&#45;&gt;Node2 -->
<g id="edge48" class="edge"><title>Node22&#45;&gt;Node2</title>
<path fill="none" stroke="#9a32cd" stroke-dasharray="5,2" d="M858.044,-168.038C886.784,-172.072 919.04,-177.62 948,-185 958.469,-187.668 969.524,-191.26 979.806,-194.953"/>
<polygon fill="#9a32cd" stroke="#9a32cd" points="858.417,-164.557 848.036,-166.674 857.471,-171.493 858.417,-164.557"/>
<text text-anchor="middle" x="907" y="-189" font-family="Helvetica,sans-Serif" font-size="10.00"> promptrandom</text>
</g>
<!-- Node23&#45;&gt;Node22 -->
<g id="edge50" class="edge"><title>Node23&#45;&gt;Node22</title>
<path fill="none" stroke="#9a32cd" stroke-dasharray="5,2" d="M615.889,-156.184C642.962,-156.663 674.298,-157.218 701.965,-157.707"/>
<polygon fill="#9a32cd" stroke="#9a32cd" points="615.798,-152.682 605.738,-156.004 615.674,-159.681 615.798,-152.682"/>
<text text-anchor="middle" x="662" y="-174" font-family="Helvetica,sans-Serif" font-size="10.00"> promptw</text>
<text text-anchor="middle" x="662" y="-161" font-family="Helvetica,sans-Serif" font-size="10.00">randomw</text>
</g>
<!-- Node24 -->
<g id="node49" class="node"><title>Node24</title>
<a xlink:href="classant_1_1analysis_1_1utils_1_1_trigger_simulation.html" target="_top" xlink:title="ant::analysis::utils\l::TriggerSimulation">
<polygon fill="white" stroke="black" points="726,-0 726,-34 824,-34 824,-0 726,-0"/>
<text text-anchor="start" x="734" y="-21" font-family="Helvetica,sans-Serif" font-size="10.00">ant::analysis::utils</text>
<text text-anchor="middle" x="775" y="-8" font-family="Helvetica,sans-Serif" font-size="10.00">::TriggerSimulation</text>
</a>
</g>
<!-- Node24&#45;&gt;Node2 -->
<g id="edge54" class="edge"><title>Node24&#45;&gt;Node2</title>
<path fill="none" stroke="#9a32cd" stroke-dasharray="5,2" d="M834.58,-8.85706C870.723,-7.15174 915.907,-11.1432 948,-35 1000.93,-74.343 1016.25,-158.71 1020.48,-194.919"/>
<polygon fill="#9a32cd" stroke="#9a32cd" points="833.922,-5.39156 824.162,-9.51497 834.363,-12.3776 833.922,-5.39156"/>
<text text-anchor="middle" x="907" y="-39" font-family="Helvetica,sans-Serif" font-size="10.00"> triggersimu</text>
</g>
</g>
</svg>
