<?xml version="1.0" encoding="UTF-8" standalone="no"?>
<!DOCTYPE svg PUBLIC "-//W3C//DTD SVG 1.1//EN"
 "http://www.w3.org/Graphics/SVG/1.1/DTD/svg11.dtd">
<!-- Generated by graphviz version 2.26.3 (20100126.1600)
 -->
<!-- Title: ant::calibration::GUI_CalibType Pages: 1 -->
<svg width="606pt" height="406pt"
 viewBox="0.00 0.00 606.00 406.00" xmlns="http://www.w3.org/2000/svg" xmlns:xlink="http://www.w3.org/1999/xlink">
<g id="graph1" class="graph" transform="scale(1 1) rotate(0) translate(4 402)">
<title>ant::calibration::GUI_CalibType</title>
<polygon fill="white" stroke="white" points="-4,5 -4,-402 603,-402 603,5 -4,5"/>
<!-- Node0 -->
<g id="node1" class="node"><title>Node0</title>
<polygon fill="#bfbfbf" stroke="black" points="140,-182 140,-216 244,-216 244,-182 140,-182"/>
<text text-anchor="start" x="148" y="-203" font-family="Helvetica,sans-Serif" font-size="10.00">ant::calibration::GUI</text>
<text text-anchor="middle" x="192" y="-190" font-family="Helvetica,sans-Serif" font-size="10.00">_CalibType</text>
</g>
<!-- Node2 -->
<g id="node5" class="node"><title>Node2</title>
<a xlink:href="structant_1_1calibration_1_1_c_b___energy_1_1_g_u_i___gains.html" target="_top" xlink:title="ant::calibration::CB\l_Energy::GUI_Gains">
<polygon fill="white" stroke="black" points="292.5,-364 292.5,-398 399.5,-398 399.5,-364 292.5,-364"/>
<text text-anchor="start" x="300.5" y="-385" font-family="Helvetica,sans-Serif" font-size="10.00">ant::calibration::CB</text>
<text text-anchor="middle" x="346" y="-372" font-family="Helvetica,sans-Serif" font-size="10.00">_Energy::GUI_Gains</text>
</a>
</g>
<!-- Node0&#45;&gt;Node2 -->
<g id="edge4" class="edge"><title>Node0&#45;&gt;Node2</title>
<path fill="none" stroke="midnightblue" d="M200.741,-225.829C213.201,-260.175 239.189,-319.477 280,-355 283.902,-358.396 288.299,-361.377 292.926,-363.989"/>
<polygon fill="midnightblue" stroke="midnightblue" points="203.916,-224.306 197.306,-216.025 197.309,-226.62 203.916,-224.306"/>
</g>
<!-- Node3 -->
<g id="node7" class="node"><title>Node3</title>
<a xlink:href="structant_1_1calibration_1_1energy_1_1_g_u_i___banana.html" target="_top" xlink:title="ant::calibration::energy\l::GUI_Banana">
<polygon fill="white" stroke="black" points="288,-312 288,-346 404,-346 404,-312 288,-312"/>
<text text-anchor="start" x="296" y="-333" font-family="Helvetica,sans-Serif" font-size="10.00">ant::calibration::energy</text>
<text text-anchor="middle" x="346" y="-320" font-family="Helvetica,sans-Serif" font-size="10.00">::GUI_Banana</text>
</a>
</g>
<!-- Node0&#45;&gt;Node3 -->
<g id="edge6" class="edge"><title>Node0&#45;&gt;Node3</title>
<path fill="none" stroke="midnightblue" d="M208.046,-224.342C223.873,-247.56 249.999,-281.496 280,-303 284.604,-306.3 289.685,-309.254 294.922,-311.879"/>
<polygon fill="midnightblue" stroke="midnightblue" points="210.956,-222.397 202.498,-216.016 205.131,-226.279 210.956,-222.397"/>
</g>
<!-- Node4 -->
<g id="node9" class="node"><title>Node4</title>
<a xlink:href="structant_1_1calibration_1_1energy_1_1_g_u_i___banana_slices.html" target="_top" xlink:title="fits slices of the PID energy along the energy axis to fit the shape of the PID banana ...">
<polygon fill="white" stroke="black" points="288,-260 288,-294 404,-294 404,-260 288,-260"/>
<text text-anchor="start" x="296" y="-281" font-family="Helvetica,sans-Serif" font-size="10.00">ant::calibration::energy</text>
<text text-anchor="middle" x="346" y="-268" font-family="Helvetica,sans-Serif" font-size="10.00">::GUI_BananaSlices</text>
</a>
</g>
<!-- Node0&#45;&gt;Node4 -->
<g id="edge8" class="edge"><title>Node0&#45;&gt;Node4</title>
<path fill="none" stroke="midnightblue" d="M227.25,-221.563C243.061,-231.228 262.14,-242.273 280,-251 286.307,-254.082 293.078,-257.08 299.792,-259.879"/>
<polygon fill="midnightblue" stroke="midnightblue" points="228.698,-218.344 218.352,-216.061 225.016,-224.297 228.698,-218.344"/>
</g>
<!-- Node5 -->
<g id="node11" class="node"><title>Node5</title>
<a xlink:href="structant_1_1calibration_1_1energy_1_1_g_u_i___h_e_p.html" target="_top" xlink:title="HEP stands for High Energy Protons and uses the high energy proton tail to calibrate the PID energy...">
<polygon fill="white" stroke="black" points="288,-208 288,-242 404,-242 404,-208 288,-208"/>
<text text-anchor="start" x="296" y="-229" font-family="Helvetica,sans-Serif" font-size="10.00">ant::calibration::energy</text>
<text text-anchor="middle" x="346" y="-216" font-family="Helvetica,sans-Serif" font-size="10.00">::GUI_HEP</text>
</a>
</g>
<!-- Node0&#45;&gt;Node5 -->
<g id="edge10" class="edge"><title>Node0&#45;&gt;Node5</title>
<path fill="none" stroke="midnightblue" d="M254.191,-209.5C265.3,-211.375 276.836,-213.323 287.827,-215.179"/>
<polygon fill="midnightblue" stroke="midnightblue" points="254.581,-206.016 244.137,-207.802 253.415,-212.918 254.581,-206.016"/>
</g>
<!-- Node6 -->
<g id="node13" class="node"><title>Node6</title>
<a xlink:href="structant_1_1calibration_1_1energy_1_1_g_u_i___m_i_p.html" target="_top" xlink:title="MIP stands for Minimum Ionizing Particle and uses electron and positron energy deposits in the PID...">
<polygon fill="white" stroke="black" points="288,-156 288,-190 404,-190 404,-156 288,-156"/>
<text text-anchor="start" x="296" y="-177" font-family="Helvetica,sans-Serif" font-size="10.00">ant::calibration::energy</text>
<text text-anchor="middle" x="346" y="-164" font-family="Helvetica,sans-Serif" font-size="10.00">::GUI_MIP</text>
</a>
</g>
<!-- Node0&#45;&gt;Node6 -->
<g id="edge12" class="edge"><title>Node0&#45;&gt;Node6</title>
<path fill="none" stroke="midnightblue" d="M254.191,-188.5C265.3,-186.625 276.836,-184.677 287.827,-182.821"/>
<polygon fill="midnightblue" stroke="midnightblue" points="253.415,-185.082 244.137,-190.198 254.581,-191.984 253.415,-185.082"/>
</g>
<!-- Node7 -->
<g id="node15" class="node"><title>Node7</title>
<a xlink:href="structant_1_1calibration_1_1energy_1_1_g_u_i___pedestals.html" target="_top" xlink:title="ant::calibration::energy\l::GUI_Pedestals">
<polygon fill="white" stroke="black" points="288,-104 288,-138 404,-138 404,-104 288,-104"/>
<text text-anchor="start" x="296" y="-125" font-family="Helvetica,sans-Serif" font-size="10.00">ant::calibration::energy</text>
<text text-anchor="middle" x="346" y="-112" font-family="Helvetica,sans-Serif" font-size="10.00">::GUI_Pedestals</text>
</a>
</g>
<!-- Node0&#45;&gt;Node7 -->
<g id="edge14" class="edge"><title>Node0&#45;&gt;Node7</title>
<path fill="none" stroke="midnightblue" d="M227.25,-176.437C243.061,-166.772 262.14,-155.727 280,-147 286.307,-143.918 293.078,-140.92 299.792,-138.121"/>
<polygon fill="midnightblue" stroke="midnightblue" points="225.016,-173.703 218.352,-181.939 228.698,-179.656 225.016,-173.703"/>
</g>
<!-- Node9 -->
<g id="node19" class="node"><title>Node9</title>
<a xlink:href="structant_1_1calibration_1_1_t_a_p_s___energy_1_1_g_u_i___gains.html" target="_top" xlink:title="ant::calibration::TAPS\l_Energy::GUI_Gains">
<polygon fill="white" stroke="black" points="289.5,-52 289.5,-86 402.5,-86 402.5,-52 289.5,-52"/>
<text text-anchor="start" x="297.5" y="-73" font-family="Helvetica,sans-Serif" font-size="10.00">ant::calibration::TAPS</text>
<text text-anchor="middle" x="346" y="-60" font-family="Helvetica,sans-Serif" font-size="10.00">_Energy::GUI_Gains</text>
</a>
</g>
<!-- Node0&#45;&gt;Node9 -->
<g id="edge18" class="edge"><title>Node0&#45;&gt;Node9</title>
<path fill="none" stroke="midnightblue" d="M208.046,-173.658C223.873,-150.44 249.999,-116.504 280,-95 284.604,-91.6996 289.685,-88.7458 294.922,-86.1206"/>
<polygon fill="midnightblue" stroke="midnightblue" points="205.131,-171.721 202.498,-181.984 210.956,-175.603 205.131,-171.721"/>
</g>
<!-- Node10 -->
<g id="node21" class="node"><title>Node10</title>
<a xlink:href="structant_1_1calibration_1_1_t_a_p_s___short_energy_1_1_g_u_i___gains.html" target="_top" xlink:title="ant::calibration::TAPS\l_ShortEnergy::GUI_Gains">
<polygon fill="white" stroke="black" points="280.5,-0 280.5,-34 411.5,-34 411.5,-0 280.5,-0"/>
<text text-anchor="start" x="288.5" y="-21" font-family="Helvetica,sans-Serif" font-size="10.00">ant::calibration::TAPS</text>
<text text-anchor="middle" x="346" y="-8" font-family="Helvetica,sans-Serif" font-size="10.00">_ShortEnergy::GUI_Gains</text>
</a>
</g>
<!-- Node0&#45;&gt;Node10 -->
<g id="edge20" class="edge"><title>Node0&#45;&gt;Node10</title>
<path fill="none" stroke="midnightblue" d="M200.741,-172.171C213.201,-137.825 239.189,-78.523 280,-43 283.902,-39.604 288.299,-36.6226 292.926,-34.0109"/>
<polygon fill="midnightblue" stroke="midnightblue" points="197.309,-171.38 197.306,-181.975 203.916,-173.694 197.309,-171.38"/>
</g>
<!-- Node1 -->
<g id="node2" class="node"><title>Node1</title>
<a xlink:href="classant_1_1calibration_1_1gui_1_1_calib_module__traits.html" target="_top" xlink:title="ant::calibration::gui\l::CalibModule_traits">
<polygon fill="white" stroke="black" points="0,-182 0,-216 104,-216 104,-182 0,-182"/>
<text text-anchor="start" x="8" y="-203" font-family="Helvetica,sans-Serif" font-size="10.00">ant::calibration::gui</text>
<text text-anchor="middle" x="52" y="-190" font-family="Helvetica,sans-Serif" font-size="10.00">::CalibModule_traits</text>
</a>
</g>
<!-- Node1&#45;&gt;Node0 -->
<g id="edge2" class="edge"><title>Node1&#45;&gt;Node0</title>
<path fill="none" stroke="midnightblue" d="M114.387,-199C122.885,-199 131.534,-199 139.826,-199"/>
<polygon fill="midnightblue" stroke="midnightblue" points="114.131,-195.5 104.131,-199 114.131,-202.5 114.131,-195.5"/>
</g>
<!-- Node8 -->
<g id="node17" class="node"><title>Node8</title>
<a xlink:href="structant_1_1calibration_1_1_t_a_p_s___short_energy_1_1_g_u_i___pedestals.html" target="_top" xlink:title="ant::calibration::TAPS\l_ShortEnergy::GUI_Pedestals">
<polygon fill="white" stroke="black" points="448.5,-104 448.5,-138 597.5,-138 597.5,-104 448.5,-104"/>
<text text-anchor="start" x="456.5" y="-125" font-family="Helvetica,sans-Serif" font-size="10.00">ant::calibration::TAPS</text>
<text text-anchor="middle" x="523" y="-112" font-family="Helvetica,sans-Serif" font-size="10.00">_ShortEnergy::GUI_Pedestals</text>
</a>
</g>
<!-- Node7&#45;&gt;Node8 -->
<g id="edge16" class="edge"><title>Node7&#45;&gt;Node8</title>
<path fill="none" stroke="midnightblue" d="M414.455,-121C425.51,-121 437.006,-121 448.202,-121"/>
<polygon fill="midnightblue" stroke="midnightblue" points="414.447,-117.5 404.447,-121 414.447,-124.5 414.447,-117.5"/>
</g>
</g>
</svg>
