<?xml version="1.0" encoding="UTF-8" standalone="no"?>
<!DOCTYPE svg PUBLIC "-//W3C//DTD SVG 1.1//EN"
 "http://www.w3.org/Graphics/SVG/1.1/DTD/svg11.dtd">
<!-- Generated by graphviz version 2.26.3 (20100126.1600)
 -->
<!-- Title: OmegaEtaG_Plot::OmegaHist_t Pages: 1 -->
<svg width="164pt" height="116pt"
 viewBox="0.00 0.00 164.00 116.00" xmlns="http://www.w3.org/2000/svg" xmlns:xlink="http://www.w3.org/1999/xlink">
<g id="graph1" class="graph" transform="scale(1 1) rotate(0) translate(4 112)">
<title>OmegaEtaG_Plot::OmegaHist_t</title>
<polygon fill="white" stroke="white" points="-4,5 -4,-112 161,-112 161,5 -4,5"/>
<!-- Node1 -->
<g id="node1" class="node"><title>Node1</title>
<polygon fill="#bfbfbf" stroke="black" points="-0.5,-0.5 -0.5,-21.5 156.5,-21.5 156.5,-0.5 -0.5,-0.5"/>
<text text-anchor="middle" x="78" y="-8.5" font-family="Helvetica,sans-Serif" font-size="10.00">OmegaEtaG_Plot::OmegaHist_t</text>
</g>
<!-- Node2 -->
<g id="node2" class="node"><title>Node2</title>
<a xlink:href="classant_1_1analysis_1_1_histogram_factory.html" target="_top" xlink:title="ant::analysis::Histogram\lFactory">
<polygon fill="white" stroke="black" points="16.5,-73 16.5,-107 139.5,-107 139.5,-73 16.5,-73"/>
<text text-anchor="start" x="24.5" y="-94" font-family="Helvetica,sans-Serif" font-size="10.00">ant::analysis::Histogram</text>
<text text-anchor="middle" x="78" y="-81" font-family="Helvetica,sans-Serif" font-size="10.00">Factory</text>
</a>
</g>
<!-- Node2&#45;&gt;Node1 -->
<g id="edge2" class="edge"><title>Node2&#45;&gt;Node1</title>
<path fill="none" stroke="#9a32cd" stroke-dasharray="5,2" d="M78,-62.6228C78,-48.4727 78,-32.0243 78,-21.5672"/>
<polygon fill="#9a32cd" stroke="#9a32cd" points="74.5001,-62.8581 78,-72.8582 81.5001,-62.8582 74.5001,-62.8581"/>
<text text-anchor="middle" x="97" y="-44.5" font-family="Helvetica,sans-Serif" font-size="10.00"> HistFac</text>
</g>
</g>
</svg>
