<?xml version="1.0" encoding="UTF-8" standalone="no"?>
<!DOCTYPE svg PUBLIC "-//W3C//DTD SVG 1.1//EN"
 "http://www.w3.org/Graphics/SVG/1.1/DTD/svg11.dtd">
<!-- Generated by graphviz version 2.26.3 (20100126.1600)
 -->
<!-- Title: OmegaEtaG_Plot::OmegaHist_t::Fill_t Pages: 1 -->
<svg width="506pt" height="94pt"
 viewBox="0.00 0.00 506.00 94.00" xmlns="http://www.w3.org/2000/svg" xmlns:xlink="http://www.w3.org/1999/xlink">
<g id="graph1" class="graph" transform="scale(1 1) rotate(0) translate(4 90)">
<title>OmegaEtaG_Plot::OmegaHist_t::Fill_t</title>
<polygon fill="white" stroke="white" points="-4,5 -4,-90 503,-90 503,5 -4,5"/>
<!-- Node1 -->
<g id="node1" class="node"><title>Node1</title>
<polygon fill="#bfbfbf" stroke="black" points="348.5,-26 348.5,-60 497.5,-60 497.5,-26 348.5,-26"/>
<text text-anchor="start" x="356.5" y="-47" font-family="Helvetica,sans-Serif" font-size="10.00">OmegaEtaG_Plot::OmegaHist</text>
<text text-anchor="middle" x="423" y="-34" font-family="Helvetica,sans-Serif" font-size="10.00">_t::Fill_t</text>
</g>
<!-- Node2 -->
<g id="node2" class="node"><title>Node2</title>
<a xlink:href="structant_1_1analysis_1_1physics_1_1_omega_eta_g2_1_1_omega_tree__t.html" target="_top" xlink:title="ant::analysis::physics\l::OmegaEtaG2::OmegaTree_t">
<polygon fill="white" stroke="black" points="124.5,-52 124.5,-86 271.5,-86 271.5,-52 124.5,-52"/>
<text text-anchor="start" x="132.5" y="-73" font-family="Helvetica,sans-Serif" font-size="10.00">ant::analysis::physics</text>
<text text-anchor="middle" x="198" y="-60" font-family="Helvetica,sans-Serif" font-size="10.00">::OmegaEtaG2::OmegaTree_t</text>
</a>
</g>
<!-- Node2&#45;&gt;Node1 -->
<g id="edge2" class="edge"><title>Node2&#45;&gt;Node1</title>
<path fill="none" stroke="#9a32cd" stroke-dasharray="5,2" d="M281.614,-59.3379C303.519,-56.8067 326.99,-54.0944 348.391,-51.6215"/>
<polygon fill="#9a32cd" stroke="#9a32cd" points="281.206,-55.8618 271.673,-60.4866 282.009,-62.8155 281.206,-55.8618"/>
<text text-anchor="middle" x="310" y="-62" font-family="Helvetica,sans-Serif" font-size="10.00"> Tree</text>
</g>
<!-- Node3 -->
<g id="node4" class="node"><title>Node3</title>
<a xlink:href="classant_1_1_wrap_t_tree.html" target="_top" xlink:title="The WrapTTree struct simplifies TTree handling in physics classes. ">
<polygon fill="white" stroke="black" points="0.5,-35.5 0.5,-56.5 85.5,-56.5 85.5,-35.5 0.5,-35.5"/>
<text text-anchor="middle" x="43" y="-43.5" font-family="Helvetica,sans-Serif" font-size="10.00">ant::WrapTTree</text>
</a>
</g>
<!-- Node3&#45;&gt;Node2 -->
<g id="edge4" class="edge"><title>Node3&#45;&gt;Node2</title>
<path fill="none" stroke="midnightblue" d="M95.8974,-53.8493C105.094,-55.214 114.807,-56.6552 124.438,-58.0844"/>
<polygon fill="midnightblue" stroke="midnightblue" points="96.1702,-50.3515 85.7647,-52.3457 95.1427,-57.2757 96.1702,-50.3515"/>
</g>
<!-- Node4 -->
<g id="node6" class="node"><title>Node4</title>
<a xlink:href="structant_1_1analysis_1_1utils_1_1_m_c_weighting_1_1tree__t.html" target="_top" xlink:title="ant::analysis::utils\l::MCWeighting::tree_t">
<polygon fill="white" stroke="black" points="141.5,-0 141.5,-34 254.5,-34 254.5,-0 141.5,-0"/>
<text text-anchor="start" x="149.5" y="-21" font-family="Helvetica,sans-Serif" font-size="10.00">ant::analysis::utils</text>
<text text-anchor="middle" x="198" y="-8" font-family="Helvetica,sans-Serif" font-size="10.00">::MCWeighting::tree_t</text>
</a>
</g>
<!-- Node3&#45;&gt;Node4 -->
<g id="edge8" class="edge"><title>Node3&#45;&gt;Node4</title>
<path fill="none" stroke="midnightblue" d="M95.7159,-36.137C110.441,-33.382 126.501,-30.3773 141.438,-27.5825"/>
<polygon fill="midnightblue" stroke="midnightblue" points="94.9505,-32.7194 85.7647,-37.9989 96.2379,-39.6 94.9505,-32.7194"/>
</g>
<!-- Node4&#45;&gt;Node1 -->
<g id="edge6" class="edge"><title>Node4&#45;&gt;Node1</title>
<path fill="none" stroke="#9a32cd" stroke-dasharray="5,2" d="M264.998,-24.742C291.235,-27.7738 321.442,-31.2644 348.371,-34.3762"/>
<polygon fill="#9a32cd" stroke="#9a32cd" points="265.113,-21.232 254.777,-23.5609 264.309,-28.1858 265.113,-21.232"/>
<text text-anchor="middle" x="310" y="-35" font-family="Helvetica,sans-Serif" font-size="10.00"> Weights</text>
</g>
</g>
</svg>
