<?xml version="1.0" encoding="UTF-8" standalone="no"?>
<!DOCTYPE svg PUBLIC "-//W3C//DTD SVG 1.1//EN"
 "http://www.w3.org/Graphics/SVG/1.1/DTD/svg11.dtd">
<!-- Generated by graphviz version 2.26.3 (20100126.1600)
 -->
<!-- Title: singlePi0_Plot::SinglePi0Hist_t::Fill_t Pages: 1 -->
<svg width="136pt" height="190pt"
 viewBox="0.00 0.00 136.00 190.00" xmlns="http://www.w3.org/2000/svg" xmlns:xlink="http://www.w3.org/1999/xlink">
<g id="graph1" class="graph" transform="scale(1 1) rotate(0) translate(4 186)">
<title>singlePi0_Plot::SinglePi0Hist_t::Fill_t</title>
<polygon fill="white" stroke="white" points="-4,5 -4,-186 133,-186 133,5 -4,5"/>
<!-- Node1 -->
<g id="node1" class="node"><title>Node1</title>
<polygon fill="#bfbfbf" stroke="black" points="1,-1 1,-35 127,-35 127,-1 1,-1"/>
<text text-anchor="start" x="9" y="-22" font-family="Helvetica,sans-Serif" font-size="10.00">singlePi0_Plot::SinglePi0</text>
<text text-anchor="middle" x="64" y="-9" font-family="Helvetica,sans-Serif" font-size="10.00">Hist_t::Fill_t</text>
</g>
<!-- Node2 -->
<g id="node2" class="node"><title>Node2</title>
<a xlink:href="structant_1_1analysis_1_1physics_1_1single_pi0_1_1_pion_prod_tree.html" target="_top" xlink:title="ant::analysis::physics\l::singlePi0::PionProdTree">
<polygon fill="white" stroke="black" points="0,-87 0,-121 128,-121 128,-87 0,-87"/>
<text text-anchor="start" x="8" y="-108" font-family="Helvetica,sans-Serif" font-size="10.00">ant::analysis::physics</text>
<text text-anchor="middle" x="64" y="-95" font-family="Helvetica,sans-Serif" font-size="10.00">::singlePi0::PionProdTree</text>
</a>
</g>
<!-- Node2&#45;&gt;Node1 -->
<g id="edge2" class="edge"><title>Node2&#45;&gt;Node1</title>
<path fill="none" stroke="#9a32cd" stroke-dasharray="5,2" d="M64,-76.342C64,-62.7741 64,-46.8607 64,-35.084"/>
<polygon fill="#9a32cd" stroke="#9a32cd" points="60.5001,-76.5966 64,-86.5966 67.5001,-76.5967 60.5001,-76.5966"/>
<text text-anchor="middle" x="75.5" y="-58.5" font-family="Helvetica,sans-Serif" font-size="10.00"> Tree</text>
</g>
<!-- Node3 -->
<g id="node4" class="node"><title>Node3</title>
<a xlink:href="classant_1_1_wrap_t_tree.html" target="_top" xlink:title="The WrapTTree struct simplifies TTree handling in physics classes. ">
<polygon fill="white" stroke="black" points="21.5,-160.5 21.5,-181.5 106.5,-181.5 106.5,-160.5 21.5,-160.5"/>
<text text-anchor="middle" x="64" y="-168.5" font-family="Helvetica,sans-Serif" font-size="10.00">ant::WrapTTree</text>
</a>
</g>
<!-- Node3&#45;&gt;Node2 -->
<g id="edge4" class="edge"><title>Node3&#45;&gt;Node2</title>
<path fill="none" stroke="midnightblue" d="M64,-150.165C64,-140.797 64,-129.88 64,-121.014"/>
<polygon fill="midnightblue" stroke="midnightblue" points="60.5001,-150.235 64,-160.235 67.5001,-150.235 60.5001,-150.235"/>
</g>
</g>
</svg>
