<?xml version="1.0" encoding="UTF-8" standalone="no"?>
<!DOCTYPE svg PUBLIC "-//W3C//DTD SVG 1.1//EN"
 "http://www.w3.org/Graphics/SVG/1.1/DTD/svg11.dtd">
<!-- Generated by graphviz version 2.26.3 (20100126.1600)
 -->
<!-- Title: ant::analysis::physics::EtapOmegaG::Ref_t Pages: 1 -->
<svg width="1360pt" height="383pt"
 viewBox="0.00 0.00 1360.00 383.00" xmlns="http://www.w3.org/2000/svg" xmlns:xlink="http://www.w3.org/1999/xlink">
<g id="graph1" class="graph" transform="scale(1 1) rotate(0) translate(4 379)">
<title>ant::analysis::physics::EtapOmegaG::Ref_t</title>
<polygon fill="white" stroke="white" points="-4,5 -4,-379 1357,-379 1357,5 -4,5"/>
<!-- Node1 -->
<g id="node1" class="node"><title>Node1</title>
<polygon fill="#bfbfbf" stroke="black" points="1240,-230 1240,-264 1352,-264 1352,-230 1240,-230"/>
<text text-anchor="start" x="1248" y="-251" font-family="Helvetica,sans-Serif" font-size="10.00">ant::analysis::physics</text>
<text text-anchor="middle" x="1296" y="-238" font-family="Helvetica,sans-Serif" font-size="10.00">::EtapOmegaG::Ref_t</text>
</g>
<!-- Node2 -->
<g id="node2" class="node"><title>Node2</title>
<a xlink:href="classant_1_1analysis_1_1utils_1_1_m_c_weighting.html" target="_top" xlink:title="ant::analysis::utils\l::MCWeighting">
<polygon fill="white" stroke="black" points="981,-230 981,-264 1077,-264 1077,-230 981,-230"/>
<text text-anchor="start" x="989" y="-251" font-family="Helvetica,sans-Serif" font-size="10.00">ant::analysis::utils</text>
<text text-anchor="middle" x="1029" y="-238" font-family="Helvetica,sans-Serif" font-size="10.00">::MCWeighting</text>
</a>
</g>
<!-- Node2&#45;&gt;Node1 -->
<g id="edge2" class="edge"><title>Node2&#45;&gt;Node1</title>
<path fill="none" stroke="#9a32cd" stroke-dasharray="5,2" d="M1087.28,-247C1132.5,-247 1194.8,-247 1239.55,-247"/>
<polygon fill="#9a32cd" stroke="#9a32cd" points="1087.04,-243.5 1077.04,-247 1087.04,-250.5 1087.04,-243.5"/>
<text text-anchor="middle" x="1171" y="-251" font-family="Helvetica,sans-Serif" font-size="10.00"> mcWeightingEtaPrime</text>
</g>
<!-- Node3 -->
<g id="node4" class="node"><title>Node3</title>
<a xlink:href="structant_1_1analysis_1_1utils_1_1_m_c_weighting_1_1tree__t.html" target="_top" xlink:title="ant::analysis::utils\l::MCWeighting::tree_t">
<polygon fill="white" stroke="black" points="733.5,-289 733.5,-323 846.5,-323 846.5,-289 733.5,-289"/>
<text text-anchor="start" x="741.5" y="-310" font-family="Helvetica,sans-Serif" font-size="10.00">ant::analysis::utils</text>
<text text-anchor="middle" x="790" y="-297" font-family="Helvetica,sans-Serif" font-size="10.00">::MCWeighting::tree_t</text>
</a>
</g>
<!-- Node3&#45;&gt;Node2 -->
<g id="edge4" class="edge"><title>Node3&#45;&gt;Node2</title>
<path fill="none" stroke="#9a32cd" stroke-dasharray="5,2" d="M856.482,-293.431C882.084,-288.237 911.52,-281.832 938,-275 951.925,-271.408 966.895,-267.023 980.592,-262.8"/>
<polygon fill="#9a32cd" stroke="#9a32cd" points="855.621,-290.034 846.505,-295.433 856.999,-296.897 855.621,-290.034"/>
<text text-anchor="middle" x="917" y="-288" font-family="Helvetica,sans-Serif" font-size="10.00"> t</text>
</g>
<!-- Node4 -->
<g id="node6" class="node"><title>Node4</title>
<a xlink:href="classant_1_1_wrap_t_tree.html" target="_top" xlink:title="The WrapTTree struct simplifies TTree handling in physics classes. ">
<polygon fill="white" stroke="black" points="507.5,-314.5 507.5,-335.5 592.5,-335.5 592.5,-314.5 507.5,-314.5"/>
<text text-anchor="middle" x="550" y="-322.5" font-family="Helvetica,sans-Serif" font-size="10.00">ant::WrapTTree</text>
</a>
</g>
<!-- Node4&#45;&gt;Node3 -->
<g id="edge6" class="edge"><title>Node4&#45;&gt;Node3</title>
<path fill="none" stroke="midnightblue" d="M602.646,-320.832C641.306,-317.772 693.762,-313.619 733.336,-310.486"/>
<polygon fill="midnightblue" stroke="midnightblue" points="602.323,-317.347 592.631,-321.625 602.876,-324.325 602.323,-317.347"/>
</g>
<!-- Node21 -->
<g id="node42" class="node"><title>Node21</title>
<a xlink:href="structant_1_1analysis_1_1physics_1_1_etap_omega_g_1_1_proton_photon_tree__t.html" target="_top" xlink:title="ant::analysis::physics\l::EtapOmegaG::ProtonPhotonTree_t">
<polygon fill="white" stroke="black" points="702.5,-341 702.5,-375 877.5,-375 877.5,-341 702.5,-341"/>
<text text-anchor="start" x="710.5" y="-362" font-family="Helvetica,sans-Serif" font-size="10.00">ant::analysis::physics</text>
<text text-anchor="middle" x="790" y="-349" font-family="Helvetica,sans-Serif" font-size="10.00">::EtapOmegaG::ProtonPhotonTree_t</text>
</a>
</g>
<!-- Node4&#45;&gt;Node21 -->
<g id="edge46" class="edge"><title>Node4&#45;&gt;Node21</title>
<path fill="none" stroke="midnightblue" d="M602.584,-332.23C631.703,-336.234 668.66,-341.316 702.047,-345.906"/>
<polygon fill="midnightblue" stroke="midnightblue" points="603.014,-328.757 592.631,-330.862 602.061,-335.691 603.014,-328.757"/>
</g>
<!-- Node5 -->
<g id="node8" class="node"><title>Node5</title>
<a xlink:href="structant_1_1analysis_1_1utils_1_1_m_c_weighting_1_1item__t.html" target="_top" xlink:title="ant::analysis::utils\l::MCWeighting::item_t">
<polygon fill="white" stroke="black" points="732.5,-144 732.5,-178 847.5,-178 847.5,-144 732.5,-144"/>
<text text-anchor="start" x="740.5" y="-165" font-family="Helvetica,sans-Serif" font-size="10.00">ant::analysis::utils</text>
<text text-anchor="middle" x="790" y="-152" font-family="Helvetica,sans-Serif" font-size="10.00">::MCWeighting::item_t</text>
</a>
</g>
<!-- Node5&#45;&gt;Node2 -->
<g id="edge8" class="edge"><title>Node5&#45;&gt;Node2</title>
<path fill="none" stroke="#9a32cd" stroke-dasharray="5,2" d="M857.813,-157.456C883.701,-158.287 912.986,-161.958 938,-172 969.159,-184.508 997.742,-211.77 1014.26,-229.75"/>
<polygon fill="#9a32cd" stroke="#9a32cd" points="857.765,-153.955 847.701,-157.267 857.634,-160.953 857.765,-153.955"/>
<text text-anchor="middle" x="917" y="-215" font-family="Helvetica,sans-Serif" font-size="10.00"> Item</text>
<text text-anchor="middle" x="917" y="-202" font-family="Helvetica,sans-Serif" font-size="10.00">EtaPrime</text>
<text text-anchor="middle" x="917" y="-189" font-family="Helvetica,sans-Serif" font-size="10.00">Pi0</text>
<text text-anchor="middle" x="917" y="-176" font-family="Helvetica,sans-Serif" font-size="10.00">Omega</text>
</g>
<!-- Node6 -->
<g id="node10" class="node"><title>Node6</title>
<polygon fill="white" stroke="#bfbfbf" points="480,-128.5 480,-149.5 620,-149.5 620,-128.5 480,-128.5"/>
<text text-anchor="middle" x="550" y="-136.5" font-family="Helvetica,sans-Serif" font-size="10.00">std::vector&lt; coefficients_t &gt;</text>
</g>
<!-- Node6&#45;&gt;Node5 -->
<g id="edge10" class="edge"><title>Node6&#45;&gt;Node5</title>
<path fill="none" stroke="#9a32cd" stroke-dasharray="5,2" d="M630.569,-142.87C648.195,-143.979 666.74,-145.347 684,-147 699.706,-148.504 716.669,-150.553 732.321,-152.619"/>
<polygon fill="#9a32cd" stroke="#9a32cd" points="630.508,-139.36 620.314,-142.247 630.083,-146.347 630.508,-139.36"/>
<text text-anchor="middle" x="661" y="-151" font-family="Helvetica,sans-Serif" font-size="10.00"> Database</text>
</g>
<!-- Node7 -->
<g id="node12" class="node"><title>Node7</title>
<polygon fill="white" stroke="#bfbfbf" points="246,-122 246,-156 392,-156 392,-122 246,-122"/>
<text text-anchor="start" x="254" y="-143" font-family="Helvetica,sans-Serif" font-size="10.00">ant::analysis::utils</text>
<text text-anchor="middle" x="319" y="-130" font-family="Helvetica,sans-Serif" font-size="10.00">::MCWeighting::coefficients_t</text>
</g>
<!-- Node7&#45;&gt;Node6 -->
<g id="edge12" class="edge"><title>Node7&#45;&gt;Node6</title>
<path fill="none" stroke="#9a32cd" stroke-dasharray="5,2" d="M402.426,-139C427.774,-139 455.362,-139 479.752,-139"/>
<polygon fill="#9a32cd" stroke="#9a32cd" points="402.09,-135.5 392.09,-139 402.09,-142.5 402.09,-135.5"/>
<text text-anchor="middle" x="436" y="-143" font-family="Helvetica,sans-Serif" font-size="10.00"> elements</text>
</g>
<!-- Node8 -->
<g id="node14" class="node"><title>Node8</title>
<a xlink:href="classant_1_1interval.html" target="_top" xlink:title="ant::interval\&lt; double \&gt;">
<polygon fill="white" stroke="black" points="0,-148.5 0,-169.5 114,-169.5 114,-148.5 0,-148.5"/>
<text text-anchor="middle" x="57" y="-156.5" font-family="Helvetica,sans-Serif" font-size="10.00">ant::interval&lt; double &gt;</text>
</a>
</g>
<!-- Node8&#45;&gt;Node7 -->
<g id="edge14" class="edge"><title>Node8&#45;&gt;Node7</title>
<path fill="none" stroke="#9a32cd" stroke-dasharray="5,2" d="M124.418,-153.854C161.641,-151.012 207.905,-147.481 245.982,-144.574"/>
<polygon fill="#9a32cd" stroke="#9a32cd" points="123.878,-150.385 114.173,-154.636 124.411,-157.364 123.878,-150.385"/>
<text text-anchor="middle" x="180" y="-157" font-family="Helvetica,sans-Serif" font-size="10.00"> BeamE</text>
</g>
<!-- Node9 -->
<g id="node16" class="node"><title>Node9</title>
<polygon fill="white" stroke="#bfbfbf" points="2,-108.5 2,-129.5 112,-129.5 112,-108.5 2,-108.5"/>
<text text-anchor="middle" x="57" y="-116.5" font-family="Helvetica,sans-Serif" font-size="10.00">std::vector&lt; double &gt;</text>
</g>
<!-- Node9&#45;&gt;Node7 -->
<g id="edge16" class="edge"><title>Node9&#45;&gt;Node7</title>
<path fill="none" stroke="#9a32cd" stroke-dasharray="5,2" d="M122.214,-122.031C154.131,-123.713 193.105,-126.064 228,-129 233.702,-129.48 239.599,-130.022 245.525,-130.6"/>
<polygon fill="#9a32cd" stroke="#9a32cd" points="122.281,-118.53 112.114,-121.508 121.919,-125.52 122.281,-118.53"/>
<text text-anchor="middle" x="180" y="-133" font-family="Helvetica,sans-Serif" font-size="10.00"> LegendreCoefficients</text>
</g>
<!-- Node10 -->
<g id="node18" class="node"><title>Node10</title>
<a xlink:href="classant_1_1_particle_type_database_1_1_type.html" target="_top" xlink:title="ant::ParticleTypeDatabase\l::Type">
<polygon fill="white" stroke="black" points="483.5,-168 483.5,-202 616.5,-202 616.5,-168 483.5,-168"/>
<text text-anchor="start" x="491.5" y="-189" font-family="Helvetica,sans-Serif" font-size="10.00">ant::ParticleTypeDatabase</text>
<text text-anchor="middle" x="550" y="-176" font-family="Helvetica,sans-Serif" font-size="10.00">::Type</text>
</a>
</g>
<!-- Node10&#45;&gt;Node5 -->
<g id="edge18" class="edge"><title>Node10&#45;&gt;Node5</title>
<path fill="none" stroke="#9a32cd" stroke-dasharray="5,2" d="M626.517,-177.348C660.811,-173.919 700.584,-169.942 732.312,-166.769"/>
<polygon fill="#9a32cd" stroke="#9a32cd" points="626.137,-173.869 616.535,-178.347 626.833,-180.834 626.137,-173.869"/>
<text text-anchor="middle" x="661" y="-179" font-family="Helvetica,sans-Serif" font-size="10.00"> Type</text>
</g>
<!-- Node10&#45;&gt;Node10 -->
<g id="edge24" class="edge"><title>Node10&#45;&gt;Node10</title>
<path fill="none" stroke="#9a32cd" stroke-dasharray="5,2" d="M530.844,-212.318C533.534,-216.864 539.919,-220 550,-220 566.543,-220 573.134,-211.556 569.774,-202.288"/>
<polygon fill="#9a32cd" stroke="#9a32cd" points="534.334,-212.054 530.226,-202.288 527.347,-212.484 534.334,-212.054"/>
<text text-anchor="middle" x="550" y="-224" font-family="Helvetica,sans-Serif" font-size="10.00"> sametype</text>
</g>
<!-- Node11 -->
<g id="node20" class="node"><title>Node11</title>
<a xlink:title="STL class. ">
<polygon fill="white" stroke="#bfbfbf" points="289,-222.5 289,-243.5 349,-243.5 349,-222.5 289,-222.5"/>
<text text-anchor="middle" x="319" y="-230.5" font-family="Helvetica,sans-Serif" font-size="10.00">std::string</text>
</a>
</g>
<!-- Node11&#45;&gt;Node2 -->
<g id="edge26" class="edge"><title>Node11&#45;&gt;Node2</title>
<path fill="none" stroke="#9a32cd" stroke-dasharray="5,2" d="M359.243,-238.309C375.038,-240.16 393.34,-242.019 410,-243 625.633,-255.703 679.995,-246.111 896,-247 924.17,-247.116 955.696,-247.121 980.982,-247.095"/>
<polygon fill="#9a32cd" stroke="#9a32cd" points="359.616,-234.829 349.268,-237.103 358.776,-241.778 359.616,-234.829"/>
<text text-anchor="middle" x="661" y="-253" font-family="Helvetica,sans-Serif" font-size="10.00"> treeName</text>
</g>
<!-- Node11&#45;&gt;Node10 -->
<g id="edge20" class="edge"><title>Node11&#45;&gt;Node10</title>
<path fill="none" stroke="#9a32cd" stroke-dasharray="5,2" d="M359.282,-224.63C393.471,-217.525 443.22,-207.188 483.335,-198.852"/>
<polygon fill="#9a32cd" stroke="#9a32cd" points="358.278,-221.263 349.199,-226.725 359.702,-228.117 358.278,-221.263"/>
<text text-anchor="middle" x="436" y="-230" font-family="Helvetica,sans-Serif" font-size="10.00"> print_name</text>
<text text-anchor="middle" x="436" y="-217" font-family="Helvetica,sans-Serif" font-size="10.00">name</text>
</g>
<!-- Node12 -->
<g id="node22" class="node"><title>Node12</title>
<a xlink:title="STL class. ">
<polygon fill="white" stroke="#bfbfbf" points="9.5,-216 9.5,-250 104.5,-250 104.5,-216 9.5,-216"/>
<text text-anchor="start" x="17.5" y="-237" font-family="Helvetica,sans-Serif" font-size="10.00">std::basic_string&lt;</text>
<text text-anchor="middle" x="57" y="-224" font-family="Helvetica,sans-Serif" font-size="10.00"> char &gt;</text>
</a>
</g>
<!-- Node12&#45;&gt;Node11 -->
<g id="edge22" class="edge"><title>Node12&#45;&gt;Node11</title>
<path fill="none" stroke="midnightblue" d="M114.815,-233C168.51,-233 246.36,-233 288.739,-233"/>
<polygon fill="midnightblue" stroke="midnightblue" points="114.75,-229.5 104.75,-233 114.75,-236.5 114.75,-229.5"/>
</g>
<!-- Node13 -->
<g id="node26" class="node"><title>Node13</title>
<a xlink:href="classant_1_1analysis_1_1_histogram_factory.html" target="_top" xlink:title="ant::analysis::Histogram\lFactory">
<polygon fill="white" stroke="black" points="728.5,-199 728.5,-233 851.5,-233 851.5,-199 728.5,-199"/>
<text text-anchor="start" x="736.5" y="-220" font-family="Helvetica,sans-Serif" font-size="10.00">ant::analysis::Histogram</text>
<text text-anchor="middle" x="790" y="-207" font-family="Helvetica,sans-Serif" font-size="10.00">Factory</text>
</a>
</g>
<!-- Node13&#45;&gt;Node2 -->
<g id="edge28" class="edge"><title>Node13&#45;&gt;Node2</title>
<path fill="none" stroke="#9a32cd" stroke-dasharray="5,2" d="M861.787,-224.425C886.009,-227.349 913.19,-230.719 938,-234 951.923,-235.841 967.027,-237.952 980.854,-239.931"/>
<polygon fill="#9a32cd" stroke="#9a32cd" points="861.949,-220.92 851.603,-223.201 861.113,-227.87 861.949,-220.92"/>
<text text-anchor="middle" x="917" y="-238" font-family="Helvetica,sans-Serif" font-size="10.00"> HistFac</text>
</g>
<!-- Node14 -->
<g id="node28" class="node"><title>Node14</title>
<a xlink:href="classant_1_1analysis_1_1utils_1_1_kin_fitter.html" target="_top" xlink:title="ant::analysis::utils\l::KinFitter">
<polygon fill="white" stroke="black" points="981,-75 981,-109 1077,-109 1077,-75 981,-75"/>
<text text-anchor="start" x="989" y="-96" font-family="Helvetica,sans-Serif" font-size="10.00">ant::analysis::utils</text>
<text text-anchor="middle" x="1029" y="-83" font-family="Helvetica,sans-Serif" font-size="10.00">::KinFitter</text>
</a>
</g>
<!-- Node14&#45;&gt;Node1 -->
<g id="edge30" class="edge"><title>Node14&#45;&gt;Node1</title>
<path fill="none" stroke="#9a32cd" stroke-dasharray="5,2" d="M1067.23,-114.193C1121.06,-145.445 1218.05,-201.747 1266.61,-229.941"/>
<polygon fill="#9a32cd" stroke="#9a32cd" points="1068.74,-111.025 1058.34,-109.031 1065.23,-117.079 1068.74,-111.025"/>
<text text-anchor="middle" x="1171" y="-205" font-family="Helvetica,sans-Serif" font-size="10.00"> kinfitter</text>
</g>
<!-- Node15 -->
<g id="node30" class="node"><title>Node15</title>
<a xlink:href="classant_1_1analysis_1_1utils_1_1_fitter.html" target="_top" xlink:title="ant::analysis::utils\l::Fitter">
<polygon fill="white" stroke="black" points="742,-52 742,-86 838,-86 838,-52 742,-52"/>
<text text-anchor="start" x="750" y="-73" font-family="Helvetica,sans-Serif" font-size="10.00">ant::analysis::utils</text>
<text text-anchor="middle" x="790" y="-60" font-family="Helvetica,sans-Serif" font-size="10.00">::Fitter</text>
</a>
</g>
<!-- Node15&#45;&gt;Node14 -->
<g id="edge32" class="edge"><title>Node15&#45;&gt;Node14</title>
<path fill="none" stroke="midnightblue" d="M848.138,-74.5949C888.884,-78.5161 942.693,-83.6943 980.999,-87.3807"/>
<polygon fill="midnightblue" stroke="midnightblue" points="848.367,-71.1008 838.078,-73.6267 847.696,-78.0686 848.367,-71.1008"/>
</g>
<!-- Node16 -->
<g id="node32" class="node"><title>Node16</title>
<a xlink:href="structant_1_1analysis_1_1utils_1_1_kin_fitter_1_1_beam_e__t.html" target="_top" xlink:title="ant::analysis::utils\l::KinFitter::BeamE_t">
<polygon fill="white" stroke="black" points="737,-0 737,-34 843,-34 843,-0 737,-0"/>
<text text-anchor="start" x="745" y="-21" font-family="Helvetica,sans-Serif" font-size="10.00">ant::analysis::utils</text>
<text text-anchor="middle" x="790" y="-8" font-family="Helvetica,sans-Serif" font-size="10.00">::KinFitter::BeamE_t</text>
</a>
</g>
<!-- Node16&#45;&gt;Node14 -->
<g id="edge34" class="edge"><title>Node16&#45;&gt;Node14</title>
<path fill="none" stroke="#9a32cd" stroke-dasharray="5,2" d="M852.927,-35.4307C861.364,-37.949 869.898,-40.5205 878,-43 912.524,-53.5655 951.256,-66.1488 980.848,-75.9182"/>
<polygon fill="#9a32cd" stroke="#9a32cd" points="853.682,-32.0039 843.099,-32.5077 851.686,-38.7134 853.682,-32.0039"/>
<text text-anchor="middle" x="917" y="-66" font-family="Helvetica,sans-Serif" font-size="10.00"> BeamE</text>
</g>
<!-- Node17 -->
<g id="node34" class="node"><title>Node17</title>
<a xlink:href="structant_1_1analysis_1_1utils_1_1_fitter_1_1_v___s___p__t.html" target="_top" xlink:title="ant::analysis::utils\l::Fitter::V_S_P_t">
<polygon fill="white" stroke="black" points="502,-0 502,-34 598,-34 598,-0 502,-0"/>
<text text-anchor="start" x="510" y="-21" font-family="Helvetica,sans-Serif" font-size="10.00">ant::analysis::utils</text>
<text text-anchor="middle" x="550" y="-8" font-family="Helvetica,sans-Serif" font-size="10.00">::Fitter::V_S_P_t</text>
</a>
</g>
<!-- Node17&#45;&gt;Node16 -->
<g id="edge36" class="edge"><title>Node17&#45;&gt;Node16</title>
<path fill="none" stroke="midnightblue" d="M608.472,-17C647.631,-17 698.773,-17 736.79,-17"/>
<polygon fill="midnightblue" stroke="midnightblue" points="608.279,-13.5001 598.279,-17 608.279,-20.5001 608.279,-13.5001"/>
</g>
<!-- Node18 -->
<g id="node36" class="node"><title>Node18</title>
<a xlink:href="structant_1_1analysis_1_1utils_1_1_fitter_1_1_v___s__t.html" target="_top" xlink:title="ant::analysis::utils\l::Fitter::V_S_t">
<polygon fill="white" stroke="black" points="271,-0 271,-34 367,-34 367,-0 271,-0"/>
<text text-anchor="start" x="279" y="-21" font-family="Helvetica,sans-Serif" font-size="10.00">ant::analysis::utils</text>
<text text-anchor="middle" x="319" y="-8" font-family="Helvetica,sans-Serif" font-size="10.00">::Fitter::V_S_t</text>
</a>
</g>
<!-- Node18&#45;&gt;Node17 -->
<g id="edge38" class="edge"><title>Node18&#45;&gt;Node17</title>
<path fill="none" stroke="midnightblue" d="M377.182,-17C415.712,-17 465.641,-17 501.918,-17"/>
<polygon fill="midnightblue" stroke="midnightblue" points="377.144,-13.5001 367.144,-17 377.144,-20.5001 377.144,-13.5001"/>
</g>
<!-- Node19 -->
<g id="node38" class="node"><title>Node19</title>
<polygon fill="white" stroke="#bfbfbf" points="727.5,-104.5 727.5,-125.5 852.5,-125.5 852.5,-104.5 727.5,-104.5"/>
<text text-anchor="middle" x="790" y="-112.5" font-family="Helvetica,sans-Serif" font-size="10.00">std::vector&lt; FitParticle &gt;</text>
</g>
<!-- Node19&#45;&gt;Node14 -->
<g id="edge40" class="edge"><title>Node19&#45;&gt;Node14</title>
<path fill="none" stroke="#9a32cd" stroke-dasharray="5,2" d="M862.875,-107.987C901.207,-104.298 947.129,-99.8788 980.967,-96.6224"/>
<polygon fill="#9a32cd" stroke="#9a32cd" points="862.413,-104.515 852.794,-108.957 863.084,-111.483 862.413,-104.515"/>
<text text-anchor="middle" x="917" y="-108" font-family="Helvetica,sans-Serif" font-size="10.00"> Photons</text>
</g>
<!-- Node20 -->
<g id="node40" class="node"><title>Node20</title>
<a xlink:href="structant_1_1analysis_1_1physics_1_1_etap_omega_g_1_1_ref__t_1_1_tree__t.html" target="_top" xlink:title="ant::analysis::physics\l::EtapOmegaG::Ref_t::Tree_t">
<polygon fill="white" stroke="black" points="956,-311 956,-345 1102,-345 1102,-311 956,-311"/>
<text text-anchor="start" x="964" y="-332" font-family="Helvetica,sans-Serif" font-size="10.00">ant::analysis::physics</text>
<text text-anchor="middle" x="1029" y="-319" font-family="Helvetica,sans-Serif" font-size="10.00">::EtapOmegaG::Ref_t::Tree_t</text>
</a>
</g>
<!-- Node20&#45;&gt;Node1 -->
<g id="edge42" class="edge"><title>Node20&#45;&gt;Node1</title>
<path fill="none" stroke="#9a32cd" stroke-dasharray="5,2" d="M1095.14,-307.935C1139.59,-294.449 1197.55,-276.866 1239.78,-264.056"/>
<polygon fill="#9a32cd" stroke="#9a32cd" points="1093.85,-304.669 1085.3,-310.921 1095.88,-311.367 1093.85,-304.669"/>
<text text-anchor="middle" x="1171" y="-303" font-family="Helvetica,sans-Serif" font-size="10.00"> t</text>
</g>
<!-- Node21&#45;&gt;Node20 -->
<g id="edge44" class="edge"><title>Node21&#45;&gt;Node20</title>
<path fill="none" stroke="midnightblue" d="M887.676,-345.739C910.474,-342.878 934.37,-339.878 955.889,-337.177"/>
<polygon fill="midnightblue" stroke="midnightblue" points="887.124,-342.281 877.638,-346.999 887.996,-349.227 887.124,-342.281"/>
</g>
</g>
</svg>
