<?xml version="1.0" encoding="UTF-8" standalone="no"?>
<!DOCTYPE svg PUBLIC "-//W3C//DTD SVG 1.1//EN"
 "http://www.w3.org/Graphics/SVG/1.1/DTD/svg11.dtd">
<!-- Generated by graphviz version 2.26.3 (20100126.1600)
 -->
<!-- Title: singlePi0_Plot::SinglePi0Hist_t Pages: 1 -->
<svg width="248pt" height="268pt"
 viewBox="0.00 0.00 248.00 268.00" xmlns="http://www.w3.org/2000/svg" xmlns:xlink="http://www.w3.org/1999/xlink">
<g id="graph1" class="graph" transform="scale(1 1) rotate(0) translate(4 264)">
<title>singlePi0_Plot::SinglePi0Hist_t</title>
<polygon fill="white" stroke="white" points="-4,5 -4,-264 245,-264 245,5 -4,5"/>
<!-- Node1 -->
<g id="node1" class="node"><title>Node1</title>
<polygon fill="#bfbfbf" stroke="black" points="43,-1 43,-35 169,-35 169,-1 43,-1"/>
<text text-anchor="start" x="51" y="-22" font-family="Helvetica,sans-Serif" font-size="10.00">singlePi0_Plot::SinglePi0</text>
<text text-anchor="middle" x="106" y="-9" font-family="Helvetica,sans-Serif" font-size="10.00">Hist_t</text>
</g>
<!-- Node2 -->
<g id="node2" class="node"><title>Node2</title>
<a xlink:href="classant_1_1analysis_1_1_histogram_factory.html" target="_top" xlink:title="ant::analysis::Histogram\lFactory">
<polygon fill="white" stroke="black" points="-0.5,-165 -0.5,-199 122.5,-199 122.5,-165 -0.5,-165"/>
<text text-anchor="start" x="7.5" y="-186" font-family="Helvetica,sans-Serif" font-size="10.00">ant::analysis::Histogram</text>
<text text-anchor="middle" x="61" y="-173" font-family="Helvetica,sans-Serif" font-size="10.00">Factory</text>
</a>
</g>
<!-- Node2&#45;&gt;Node1 -->
<g id="edge2" class="edge"><title>Node2&#45;&gt;Node1</title>
<path fill="none" stroke="#9a32cd" stroke-dasharray="5,2" d="M66.4635,-154.905C71.9847,-128.799 81.2236,-88.3195 92,-54 93.9688,-47.73 96.4819,-40.9848 98.834,-35.0471"/>
<polygon fill="#9a32cd" stroke="#9a32cd" points="63.0103,-154.32 64.3988,-164.824 69.8634,-155.747 63.0103,-154.32"/>
<text text-anchor="middle" x="111" y="-97.5" font-family="Helvetica,sans-Serif" font-size="10.00"> HistFac</text>
</g>
<!-- Node3 -->
<g id="node4" class="node"><title>Node3</title>
<a xlink:href="classant_1_1_bin_settings.html" target="_top" xlink:title="ant::BinSettings">
<polygon fill="white" stroke="black" points="140,-171.5 140,-192.5 226,-192.5 226,-171.5 140,-171.5"/>
<text text-anchor="middle" x="183" y="-179.5" font-family="Helvetica,sans-Serif" font-size="10.00">ant::BinSettings</text>
</a>
</g>
<!-- Node3&#45;&gt;Node1 -->
<g id="edge4" class="edge"><title>Node3&#45;&gt;Node1</title>
<path fill="none" stroke="#9a32cd" stroke-dasharray="5,2" d="M175.978,-161.656C166.784,-135.929 149.522,-90.5754 130,-54 126.604,-47.6384 122.381,-40.9855 118.427,-35.1544"/>
<polygon fill="#9a32cd" stroke="#9a32cd" points="172.785,-163.128 179.407,-171.398 179.388,-160.803 172.785,-163.128"/>
<text text-anchor="middle" x="199" y="-136.5" font-family="Helvetica,sans-Serif" font-size="10.00"> pEbins</text>
<text text-anchor="middle" x="199" y="-123.5" font-family="Helvetica,sans-Serif" font-size="10.00">cosTheta</text>
<text text-anchor="middle" x="199" y="-110.5" font-family="Helvetica,sans-Serif" font-size="10.00">pThetaBins</text>
<text text-anchor="middle" x="199" y="-97.5" font-family="Helvetica,sans-Serif" font-size="10.00">IM2g</text>
<text text-anchor="middle" x="199" y="-84.5" font-family="Helvetica,sans-Serif" font-size="10.00">IMProtonBins</text>
<text text-anchor="middle" x="199" y="-71.5" font-family="Helvetica,sans-Serif" font-size="10.00">probbins</text>
<text text-anchor="middle" x="199" y="-58.5" font-family="Helvetica,sans-Serif" font-size="10.00">IMbins</text>
</g>
<!-- Node4 -->
<g id="node6" class="node"><title>Node4</title>
<a xlink:href="classant_1_1interval.html" target="_top" xlink:title="ant::interval\&lt; double \&gt;">
<polygon fill="white" stroke="black" points="126,-238.5 126,-259.5 240,-259.5 240,-238.5 126,-238.5"/>
<text text-anchor="middle" x="183" y="-246.5" font-family="Helvetica,sans-Serif" font-size="10.00">ant::interval&lt; double &gt;</text>
</a>
</g>
<!-- Node4&#45;&gt;Node3 -->
<g id="edge6" class="edge"><title>Node4&#45;&gt;Node3</title>
<path fill="none" stroke="midnightblue" d="M183,-227.904C183,-216.127 183,-201.967 183,-192.517"/>
<polygon fill="midnightblue" stroke="midnightblue" points="179.5,-228.235 183,-238.235 186.5,-228.235 179.5,-228.235"/>
</g>
</g>
</svg>
