<?xml version="1.0" encoding="UTF-8" standalone="no"?>
<!DOCTYPE svg PUBLIC "-//W3C//DTD SVG 1.1//EN"
 "http://www.w3.org/Graphics/SVG/1.1/DTD/svg11.dtd">
<!-- Generated by graphviz version 2.26.3 (20100126.1600)
 -->
<!-- Title: ant::analysis::physics::triplePi0 Pages: 1 -->
<svg width="1488pt" height="621pt"
 viewBox="0.00 0.00 1488.00 621.00" xmlns="http://www.w3.org/2000/svg" xmlns:xlink="http://www.w3.org/1999/xlink">
<g id="graph1" class="graph" transform="scale(1 1) rotate(0) translate(4 617)">
<title>ant::analysis::physics::triplePi0</title>
<polygon fill="white" stroke="white" points="-4,5 -4,-617 1485,-617 1485,5 -4,5"/>
<!-- Node2 -->
<g id="node1" class="node"><title>Node2</title>
<polygon fill="#bfbfbf" stroke="black" points="1368,-315 1368,-349 1480,-349 1480,-315 1368,-315"/>
<text text-anchor="start" x="1376" y="-336" font-family="Helvetica,sans-Serif" font-size="10.00">ant::analysis::physics</text>
<text text-anchor="middle" x="1424" y="-323" font-family="Helvetica,sans-Serif" font-size="10.00">::triplePi0</text>
</g>
<!-- Node3 -->
<g id="node2" class="node"><title>Node3</title>
<a xlink:href="classant_1_1analysis_1_1_physics.html" target="_top" xlink:title="ant::analysis::Physics">
<polygon fill="white" stroke="black" points="1120.5,-585.5 1120.5,-606.5 1233.5,-606.5 1233.5,-585.5 1120.5,-585.5"/>
<text text-anchor="middle" x="1177" y="-593.5" font-family="Helvetica,sans-Serif" font-size="10.00">ant::analysis::Physics</text>
</a>
</g>
<!-- Node3&#45;&gt;Node2 -->
<g id="edge2" class="edge"><title>Node3&#45;&gt;Node2</title>
<path fill="none" stroke="midnightblue" d="M1244.18,-589.522C1279.68,-582.848 1321.66,-569.334 1350,-542 1406.07,-487.93 1419.72,-388.874 1422.99,-349.149"/>
<polygon fill="midnightblue" stroke="midnightblue" points="1243.13,-586.151 1233.87,-591.305 1244.32,-593.049 1243.13,-586.151"/>
</g>
<!-- Node4 -->
<g id="node4" class="node"><title>Node4</title>
<a xlink:href="classant_1_1analysis_1_1_histogram_factory.html" target="_top" xlink:title="ant::analysis::Histogram\lFactory">
<polygon fill="white" stroke="black" points="849.5,-579 849.5,-613 972.5,-613 972.5,-579 849.5,-579"/>
<text text-anchor="start" x="857.5" y="-600" font-family="Helvetica,sans-Serif" font-size="10.00">ant::analysis::Histogram</text>
<text text-anchor="middle" x="911" y="-587" font-family="Helvetica,sans-Serif" font-size="10.00">Factory</text>
</a>
</g>
<!-- Node4&#45;&gt;Node3 -->
<g id="edge4" class="edge"><title>Node4&#45;&gt;Node3</title>
<path fill="none" stroke="#9a32cd" stroke-dasharray="5,2" d="M982.841,-596C1025.96,-596 1080.05,-596 1120.18,-596"/>
<polygon fill="#9a32cd" stroke="#9a32cd" points="982.694,-592.5 972.694,-596 982.694,-599.5 982.694,-592.5"/>
<text text-anchor="middle" x="1047" y="-600" font-family="Helvetica,sans-Serif" font-size="10.00"> HistFac</text>
</g>
<!-- Node5 -->
<g id="node6" class="node"><title>Node5</title>
<a xlink:href="structant_1_1analysis_1_1physics_1_1triple_pi0_1_1settings__t.html" target="_top" xlink:title="ant::analysis::physics\l::triplePi0::settings_t">
<polygon fill="white" stroke="black" points="855,-396 855,-430 967,-430 967,-396 855,-396"/>
<text text-anchor="start" x="863" y="-417" font-family="Helvetica,sans-Serif" font-size="10.00">ant::analysis::physics</text>
<text text-anchor="middle" x="911" y="-404" font-family="Helvetica,sans-Serif" font-size="10.00">::triplePi0::settings_t</text>
</a>
</g>
<!-- Node5&#45;&gt;Node2 -->
<g id="edge6" class="edge"><title>Node5&#45;&gt;Node2</title>
<path fill="none" stroke="#9a32cd" stroke-dasharray="5,2" d="M977.339,-414.306C1064.87,-414.153 1222.72,-407.339 1350,-366 1363.85,-361.502 1378.53,-355.119 1391.14,-349.097"/>
<polygon fill="#9a32cd" stroke="#9a32cd" points="977.284,-410.806 967.28,-414.294 977.276,-417.806 977.284,-410.806"/>
<text text-anchor="middle" x="1177" y="-413" font-family="Helvetica,sans-Serif" font-size="10.00"> phSettings</text>
</g>
<!-- Node6 -->
<g id="node8" class="node"><title>Node6</title>
<polygon fill="white" stroke="#bfbfbf" points="601,-333 601,-367 705,-367 705,-333 601,-333"/>
<text text-anchor="start" x="609" y="-354" font-family="Helvetica,sans-Serif" font-size="10.00">std::vector&lt; interval</text>
<text text-anchor="middle" x="653" y="-341" font-family="Helvetica,sans-Serif" font-size="10.00">&lt; double &gt; &gt;</text>
</g>
<!-- Node6&#45;&gt;Node5 -->
<g id="edge8" class="edge"><title>Node6&#45;&gt;Node5</title>
<path fill="none" stroke="#9a32cd" stroke-dasharray="5,2" d="M715.044,-356.91C745.225,-361.057 781.844,-367.256 814,-376 822.283,-378.252 823.988,-379.921 832,-383 842.956,-387.21 854.779,-391.719 865.857,-395.928"/>
<polygon fill="#9a32cd" stroke="#9a32cd" points="715.445,-353.433 705.071,-355.582 714.521,-360.372 715.445,-353.433"/>
<text text-anchor="middle" x="774" y="-380" font-family="Helvetica,sans-Serif" font-size="10.00"> Ranges_Random</text>
</g>
<!-- Node33 -->
<g id="node64" class="node"><title>Node33</title>
<a xlink:href="classant_1_1_piecewise_interval.html" target="_top" xlink:title="ant::PiecewiseInterval\l\&lt; double \&gt;">
<polygon fill="white" stroke="black" points="854.5,-340 854.5,-374 967.5,-374 967.5,-340 854.5,-340"/>
<text text-anchor="start" x="862.5" y="-361" font-family="Helvetica,sans-Serif" font-size="10.00">ant::PiecewiseInterval</text>
<text text-anchor="middle" x="911" y="-348" font-family="Helvetica,sans-Serif" font-size="10.00">&lt; double &gt;</text>
</a>
</g>
<!-- Node6&#45;&gt;Node33 -->
<g id="edge68" class="edge"><title>Node6&#45;&gt;Node33</title>
<path fill="none" stroke="midnightblue" d="M715.403,-351.693C757.759,-352.842 813.315,-354.35 854.391,-355.464"/>
<polygon fill="midnightblue" stroke="midnightblue" points="715.301,-348.189 705.21,-351.417 715.112,-355.187 715.301,-348.189"/>
</g>
<!-- Node7 -->
<g id="node10" class="node"><title>Node7</title>
<a xlink:href="classant_1_1interval.html" target="_top" xlink:title="ant::interval\&lt; double \&gt;">
<polygon fill="white" stroke="black" points="388,-366.5 388,-387.5 502,-387.5 502,-366.5 388,-366.5"/>
<text text-anchor="middle" x="445" y="-374.5" font-family="Helvetica,sans-Serif" font-size="10.00">ant::interval&lt; double &gt;</text>
</a>
</g>
<!-- Node7&#45;&gt;Node5 -->
<g id="edge12" class="edge"><title>Node7&#45;&gt;Node5</title>
<path fill="none" stroke="#9a32cd" stroke-dasharray="5,2" d="M512.208,-382.192C604.491,-389.321 768.767,-402.012 854.847,-408.662"/>
<polygon fill="#9a32cd" stroke="#9a32cd" points="512.381,-378.695 502.141,-381.414 511.841,-385.674 512.381,-378.695"/>
<text text-anchor="middle" x="653" y="-453" font-family="Helvetica,sans-Serif" font-size="10.00"> Range_Prompt</text>
<text text-anchor="middle" x="653" y="-440" font-family="Helvetica,sans-Serif" font-size="10.00">Cut_EMB_prob</text>
<text text-anchor="middle" x="653" y="-427" font-family="Helvetica,sans-Serif" font-size="10.00">Cut_MMAngle</text>
<text text-anchor="middle" x="653" y="-414" font-family="Helvetica,sans-Serif" font-size="10.00">Cut_MM</text>
<text text-anchor="middle" x="653" y="-401" font-family="Helvetica,sans-Serif" font-size="10.00">Cut_ProtonCopl</text>
</g>
<!-- Node7&#45;&gt;Node6 -->
<g id="edge10" class="edge"><title>Node7&#45;&gt;Node6</title>
<path fill="none" stroke="#9a32cd" stroke-dasharray="5,2" d="M512.107,-368.289C540.927,-364.548 574.09,-360.243 600.999,-356.75"/>
<polygon fill="#9a32cd" stroke="#9a32cd" points="511.578,-364.828 502.112,-369.586 512.479,-371.77 511.578,-364.828"/>
<text text-anchor="middle" x="550" y="-369" font-family="Helvetica,sans-Serif" font-size="10.00"> elements</text>
</g>
<!-- Node8 -->
<g id="node13" class="node"><title>Node8</title>
<a xlink:title="STL class. ">
<polygon fill="white" stroke="#bfbfbf" points="623,-526.5 623,-547.5 683,-547.5 683,-526.5 623,-526.5"/>
<text text-anchor="middle" x="653" y="-534.5" font-family="Helvetica,sans-Serif" font-size="10.00">std::string</text>
</a>
</g>
<!-- Node8&#45;&gt;Node5 -->
<g id="edge14" class="edge"><title>Node8&#45;&gt;Node5</title>
<path fill="none" stroke="#9a32cd" stroke-dasharray="5,2" d="M692.813,-524.776C700.534,-522.289 708.542,-519.627 716,-517 760.062,-501.48 772.643,-500.725 814,-479 841.048,-464.791 869.702,-444.574 888.793,-430.268"/>
<polygon fill="#9a32cd" stroke="#9a32cd" points="691.719,-521.452 683.25,-527.818 693.84,-528.122 691.719,-521.452"/>
<text text-anchor="middle" x="774" y="-514" font-family="Helvetica,sans-Serif" font-size="10.00"> Tree_Name</text>
</g>
<!-- Node36 -->
<g id="node71" class="node"><title>Node36</title>
<a xlink:href="structant_1_1analysis_1_1physics_1_1triple_pi0_1_1named__channel__t.html" target="_top" xlink:title="ant::analysis::physics\l::triplePi0::named_channel_t">
<polygon fill="white" stroke="black" points="841,-511 841,-545 981,-545 981,-511 841,-511"/>
<text text-anchor="start" x="849" y="-532" font-family="Helvetica,sans-Serif" font-size="10.00">ant::analysis::physics</text>
<text text-anchor="middle" x="911" y="-519" font-family="Helvetica,sans-Serif" font-size="10.00">::triplePi0::named_channel_t</text>
</a>
</g>
<!-- Node8&#45;&gt;Node36 -->
<g id="edge76" class="edge"><title>Node8&#45;&gt;Node36</title>
<path fill="none" stroke="#9a32cd" stroke-dasharray="5,2" d="M693.12,-535.6C732.509,-534.226 793.411,-532.102 840.824,-530.448"/>
<polygon fill="#9a32cd" stroke="#9a32cd" points="692.973,-532.103 683.101,-535.95 693.217,-539.099 692.973,-532.103"/>
<text text-anchor="middle" x="774" y="-538" font-family="Helvetica,sans-Serif" font-size="10.00"> Name</text>
</g>
<!-- Node9 -->
<g id="node15" class="node"><title>Node9</title>
<a xlink:title="STL class. ">
<polygon fill="white" stroke="#bfbfbf" points="397.5,-520 397.5,-554 492.5,-554 492.5,-520 397.5,-520"/>
<text text-anchor="start" x="405.5" y="-541" font-family="Helvetica,sans-Serif" font-size="10.00">std::basic_string&lt;</text>
<text text-anchor="middle" x="445" y="-528" font-family="Helvetica,sans-Serif" font-size="10.00"> char &gt;</text>
</a>
</g>
<!-- Node9&#45;&gt;Node8 -->
<g id="edge16" class="edge"><title>Node9&#45;&gt;Node8</title>
<path fill="none" stroke="midnightblue" d="M502.879,-537C541.819,-537 591.578,-537 622.878,-537"/>
<polygon fill="midnightblue" stroke="midnightblue" points="502.719,-533.5 492.719,-537 502.719,-540.5 502.719,-533.5"/>
</g>
<!-- Node10 -->
<g id="node17" class="node"><title>Node10</title>
<a xlink:href="classant_1_1interval.html" target="_top" xlink:title="ant::interval\&lt; size_t \&gt;">
<polygon fill="white" stroke="black" points="597,-486.5 597,-507.5 709,-507.5 709,-486.5 597,-486.5"/>
<text text-anchor="middle" x="653" y="-494.5" font-family="Helvetica,sans-Serif" font-size="10.00">ant::interval&lt; size_t &gt;</text>
</a>
</g>
<!-- Node10&#45;&gt;Node5 -->
<g id="edge18" class="edge"><title>Node10&#45;&gt;Node5</title>
<path fill="none" stroke="#9a32cd" stroke-dasharray="5,2" d="M697.026,-482.406C703.631,-479.41 710.173,-475.945 716,-472 725.633,-465.479 723.89,-458.753 734,-453 771.102,-431.888 818.515,-421.919 854.93,-417.211"/>
<polygon fill="#9a32cd" stroke="#9a32cd" points="695.243,-479.359 687.379,-486.459 697.954,-485.812 695.243,-479.359"/>
<text text-anchor="middle" x="774" y="-470" font-family="Helvetica,sans-Serif" font-size="10.00"> Cut_NCands</text>
<text text-anchor="middle" x="774" y="-457" font-family="Helvetica,sans-Serif" font-size="10.00">Cut_NNeutr</text>
</g>
<!-- Node11 -->
<g id="node19" class="node"><title>Node11</title>
<a xlink:href="structant_1_1analysis_1_1physics_1_1triple_pi0_1_1_pion_prod_tree.html" target="_top" xlink:title="ant::analysis::physics\l::triplePi0::PionProdTree">
<polygon fill="white" stroke="black" points="1115.5,-291 1115.5,-325 1238.5,-325 1238.5,-291 1115.5,-291"/>
<text text-anchor="start" x="1123.5" y="-312" font-family="Helvetica,sans-Serif" font-size="10.00">ant::analysis::physics</text>
<text text-anchor="middle" x="1177" y="-299" font-family="Helvetica,sans-Serif" font-size="10.00">::triplePi0::PionProdTree</text>
</a>
</g>
<!-- Node11&#45;&gt;Node2 -->
<g id="edge20" class="edge"><title>Node11&#45;&gt;Node2</title>
<path fill="none" stroke="#9a32cd" stroke-dasharray="5,2" d="M1249.17,-309.37C1280.29,-310.576 1317.03,-312.824 1350,-317 1355.85,-317.741 1361.93,-318.685 1367.98,-319.738"/>
<polygon fill="#9a32cd" stroke="#9a32cd" points="1248.97,-305.861 1238.85,-309 1248.72,-312.856 1248.97,-305.861"/>
<text text-anchor="middle" x="1309" y="-321" font-family="Helvetica,sans-Serif" font-size="10.00"> tree</text>
</g>
<!-- Node12 -->
<g id="node21" class="node"><title>Node12</title>
<a xlink:href="classant_1_1_wrap_t_tree.html" target="_top" xlink:title="The WrapTTree struct simplifies TTree handling in physics classes. ">
<polygon fill="white" stroke="black" points="868.5,-297.5 868.5,-318.5 953.5,-318.5 953.5,-297.5 868.5,-297.5"/>
<text text-anchor="middle" x="911" y="-305.5" font-family="Helvetica,sans-Serif" font-size="10.00">ant::WrapTTree</text>
</a>
</g>
<!-- Node12&#45;&gt;Node11 -->
<g id="edge22" class="edge"><title>Node12&#45;&gt;Node11</title>
<path fill="none" stroke="midnightblue" d="M963.837,-308C1007.37,-308 1069.17,-308 1115.03,-308"/>
<polygon fill="midnightblue" stroke="midnightblue" points="963.738,-304.5 953.738,-308 963.737,-311.5 963.738,-304.5"/>
</g>
<!-- Node13 -->
<g id="node23" class="node"><title>Node13</title>
<polygon fill="white" stroke="#bfbfbf" points="1125,-239 1125,-273 1229,-273 1229,-239 1125,-239"/>
<text text-anchor="start" x="1133" y="-260" font-family="Helvetica,sans-Serif" font-size="10.00">std::vector&lt; utils</text>
<text text-anchor="middle" x="1177" y="-247" font-family="Helvetica,sans-Serif" font-size="10.00">::TreeFitter::tree_t &gt;</text>
</g>
<!-- Node13&#45;&gt;Node2 -->
<g id="edge24" class="edge"><title>Node13&#45;&gt;Node2</title>
<path fill="none" stroke="#9a32cd" stroke-dasharray="5,2" d="M1239.24,-265.054C1272.69,-270.974 1314.28,-280.048 1350,-293 1365.84,-298.743 1382.52,-307.289 1396.02,-314.918"/>
<polygon fill="#9a32cd" stroke="#9a32cd" points="1239.58,-261.562 1229.13,-263.317 1238.39,-268.461 1239.58,-261.562"/>
<text text-anchor="middle" x="1309" y="-297" font-family="Helvetica,sans-Serif" font-size="10.00"> pionsFitterSig</text>
</g>
<!-- Node14 -->
<g id="node25" class="node"><title>Node14</title>
<a xlink:href="classant_1_1analysis_1_1utils_1_1_tree_fitter.html" target="_top" xlink:title="ant::analysis::utils\l::TreeFitter">
<polygon fill="white" stroke="black" points="1129,-138 1129,-172 1225,-172 1225,-138 1129,-138"/>
<text text-anchor="start" x="1137" y="-159" font-family="Helvetica,sans-Serif" font-size="10.00">ant::analysis::utils</text>
<text text-anchor="middle" x="1177" y="-146" font-family="Helvetica,sans-Serif" font-size="10.00">::TreeFitter</text>
</a>
</g>
<!-- Node14&#45;&gt;Node2 -->
<g id="edge26" class="edge"><title>Node14&#45;&gt;Node2</title>
<path fill="none" stroke="#9a32cd" stroke-dasharray="5,2" d="M1235.59,-150.706C1271.76,-151.015 1317.33,-157.071 1350,-181 1395.22,-214.12 1414.24,-282.498 1420.92,-314.616"/>
<polygon fill="#9a32cd" stroke="#9a32cd" points="1235.15,-147.209 1225.17,-150.771 1235.2,-154.208 1235.15,-147.209"/>
<text text-anchor="middle" x="1309" y="-185" font-family="Helvetica,sans-Serif" font-size="10.00"> fitterSig</text>
</g>
<!-- Node15 -->
<g id="node27" class="node"><title>Node15</title>
<a xlink:href="classant_1_1analysis_1_1utils_1_1_kin_fitter.html" target="_top" xlink:title="ant::analysis::utils\l::KinFitter">
<polygon fill="white" stroke="black" points="863,-191 863,-225 959,-225 959,-191 863,-191"/>
<text text-anchor="start" x="871" y="-212" font-family="Helvetica,sans-Serif" font-size="10.00">ant::analysis::utils</text>
<text text-anchor="middle" x="911" y="-199" font-family="Helvetica,sans-Serif" font-size="10.00">::KinFitter</text>
</a>
</g>
<!-- Node15&#45;&gt;Node2 -->
<g id="edge62" class="edge"><title>Node15&#45;&gt;Node2</title>
<path fill="none" stroke="#9a32cd" stroke-dasharray="5,2" d="M969.182,-201.985C1037.54,-196.639 1153.84,-192.949 1250,-217 1298.21,-229.057 1308.77,-239.264 1350,-267 1371.14,-281.222 1392.74,-300.908 1407.1,-314.88"/>
<polygon fill="#9a32cd" stroke="#9a32cd" points="968.723,-198.511 959.043,-202.818 969.296,-205.488 968.723,-198.511"/>
<text text-anchor="middle" x="1177" y="-221" font-family="Helvetica,sans-Serif" font-size="10.00"> kinFitterEMB</text>
</g>
<!-- Node15&#45;&gt;Node14 -->
<g id="edge28" class="edge"><title>Node15&#45;&gt;Node14</title>
<path fill="none" stroke="midnightblue" d="M969.065,-196.431C1016.87,-186.906 1083.84,-173.561 1128.74,-164.616"/>
<polygon fill="midnightblue" stroke="midnightblue" points="968.294,-193.015 959.171,-198.402 969.662,-199.88 968.294,-193.015"/>
</g>
<!-- Node16 -->
<g id="node29" class="node"><title>Node16</title>
<a xlink:href="classant_1_1analysis_1_1utils_1_1_fitter.html" target="_top" xlink:title="ant::analysis::utils\l::Fitter">
<polygon fill="white" stroke="black" points="605,-110 605,-144 701,-144 701,-110 605,-110"/>
<text text-anchor="start" x="613" y="-131" font-family="Helvetica,sans-Serif" font-size="10.00">ant::analysis::utils</text>
<text text-anchor="middle" x="653" y="-118" font-family="Helvetica,sans-Serif" font-size="10.00">::Fitter</text>
</a>
</g>
<!-- Node16&#45;&gt;Node15 -->
<g id="edge30" class="edge"><title>Node16&#45;&gt;Node15</title>
<path fill="none" stroke="midnightblue" d="M710.985,-145.205C756.654,-159.543 819.574,-179.297 862.574,-192.796"/>
<polygon fill="midnightblue" stroke="midnightblue" points="711.814,-141.797 701.225,-142.14 709.718,-148.475 711.814,-141.797"/>
</g>
<!-- Node17 -->
<g id="node31" class="node"><title>Node17</title>
<a xlink:href="structant_1_1analysis_1_1utils_1_1_kin_fitter_1_1_beam_e__t.html" target="_top" xlink:title="ant::analysis::utils\l::KinFitter::BeamE_t">
<polygon fill="white" stroke="black" points="600,-202 600,-236 706,-236 706,-202 600,-202"/>
<text text-anchor="start" x="608" y="-223" font-family="Helvetica,sans-Serif" font-size="10.00">ant::analysis::utils</text>
<text text-anchor="middle" x="653" y="-210" font-family="Helvetica,sans-Serif" font-size="10.00">::KinFitter::BeamE_t</text>
</a>
</g>
<!-- Node17&#45;&gt;Node15 -->
<g id="edge32" class="edge"><title>Node17&#45;&gt;Node15</title>
<path fill="none" stroke="#9a32cd" stroke-dasharray="5,2" d="M716.42,-216.296C761.596,-214.37 821.39,-211.821 862.713,-210.059"/>
<polygon fill="#9a32cd" stroke="#9a32cd" points="715.987,-212.811 706.145,-216.734 716.285,-219.805 715.987,-212.811"/>
<text text-anchor="middle" x="774" y="-219" font-family="Helvetica,sans-Serif" font-size="10.00"> BeamE</text>
</g>
<!-- Node18 -->
<g id="node33" class="node"><title>Node18</title>
<a xlink:href="structant_1_1analysis_1_1utils_1_1_fitter_1_1_v___s___p__t.html" target="_top" xlink:title="ant::analysis::utils\l::Fitter::V_S_P_t">
<polygon fill="white" stroke="black" points="397,-202 397,-236 493,-236 493,-202 397,-202"/>
<text text-anchor="start" x="405" y="-223" font-family="Helvetica,sans-Serif" font-size="10.00">ant::analysis::utils</text>
<text text-anchor="middle" x="445" y="-210" font-family="Helvetica,sans-Serif" font-size="10.00">::Fitter::V_S_P_t</text>
</a>
</g>
<!-- Node18&#45;&gt;Node17 -->
<g id="edge34" class="edge"><title>Node18&#45;&gt;Node17</title>
<path fill="none" stroke="midnightblue" d="M503.257,-219C533.578,-219 570.377,-219 599.907,-219"/>
<polygon fill="midnightblue" stroke="midnightblue" points="503.242,-215.5 493.242,-219 503.242,-222.5 503.242,-215.5"/>
</g>
<!-- Node19 -->
<g id="node35" class="node"><title>Node19</title>
<a xlink:href="structant_1_1analysis_1_1utils_1_1_fitter_1_1_v___s__t.html" target="_top" xlink:title="ant::analysis::utils\l::Fitter::V_S_t">
<polygon fill="white" stroke="black" points="199,-202 199,-236 295,-236 295,-202 199,-202"/>
<text text-anchor="start" x="207" y="-223" font-family="Helvetica,sans-Serif" font-size="10.00">ant::analysis::utils</text>
<text text-anchor="middle" x="247" y="-210" font-family="Helvetica,sans-Serif" font-size="10.00">::Fitter::V_S_t</text>
</a>
</g>
<!-- Node19&#45;&gt;Node18 -->
<g id="edge36" class="edge"><title>Node19&#45;&gt;Node18</title>
<path fill="none" stroke="midnightblue" d="M305.243,-219C334.42,-219 369.32,-219 396.944,-219"/>
<polygon fill="midnightblue" stroke="midnightblue" points="305.183,-215.5 295.183,-219 305.183,-222.5 305.183,-215.5"/>
</g>
<!-- Node20 -->
<g id="node37" class="node"><title>Node20</title>
<polygon fill="white" stroke="#bfbfbf" points="590.5,-162.5 590.5,-183.5 715.5,-183.5 715.5,-162.5 590.5,-162.5"/>
<text text-anchor="middle" x="653" y="-170.5" font-family="Helvetica,sans-Serif" font-size="10.00">std::vector&lt; FitParticle &gt;</text>
</g>
<!-- Node20&#45;&gt;Node15 -->
<g id="edge38" class="edge"><title>Node20&#45;&gt;Node15</title>
<path fill="none" stroke="#9a32cd" stroke-dasharray="5,2" d="M725.836,-182.881C769.748,-188.838 824.448,-196.258 862.973,-201.485"/>
<polygon fill="#9a32cd" stroke="#9a32cd" points="726.164,-179.393 715.784,-181.517 725.223,-186.33 726.164,-179.393"/>
<text text-anchor="middle" x="774" y="-198" font-family="Helvetica,sans-Serif" font-size="10.00"> Photons</text>
</g>
<!-- Node21 -->
<g id="node39" class="node"><title>Node21</title>
<polygon fill="white" stroke="#bfbfbf" points="858,-59.5 858,-80.5 964,-80.5 964,-59.5 858,-59.5"/>
<text text-anchor="middle" x="911" y="-67.5" font-family="Helvetica,sans-Serif" font-size="10.00">std::vector&lt; tree_t &gt;</text>
</g>
<!-- Node21&#45;&gt;Node14 -->
<g id="edge40" class="edge"><title>Node21&#45;&gt;Node14</title>
<path fill="none" stroke="#9a32cd" stroke-dasharray="5,2" d="M974.479,-73.9103C1009.4,-78.3993 1052.35,-87.9179 1086,-108 1096.56,-114.299 1093.87,-122.037 1104,-129 1111.54,-134.182 1120.22,-138.445 1128.91,-141.913"/>
<polygon fill="#9a32cd" stroke="#9a32cd" points="974.729,-70.4156 964.388,-72.7226 973.91,-77.3676 974.729,-70.4156"/>
<text text-anchor="middle" x="1047" y="-112" font-family="Helvetica,sans-Serif" font-size="10.00"> tree_leaves</text>
</g>
<!-- Node22 -->
<g id="node41" class="node"><title>Node22</title>
<polygon fill="white" stroke="#bfbfbf" points="838,-7 838,-41 984,-41 984,-7 838,-7"/>
<text text-anchor="start" x="846" y="-28" font-family="Helvetica,sans-Serif" font-size="10.00">std::list&lt; ant::analysis</text>
<text text-anchor="middle" x="911" y="-15" font-family="Helvetica,sans-Serif" font-size="10.00">::utils::TreeFitter::iteration_t &gt;</text>
</g>
<!-- Node22&#45;&gt;Node14 -->
<g id="edge42" class="edge"><title>Node22&#45;&gt;Node14</title>
<path fill="none" stroke="#9a32cd" stroke-dasharray="5,2" d="M994.187,-24.7279C1026.54,-29.1686 1061.61,-39.73 1086,-63 1108,-83.9885 1083.33,-106.7 1104,-129 1110.68,-136.203 1119.48,-141.412 1128.66,-145.179"/>
<polygon fill="#9a32cd" stroke="#9a32cd" points="994.594,-21.2517 984.249,-23.5389 993.762,-28.2021 994.594,-21.2517"/>
<text text-anchor="middle" x="1047" y="-67" font-family="Helvetica,sans-Serif" font-size="10.00"> iterations</text>
</g>
<!-- Node23 -->
<g id="node43" class="node"><title>Node23</title>
<a xlink:href="structant_1_1analysis_1_1utils_1_1_tree_fitter_1_1iteration__t.html" target="_top" xlink:title="ant::analysis::utils\l::TreeFitter::iteration_t">
<polygon fill="white" stroke="black" points="596.5,-7 596.5,-41 709.5,-41 709.5,-7 596.5,-7"/>
<text text-anchor="start" x="604.5" y="-28" font-family="Helvetica,sans-Serif" font-size="10.00">ant::analysis::utils</text>
<text text-anchor="middle" x="653" y="-15" font-family="Helvetica,sans-Serif" font-size="10.00">::TreeFitter::iteration_t</text>
</a>
</g>
<!-- Node23&#45;&gt;Node22 -->
<g id="edge44" class="edge"><title>Node23&#45;&gt;Node22</title>
<path fill="none" stroke="#9a32cd" stroke-dasharray="5,2" d="M720.054,-24C756.18,-24 800.806,-24 837.83,-24"/>
<polygon fill="#9a32cd" stroke="#9a32cd" points="719.619,-20.5001 709.619,-24 719.619,-27.5001 719.619,-20.5001"/>
<text text-anchor="middle" x="774" y="-28" font-family="Helvetica,sans-Serif" font-size="10.00"> elements</text>
</g>
<!-- Node24 -->
<g id="node45" class="node"><title>Node24</title>
<polygon fill="white" stroke="#bfbfbf" points="380.5,-0.5 380.5,-47.5 509.5,-47.5 509.5,-0.5 380.5,-0.5"/>
<text text-anchor="start" x="388.5" y="-34.5" font-family="Helvetica,sans-Serif" font-size="10.00">std::vector&lt; ant::analysis</text>
<text text-anchor="start" x="388.5" y="-21.5" font-family="Helvetica,sans-Serif" font-size="10.00">::utils::TreeFitter::iteration</text>
<text text-anchor="middle" x="445" y="-8.5" font-family="Helvetica,sans-Serif" font-size="10.00">_t::photon_t &gt;</text>
</g>
<!-- Node24&#45;&gt;Node23 -->
<g id="edge46" class="edge"><title>Node24&#45;&gt;Node23</title>
<path fill="none" stroke="#9a32cd" stroke-dasharray="5,2" d="M519.943,-24C545.174,-24 572.886,-24 596.457,-24"/>
<polygon fill="#9a32cd" stroke="#9a32cd" points="519.672,-20.5001 509.672,-24 519.672,-27.5001 519.672,-20.5001"/>
<text text-anchor="middle" x="550" y="-28" font-family="Helvetica,sans-Serif" font-size="10.00"> Photons</text>
</g>
<!-- Node25 -->
<g id="node47" class="node"><title>Node25</title>
<a xlink:href="structant_1_1analysis_1_1utils_1_1_tree_fitter_1_1iteration__t_1_1photon__t.html" target="_top" xlink:title="ant::analysis::utils\l::TreeFitter::iteration\l_t::photon_t">
<polygon fill="white" stroke="black" points="194.5,-0.5 194.5,-47.5 299.5,-47.5 299.5,-0.5 194.5,-0.5"/>
<text text-anchor="start" x="202.5" y="-34.5" font-family="Helvetica,sans-Serif" font-size="10.00">ant::analysis::utils</text>
<text text-anchor="start" x="202.5" y="-21.5" font-family="Helvetica,sans-Serif" font-size="10.00">::TreeFitter::iteration</text>
<text text-anchor="middle" x="247" y="-8.5" font-family="Helvetica,sans-Serif" font-size="10.00">_t::photon_t</text>
</a>
</g>
<!-- Node25&#45;&gt;Node24 -->
<g id="edge48" class="edge"><title>Node25&#45;&gt;Node24</title>
<path fill="none" stroke="#9a32cd" stroke-dasharray="5,2" d="M309.645,-24C332.127,-24 357.513,-24 380.176,-24"/>
<polygon fill="#9a32cd" stroke="#9a32cd" points="309.541,-20.5001 299.541,-24 309.54,-27.5001 309.541,-20.5001"/>
<text text-anchor="middle" x="340" y="-28" font-family="Helvetica,sans-Serif" font-size="10.00"> elements</text>
</g>
<!-- Node26 -->
<g id="node49" class="node"><title>Node26</title>
<a xlink:href="structant_1_1std__ext_1_1cc__shared__ptr.html" target="_top" xlink:title="ant::std_ext::cc_shared\l_ptr\&lt; TParticle \&gt;">
<polygon fill="white" stroke="black" points="0.5,-7 0.5,-41 119.5,-41 119.5,-7 0.5,-7"/>
<text text-anchor="start" x="8.5" y="-28" font-family="Helvetica,sans-Serif" font-size="10.00">ant::std_ext::cc_shared</text>
<text text-anchor="middle" x="60" y="-15" font-family="Helvetica,sans-Serif" font-size="10.00">_ptr&lt; TParticle &gt;</text>
</a>
</g>
<!-- Node26&#45;&gt;Node25 -->
<g id="edge50" class="edge"><title>Node26&#45;&gt;Node25</title>
<path fill="none" stroke="#9a32cd" stroke-dasharray="5,2" d="M129.965,-24C151.239,-24 174.251,-24 194.194,-24"/>
<polygon fill="#9a32cd" stroke="#9a32cd" points="129.682,-20.5001 119.682,-24 129.682,-27.5001 129.682,-20.5001"/>
<text text-anchor="middle" x="157" y="-28" font-family="Helvetica,sans-Serif" font-size="10.00"> Particle</text>
</g>
<!-- Node27 -->
<g id="node51" class="node"><title>Node27</title>
<polygon fill="white" stroke="#bfbfbf" points="848,-139 848,-173 974,-173 974,-139 848,-139"/>
<text text-anchor="start" x="856" y="-160" font-family="Helvetica,sans-Serif" font-size="10.00">std::vector&lt; std::function</text>
<text text-anchor="middle" x="911" y="-147" font-family="Helvetica,sans-Serif" font-size="10.00">&lt; void()&gt; &gt;</text>
</g>
<!-- Node27&#45;&gt;Node14 -->
<g id="edge52" class="edge"><title>Node27&#45;&gt;Node14</title>
<path fill="none" stroke="#9a32cd" stroke-dasharray="5,2" d="M984.286,-155.724C1030.42,-155.551 1088.66,-155.332 1128.97,-155.181"/>
<polygon fill="#9a32cd" stroke="#9a32cd" points="984.025,-152.225 974.038,-155.763 984.051,-159.225 984.025,-152.225"/>
<text text-anchor="middle" x="1047" y="-159" font-family="Helvetica,sans-Serif" font-size="10.00"> sum_daughters</text>
</g>
<!-- Node28 -->
<g id="node53" class="node"><title>Node28</title>
<polygon fill="white" stroke="#bfbfbf" points="841,-251.5 841,-272.5 981,-272.5 981,-251.5 841,-251.5"/>
<text text-anchor="middle" x="911" y="-259.5" font-family="Helvetica,sans-Serif" font-size="10.00">std::vector&lt; permutation_t &gt;</text>
</g>
<!-- Node28&#45;&gt;Node14 -->
<g id="edge54" class="edge"><title>Node28&#45;&gt;Node14</title>
<path fill="none" stroke="#9a32cd" stroke-dasharray="5,2" d="M951.535,-248.107C963.931,-243.731 977.571,-238.788 990,-234 1033.13,-217.384 1043.54,-212.276 1086,-194 1094.04,-190.538 1095.97,-189.489 1104,-186 1114.48,-181.446 1125.84,-176.586 1136.41,-172.097"/>
<polygon fill="#9a32cd" stroke="#9a32cd" points="950.186,-244.871 941.906,-251.481 952.501,-251.477 950.186,-244.871"/>
<text text-anchor="middle" x="1047" y="-230" font-family="Helvetica,sans-Serif" font-size="10.00"> permutations</text>
</g>
<!-- Node29 -->
<g id="node55" class="node"><title>Node29</title>
<a xlink:title="STL class. ">
<polygon fill="white" stroke="#bfbfbf" points="609.5,-254.5 609.5,-275.5 696.5,-275.5 696.5,-254.5 609.5,-254.5"/>
<text text-anchor="middle" x="653" y="-262.5" font-family="Helvetica,sans-Serif" font-size="10.00">std::vector&lt; T &gt;</text>
</a>
</g>
<!-- Node29&#45;&gt;Node28 -->
<g id="edge56" class="edge"><title>Node29&#45;&gt;Node28</title>
<path fill="none" stroke="#9a32cd" stroke-dasharray="5,2" d="M706.849,-264.374C745.779,-263.921 798.73,-263.305 840.949,-262.815"/>
<polygon fill="#9a32cd" stroke="#9a32cd" points="706.725,-260.875 696.766,-264.491 706.806,-267.874 706.725,-260.875"/>
<text text-anchor="middle" x="774" y="-268" font-family="Helvetica,sans-Serif" font-size="10.00"> elements</text>
</g>
<!-- Node30 -->
<g id="node57" class="node"><title>Node30</title>
<polygon fill="white" stroke="#bfbfbf" points="430.5,-254.5 430.5,-275.5 459.5,-275.5 459.5,-254.5 430.5,-254.5"/>
<text text-anchor="middle" x="445" y="-262.5" font-family="Helvetica,sans-Serif" font-size="10.00">T</text>
</g>
<!-- Node30&#45;&gt;Node29 -->
<g id="edge58" class="edge"><title>Node30&#45;&gt;Node29</title>
<path fill="none" stroke="#9a32cd" stroke-dasharray="5,2" d="M469.745,-265C504.186,-265 567.107,-265 609.487,-265"/>
<polygon fill="#9a32cd" stroke="#9a32cd" points="469.626,-261.5 459.626,-265 469.626,-268.5 469.626,-261.5"/>
<text text-anchor="middle" x="550" y="-269" font-family="Helvetica,sans-Serif" font-size="10.00"> elements</text>
</g>
<!-- Node31 -->
<g id="node59" class="node"><title>Node31</title>
<polygon fill="white" stroke="#bfbfbf" points="832,-99.5 832,-120.5 990,-120.5 990,-99.5 832,-99.5"/>
<text text-anchor="middle" x="911" y="-107.5" font-family="Helvetica,sans-Serif" font-size="10.00">std::vector&lt; node_constraint_t &gt;</text>
</g>
<!-- Node31&#45;&gt;Node14 -->
<g id="edge60" class="edge"><title>Node31&#45;&gt;Node14</title>
<path fill="none" stroke="#9a32cd" stroke-dasharray="5,2" d="M989.676,-122.142C1019.83,-126.913 1054.54,-132.546 1086,-138 1099.94,-140.416 1115.04,-143.18 1128.87,-145.767"/>
<polygon fill="#9a32cd" stroke="#9a32cd" points="990.059,-118.659 979.636,-120.558 988.968,-125.574 990.059,-118.659"/>
<text text-anchor="middle" x="1047" y="-142" font-family="Helvetica,sans-Serif" font-size="10.00"> node_constraints</text>
</g>
<!-- Node32 -->
<g id="node62" class="node"><title>Node32</title>
<a xlink:href="classant_1_1analysis_1_1_prompt_random_1_1_switch.html" target="_top" xlink:title="ant::analysis::PromptRandom\l::Switch">
<polygon fill="white" stroke="black" points="1104,-343 1104,-377 1250,-377 1250,-343 1104,-343"/>
<text text-anchor="start" x="1112" y="-364" font-family="Helvetica,sans-Serif" font-size="10.00">ant::analysis::PromptRandom</text>
<text text-anchor="middle" x="1177" y="-351" font-family="Helvetica,sans-Serif" font-size="10.00">::Switch</text>
</a>
</g>
<!-- Node32&#45;&gt;Node2 -->
<g id="edge64" class="edge"><title>Node32&#45;&gt;Node2</title>
<path fill="none" stroke="#9a32cd" stroke-dasharray="5,2" d="M1260.44,-350.542C1295.85,-346.527 1336.2,-341.953 1367.96,-338.353"/>
<polygon fill="#9a32cd" stroke="#9a32cd" points="1259.65,-347.109 1250.11,-351.713 1260.44,-354.064 1259.65,-347.109"/>
<text text-anchor="middle" x="1309" y="-353" font-family="Helvetica,sans-Serif" font-size="10.00"> promptrandom</text>
</g>
<!-- Node33&#45;&gt;Node32 -->
<g id="edge66" class="edge"><title>Node33&#45;&gt;Node32</title>
<path fill="none" stroke="#9a32cd" stroke-dasharray="5,2" d="M977.763,-357.753C1016.09,-358.185 1064.27,-358.729 1103.65,-359.173"/>
<polygon fill="#9a32cd" stroke="#9a32cd" points="977.776,-354.253 967.737,-357.64 977.697,-361.253 977.776,-354.253"/>
<text text-anchor="middle" x="1047" y="-375" font-family="Helvetica,sans-Serif" font-size="10.00"> promptw</text>
<text text-anchor="middle" x="1047" y="-362" font-family="Helvetica,sans-Serif" font-size="10.00">randomw</text>
</g>
<!-- Node34 -->
<g id="node67" class="node"><title>Node34</title>
<a xlink:href="classant_1_1analysis_1_1utils_1_1_trigger_simulation.html" target="_top" xlink:title="ant::analysis::utils\l::TriggerSimulation">
<polygon fill="white" stroke="black" points="1128,-86 1128,-120 1226,-120 1226,-86 1128,-86"/>
<text text-anchor="start" x="1136" y="-107" font-family="Helvetica,sans-Serif" font-size="10.00">ant::analysis::utils</text>
<text text-anchor="middle" x="1177" y="-94" font-family="Helvetica,sans-Serif" font-size="10.00">::TriggerSimulation</text>
</a>
</g>
<!-- Node34&#45;&gt;Node2 -->
<g id="edge70" class="edge"><title>Node34&#45;&gt;Node2</title>
<path fill="none" stroke="#9a32cd" stroke-dasharray="5,2" d="M1236.12,-99.9733C1272.75,-101.195 1318.64,-108.738 1350,-135 1406.16,-182.033 1419.74,-276.234 1422.99,-314.869"/>
<polygon fill="#9a32cd" stroke="#9a32cd" points="1236.11,-96.4727 1226.05,-99.786 1235.98,-103.472 1236.11,-96.4727"/>
<text text-anchor="middle" x="1309" y="-139" font-family="Helvetica,sans-Serif" font-size="10.00"> triggersimu</text>
</g>
<!-- Node35 -->
<g id="node69" class="node"><title>Node35</title>
<polygon fill="white" stroke="#bfbfbf" points="1110.5,-444.5 1110.5,-491.5 1243.5,-491.5 1243.5,-444.5 1110.5,-444.5"/>
<text text-anchor="start" x="1118.5" y="-478.5" font-family="Helvetica,sans-Serif" font-size="10.00">std::vector&lt; ant::analysis</text>
<text text-anchor="start" x="1118.5" y="-465.5" font-family="Helvetica,sans-Serif" font-size="10.00">::physics::triplePi0::named</text>
<text text-anchor="middle" x="1177" y="-452.5" font-family="Helvetica,sans-Serif" font-size="10.00">_channel_t &gt;</text>
</g>
<!-- Node35&#45;&gt;Node2 -->
<g id="edge72" class="edge"><title>Node35&#45;&gt;Node2</title>
<path fill="none" stroke="#9a32cd" stroke-dasharray="5,2" d="M1253.67,-461.12C1285.42,-455.513 1321.41,-445.361 1350,-427 1380.43,-407.456 1403.53,-370.943 1415.3,-349.32"/>
<polygon fill="#9a32cd" stroke="#9a32cd" points="1252.83,-457.711 1243.53,-462.785 1253.97,-464.618 1252.83,-457.711"/>
<text text-anchor="middle" x="1309" y="-462" font-family="Helvetica,sans-Serif" font-size="10.00"> otherBackgrounds</text>
</g>
<!-- Node36&#45;&gt;Node2 -->
<g id="edge78" class="edge"><title>Node36&#45;&gt;Node2</title>
<path fill="none" stroke="#9a32cd" stroke-dasharray="5,2" d="M991.391,-528.139C1102.73,-526.718 1296.26,-517.909 1350,-475 1391.5,-441.86 1412.16,-379.142 1420.06,-349.005"/>
<polygon fill="#9a32cd" stroke="#9a32cd" points="991.171,-524.641 981.211,-528.252 991.249,-531.641 991.171,-524.641"/>
<text text-anchor="middle" x="1177" y="-554" font-family="Helvetica,sans-Serif" font-size="10.00"> signal</text>
<text text-anchor="middle" x="1177" y="-541" font-family="Helvetica,sans-Serif" font-size="10.00">mainBackground</text>
<text text-anchor="middle" x="1177" y="-528" font-family="Helvetica,sans-Serif" font-size="10.00">sigmaBackground</text>
</g>
<!-- Node36&#45;&gt;Node35 -->
<g id="edge74" class="edge"><title>Node36&#45;&gt;Node35</title>
<path fill="none" stroke="#9a32cd" stroke-dasharray="5,2" d="M979.229,-508.283C988.858,-505.713 998.657,-503.209 1008,-501 1041.46,-493.09 1078.96,-485.628 1110.12,-479.806"/>
<polygon fill="#9a32cd" stroke="#9a32cd" points="978.02,-504.985 969.283,-510.977 979.85,-511.741 978.02,-504.985"/>
<text text-anchor="middle" x="1047" y="-505" font-family="Helvetica,sans-Serif" font-size="10.00"> elements</text>
</g>
</g>
</svg>
