<?xml version="1.0" encoding="UTF-8" standalone="no"?>
<!DOCTYPE svg PUBLIC "-//W3C//DTD SVG 1.1//EN"
 "http://www.w3.org/Graphics/SVG/1.1/DTD/svg11.dtd">
<!-- Generated by graphviz version 2.26.3 (20100126.1600)
 -->
<!-- Title: ant::root_drawable_traits Pages: 1 -->
<svg width="430pt" height="209pt"
 viewBox="0.00 0.00 430.00 209.00" xmlns="http://www.w3.org/2000/svg" xmlns:xlink="http://www.w3.org/1999/xlink">
<g id="graph1" class="graph" transform="scale(1 1) rotate(0) translate(4 205)">
<title>ant::root_drawable_traits</title>
<polygon fill="white" stroke="white" points="-4,5 -4,-205 427,-205 427,5 -4,5"/>
<!-- Node0 -->
<g id="node1" class="node"><title>Node0</title>
<polygon fill="#bfbfbf" stroke="black" points="0.5,-54 0.5,-88 97.5,-88 97.5,-54 0.5,-54"/>
<text text-anchor="start" x="8.5" y="-75" font-family="Helvetica,sans-Serif" font-size="10.00">ant::root_drawable</text>
<text text-anchor="middle" x="49" y="-62" font-family="Helvetica,sans-Serif" font-size="10.00">_traits</text>
</g>
<!-- Node1 -->
<g id="node3" class="node"><title>Node1</title>
<a xlink:href="structant_1_1analysis_1_1physics_1_1_m_c_reconstruct_check_1_1_position_map.html" target="_top" xlink:title="ant::analysis::physics\l::MCReconstructCheck::\lPositionMap">
<polygon fill="white" stroke="black" points="134,-120.5 134,-167.5 260,-167.5 260,-120.5 134,-120.5"/>
<text text-anchor="start" x="142" y="-154.5" font-family="Helvetica,sans-Serif" font-size="10.00">ant::analysis::physics</text>
<text text-anchor="start" x="142" y="-141.5" font-family="Helvetica,sans-Serif" font-size="10.00">::MCReconstructCheck::</text>
<text text-anchor="middle" x="197" y="-128.5" font-family="Helvetica,sans-Serif" font-size="10.00">PositionMap</text>
</a>
</g>
<!-- Node0&#45;&gt;Node1 -->
<g id="edge2" class="edge"><title>Node0&#45;&gt;Node1</title>
<path fill="none" stroke="midnightblue" d="M92.7255,-92.5673C110.532,-101.35 131.164,-111.527 149.353,-120.499"/>
<polygon fill="midnightblue" stroke="midnightblue" points="94.2161,-89.4 83.6994,-88.1153 91.1195,-95.6778 94.2161,-89.4"/>
</g>
<!-- Node4 -->
<g id="node9" class="node"><title>Node4</title>
<a xlink:href="structant_1_1_t_tree__drawable.html" target="_top" xlink:title="ant::TTree_drawable">
<polygon fill="white" stroke="black" points="144,-80.5 144,-101.5 250,-101.5 250,-80.5 144,-80.5"/>
<text text-anchor="middle" x="197" y="-88.5" font-family="Helvetica,sans-Serif" font-size="10.00">ant::TTree_drawable</text>
</a>
</g>
<!-- Node0&#45;&gt;Node4 -->
<g id="edge8" class="edge"><title>Node0&#45;&gt;Node4</title>
<path fill="none" stroke="midnightblue" d="M108.086,-78.9846C119.902,-80.5813 132.246,-82.2495 143.847,-83.8172"/>
<polygon fill="midnightblue" stroke="midnightblue" points="108.25,-75.475 97.8709,-77.6042 107.312,-82.4119 108.25,-75.475"/>
</g>
<!-- Node5 -->
<g id="node11" class="node"><title>Node5</title>
<a xlink:href="structdrawable__tester.html" target="_top" xlink:title="drawable_tester">
<polygon fill="white" stroke="black" points="154,-40.5 154,-61.5 240,-61.5 240,-40.5 154,-40.5"/>
<text text-anchor="middle" x="197" y="-48.5" font-family="Helvetica,sans-Serif" font-size="10.00">drawable_tester</text>
</a>
</g>
<!-- Node0&#45;&gt;Node5 -->
<g id="edge10" class="edge"><title>Node0&#45;&gt;Node5</title>
<path fill="none" stroke="midnightblue" d="M108.211,-62.9985C123.394,-60.9467 139.443,-58.7779 153.659,-56.8569"/>
<polygon fill="midnightblue" stroke="midnightblue" points="107.312,-59.5881 97.8709,-64.3958 108.25,-66.525 107.312,-59.5881"/>
</g>
<!-- Node6 -->
<g id="node13" class="node"><title>Node6</title>
<a xlink:href="struct_fit_drawable.html" target="_top" xlink:title="FitDrawable">
<polygon fill="white" stroke="black" points="162.5,-0.5 162.5,-21.5 231.5,-21.5 231.5,-0.5 162.5,-0.5"/>
<text text-anchor="middle" x="197" y="-8.5" font-family="Helvetica,sans-Serif" font-size="10.00">FitDrawable</text>
</a>
</g>
<!-- Node0&#45;&gt;Node6 -->
<g id="edge12" class="edge"><title>Node0&#45;&gt;Node6</title>
<path fill="none" stroke="midnightblue" d="M91.4856,-49.6569C104.921,-43.2739 119.936,-36.5137 134,-31 143.081,-27.4399 153.077,-24.039 162.38,-21.0841"/>
<polygon fill="midnightblue" stroke="midnightblue" points="89.9612,-46.5062 82.4672,-53.9956 92.996,-52.8142 89.9612,-46.5062"/>
</g>
<!-- Node2 -->
<g id="node5" class="node"><title>Node2</title>
<a xlink:href="structant_1_1analysis_1_1physics_1_1_m_c_reconstruct_check_1_1_position_map_c_b.html" target="_top" xlink:title="ant::analysis::physics\l::MCReconstructCheck::\lPositionMapCB">
<polygon fill="white" stroke="black" points="296,-153.5 296,-200.5 422,-200.5 422,-153.5 296,-153.5"/>
<text text-anchor="start" x="304" y="-187.5" font-family="Helvetica,sans-Serif" font-size="10.00">ant::analysis::physics</text>
<text text-anchor="start" x="304" y="-174.5" font-family="Helvetica,sans-Serif" font-size="10.00">::MCReconstructCheck::</text>
<text text-anchor="middle" x="359" y="-161.5" font-family="Helvetica,sans-Serif" font-size="10.00">PositionMapCB</text>
</a>
</g>
<!-- Node1&#45;&gt;Node2 -->
<g id="edge4" class="edge"><title>Node1&#45;&gt;Node2</title>
<path fill="none" stroke="midnightblue" d="M270.094,-158.889C278.676,-160.638 287.378,-162.41 295.808,-164.128"/>
<polygon fill="midnightblue" stroke="midnightblue" points="270.595,-155.42 260.097,-156.853 269.197,-162.279 270.595,-155.42"/>
</g>
<!-- Node3 -->
<g id="node7" class="node"><title>Node3</title>
<a xlink:href="structant_1_1analysis_1_1physics_1_1_m_c_reconstruct_check_1_1_position_map_t_a_p_s.html" target="_top" xlink:title="ant::analysis::physics\l::MCReconstructCheck::\lPositionMapTAPS">
<polygon fill="white" stroke="black" points="296,-87.5 296,-134.5 422,-134.5 422,-87.5 296,-87.5"/>
<text text-anchor="start" x="304" y="-121.5" font-family="Helvetica,sans-Serif" font-size="10.00">ant::analysis::physics</text>
<text text-anchor="start" x="304" y="-108.5" font-family="Helvetica,sans-Serif" font-size="10.00">::MCReconstructCheck::</text>
<text text-anchor="middle" x="359" y="-95.5" font-family="Helvetica,sans-Serif" font-size="10.00">PositionMapTAPS</text>
</a>
</g>
<!-- Node1&#45;&gt;Node3 -->
<g id="edge6" class="edge"><title>Node1&#45;&gt;Node3</title>
<path fill="none" stroke="midnightblue" d="M270.094,-129.111C278.676,-127.362 287.378,-125.59 295.808,-123.872"/>
<polygon fill="midnightblue" stroke="midnightblue" points="269.197,-125.721 260.097,-131.147 270.595,-132.58 269.197,-125.721"/>
</g>
</g>
</svg>
