<?xml version="1.0" encoding="UTF-8" standalone="no"?>
<!DOCTYPE svg PUBLIC "-//W3C//DTD SVG 1.1//EN"
 "http://www.w3.org/Graphics/SVG/1.1/DTD/svg11.dtd">
<!-- Generated by graphviz version 2.26.3 (20100126.1600)
 -->
<!-- Title: ant::analysis::physics::IM_CB_TAPS_Plots::hist_t Pages: 1 -->
<svg width="195pt" height="240pt"
 viewBox="0.00 0.00 195.00 240.00" xmlns="http://www.w3.org/2000/svg" xmlns:xlink="http://www.w3.org/1999/xlink">
<g id="graph1" class="graph" transform="scale(1 1) rotate(0) translate(4 236)">
<title>ant::analysis::physics::IM_CB_TAPS_Plots::hist_t</title>
<polygon fill="white" stroke="white" points="-4,5 -4,-236 192,-236 192,5 -4,5"/>
<!-- Node1 -->
<g id="node1" class="node"><title>Node1</title>
<polygon fill="#bfbfbf" stroke="black" points="27.5,-1 27.5,-35 170.5,-35 170.5,-1 27.5,-1"/>
<text text-anchor="start" x="35.5" y="-22" font-family="Helvetica,sans-Serif" font-size="10.00">ant::analysis::physics</text>
<text text-anchor="middle" x="99" y="-9" font-family="Helvetica,sans-Serif" font-size="10.00">::IM_CB_TAPS_Plots::hist_t</text>
</g>
<!-- Node2 -->
<g id="node2" class="node"><title>Node2</title>
<a xlink:title="STL class. ">
<polygon fill="white" stroke="#bfbfbf" points="17,-112.5 17,-133.5 77,-133.5 77,-112.5 17,-112.5"/>
<text text-anchor="middle" x="47" y="-120.5" font-family="Helvetica,sans-Serif" font-size="10.00">std::string</text>
</a>
</g>
<!-- Node2&#45;&gt;Node1 -->
<g id="edge2" class="edge"><title>Node2&#45;&gt;Node1</title>
<path fill="none" stroke="#9a32cd" stroke-dasharray="5,2" d="M56.7294,-103.178C63.5119,-89.3789 72.782,-70.5561 81,-54 84.0447,-47.8661 87.3961,-41.1529 90.3732,-35.2027"/>
<polygon fill="#9a32cd" stroke="#9a32cd" points="53.5486,-101.715 52.281,-112.234 59.8315,-104.802 53.5486,-101.715"/>
<text text-anchor="middle" x="95" y="-71.5" font-family="Helvetica,sans-Serif" font-size="10.00"> prefix</text>
</g>
<!-- Node3 -->
<g id="node4" class="node"><title>Node3</title>
<a xlink:title="STL class. ">
<polygon fill="white" stroke="#bfbfbf" points="-0.5,-197 -0.5,-231 94.5,-231 94.5,-197 -0.5,-197"/>
<text text-anchor="start" x="7.5" y="-218" font-family="Helvetica,sans-Serif" font-size="10.00">std::basic_string&lt;</text>
<text text-anchor="middle" x="47" y="-205" font-family="Helvetica,sans-Serif" font-size="10.00"> char &gt;</text>
</a>
</g>
<!-- Node3&#45;&gt;Node2 -->
<g id="edge4" class="edge"><title>Node3&#45;&gt;Node2</title>
<path fill="none" stroke="midnightblue" d="M47,-186.712C47,-168.817 47,-146.422 47,-133.51"/>
<polygon fill="midnightblue" stroke="midnightblue" points="43.5001,-186.884 47,-196.884 50.5001,-186.884 43.5001,-186.884"/>
</g>
<!-- Node4 -->
<g id="node6" class="node"><title>Node4</title>
<a xlink:href="classant_1_1interval.html" target="_top" xlink:title="Interval class template. ">
<polygon fill="white" stroke="black" points="95,-112.5 95,-133.5 187,-133.5 187,-112.5 95,-112.5"/>
<text text-anchor="middle" x="141" y="-120.5" font-family="Helvetica,sans-Serif" font-size="10.00">ant::interval&lt; T &gt;</text>
</a>
</g>
<!-- Node4&#45;&gt;Node1 -->
<g id="edge6" class="edge"><title>Node4&#45;&gt;Node1</title>
<path fill="none" stroke="#9a32cd" stroke-dasharray="5,2" d="M132.857,-102.642C125.008,-83.019 113.263,-53.6577 105.872,-35.1807"/>
<polygon fill="#9a32cd" stroke="#9a32cd" points="129.7,-104.174 136.663,-112.159 136.199,-101.574 129.7,-104.174"/>
<text text-anchor="middle" x="146.5" y="-84.5" font-family="Helvetica,sans-Serif" font-size="10.00"> n_CB</text>
<text text-anchor="middle" x="146.5" y="-71.5" font-family="Helvetica,sans-Serif" font-size="10.00">n_TAPS</text>
<text text-anchor="middle" x="146.5" y="-58.5" font-family="Helvetica,sans-Serif" font-size="10.00">any</text>
</g>
<!-- Node5 -->
<g id="node8" class="node"><title>Node5</title>
<polygon fill="white" stroke="#bfbfbf" points="126.5,-203.5 126.5,-224.5 155.5,-224.5 155.5,-203.5 126.5,-203.5"/>
<text text-anchor="middle" x="141" y="-211.5" font-family="Helvetica,sans-Serif" font-size="10.00">T</text>
</g>
<!-- Node5&#45;&gt;Node4 -->
<g id="edge8" class="edge"><title>Node5&#45;&gt;Node4</title>
<path fill="none" stroke="#9a32cd" stroke-dasharray="5,2" d="M141,-193.049C141,-174.433 141,-147.991 141,-133.501"/>
<polygon fill="#9a32cd" stroke="#9a32cd" points="137.5,-193.204 141,-203.204 144.5,-193.204 137.5,-193.204"/>
<text text-anchor="middle" x="155" y="-169" font-family="Helvetica,sans-Serif" font-size="10.00"> _start</text>
<text text-anchor="middle" x="155" y="-156" font-family="Helvetica,sans-Serif" font-size="10.00">_stop</text>
</g>
</g>
</svg>
