<?xml version="1.0" encoding="UTF-8" standalone="no"?>
<!DOCTYPE svg PUBLIC "-//W3C//DTD SVG 1.1//EN"
 "http://www.w3.org/Graphics/SVG/1.1/DTD/svg11.dtd">
<!-- Generated by graphviz version 2.26.3 (20100126.1600)
 -->
<!-- Title: triplePi0_Plot::TriplePi0Hist_t Pages: 1 -->
<svg width="248pt" height="280pt"
 viewBox="0.00 0.00 248.00 280.00" xmlns="http://www.w3.org/2000/svg" xmlns:xlink="http://www.w3.org/1999/xlink">
<g id="graph1" class="graph" transform="scale(1 1) rotate(0) translate(4 276)">
<title>triplePi0_Plot::TriplePi0Hist_t</title>
<polygon fill="white" stroke="white" points="-4,5 -4,-276 245,-276 245,5 -4,5"/>
<!-- Node1 -->
<g id="node1" class="node"><title>Node1</title>
<polygon fill="#bfbfbf" stroke="black" points="46.5,-1 46.5,-35 165.5,-35 165.5,-1 46.5,-1"/>
<text text-anchor="start" x="54.5" y="-22" font-family="Helvetica,sans-Serif" font-size="10.00">triplePi0_Plot::TriplePi0</text>
<text text-anchor="middle" x="106" y="-9" font-family="Helvetica,sans-Serif" font-size="10.00">Hist_t</text>
</g>
<!-- Node2 -->
<g id="node2" class="node"><title>Node2</title>
<a xlink:href="classant_1_1analysis_1_1_histogram_factory.html" target="_top" xlink:title="ant::analysis::Histogram\lFactory">
<polygon fill="white" stroke="black" points="-0.5,-177 -0.5,-211 122.5,-211 122.5,-177 -0.5,-177"/>
<text text-anchor="start" x="7.5" y="-198" font-family="Helvetica,sans-Serif" font-size="10.00">ant::analysis::Histogram</text>
<text text-anchor="middle" x="61" y="-185" font-family="Helvetica,sans-Serif" font-size="10.00">Factory</text>
</a>
</g>
<!-- Node2&#45;&gt;Node1 -->
<g id="edge2" class="edge"><title>Node2&#45;&gt;Node1</title>
<path fill="none" stroke="#9a32cd" stroke-dasharray="5,2" d="M65.71,-166.987C70.9613,-138.558 80.2784,-92.6578 92,-54 93.9069,-47.7109 96.4055,-40.9612 98.7633,-35.0253"/>
<polygon fill="#9a32cd" stroke="#9a32cd" points="62.2392,-166.512 63.8999,-176.976 69.127,-167.76 62.2392,-166.512"/>
<text text-anchor="middle" x="111" y="-103.5" font-family="Helvetica,sans-Serif" font-size="10.00"> HistFac</text>
</g>
<!-- Node3 -->
<g id="node4" class="node"><title>Node3</title>
<a xlink:href="classant_1_1_bin_settings.html" target="_top" xlink:title="ant::BinSettings">
<polygon fill="white" stroke="black" points="140,-183.5 140,-204.5 226,-204.5 226,-183.5 140,-183.5"/>
<text text-anchor="middle" x="183" y="-191.5" font-family="Helvetica,sans-Serif" font-size="10.00">ant::BinSettings</text>
</a>
</g>
<!-- Node3&#45;&gt;Node1 -->
<g id="edge4" class="edge"><title>Node3&#45;&gt;Node1</title>
<path fill="none" stroke="#9a32cd" stroke-dasharray="5,2" d="M176.919,-173.713C168.234,-145.921 150.984,-94.8078 130,-54 126.702,-47.5871 122.503,-40.9213 118.542,-35.0942"/>
<polygon fill="#9a32cd" stroke="#9a32cd" points="173.633,-174.936 179.913,-183.469 180.325,-172.882 173.633,-174.936"/>
<text text-anchor="middle" x="201" y="-149" font-family="Helvetica,sans-Serif" font-size="10.00"> pEbins</text>
<text text-anchor="middle" x="201" y="-136" font-family="Helvetica,sans-Serif" font-size="10.00">Chi2Bins</text>
<text text-anchor="middle" x="201" y="-123" font-family="Helvetica,sans-Serif" font-size="10.00">pThetaBins</text>
<text text-anchor="middle" x="201" y="-110" font-family="Helvetica,sans-Serif" font-size="10.00">IM2g</text>
<text text-anchor="middle" x="201" y="-97" font-family="Helvetica,sans-Serif" font-size="10.00">IMProtonBins</text>
<text text-anchor="middle" x="201" y="-84" font-family="Helvetica,sans-Serif" font-size="10.00">Ebins</text>
<text text-anchor="middle" x="201" y="-71" font-family="Helvetica,sans-Serif" font-size="10.00">probbins</text>
<text text-anchor="middle" x="201" y="-58" font-family="Helvetica,sans-Serif" font-size="10.00">IMbins</text>
</g>
<!-- Node4 -->
<g id="node6" class="node"><title>Node4</title>
<a xlink:href="classant_1_1interval.html" target="_top" xlink:title="ant::interval\&lt; double \&gt;">
<polygon fill="white" stroke="black" points="126,-250.5 126,-271.5 240,-271.5 240,-250.5 126,-250.5"/>
<text text-anchor="middle" x="183" y="-258.5" font-family="Helvetica,sans-Serif" font-size="10.00">ant::interval&lt; double &gt;</text>
</a>
</g>
<!-- Node4&#45;&gt;Node3 -->
<g id="edge6" class="edge"><title>Node4&#45;&gt;Node3</title>
<path fill="none" stroke="midnightblue" d="M183,-239.904C183,-228.127 183,-213.967 183,-204.517"/>
<polygon fill="midnightblue" stroke="midnightblue" points="179.5,-240.235 183,-250.235 186.5,-240.235 179.5,-240.235"/>
</g>
</g>
</svg>
