<?xml version="1.0" encoding="UTF-8" standalone="no"?>
<!DOCTYPE svg PUBLIC "-//W3C//DTD SVG 1.1//EN"
 "http://www.w3.org/Graphics/SVG/1.1/DTD/svg11.dtd">
<!-- Generated by graphviz version 2.26.3 (20100126.1600)
 -->
<!-- Title: src/base/std_ext/system.h Pages: 1 -->
<svg width="3434pt" height="102pt"
 viewBox="0.00 0.00 3434.00 102.00" xmlns="http://www.w3.org/2000/svg" xmlns:xlink="http://www.w3.org/1999/xlink">
<g id="graph1" class="graph" transform="scale(1 1) rotate(0) translate(4 98)">
<title>src/base/std_ext/system.h</title>
<polygon fill="white" stroke="white" points="-4,5 -4,-98 3431,-98 3431,5 -4,5"/>
<!-- Node3 -->
<g id="node1" class="node"><title>Node3</title>
<polygon fill="#bfbfbf" stroke="black" points="1664.5,-72.5 1664.5,-93.5 1797.5,-93.5 1797.5,-72.5 1664.5,-72.5"/>
<text text-anchor="middle" x="1731" y="-80.5" font-family="Helvetica,sans-Serif" font-size="10.00">src/base/std_ext/system.h</text>
</g>
<!-- Node4 -->
<g id="node3" class="node"><title>Node4</title>
<a xlink:href="_ant-alt_veto_cal_tool_8cc.html" target="_top" xlink:title="progs/Ant&#45;altVetoCalTool.cc">
<polygon fill="white" stroke="black" points="0,-7.5 0,-28.5 140,-28.5 140,-7.5 0,-7.5"/>
<text text-anchor="middle" x="70" y="-15.5" font-family="Helvetica,sans-Serif" font-size="10.00">progs/Ant&#45;altVetoCalTool.cc</text>
</a>
</g>
<!-- Node3&#45;&gt;Node4 -->
<g id="edge2" class="edge"><title>Node3&#45;&gt;Node4</title>
<path fill="none" stroke="midnightblue" d="M1653.89,-82.6927C1378.64,-81.2862 445.184,-73.7774 149,-36 136.023,-34.3448 122.049,-31.5167 109.514,-28.5863"/>
<polygon fill="midnightblue" stroke="midnightblue" points="1654.16,-86.194 1664.18,-82.744 1654.2,-79.1941 1654.16,-86.194"/>
</g>
<!-- Node5 -->
<g id="node5" class="node"><title>Node5</title>
<a xlink:href="_ant-calib-dump_8cc.html" target="_top" xlink:title="progs/Ant&#45;calib&#45;dump.cc">
<polygon fill="white" stroke="black" points="158,-7.5 158,-28.5 280,-28.5 280,-7.5 158,-7.5"/>
<text text-anchor="middle" x="219" y="-15.5" font-family="Helvetica,sans-Serif" font-size="10.00">progs/Ant&#45;calib&#45;dump.cc</text>
</a>
</g>
<!-- Node3&#45;&gt;Node5 -->
<g id="edge4" class="edge"><title>Node3&#45;&gt;Node5</title>
<path fill="none" stroke="midnightblue" d="M1654.19,-82.7138C1395.34,-81.4019 556.166,-74.2317 289,-36 277.448,-34.3469 265.051,-31.5193 253.948,-28.5888"/>
<polygon fill="midnightblue" stroke="midnightblue" points="1654.24,-86.214 1664.25,-82.7633 1654.27,-79.2141 1654.24,-86.214"/>
</g>
<!-- Node6 -->
<g id="node7" class="node"><title>Node6</title>
<a xlink:href="_ant-calib-readin_8cc.html" target="_top" xlink:title="progs/Ant&#45;calib&#45;readin.cc">
<polygon fill="white" stroke="black" points="297.5,-7.5 297.5,-28.5 422.5,-28.5 422.5,-7.5 297.5,-7.5"/>
<text text-anchor="middle" x="360" y="-15.5" font-family="Helvetica,sans-Serif" font-size="10.00">progs/Ant&#45;calib&#45;readin.cc</text>
</a>
</g>
<!-- Node3&#45;&gt;Node6 -->
<g id="edge6" class="edge"><title>Node3&#45;&gt;Node6</title>
<path fill="none" stroke="midnightblue" d="M1654.08,-82.359C1412.25,-80.0066 669.303,-70.1204 431,-36 419.293,-34.3238 406.722,-31.49 395.459,-28.5608"/>
<polygon fill="midnightblue" stroke="midnightblue" points="1654.16,-85.8598 1664.19,-82.4558 1654.22,-78.8601 1654.16,-85.8598"/>
</g>
<!-- Node7 -->
<g id="node9" class="node"><title>Node7</title>
<a xlink:href="_ant-calib-regedit_8cc.html" target="_top" xlink:title="progs/Ant&#45;calib&#45;regedit.cc">
<polygon fill="white" stroke="black" points="440,-7.5 440,-28.5 568,-28.5 568,-7.5 440,-7.5"/>
<text text-anchor="middle" x="504" y="-15.5" font-family="Helvetica,sans-Serif" font-size="10.00">progs/Ant&#45;calib&#45;regedit.cc</text>
</a>
</g>
<!-- Node3&#45;&gt;Node7 -->
<g id="edge8" class="edge"><title>Node3&#45;&gt;Node7</title>
<path fill="none" stroke="midnightblue" d="M1654.11,-81.8843C1430.96,-78.3265 785.85,-65.6934 577,-36 564.981,-34.2912 552.061,-31.4485 540.48,-28.5212"/>
<polygon fill="midnightblue" stroke="midnightblue" points="1654.36,-85.3886 1664.41,-82.0469 1654.47,-78.3894 1654.36,-85.3886"/>
</g>
<!-- Node8 -->
<g id="node11" class="node"><title>Node8</title>
<a xlink:href="_ant-calib-smooth_8cc.html" target="_top" xlink:title="progs/Ant&#45;calib&#45;smooth.cc">
<polygon fill="white" stroke="black" points="585.5,-7.5 585.5,-28.5 716.5,-28.5 716.5,-7.5 585.5,-7.5"/>
<text text-anchor="middle" x="651" y="-15.5" font-family="Helvetica,sans-Serif" font-size="10.00">progs/Ant&#45;calib&#45;smooth.cc</text>
</a>
</g>
<!-- Node3&#45;&gt;Node8 -->
<g id="edge10" class="edge"><title>Node3&#45;&gt;Node8</title>
<path fill="none" stroke="midnightblue" d="M1653.94,-81.3143C1450.8,-76.5641 904.04,-61.7143 725,-36 712.959,-34.2707 700.016,-31.4596 688.373,-28.5676"/>
<polygon fill="midnightblue" stroke="midnightblue" points="1654.14,-84.8198 1664.22,-81.5529 1654.31,-77.8217 1654.14,-84.8198"/>
</g>
<!-- Node9 -->
<g id="node13" class="node"><title>Node9</title>
<a xlink:href="_ant-calib-viewer_8cc.html" target="_top" xlink:title="progs/Ant&#45;calib&#45;viewer.cc">
<polygon fill="white" stroke="black" points="733.5,-7.5 733.5,-28.5 860.5,-28.5 860.5,-7.5 733.5,-7.5"/>
<text text-anchor="middle" x="797" y="-15.5" font-family="Helvetica,sans-Serif" font-size="10.00">progs/Ant&#45;calib&#45;viewer.cc</text>
</a>
</g>
<!-- Node3&#45;&gt;Node9 -->
<g id="edge12" class="edge"><title>Node3&#45;&gt;Node9</title>
<path fill="none" stroke="midnightblue" d="M1654.24,-80.6906C1472.38,-74.9158 1019.27,-58.6682 869,-36 857.279,-34.2318 844.683,-31.4098 833.356,-28.5198"/>
<polygon fill="midnightblue" stroke="midnightblue" points="1654.15,-84.1896 1664.26,-81.0069 1654.37,-77.193 1654.15,-84.1896"/>
</g>
<!-- Node10 -->
<g id="node15" class="node"><title>Node10</title>
<a xlink:href="_ant-chain_8cc.html" target="_top" xlink:title="hadd like tool to concatenate TTrees in ROOT files using TChains. ">
<polygon fill="white" stroke="black" points="878,-7.5 878,-28.5 976,-28.5 976,-7.5 878,-7.5"/>
<text text-anchor="middle" x="927" y="-15.5" font-family="Helvetica,sans-Serif" font-size="10.00">progs/Ant&#45;chain.cc</text>
</a>
</g>
<!-- Node3&#45;&gt;Node10 -->
<g id="edge14" class="edge"><title>Node3&#45;&gt;Node10</title>
<path fill="none" stroke="midnightblue" d="M1653.91,-80.4692C1490.02,-74.709 1111.6,-59.2893 985,-36 975.46,-34.2451 965.287,-31.4269 956.167,-28.5362"/>
<polygon fill="midnightblue" stroke="midnightblue" points="1654.27,-83.984 1664.39,-80.8347 1654.52,-76.9882 1654.27,-83.984"/>
</g>
<!-- Node11 -->
<g id="node17" class="node"><title>Node11</title>
<a xlink:href="_ant-fake_raw_8cc.html" target="_top" xlink:title="progs/Ant&#45;fakeRaw.cc">
<polygon fill="white" stroke="black" points="994,-7.5 994,-28.5 1108,-28.5 1108,-7.5 994,-7.5"/>
<text text-anchor="middle" x="1051" y="-15.5" font-family="Helvetica,sans-Serif" font-size="10.00">progs/Ant&#45;fakeRaw.cc</text>
</a>
</g>
<!-- Node3&#45;&gt;Node11 -->
<g id="edge16" class="edge"><title>Node3&#45;&gt;Node11</title>
<path fill="none" stroke="midnightblue" d="M1653.89,-81.7815C1536.97,-78.8818 1308.22,-69.0854 1117,-36 1106.47,-34.1776 1095.18,-31.4119 1084.98,-28.5913"/>
<polygon fill="midnightblue" stroke="midnightblue" points="1654.08,-85.287 1664.16,-82.0257 1654.25,-78.289 1654.08,-85.287"/>
</g>
<!-- Node12 -->
<g id="node19" class="node"><title>Node12</title>
<a xlink:href="_ant-make_sigmas_8cc.html" target="_top" xlink:title="progs/Ant&#45;makeSigmas.cc">
<polygon fill="white" stroke="black" points="1126,-7.5 1126,-28.5 1258,-28.5 1258,-7.5 1126,-7.5"/>
<text text-anchor="middle" x="1192" y="-15.5" font-family="Helvetica,sans-Serif" font-size="10.00">progs/Ant&#45;makeSigmas.cc</text>
</a>
</g>
<!-- Node3&#45;&gt;Node12 -->
<g id="edge18" class="edge"><title>Node3&#45;&gt;Node12</title>
<path fill="none" stroke="midnightblue" d="M1654.05,-78.3885C1561.66,-72.1192 1402.22,-58.9679 1267,-36 1255.38,-34.0268 1242.89,-31.2832 1231.5,-28.532"/>
<polygon fill="midnightblue" stroke="midnightblue" points="1653.95,-81.889 1664.16,-79.0647 1654.41,-74.9047 1653.95,-81.889"/>
</g>
<!-- Node13 -->
<g id="node21" class="node"><title>Node13</title>
<a xlink:href="_ant-make_tagg_eff_8cc.html" target="_top" xlink:title="progs/Ant&#45;makeTaggEff.cc">
<polygon fill="white" stroke="black" points="1276,-7.5 1276,-28.5 1410,-28.5 1410,-7.5 1276,-7.5"/>
<text text-anchor="middle" x="1343" y="-15.5" font-family="Helvetica,sans-Serif" font-size="10.00">progs/Ant&#45;makeTaggEff.cc</text>
</a>
</g>
<!-- Node3&#45;&gt;Node13 -->
<g id="edge20" class="edge"><title>Node3&#45;&gt;Node13</title>
<path fill="none" stroke="midnightblue" d="M1654.08,-73.2246C1590.75,-64.7415 1498.73,-51.4192 1419,-36 1407.82,-33.8373 1395.79,-31.1559 1384.68,-28.529"/>
<polygon fill="midnightblue" stroke="midnightblue" points="1654.01,-76.746 1664.39,-74.5959 1654.93,-69.8072 1654.01,-76.746"/>
</g>
<!-- Node14 -->
<g id="node23" class="node"><title>Node14</title>
<a xlink:href="_ant-mc-pi0gun_8cc.html" target="_top" xlink:title="progs/Ant&#45;mc&#45;pi0gun.cc">
<polygon fill="white" stroke="black" points="1428,-7.5 1428,-28.5 1548,-28.5 1548,-7.5 1428,-7.5"/>
<text text-anchor="middle" x="1488" y="-15.5" font-family="Helvetica,sans-Serif" font-size="10.00">progs/Ant&#45;mc&#45;pi0gun.cc</text>
</a>
</g>
<!-- Node3&#45;&gt;Node14 -->
<g id="edge22" class="edge"><title>Node3&#45;&gt;Node14</title>
<path fill="none" stroke="midnightblue" d="M1682.02,-69.8986C1636.45,-57.7083 1569.41,-39.7754 1527.26,-28.5005"/>
<polygon fill="midnightblue" stroke="midnightblue" points="1681.12,-73.2814 1691.69,-72.4844 1682.93,-66.5191 1681.12,-73.2814"/>
</g>
<!-- Node15 -->
<g id="node25" class="node"><title>Node15</title>
<a xlink:href="_ant-plot_8cc.html" target="_top" xlink:title="progs/Ant&#45;plot.cc">
<polygon fill="white" stroke="black" points="1565.5,-7.5 1565.5,-28.5 1656.5,-28.5 1656.5,-7.5 1565.5,-7.5"/>
<text text-anchor="middle" x="1611" y="-15.5" font-family="Helvetica,sans-Serif" font-size="10.00">progs/Ant&#45;plot.cc</text>
</a>
</g>
<!-- Node3&#45;&gt;Node15 -->
<g id="edge24" class="edge"><title>Node3&#45;&gt;Node15</title>
<path fill="none" stroke="midnightblue" d="M1702.48,-67.5541C1680.28,-55.5291 1650.06,-39.1581 1630.54,-28.5835"/>
<polygon fill="midnightblue" stroke="midnightblue" points="1700.99,-70.7266 1711.45,-72.412 1704.33,-64.5716 1700.99,-70.7266"/>
</g>
<!-- Node16 -->
<g id="node27" class="node"><title>Node16</title>
<a xlink:href="_ant-rawdump_8cc.html" target="_top" xlink:title="progs/Ant&#45;rawdump.cc">
<polygon fill="white" stroke="black" points="1673.5,-7.5 1673.5,-28.5 1788.5,-28.5 1788.5,-7.5 1673.5,-7.5"/>
<text text-anchor="middle" x="1731" y="-15.5" font-family="Helvetica,sans-Serif" font-size="10.00">progs/Ant&#45;rawdump.cc</text>
</a>
</g>
<!-- Node3&#45;&gt;Node16 -->
<g id="edge26" class="edge"><title>Node3&#45;&gt;Node16</title>
<path fill="none" stroke="midnightblue" d="M1731,-62.0142C1731,-50.8307 1731,-37.5583 1731,-28.5337"/>
<polygon fill="midnightblue" stroke="midnightblue" points="1727.5,-62.2665 1731,-72.2666 1734.5,-62.2666 1727.5,-62.2665"/>
</g>
<!-- Node17 -->
<g id="node29" class="node"><title>Node17</title>
<a xlink:href="_ant-smooth_tagg_eff_8cc.html" target="_top" xlink:title="progs/Ant&#45;smoothTaggEff.cc">
<polygon fill="white" stroke="black" points="1806,-7.5 1806,-28.5 1948,-28.5 1948,-7.5 1806,-7.5"/>
<text text-anchor="middle" x="1877" y="-15.5" font-family="Helvetica,sans-Serif" font-size="10.00">progs/Ant&#45;smoothTaggEff.cc</text>
</a>
</g>
<!-- Node3&#45;&gt;Node17 -->
<g id="edge28" class="edge"><title>Node3&#45;&gt;Node17</title>
<path fill="none" stroke="midnightblue" d="M1764.26,-68.194C1791.39,-56.1156 1829.05,-39.3469 1853.23,-28.5835"/>
<polygon fill="midnightblue" stroke="midnightblue" points="1762.49,-65.1473 1754.78,-72.412 1765.34,-71.5422 1762.49,-65.1473"/>
</g>
<!-- Node18 -->
<g id="node31" class="node"><title>Node18</title>
<a xlink:href="_ant_8cc.html" target="_top" xlink:title="Main Ant executable. ">
<polygon fill="white" stroke="black" points="1966,-7.5 1966,-28.5 2038,-28.5 2038,-7.5 1966,-7.5"/>
<text text-anchor="middle" x="2002" y="-15.5" font-family="Helvetica,sans-Serif" font-size="10.00">progs/Ant.cc</text>
</a>
</g>
<!-- Node3&#45;&gt;Node18 -->
<g id="edge30" class="edge"><title>Node3&#45;&gt;Node18</title>
<path fill="none" stroke="midnightblue" d="M1807.14,-70.6087C1851.36,-62.5598 1907.88,-50.8079 1957,-36 1963.93,-33.9115 1971.28,-31.1949 1977.99,-28.5078"/>
<polygon fill="midnightblue" stroke="midnightblue" points="1806.26,-67.2102 1797.03,-72.4219 1807.5,-74.1001 1806.26,-67.2102"/>
</g>
<!-- Node19 -->
<g id="node33" class="node"><title>Node19</title>
<a xlink:href="_etap_omega_g__fit_8cc.html" target="_top" xlink:title="progs/EtapOmegaG_fit.cc">
<polygon fill="white" stroke="black" points="2056,-7.5 2056,-28.5 2186,-28.5 2186,-7.5 2056,-7.5"/>
<text text-anchor="middle" x="2121" y="-15.5" font-family="Helvetica,sans-Serif" font-size="10.00">progs/EtapOmegaG_fit.cc</text>
</a>
</g>
<!-- Node3&#45;&gt;Node19 -->
<g id="edge32" class="edge"><title>Node3&#45;&gt;Node19</title>
<path fill="none" stroke="midnightblue" d="M1807.62,-73.5889C1871.82,-65.2284 1965.75,-51.8899 2047,-36 2057.9,-33.8683 2069.61,-31.1976 2080.43,-28.571"/>
<polygon fill="midnightblue" stroke="midnightblue" points="1807.04,-70.1338 1797.57,-74.8875 1807.94,-77.076 1807.04,-70.1338"/>
</g>
<!-- Node20 -->
<g id="node35" class="node"><title>Node20</title>
<a xlink:href="tagg_eff_plot_8cc.html" target="_top" xlink:title="progs/taggEffPlot.cc">
<polygon fill="white" stroke="black" points="2204,-7.5 2204,-28.5 2310,-28.5 2310,-7.5 2204,-7.5"/>
<text text-anchor="middle" x="2257" y="-15.5" font-family="Helvetica,sans-Serif" font-size="10.00">progs/taggEffPlot.cc</text>
</a>
</g>
<!-- Node3&#45;&gt;Node20 -->
<g id="edge34" class="edge"><title>Node3&#45;&gt;Node20</title>
<path fill="none" stroke="midnightblue" d="M1807.75,-79.4996C1900.28,-74.2995 2060.16,-62.1768 2195,-36 2204.79,-34.0989 2215.27,-31.3441 2224.77,-28.5589"/>
<polygon fill="midnightblue" stroke="midnightblue" points="1807.43,-76.012 1797.63,-80.0556 1807.81,-83.0015 1807.43,-76.012"/>
</g>
<!-- Node21 -->
<g id="node37" class="node"><title>Node21</title>
<a xlink:href="tagger_energies_8cc.html" target="_top" xlink:title="progs/taggerEnergies.cc">
<polygon fill="white" stroke="black" points="2328,-7.5 2328,-28.5 2450,-28.5 2450,-7.5 2328,-7.5"/>
<text text-anchor="middle" x="2389" y="-15.5" font-family="Helvetica,sans-Serif" font-size="10.00">progs/taggerEnergies.cc</text>
</a>
</g>
<!-- Node3&#45;&gt;Node21 -->
<g id="edge36" class="edge"><title>Node3&#45;&gt;Node21</title>
<path fill="none" stroke="midnightblue" d="M1807.85,-81.0657C1920.63,-77.2778 2137.31,-66.3901 2319,-36 2330.14,-34.137 2342.1,-31.3591 2352.92,-28.54"/>
<polygon fill="midnightblue" stroke="midnightblue" points="1807.47,-77.5759 1797.59,-81.4 1807.7,-84.5722 1807.47,-77.5759"/>
</g>
<!-- Node22 -->
<g id="node39" class="node"><title>Node22</title>
<a xlink:href="_particle_i_d_8cc.html" target="_top" xlink:title="src/analysis/utils\l/ParticleID.cc">
<polygon fill="white" stroke="black" points="2468,-1 2468,-35 2558,-35 2558,-1 2468,-1"/>
<text text-anchor="start" x="2476" y="-22" font-family="Helvetica,sans-Serif" font-size="10.00">src/analysis/utils</text>
<text text-anchor="middle" x="2513" y="-9" font-family="Helvetica,sans-Serif" font-size="10.00">/ParticleID.cc</text>
</a>
</g>
<!-- Node3&#45;&gt;Node22 -->
<g id="edge38" class="edge"><title>Node3&#45;&gt;Node22</title>
<path fill="none" stroke="midnightblue" d="M1808.05,-80.5325C1969.01,-74.9679 2336.16,-60.0218 2459,-36 2461.91,-35.431 2464.88,-34.7483 2467.85,-33.9861"/>
<polygon fill="midnightblue" stroke="midnightblue" points="1807.63,-77.0449 1797.75,-80.8854 1807.87,-84.0408 1807.63,-77.0449"/>
</g>
<!-- Node23 -->
<g id="node41" class="node"><title>Node23</title>
<a xlink:href="_m_c_extracted_8cc.html" target="_top" xlink:title="src/analysis/utils\l/uncertainties/MCExtracted.cc">
<polygon fill="white" stroke="black" points="2575.5,-1 2575.5,-35 2724.5,-35 2724.5,-1 2575.5,-1"/>
<text text-anchor="start" x="2583.5" y="-22" font-family="Helvetica,sans-Serif" font-size="10.00">src/analysis/utils</text>
<text text-anchor="middle" x="2650" y="-9" font-family="Helvetica,sans-Serif" font-size="10.00">/uncertainties/MCExtracted.cc</text>
</a>
</g>
<!-- Node3&#45;&gt;Node23 -->
<g id="edge40" class="edge"><title>Node3&#45;&gt;Node23</title>
<path fill="none" stroke="midnightblue" d="M1807.6,-80.239C1985.31,-73.5831 2421.54,-55.7361 2567,-36 2569.78,-35.6233 2572.6,-35.2034 2575.44,-34.7488"/>
<polygon fill="midnightblue" stroke="midnightblue" points="1807.41,-76.7436 1797.55,-80.614 1807.67,-83.7388 1807.41,-76.7436"/>
</g>
<!-- Node24 -->
<g id="node43" class="node"><title>Node24</title>
<a xlink:href="_git_info_8cc.html" target="_top" xlink:title="src/base/GitInfo.cc">
<polygon fill="white" stroke="black" points="2742,-7.5 2742,-28.5 2842,-28.5 2842,-7.5 2742,-7.5"/>
<text text-anchor="middle" x="2792" y="-15.5" font-family="Helvetica,sans-Serif" font-size="10.00">src/base/GitInfo.cc</text>
</a>
</g>
<!-- Node3&#45;&gt;Node24 -->
<g id="edge42" class="edge"><title>Node3&#45;&gt;Node24</title>
<path fill="none" stroke="midnightblue" d="M1807.84,-81.8694C2010.39,-78.4938 2555.48,-66.745 2733,-36 2742.81,-34.3004 2753.28,-31.4601 2762.64,-28.5323"/>
<polygon fill="midnightblue" stroke="midnightblue" points="1807.53,-78.374 1797.59,-82.038 1807.65,-85.373 1807.53,-78.374"/>
</g>
<!-- Node25 -->
<g id="node45" class="node"><title>Node25</title>
<a xlink:href="system_8cc.html" target="_top" xlink:title="src/base/std_ext/system.cc">
<polygon fill="white" stroke="black" points="2860,-7.5 2860,-28.5 2998,-28.5 2998,-7.5 2860,-7.5"/>
<text text-anchor="middle" x="2929" y="-15.5" font-family="Helvetica,sans-Serif" font-size="10.00">src/base/std_ext/system.cc</text>
</a>
</g>
<!-- Node3&#45;&gt;Node25 -->
<g id="edge44" class="edge"><title>Node3&#45;&gt;Node25</title>
<path fill="none" stroke="midnightblue" d="M1807.9,-81.6248C2026.51,-77.4208 2648.81,-63.3325 2851,-36 2863.67,-34.2872 2877.31,-31.4807 2889.58,-28.5879"/>
<polygon fill="midnightblue" stroke="midnightblue" points="1807.73,-78.1273 1797.8,-81.8175 1807.86,-85.126 1807.73,-78.1273"/>
</g>
<!-- Node26 -->
<g id="node47" class="node"><title>Node26</title>
<a xlink:href="_wrap_t_file_8cc.html" target="_top" xlink:title="src/base/WrapTFile.cc">
<polygon fill="white" stroke="black" points="3016,-7.5 3016,-28.5 3132,-28.5 3132,-7.5 3016,-7.5"/>
<text text-anchor="middle" x="3074" y="-15.5" font-family="Helvetica,sans-Serif" font-size="10.00">src/base/WrapTFile.cc</text>
</a>
</g>
<!-- Node3&#45;&gt;Node26 -->
<g id="edge46" class="edge"><title>Node3&#45;&gt;Node26</title>
<path fill="none" stroke="midnightblue" d="M1808.11,-82.4379C2047.19,-80.3359 2773.87,-71.1485 3007,-36 3018.08,-34.3301 3029.95,-31.498 3040.57,-28.5684"/>
<polygon fill="midnightblue" stroke="midnightblue" points="1807.75,-78.9408 1797.78,-82.527 1807.81,-85.9406 1807.75,-78.9408"/>
</g>
<!-- Node27 -->
<g id="node49" class="node"><title>Node27</title>
<a xlink:href="_data_base_8cc.html" target="_top" xlink:title="src/calibration/DataBase.cc">
<polygon fill="white" stroke="black" points="3149.5,-7.5 3149.5,-28.5 3286.5,-28.5 3286.5,-7.5 3149.5,-7.5"/>
<text text-anchor="middle" x="3218" y="-15.5" font-family="Helvetica,sans-Serif" font-size="10.00">src/calibration/DataBase.cc</text>
</a>
</g>
<!-- Node3&#45;&gt;Node27 -->
<g id="edge48" class="edge"><title>Node3&#45;&gt;Node27</title>
<path fill="none" stroke="midnightblue" d="M1808.2,-82.4225C2063.65,-80.1984 2880.1,-70.5025 3141,-36 3153.66,-34.3261 3167.28,-31.4929 3179.5,-28.5636"/>
<polygon fill="midnightblue" stroke="midnightblue" points="1807.87,-78.9251 1797.9,-82.5108 1807.93,-85.9249 1807.87,-78.9251"/>
</g>
<!-- Node28 -->
<g id="node51" class="node"><title>Node28</title>
<a xlink:href="_test_std_ext_8cc.html" target="_top" xlink:title="test/base/TestStdExt.cc">
<polygon fill="white" stroke="black" points="3303.5,-7.5 3303.5,-28.5 3426.5,-28.5 3426.5,-7.5 3303.5,-7.5"/>
<text text-anchor="middle" x="3365" y="-15.5" font-family="Helvetica,sans-Serif" font-size="10.00">test/base/TestStdExt.cc</text>
</a>
</g>
<!-- Node3&#45;&gt;Node28 -->
<g id="edge50" class="edge"><title>Node3&#45;&gt;Node28</title>
<path fill="none" stroke="midnightblue" d="M1807.73,-81.6928C2101.72,-76.5472 3147.31,-56.9431 3295,-36 3306.68,-34.3439 3319.22,-31.4772 3330.41,-28.5121"/>
<polygon fill="midnightblue" stroke="midnightblue" points="1807.53,-78.1956 1797.59,-81.8697 1807.65,-85.1946 1807.53,-78.1956"/>
</g>
</g>
</svg>
