<?xml version="1.0" encoding="UTF-8" standalone="no"?>
<!DOCTYPE svg PUBLIC "-//W3C//DTD SVG 1.1//EN"
 "http://www.w3.org/Graphics/SVG/1.1/DTD/svg11.dtd">
<!-- Generated by graphviz version 2.26.3 (20100126.1600)
 -->
<!-- Title: src/base/tmpfile_t.h Pages: 1 -->
<svg width="2620pt" height="102pt"
 viewBox="0.00 0.00 2620.00 102.00" xmlns="http://www.w3.org/2000/svg" xmlns:xlink="http://www.w3.org/1999/xlink">
<g id="graph1" class="graph" transform="scale(1 1) rotate(0) translate(4 98)">
<title>src/base/tmpfile_t.h</title>
<polygon fill="white" stroke="white" points="-4,5 -4,-98 2617,-98 2617,5 -4,5"/>
<!-- Node4 -->
<g id="node1" class="node"><title>Node4</title>
<polygon fill="#bfbfbf" stroke="black" points="1233.5,-72.5 1233.5,-93.5 1336.5,-93.5 1336.5,-72.5 1233.5,-72.5"/>
<text text-anchor="middle" x="1285" y="-80.5" font-family="Helvetica,sans-Serif" font-size="10.00">src/base/tmpfile_t.h</text>
</g>
<!-- Node5 -->
<g id="node3" class="node"><title>Node5</title>
<a xlink:href="tmpfile__t_8cc.html" target="_top" xlink:title="src/base/tmpfile_t.cc">
<polygon fill="white" stroke="black" points="0,-7.5 0,-28.5 108,-28.5 108,-7.5 0,-7.5"/>
<text text-anchor="middle" x="54" y="-15.5" font-family="Helvetica,sans-Serif" font-size="10.00">src/base/tmpfile_t.cc</text>
</a>
</g>
<!-- Node4&#45;&gt;Node5 -->
<g id="edge2" class="edge"><title>Node4&#45;&gt;Node5</title>
<path fill="none" stroke="midnightblue" d="M1223.08,-82.4503C1013.68,-80.2874 333.013,-70.6958 117,-36 106.555,-34.3223 95.3846,-31.4881 85.3943,-28.559"/>
<polygon fill="midnightblue" stroke="midnightblue" points="1223.25,-85.9521 1233.28,-82.5536 1223.32,-78.9524 1223.25,-85.9521"/>
</g>
<!-- Node6 -->
<g id="node5" class="node"><title>Node6</title>
<a xlink:href="_test_ant_reader_8cc.html" target="_top" xlink:title="test/analysis/TestAntReader.cc">
<polygon fill="white" stroke="black" points="125.5,-7.5 125.5,-28.5 280.5,-28.5 280.5,-7.5 125.5,-7.5"/>
<text text-anchor="middle" x="203" y="-15.5" font-family="Helvetica,sans-Serif" font-size="10.00">test/analysis/TestAntReader.cc</text>
</a>
</g>
<!-- Node4&#45;&gt;Node6 -->
<g id="edge4" class="edge"><title>Node4&#45;&gt;Node6</title>
<path fill="none" stroke="midnightblue" d="M1222.96,-81.3669C1034.58,-76.2038 471.017,-59.193 289,-36 275.079,-34.2261 260.057,-31.4025 246.523,-28.5128"/>
<polygon fill="midnightblue" stroke="midnightblue" points="1223.14,-84.8732 1233.23,-81.647 1223.33,-77.8758 1223.14,-84.8732"/>
</g>
<!-- Node7 -->
<g id="node7" class="node"><title>Node7</title>
<a xlink:href="_test_histogram_factory_8cc.html" target="_top" xlink:title="test/analysis/TestHistogram\lFactory.cc">
<polygon fill="white" stroke="black" points="298,-1 298,-35 438,-35 438,-1 298,-1"/>
<text text-anchor="start" x="306" y="-22" font-family="Helvetica,sans-Serif" font-size="10.00">test/analysis/TestHistogram</text>
<text text-anchor="middle" x="368" y="-9" font-family="Helvetica,sans-Serif" font-size="10.00">Factory.cc</text>
</a>
</g>
<!-- Node4&#45;&gt;Node7 -->
<g id="edge6" class="edge"><title>Node4&#45;&gt;Node7</title>
<path fill="none" stroke="midnightblue" d="M1223.24,-80.8845C1056.03,-74.9412 596.986,-57.1402 447,-36 444.075,-35.5877 441.098,-35.1219 438.098,-34.6142"/>
<polygon fill="midnightblue" stroke="midnightblue" points="1223.24,-84.3865 1233.36,-81.2422 1223.49,-77.3909 1223.24,-84.3865"/>
</g>
<!-- Node8 -->
<g id="node9" class="node"><title>Node8</title>
<a xlink:href="_test_physics_manager_8cc.html" target="_top" xlink:title="test/analysis/TestPhysics\lManager.cc">
<polygon fill="white" stroke="black" points="456,-1 456,-35 586,-35 586,-1 456,-1"/>
<text text-anchor="start" x="464" y="-22" font-family="Helvetica,sans-Serif" font-size="10.00">test/analysis/TestPhysics</text>
<text text-anchor="middle" x="521" y="-9" font-family="Helvetica,sans-Serif" font-size="10.00">Manager.cc</text>
</a>
</g>
<!-- Node4&#45;&gt;Node8 -->
<g id="edge8" class="edge"><title>Node4&#45;&gt;Node8</title>
<path fill="none" stroke="midnightblue" d="M1222.96,-82.3114C1101.63,-80.1859 824.736,-71.4994 595,-36 592.125,-35.5558 589.198,-35.055 586.249,-34.5106"/>
<polygon fill="midnightblue" stroke="midnightblue" points="1223.11,-85.8143 1233.17,-82.4811 1223.23,-78.8153 1223.11,-85.8143"/>
</g>
<!-- Node9 -->
<g id="node11" class="node"><title>Node9</title>
<a xlink:href="_test_physics_registry_8cc.html" target="_top" xlink:title="test/analysis/TestPhysics\lRegistry.cc">
<polygon fill="white" stroke="black" points="604,-1 604,-35 734,-35 734,-1 604,-1"/>
<text text-anchor="start" x="612" y="-22" font-family="Helvetica,sans-Serif" font-size="10.00">test/analysis/TestPhysics</text>
<text text-anchor="middle" x="669" y="-9" font-family="Helvetica,sans-Serif" font-size="10.00">Registry.cc</text>
</a>
</g>
<!-- Node4&#45;&gt;Node9 -->
<g id="edge10" class="edge"><title>Node4&#45;&gt;Node9</title>
<path fill="none" stroke="midnightblue" d="M1223.47,-80.7128C1122.55,-76.2802 915.787,-64.3373 743,-36 740.13,-35.5292 737.206,-35.0065 734.26,-34.4441"/>
<polygon fill="midnightblue" stroke="midnightblue" points="1223.35,-84.2106 1233.49,-81.1433 1223.65,-77.2171 1223.35,-84.2106"/>
</g>
<!-- Node10 -->
<g id="node13" class="node"><title>Node10</title>
<a xlink:href="_test_slow_control_manager_8cc.html" target="_top" xlink:title="test/analysis/TestSlowControl\lManager.cc">
<polygon fill="white" stroke="black" points="752,-1 752,-35 900,-35 900,-1 752,-1"/>
<text text-anchor="start" x="760" y="-22" font-family="Helvetica,sans-Serif" font-size="10.00">test/analysis/TestSlowControl</text>
<text text-anchor="middle" x="826" y="-9" font-family="Helvetica,sans-Serif" font-size="10.00">Manager.cc</text>
</a>
</g>
<!-- Node4&#45;&gt;Node10 -->
<g id="edge12" class="edge"><title>Node4&#45;&gt;Node10</title>
<path fill="none" stroke="midnightblue" d="M1223.22,-76.9864C1148.52,-69.3209 1019.09,-54.7798 909,-36 906.093,-35.5041 903.134,-34.9759 900.148,-34.4233"/>
<polygon fill="midnightblue" stroke="midnightblue" points="1223.09,-80.4909 1233.4,-78.0222 1223.8,-73.5269 1223.09,-80.4909"/>
</g>
<!-- Node11 -->
<g id="node15" class="node"><title>Node11</title>
<a xlink:href="_test_std_ext_8cc.html" target="_top" xlink:title="test/base/TestStdExt.cc">
<polygon fill="white" stroke="black" points="917.5,-7.5 917.5,-28.5 1040.5,-28.5 1040.5,-7.5 917.5,-7.5"/>
<text text-anchor="middle" x="979" y="-15.5" font-family="Helvetica,sans-Serif" font-size="10.00">test/base/TestStdExt.cc</text>
</a>
</g>
<!-- Node4&#45;&gt;Node11 -->
<g id="edge14" class="edge"><title>Node4&#45;&gt;Node11</title>
<path fill="none" stroke="midnightblue" d="M1223.39,-71.6933C1175.66,-62.7004 1107.94,-49.4367 1049,-36 1039.09,-33.7409 1028.44,-31.1094 1018.52,-28.5672"/>
<polygon fill="midnightblue" stroke="midnightblue" points="1222.79,-75.1415 1233.26,-73.546 1224.08,-68.2616 1222.79,-75.1415"/>
</g>
<!-- Node12 -->
<g id="node17" class="node"><title>Node12</title>
<a xlink:href="_test_wrap_t_file_8cc.html" target="_top" xlink:title="test/base/TestWrapTFile.cc">
<polygon fill="white" stroke="black" points="1058,-7.5 1058,-28.5 1196,-28.5 1196,-7.5 1058,-7.5"/>
<text text-anchor="middle" x="1127" y="-15.5" font-family="Helvetica,sans-Serif" font-size="10.00">test/base/TestWrapTFile.cc</text>
</a>
</g>
<!-- Node4&#45;&gt;Node12 -->
<g id="edge16" class="edge"><title>Node4&#45;&gt;Node12</title>
<path fill="none" stroke="midnightblue" d="M1249.78,-68.5108C1220.37,-56.4103 1179.12,-39.4414 1152.73,-28.5835"/>
<polygon fill="midnightblue" stroke="midnightblue" points="1248.68,-71.8441 1259.26,-72.412 1251.35,-65.3705 1248.68,-71.8441"/>
</g>
<!-- Node13 -->
<g id="node19" class="node"><title>Node13</title>
<a xlink:href="_test_wrap_t_tree_8cc.html" target="_top" xlink:title="test/base/TestWrapTTree.cc">
<polygon fill="white" stroke="black" points="1214,-7.5 1214,-28.5 1356,-28.5 1356,-7.5 1214,-7.5"/>
<text text-anchor="middle" x="1285" y="-15.5" font-family="Helvetica,sans-Serif" font-size="10.00">test/base/TestWrapTTree.cc</text>
</a>
</g>
<!-- Node4&#45;&gt;Node13 -->
<g id="edge18" class="edge"><title>Node4&#45;&gt;Node13</title>
<path fill="none" stroke="midnightblue" d="M1285,-62.0142C1285,-50.8307 1285,-37.5583 1285,-28.5337"/>
<polygon fill="midnightblue" stroke="midnightblue" points="1281.5,-62.2665 1285,-72.2666 1288.5,-62.2666 1281.5,-62.2665"/>
</g>
<!-- Node14 -->
<g id="node21" class="node"><title>Node14</title>
<a xlink:href="_test_calibration_modules_8cc.html" target="_top" xlink:title="test/calibration/TestCalibration\lModules.cc">
<polygon fill="white" stroke="black" points="1373.5,-1 1373.5,-35 1522.5,-35 1522.5,-1 1373.5,-1"/>
<text text-anchor="start" x="1381.5" y="-22" font-family="Helvetica,sans-Serif" font-size="10.00">test/calibration/TestCalibration</text>
<text text-anchor="middle" x="1448" y="-9" font-family="Helvetica,sans-Serif" font-size="10.00">Modules.cc</text>
</a>
</g>
<!-- Node4&#45;&gt;Node14 -->
<g id="edge20" class="edge"><title>Node4&#45;&gt;Node14</title>
<path fill="none" stroke="midnightblue" d="M1320.97,-68.6543C1345.83,-58.7423 1379,-45.5134 1405.22,-35.0604"/>
<polygon fill="midnightblue" stroke="midnightblue" points="1319.54,-65.4568 1311.55,-72.412 1322.14,-71.9589 1319.54,-65.4568"/>
</g>
<!-- Node15 -->
<g id="node23" class="node"><title>Node15</title>
<a xlink:href="_test_data_manager_8cc.html" target="_top" xlink:title="test/calibration/TestData\lManager.cc">
<polygon fill="white" stroke="black" points="1540,-1 1540,-35 1664,-35 1664,-1 1540,-1"/>
<text text-anchor="start" x="1548" y="-22" font-family="Helvetica,sans-Serif" font-size="10.00">test/calibration/TestData</text>
<text text-anchor="middle" x="1602" y="-9" font-family="Helvetica,sans-Serif" font-size="10.00">Manager.cc</text>
</a>
</g>
<!-- Node4&#45;&gt;Node15 -->
<g id="edge22" class="edge"><title>Node4&#45;&gt;Node15</title>
<path fill="none" stroke="midnightblue" d="M1346.52,-72.294C1396.41,-63.3612 1468.46,-49.8901 1531,-36 1533.86,-35.3659 1536.77,-34.7005 1539.71,-34.0144"/>
<polygon fill="midnightblue" stroke="midnightblue" points="1345.77,-68.8732 1336.54,-74.0742 1347,-75.7645 1345.77,-68.8732"/>
</g>
<!-- Node16 -->
<g id="node25" class="node"><title>Node16</title>
<a xlink:href="_test_g_u_i_manager_8cc.html" target="_top" xlink:title="test/calibration/TestGUIManager.cc">
<polygon fill="white" stroke="black" points="1682,-7.5 1682,-28.5 1854,-28.5 1854,-7.5 1682,-7.5"/>
<text text-anchor="middle" x="1768" y="-15.5" font-family="Helvetica,sans-Serif" font-size="10.00">test/calibration/TestGUIManager.cc</text>
</a>
</g>
<!-- Node4&#45;&gt;Node16 -->
<g id="edge24" class="edge"><title>Node4&#45;&gt;Node16</title>
<path fill="none" stroke="midnightblue" d="M1346.58,-76.8222C1423.26,-68.8361 1558.13,-53.8187 1673,-36 1686.93,-33.8385 1701.95,-31.1574 1715.84,-28.5306"/>
<polygon fill="midnightblue" stroke="midnightblue" points="1346.2,-73.3429 1336.62,-77.855 1346.92,-80.3057 1346.2,-73.3429"/>
</g>
<!-- Node17 -->
<g id="node27" class="node"><title>Node17</title>
<a xlink:href="expconfig__helpers_8cc.html" target="_top" xlink:title="test/expconfig_helpers.cc">
<polygon fill="white" stroke="black" points="1872,-7.5 1872,-28.5 2000,-28.5 2000,-7.5 1872,-7.5"/>
<text text-anchor="middle" x="1936" y="-15.5" font-family="Helvetica,sans-Serif" font-size="10.00">test/expconfig_helpers.cc</text>
</a>
</g>
<!-- Node4&#45;&gt;Node17 -->
<g id="edge26" class="edge"><title>Node4&#45;&gt;Node17</title>
<path fill="none" stroke="midnightblue" d="M1346.97,-81.2236C1453.21,-77.4523 1676.68,-66.345 1863,-36 1874.6,-34.1116 1887.06,-31.3262 1898.35,-28.508"/>
<polygon fill="midnightblue" stroke="midnightblue" points="1346.63,-77.7333 1336.76,-81.5764 1346.87,-84.7292 1346.63,-77.7333"/>
</g>
<!-- Node18 -->
<g id="node29" class="node"><title>Node18</title>
<a xlink:href="_test_t_calibration_data_8cc.html" target="_top" xlink:title="test/tree/TestTCalibration\lData.cc">
<polygon fill="white" stroke="black" points="2018,-1 2018,-35 2146,-35 2146,-1 2018,-1"/>
<text text-anchor="start" x="2026" y="-22" font-family="Helvetica,sans-Serif" font-size="10.00">test/tree/TestTCalibration</text>
<text text-anchor="middle" x="2082" y="-9" font-family="Helvetica,sans-Serif" font-size="10.00">Data.cc</text>
</a>
</g>
<!-- Node4&#45;&gt;Node18 -->
<g id="edge28" class="edge"><title>Node4&#45;&gt;Node18</title>
<path fill="none" stroke="midnightblue" d="M1346.63,-80.4043C1497.44,-73.8259 1881.99,-55.6232 2009,-36 2011.84,-35.5615 2014.73,-35.0655 2017.64,-34.525"/>
<polygon fill="midnightblue" stroke="midnightblue" points="1346.45,-76.9088 1336.61,-80.8392 1346.75,-83.9022 1346.45,-76.9088"/>
</g>
<!-- Node19 -->
<g id="node31" class="node"><title>Node19</title>
<a xlink:href="_test_t_event_8cc.html" target="_top" xlink:title="test/tree/TestTEvent.cc">
<polygon fill="white" stroke="black" points="2164,-7.5 2164,-28.5 2284,-28.5 2284,-7.5 2164,-7.5"/>
<text text-anchor="middle" x="2224" y="-15.5" font-family="Helvetica,sans-Serif" font-size="10.00">test/tree/TestTEvent.cc</text>
</a>
</g>
<!-- Node4&#45;&gt;Node19 -->
<g id="edge30" class="edge"><title>Node4&#45;&gt;Node19</title>
<path fill="none" stroke="midnightblue" d="M1346.76,-81.2797C1518.43,-76.2409 1998.92,-60.32 2155,-36 2166.25,-34.2464 2178.33,-31.4285 2189.18,-28.5378"/>
<polygon fill="midnightblue" stroke="midnightblue" points="1346.53,-77.785 1336.63,-81.5749 1346.73,-84.782 1346.53,-77.785"/>
</g>
<!-- Node20 -->
<g id="node33" class="node"><title>Node20</title>
<a xlink:href="_test_raw_file_reader_8cc.html" target="_top" xlink:title="test/unpacker/TestRawFile\lReader.cc">
<polygon fill="white" stroke="black" points="2302,-1 2302,-35 2436,-35 2436,-1 2302,-1"/>
<text text-anchor="start" x="2310" y="-22" font-family="Helvetica,sans-Serif" font-size="10.00">test/unpacker/TestRawFile</text>
<text text-anchor="middle" x="2369" y="-9" font-family="Helvetica,sans-Serif" font-size="10.00">Reader.cc</text>
</a>
</g>
<!-- Node4&#45;&gt;Node20 -->
<g id="edge32" class="edge"><title>Node4&#45;&gt;Node20</title>
<path fill="none" stroke="midnightblue" d="M1346.88,-81.6233C1536.66,-77.1625 2108.81,-61.8771 2293,-36 2295.95,-35.585 2298.96,-35.1084 2301.99,-34.5838"/>
<polygon fill="midnightblue" stroke="midnightblue" points="1346.71,-78.1261 1336.79,-81.8585 1346.87,-85.1242 1346.71,-78.1261"/>
</g>
<!-- Node21 -->
<g id="node35" class="node"><title>Node21</title>
<a xlink:href="_test_tree_writer_8cc.html" target="_top" xlink:title="test/unpacker/TestTreeWriter.cc">
<polygon fill="white" stroke="black" points="2454,-7.5 2454,-28.5 2612,-28.5 2612,-7.5 2454,-7.5"/>
<text text-anchor="middle" x="2533" y="-15.5" font-family="Helvetica,sans-Serif" font-size="10.00">test/unpacker/TestTreeWriter.cc</text>
</a>
</g>
<!-- Node4&#45;&gt;Node21 -->
<g id="edge34" class="edge"><title>Node4&#45;&gt;Node21</title>
<path fill="none" stroke="midnightblue" d="M1346.76,-81.8128C1554.87,-77.6065 2229.43,-62.2402 2445,-36 2459.24,-34.2665 2474.61,-31.4542 2488.46,-28.5624"/>
<polygon fill="midnightblue" stroke="midnightblue" points="1346.55,-78.3162 1336.63,-82.0163 1346.69,-85.3148 1346.55,-78.3162"/>
</g>
</g>
</svg>
