<?xml version="1.0" encoding="UTF-8" standalone="no"?>
<!DOCTYPE svg PUBLIC "-//W3C//DTD SVG 1.1//EN"
 "http://www.w3.org/Graphics/SVG/1.1/DTD/svg11.dtd">
<!-- Generated by graphviz version 2.26.3 (20100126.1600)
 -->
<!-- Title: src/analysis/physics/production/triplePi0.h Pages: 1 -->
<svg width="284pt" height="128pt"
 viewBox="0.00 0.00 284.00 128.00" xmlns="http://www.w3.org/2000/svg" xmlns:xlink="http://www.w3.org/1999/xlink">
<g id="graph1" class="graph" transform="scale(1 1) rotate(0) translate(4 124)">
<title>src/analysis/physics/production/triplePi0.h</title>
<polygon fill="white" stroke="white" points="-4,5 -4,-124 281,-124 281,5 -4,5"/>
<!-- Node102 -->
<g id="node1" class="node"><title>Node102</title>
<polygon fill="#bfbfbf" stroke="black" points="75.5,-85 75.5,-119 186.5,-119 186.5,-85 75.5,-85"/>
<text text-anchor="start" x="83.5" y="-106" font-family="Helvetica,sans-Serif" font-size="10.00">src/analysis/physics</text>
<text text-anchor="middle" x="131" y="-93" font-family="Helvetica,sans-Serif" font-size="10.00">/production/triplePi0.h</text>
</g>
<!-- Node103 -->
<g id="node3" class="node"><title>Node103</title>
<a xlink:href="triple_pi0_8cc.html" target="_top" xlink:title="src/analysis/physics\l/production/triplePi0.cc">
<polygon fill="white" stroke="black" points="0,-7 0,-41 116,-41 116,-7 0,-7"/>
<text text-anchor="start" x="8" y="-28" font-family="Helvetica,sans-Serif" font-size="10.00">src/analysis/physics</text>
<text text-anchor="middle" x="58" y="-15" font-family="Helvetica,sans-Serif" font-size="10.00">/production/triplePi0.cc</text>
</a>
</g>
<!-- Node102&#45;&gt;Node103 -->
<g id="edge2" class="edge"><title>Node102&#45;&gt;Node103</title>
<path fill="none" stroke="midnightblue" d="M107.906,-77.3241C96.9277,-65.594 84.0704,-51.8561 74.1558,-41.2623"/>
<polygon fill="midnightblue" stroke="midnightblue" points="105.41,-79.7797 114.799,-84.6893 110.521,-74.9964 105.41,-79.7797"/>
</g>
<!-- Node104 -->
<g id="node5" class="node"><title>Node104</title>
<a xlink:href="_proton_vertex_test_8cc.html" target="_top" xlink:title="src/analysis/physics\l/scratch/wolfes/ProtonVertex\lTest.cc">
<polygon fill="white" stroke="black" points="133.5,-0.5 133.5,-47.5 276.5,-47.5 276.5,-0.5 133.5,-0.5"/>
<text text-anchor="start" x="141.5" y="-34.5" font-family="Helvetica,sans-Serif" font-size="10.00">src/analysis/physics</text>
<text text-anchor="start" x="141.5" y="-21.5" font-family="Helvetica,sans-Serif" font-size="10.00">/scratch/wolfes/ProtonVertex</text>
<text text-anchor="middle" x="205" y="-8.5" font-family="Helvetica,sans-Serif" font-size="10.00">Test.cc</text>
</a>
</g>
<!-- Node102&#45;&gt;Node104 -->
<g id="edge4" class="edge"><title>Node102&#45;&gt;Node104</title>
<path fill="none" stroke="midnightblue" d="M154.311,-77.4288C163.297,-67.9574 173.536,-57.1643 182.449,-47.77"/>
<polygon fill="midnightblue" stroke="midnightblue" points="151.767,-75.0257 147.423,-84.6893 156.845,-79.8435 151.767,-75.0257"/>
</g>
</g>
</svg>
