<?xml version="1.0" encoding="UTF-8" standalone="no"?>
<!DOCTYPE svg PUBLIC "-//W3C//DTD SVG 1.1//EN"
 "http://www.w3.org/Graphics/SVG/1.1/DTD/svg11.dtd">
<!-- Generated by graphviz version 2.26.3 (20100126.1600)
 -->
<!-- Title: src/analysis/slowcontrol/variables/Pairspec.h Pages: 1 -->
<svg width="1580pt" height="200pt"
 viewBox="0.00 0.00 1580.00 200.00" xmlns="http://www.w3.org/2000/svg" xmlns:xlink="http://www.w3.org/1999/xlink">
<g id="graph1" class="graph" transform="scale(1 1) rotate(0) translate(4 196)">
<title>src/analysis/slowcontrol/variables/Pairspec.h</title>
<polygon fill="white" stroke="white" points="-4,5 -4,-196 1577,-196 1577,5 -4,5"/>
<!-- Node58 -->
<g id="node1" class="node"><title>Node58</title>
<polygon fill="#bfbfbf" stroke="black" points="811,-157 811,-191 933,-191 933,-157 811,-157"/>
<text text-anchor="start" x="819" y="-178" font-family="Helvetica,sans-Serif" font-size="10.00">src/analysis/slowcontrol</text>
<text text-anchor="middle" x="872" y="-165" font-family="Helvetica,sans-Serif" font-size="10.00">/variables/Pairspec.h</text>
</g>
<!-- Node59 -->
<g id="node3" class="node"><title>Node59</title>
<a xlink:href="_slow_control_variables_8h.html" target="_top" xlink:title="src/analysis/slowcontrol\l/SlowControlVariables.h">
<polygon fill="white" stroke="black" points="741,-85 741,-119 863,-119 863,-85 741,-85"/>
<text text-anchor="start" x="749" y="-106" font-family="Helvetica,sans-Serif" font-size="10.00">src/analysis/slowcontrol</text>
<text text-anchor="middle" x="802" y="-93" font-family="Helvetica,sans-Serif" font-size="10.00">/SlowControlVariables.h</text>
</a>
</g>
<!-- Node58&#45;&gt;Node59 -->
<g id="edge2" class="edge"><title>Node58&#45;&gt;Node59</title>
<path fill="none" stroke="midnightblue" d="M848.346,-149.671C838.706,-139.755 827.779,-128.515 818.956,-119.441"/>
<polygon fill="midnightblue" stroke="midnightblue" points="845.931,-152.207 855.411,-156.937 850.95,-147.327 845.931,-152.207"/>
</g>
<!-- Node71 -->
<g id="node27" class="node"><title>Node71</title>
<a xlink:href="variables_2_pair_spec_8cc.html" target="_top" xlink:title="src/analysis/slowcontrol\l/variables/Pairspec.cc">
<polygon fill="white" stroke="black" points="881,-85 881,-119 1003,-119 1003,-85 881,-85"/>
<text text-anchor="start" x="889" y="-106" font-family="Helvetica,sans-Serif" font-size="10.00">src/analysis/slowcontrol</text>
<text text-anchor="middle" x="942" y="-93" font-family="Helvetica,sans-Serif" font-size="10.00">/variables/Pairspec.cc</text>
</a>
</g>
<!-- Node58&#45;&gt;Node71 -->
<g id="edge26" class="edge"><title>Node58&#45;&gt;Node71</title>
<path fill="none" stroke="midnightblue" d="M895.654,-149.671C905.294,-139.755 916.221,-128.515 925.044,-119.441"/>
<polygon fill="midnightblue" stroke="midnightblue" points="893.05,-147.327 888.589,-156.937 898.069,-152.207 893.05,-147.327"/>
</g>
<!-- Node60 -->
<g id="node5" class="node"><title>Node60</title>
<a xlink:href="_debug_physics_8cc.html" target="_top" xlink:title="src/analysis/physics\l/common/DebugPhysics.cc">
<polygon fill="white" stroke="black" points="-0.5,-7 -0.5,-41 136.5,-41 136.5,-7 -0.5,-7"/>
<text text-anchor="start" x="7.5" y="-28" font-family="Helvetica,sans-Serif" font-size="10.00">src/analysis/physics</text>
<text text-anchor="middle" x="68" y="-15" font-family="Helvetica,sans-Serif" font-size="10.00">/common/DebugPhysics.cc</text>
</a>
</g>
<!-- Node59&#45;&gt;Node60 -->
<g id="edge4" class="edge"><title>Node59&#45;&gt;Node60</title>
<path fill="none" stroke="midnightblue" d="M730.803,-98.1338C584.731,-89.8762 255.601,-69.509 145,-48 135.791,-46.2091 126.128,-43.7117 116.88,-41.0003"/>
<polygon fill="midnightblue" stroke="midnightblue" points="730.818,-101.64 740.999,-98.7073 731.211,-94.6511 730.818,-101.64"/>
</g>
<!-- Node61 -->
<g id="node7" class="node"><title>Node61</title>
<a xlink:href="_extract_scalers_8cc.html" target="_top" xlink:title="src/analysis/physics\l/common/ExtractScalers.cc">
<polygon fill="white" stroke="black" points="154,-7 154,-41 292,-41 292,-7 154,-7"/>
<text text-anchor="start" x="162" y="-28" font-family="Helvetica,sans-Serif" font-size="10.00">src/analysis/physics</text>
<text text-anchor="middle" x="223" y="-15" font-family="Helvetica,sans-Serif" font-size="10.00">/common/ExtractScalers.cc</text>
</a>
</g>
<!-- Node59&#45;&gt;Node61 -->
<g id="edge6" class="edge"><title>Node59&#45;&gt;Node61</title>
<path fill="none" stroke="midnightblue" d="M730.823,-98.6152C633.089,-92.9976 452.242,-79.1206 301,-48 291.98,-46.1439 282.511,-43.6831 273.404,-41.0444"/>
<polygon fill="midnightblue" stroke="midnightblue" points="730.701,-102.114 740.882,-99.181 731.094,-95.1249 730.701,-102.114"/>
</g>
<!-- Node62 -->
<g id="node9" class="node"><title>Node62</title>
<a xlink:href="_process_tagg_eff_8cc.html" target="_top" xlink:title="src/analysis/physics\l/common/ProcessTaggEff.cc">
<polygon fill="white" stroke="black" points="310,-7 310,-41 454,-41 454,-7 310,-7"/>
<text text-anchor="start" x="318" y="-28" font-family="Helvetica,sans-Serif" font-size="10.00">src/analysis/physics</text>
<text text-anchor="middle" x="382" y="-15" font-family="Helvetica,sans-Serif" font-size="10.00">/common/ProcessTaggEff.cc</text>
</a>
</g>
<!-- Node59&#45;&gt;Node62 -->
<g id="edge8" class="edge"><title>Node59&#45;&gt;Node62</title>
<path fill="none" stroke="midnightblue" d="M730.609,-93.3749C661.648,-84.3987 554.492,-68.7489 463,-48 454.275,-46.0213 445.109,-43.6229 436.207,-41.1171"/>
<polygon fill="midnightblue" stroke="midnightblue" points="730.554,-96.8967 740.919,-94.7043 731.449,-89.9542 730.554,-96.8967"/>
</g>
<!-- Node63 -->
<g id="node11" class="node"><title>Node63</title>
<a xlink:href="debug_scalers_8cc.html" target="_top" xlink:title="src/analysis/physics\l/misc/debugScalers.cc">
<polygon fill="white" stroke="black" points="472,-7 472,-41 588,-41 588,-7 472,-7"/>
<text text-anchor="start" x="480" y="-28" font-family="Helvetica,sans-Serif" font-size="10.00">src/analysis/physics</text>
<text text-anchor="middle" x="530" y="-15" font-family="Helvetica,sans-Serif" font-size="10.00">/misc/debugScalers.cc</text>
</a>
</g>
<!-- Node59&#45;&gt;Node63 -->
<g id="edge10" class="edge"><title>Node59&#45;&gt;Node63</title>
<path fill="none" stroke="midnightblue" d="M730.771,-84.847C691.145,-74.9024 641.072,-61.6701 597,-48 590.155,-45.877 582.973,-43.484 575.957,-41.0524"/>
<polygon fill="midnightblue" stroke="midnightblue" points="730.06,-88.2769 740.61,-87.3027 731.755,-81.4852 730.06,-88.2769"/>
</g>
<!-- Node64 -->
<g id="node13" class="node"><title>Node64</title>
<a xlink:href="debug_tagg_eff_8cc.html" target="_top" xlink:title="src/analysis/physics\l/misc/debugTaggEff.cc">
<polygon fill="white" stroke="black" points="606,-7 606,-41 724,-41 724,-7 606,-7"/>
<text text-anchor="start" x="614" y="-28" font-family="Helvetica,sans-Serif" font-size="10.00">src/analysis/physics</text>
<text text-anchor="middle" x="665" y="-15" font-family="Helvetica,sans-Serif" font-size="10.00">/misc/debugTaggEff.cc</text>
</a>
</g>
<!-- Node59&#45;&gt;Node64 -->
<g id="edge12" class="edge"><title>Node59&#45;&gt;Node64</title>
<path fill="none" stroke="midnightblue" d="M763.007,-79.7995C741.406,-67.5015 714.967,-52.4483 694.995,-41.0775"/>
<polygon fill="midnightblue" stroke="midnightblue" points="761.513,-82.9764 771.935,-84.8826 764.976,-76.8932 761.513,-82.9764"/>
</g>
<!-- Node65 -->
<g id="node15" class="node"><title>Node65</title>
<a xlink:href="single_pi0_8cc.html" target="_top" xlink:title="src/analysis/physics\l/production/singlePi0.cc">
<polygon fill="white" stroke="black" points="741.5,-7 741.5,-41 862.5,-41 862.5,-7 741.5,-7"/>
<text text-anchor="start" x="749.5" y="-28" font-family="Helvetica,sans-Serif" font-size="10.00">src/analysis/physics</text>
<text text-anchor="middle" x="802" y="-15" font-family="Helvetica,sans-Serif" font-size="10.00">/production/singlePi0.cc</text>
</a>
</g>
<!-- Node59&#45;&gt;Node65 -->
<g id="edge14" class="edge"><title>Node59&#45;&gt;Node65</title>
<path fill="none" stroke="midnightblue" d="M802,-74.6102C802,-63.5188 802,-51.0489 802,-41.2623"/>
<polygon fill="midnightblue" stroke="midnightblue" points="798.5,-74.6892 802,-84.6893 805.5,-74.6893 798.5,-74.6892"/>
</g>
<!-- Node66 -->
<g id="node17" class="node"><title>Node66</title>
<a xlink:href="cross__section_8cc.html" target="_top" xlink:title="src/analysis/physics\l/scratch/collicott/cross\l_section.cc">
<polygon fill="white" stroke="black" points="880,-0.5 880,-47.5 996,-47.5 996,-0.5 880,-0.5"/>
<text text-anchor="start" x="888" y="-34.5" font-family="Helvetica,sans-Serif" font-size="10.00">src/analysis/physics</text>
<text text-anchor="start" x="888" y="-21.5" font-family="Helvetica,sans-Serif" font-size="10.00">/scratch/collicott/cross</text>
<text text-anchor="middle" x="938" y="-8.5" font-family="Helvetica,sans-Serif" font-size="10.00">_section.cc</text>
</a>
</g>
<!-- Node59&#45;&gt;Node66 -->
<g id="edge16" class="edge"><title>Node59&#45;&gt;Node66</title>
<path fill="none" stroke="midnightblue" d="M840.701,-79.804C858.258,-69.7345 879.037,-57.817 896.876,-47.5861"/>
<polygon fill="midnightblue" stroke="midnightblue" points="838.779,-76.8713 831.846,-84.8826 842.262,-82.9435 838.779,-76.8713"/>
</g>
<!-- Node67 -->
<g id="node19" class="node"><title>Node67</title>
<a xlink:href="det__eff_8cc.html" target="_top" xlink:title="src/analysis/physics\l/scratch/collicott/det\l_eff.cc">
<polygon fill="white" stroke="black" points="1014,-0.5 1014,-47.5 1120,-47.5 1120,-0.5 1014,-0.5"/>
<text text-anchor="start" x="1022" y="-34.5" font-family="Helvetica,sans-Serif" font-size="10.00">src/analysis/physics</text>
<text text-anchor="start" x="1022" y="-21.5" font-family="Helvetica,sans-Serif" font-size="10.00">/scratch/collicott/det</text>
<text text-anchor="middle" x="1067" y="-8.5" font-family="Helvetica,sans-Serif" font-size="10.00">_eff.cc</text>
</a>
</g>
<!-- Node59&#45;&gt;Node67 -->
<g id="edge18" class="edge"><title>Node59&#45;&gt;Node67</title>
<path fill="none" stroke="midnightblue" d="M873.015,-83.5166C926.293,-69.5804 992.166,-52.1772 1005,-48 1007.85,-47.0712 1010.77,-46.0835 1013.7,-45.0585"/>
<polygon fill="midnightblue" stroke="midnightblue" points="872.018,-80.1594 863.229,-86.0745 873.789,-86.9318 872.018,-80.1594"/>
</g>
<!-- Node68 -->
<g id="node21" class="node"><title>Node68</title>
<a xlink:href="_slow_control_manager_8cc.html" target="_top" xlink:title="src/analysis/slowcontrol\l/SlowControlManager.cc">
<polygon fill="white" stroke="black" points="1138,-7 1138,-41 1262,-41 1262,-7 1138,-7"/>
<text text-anchor="start" x="1146" y="-28" font-family="Helvetica,sans-Serif" font-size="10.00">src/analysis/slowcontrol</text>
<text text-anchor="middle" x="1200" y="-15" font-family="Helvetica,sans-Serif" font-size="10.00">/SlowControlManager.cc</text>
</a>
</g>
<!-- Node59&#45;&gt;Node68 -->
<g id="edge20" class="edge"><title>Node59&#45;&gt;Node68</title>
<path fill="none" stroke="midnightblue" d="M873.503,-83.8342C986.998,-62.3062 1019.95,-73.8301 1129,-48 1137.1,-46.0807 1145.59,-43.621 1153.77,-41.0112"/>
<polygon fill="midnightblue" stroke="midnightblue" points="872.52,-80.4598 863.371,-85.8026 873.855,-87.3314 872.52,-80.4598"/>
</g>
<!-- Node69 -->
<g id="node23" class="node"><title>Node69</title>
<a xlink:href="_slow_control_variables_8cc.html" target="_top" xlink:title="src/analysis/slowcontrol\l/SlowControlVariables.cc">
<polygon fill="white" stroke="black" points="1279.5,-7 1279.5,-41 1406.5,-41 1406.5,-7 1279.5,-7"/>
<text text-anchor="start" x="1287.5" y="-28" font-family="Helvetica,sans-Serif" font-size="10.00">src/analysis/slowcontrol</text>
<text text-anchor="middle" x="1343" y="-15" font-family="Helvetica,sans-Serif" font-size="10.00">/SlowControlVariables.cc</text>
</a>
</g>
<!-- Node59&#45;&gt;Node69 -->
<g id="edge22" class="edge"><title>Node59&#45;&gt;Node69</title>
<path fill="none" stroke="midnightblue" d="M873.45,-83.9173C1049.33,-54.8447 1099.94,-83.7215 1271,-48 1279.51,-46.2224 1288.42,-43.7661 1296.96,-41.0993"/>
<polygon fill="midnightblue" stroke="midnightblue" points="872.614,-80.5089 863.339,-85.6291 873.782,-87.4107 872.614,-80.5089"/>
</g>
<!-- Node70 -->
<g id="node25" class="node"><title>Node70</title>
<a xlink:href="_test_slow_control_manager_8cc.html" target="_top" xlink:title="test/analysis/TestSlowControl\lManager.cc">
<polygon fill="white" stroke="black" points="1424,-7 1424,-41 1572,-41 1572,-7 1424,-7"/>
<text text-anchor="start" x="1432" y="-28" font-family="Helvetica,sans-Serif" font-size="10.00">test/analysis/TestSlowControl</text>
<text text-anchor="middle" x="1498" y="-15" font-family="Helvetica,sans-Serif" font-size="10.00">Manager.cc</text>
</a>
</g>
<!-- Node59&#45;&gt;Node70 -->
<g id="edge24" class="edge"><title>Node59&#45;&gt;Node70</title>
<path fill="none" stroke="midnightblue" d="M873.375,-83.9581C1112.65,-46.9088 1180.04,-89.2622 1415,-48 1424.9,-46.2617 1435.3,-43.7893 1445.27,-41.0863"/>
<polygon fill="midnightblue" stroke="midnightblue" points="872.656,-80.5281 863.325,-85.545 873.748,-87.4424 872.656,-80.5281"/>
</g>
</g>
</svg>
